%TF.GenerationSoftware,KiCad,Pcbnew,9.0.0*%
%TF.CreationDate,2025-03-25T00:46:58+00:00*%
%TF.ProjectId,Wheelchair Powermeter PCB,57686565-6c63-4686-9169-7220506f7765,rev?*%
%TF.SameCoordinates,Original*%
%TF.FileFunction,Copper,L1,Top*%
%TF.FilePolarity,Positive*%
%FSLAX46Y46*%
G04 Gerber Fmt 4.6, Leading zero omitted, Abs format (unit mm)*
G04 Created by KiCad (PCBNEW 9.0.0) date 2025-03-25 00:46:58*
%MOMM*%
%LPD*%
G01*
G04 APERTURE LIST*
%TA.AperFunction,SMDPad,CuDef*%
%ADD10R,2.200000X1.400000*%
%TD*%
%TA.AperFunction,ComponentPad*%
%ADD11C,4.000000*%
%TD*%
%TA.AperFunction,ComponentPad*%
%ADD12C,2.900000*%
%TD*%
%TA.AperFunction,ConnectorPad*%
%ADD13C,5.000000*%
%TD*%
%TA.AperFunction,ComponentPad*%
%ADD14O,2.000000X1.200000*%
%TD*%
%TA.AperFunction,SMDPad,CuDef*%
%ADD15R,1.000000X2.200000*%
%TD*%
%TA.AperFunction,ComponentPad*%
%ADD16O,1.800000X2.000000*%
%TD*%
%TA.AperFunction,ComponentPad*%
%ADD17R,1.238000X1.238000*%
%TD*%
%TA.AperFunction,ComponentPad*%
%ADD18C,1.238000*%
%TD*%
%TA.AperFunction,ComponentPad*%
%ADD19C,0.650000*%
%TD*%
%TA.AperFunction,ComponentPad*%
%ADD20O,0.900000X1.700000*%
%TD*%
%TA.AperFunction,ComponentPad*%
%ADD21O,0.900000X2.400000*%
%TD*%
%TA.AperFunction,ComponentPad*%
%ADD22C,1.778000*%
%TD*%
%TA.AperFunction,ComponentPad*%
%ADD23C,3.200000*%
%TD*%
%TA.AperFunction,ComponentPad*%
%ADD24C,1.600000*%
%TD*%
%TA.AperFunction,ComponentPad*%
%ADD25O,1.600000X1.600000*%
%TD*%
%TA.AperFunction,ViaPad*%
%ADD26C,0.600000*%
%TD*%
%TA.AperFunction,Conductor*%
%ADD27C,0.200000*%
%TD*%
%TA.AperFunction,Conductor*%
%ADD28C,0.500000*%
%TD*%
G04 APERTURE END LIST*
D10*
%TO.P,S1,1,COM_1*%
%TO.N,GND*%
X125700000Y-112800000D03*
%TO.P,S1,2,COM_2*%
X116700000Y-112800000D03*
%TO.P,S1,3,NO_1*%
%TO.N,Net-(S1-NO_1)*%
X125700000Y-108300000D03*
%TO.P,S1,4,NO_2*%
X116700000Y-108300000D03*
%TD*%
D11*
%TO.P,TP_GND3,1,1*%
%TO.N,GND*%
X138800000Y-79600000D03*
%TD*%
D12*
%TO.P,REF\u002A\u002A,1*%
%TO.N,N/C*%
X78400000Y-119400000D03*
D13*
X78400000Y-119400000D03*
%TD*%
D14*
%TO.P,U4,1,VIN*%
%TO.N,3.3V*%
X147195000Y-119380000D03*
%TO.P,U4,2,GND*%
%TO.N,GND*%
X147195000Y-116840000D03*
%TO.P,U4,3,3VO*%
%TO.N,unconnected-(U4-3VO-Pad3)*%
X147195000Y-114300000D03*
%TO.P,U4,4,INT2*%
%TO.N,unconnected-(U4-INT2-Pad4)*%
X147195000Y-111760000D03*
%TO.P,U4,5,INT*%
%TO.N,unconnected-(U4-INT-Pad5)*%
X147195000Y-109220000D03*
%TO.P,U4,6,SCL*%
%TO.N,SCL_MCU*%
X147195000Y-106680000D03*
%TO.P,U4,7,SDA*%
%TO.N,SDA_MCU*%
X147195000Y-104140000D03*
%TD*%
D11*
%TO.P,TP_VBUS1,1,1*%
%TO.N,/POWER*%
X86800000Y-91200000D03*
%TD*%
D12*
%TO.P,REF\u002A\u002A,1*%
%TO.N,N/C*%
X146200000Y-76600000D03*
D13*
X146200000Y-76600000D03*
%TD*%
D12*
%TO.P,REF\u002A\u002A,1*%
%TO.N,N/C*%
X127600000Y-120200000D03*
D13*
X127600000Y-120200000D03*
%TD*%
D15*
%TO.P,U5,1,3.3V*%
%TO.N,3.3V*%
X108800000Y-118200000D03*
%TO.P,U5,2,GND*%
%TO.N,GND*%
X110300000Y-118200000D03*
%TO.P,U5,3,CK*%
%TO.N,Net-(U1-SCK)*%
X111800000Y-118200000D03*
%TO.P,U5,4,SI*%
%TO.N,Net-(U1-MOSI)*%
X113300000Y-118200000D03*
%TO.P,U5,5,CS*%
%TO.N,Net-(U1-D10)*%
X114800000Y-118200000D03*
%TO.P,U5,6,RT*%
%TO.N,Net-(U1-D11)*%
X116300000Y-118200000D03*
%TO.P,U5,7,DC*%
%TO.N,Net-(U1-D12)*%
X117800000Y-118200000D03*
%TO.P,U5,8,BL*%
%TO.N,Net-(U1-D13)*%
X119300000Y-118200000D03*
%TD*%
D12*
%TO.P,REF\u002A\u002A,1*%
%TO.N,N/C*%
X78800000Y-76800000D03*
D13*
X78800000Y-76800000D03*
%TD*%
D11*
%TO.P,TP_3.3V1,1,1*%
%TO.N,3.3V*%
X131800000Y-79400000D03*
%TD*%
D16*
%TO.P,U1,1,RST*%
%TO.N,unconnected-(U1-RST-Pad1)*%
X76740000Y-102800000D03*
%TO.P,U1,2,3.3V*%
%TO.N,3.3V*%
X79280000Y-102800000D03*
%TO.P,U1,3,3.3V*%
X81820000Y-102800000D03*
%TO.P,U1,4,GND*%
%TO.N,GND*%
X84360000Y-102800000D03*
%TO.P,U1,5,A0*%
%TO.N,unconnected-(U1-A0-Pad5)*%
X86900000Y-102800000D03*
%TO.P,U1,6,A1*%
%TO.N,unconnected-(U1-A1-Pad6)*%
X89440000Y-102800000D03*
%TO.P,U1,7,A2*%
%TO.N,unconnected-(U1-A2-Pad7)*%
X91980000Y-102800000D03*
%TO.P,U1,8,A3*%
%TO.N,unconnected-(U1-A3-Pad8)*%
X94520000Y-102800000D03*
%TO.P,U1,9,A4*%
%TO.N,unconnected-(U1-A4-Pad9)*%
X97060000Y-102800000D03*
%TO.P,U1,10,A5*%
%TO.N,unconnected-(U1-A5-Pad10)*%
X99600000Y-102800000D03*
%TO.P,U1,11,SCK*%
%TO.N,Net-(U1-SCK)*%
X102140000Y-102800000D03*
%TO.P,U1,12,MOSI*%
%TO.N,Net-(U1-MOSI)*%
X104680000Y-102800000D03*
%TO.P,U1,13,MISO*%
%TO.N,unconnected-(U1-MISO-Pad13)*%
X107220000Y-102800000D03*
%TO.P,U1,14,RX*%
%TO.N,unconnected-(U1-RX-Pad14)*%
X109760000Y-102800000D03*
%TO.P,U1,15,TX*%
%TO.N,unconnected-(U1-TX-Pad15)*%
X112300000Y-102800000D03*
%TO.P,U1,16,TXD0*%
%TO.N,unconnected-(U1-TXD0-Pad16)*%
X114840000Y-102800000D03*
%TO.P,U1,17,VBAT*%
%TO.N,/POWER*%
X86900000Y-82800000D03*
%TO.P,U1,18,EN*%
%TO.N,unconnected-(U1-EN-Pad18)*%
X89440000Y-82800000D03*
%TO.P,U1,19,VBUS*%
%TO.N,unconnected-(U1-VBUS-Pad19)*%
X91980000Y-82800000D03*
%TO.P,U1,20,D13*%
%TO.N,Net-(U1-D13)*%
X94520000Y-82800000D03*
%TO.P,U1,21,D12*%
%TO.N,Net-(U1-D12)*%
X97060000Y-82800000D03*
%TO.P,U1,22,D11*%
%TO.N,Net-(U1-D11)*%
X99600000Y-82800000D03*
%TO.P,U1,23,D10*%
%TO.N,Net-(U1-D10)*%
X102140000Y-82800000D03*
%TO.P,U1,24,D9*%
%TO.N,unconnected-(U1-D9-Pad24)*%
X104680000Y-82800000D03*
%TO.P,U1,25,D6*%
%TO.N,Net-(S1-NO_1)*%
X107220000Y-82800000D03*
%TO.P,U1,26,D5*%
%TO.N,Net-(S2-NO_1)*%
X109760000Y-82800000D03*
%TO.P,U1,27,SCL*%
%TO.N,SCL_MCU*%
X112300000Y-82800000D03*
%TO.P,U1,28,SDA*%
%TO.N,SDA_MCU*%
X114840000Y-82800000D03*
%TD*%
D10*
%TO.P,S2,1,COM_1*%
%TO.N,GND*%
X111000000Y-112800000D03*
%TO.P,S2,2,COM_2*%
X102000000Y-112800000D03*
%TO.P,S2,3,NO_1*%
%TO.N,Net-(S2-NO_1)*%
X111000000Y-108300000D03*
%TO.P,S2,4,NO_2*%
X102000000Y-108300000D03*
%TD*%
D17*
%TO.P,U2,1,GND*%
%TO.N,GND*%
X91762500Y-114700000D03*
D18*
%TO.P,U2,2,Supply*%
%TO.N,3.3V*%
X91762500Y-112200000D03*
%TO.P,U2,3,SDA*%
%TO.N,SDA_MCU*%
X91762500Y-109700000D03*
%TO.P,U2,4,SCL*%
%TO.N,SCL_MCU*%
X91762500Y-107200000D03*
%TO.P,U2,5*%
%TO.N,unconnected-(U2-Pad5)*%
X79062500Y-107200000D03*
%TO.P,U2,6*%
%TO.N,unconnected-(U2-Pad6)*%
X79062500Y-109700000D03*
%TO.P,U2,7*%
%TO.N,unconnected-(U2-Pad7)*%
X79062500Y-112200000D03*
%TO.P,U2,8,INT*%
%TO.N,unconnected-(U2-INT-Pad8)*%
X79062500Y-114700000D03*
%TD*%
D19*
%TO.P,J1,A1,GND*%
%TO.N,GND*%
X90775000Y-78760000D03*
%TO.P,J1,A4,VBUS*%
%TO.N,/POWER*%
X89925000Y-78760000D03*
%TO.P,J1,A5,CC1*%
%TO.N,Net-(J1-CC1)*%
X89075000Y-78760000D03*
%TO.P,J1,A6,DP1*%
%TO.N,unconnected-(J1-DP1-PadA6)*%
X88225000Y-78760000D03*
%TO.P,J1,A7,DN1*%
%TO.N,unconnected-(J1-DN1-PadA7)*%
X87375000Y-78760000D03*
%TO.P,J1,A8,SBU1*%
%TO.N,unconnected-(J1-SBU1-PadA8)*%
X86525000Y-78760000D03*
%TO.P,J1,A9,VBUS*%
%TO.N,/POWER*%
X85675000Y-78760000D03*
%TO.P,J1,A12,GND*%
%TO.N,GND*%
X84825000Y-78760000D03*
%TO.P,J1,B1,GND*%
X84825000Y-77410000D03*
%TO.P,J1,B4,VBUS*%
%TO.N,/POWER*%
X85675000Y-77410000D03*
%TO.P,J1,B5,CC2*%
%TO.N,Net-(J1-CC2)*%
X86525000Y-77410000D03*
%TO.P,J1,B6,DP2*%
%TO.N,unconnected-(J1-DP2-PadB6)*%
X87375000Y-77410000D03*
%TO.P,J1,B7,DN2*%
%TO.N,unconnected-(J1-DN2-PadB7)*%
X88225000Y-77410000D03*
%TO.P,J1,B8,SBU2*%
%TO.N,unconnected-(J1-SBU2-PadB8)*%
X89075000Y-77410000D03*
%TO.P,J1,B9,VBUS*%
%TO.N,/POWER*%
X89925000Y-77410000D03*
%TO.P,J1,B12,GND*%
%TO.N,GND*%
X90775000Y-77410000D03*
D20*
%TO.P,J1,S1,SHELL*%
X92125000Y-74400000D03*
%TO.P,J1,S2,SHELL*%
X83475000Y-74400000D03*
D21*
%TO.P,J1,S3,SHELL*%
X92125000Y-77780000D03*
%TO.P,J1,S4,SHELL*%
X83475000Y-77780000D03*
%TD*%
D22*
%TO.P,U3,JP1_1,VIN*%
%TO.N,3.3V*%
X129800000Y-99000000D03*
%TO.P,U3,JP1_2,1.8V*%
%TO.N,unconnected-(U3A-1.8V-PadJP1_2)*%
X132340000Y-99000000D03*
%TO.P,U3,JP1_3,GND_JP1*%
%TO.N,GND*%
X134880000Y-99000000D03*
%TO.P,U3,JP1_4,SCK/SCL*%
%TO.N,SCL_MCU*%
X137420000Y-99000000D03*
%TO.P,U3,JP1_5,SDI/SDA*%
%TO.N,SDA_MCU*%
X139960000Y-99000000D03*
%TO.P,U3,JP1_6,INT*%
%TO.N,unconnected-(U3A-INT-PadJP1_6)*%
X142500000Y-99000000D03*
%TO.P,U3,JP3_1*%
%TO.N,N/C*%
X142500000Y-86300000D03*
%TO.P,U3,JP3_2*%
X139960000Y-86300000D03*
%TO.P,U3,JP3_3*%
X137420000Y-86300000D03*
%TO.P,U3,JP3_4*%
X134880000Y-86300000D03*
%TO.P,U3,JP3_5*%
X132340000Y-86300000D03*
%TO.P,U3,JP3_6*%
X129800000Y-86300000D03*
D23*
%TO.P,U3,SH1*%
X125990000Y-86300000D03*
%TO.P,U3,SH2*%
X125990000Y-99000000D03*
%TO.P,U3,SH3*%
X146310000Y-99000000D03*
%TO.P,U3,SH4*%
X146310000Y-86300000D03*
%TD*%
D24*
%TO.P,R3,1*%
%TO.N,Net-(J1-CC1)*%
X123500000Y-78350000D03*
D25*
%TO.P,R3,2*%
%TO.N,Net-(R2-Pad2)*%
X115880000Y-78350000D03*
%TD*%
D24*
%TO.P,R5,1*%
%TO.N,Net-(R1-Pad2)*%
X105090000Y-78600000D03*
D25*
%TO.P,R5,2*%
%TO.N,GND*%
X112710000Y-78600000D03*
%TD*%
D24*
%TO.P,R4,1*%
%TO.N,Net-(J1-CC2)*%
X95080000Y-78650000D03*
D25*
%TO.P,R4,2*%
%TO.N,Net-(R1-Pad2)*%
X102700000Y-78650000D03*
%TD*%
D24*
%TO.P,R6,1*%
%TO.N,Net-(R2-Pad2)*%
X113500000Y-75250000D03*
D25*
%TO.P,R6,2*%
%TO.N,GND*%
X105880000Y-75250000D03*
%TD*%
D24*
%TO.P,R1,1*%
%TO.N,Net-(J1-CC2)*%
X95080000Y-75500000D03*
D25*
%TO.P,R1,2*%
%TO.N,Net-(R1-Pad2)*%
X102700000Y-75500000D03*
%TD*%
D24*
%TO.P,R2,1*%
%TO.N,Net-(J1-CC1)*%
X123450000Y-75150000D03*
D25*
%TO.P,R2,2*%
%TO.N,Net-(R2-Pad2)*%
X115830000Y-75150000D03*
%TD*%
D26*
%TO.N,Net-(S2-NO_1)*%
X113650000Y-108300000D03*
%TO.N,Net-(U1-D12)*%
X121100000Y-100150000D03*
X117800000Y-116000000D03*
%TO.N,Net-(U1-D13)*%
X119300000Y-115950000D03*
X122600000Y-102750000D03*
%TO.N,Net-(U1-MOSI)*%
X98500000Y-106750000D03*
%TO.N,Net-(U1-D11)*%
X119600000Y-98200000D03*
X116300000Y-115950000D03*
%TO.N,Net-(U1-D10)*%
X118050000Y-96700000D03*
X114800000Y-115850000D03*
%TO.N,GND*%
X113850000Y-112800000D03*
%TD*%
D27*
%TO.N,Net-(J1-CC1)*%
X89075000Y-79219619D02*
X89075000Y-78760000D01*
X122099000Y-79751000D02*
X89606381Y-79751000D01*
X89606381Y-79751000D02*
X89075000Y-79219619D01*
X123500000Y-78350000D02*
X122099000Y-79751000D01*
%TO.N,Net-(J1-CC2)*%
X86525000Y-76950381D02*
X86525000Y-77410000D01*
X92709000Y-76279000D02*
X87196381Y-76279000D01*
X95080000Y-78650000D02*
X92709000Y-76279000D01*
X87196381Y-76279000D02*
X86525000Y-76950381D01*
%TO.N,Net-(S1-NO_1)*%
X125700000Y-108300000D02*
X125700000Y-103000000D01*
X125700000Y-103000000D02*
X107300000Y-84600000D01*
X125700000Y-108300000D02*
X116700000Y-108300000D01*
X107300000Y-82880000D02*
X107220000Y-82800000D01*
X107300000Y-84600000D02*
X107300000Y-82880000D01*
%TO.N,Net-(S2-NO_1)*%
X111000000Y-108300000D02*
X113650000Y-108300000D01*
X102000000Y-108300000D02*
X111000000Y-108300000D01*
%TO.N,SCL_MCU*%
X137420000Y-99949043D02*
X144150957Y-106680000D01*
X137420000Y-99000000D02*
X137420000Y-99949043D01*
X144140000Y-106680000D02*
X147195000Y-106680000D01*
X119150000Y-89650000D02*
X130250000Y-89650000D01*
X137420000Y-96820000D02*
X137420000Y-99000000D01*
X144150957Y-106680000D02*
X144200000Y-106680000D01*
X112300000Y-82800000D02*
X119150000Y-89650000D01*
X130250000Y-89650000D02*
X137420000Y-96820000D01*
%TO.N,Net-(U1-D12)*%
X97060000Y-82800000D02*
X114410000Y-100150000D01*
X117800000Y-118200000D02*
X117800000Y-116000000D01*
X117800000Y-116000000D02*
X117800000Y-115950000D01*
X114410000Y-100150000D02*
X121100000Y-100150000D01*
X97060000Y-82810000D02*
X97060000Y-82800000D01*
%TO.N,Net-(U1-D13)*%
X112271000Y-100551000D02*
X114801000Y-100551000D01*
X94520000Y-82800000D02*
X112271000Y-100551000D01*
X114801000Y-100551000D02*
X117000000Y-102750000D01*
X119300000Y-118200000D02*
X119300000Y-115950000D01*
X122600000Y-102750000D02*
X117000000Y-102750000D01*
%TO.N,SDA_MCU*%
X116800000Y-82800000D02*
X122450000Y-88450000D01*
X130700000Y-88450000D02*
X139960000Y-97710000D01*
X139960000Y-99960000D02*
X144140000Y-104140000D01*
X144140000Y-104140000D02*
X147195000Y-104140000D01*
X114840000Y-82800000D02*
X116800000Y-82800000D01*
X139960000Y-97710000D02*
X139960000Y-99000000D01*
X122450000Y-88450000D02*
X130700000Y-88450000D01*
X139960000Y-99000000D02*
X139960000Y-99960000D01*
%TO.N,Net-(U1-MOSI)*%
X100032900Y-120300000D02*
X98500000Y-118767100D01*
X111800000Y-120300000D02*
X100200000Y-120300000D01*
X113300000Y-118200000D02*
X113300000Y-118800000D01*
X100200000Y-120300000D02*
X100032900Y-120300000D01*
X98500000Y-118767100D02*
X98500000Y-106750000D01*
X113300000Y-118800000D02*
X111800000Y-120300000D01*
%TO.N,Net-(U1-D11)*%
X116300000Y-118200000D02*
X116300000Y-115950000D01*
X115000000Y-98200000D02*
X119600000Y-98200000D01*
X99600000Y-82800000D02*
X115000000Y-98200000D01*
%TO.N,Net-(U1-SCK)*%
X111800000Y-118800000D02*
X110701000Y-119899000D01*
X100366100Y-119899000D02*
X100199000Y-119899000D01*
X110701000Y-119899000D02*
X100366100Y-119899000D01*
X99250000Y-118950000D02*
X99250000Y-105690000D01*
X100199000Y-119899000D02*
X99250000Y-118950000D01*
X111800000Y-118200000D02*
X111800000Y-118800000D01*
X99250000Y-105690000D02*
X102140000Y-102800000D01*
%TO.N,Net-(U1-D10)*%
X116040000Y-96700000D02*
X118050000Y-96700000D01*
X102140000Y-82800000D02*
X116040000Y-96700000D01*
X114800000Y-118200000D02*
X114800000Y-115850000D01*
D28*
%TO.N,GND*%
X110300000Y-118200000D02*
X110300000Y-113500000D01*
D27*
X110300000Y-113500000D02*
X111000000Y-112800000D01*
X102000000Y-112800000D02*
X111000000Y-112800000D01*
X111000000Y-112800000D02*
X113850000Y-112800000D01*
X113850000Y-112800000D02*
X116700000Y-112800000D01*
X125700000Y-112800000D02*
X116700000Y-112800000D01*
%TO.N,/POWER*%
X86900000Y-91100000D02*
X86800000Y-91200000D01*
%TO.N,unconnected-(U1-D9-Pad24)*%
X104680000Y-83330000D02*
X104680000Y-82800000D01*
%TD*%
%TA.AperFunction,Conductor*%
%TO.N,3.3V*%
G36*
X147363977Y-73171214D02*
G01*
X147400796Y-73207521D01*
X147626180Y-73549771D01*
X147771835Y-73770950D01*
X147792266Y-73837766D01*
X147773331Y-73905021D01*
X147721040Y-73951362D01*
X147651997Y-73962076D01*
X147614472Y-73950869D01*
X147350054Y-73823532D01*
X147031965Y-73712227D01*
X147031953Y-73712223D01*
X146703397Y-73637233D01*
X146703381Y-73637231D01*
X146368508Y-73599500D01*
X146368504Y-73599500D01*
X146031496Y-73599500D01*
X146031491Y-73599500D01*
X145696618Y-73637231D01*
X145696602Y-73637233D01*
X145368046Y-73712223D01*
X145368034Y-73712227D01*
X145049945Y-73823532D01*
X144746316Y-73969752D01*
X144460962Y-74149053D01*
X144197477Y-74359174D01*
X143959174Y-74597477D01*
X143749053Y-74860962D01*
X143569752Y-75146316D01*
X143423532Y-75449945D01*
X143312227Y-75768034D01*
X143312223Y-75768046D01*
X143237233Y-76096602D01*
X143237231Y-76096618D01*
X143199500Y-76431491D01*
X143199500Y-76768508D01*
X143237231Y-77103381D01*
X143237233Y-77103397D01*
X143312223Y-77431953D01*
X143312227Y-77431965D01*
X143423532Y-77750054D01*
X143569752Y-78053683D01*
X143569754Y-78053686D01*
X143749054Y-78339039D01*
X143959175Y-78602523D01*
X144197477Y-78840825D01*
X144460961Y-79050946D01*
X144746314Y-79230246D01*
X145049949Y-79376469D01*
X145242867Y-79443974D01*
X145368034Y-79487772D01*
X145368046Y-79487776D01*
X145696606Y-79562767D01*
X146031492Y-79600499D01*
X146031493Y-79600500D01*
X146031496Y-79600500D01*
X146368507Y-79600500D01*
X146368507Y-79600499D01*
X146703394Y-79562767D01*
X147031954Y-79487776D01*
X147350051Y-79376469D01*
X147653686Y-79230246D01*
X147939039Y-79050946D01*
X148202523Y-78840825D01*
X148440825Y-78602523D01*
X148650946Y-78339039D01*
X148830246Y-78053686D01*
X148976469Y-77750051D01*
X149087776Y-77431954D01*
X149162767Y-77103394D01*
X149200500Y-76768504D01*
X149200500Y-76431496D01*
X149191714Y-76353517D01*
X149203768Y-76284695D01*
X149251117Y-76233316D01*
X149318727Y-76215691D01*
X149385133Y-76237417D01*
X149418494Y-76271433D01*
X149549165Y-76469859D01*
X149778847Y-76818635D01*
X149799278Y-76885451D01*
X149799286Y-76886976D01*
X149750325Y-119775934D01*
X149730564Y-119842951D01*
X149717956Y-119859337D01*
X147226494Y-122591909D01*
X147218653Y-122599771D01*
X147090869Y-122716907D01*
X147028149Y-122747697D01*
X147007079Y-122749500D01*
X129569828Y-122749500D01*
X129502789Y-122729815D01*
X129457034Y-122677011D01*
X129447090Y-122607853D01*
X129476115Y-122544297D01*
X129492516Y-122528553D01*
X129602516Y-122440831D01*
X129602518Y-122440828D01*
X129602523Y-122440825D01*
X129840825Y-122202523D01*
X130050946Y-121939039D01*
X130230246Y-121653686D01*
X130376469Y-121350051D01*
X130487776Y-121031954D01*
X130562767Y-120703394D01*
X130600500Y-120368504D01*
X130600500Y-120031496D01*
X130562767Y-119696606D01*
X130487776Y-119368046D01*
X130376469Y-119049949D01*
X130230246Y-118746314D01*
X130050946Y-118460961D01*
X129840825Y-118197477D01*
X129602523Y-117959175D01*
X129339039Y-117749054D01*
X129053686Y-117569754D01*
X129053683Y-117569752D01*
X128750054Y-117423532D01*
X128431965Y-117312227D01*
X128431953Y-117312223D01*
X128103397Y-117237233D01*
X128103381Y-117237231D01*
X127768508Y-117199500D01*
X127768504Y-117199500D01*
X127431496Y-117199500D01*
X127431491Y-117199500D01*
X127096618Y-117237231D01*
X127096602Y-117237233D01*
X126768046Y-117312223D01*
X126768034Y-117312227D01*
X126449945Y-117423532D01*
X126146316Y-117569752D01*
X125860962Y-117749053D01*
X125597477Y-117959174D01*
X125359174Y-118197477D01*
X125149053Y-118460962D01*
X124969752Y-118746316D01*
X124823532Y-119049945D01*
X124712227Y-119368034D01*
X124712223Y-119368046D01*
X124637233Y-119696602D01*
X124637231Y-119696618D01*
X124599500Y-120031491D01*
X124599500Y-120368508D01*
X124637231Y-120703381D01*
X124637233Y-120703397D01*
X124712223Y-121031953D01*
X124712227Y-121031965D01*
X124823532Y-121350054D01*
X124969752Y-121653683D01*
X124969754Y-121653686D01*
X125149054Y-121939039D01*
X125178137Y-121975508D01*
X125359174Y-122202522D01*
X125597483Y-122440831D01*
X125707484Y-122528553D01*
X125747625Y-122585741D01*
X125750475Y-122655552D01*
X125715130Y-122715823D01*
X125652811Y-122747416D01*
X125630172Y-122749500D01*
X77382311Y-122749500D01*
X77315272Y-122729815D01*
X77300478Y-122718663D01*
X76601172Y-122104407D01*
X76563795Y-122045376D01*
X76564266Y-121975508D01*
X76602436Y-121916986D01*
X76666186Y-121888390D01*
X76735276Y-121898800D01*
X76748972Y-121906247D01*
X76946314Y-122030246D01*
X77249949Y-122176469D01*
X77488848Y-122260063D01*
X77568034Y-122287772D01*
X77568046Y-122287776D01*
X77896606Y-122362767D01*
X78231492Y-122400499D01*
X78231493Y-122400500D01*
X78231496Y-122400500D01*
X78568507Y-122400500D01*
X78568507Y-122400499D01*
X78903394Y-122362767D01*
X79231954Y-122287776D01*
X79550051Y-122176469D01*
X79853686Y-122030246D01*
X80139039Y-121850946D01*
X80402523Y-121640825D01*
X80640825Y-121402523D01*
X80850946Y-121139039D01*
X81030246Y-120853686D01*
X81176469Y-120550051D01*
X81287776Y-120231954D01*
X81362767Y-119903394D01*
X81400500Y-119568504D01*
X81400500Y-119231496D01*
X81362767Y-118896606D01*
X81287776Y-118568046D01*
X81176469Y-118249949D01*
X81030246Y-117946314D01*
X80850946Y-117660961D01*
X80640825Y-117397477D01*
X80402523Y-117159175D01*
X80139039Y-116949054D01*
X79853686Y-116769754D01*
X79853683Y-116769752D01*
X79550054Y-116623532D01*
X79231965Y-116512227D01*
X79231953Y-116512223D01*
X78903397Y-116437233D01*
X78903381Y-116437231D01*
X78568508Y-116399500D01*
X78568504Y-116399500D01*
X78231496Y-116399500D01*
X78231491Y-116399500D01*
X77896618Y-116437231D01*
X77896602Y-116437233D01*
X77568046Y-116512223D01*
X77568034Y-116512227D01*
X77249945Y-116623532D01*
X76946316Y-116769752D01*
X76660962Y-116949053D01*
X76397477Y-117159174D01*
X76159174Y-117397477D01*
X75949053Y-117660962D01*
X75769752Y-117946316D01*
X75623532Y-118249945D01*
X75512227Y-118568034D01*
X75512223Y-118568046D01*
X75437233Y-118896602D01*
X75437231Y-118896618D01*
X75399500Y-119231491D01*
X75399500Y-119568508D01*
X75437231Y-119903381D01*
X75437233Y-119903397D01*
X75512223Y-120231953D01*
X75512227Y-120231965D01*
X75623532Y-120550054D01*
X75769752Y-120853683D01*
X75774845Y-120861788D01*
X75949054Y-121139039D01*
X76101990Y-121330816D01*
X76122248Y-121356218D01*
X76148657Y-121420905D01*
X76135900Y-121489601D01*
X76088030Y-121540494D01*
X76020243Y-121557428D01*
X75954062Y-121535025D01*
X75943468Y-121526694D01*
X75336252Y-120993329D01*
X75333019Y-120990387D01*
X74039434Y-119770721D01*
X74004161Y-119710409D01*
X74000500Y-119680500D01*
X74000500Y-114611893D01*
X77943000Y-114611893D01*
X77943000Y-114788106D01*
X77970566Y-114962151D01*
X78025016Y-115129736D01*
X78025017Y-115129739D01*
X78081509Y-115240609D01*
X78105017Y-115286746D01*
X78208593Y-115429305D01*
X78333195Y-115553907D01*
X78475754Y-115657483D01*
X78547134Y-115693853D01*
X78632760Y-115737482D01*
X78632763Y-115737483D01*
X78710662Y-115762793D01*
X78800350Y-115791934D01*
X78974393Y-115819500D01*
X78974394Y-115819500D01*
X79150606Y-115819500D01*
X79150607Y-115819500D01*
X79324650Y-115791934D01*
X79492239Y-115737482D01*
X79649246Y-115657483D01*
X79791805Y-115553907D01*
X79916407Y-115429305D01*
X80019983Y-115286746D01*
X80099982Y-115129739D01*
X80154434Y-114962150D01*
X80182000Y-114788107D01*
X80182000Y-114611893D01*
X80154434Y-114437850D01*
X80099982Y-114270261D01*
X80099982Y-114270260D01*
X80057604Y-114187090D01*
X80019983Y-114113254D01*
X80019981Y-114113251D01*
X80019980Y-114113249D01*
X80012312Y-114102695D01*
X80012309Y-114102692D01*
X79968433Y-114042302D01*
X79961773Y-114033135D01*
X90643000Y-114033135D01*
X90643000Y-115366870D01*
X90643001Y-115366876D01*
X90649408Y-115426483D01*
X90699702Y-115561328D01*
X90699706Y-115561335D01*
X90785952Y-115676544D01*
X90785955Y-115676547D01*
X90901164Y-115762793D01*
X90901171Y-115762797D01*
X91036017Y-115813091D01*
X91036016Y-115813091D01*
X91042944Y-115813835D01*
X91095627Y-115819500D01*
X92429372Y-115819499D01*
X92488983Y-115813091D01*
X92623831Y-115762796D01*
X92739046Y-115676546D01*
X92825296Y-115561331D01*
X92875591Y-115426483D01*
X92882000Y-115366873D01*
X92881999Y-114033128D01*
X92875591Y-113973517D01*
X92874538Y-113970695D01*
X92825297Y-113838671D01*
X92825293Y-113838664D01*
X92739047Y-113723455D01*
X92739044Y-113723452D01*
X92623835Y-113637206D01*
X92623828Y-113637202D01*
X92488982Y-113586908D01*
X92488983Y-113586908D01*
X92429383Y-113580501D01*
X92429381Y-113580500D01*
X92429373Y-113580500D01*
X92429364Y-113580500D01*
X91095629Y-113580500D01*
X91095623Y-113580501D01*
X91036016Y-113586908D01*
X90901171Y-113637202D01*
X90901164Y-113637206D01*
X90785955Y-113723452D01*
X90785952Y-113723455D01*
X90699706Y-113838664D01*
X90699702Y-113838671D01*
X90649408Y-113973517D01*
X90645303Y-114011705D01*
X90643001Y-114033123D01*
X90643000Y-114033135D01*
X79961773Y-114033135D01*
X79916407Y-113970695D01*
X79791805Y-113846093D01*
X79649246Y-113742517D01*
X79611356Y-113723211D01*
X79492239Y-113662517D01*
X79492236Y-113662516D01*
X79324651Y-113608066D01*
X79191065Y-113586908D01*
X79150607Y-113580500D01*
X78974393Y-113580500D01*
X78933935Y-113586908D01*
X78800348Y-113608066D01*
X78632763Y-113662516D01*
X78632760Y-113662517D01*
X78475753Y-113742517D01*
X78333193Y-113846094D01*
X78208594Y-113970693D01*
X78105017Y-114113253D01*
X78025017Y-114270260D01*
X78025016Y-114270263D01*
X77970566Y-114437848D01*
X77943000Y-114611893D01*
X74000500Y-114611893D01*
X74000500Y-112111893D01*
X77943000Y-112111893D01*
X77943000Y-112288106D01*
X77970566Y-112462151D01*
X78025016Y-112629736D01*
X78025017Y-112629739D01*
X78061445Y-112701232D01*
X78105017Y-112786746D01*
X78208593Y-112929305D01*
X78333195Y-113053907D01*
X78475754Y-113157483D01*
X78552761Y-113196719D01*
X78632760Y-113237482D01*
X78632763Y-113237483D01*
X78716555Y-113264708D01*
X78800350Y-113291934D01*
X78974393Y-113319500D01*
X78974394Y-113319500D01*
X79150606Y-113319500D01*
X79150607Y-113319500D01*
X79324650Y-113291934D01*
X79492239Y-113237482D01*
X79649246Y-113157483D01*
X79791805Y-113053907D01*
X79916407Y-112929305D01*
X80019983Y-112786746D01*
X80099982Y-112629739D01*
X80154434Y-112462150D01*
X80182000Y-112288107D01*
X80182000Y-112111893D01*
X80154434Y-111937850D01*
X80099982Y-111770261D01*
X80099982Y-111770260D01*
X80019982Y-111613253D01*
X79916407Y-111470695D01*
X79791805Y-111346093D01*
X79649246Y-111242517D01*
X79492239Y-111162517D01*
X79492236Y-111162516D01*
X79324651Y-111108066D01*
X79237628Y-111094283D01*
X79150607Y-111080500D01*
X78974393Y-111080500D01*
X78916378Y-111089688D01*
X78800348Y-111108066D01*
X78632763Y-111162516D01*
X78632760Y-111162517D01*
X78475753Y-111242517D01*
X78333193Y-111346094D01*
X78208594Y-111470693D01*
X78105017Y-111613253D01*
X78025017Y-111770260D01*
X78025016Y-111770263D01*
X77970566Y-111937848D01*
X77943000Y-112111893D01*
X74000500Y-112111893D01*
X74000500Y-109611893D01*
X77943000Y-109611893D01*
X77943000Y-109788106D01*
X77970566Y-109962151D01*
X78025016Y-110129736D01*
X78025017Y-110129739D01*
X78041064Y-110161232D01*
X78105017Y-110286746D01*
X78208593Y-110429305D01*
X78333195Y-110553907D01*
X78475754Y-110657483D01*
X78552761Y-110696719D01*
X78632760Y-110737482D01*
X78632763Y-110737483D01*
X78716555Y-110764708D01*
X78800350Y-110791934D01*
X78974393Y-110819500D01*
X78974394Y-110819500D01*
X79150606Y-110819500D01*
X79150607Y-110819500D01*
X79324650Y-110791934D01*
X79492239Y-110737482D01*
X79649246Y-110657483D01*
X79791805Y-110553907D01*
X79916407Y-110429305D01*
X80019983Y-110286746D01*
X80099982Y-110129739D01*
X80154434Y-109962150D01*
X80182000Y-109788107D01*
X80182000Y-109611893D01*
X90643000Y-109611893D01*
X90643000Y-109788106D01*
X90670566Y-109962151D01*
X90725016Y-110129736D01*
X90725017Y-110129739D01*
X90741064Y-110161232D01*
X90805017Y-110286746D01*
X90908593Y-110429305D01*
X91033195Y-110553907D01*
X91175754Y-110657483D01*
X91252761Y-110696719D01*
X91332760Y-110737482D01*
X91332763Y-110737483D01*
X91416555Y-110764708D01*
X91500350Y-110791934D01*
X91674393Y-110819500D01*
X91674394Y-110819500D01*
X91850606Y-110819500D01*
X91850607Y-110819500D01*
X92024650Y-110791934D01*
X92192239Y-110737482D01*
X92349246Y-110657483D01*
X92491805Y-110553907D01*
X92616407Y-110429305D01*
X92719983Y-110286746D01*
X92799982Y-110129739D01*
X92854434Y-109962150D01*
X92882000Y-109788107D01*
X92882000Y-109611893D01*
X92854434Y-109437850D01*
X92799982Y-109270261D01*
X92799982Y-109270260D01*
X92719982Y-109113253D01*
X92616407Y-108970695D01*
X92491805Y-108846093D01*
X92349246Y-108742517D01*
X92192239Y-108662517D01*
X92192236Y-108662516D01*
X92024651Y-108608066D01*
X91937628Y-108594283D01*
X91850607Y-108580500D01*
X91674393Y-108580500D01*
X91616378Y-108589688D01*
X91500348Y-108608066D01*
X91332763Y-108662516D01*
X91332760Y-108662517D01*
X91175753Y-108742517D01*
X91033193Y-108846094D01*
X90908594Y-108970693D01*
X90805017Y-109113253D01*
X90725017Y-109270260D01*
X90725016Y-109270263D01*
X90670566Y-109437848D01*
X90643000Y-109611893D01*
X80182000Y-109611893D01*
X80154434Y-109437850D01*
X80099982Y-109270261D01*
X80099982Y-109270260D01*
X80019982Y-109113253D01*
X79916407Y-108970695D01*
X79791805Y-108846093D01*
X79649246Y-108742517D01*
X79492239Y-108662517D01*
X79492236Y-108662516D01*
X79324651Y-108608066D01*
X79237628Y-108594283D01*
X79150607Y-108580500D01*
X78974393Y-108580500D01*
X78916378Y-108589688D01*
X78800348Y-108608066D01*
X78632763Y-108662516D01*
X78632760Y-108662517D01*
X78475753Y-108742517D01*
X78333193Y-108846094D01*
X78208594Y-108970693D01*
X78105017Y-109113253D01*
X78025017Y-109270260D01*
X78025016Y-109270263D01*
X77970566Y-109437848D01*
X77943000Y-109611893D01*
X74000500Y-109611893D01*
X74000500Y-107111893D01*
X77943000Y-107111893D01*
X77943000Y-107288106D01*
X77970566Y-107462151D01*
X78025016Y-107629736D01*
X78025017Y-107629739D01*
X78105017Y-107786746D01*
X78208593Y-107929305D01*
X78333195Y-108053907D01*
X78475754Y-108157483D01*
X78552761Y-108196719D01*
X78632760Y-108237482D01*
X78632763Y-108237483D01*
X78716555Y-108264708D01*
X78800350Y-108291934D01*
X78974393Y-108319500D01*
X78974394Y-108319500D01*
X79150606Y-108319500D01*
X79150607Y-108319500D01*
X79324650Y-108291934D01*
X79492239Y-108237482D01*
X79649246Y-108157483D01*
X79791805Y-108053907D01*
X79916407Y-107929305D01*
X80019983Y-107786746D01*
X80099982Y-107629739D01*
X80154434Y-107462150D01*
X80182000Y-107288107D01*
X80182000Y-107111893D01*
X90643000Y-107111893D01*
X90643000Y-107288106D01*
X90670566Y-107462151D01*
X90725016Y-107629736D01*
X90725017Y-107629739D01*
X90805017Y-107786746D01*
X90908593Y-107929305D01*
X91033195Y-108053907D01*
X91175754Y-108157483D01*
X91252761Y-108196719D01*
X91332760Y-108237482D01*
X91332763Y-108237483D01*
X91416555Y-108264708D01*
X91500350Y-108291934D01*
X91674393Y-108319500D01*
X91674394Y-108319500D01*
X91850606Y-108319500D01*
X91850607Y-108319500D01*
X92024650Y-108291934D01*
X92192239Y-108237482D01*
X92349246Y-108157483D01*
X92491805Y-108053907D01*
X92616407Y-107929305D01*
X92719983Y-107786746D01*
X92799982Y-107629739D01*
X92854434Y-107462150D01*
X92882000Y-107288107D01*
X92882000Y-107111893D01*
X92854434Y-106937850D01*
X92799982Y-106770261D01*
X92799982Y-106770260D01*
X92759219Y-106690261D01*
X92719983Y-106613254D01*
X92616407Y-106470695D01*
X92491805Y-106346093D01*
X92349246Y-106242517D01*
X92343731Y-106239707D01*
X92192239Y-106162517D01*
X92192236Y-106162516D01*
X92024651Y-106108066D01*
X91937628Y-106094283D01*
X91850607Y-106080500D01*
X91674393Y-106080500D01*
X91616378Y-106089688D01*
X91500348Y-106108066D01*
X91332763Y-106162516D01*
X91332760Y-106162517D01*
X91175753Y-106242517D01*
X91033193Y-106346094D01*
X90908594Y-106470693D01*
X90805017Y-106613253D01*
X90725017Y-106770260D01*
X90725016Y-106770263D01*
X90670566Y-106937848D01*
X90643000Y-107111893D01*
X80182000Y-107111893D01*
X80154434Y-106937850D01*
X80099982Y-106770261D01*
X80099982Y-106770260D01*
X80059219Y-106690261D01*
X80019983Y-106613254D01*
X79916407Y-106470695D01*
X79791805Y-106346093D01*
X79649246Y-106242517D01*
X79643731Y-106239707D01*
X79492239Y-106162517D01*
X79492236Y-106162516D01*
X79324651Y-106108066D01*
X79237628Y-106094283D01*
X79150607Y-106080500D01*
X78974393Y-106080500D01*
X78916378Y-106089688D01*
X78800348Y-106108066D01*
X78632763Y-106162516D01*
X78632760Y-106162517D01*
X78475753Y-106242517D01*
X78333193Y-106346094D01*
X78208594Y-106470693D01*
X78105017Y-106613253D01*
X78025017Y-106770260D01*
X78025016Y-106770263D01*
X77970566Y-106937848D01*
X77943000Y-107111893D01*
X74000500Y-107111893D01*
X74000500Y-106257855D01*
X74000522Y-106255527D01*
X74003382Y-106103211D01*
X74069341Y-102589778D01*
X75339500Y-102589778D01*
X75339500Y-103010222D01*
X75348429Y-103066597D01*
X75373985Y-103227952D01*
X75442103Y-103437603D01*
X75442104Y-103437606D01*
X75483993Y-103519815D01*
X75537129Y-103624100D01*
X75542187Y-103634025D01*
X75671752Y-103812358D01*
X75671756Y-103812363D01*
X75827636Y-103968243D01*
X75827641Y-103968247D01*
X75944830Y-104053389D01*
X76005978Y-104097815D01*
X76134375Y-104163237D01*
X76202393Y-104197895D01*
X76202396Y-104197896D01*
X76266318Y-104218665D01*
X76412049Y-104266015D01*
X76629778Y-104300500D01*
X76629779Y-104300500D01*
X76850221Y-104300500D01*
X76850222Y-104300500D01*
X77067951Y-104266015D01*
X77277606Y-104197895D01*
X77474022Y-104097815D01*
X77652365Y-103968242D01*
X77808242Y-103812365D01*
X77937815Y-103634022D01*
X78037895Y-103437606D01*
X78106015Y-103227951D01*
X78140500Y-103010222D01*
X78140500Y-102589778D01*
X82959500Y-102589778D01*
X82959500Y-103010222D01*
X82968429Y-103066597D01*
X82993985Y-103227952D01*
X83062103Y-103437603D01*
X83062104Y-103437606D01*
X83103993Y-103519815D01*
X83157129Y-103624100D01*
X83162187Y-103634025D01*
X83291752Y-103812358D01*
X83291756Y-103812363D01*
X83447636Y-103968243D01*
X83447641Y-103968247D01*
X83564830Y-104053389D01*
X83625978Y-104097815D01*
X83754375Y-104163237D01*
X83822393Y-104197895D01*
X83822396Y-104197896D01*
X83886318Y-104218665D01*
X84032049Y-104266015D01*
X84249778Y-104300500D01*
X84249779Y-104300500D01*
X84470221Y-104300500D01*
X84470222Y-104300500D01*
X84687951Y-104266015D01*
X84897606Y-104197895D01*
X85094022Y-104097815D01*
X85272365Y-103968242D01*
X85428242Y-103812365D01*
X85438804Y-103797826D01*
X85529682Y-103672745D01*
X85585011Y-103630079D01*
X85654625Y-103624100D01*
X85716420Y-103656705D01*
X85730318Y-103672745D01*
X85831752Y-103812358D01*
X85831756Y-103812363D01*
X85987636Y-103968243D01*
X85987641Y-103968247D01*
X86104830Y-104053389D01*
X86165978Y-104097815D01*
X86294375Y-104163237D01*
X86362393Y-104197895D01*
X86362396Y-104197896D01*
X86426318Y-104218665D01*
X86572049Y-104266015D01*
X86789778Y-104300500D01*
X86789779Y-104300500D01*
X87010221Y-104300500D01*
X87010222Y-104300500D01*
X87227951Y-104266015D01*
X87437606Y-104197895D01*
X87634022Y-104097815D01*
X87812365Y-103968242D01*
X87968242Y-103812365D01*
X87978804Y-103797826D01*
X88069682Y-103672745D01*
X88125011Y-103630079D01*
X88194625Y-103624100D01*
X88256420Y-103656705D01*
X88270318Y-103672745D01*
X88371752Y-103812358D01*
X88371756Y-103812363D01*
X88527636Y-103968243D01*
X88527641Y-103968247D01*
X88644830Y-104053389D01*
X88705978Y-104097815D01*
X88834375Y-104163237D01*
X88902393Y-104197895D01*
X88902396Y-104197896D01*
X88966318Y-104218665D01*
X89112049Y-104266015D01*
X89329778Y-104300500D01*
X89329779Y-104300500D01*
X89550221Y-104300500D01*
X89550222Y-104300500D01*
X89767951Y-104266015D01*
X89977606Y-104197895D01*
X90174022Y-104097815D01*
X90352365Y-103968242D01*
X90508242Y-103812365D01*
X90518804Y-103797826D01*
X90609682Y-103672745D01*
X90665011Y-103630079D01*
X90734625Y-103624100D01*
X90796420Y-103656705D01*
X90810318Y-103672745D01*
X90911752Y-103812358D01*
X90911756Y-103812363D01*
X91067636Y-103968243D01*
X91067641Y-103968247D01*
X91184830Y-104053389D01*
X91245978Y-104097815D01*
X91374375Y-104163237D01*
X91442393Y-104197895D01*
X91442396Y-104197896D01*
X91506318Y-104218665D01*
X91652049Y-104266015D01*
X91869778Y-104300500D01*
X91869779Y-104300500D01*
X92090221Y-104300500D01*
X92090222Y-104300500D01*
X92307951Y-104266015D01*
X92517606Y-104197895D01*
X92714022Y-104097815D01*
X92892365Y-103968242D01*
X93048242Y-103812365D01*
X93058804Y-103797826D01*
X93149682Y-103672745D01*
X93205011Y-103630079D01*
X93274625Y-103624100D01*
X93336420Y-103656705D01*
X93350318Y-103672745D01*
X93451752Y-103812358D01*
X93451756Y-103812363D01*
X93607636Y-103968243D01*
X93607641Y-103968247D01*
X93724830Y-104053389D01*
X93785978Y-104097815D01*
X93914375Y-104163237D01*
X93982393Y-104197895D01*
X93982396Y-104197896D01*
X94046318Y-104218665D01*
X94192049Y-104266015D01*
X94409778Y-104300500D01*
X94409779Y-104300500D01*
X94630221Y-104300500D01*
X94630222Y-104300500D01*
X94847951Y-104266015D01*
X95057606Y-104197895D01*
X95254022Y-104097815D01*
X95432365Y-103968242D01*
X95588242Y-103812365D01*
X95598804Y-103797826D01*
X95689682Y-103672745D01*
X95745011Y-103630079D01*
X95814625Y-103624100D01*
X95876420Y-103656705D01*
X95890318Y-103672745D01*
X95991752Y-103812358D01*
X95991756Y-103812363D01*
X96147636Y-103968243D01*
X96147641Y-103968247D01*
X96264830Y-104053389D01*
X96325978Y-104097815D01*
X96454375Y-104163237D01*
X96522393Y-104197895D01*
X96522396Y-104197896D01*
X96586318Y-104218665D01*
X96732049Y-104266015D01*
X96949778Y-104300500D01*
X96949779Y-104300500D01*
X97170221Y-104300500D01*
X97170222Y-104300500D01*
X97387951Y-104266015D01*
X97597606Y-104197895D01*
X97794022Y-104097815D01*
X97972365Y-103968242D01*
X98128242Y-103812365D01*
X98138804Y-103797826D01*
X98229682Y-103672745D01*
X98285011Y-103630079D01*
X98354625Y-103624100D01*
X98416420Y-103656705D01*
X98430318Y-103672745D01*
X98531752Y-103812358D01*
X98531756Y-103812363D01*
X98687636Y-103968243D01*
X98687641Y-103968247D01*
X98804830Y-104053389D01*
X98865978Y-104097815D01*
X98994375Y-104163237D01*
X99062393Y-104197895D01*
X99062396Y-104197896D01*
X99126318Y-104218665D01*
X99272049Y-104266015D01*
X99489778Y-104300500D01*
X99489779Y-104300500D01*
X99490902Y-104300500D01*
X99491314Y-104300620D01*
X99494641Y-104300883D01*
X99494585Y-104301581D01*
X99557941Y-104320185D01*
X99603696Y-104372989D01*
X99613640Y-104442147D01*
X99584615Y-104505703D01*
X99578583Y-104512181D01*
X98769481Y-105321282D01*
X98769479Y-105321285D01*
X98719361Y-105408094D01*
X98719359Y-105408096D01*
X98690425Y-105458209D01*
X98690424Y-105458210D01*
X98690423Y-105458215D01*
X98649499Y-105610943D01*
X98649499Y-105610945D01*
X98649499Y-105779046D01*
X98649500Y-105779059D01*
X98649500Y-105825500D01*
X98629815Y-105892539D01*
X98577011Y-105938294D01*
X98525500Y-105949500D01*
X98421155Y-105949500D01*
X98266510Y-105980261D01*
X98266498Y-105980264D01*
X98120827Y-106040602D01*
X98120814Y-106040609D01*
X97989711Y-106128210D01*
X97989707Y-106128213D01*
X97878213Y-106239707D01*
X97878210Y-106239711D01*
X97790609Y-106370814D01*
X97790602Y-106370827D01*
X97730264Y-106516498D01*
X97730261Y-106516510D01*
X97699500Y-106671153D01*
X97699500Y-106828846D01*
X97730261Y-106983489D01*
X97730264Y-106983501D01*
X97790602Y-107129172D01*
X97790609Y-107129185D01*
X97878602Y-107260874D01*
X97899480Y-107327551D01*
X97899500Y-107329765D01*
X97899500Y-118680430D01*
X97899499Y-118680448D01*
X97899499Y-118846154D01*
X97899498Y-118846154D01*
X97940424Y-118998887D01*
X97959417Y-119031783D01*
X97959418Y-119031786D01*
X98019475Y-119135809D01*
X98019481Y-119135817D01*
X98138349Y-119254685D01*
X98138355Y-119254690D01*
X99548039Y-120664374D01*
X99548049Y-120664385D01*
X99552379Y-120668715D01*
X99552380Y-120668716D01*
X99664184Y-120780520D01*
X99746965Y-120828313D01*
X99801115Y-120859577D01*
X99953843Y-120900501D01*
X99953846Y-120900501D01*
X100119553Y-120900501D01*
X100119569Y-120900500D01*
X100120943Y-120900500D01*
X111713331Y-120900500D01*
X111713347Y-120900501D01*
X111720943Y-120900501D01*
X111879054Y-120900501D01*
X111879057Y-120900501D01*
X112031785Y-120859577D01*
X112085935Y-120828313D01*
X112168716Y-120780520D01*
X112280520Y-120668716D01*
X112280520Y-120668714D01*
X112290724Y-120658511D01*
X112290728Y-120658506D01*
X113112416Y-119836818D01*
X113173739Y-119803333D01*
X113200097Y-119800499D01*
X113847871Y-119800499D01*
X113847872Y-119800499D01*
X113907483Y-119794091D01*
X114006669Y-119757096D01*
X114076358Y-119752113D01*
X114093319Y-119757092D01*
X114192517Y-119794091D01*
X114252127Y-119800500D01*
X115347872Y-119800499D01*
X115407483Y-119794091D01*
X115506669Y-119757096D01*
X115576358Y-119752113D01*
X115593319Y-119757092D01*
X115692517Y-119794091D01*
X115752127Y-119800500D01*
X116847872Y-119800499D01*
X116907483Y-119794091D01*
X117006669Y-119757096D01*
X117076358Y-119752113D01*
X117093319Y-119757092D01*
X117192517Y-119794091D01*
X117252127Y-119800500D01*
X118347872Y-119800499D01*
X118407483Y-119794091D01*
X118506669Y-119757096D01*
X118576358Y-119752113D01*
X118593319Y-119757092D01*
X118692517Y-119794091D01*
X118752127Y-119800500D01*
X119847872Y-119800499D01*
X119907483Y-119794091D01*
X120042331Y-119743796D01*
X120157546Y-119657546D01*
X120243796Y-119542331D01*
X120294091Y-119407483D01*
X120300500Y-119347873D01*
X120300499Y-117052128D01*
X120294091Y-116992517D01*
X120277880Y-116949054D01*
X120243797Y-116857671D01*
X120243796Y-116857670D01*
X120243796Y-116857669D01*
X120165732Y-116753389D01*
X145694500Y-116753389D01*
X145694500Y-116926611D01*
X145721598Y-117097701D01*
X145775127Y-117262445D01*
X145853768Y-117416788D01*
X145955586Y-117556928D01*
X146078072Y-117679414D01*
X146218212Y-117781232D01*
X146372555Y-117859873D01*
X146537299Y-117913402D01*
X146708389Y-117940500D01*
X146708390Y-117940500D01*
X147681610Y-117940500D01*
X147681611Y-117940500D01*
X147852701Y-117913402D01*
X148017445Y-117859873D01*
X148171788Y-117781232D01*
X148311928Y-117679414D01*
X148434414Y-117556928D01*
X148536232Y-117416788D01*
X148614873Y-117262445D01*
X148668402Y-117097701D01*
X148695500Y-116926611D01*
X148695500Y-116753389D01*
X148668402Y-116582299D01*
X148614873Y-116417555D01*
X148536232Y-116263212D01*
X148434414Y-116123072D01*
X148311928Y-116000586D01*
X148171788Y-115898768D01*
X148017445Y-115820127D01*
X147852701Y-115766598D01*
X147852699Y-115766597D01*
X147852698Y-115766597D01*
X147721271Y-115745781D01*
X147681611Y-115739500D01*
X146708389Y-115739500D01*
X146668728Y-115745781D01*
X146537302Y-115766597D01*
X146372552Y-115820128D01*
X146218211Y-115898768D01*
X146176813Y-115928846D01*
X146078072Y-116000586D01*
X146078070Y-116000588D01*
X146078069Y-116000588D01*
X145955588Y-116123069D01*
X145955588Y-116123070D01*
X145955586Y-116123072D01*
X145913992Y-116180321D01*
X145853768Y-116263211D01*
X145775128Y-116417552D01*
X145775127Y-116417554D01*
X145775127Y-116417555D01*
X145753820Y-116483130D01*
X145721597Y-116582302D01*
X145708983Y-116661945D01*
X145694500Y-116753389D01*
X120165732Y-116753389D01*
X120157546Y-116742454D01*
X120157544Y-116742453D01*
X120157544Y-116742452D01*
X120042335Y-116656206D01*
X120042328Y-116656202D01*
X119987883Y-116635896D01*
X119931949Y-116594025D01*
X119907532Y-116528561D01*
X119922383Y-116460288D01*
X119928114Y-116450823D01*
X120009390Y-116329185D01*
X120009390Y-116329184D01*
X120009394Y-116329179D01*
X120069737Y-116183497D01*
X120100500Y-116028842D01*
X120100500Y-115871158D01*
X120100500Y-115871155D01*
X120100499Y-115871153D01*
X120090349Y-115820127D01*
X120069737Y-115716503D01*
X120053187Y-115676547D01*
X120009397Y-115570827D01*
X120009390Y-115570814D01*
X119921789Y-115439711D01*
X119921786Y-115439707D01*
X119810292Y-115328213D01*
X119810288Y-115328210D01*
X119679185Y-115240609D01*
X119679172Y-115240602D01*
X119533501Y-115180264D01*
X119533489Y-115180261D01*
X119378845Y-115149500D01*
X119378842Y-115149500D01*
X119221158Y-115149500D01*
X119221155Y-115149500D01*
X119066510Y-115180261D01*
X119066498Y-115180264D01*
X118920827Y-115240602D01*
X118920814Y-115240609D01*
X118789711Y-115328210D01*
X118789707Y-115328213D01*
X118678213Y-115439707D01*
X118678208Y-115439713D01*
X118636396Y-115502289D01*
X118582784Y-115547093D01*
X118513459Y-115555800D01*
X118450432Y-115525645D01*
X118430193Y-115502288D01*
X118421789Y-115489711D01*
X118421786Y-115489707D01*
X118310292Y-115378213D01*
X118310288Y-115378210D01*
X118179185Y-115290609D01*
X118179172Y-115290602D01*
X118033501Y-115230264D01*
X118033489Y-115230261D01*
X117878845Y-115199500D01*
X117878842Y-115199500D01*
X117721158Y-115199500D01*
X117721155Y-115199500D01*
X117566510Y-115230261D01*
X117566498Y-115230264D01*
X117420827Y-115290602D01*
X117420814Y-115290609D01*
X117289711Y-115378210D01*
X117289707Y-115378213D01*
X117178212Y-115489708D01*
X117169804Y-115502292D01*
X117116190Y-115547095D01*
X117046864Y-115555800D01*
X116983838Y-115525642D01*
X116963602Y-115502288D01*
X116921789Y-115439711D01*
X116921786Y-115439707D01*
X116810292Y-115328213D01*
X116810288Y-115328210D01*
X116679185Y-115240609D01*
X116679172Y-115240602D01*
X116533501Y-115180264D01*
X116533489Y-115180261D01*
X116378845Y-115149500D01*
X116378842Y-115149500D01*
X116221158Y-115149500D01*
X116221155Y-115149500D01*
X116066510Y-115180261D01*
X116066498Y-115180264D01*
X115920827Y-115240602D01*
X115920814Y-115240609D01*
X115789711Y-115328210D01*
X115789707Y-115328213D01*
X115673903Y-115444018D01*
X115672591Y-115442706D01*
X115622004Y-115477155D01*
X115552159Y-115479017D01*
X115492396Y-115442822D01*
X115480810Y-115428042D01*
X115421789Y-115339710D01*
X115310292Y-115228213D01*
X115310288Y-115228210D01*
X115179185Y-115140609D01*
X115179172Y-115140602D01*
X115033501Y-115080264D01*
X115033489Y-115080261D01*
X114878845Y-115049500D01*
X114878842Y-115049500D01*
X114721158Y-115049500D01*
X114721155Y-115049500D01*
X114566510Y-115080261D01*
X114566498Y-115080264D01*
X114420827Y-115140602D01*
X114420814Y-115140609D01*
X114289711Y-115228210D01*
X114289707Y-115228213D01*
X114178213Y-115339707D01*
X114178210Y-115339711D01*
X114090609Y-115470814D01*
X114090602Y-115470827D01*
X114030264Y-115616498D01*
X114030261Y-115616510D01*
X113999500Y-115771153D01*
X113999500Y-115928846D01*
X114030261Y-116083489D01*
X114030264Y-116083501D01*
X114090602Y-116229172D01*
X114090609Y-116229185D01*
X114178602Y-116360874D01*
X114184252Y-116378920D01*
X114194477Y-116394830D01*
X114198928Y-116425789D01*
X114199480Y-116427551D01*
X114199500Y-116429765D01*
X114199500Y-116517209D01*
X114179815Y-116584248D01*
X114127011Y-116630003D01*
X114118830Y-116633392D01*
X114093330Y-116642902D01*
X114023638Y-116647884D01*
X114006668Y-116642901D01*
X113907485Y-116605909D01*
X113907483Y-116605908D01*
X113847883Y-116599501D01*
X113847881Y-116599500D01*
X113847873Y-116599500D01*
X113847864Y-116599500D01*
X112752129Y-116599500D01*
X112752123Y-116599501D01*
X112692515Y-116605909D01*
X112593332Y-116642901D01*
X112523640Y-116647885D01*
X112506668Y-116642901D01*
X112407485Y-116605909D01*
X112407483Y-116605908D01*
X112347883Y-116599501D01*
X112347881Y-116599500D01*
X112347873Y-116599500D01*
X112347864Y-116599500D01*
X111252129Y-116599500D01*
X111252120Y-116599501D01*
X111187752Y-116606420D01*
X111118992Y-116594012D01*
X111067856Y-116546400D01*
X111050500Y-116483130D01*
X111050500Y-114213389D01*
X145694500Y-114213389D01*
X145694500Y-114386611D01*
X145721598Y-114557701D01*
X145775127Y-114722445D01*
X145853768Y-114876788D01*
X145955586Y-115016928D01*
X146078072Y-115139414D01*
X146218212Y-115241232D01*
X146372555Y-115319873D01*
X146537299Y-115373402D01*
X146708389Y-115400500D01*
X146708390Y-115400500D01*
X147681610Y-115400500D01*
X147681611Y-115400500D01*
X147852701Y-115373402D01*
X148017445Y-115319873D01*
X148171788Y-115241232D01*
X148311928Y-115139414D01*
X148434414Y-115016928D01*
X148536232Y-114876788D01*
X148614873Y-114722445D01*
X148668402Y-114557701D01*
X148695500Y-114386611D01*
X148695500Y-114213389D01*
X148668402Y-114042299D01*
X148614873Y-113877555D01*
X148536232Y-113723212D01*
X148434414Y-113583072D01*
X148311928Y-113460586D01*
X148171788Y-113358768D01*
X148017445Y-113280127D01*
X147852701Y-113226598D01*
X147852699Y-113226597D01*
X147852698Y-113226597D01*
X147721271Y-113205781D01*
X147681611Y-113199500D01*
X146708389Y-113199500D01*
X146668728Y-113205781D01*
X146537302Y-113226597D01*
X146372552Y-113280128D01*
X146218211Y-113358768D01*
X146160773Y-113400500D01*
X146078072Y-113460586D01*
X146078070Y-113460588D01*
X146078069Y-113460588D01*
X145955588Y-113583069D01*
X145955588Y-113583070D01*
X145955586Y-113583072D01*
X145937427Y-113608066D01*
X145853768Y-113723211D01*
X145775128Y-113877552D01*
X145775127Y-113877554D01*
X145775127Y-113877555D01*
X145748362Y-113959927D01*
X145721597Y-114042302D01*
X145710360Y-114113253D01*
X145694500Y-114213389D01*
X111050500Y-114213389D01*
X111050500Y-114124499D01*
X111070185Y-114057460D01*
X111122989Y-114011705D01*
X111174500Y-114000499D01*
X112147871Y-114000499D01*
X112147872Y-114000499D01*
X112207483Y-113994091D01*
X112342331Y-113943796D01*
X112457546Y-113857546D01*
X112543796Y-113742331D01*
X112594091Y-113607483D01*
X112600500Y-113547873D01*
X112600500Y-113524500D01*
X112620185Y-113457461D01*
X112672989Y-113411706D01*
X112724500Y-113400500D01*
X113270234Y-113400500D01*
X113337273Y-113420185D01*
X113339125Y-113421398D01*
X113470814Y-113509390D01*
X113470827Y-113509397D01*
X113563718Y-113547873D01*
X113616503Y-113569737D01*
X113771153Y-113600499D01*
X113771156Y-113600500D01*
X113771158Y-113600500D01*
X113928844Y-113600500D01*
X113928845Y-113600499D01*
X114083497Y-113569737D01*
X114229179Y-113509394D01*
X114283663Y-113472989D01*
X114360875Y-113421398D01*
X114427553Y-113400520D01*
X114429766Y-113400500D01*
X114975501Y-113400500D01*
X115042540Y-113420185D01*
X115088295Y-113472989D01*
X115099501Y-113524500D01*
X115099501Y-113547876D01*
X115105908Y-113607483D01*
X115156202Y-113742328D01*
X115156206Y-113742335D01*
X115242452Y-113857544D01*
X115242455Y-113857547D01*
X115357664Y-113943793D01*
X115357671Y-113943797D01*
X115492517Y-113994091D01*
X115492516Y-113994091D01*
X115499444Y-113994835D01*
X115552127Y-114000500D01*
X117847872Y-114000499D01*
X117907483Y-113994091D01*
X118042331Y-113943796D01*
X118157546Y-113857546D01*
X118243796Y-113742331D01*
X118294091Y-113607483D01*
X118300500Y-113547873D01*
X118300500Y-113524500D01*
X118320185Y-113457461D01*
X118372989Y-113411706D01*
X118424500Y-113400500D01*
X123975501Y-113400500D01*
X124042540Y-113420185D01*
X124088295Y-113472989D01*
X124099501Y-113524500D01*
X124099501Y-113547876D01*
X124105908Y-113607483D01*
X124156202Y-113742328D01*
X124156206Y-113742335D01*
X124242452Y-113857544D01*
X124242455Y-113857547D01*
X124357664Y-113943793D01*
X124357671Y-113943797D01*
X124492517Y-113994091D01*
X124492516Y-113994091D01*
X124499444Y-113994835D01*
X124552127Y-114000500D01*
X126847872Y-114000499D01*
X126907483Y-113994091D01*
X127042331Y-113943796D01*
X127157546Y-113857546D01*
X127243796Y-113742331D01*
X127294091Y-113607483D01*
X127300500Y-113547873D01*
X127300499Y-112052128D01*
X127294091Y-111992517D01*
X127243796Y-111857669D01*
X127157546Y-111742454D01*
X127157543Y-111742452D01*
X127157542Y-111742450D01*
X127065289Y-111673389D01*
X145694500Y-111673389D01*
X145694500Y-111846611D01*
X145696252Y-111857671D01*
X145708950Y-111937848D01*
X145721598Y-112017701D01*
X145775127Y-112182445D01*
X145853768Y-112336788D01*
X145955586Y-112476928D01*
X146078072Y-112599414D01*
X146218212Y-112701232D01*
X146372555Y-112779873D01*
X146537299Y-112833402D01*
X146708389Y-112860500D01*
X146708390Y-112860500D01*
X147681610Y-112860500D01*
X147681611Y-112860500D01*
X147852701Y-112833402D01*
X148017445Y-112779873D01*
X148171788Y-112701232D01*
X148311928Y-112599414D01*
X148434414Y-112476928D01*
X148536232Y-112336788D01*
X148614873Y-112182445D01*
X148668402Y-112017701D01*
X148695500Y-111846611D01*
X148695500Y-111673389D01*
X148668402Y-111502299D01*
X148614873Y-111337555D01*
X148536232Y-111183212D01*
X148434414Y-111043072D01*
X148311928Y-110920586D01*
X148171788Y-110818768D01*
X148017445Y-110740127D01*
X147852701Y-110686598D01*
X147852699Y-110686597D01*
X147852698Y-110686597D01*
X147721271Y-110665781D01*
X147681611Y-110659500D01*
X146708389Y-110659500D01*
X146668728Y-110665781D01*
X146537302Y-110686597D01*
X146372552Y-110740128D01*
X146218211Y-110818768D01*
X146217204Y-110819500D01*
X146078072Y-110920586D01*
X146078070Y-110920588D01*
X146078069Y-110920588D01*
X145955588Y-111043069D01*
X145955588Y-111043070D01*
X145955586Y-111043072D01*
X145928393Y-111080500D01*
X145853768Y-111183211D01*
X145775128Y-111337552D01*
X145775127Y-111337554D01*
X145775127Y-111337555D01*
X145748362Y-111419927D01*
X145721597Y-111502302D01*
X145694500Y-111673389D01*
X127065289Y-111673389D01*
X127042335Y-111656206D01*
X127042328Y-111656202D01*
X126907482Y-111605908D01*
X126907483Y-111605908D01*
X126847883Y-111599501D01*
X126847881Y-111599500D01*
X126847873Y-111599500D01*
X126847864Y-111599500D01*
X124552129Y-111599500D01*
X124552123Y-111599501D01*
X124492516Y-111605908D01*
X124357671Y-111656202D01*
X124357664Y-111656206D01*
X124242455Y-111742452D01*
X124242452Y-111742455D01*
X124156206Y-111857664D01*
X124156202Y-111857671D01*
X124105908Y-111992517D01*
X124099501Y-112052116D01*
X124099501Y-112052123D01*
X124099500Y-112052135D01*
X124099500Y-112075500D01*
X124079815Y-112142539D01*
X124027011Y-112188294D01*
X123975500Y-112199500D01*
X118424499Y-112199500D01*
X118357460Y-112179815D01*
X118311705Y-112127011D01*
X118300499Y-112075500D01*
X118300499Y-112052129D01*
X118300498Y-112052123D01*
X118300497Y-112052116D01*
X118294091Y-111992517D01*
X118243796Y-111857669D01*
X118243795Y-111857668D01*
X118243793Y-111857664D01*
X118157547Y-111742455D01*
X118157544Y-111742452D01*
X118042335Y-111656206D01*
X118042328Y-111656202D01*
X117907482Y-111605908D01*
X117907483Y-111605908D01*
X117847883Y-111599501D01*
X117847881Y-111599500D01*
X117847873Y-111599500D01*
X117847864Y-111599500D01*
X115552129Y-111599500D01*
X115552123Y-111599501D01*
X115492516Y-111605908D01*
X115357671Y-111656202D01*
X115357664Y-111656206D01*
X115242455Y-111742452D01*
X115242452Y-111742455D01*
X115156206Y-111857664D01*
X115156202Y-111857671D01*
X115105908Y-111992517D01*
X115099501Y-112052116D01*
X115099501Y-112052123D01*
X115099500Y-112052135D01*
X115099500Y-112075500D01*
X115079815Y-112142539D01*
X115027011Y-112188294D01*
X114975500Y-112199500D01*
X114429766Y-112199500D01*
X114362727Y-112179815D01*
X114360875Y-112178602D01*
X114229185Y-112090609D01*
X114229172Y-112090602D01*
X114083501Y-112030264D01*
X114083489Y-112030261D01*
X113928845Y-111999500D01*
X113928842Y-111999500D01*
X113771158Y-111999500D01*
X113771155Y-111999500D01*
X113616510Y-112030261D01*
X113616498Y-112030264D01*
X113470827Y-112090602D01*
X113470814Y-112090609D01*
X113339125Y-112178602D01*
X113272447Y-112199480D01*
X113270234Y-112199500D01*
X112724499Y-112199500D01*
X112657460Y-112179815D01*
X112611705Y-112127011D01*
X112600499Y-112075500D01*
X112600499Y-112052129D01*
X112600498Y-112052123D01*
X112600497Y-112052116D01*
X112594091Y-111992517D01*
X112543796Y-111857669D01*
X112543795Y-111857668D01*
X112543793Y-111857664D01*
X112457547Y-111742455D01*
X112457544Y-111742452D01*
X112342335Y-111656206D01*
X112342328Y-111656202D01*
X112207482Y-111605908D01*
X112207483Y-111605908D01*
X112147883Y-111599501D01*
X112147881Y-111599500D01*
X112147873Y-111599500D01*
X112147864Y-111599500D01*
X109852129Y-111599500D01*
X109852123Y-111599501D01*
X109792516Y-111605908D01*
X109657671Y-111656202D01*
X109657664Y-111656206D01*
X109542455Y-111742452D01*
X109542452Y-111742455D01*
X109456206Y-111857664D01*
X109456202Y-111857671D01*
X109405908Y-111992517D01*
X109399501Y-112052116D01*
X109399501Y-112052123D01*
X109399500Y-112052135D01*
X109399500Y-112075500D01*
X109379815Y-112142539D01*
X109327011Y-112188294D01*
X109275500Y-112199500D01*
X103724499Y-112199500D01*
X103657460Y-112179815D01*
X103611705Y-112127011D01*
X103600499Y-112075500D01*
X103600499Y-112052129D01*
X103600498Y-112052123D01*
X103600497Y-112052116D01*
X103594091Y-111992517D01*
X103543796Y-111857669D01*
X103543795Y-111857668D01*
X103543793Y-111857664D01*
X103457547Y-111742455D01*
X103457544Y-111742452D01*
X103342335Y-111656206D01*
X103342328Y-111656202D01*
X103207482Y-111605908D01*
X103207483Y-111605908D01*
X103147883Y-111599501D01*
X103147881Y-111599500D01*
X103147873Y-111599500D01*
X103147864Y-111599500D01*
X100852129Y-111599500D01*
X100852123Y-111599501D01*
X100792516Y-111605908D01*
X100657671Y-111656202D01*
X100657664Y-111656206D01*
X100542455Y-111742452D01*
X100542452Y-111742455D01*
X100456206Y-111857664D01*
X100456202Y-111857671D01*
X100405908Y-111992517D01*
X100399501Y-112052116D01*
X100399501Y-112052123D01*
X100399500Y-112052135D01*
X100399500Y-113547870D01*
X100399501Y-113547876D01*
X100405908Y-113607483D01*
X100456202Y-113742328D01*
X100456206Y-113742335D01*
X100542452Y-113857544D01*
X100542455Y-113857547D01*
X100657664Y-113943793D01*
X100657671Y-113943797D01*
X100792517Y-113994091D01*
X100792516Y-113994091D01*
X100799444Y-113994835D01*
X100852127Y-114000500D01*
X103147872Y-114000499D01*
X103207483Y-113994091D01*
X103342331Y-113943796D01*
X103457546Y-113857546D01*
X103543796Y-113742331D01*
X103594091Y-113607483D01*
X103600500Y-113547873D01*
X103600500Y-113524500D01*
X103620185Y-113457461D01*
X103672989Y-113411706D01*
X103724500Y-113400500D01*
X109275501Y-113400500D01*
X109342540Y-113420185D01*
X109388295Y-113472989D01*
X109399501Y-113524500D01*
X109399501Y-113547876D01*
X109405908Y-113607483D01*
X109456202Y-113742328D01*
X109456203Y-113742330D01*
X109524767Y-113833919D01*
X109549184Y-113899383D01*
X109549500Y-113908230D01*
X109549500Y-116600249D01*
X109529815Y-116667288D01*
X109499812Y-116699515D01*
X109442457Y-116742451D01*
X109442451Y-116742457D01*
X109356206Y-116857664D01*
X109356202Y-116857671D01*
X109305908Y-116992517D01*
X109299501Y-117052116D01*
X109299501Y-117052123D01*
X109299500Y-117052135D01*
X109299501Y-119174500D01*
X109279816Y-119241539D01*
X109227013Y-119287294D01*
X109175501Y-119298500D01*
X100499098Y-119298500D01*
X100432059Y-119278815D01*
X100411417Y-119262181D01*
X99886819Y-118737583D01*
X99853334Y-118676260D01*
X99850500Y-118649902D01*
X99850500Y-107552135D01*
X100399500Y-107552135D01*
X100399500Y-109047870D01*
X100399501Y-109047876D01*
X100405908Y-109107483D01*
X100456202Y-109242328D01*
X100456206Y-109242335D01*
X100542452Y-109357544D01*
X100542455Y-109357547D01*
X100657664Y-109443793D01*
X100657671Y-109443797D01*
X100792517Y-109494091D01*
X100792516Y-109494091D01*
X100799444Y-109494835D01*
X100852127Y-109500500D01*
X103147872Y-109500499D01*
X103207483Y-109494091D01*
X103342331Y-109443796D01*
X103457546Y-109357546D01*
X103543796Y-109242331D01*
X103594091Y-109107483D01*
X103600500Y-109047873D01*
X103600500Y-109024500D01*
X103620185Y-108957461D01*
X103672989Y-108911706D01*
X103724500Y-108900500D01*
X109275501Y-108900500D01*
X109342540Y-108920185D01*
X109388295Y-108972989D01*
X109399501Y-109024500D01*
X109399501Y-109047876D01*
X109405908Y-109107483D01*
X109456202Y-109242328D01*
X109456206Y-109242335D01*
X109542452Y-109357544D01*
X109542455Y-109357547D01*
X109657664Y-109443793D01*
X109657671Y-109443797D01*
X109792517Y-109494091D01*
X109792516Y-109494091D01*
X109799444Y-109494835D01*
X109852127Y-109500500D01*
X112147872Y-109500499D01*
X112207483Y-109494091D01*
X112342331Y-109443796D01*
X112457546Y-109357546D01*
X112543796Y-109242331D01*
X112594091Y-109107483D01*
X112600500Y-109047873D01*
X112600500Y-109024500D01*
X112620185Y-108957461D01*
X112672989Y-108911706D01*
X112724500Y-108900500D01*
X113070234Y-108900500D01*
X113137273Y-108920185D01*
X113139125Y-108921398D01*
X113270814Y-109009390D01*
X113270827Y-109009397D01*
X113363718Y-109047873D01*
X113416503Y-109069737D01*
X113571153Y-109100499D01*
X113571156Y-109100500D01*
X113571158Y-109100500D01*
X113728844Y-109100500D01*
X113728845Y-109100499D01*
X113883497Y-109069737D01*
X114029179Y-109009394D01*
X114160289Y-108921789D01*
X114271789Y-108810289D01*
X114359394Y-108679179D01*
X114419737Y-108533497D01*
X114450500Y-108378842D01*
X114450500Y-108221158D01*
X114450500Y-108221155D01*
X114450499Y-108221153D01*
X114419738Y-108066510D01*
X114419737Y-108066503D01*
X114362909Y-107929306D01*
X114359397Y-107920827D01*
X114359390Y-107920814D01*
X114271789Y-107789711D01*
X114271786Y-107789707D01*
X114160292Y-107678213D01*
X114160288Y-107678210D01*
X114029185Y-107590609D01*
X114029172Y-107590602D01*
X113883501Y-107530264D01*
X113883489Y-107530261D01*
X113728845Y-107499500D01*
X113728842Y-107499500D01*
X113571158Y-107499500D01*
X113571155Y-107499500D01*
X113416510Y-107530261D01*
X113416498Y-107530264D01*
X113270827Y-107590602D01*
X113270814Y-107590609D01*
X113139125Y-107678602D01*
X113072447Y-107699480D01*
X113070234Y-107699500D01*
X112724499Y-107699500D01*
X112657460Y-107679815D01*
X112611705Y-107627011D01*
X112600499Y-107575500D01*
X112600499Y-107552129D01*
X112600498Y-107552123D01*
X112600497Y-107552116D01*
X112594091Y-107492517D01*
X112582765Y-107462151D01*
X112543797Y-107357671D01*
X112543793Y-107357664D01*
X112457547Y-107242455D01*
X112457544Y-107242452D01*
X112342335Y-107156206D01*
X112342328Y-107156202D01*
X112207482Y-107105908D01*
X112207483Y-107105908D01*
X112147883Y-107099501D01*
X112147881Y-107099500D01*
X112147873Y-107099500D01*
X112147864Y-107099500D01*
X109852129Y-107099500D01*
X109852123Y-107099501D01*
X109792516Y-107105908D01*
X109657671Y-107156202D01*
X109657664Y-107156206D01*
X109542455Y-107242452D01*
X109542452Y-107242455D01*
X109456206Y-107357664D01*
X109456202Y-107357671D01*
X109405908Y-107492517D01*
X109399501Y-107552116D01*
X109399501Y-107552123D01*
X109399500Y-107552135D01*
X109399500Y-107575500D01*
X109379815Y-107642539D01*
X109327011Y-107688294D01*
X109275500Y-107699500D01*
X103724499Y-107699500D01*
X103657460Y-107679815D01*
X103611705Y-107627011D01*
X103600499Y-107575500D01*
X103600499Y-107552129D01*
X103600498Y-107552123D01*
X103600497Y-107552116D01*
X103594091Y-107492517D01*
X103582765Y-107462151D01*
X103543797Y-107357671D01*
X103543793Y-107357664D01*
X103457547Y-107242455D01*
X103457544Y-107242452D01*
X103342335Y-107156206D01*
X103342328Y-107156202D01*
X103207482Y-107105908D01*
X103207483Y-107105908D01*
X103147883Y-107099501D01*
X103147881Y-107099500D01*
X103147873Y-107099500D01*
X103147864Y-107099500D01*
X100852129Y-107099500D01*
X100852123Y-107099501D01*
X100792516Y-107105908D01*
X100657671Y-107156202D01*
X100657664Y-107156206D01*
X100542455Y-107242452D01*
X100542452Y-107242455D01*
X100456206Y-107357664D01*
X100456202Y-107357671D01*
X100405908Y-107492517D01*
X100399501Y-107552116D01*
X100399501Y-107552123D01*
X100399500Y-107552135D01*
X99850500Y-107552135D01*
X99850500Y-105990096D01*
X99870185Y-105923057D01*
X99886814Y-105902420D01*
X101540320Y-104248913D01*
X101601641Y-104215430D01*
X101666316Y-104218665D01*
X101812046Y-104266014D01*
X101812049Y-104266015D01*
X102029778Y-104300500D01*
X102029779Y-104300500D01*
X102250221Y-104300500D01*
X102250222Y-104300500D01*
X102467951Y-104266015D01*
X102677606Y-104197895D01*
X102874022Y-104097815D01*
X103052365Y-103968242D01*
X103208242Y-103812365D01*
X103218804Y-103797826D01*
X103309682Y-103672745D01*
X103365011Y-103630079D01*
X103434625Y-103624100D01*
X103496420Y-103656705D01*
X103510318Y-103672745D01*
X103611752Y-103812358D01*
X103611756Y-103812363D01*
X103767636Y-103968243D01*
X103767641Y-103968247D01*
X103884830Y-104053389D01*
X103945978Y-104097815D01*
X104074375Y-104163237D01*
X104142393Y-104197895D01*
X104142396Y-104197896D01*
X104206318Y-104218665D01*
X104352049Y-104266015D01*
X104569778Y-104300500D01*
X104569779Y-104300500D01*
X104790221Y-104300500D01*
X104790222Y-104300500D01*
X105007951Y-104266015D01*
X105217606Y-104197895D01*
X105414022Y-104097815D01*
X105592365Y-103968242D01*
X105748242Y-103812365D01*
X105758804Y-103797826D01*
X105849682Y-103672745D01*
X105905011Y-103630079D01*
X105974625Y-103624100D01*
X106036420Y-103656705D01*
X106050318Y-103672745D01*
X106151752Y-103812358D01*
X106151756Y-103812363D01*
X106307636Y-103968243D01*
X106307641Y-103968247D01*
X106424830Y-104053389D01*
X106485978Y-104097815D01*
X106614375Y-104163237D01*
X106682393Y-104197895D01*
X106682396Y-104197896D01*
X106746318Y-104218665D01*
X106892049Y-104266015D01*
X107109778Y-104300500D01*
X107109779Y-104300500D01*
X107330221Y-104300500D01*
X107330222Y-104300500D01*
X107547951Y-104266015D01*
X107757606Y-104197895D01*
X107954022Y-104097815D01*
X108132365Y-103968242D01*
X108288242Y-103812365D01*
X108298804Y-103797826D01*
X108389682Y-103672745D01*
X108445011Y-103630079D01*
X108514625Y-103624100D01*
X108576420Y-103656705D01*
X108590318Y-103672745D01*
X108691752Y-103812358D01*
X108691756Y-103812363D01*
X108847636Y-103968243D01*
X108847641Y-103968247D01*
X108964830Y-104053389D01*
X109025978Y-104097815D01*
X109154375Y-104163237D01*
X109222393Y-104197895D01*
X109222396Y-104197896D01*
X109286318Y-104218665D01*
X109432049Y-104266015D01*
X109649778Y-104300500D01*
X109649779Y-104300500D01*
X109870221Y-104300500D01*
X109870222Y-104300500D01*
X110087951Y-104266015D01*
X110297606Y-104197895D01*
X110494022Y-104097815D01*
X110672365Y-103968242D01*
X110828242Y-103812365D01*
X110838804Y-103797826D01*
X110929682Y-103672745D01*
X110985011Y-103630079D01*
X111054625Y-103624100D01*
X111116420Y-103656705D01*
X111130318Y-103672745D01*
X111231752Y-103812358D01*
X111231756Y-103812363D01*
X111387636Y-103968243D01*
X111387641Y-103968247D01*
X111504830Y-104053389D01*
X111565978Y-104097815D01*
X111694375Y-104163237D01*
X111762393Y-104197895D01*
X111762396Y-104197896D01*
X111826318Y-104218665D01*
X111972049Y-104266015D01*
X112189778Y-104300500D01*
X112189779Y-104300500D01*
X112410221Y-104300500D01*
X112410222Y-104300500D01*
X112627951Y-104266015D01*
X112837606Y-104197895D01*
X113034022Y-104097815D01*
X113212365Y-103968242D01*
X113368242Y-103812365D01*
X113378804Y-103797826D01*
X113469682Y-103672745D01*
X113525011Y-103630079D01*
X113594625Y-103624100D01*
X113656420Y-103656705D01*
X113670318Y-103672745D01*
X113771752Y-103812358D01*
X113771756Y-103812363D01*
X113927636Y-103968243D01*
X113927641Y-103968247D01*
X114044830Y-104053389D01*
X114105978Y-104097815D01*
X114234375Y-104163237D01*
X114302393Y-104197895D01*
X114302396Y-104197896D01*
X114366318Y-104218665D01*
X114512049Y-104266015D01*
X114729778Y-104300500D01*
X114729779Y-104300500D01*
X114950221Y-104300500D01*
X114950222Y-104300500D01*
X115167951Y-104266015D01*
X115377606Y-104197895D01*
X115574022Y-104097815D01*
X115752365Y-103968242D01*
X115908242Y-103812365D01*
X116037815Y-103634022D01*
X116137895Y-103437606D01*
X116206015Y-103227951D01*
X116225740Y-103103411D01*
X116255669Y-103040278D01*
X116314980Y-103003346D01*
X116384843Y-103004344D01*
X116435892Y-103035128D01*
X116631284Y-103230520D01*
X116631286Y-103230521D01*
X116631290Y-103230524D01*
X116706142Y-103273739D01*
X116768216Y-103309577D01*
X116920943Y-103350501D01*
X116920945Y-103350501D01*
X117086654Y-103350501D01*
X117086670Y-103350500D01*
X122020234Y-103350500D01*
X122087273Y-103370185D01*
X122089125Y-103371398D01*
X122220814Y-103459390D01*
X122220827Y-103459397D01*
X122290814Y-103488386D01*
X122366503Y-103519737D01*
X122465858Y-103539500D01*
X122521153Y-103550499D01*
X122521156Y-103550500D01*
X122521158Y-103550500D01*
X122678844Y-103550500D01*
X122678845Y-103550499D01*
X122833497Y-103519737D01*
X122979179Y-103459394D01*
X123110289Y-103371789D01*
X123221789Y-103260289D01*
X123309394Y-103129179D01*
X123313144Y-103120127D01*
X123358667Y-103010222D01*
X123369737Y-102983497D01*
X123400500Y-102828842D01*
X123400500Y-102671158D01*
X123400500Y-102671155D01*
X123400499Y-102671153D01*
X123392570Y-102631290D01*
X123369737Y-102516503D01*
X123309902Y-102372047D01*
X123309397Y-102370827D01*
X123309390Y-102370814D01*
X123221789Y-102239711D01*
X123221786Y-102239707D01*
X123110292Y-102128213D01*
X123110288Y-102128210D01*
X122979185Y-102040609D01*
X122979172Y-102040602D01*
X122833501Y-101980264D01*
X122833489Y-101980261D01*
X122678845Y-101949500D01*
X122678842Y-101949500D01*
X122521158Y-101949500D01*
X122521155Y-101949500D01*
X122366510Y-101980261D01*
X122366498Y-101980264D01*
X122220827Y-102040602D01*
X122220814Y-102040609D01*
X122089125Y-102128602D01*
X122022447Y-102149480D01*
X122020234Y-102149500D01*
X117300098Y-102149500D01*
X117233059Y-102129815D01*
X117212417Y-102113181D01*
X116730988Y-101631752D01*
X116061415Y-100962180D01*
X116027931Y-100900858D01*
X116032915Y-100831166D01*
X116074787Y-100775233D01*
X116140251Y-100750816D01*
X116149097Y-100750500D01*
X120520234Y-100750500D01*
X120587273Y-100770185D01*
X120589125Y-100771398D01*
X120720814Y-100859390D01*
X120720827Y-100859397D01*
X120855996Y-100915385D01*
X120866503Y-100919737D01*
X121021153Y-100950499D01*
X121021156Y-100950500D01*
X121021158Y-100950500D01*
X121178844Y-100950500D01*
X121178845Y-100950499D01*
X121333497Y-100919737D01*
X121479179Y-100859394D01*
X121610289Y-100771789D01*
X121721789Y-100660289D01*
X121809394Y-100529179D01*
X121869737Y-100383497D01*
X121884957Y-100306977D01*
X121917341Y-100245070D01*
X121978057Y-100210496D01*
X122047826Y-100214235D01*
X122094255Y-100243491D01*
X125063181Y-103212416D01*
X125096666Y-103273739D01*
X125099500Y-103300097D01*
X125099500Y-106975500D01*
X125079815Y-107042539D01*
X125027011Y-107088294D01*
X124975500Y-107099500D01*
X124552129Y-107099500D01*
X124552123Y-107099501D01*
X124492516Y-107105908D01*
X124357671Y-107156202D01*
X124357664Y-107156206D01*
X124242455Y-107242452D01*
X124242452Y-107242455D01*
X124156206Y-107357664D01*
X124156202Y-107357671D01*
X124105908Y-107492517D01*
X124099501Y-107552116D01*
X124099501Y-107552123D01*
X124099500Y-107552135D01*
X124099500Y-107575500D01*
X124079815Y-107642539D01*
X124027011Y-107688294D01*
X123975500Y-107699500D01*
X118424499Y-107699500D01*
X118357460Y-107679815D01*
X118311705Y-107627011D01*
X118300499Y-107575500D01*
X118300499Y-107552129D01*
X118300498Y-107552123D01*
X118300497Y-107552116D01*
X118294091Y-107492517D01*
X118282765Y-107462151D01*
X118243797Y-107357671D01*
X118243793Y-107357664D01*
X118157547Y-107242455D01*
X118157544Y-107242452D01*
X118042335Y-107156206D01*
X118042328Y-107156202D01*
X117907482Y-107105908D01*
X117907483Y-107105908D01*
X117847883Y-107099501D01*
X117847881Y-107099500D01*
X117847873Y-107099500D01*
X117847864Y-107099500D01*
X115552129Y-107099500D01*
X115552123Y-107099501D01*
X115492516Y-107105908D01*
X115357671Y-107156202D01*
X115357664Y-107156206D01*
X115242455Y-107242452D01*
X115242452Y-107242455D01*
X115156206Y-107357664D01*
X115156202Y-107357671D01*
X115105908Y-107492517D01*
X115099501Y-107552116D01*
X115099501Y-107552123D01*
X115099500Y-107552135D01*
X115099500Y-109047870D01*
X115099501Y-109047876D01*
X115105908Y-109107483D01*
X115156202Y-109242328D01*
X115156206Y-109242335D01*
X115242452Y-109357544D01*
X115242455Y-109357547D01*
X115357664Y-109443793D01*
X115357671Y-109443797D01*
X115492517Y-109494091D01*
X115492516Y-109494091D01*
X115499444Y-109494835D01*
X115552127Y-109500500D01*
X117847872Y-109500499D01*
X117907483Y-109494091D01*
X118042331Y-109443796D01*
X118157546Y-109357546D01*
X118243796Y-109242331D01*
X118294091Y-109107483D01*
X118300500Y-109047873D01*
X118300500Y-109024500D01*
X118320185Y-108957461D01*
X118372989Y-108911706D01*
X118424500Y-108900500D01*
X123975501Y-108900500D01*
X124042540Y-108920185D01*
X124088295Y-108972989D01*
X124099501Y-109024500D01*
X124099501Y-109047876D01*
X124105908Y-109107483D01*
X124156202Y-109242328D01*
X124156206Y-109242335D01*
X124242452Y-109357544D01*
X124242455Y-109357547D01*
X124357664Y-109443793D01*
X124357671Y-109443797D01*
X124492517Y-109494091D01*
X124492516Y-109494091D01*
X124499444Y-109494835D01*
X124552127Y-109500500D01*
X126847872Y-109500499D01*
X126907483Y-109494091D01*
X127042331Y-109443796D01*
X127157546Y-109357546D01*
X127243796Y-109242331D01*
X127284429Y-109133389D01*
X145694500Y-109133389D01*
X145694500Y-109306611D01*
X145721598Y-109477701D01*
X145775127Y-109642445D01*
X145853768Y-109796788D01*
X145955586Y-109936928D01*
X146078072Y-110059414D01*
X146218212Y-110161232D01*
X146372555Y-110239873D01*
X146537299Y-110293402D01*
X146708389Y-110320500D01*
X146708390Y-110320500D01*
X147681610Y-110320500D01*
X147681611Y-110320500D01*
X147852701Y-110293402D01*
X148017445Y-110239873D01*
X148171788Y-110161232D01*
X148311928Y-110059414D01*
X148434414Y-109936928D01*
X148536232Y-109796788D01*
X148614873Y-109642445D01*
X148668402Y-109477701D01*
X148695500Y-109306611D01*
X148695500Y-109133389D01*
X148668402Y-108962299D01*
X148614873Y-108797555D01*
X148536232Y-108643212D01*
X148434414Y-108503072D01*
X148311928Y-108380586D01*
X148171788Y-108278768D01*
X148017445Y-108200127D01*
X147852701Y-108146598D01*
X147852699Y-108146597D01*
X147852698Y-108146597D01*
X147721271Y-108125781D01*
X147681611Y-108119500D01*
X146708389Y-108119500D01*
X146668728Y-108125781D01*
X146537302Y-108146597D01*
X146372552Y-108200128D01*
X146218211Y-108278768D01*
X146162149Y-108319500D01*
X146078072Y-108380586D01*
X146078070Y-108380588D01*
X146078069Y-108380588D01*
X145955588Y-108503069D01*
X145955588Y-108503070D01*
X145955586Y-108503072D01*
X145933487Y-108533489D01*
X145853768Y-108643211D01*
X145775128Y-108797552D01*
X145721597Y-108962302D01*
X145708044Y-109047873D01*
X145694500Y-109133389D01*
X127284429Y-109133389D01*
X127294091Y-109107483D01*
X127300500Y-109047873D01*
X127300499Y-107552128D01*
X127294091Y-107492517D01*
X127282765Y-107462151D01*
X127243797Y-107357671D01*
X127243793Y-107357664D01*
X127157547Y-107242455D01*
X127157544Y-107242452D01*
X127042335Y-107156206D01*
X127042328Y-107156202D01*
X126907482Y-107105908D01*
X126907483Y-107105908D01*
X126847883Y-107099501D01*
X126847881Y-107099500D01*
X126847873Y-107099500D01*
X126847865Y-107099500D01*
X126424500Y-107099500D01*
X126357461Y-107079815D01*
X126311706Y-107027011D01*
X126300500Y-106975500D01*
X126300500Y-103089060D01*
X126300501Y-103089047D01*
X126300501Y-102920944D01*
X126275823Y-102828846D01*
X126259577Y-102768216D01*
X126203541Y-102671158D01*
X126180524Y-102631290D01*
X126180518Y-102631282D01*
X122411568Y-98862332D01*
X123889500Y-98862332D01*
X123889500Y-99137667D01*
X123889501Y-99137684D01*
X123925438Y-99410655D01*
X123925439Y-99410660D01*
X123925440Y-99410666D01*
X123952909Y-99513181D01*
X123996704Y-99676630D01*
X124102075Y-99931017D01*
X124102080Y-99931028D01*
X124167546Y-100044416D01*
X124239751Y-100169479D01*
X124239753Y-100169482D01*
X124239754Y-100169483D01*
X124407370Y-100387926D01*
X124407376Y-100387933D01*
X124602066Y-100582623D01*
X124602072Y-100582628D01*
X124820521Y-100750249D01*
X124960673Y-100831166D01*
X125058971Y-100887919D01*
X125058976Y-100887921D01*
X125058979Y-100887923D01*
X125313368Y-100993295D01*
X125579334Y-101064560D01*
X125852326Y-101100500D01*
X125852333Y-101100500D01*
X126127667Y-101100500D01*
X126127674Y-101100500D01*
X126400666Y-101064560D01*
X126666632Y-100993295D01*
X126921021Y-100887923D01*
X127159479Y-100750249D01*
X127377928Y-100582628D01*
X127572628Y-100387928D01*
X127740249Y-100169479D01*
X127877923Y-99931021D01*
X127983295Y-99676632D01*
X128054560Y-99410666D01*
X128090500Y-99137674D01*
X128090500Y-98862326D01*
X128054560Y-98589334D01*
X127983295Y-98323368D01*
X127877923Y-98068979D01*
X127877921Y-98068976D01*
X127877919Y-98068971D01*
X127803542Y-97940148D01*
X127740249Y-97830521D01*
X127572628Y-97612072D01*
X127572623Y-97612066D01*
X127377933Y-97417376D01*
X127377926Y-97417370D01*
X127159483Y-97249754D01*
X127159482Y-97249753D01*
X127159479Y-97249751D01*
X127039564Y-97180518D01*
X126921028Y-97112080D01*
X126921017Y-97112075D01*
X126666630Y-97006704D01*
X126533649Y-96971072D01*
X126400666Y-96935440D01*
X126400660Y-96935439D01*
X126400655Y-96935438D01*
X126127684Y-96899501D01*
X126127679Y-96899500D01*
X126127674Y-96899500D01*
X125852326Y-96899500D01*
X125852320Y-96899500D01*
X125852315Y-96899501D01*
X125579344Y-96935438D01*
X125579337Y-96935439D01*
X125579334Y-96935440D01*
X125523125Y-96950500D01*
X125313369Y-97006704D01*
X125058982Y-97112075D01*
X125058971Y-97112080D01*
X124820516Y-97249754D01*
X124602073Y-97417370D01*
X124602066Y-97417376D01*
X124407376Y-97612066D01*
X124407370Y-97612073D01*
X124239754Y-97830516D01*
X124102080Y-98068971D01*
X124102075Y-98068982D01*
X123996704Y-98323369D01*
X123925441Y-98589331D01*
X123925438Y-98589344D01*
X123889501Y-98862315D01*
X123889500Y-98862332D01*
X122411568Y-98862332D01*
X107936819Y-84387583D01*
X107922115Y-84360655D01*
X107905523Y-84334837D01*
X107904631Y-84328636D01*
X107903334Y-84326260D01*
X107900500Y-84299902D01*
X107900500Y-84199882D01*
X107920185Y-84132843D01*
X107951615Y-84099563D01*
X107954018Y-84097816D01*
X107954022Y-84097815D01*
X108132365Y-83968242D01*
X108288242Y-83812365D01*
X108298804Y-83797826D01*
X108389682Y-83672745D01*
X108445011Y-83630079D01*
X108514625Y-83624100D01*
X108576420Y-83656705D01*
X108590318Y-83672745D01*
X108691752Y-83812358D01*
X108691756Y-83812363D01*
X108847636Y-83968243D01*
X108847641Y-83968247D01*
X109003192Y-84081260D01*
X109025978Y-84097815D01*
X109094724Y-84132843D01*
X109222393Y-84197895D01*
X109222396Y-84197896D01*
X109280178Y-84216670D01*
X109432049Y-84266015D01*
X109649778Y-84300500D01*
X109649779Y-84300500D01*
X109870221Y-84300500D01*
X109870222Y-84300500D01*
X110087951Y-84266015D01*
X110297606Y-84197895D01*
X110494022Y-84097815D01*
X110672365Y-83968242D01*
X110828242Y-83812365D01*
X110838804Y-83797826D01*
X110929682Y-83672745D01*
X110985011Y-83630079D01*
X111054625Y-83624100D01*
X111116420Y-83656705D01*
X111130318Y-83672745D01*
X111231752Y-83812358D01*
X111231756Y-83812363D01*
X111387636Y-83968243D01*
X111387641Y-83968247D01*
X111543192Y-84081260D01*
X111565978Y-84097815D01*
X111634724Y-84132843D01*
X111762393Y-84197895D01*
X111762396Y-84197896D01*
X111820178Y-84216670D01*
X111972049Y-84266015D01*
X112189778Y-84300500D01*
X112189779Y-84300500D01*
X112410221Y-84300500D01*
X112410222Y-84300500D01*
X112627951Y-84266015D01*
X112773681Y-84218664D01*
X112843522Y-84216670D01*
X112899680Y-84248915D01*
X118665139Y-90014374D01*
X118665149Y-90014385D01*
X118669479Y-90018715D01*
X118669480Y-90018716D01*
X118781284Y-90130520D01*
X118868095Y-90180639D01*
X118868097Y-90180641D01*
X118906151Y-90202611D01*
X118918215Y-90209577D01*
X119070943Y-90250501D01*
X119070946Y-90250501D01*
X119236653Y-90250501D01*
X119236669Y-90250500D01*
X129949903Y-90250500D01*
X130016942Y-90270185D01*
X130037584Y-90286819D01*
X136783181Y-97032416D01*
X136816666Y-97093739D01*
X136819500Y-97120097D01*
X136819500Y-97670509D01*
X136799815Y-97737548D01*
X136751796Y-97780993D01*
X136691741Y-97811593D01*
X136514806Y-97940142D01*
X136360142Y-98094806D01*
X136250318Y-98245969D01*
X136194989Y-98288635D01*
X136125375Y-98294614D01*
X136063580Y-98262009D01*
X136049682Y-98245969D01*
X135939857Y-98094806D01*
X135785193Y-97940142D01*
X135608260Y-97811595D01*
X135608259Y-97811594D01*
X135608257Y-97811593D01*
X135543134Y-97778411D01*
X135413383Y-97712298D01*
X135413380Y-97712297D01*
X135205376Y-97644714D01*
X134989361Y-97610500D01*
X134989356Y-97610500D01*
X134770644Y-97610500D01*
X134770639Y-97610500D01*
X134554623Y-97644714D01*
X134346619Y-97712297D01*
X134346616Y-97712298D01*
X134151739Y-97811595D01*
X133974806Y-97940142D01*
X133820142Y-98094806D01*
X133710318Y-98245969D01*
X133654989Y-98288635D01*
X133585375Y-98294614D01*
X133523580Y-98262009D01*
X133509682Y-98245969D01*
X133399857Y-98094806D01*
X133245193Y-97940142D01*
X133068260Y-97811595D01*
X133068259Y-97811594D01*
X133068257Y-97811593D01*
X133003134Y-97778411D01*
X132873383Y-97712298D01*
X132873380Y-97712297D01*
X132665376Y-97644714D01*
X132449361Y-97610500D01*
X132449356Y-97610500D01*
X132230644Y-97610500D01*
X132230639Y-97610500D01*
X132014623Y-97644714D01*
X131806619Y-97712297D01*
X131806616Y-97712298D01*
X131611739Y-97811595D01*
X131434806Y-97940142D01*
X131280142Y-98094806D01*
X131151595Y-98271739D01*
X131052298Y-98466616D01*
X131052297Y-98466619D01*
X130984714Y-98674623D01*
X130950500Y-98890638D01*
X130950500Y-99109361D01*
X130984714Y-99325376D01*
X131052297Y-99533380D01*
X131052298Y-99533383D01*
X131151595Y-99728260D01*
X131280142Y-99905193D01*
X131434806Y-100059857D01*
X131585696Y-100169483D01*
X131611743Y-100188407D01*
X131691101Y-100228842D01*
X131806616Y-100287701D01*
X131806619Y-100287702D01*
X131892128Y-100315485D01*
X132014625Y-100355286D01*
X132114672Y-100371132D01*
X132230639Y-100389500D01*
X132230644Y-100389500D01*
X132449361Y-100389500D01*
X132554082Y-100372912D01*
X132665375Y-100355286D01*
X132873383Y-100287701D01*
X133068257Y-100188407D01*
X133229638Y-100071158D01*
X133245193Y-100059857D01*
X133245195Y-100059854D01*
X133245199Y-100059852D01*
X133399852Y-99905199D01*
X133509683Y-99754028D01*
X133565011Y-99711364D01*
X133634624Y-99705385D01*
X133696420Y-99737990D01*
X133710313Y-99754023D01*
X133794454Y-99869834D01*
X133820148Y-99905199D01*
X133974806Y-100059857D01*
X134125696Y-100169483D01*
X134151743Y-100188407D01*
X134231101Y-100228842D01*
X134346616Y-100287701D01*
X134346619Y-100287702D01*
X134432128Y-100315485D01*
X134554625Y-100355286D01*
X134654672Y-100371132D01*
X134770639Y-100389500D01*
X134770644Y-100389500D01*
X134989361Y-100389500D01*
X135094082Y-100372912D01*
X135205375Y-100355286D01*
X135413383Y-100287701D01*
X135608257Y-100188407D01*
X135769638Y-100071158D01*
X135785193Y-100059857D01*
X135785195Y-100059854D01*
X135785199Y-100059852D01*
X135939852Y-99905199D01*
X136049683Y-99754028D01*
X136105011Y-99711364D01*
X136174624Y-99705385D01*
X136236420Y-99737990D01*
X136250313Y-99754023D01*
X136334454Y-99869834D01*
X136360148Y-99905199D01*
X136514806Y-100059857D01*
X136665696Y-100169483D01*
X136691743Y-100188407D01*
X136799851Y-100243491D01*
X136886617Y-100287701D01*
X136892083Y-100289477D01*
X136903487Y-100296465D01*
X136913194Y-100298577D01*
X136941441Y-100319722D01*
X136941446Y-100319725D01*
X137051284Y-100429563D01*
X137051286Y-100429564D01*
X137058356Y-100436634D01*
X143632967Y-107011246D01*
X143652671Y-107036922D01*
X143659480Y-107048716D01*
X143771284Y-107160520D01*
X143771286Y-107160521D01*
X143771290Y-107160524D01*
X143908209Y-107239573D01*
X143908216Y-107239577D01*
X144060943Y-107280500D01*
X144060945Y-107280500D01*
X144071896Y-107280500D01*
X144071900Y-107280501D01*
X144230015Y-107280501D01*
X144230019Y-107280500D01*
X144279057Y-107280500D01*
X145807815Y-107280500D01*
X145874854Y-107300185D01*
X145908131Y-107331612D01*
X145955586Y-107396928D01*
X146078072Y-107519414D01*
X146218212Y-107621232D01*
X146372555Y-107699873D01*
X146537299Y-107753402D01*
X146708389Y-107780500D01*
X146708390Y-107780500D01*
X147681610Y-107780500D01*
X147681611Y-107780500D01*
X147852701Y-107753402D01*
X148017445Y-107699873D01*
X148171788Y-107621232D01*
X148311928Y-107519414D01*
X148434414Y-107396928D01*
X148536232Y-107256788D01*
X148614873Y-107102445D01*
X148668402Y-106937701D01*
X148695500Y-106766611D01*
X148695500Y-106593389D01*
X148668402Y-106422299D01*
X148614873Y-106257555D01*
X148536232Y-106103212D01*
X148434414Y-105963072D01*
X148311928Y-105840586D01*
X148171788Y-105738768D01*
X148017445Y-105660127D01*
X147852701Y-105606598D01*
X147852699Y-105606597D01*
X147852698Y-105606597D01*
X147721271Y-105585781D01*
X147681611Y-105579500D01*
X146708389Y-105579500D01*
X146668728Y-105585781D01*
X146537302Y-105606597D01*
X146372552Y-105660128D01*
X146218211Y-105738768D01*
X146162774Y-105779046D01*
X146078072Y-105840586D01*
X146078070Y-105840588D01*
X146078069Y-105840588D01*
X145955588Y-105963069D01*
X145955588Y-105963070D01*
X145955586Y-105963072D01*
X145935952Y-105990096D01*
X145908133Y-106028386D01*
X145852803Y-106071051D01*
X145807815Y-106079500D01*
X144451055Y-106079500D01*
X144384016Y-106059815D01*
X144363374Y-106043181D01*
X141409240Y-103089047D01*
X138440301Y-100120109D01*
X138406817Y-100058787D01*
X138411801Y-99989095D01*
X138440301Y-99944748D01*
X138479852Y-99905199D01*
X138589683Y-99754028D01*
X138645011Y-99711364D01*
X138714624Y-99705385D01*
X138776420Y-99737990D01*
X138790313Y-99754023D01*
X138874454Y-99869834D01*
X138900148Y-99905199D01*
X139054806Y-100059857D01*
X139205696Y-100169483D01*
X139231743Y-100188407D01*
X139426617Y-100287701D01*
X139426624Y-100287703D01*
X139427268Y-100287970D01*
X139427651Y-100288228D01*
X139430958Y-100289913D01*
X139430752Y-100290316D01*
X139434607Y-100292911D01*
X139440030Y-100294132D01*
X139452888Y-100305220D01*
X139468133Y-100315485D01*
X139477082Y-100324563D01*
X139479480Y-100328716D01*
X139591284Y-100440520D01*
X139591286Y-100440521D01*
X143771284Y-104620520D01*
X143771286Y-104620521D01*
X143771290Y-104620524D01*
X143908209Y-104699573D01*
X143908216Y-104699577D01*
X144060943Y-104740501D01*
X144060945Y-104740501D01*
X144226654Y-104740501D01*
X144226670Y-104740500D01*
X145807815Y-104740500D01*
X145874854Y-104760185D01*
X145908131Y-104791612D01*
X145955586Y-104856928D01*
X146078072Y-104979414D01*
X146218212Y-105081232D01*
X146372555Y-105159873D01*
X146537299Y-105213402D01*
X146708389Y-105240500D01*
X146708390Y-105240500D01*
X147681610Y-105240500D01*
X147681611Y-105240500D01*
X147852701Y-105213402D01*
X148017445Y-105159873D01*
X148171788Y-105081232D01*
X148311928Y-104979414D01*
X148434414Y-104856928D01*
X148536232Y-104716788D01*
X148614873Y-104562445D01*
X148668402Y-104397701D01*
X148695500Y-104226611D01*
X148695500Y-104053389D01*
X148668402Y-103882299D01*
X148614873Y-103717555D01*
X148536232Y-103563212D01*
X148434414Y-103423072D01*
X148311928Y-103300586D01*
X148171788Y-103198768D01*
X148017447Y-103120128D01*
X148017446Y-103120127D01*
X148017445Y-103120127D01*
X147852701Y-103066598D01*
X147852699Y-103066597D01*
X147852698Y-103066597D01*
X147721271Y-103045781D01*
X147681611Y-103039500D01*
X146708389Y-103039500D01*
X146668728Y-103045781D01*
X146537302Y-103066597D01*
X146372552Y-103120128D01*
X146218211Y-103198768D01*
X146138256Y-103256859D01*
X146078072Y-103300586D01*
X146078070Y-103300588D01*
X146078069Y-103300588D01*
X145955588Y-103423069D01*
X145955588Y-103423070D01*
X145955586Y-103423072D01*
X145908133Y-103488386D01*
X145852803Y-103531051D01*
X145807815Y-103539500D01*
X144440098Y-103539500D01*
X144373059Y-103519815D01*
X144352417Y-103503181D01*
X140974824Y-100125588D01*
X140941339Y-100064265D01*
X140946323Y-99994573D01*
X140974823Y-99950226D01*
X141019852Y-99905199D01*
X141129683Y-99754028D01*
X141185011Y-99711364D01*
X141254624Y-99705385D01*
X141316420Y-99737990D01*
X141330313Y-99754023D01*
X141414454Y-99869834D01*
X141440148Y-99905199D01*
X141594806Y-100059857D01*
X141745696Y-100169483D01*
X141771743Y-100188407D01*
X141851101Y-100228842D01*
X141966616Y-100287701D01*
X141966619Y-100287702D01*
X142052128Y-100315485D01*
X142174625Y-100355286D01*
X142274672Y-100371132D01*
X142390639Y-100389500D01*
X142390644Y-100389500D01*
X142609361Y-100389500D01*
X142714082Y-100372912D01*
X142825375Y-100355286D01*
X143033383Y-100287701D01*
X143228257Y-100188407D01*
X143389638Y-100071158D01*
X143405193Y-100059857D01*
X143405195Y-100059854D01*
X143405199Y-100059852D01*
X143559852Y-99905199D01*
X143559854Y-99905195D01*
X143559857Y-99905193D01*
X143636180Y-99800142D01*
X143688407Y-99728257D01*
X143787701Y-99533383D01*
X143855286Y-99325375D01*
X143882153Y-99155744D01*
X143889500Y-99109361D01*
X143889500Y-98890639D01*
X143887445Y-98877666D01*
X143887445Y-98877665D01*
X143885016Y-98862332D01*
X144209500Y-98862332D01*
X144209500Y-99137667D01*
X144209501Y-99137684D01*
X144245438Y-99410655D01*
X144245439Y-99410660D01*
X144245440Y-99410666D01*
X144272909Y-99513181D01*
X144316704Y-99676630D01*
X144422075Y-99931017D01*
X144422080Y-99931028D01*
X144487546Y-100044416D01*
X144559751Y-100169479D01*
X144559753Y-100169482D01*
X144559754Y-100169483D01*
X144727370Y-100387926D01*
X144727376Y-100387933D01*
X144922066Y-100582623D01*
X144922072Y-100582628D01*
X145140521Y-100750249D01*
X145280673Y-100831166D01*
X145378971Y-100887919D01*
X145378976Y-100887921D01*
X145378979Y-100887923D01*
X145633368Y-100993295D01*
X145899334Y-101064560D01*
X146172326Y-101100500D01*
X146172333Y-101100500D01*
X146447667Y-101100500D01*
X146447674Y-101100500D01*
X146720666Y-101064560D01*
X146986632Y-100993295D01*
X147241021Y-100887923D01*
X147479479Y-100750249D01*
X147697928Y-100582628D01*
X147892628Y-100387928D01*
X148060249Y-100169479D01*
X148197923Y-99931021D01*
X148303295Y-99676632D01*
X148374560Y-99410666D01*
X148410500Y-99137674D01*
X148410500Y-98862326D01*
X148374560Y-98589334D01*
X148303295Y-98323368D01*
X148197923Y-98068979D01*
X148197921Y-98068976D01*
X148197919Y-98068971D01*
X148123542Y-97940148D01*
X148060249Y-97830521D01*
X147892628Y-97612072D01*
X147892623Y-97612066D01*
X147697933Y-97417376D01*
X147697926Y-97417370D01*
X147479483Y-97249754D01*
X147479482Y-97249753D01*
X147479479Y-97249751D01*
X147359564Y-97180518D01*
X147241028Y-97112080D01*
X147241017Y-97112075D01*
X146986630Y-97006704D01*
X146853649Y-96971072D01*
X146720666Y-96935440D01*
X146720660Y-96935439D01*
X146720655Y-96935438D01*
X146447684Y-96899501D01*
X146447679Y-96899500D01*
X146447674Y-96899500D01*
X146172326Y-96899500D01*
X146172320Y-96899500D01*
X146172315Y-96899501D01*
X145899344Y-96935438D01*
X145899337Y-96935439D01*
X145899334Y-96935440D01*
X145843125Y-96950500D01*
X145633369Y-97006704D01*
X145378982Y-97112075D01*
X145378971Y-97112080D01*
X145140516Y-97249754D01*
X144922073Y-97417370D01*
X144922066Y-97417376D01*
X144727376Y-97612066D01*
X144727370Y-97612073D01*
X144559754Y-97830516D01*
X144422080Y-98068971D01*
X144422075Y-98068982D01*
X144316704Y-98323369D01*
X144245441Y-98589331D01*
X144245438Y-98589344D01*
X144209501Y-98862315D01*
X144209500Y-98862332D01*
X143885016Y-98862332D01*
X143864158Y-98730641D01*
X143855286Y-98674625D01*
X143787701Y-98466617D01*
X143787701Y-98466616D01*
X143753315Y-98399132D01*
X143688407Y-98271743D01*
X143669681Y-98245969D01*
X143559857Y-98094806D01*
X143405193Y-97940142D01*
X143228260Y-97811595D01*
X143228259Y-97811594D01*
X143228257Y-97811593D01*
X143163134Y-97778411D01*
X143033383Y-97712298D01*
X143033380Y-97712297D01*
X142825376Y-97644714D01*
X142609361Y-97610500D01*
X142609356Y-97610500D01*
X142390644Y-97610500D01*
X142390639Y-97610500D01*
X142174623Y-97644714D01*
X141966619Y-97712297D01*
X141966616Y-97712298D01*
X141771739Y-97811595D01*
X141594806Y-97940142D01*
X141440142Y-98094806D01*
X141330318Y-98245969D01*
X141274989Y-98288635D01*
X141205375Y-98294614D01*
X141143580Y-98262009D01*
X141129682Y-98245969D01*
X141019857Y-98094806D01*
X140865193Y-97940142D01*
X140688258Y-97811593D01*
X140628205Y-97780994D01*
X140577410Y-97733020D01*
X140560501Y-97670510D01*
X140560501Y-97630944D01*
X140560501Y-97630943D01*
X140519577Y-97478216D01*
X140507821Y-97457853D01*
X140440524Y-97341290D01*
X140440518Y-97341282D01*
X131187590Y-88088355D01*
X131187588Y-88088352D01*
X131068717Y-87969481D01*
X131068716Y-87969480D01*
X130981904Y-87919360D01*
X130981904Y-87919359D01*
X130981900Y-87919358D01*
X130931785Y-87890423D01*
X130779057Y-87849499D01*
X130620943Y-87849499D01*
X130613347Y-87849499D01*
X130613331Y-87849500D01*
X130310554Y-87849500D01*
X130243515Y-87829815D01*
X130197760Y-87777011D01*
X130187816Y-87707853D01*
X130216841Y-87644297D01*
X130272236Y-87607569D01*
X130333380Y-87587702D01*
X130333383Y-87587701D01*
X130528257Y-87488407D01*
X130627601Y-87416229D01*
X130705193Y-87359857D01*
X130705195Y-87359854D01*
X130705199Y-87359852D01*
X130859852Y-87205199D01*
X130969683Y-87054028D01*
X131025011Y-87011364D01*
X131094624Y-87005385D01*
X131156420Y-87037990D01*
X131170313Y-87054023D01*
X131280144Y-87205193D01*
X131280148Y-87205199D01*
X131434806Y-87359857D01*
X131585696Y-87469483D01*
X131611743Y-87488407D01*
X131739132Y-87553315D01*
X131806616Y-87587701D01*
X131806619Y-87587702D01*
X131867765Y-87607569D01*
X132014625Y-87655286D01*
X132114672Y-87671132D01*
X132230639Y-87689500D01*
X132230644Y-87689500D01*
X132449361Y-87689500D01*
X132554082Y-87672912D01*
X132665375Y-87655286D01*
X132873383Y-87587701D01*
X133068257Y-87488407D01*
X133167601Y-87416229D01*
X133245193Y-87359857D01*
X133245195Y-87359854D01*
X133245199Y-87359852D01*
X133399852Y-87205199D01*
X133509683Y-87054028D01*
X133565011Y-87011364D01*
X133634624Y-87005385D01*
X133696420Y-87037990D01*
X133710313Y-87054023D01*
X133820144Y-87205193D01*
X133820148Y-87205199D01*
X133974806Y-87359857D01*
X134125696Y-87469483D01*
X134151743Y-87488407D01*
X134279132Y-87553315D01*
X134346616Y-87587701D01*
X134346619Y-87587702D01*
X134407765Y-87607569D01*
X134554625Y-87655286D01*
X134654672Y-87671132D01*
X134770639Y-87689500D01*
X134770644Y-87689500D01*
X134989361Y-87689500D01*
X135094082Y-87672912D01*
X135205375Y-87655286D01*
X135413383Y-87587701D01*
X135608257Y-87488407D01*
X135707601Y-87416229D01*
X135785193Y-87359857D01*
X135785195Y-87359854D01*
X135785199Y-87359852D01*
X135939852Y-87205199D01*
X136049683Y-87054028D01*
X136105011Y-87011364D01*
X136174624Y-87005385D01*
X136236420Y-87037990D01*
X136250313Y-87054023D01*
X136360144Y-87205193D01*
X136360148Y-87205199D01*
X136514806Y-87359857D01*
X136665696Y-87469483D01*
X136691743Y-87488407D01*
X136819132Y-87553315D01*
X136886616Y-87587701D01*
X136886619Y-87587702D01*
X136947765Y-87607569D01*
X137094625Y-87655286D01*
X137194672Y-87671132D01*
X137310639Y-87689500D01*
X137310644Y-87689500D01*
X137529361Y-87689500D01*
X137634082Y-87672912D01*
X137745375Y-87655286D01*
X137953383Y-87587701D01*
X138148257Y-87488407D01*
X138247601Y-87416229D01*
X138325193Y-87359857D01*
X138325195Y-87359854D01*
X138325199Y-87359852D01*
X138479852Y-87205199D01*
X138589683Y-87054028D01*
X138645011Y-87011364D01*
X138714624Y-87005385D01*
X138776420Y-87037990D01*
X138790313Y-87054023D01*
X138900144Y-87205193D01*
X138900148Y-87205199D01*
X139054806Y-87359857D01*
X139205696Y-87469483D01*
X139231743Y-87488407D01*
X139359132Y-87553315D01*
X139426616Y-87587701D01*
X139426619Y-87587702D01*
X139487765Y-87607569D01*
X139634625Y-87655286D01*
X139734672Y-87671132D01*
X139850639Y-87689500D01*
X139850644Y-87689500D01*
X140069361Y-87689500D01*
X140174082Y-87672912D01*
X140285375Y-87655286D01*
X140493383Y-87587701D01*
X140688257Y-87488407D01*
X140787601Y-87416229D01*
X140865193Y-87359857D01*
X140865195Y-87359854D01*
X140865199Y-87359852D01*
X141019852Y-87205199D01*
X141129683Y-87054028D01*
X141185011Y-87011364D01*
X141254624Y-87005385D01*
X141316420Y-87037990D01*
X141330313Y-87054023D01*
X141440144Y-87205193D01*
X141440148Y-87205199D01*
X141594806Y-87359857D01*
X141745696Y-87469483D01*
X141771743Y-87488407D01*
X141899132Y-87553315D01*
X141966616Y-87587701D01*
X141966619Y-87587702D01*
X142027765Y-87607569D01*
X142174625Y-87655286D01*
X142274672Y-87671132D01*
X142390639Y-87689500D01*
X142390644Y-87689500D01*
X142609361Y-87689500D01*
X142714082Y-87672912D01*
X142825375Y-87655286D01*
X143033383Y-87587701D01*
X143228257Y-87488407D01*
X143327601Y-87416229D01*
X143405193Y-87359857D01*
X143405195Y-87359854D01*
X143405199Y-87359852D01*
X143559852Y-87205199D01*
X143559854Y-87205195D01*
X143559857Y-87205193D01*
X143616229Y-87127601D01*
X143688407Y-87028257D01*
X143787701Y-86833383D01*
X143855286Y-86625375D01*
X143872912Y-86514082D01*
X143889500Y-86409361D01*
X143889500Y-86190639D01*
X143887445Y-86177666D01*
X143887445Y-86177665D01*
X143885016Y-86162332D01*
X144209500Y-86162332D01*
X144209500Y-86437667D01*
X144209501Y-86437684D01*
X144245438Y-86710655D01*
X144245439Y-86710660D01*
X144245440Y-86710666D01*
X144245441Y-86710668D01*
X144316704Y-86976630D01*
X144422075Y-87231017D01*
X144422080Y-87231028D01*
X144496458Y-87359852D01*
X144559751Y-87469479D01*
X144559753Y-87469482D01*
X144559754Y-87469483D01*
X144727370Y-87687926D01*
X144727376Y-87687933D01*
X144922066Y-87882623D01*
X144922073Y-87882629D01*
X144969940Y-87919358D01*
X145140521Y-88050249D01*
X145293778Y-88138732D01*
X145378971Y-88187919D01*
X145378976Y-88187921D01*
X145378979Y-88187923D01*
X145633368Y-88293295D01*
X145899334Y-88364560D01*
X146172326Y-88400500D01*
X146172333Y-88400500D01*
X146447667Y-88400500D01*
X146447674Y-88400500D01*
X146720666Y-88364560D01*
X146986632Y-88293295D01*
X147241021Y-88187923D01*
X147479479Y-88050249D01*
X147697928Y-87882628D01*
X147892628Y-87687928D01*
X148060249Y-87469479D01*
X148197923Y-87231021D01*
X148303295Y-86976632D01*
X148374560Y-86710666D01*
X148410500Y-86437674D01*
X148410500Y-86162326D01*
X148374560Y-85889334D01*
X148303295Y-85623368D01*
X148197923Y-85368979D01*
X148197921Y-85368976D01*
X148197919Y-85368971D01*
X148123542Y-85240148D01*
X148060249Y-85130521D01*
X147892628Y-84912072D01*
X147892623Y-84912066D01*
X147697933Y-84717376D01*
X147697926Y-84717370D01*
X147479483Y-84549754D01*
X147479482Y-84549753D01*
X147479479Y-84549751D01*
X147384407Y-84494861D01*
X147241028Y-84412080D01*
X147241017Y-84412075D01*
X146986630Y-84306704D01*
X146834770Y-84266014D01*
X146720666Y-84235440D01*
X146720660Y-84235439D01*
X146720655Y-84235438D01*
X146447684Y-84199501D01*
X146447679Y-84199500D01*
X146447674Y-84199500D01*
X146172326Y-84199500D01*
X146172320Y-84199500D01*
X146172315Y-84199501D01*
X145899344Y-84235438D01*
X145899337Y-84235439D01*
X145899334Y-84235440D01*
X145898114Y-84235767D01*
X145633369Y-84306704D01*
X145378982Y-84412075D01*
X145378971Y-84412080D01*
X145140516Y-84549754D01*
X144922073Y-84717370D01*
X144922066Y-84717376D01*
X144727376Y-84912066D01*
X144727370Y-84912073D01*
X144559754Y-85130516D01*
X144422080Y-85368971D01*
X144422075Y-85368982D01*
X144316704Y-85623369D01*
X144245441Y-85889331D01*
X144245438Y-85889344D01*
X144209501Y-86162315D01*
X144209500Y-86162332D01*
X143885016Y-86162332D01*
X143871537Y-86077232D01*
X143855286Y-85974625D01*
X143787701Y-85766617D01*
X143787701Y-85766616D01*
X143753315Y-85699132D01*
X143688407Y-85571743D01*
X143669681Y-85545969D01*
X143559857Y-85394806D01*
X143405193Y-85240142D01*
X143228260Y-85111595D01*
X143228259Y-85111594D01*
X143228257Y-85111593D01*
X143165825Y-85079782D01*
X143033383Y-85012298D01*
X143033380Y-85012297D01*
X142825376Y-84944714D01*
X142609361Y-84910500D01*
X142609356Y-84910500D01*
X142390644Y-84910500D01*
X142390639Y-84910500D01*
X142174623Y-84944714D01*
X141966619Y-85012297D01*
X141966616Y-85012298D01*
X141771739Y-85111595D01*
X141594806Y-85240142D01*
X141440142Y-85394806D01*
X141330318Y-85545969D01*
X141274989Y-85588635D01*
X141205375Y-85594614D01*
X141143580Y-85562009D01*
X141129682Y-85545969D01*
X141019857Y-85394806D01*
X140865193Y-85240142D01*
X140688260Y-85111595D01*
X140688259Y-85111594D01*
X140688257Y-85111593D01*
X140625825Y-85079782D01*
X140493383Y-85012298D01*
X140493380Y-85012297D01*
X140285376Y-84944714D01*
X140069361Y-84910500D01*
X140069356Y-84910500D01*
X139850644Y-84910500D01*
X139850639Y-84910500D01*
X139634623Y-84944714D01*
X139426619Y-85012297D01*
X139426616Y-85012298D01*
X139231739Y-85111595D01*
X139054806Y-85240142D01*
X138900142Y-85394806D01*
X138790318Y-85545969D01*
X138734989Y-85588635D01*
X138665375Y-85594614D01*
X138603580Y-85562009D01*
X138589682Y-85545969D01*
X138479857Y-85394806D01*
X138325193Y-85240142D01*
X138148260Y-85111595D01*
X138148259Y-85111594D01*
X138148257Y-85111593D01*
X138085825Y-85079782D01*
X137953383Y-85012298D01*
X137953380Y-85012297D01*
X137745376Y-84944714D01*
X137529361Y-84910500D01*
X137529356Y-84910500D01*
X137310644Y-84910500D01*
X137310639Y-84910500D01*
X137094623Y-84944714D01*
X136886619Y-85012297D01*
X136886616Y-85012298D01*
X136691739Y-85111595D01*
X136514806Y-85240142D01*
X136360142Y-85394806D01*
X136250318Y-85545969D01*
X136194989Y-85588635D01*
X136125375Y-85594614D01*
X136063580Y-85562009D01*
X136049682Y-85545969D01*
X135939857Y-85394806D01*
X135785193Y-85240142D01*
X135608260Y-85111595D01*
X135608259Y-85111594D01*
X135608257Y-85111593D01*
X135545825Y-85079782D01*
X135413383Y-85012298D01*
X135413380Y-85012297D01*
X135205376Y-84944714D01*
X134989361Y-84910500D01*
X134989356Y-84910500D01*
X134770644Y-84910500D01*
X134770639Y-84910500D01*
X134554623Y-84944714D01*
X134346619Y-85012297D01*
X134346616Y-85012298D01*
X134151739Y-85111595D01*
X133974806Y-85240142D01*
X133820142Y-85394806D01*
X133710318Y-85545969D01*
X133654989Y-85588635D01*
X133585375Y-85594614D01*
X133523580Y-85562009D01*
X133509682Y-85545969D01*
X133399857Y-85394806D01*
X133245193Y-85240142D01*
X133068260Y-85111595D01*
X133068259Y-85111594D01*
X133068257Y-85111593D01*
X133005825Y-85079782D01*
X132873383Y-85012298D01*
X132873380Y-85012297D01*
X132665376Y-84944714D01*
X132449361Y-84910500D01*
X132449356Y-84910500D01*
X132230644Y-84910500D01*
X132230639Y-84910500D01*
X132014623Y-84944714D01*
X131806619Y-85012297D01*
X131806616Y-85012298D01*
X131611739Y-85111595D01*
X131434806Y-85240142D01*
X131280142Y-85394806D01*
X131170318Y-85545969D01*
X131114989Y-85588635D01*
X131045375Y-85594614D01*
X130983580Y-85562009D01*
X130969682Y-85545969D01*
X130859857Y-85394806D01*
X130705193Y-85240142D01*
X130528260Y-85111595D01*
X130528259Y-85111594D01*
X130528257Y-85111593D01*
X130465825Y-85079782D01*
X130333383Y-85012298D01*
X130333380Y-85012297D01*
X130125376Y-84944714D01*
X129909361Y-84910500D01*
X129909356Y-84910500D01*
X129690644Y-84910500D01*
X129690639Y-84910500D01*
X129474623Y-84944714D01*
X129266619Y-85012297D01*
X129266616Y-85012298D01*
X129071739Y-85111595D01*
X128894806Y-85240142D01*
X128740142Y-85394806D01*
X128611595Y-85571739D01*
X128512298Y-85766616D01*
X128512297Y-85766619D01*
X128444714Y-85974623D01*
X128410500Y-86190638D01*
X128410500Y-86409361D01*
X128444714Y-86625376D01*
X128512297Y-86833380D01*
X128512298Y-86833383D01*
X128611595Y-87028260D01*
X128740142Y-87205193D01*
X128894806Y-87359857D01*
X129045696Y-87469483D01*
X129071743Y-87488407D01*
X129199132Y-87553315D01*
X129266616Y-87587701D01*
X129266619Y-87587702D01*
X129327764Y-87607569D01*
X129385439Y-87647006D01*
X129412638Y-87711365D01*
X129400724Y-87780211D01*
X129353480Y-87831687D01*
X129289446Y-87849500D01*
X127700097Y-87849500D01*
X127633058Y-87829815D01*
X127587303Y-87777011D01*
X127577359Y-87707853D01*
X127601721Y-87650014D01*
X127661460Y-87572159D01*
X127740249Y-87469479D01*
X127877923Y-87231021D01*
X127983295Y-86976632D01*
X128054560Y-86710666D01*
X128090500Y-86437674D01*
X128090500Y-86162326D01*
X128054560Y-85889334D01*
X127983295Y-85623368D01*
X127877923Y-85368979D01*
X127877921Y-85368976D01*
X127877919Y-85368971D01*
X127803542Y-85240148D01*
X127740249Y-85130521D01*
X127572628Y-84912072D01*
X127572623Y-84912066D01*
X127377933Y-84717376D01*
X127377926Y-84717370D01*
X127159483Y-84549754D01*
X127159482Y-84549753D01*
X127159479Y-84549751D01*
X127064407Y-84494861D01*
X126921028Y-84412080D01*
X126921017Y-84412075D01*
X126666630Y-84306704D01*
X126514770Y-84266014D01*
X126400666Y-84235440D01*
X126400660Y-84235439D01*
X126400655Y-84235438D01*
X126127684Y-84199501D01*
X126127679Y-84199500D01*
X126127674Y-84199500D01*
X125852326Y-84199500D01*
X125852320Y-84199500D01*
X125852315Y-84199501D01*
X125579344Y-84235438D01*
X125579337Y-84235439D01*
X125579334Y-84235440D01*
X125578114Y-84235767D01*
X125313369Y-84306704D01*
X125058982Y-84412075D01*
X125058971Y-84412080D01*
X124820516Y-84549754D01*
X124602073Y-84717370D01*
X124602066Y-84717376D01*
X124407376Y-84912066D01*
X124407370Y-84912073D01*
X124239754Y-85130516D01*
X124102080Y-85368971D01*
X124102075Y-85368982D01*
X123996704Y-85623369D01*
X123925441Y-85889331D01*
X123925438Y-85889344D01*
X123889501Y-86162315D01*
X123889500Y-86162332D01*
X123889500Y-86437667D01*
X123889501Y-86437684D01*
X123925438Y-86710655D01*
X123925439Y-86710660D01*
X123925440Y-86710666D01*
X123925441Y-86710668D01*
X123996704Y-86976630D01*
X124102075Y-87231017D01*
X124102080Y-87231028D01*
X124176458Y-87359852D01*
X124239751Y-87469479D01*
X124239753Y-87469482D01*
X124239754Y-87469483D01*
X124378279Y-87650014D01*
X124403473Y-87715183D01*
X124389434Y-87783628D01*
X124340620Y-87833618D01*
X124279903Y-87849500D01*
X122750098Y-87849500D01*
X122683059Y-87829815D01*
X122662417Y-87813181D01*
X117287590Y-82438355D01*
X117287588Y-82438352D01*
X117168717Y-82319481D01*
X117168716Y-82319480D01*
X117081904Y-82269360D01*
X117081904Y-82269359D01*
X117081900Y-82269358D01*
X117031785Y-82240423D01*
X116879057Y-82199499D01*
X116720943Y-82199499D01*
X116713347Y-82199499D01*
X116713331Y-82199500D01*
X116232789Y-82199500D01*
X116165750Y-82179815D01*
X116122304Y-82131795D01*
X116090335Y-82069054D01*
X116037815Y-81965978D01*
X116009681Y-81927254D01*
X115908247Y-81787641D01*
X115908243Y-81787636D01*
X115752363Y-81631756D01*
X115752358Y-81631752D01*
X115574025Y-81502187D01*
X115574024Y-81502186D01*
X115574022Y-81502185D01*
X115505785Y-81467416D01*
X115377606Y-81402104D01*
X115377603Y-81402103D01*
X115167952Y-81333985D01*
X115059086Y-81316742D01*
X114950222Y-81299500D01*
X114729778Y-81299500D01*
X114657201Y-81310995D01*
X114512047Y-81333985D01*
X114302396Y-81402103D01*
X114302393Y-81402104D01*
X114105974Y-81502187D01*
X113927641Y-81631752D01*
X113927636Y-81631756D01*
X113771756Y-81787636D01*
X113771752Y-81787641D01*
X113670318Y-81927254D01*
X113614988Y-81969920D01*
X113545375Y-81975899D01*
X113483580Y-81943293D01*
X113469682Y-81927254D01*
X113368247Y-81787641D01*
X113368243Y-81787636D01*
X113212363Y-81631756D01*
X113212358Y-81631752D01*
X113034025Y-81502187D01*
X113034024Y-81502186D01*
X113034022Y-81502185D01*
X112965785Y-81467416D01*
X112837606Y-81402104D01*
X112837603Y-81402103D01*
X112627952Y-81333985D01*
X112519086Y-81316742D01*
X112410222Y-81299500D01*
X112189778Y-81299500D01*
X112117201Y-81310995D01*
X111972047Y-81333985D01*
X111762396Y-81402103D01*
X111762393Y-81402104D01*
X111565974Y-81502187D01*
X111387641Y-81631752D01*
X111387636Y-81631756D01*
X111231756Y-81787636D01*
X111231752Y-81787641D01*
X111130318Y-81927254D01*
X111074988Y-81969920D01*
X111005375Y-81975899D01*
X110943580Y-81943293D01*
X110929682Y-81927254D01*
X110828247Y-81787641D01*
X110828243Y-81787636D01*
X110672363Y-81631756D01*
X110672358Y-81631752D01*
X110494025Y-81502187D01*
X110494024Y-81502186D01*
X110494022Y-81502185D01*
X110425785Y-81467416D01*
X110297606Y-81402104D01*
X110297603Y-81402103D01*
X110087952Y-81333985D01*
X109979086Y-81316742D01*
X109870222Y-81299500D01*
X109649778Y-81299500D01*
X109577201Y-81310995D01*
X109432047Y-81333985D01*
X109222396Y-81402103D01*
X109222393Y-81402104D01*
X109025974Y-81502187D01*
X108847641Y-81631752D01*
X108847636Y-81631756D01*
X108691756Y-81787636D01*
X108691752Y-81787641D01*
X108590318Y-81927254D01*
X108534988Y-81969920D01*
X108465375Y-81975899D01*
X108403580Y-81943293D01*
X108389682Y-81927254D01*
X108288247Y-81787641D01*
X108288243Y-81787636D01*
X108132363Y-81631756D01*
X108132358Y-81631752D01*
X107954025Y-81502187D01*
X107954024Y-81502186D01*
X107954022Y-81502185D01*
X107885785Y-81467416D01*
X107757606Y-81402104D01*
X107757603Y-81402103D01*
X107547952Y-81333985D01*
X107439086Y-81316742D01*
X107330222Y-81299500D01*
X107109778Y-81299500D01*
X107037201Y-81310995D01*
X106892047Y-81333985D01*
X106682396Y-81402103D01*
X106682393Y-81402104D01*
X106485974Y-81502187D01*
X106307641Y-81631752D01*
X106307636Y-81631756D01*
X106151756Y-81787636D01*
X106151752Y-81787641D01*
X106050318Y-81927254D01*
X105994988Y-81969920D01*
X105925375Y-81975899D01*
X105863580Y-81943293D01*
X105849682Y-81927254D01*
X105748247Y-81787641D01*
X105748243Y-81787636D01*
X105592363Y-81631756D01*
X105592358Y-81631752D01*
X105414025Y-81502187D01*
X105414024Y-81502186D01*
X105414022Y-81502185D01*
X105345785Y-81467416D01*
X105217606Y-81402104D01*
X105217603Y-81402103D01*
X105007952Y-81333985D01*
X104899086Y-81316742D01*
X104790222Y-81299500D01*
X104569778Y-81299500D01*
X104497201Y-81310995D01*
X104352047Y-81333985D01*
X104142396Y-81402103D01*
X104142393Y-81402104D01*
X103945974Y-81502187D01*
X103767641Y-81631752D01*
X103767636Y-81631756D01*
X103611756Y-81787636D01*
X103611752Y-81787641D01*
X103510318Y-81927254D01*
X103454988Y-81969920D01*
X103385375Y-81975899D01*
X103323580Y-81943293D01*
X103309682Y-81927254D01*
X103208247Y-81787641D01*
X103208243Y-81787636D01*
X103052363Y-81631756D01*
X103052358Y-81631752D01*
X102874025Y-81502187D01*
X102874024Y-81502186D01*
X102874022Y-81502185D01*
X102805785Y-81467416D01*
X102677606Y-81402104D01*
X102677603Y-81402103D01*
X102467952Y-81333985D01*
X102359086Y-81316742D01*
X102250222Y-81299500D01*
X102029778Y-81299500D01*
X101957201Y-81310995D01*
X101812047Y-81333985D01*
X101602396Y-81402103D01*
X101602393Y-81402104D01*
X101405974Y-81502187D01*
X101227641Y-81631752D01*
X101227636Y-81631756D01*
X101071756Y-81787636D01*
X101071752Y-81787641D01*
X100970318Y-81927254D01*
X100914988Y-81969920D01*
X100845375Y-81975899D01*
X100783580Y-81943293D01*
X100769682Y-81927254D01*
X100668247Y-81787641D01*
X100668243Y-81787636D01*
X100512363Y-81631756D01*
X100512358Y-81631752D01*
X100334025Y-81502187D01*
X100334024Y-81502186D01*
X100334022Y-81502185D01*
X100265785Y-81467416D01*
X100137606Y-81402104D01*
X100137603Y-81402103D01*
X99927952Y-81333985D01*
X99819086Y-81316742D01*
X99710222Y-81299500D01*
X99489778Y-81299500D01*
X99417201Y-81310995D01*
X99272047Y-81333985D01*
X99062396Y-81402103D01*
X99062393Y-81402104D01*
X98865974Y-81502187D01*
X98687641Y-81631752D01*
X98687636Y-81631756D01*
X98531756Y-81787636D01*
X98531752Y-81787641D01*
X98430318Y-81927254D01*
X98374988Y-81969920D01*
X98305375Y-81975899D01*
X98243580Y-81943293D01*
X98229682Y-81927254D01*
X98128247Y-81787641D01*
X98128243Y-81787636D01*
X97972363Y-81631756D01*
X97972358Y-81631752D01*
X97794025Y-81502187D01*
X97794024Y-81502186D01*
X97794022Y-81502185D01*
X97725785Y-81467416D01*
X97597606Y-81402104D01*
X97597603Y-81402103D01*
X97387952Y-81333985D01*
X97279086Y-81316742D01*
X97170222Y-81299500D01*
X96949778Y-81299500D01*
X96877201Y-81310995D01*
X96732047Y-81333985D01*
X96522396Y-81402103D01*
X96522393Y-81402104D01*
X96325974Y-81502187D01*
X96147641Y-81631752D01*
X96147636Y-81631756D01*
X95991756Y-81787636D01*
X95991752Y-81787641D01*
X95890318Y-81927254D01*
X95834988Y-81969920D01*
X95765375Y-81975899D01*
X95703580Y-81943293D01*
X95689682Y-81927254D01*
X95588247Y-81787641D01*
X95588243Y-81787636D01*
X95432363Y-81631756D01*
X95432358Y-81631752D01*
X95254025Y-81502187D01*
X95254024Y-81502186D01*
X95254022Y-81502185D01*
X95185785Y-81467416D01*
X95057606Y-81402104D01*
X95057603Y-81402103D01*
X94847952Y-81333985D01*
X94739086Y-81316742D01*
X94630222Y-81299500D01*
X94409778Y-81299500D01*
X94337201Y-81310995D01*
X94192047Y-81333985D01*
X93982396Y-81402103D01*
X93982393Y-81402104D01*
X93785974Y-81502187D01*
X93607641Y-81631752D01*
X93607636Y-81631756D01*
X93451756Y-81787636D01*
X93451752Y-81787641D01*
X93350318Y-81927254D01*
X93294988Y-81969920D01*
X93225375Y-81975899D01*
X93163580Y-81943293D01*
X93149682Y-81927254D01*
X93048247Y-81787641D01*
X93048243Y-81787636D01*
X92892363Y-81631756D01*
X92892358Y-81631752D01*
X92714025Y-81502187D01*
X92714024Y-81502186D01*
X92714022Y-81502185D01*
X92645785Y-81467416D01*
X92517606Y-81402104D01*
X92517603Y-81402103D01*
X92307952Y-81333985D01*
X92199086Y-81316742D01*
X92090222Y-81299500D01*
X91869778Y-81299500D01*
X91797201Y-81310995D01*
X91652047Y-81333985D01*
X91442396Y-81402103D01*
X91442393Y-81402104D01*
X91245974Y-81502187D01*
X91067641Y-81631752D01*
X91067636Y-81631756D01*
X90911756Y-81787636D01*
X90911752Y-81787641D01*
X90810318Y-81927254D01*
X90754988Y-81969920D01*
X90685375Y-81975899D01*
X90623580Y-81943293D01*
X90609682Y-81927254D01*
X90508247Y-81787641D01*
X90508243Y-81787636D01*
X90352363Y-81631756D01*
X90352358Y-81631752D01*
X90174025Y-81502187D01*
X90174024Y-81502186D01*
X90174022Y-81502185D01*
X90105785Y-81467416D01*
X89977606Y-81402104D01*
X89977603Y-81402103D01*
X89767952Y-81333985D01*
X89659086Y-81316742D01*
X89550222Y-81299500D01*
X89329778Y-81299500D01*
X89257201Y-81310995D01*
X89112047Y-81333985D01*
X88902396Y-81402103D01*
X88902393Y-81402104D01*
X88705974Y-81502187D01*
X88527641Y-81631752D01*
X88527636Y-81631756D01*
X88371756Y-81787636D01*
X88371752Y-81787641D01*
X88270318Y-81927254D01*
X88214988Y-81969920D01*
X88145375Y-81975899D01*
X88083580Y-81943293D01*
X88069682Y-81927254D01*
X87968247Y-81787641D01*
X87968243Y-81787636D01*
X87812363Y-81631756D01*
X87812358Y-81631752D01*
X87634025Y-81502187D01*
X87634024Y-81502186D01*
X87634022Y-81502185D01*
X87565785Y-81467416D01*
X87437606Y-81402104D01*
X87437603Y-81402103D01*
X87227952Y-81333985D01*
X87119086Y-81316742D01*
X87010222Y-81299500D01*
X86789778Y-81299500D01*
X86717201Y-81310995D01*
X86572047Y-81333985D01*
X86362396Y-81402103D01*
X86362393Y-81402104D01*
X86165974Y-81502187D01*
X85987641Y-81631752D01*
X85987636Y-81631756D01*
X85831756Y-81787636D01*
X85831752Y-81787641D01*
X85702187Y-81965974D01*
X85602104Y-82162393D01*
X85602103Y-82162396D01*
X85533985Y-82372047D01*
X85499500Y-82589778D01*
X85499500Y-83010221D01*
X85533985Y-83227952D01*
X85602103Y-83437603D01*
X85602104Y-83437606D01*
X85670122Y-83571096D01*
X85697129Y-83624100D01*
X85702187Y-83634025D01*
X85831752Y-83812358D01*
X85831756Y-83812363D01*
X85987636Y-83968243D01*
X85987641Y-83968247D01*
X86143192Y-84081260D01*
X86165978Y-84097815D01*
X86234724Y-84132843D01*
X86362393Y-84197895D01*
X86362396Y-84197896D01*
X86420178Y-84216670D01*
X86572049Y-84266015D01*
X86789778Y-84300500D01*
X86789779Y-84300500D01*
X87010221Y-84300500D01*
X87010222Y-84300500D01*
X87227951Y-84266015D01*
X87437606Y-84197895D01*
X87634022Y-84097815D01*
X87812365Y-83968242D01*
X87968242Y-83812365D01*
X87978804Y-83797826D01*
X88069682Y-83672745D01*
X88125011Y-83630079D01*
X88194625Y-83624100D01*
X88256420Y-83656705D01*
X88270318Y-83672745D01*
X88371752Y-83812358D01*
X88371756Y-83812363D01*
X88527636Y-83968243D01*
X88527641Y-83968247D01*
X88683192Y-84081260D01*
X88705978Y-84097815D01*
X88774724Y-84132843D01*
X88902393Y-84197895D01*
X88902396Y-84197896D01*
X88960178Y-84216670D01*
X89112049Y-84266015D01*
X89329778Y-84300500D01*
X89329779Y-84300500D01*
X89550221Y-84300500D01*
X89550222Y-84300500D01*
X89767951Y-84266015D01*
X89977606Y-84197895D01*
X90174022Y-84097815D01*
X90352365Y-83968242D01*
X90508242Y-83812365D01*
X90518804Y-83797826D01*
X90609682Y-83672745D01*
X90665011Y-83630079D01*
X90734625Y-83624100D01*
X90796420Y-83656705D01*
X90810318Y-83672745D01*
X90911752Y-83812358D01*
X90911756Y-83812363D01*
X91067636Y-83968243D01*
X91067641Y-83968247D01*
X91223192Y-84081260D01*
X91245978Y-84097815D01*
X91314724Y-84132843D01*
X91442393Y-84197895D01*
X91442396Y-84197896D01*
X91500178Y-84216670D01*
X91652049Y-84266015D01*
X91869778Y-84300500D01*
X91869779Y-84300500D01*
X92090221Y-84300500D01*
X92090222Y-84300500D01*
X92307951Y-84266015D01*
X92517606Y-84197895D01*
X92714022Y-84097815D01*
X92892365Y-83968242D01*
X93048242Y-83812365D01*
X93058804Y-83797826D01*
X93149682Y-83672745D01*
X93205011Y-83630079D01*
X93274625Y-83624100D01*
X93336420Y-83656705D01*
X93350318Y-83672745D01*
X93451752Y-83812358D01*
X93451756Y-83812363D01*
X93607636Y-83968243D01*
X93607641Y-83968247D01*
X93763192Y-84081260D01*
X93785978Y-84097815D01*
X93854724Y-84132843D01*
X93982393Y-84197895D01*
X93982396Y-84197896D01*
X94040178Y-84216670D01*
X94192049Y-84266015D01*
X94409778Y-84300500D01*
X94409779Y-84300500D01*
X94630221Y-84300500D01*
X94630222Y-84300500D01*
X94847951Y-84266015D01*
X94993681Y-84218664D01*
X95063522Y-84216670D01*
X95119680Y-84248915D01*
X111786139Y-100915374D01*
X111786149Y-100915385D01*
X111790479Y-100919715D01*
X111790480Y-100919716D01*
X111902284Y-101031520D01*
X111989095Y-101081639D01*
X111989096Y-101081640D01*
X112011034Y-101094306D01*
X112021758Y-101100498D01*
X112025157Y-101102460D01*
X112073373Y-101153027D01*
X112086595Y-101221634D01*
X112060627Y-101286499D01*
X112003713Y-101327027D01*
X111982562Y-101332319D01*
X111972048Y-101333984D01*
X111762396Y-101402103D01*
X111762393Y-101402104D01*
X111565974Y-101502187D01*
X111387641Y-101631752D01*
X111387636Y-101631756D01*
X111231756Y-101787636D01*
X111231752Y-101787641D01*
X111130318Y-101927254D01*
X111074988Y-101969920D01*
X111005375Y-101975899D01*
X110943580Y-101943293D01*
X110929682Y-101927254D01*
X110828247Y-101787641D01*
X110828243Y-101787636D01*
X110672363Y-101631756D01*
X110672358Y-101631752D01*
X110494025Y-101502187D01*
X110494024Y-101502186D01*
X110494022Y-101502185D01*
X110431096Y-101470122D01*
X110297606Y-101402104D01*
X110297603Y-101402103D01*
X110087952Y-101333985D01*
X109979086Y-101316742D01*
X109870222Y-101299500D01*
X109649778Y-101299500D01*
X109577201Y-101310995D01*
X109432047Y-101333985D01*
X109222396Y-101402103D01*
X109222393Y-101402104D01*
X109025974Y-101502187D01*
X108847641Y-101631752D01*
X108847636Y-101631756D01*
X108691756Y-101787636D01*
X108691752Y-101787641D01*
X108590318Y-101927254D01*
X108534988Y-101969920D01*
X108465375Y-101975899D01*
X108403580Y-101943293D01*
X108389682Y-101927254D01*
X108288247Y-101787641D01*
X108288243Y-101787636D01*
X108132363Y-101631756D01*
X108132358Y-101631752D01*
X107954025Y-101502187D01*
X107954024Y-101502186D01*
X107954022Y-101502185D01*
X107891096Y-101470122D01*
X107757606Y-101402104D01*
X107757603Y-101402103D01*
X107547952Y-101333985D01*
X107439086Y-101316742D01*
X107330222Y-101299500D01*
X107109778Y-101299500D01*
X107037201Y-101310995D01*
X106892047Y-101333985D01*
X106682396Y-101402103D01*
X106682393Y-101402104D01*
X106485974Y-101502187D01*
X106307641Y-101631752D01*
X106307636Y-101631756D01*
X106151756Y-101787636D01*
X106151752Y-101787641D01*
X106050318Y-101927254D01*
X105994988Y-101969920D01*
X105925375Y-101975899D01*
X105863580Y-101943293D01*
X105849682Y-101927254D01*
X105748247Y-101787641D01*
X105748243Y-101787636D01*
X105592363Y-101631756D01*
X105592358Y-101631752D01*
X105414025Y-101502187D01*
X105414024Y-101502186D01*
X105414022Y-101502185D01*
X105351096Y-101470122D01*
X105217606Y-101402104D01*
X105217603Y-101402103D01*
X105007952Y-101333985D01*
X104899086Y-101316742D01*
X104790222Y-101299500D01*
X104569778Y-101299500D01*
X104497201Y-101310995D01*
X104352047Y-101333985D01*
X104142396Y-101402103D01*
X104142393Y-101402104D01*
X103945974Y-101502187D01*
X103767641Y-101631752D01*
X103767636Y-101631756D01*
X103611756Y-101787636D01*
X103611752Y-101787641D01*
X103510318Y-101927254D01*
X103454988Y-101969920D01*
X103385375Y-101975899D01*
X103323580Y-101943293D01*
X103309682Y-101927254D01*
X103208247Y-101787641D01*
X103208243Y-101787636D01*
X103052363Y-101631756D01*
X103052358Y-101631752D01*
X102874025Y-101502187D01*
X102874024Y-101502186D01*
X102874022Y-101502185D01*
X102811096Y-101470122D01*
X102677606Y-101402104D01*
X102677603Y-101402103D01*
X102467952Y-101333985D01*
X102359086Y-101316742D01*
X102250222Y-101299500D01*
X102029778Y-101299500D01*
X101957201Y-101310995D01*
X101812047Y-101333985D01*
X101602396Y-101402103D01*
X101602393Y-101402104D01*
X101405974Y-101502187D01*
X101227641Y-101631752D01*
X101227636Y-101631756D01*
X101071756Y-101787636D01*
X101071752Y-101787641D01*
X100970318Y-101927254D01*
X100914988Y-101969920D01*
X100845375Y-101975899D01*
X100783580Y-101943293D01*
X100769682Y-101927254D01*
X100668247Y-101787641D01*
X100668243Y-101787636D01*
X100512363Y-101631756D01*
X100512358Y-101631752D01*
X100334025Y-101502187D01*
X100334024Y-101502186D01*
X100334022Y-101502185D01*
X100271096Y-101470122D01*
X100137606Y-101402104D01*
X100137603Y-101402103D01*
X99927952Y-101333985D01*
X99819086Y-101316742D01*
X99710222Y-101299500D01*
X99489778Y-101299500D01*
X99417201Y-101310995D01*
X99272047Y-101333985D01*
X99062396Y-101402103D01*
X99062393Y-101402104D01*
X98865974Y-101502187D01*
X98687641Y-101631752D01*
X98687636Y-101631756D01*
X98531756Y-101787636D01*
X98531752Y-101787641D01*
X98430318Y-101927254D01*
X98374988Y-101969920D01*
X98305375Y-101975899D01*
X98243580Y-101943293D01*
X98229682Y-101927254D01*
X98128247Y-101787641D01*
X98128243Y-101787636D01*
X97972363Y-101631756D01*
X97972358Y-101631752D01*
X97794025Y-101502187D01*
X97794024Y-101502186D01*
X97794022Y-101502185D01*
X97731096Y-101470122D01*
X97597606Y-101402104D01*
X97597603Y-101402103D01*
X97387952Y-101333985D01*
X97279086Y-101316742D01*
X97170222Y-101299500D01*
X96949778Y-101299500D01*
X96877201Y-101310995D01*
X96732047Y-101333985D01*
X96522396Y-101402103D01*
X96522393Y-101402104D01*
X96325974Y-101502187D01*
X96147641Y-101631752D01*
X96147636Y-101631756D01*
X95991756Y-101787636D01*
X95991752Y-101787641D01*
X95890318Y-101927254D01*
X95834988Y-101969920D01*
X95765375Y-101975899D01*
X95703580Y-101943293D01*
X95689682Y-101927254D01*
X95588247Y-101787641D01*
X95588243Y-101787636D01*
X95432363Y-101631756D01*
X95432358Y-101631752D01*
X95254025Y-101502187D01*
X95254024Y-101502186D01*
X95254022Y-101502185D01*
X95191096Y-101470122D01*
X95057606Y-101402104D01*
X95057603Y-101402103D01*
X94847952Y-101333985D01*
X94739086Y-101316742D01*
X94630222Y-101299500D01*
X94409778Y-101299500D01*
X94337201Y-101310995D01*
X94192047Y-101333985D01*
X93982396Y-101402103D01*
X93982393Y-101402104D01*
X93785974Y-101502187D01*
X93607641Y-101631752D01*
X93607636Y-101631756D01*
X93451756Y-101787636D01*
X93451752Y-101787641D01*
X93350318Y-101927254D01*
X93294988Y-101969920D01*
X93225375Y-101975899D01*
X93163580Y-101943293D01*
X93149682Y-101927254D01*
X93048247Y-101787641D01*
X93048243Y-101787636D01*
X92892363Y-101631756D01*
X92892358Y-101631752D01*
X92714025Y-101502187D01*
X92714024Y-101502186D01*
X92714022Y-101502185D01*
X92651096Y-101470122D01*
X92517606Y-101402104D01*
X92517603Y-101402103D01*
X92307952Y-101333985D01*
X92199086Y-101316742D01*
X92090222Y-101299500D01*
X91869778Y-101299500D01*
X91797201Y-101310995D01*
X91652047Y-101333985D01*
X91442396Y-101402103D01*
X91442393Y-101402104D01*
X91245974Y-101502187D01*
X91067641Y-101631752D01*
X91067636Y-101631756D01*
X90911756Y-101787636D01*
X90911752Y-101787641D01*
X90810318Y-101927254D01*
X90754988Y-101969920D01*
X90685375Y-101975899D01*
X90623580Y-101943293D01*
X90609682Y-101927254D01*
X90508247Y-101787641D01*
X90508243Y-101787636D01*
X90352363Y-101631756D01*
X90352358Y-101631752D01*
X90174025Y-101502187D01*
X90174024Y-101502186D01*
X90174022Y-101502185D01*
X90111096Y-101470122D01*
X89977606Y-101402104D01*
X89977603Y-101402103D01*
X89767952Y-101333985D01*
X89659086Y-101316742D01*
X89550222Y-101299500D01*
X89329778Y-101299500D01*
X89257201Y-101310995D01*
X89112047Y-101333985D01*
X88902396Y-101402103D01*
X88902393Y-101402104D01*
X88705974Y-101502187D01*
X88527641Y-101631752D01*
X88527636Y-101631756D01*
X88371756Y-101787636D01*
X88371752Y-101787641D01*
X88270318Y-101927254D01*
X88214988Y-101969920D01*
X88145375Y-101975899D01*
X88083580Y-101943293D01*
X88069682Y-101927254D01*
X87968247Y-101787641D01*
X87968243Y-101787636D01*
X87812363Y-101631756D01*
X87812358Y-101631752D01*
X87634025Y-101502187D01*
X87634024Y-101502186D01*
X87634022Y-101502185D01*
X87571096Y-101470122D01*
X87437606Y-101402104D01*
X87437603Y-101402103D01*
X87227952Y-101333985D01*
X87119086Y-101316742D01*
X87010222Y-101299500D01*
X86789778Y-101299500D01*
X86717201Y-101310995D01*
X86572047Y-101333985D01*
X86362396Y-101402103D01*
X86362393Y-101402104D01*
X86165974Y-101502187D01*
X85987641Y-101631752D01*
X85987636Y-101631756D01*
X85831756Y-101787636D01*
X85831752Y-101787641D01*
X85730318Y-101927254D01*
X85674988Y-101969920D01*
X85605375Y-101975899D01*
X85543580Y-101943293D01*
X85529682Y-101927254D01*
X85428247Y-101787641D01*
X85428243Y-101787636D01*
X85272363Y-101631756D01*
X85272358Y-101631752D01*
X85094025Y-101502187D01*
X85094024Y-101502186D01*
X85094022Y-101502185D01*
X85031096Y-101470122D01*
X84897606Y-101402104D01*
X84897603Y-101402103D01*
X84687952Y-101333985D01*
X84579086Y-101316742D01*
X84470222Y-101299500D01*
X84249778Y-101299500D01*
X84177201Y-101310995D01*
X84032047Y-101333985D01*
X83822396Y-101402103D01*
X83822393Y-101402104D01*
X83625974Y-101502187D01*
X83447641Y-101631752D01*
X83447636Y-101631756D01*
X83291756Y-101787636D01*
X83291752Y-101787641D01*
X83162187Y-101965974D01*
X83062104Y-102162393D01*
X83062103Y-102162396D01*
X82993985Y-102372047D01*
X82959500Y-102589778D01*
X78140500Y-102589778D01*
X78106015Y-102372049D01*
X78071955Y-102267221D01*
X78037896Y-102162396D01*
X78037895Y-102162393D01*
X78003237Y-102094375D01*
X77937815Y-101965978D01*
X77909681Y-101927254D01*
X77808247Y-101787641D01*
X77808243Y-101787636D01*
X77652363Y-101631756D01*
X77652358Y-101631752D01*
X77474025Y-101502187D01*
X77474024Y-101502186D01*
X77474022Y-101502185D01*
X77411096Y-101470122D01*
X77277606Y-101402104D01*
X77277603Y-101402103D01*
X77067952Y-101333985D01*
X76959086Y-101316742D01*
X76850222Y-101299500D01*
X76629778Y-101299500D01*
X76557201Y-101310995D01*
X76412047Y-101333985D01*
X76202396Y-101402103D01*
X76202393Y-101402104D01*
X76005974Y-101502187D01*
X75827641Y-101631752D01*
X75827636Y-101631756D01*
X75671756Y-101787636D01*
X75671752Y-101787641D01*
X75542187Y-101965974D01*
X75442104Y-102162393D01*
X75442103Y-102162396D01*
X75373985Y-102372047D01*
X75339500Y-102589778D01*
X74069341Y-102589778D01*
X74099312Y-100993295D01*
X74285803Y-91059568D01*
X84299500Y-91059568D01*
X84299500Y-91340431D01*
X84330942Y-91619494D01*
X84330945Y-91619512D01*
X84393439Y-91893317D01*
X84393443Y-91893329D01*
X84486200Y-92158411D01*
X84608053Y-92411442D01*
X84608055Y-92411445D01*
X84757477Y-92649248D01*
X84932584Y-92868825D01*
X85131175Y-93067416D01*
X85350752Y-93242523D01*
X85588555Y-93391945D01*
X85841592Y-93513801D01*
X86040680Y-93583465D01*
X86106670Y-93606556D01*
X86106682Y-93606560D01*
X86380491Y-93669055D01*
X86380497Y-93669055D01*
X86380505Y-93669057D01*
X86566547Y-93690018D01*
X86659569Y-93700499D01*
X86659572Y-93700500D01*
X86659575Y-93700500D01*
X86940428Y-93700500D01*
X86940429Y-93700499D01*
X87083055Y-93684429D01*
X87219494Y-93669057D01*
X87219499Y-93669056D01*
X87219509Y-93669055D01*
X87493318Y-93606560D01*
X87758408Y-93513801D01*
X88011445Y-93391945D01*
X88249248Y-93242523D01*
X88468825Y-93067416D01*
X88667416Y-92868825D01*
X88842523Y-92649248D01*
X88991945Y-92411445D01*
X89113801Y-92158408D01*
X89206560Y-91893318D01*
X89269055Y-91619509D01*
X89300500Y-91340425D01*
X89300500Y-91059575D01*
X89269055Y-90780491D01*
X89206560Y-90506682D01*
X89113801Y-90241592D01*
X88991945Y-89988555D01*
X88842523Y-89750752D01*
X88667416Y-89531175D01*
X88468825Y-89332584D01*
X88249248Y-89157477D01*
X88011445Y-89008055D01*
X88011442Y-89008053D01*
X87758411Y-88886200D01*
X87493329Y-88793443D01*
X87493317Y-88793439D01*
X87219512Y-88730945D01*
X87219494Y-88730942D01*
X86940431Y-88699500D01*
X86940425Y-88699500D01*
X86659575Y-88699500D01*
X86659568Y-88699500D01*
X86380505Y-88730942D01*
X86380487Y-88730945D01*
X86106682Y-88793439D01*
X86106670Y-88793443D01*
X85841588Y-88886200D01*
X85588557Y-89008053D01*
X85350753Y-89157476D01*
X85131175Y-89332583D01*
X84932583Y-89531175D01*
X84757476Y-89750753D01*
X84608053Y-89988557D01*
X84486200Y-90241588D01*
X84393443Y-90506670D01*
X84393439Y-90506682D01*
X84330945Y-90780487D01*
X84330942Y-90780505D01*
X84299500Y-91059568D01*
X74285803Y-91059568D01*
X74285912Y-91053768D01*
X74285912Y-91053767D01*
X74428319Y-83468205D01*
X74499435Y-79680085D01*
X74514290Y-79623521D01*
X74526715Y-79600499D01*
X75659560Y-77501402D01*
X75708719Y-77451759D01*
X75776918Y-77436572D01*
X75842502Y-77460667D01*
X75884648Y-77516394D01*
X75889571Y-77532705D01*
X75912224Y-77631957D01*
X75912227Y-77631965D01*
X76023532Y-77950054D01*
X76169752Y-78253683D01*
X76169754Y-78253686D01*
X76349054Y-78539039D01*
X76505811Y-78735606D01*
X76553049Y-78794842D01*
X76559175Y-78802523D01*
X76797477Y-79040825D01*
X77060961Y-79250946D01*
X77346314Y-79430246D01*
X77649949Y-79576469D01*
X77888848Y-79660063D01*
X77968034Y-79687772D01*
X77968046Y-79687776D01*
X78296606Y-79762767D01*
X78631492Y-79800499D01*
X78631493Y-79800500D01*
X78631496Y-79800500D01*
X78968507Y-79800500D01*
X78968507Y-79800499D01*
X79303394Y-79762767D01*
X79631954Y-79687776D01*
X79950051Y-79576469D01*
X80253686Y-79430246D01*
X80539039Y-79250946D01*
X80802523Y-79040825D01*
X81040825Y-78802523D01*
X81250946Y-78539039D01*
X81430246Y-78253686D01*
X81576469Y-77950051D01*
X81687776Y-77631954D01*
X81762767Y-77303394D01*
X81800500Y-76968504D01*
X81800500Y-76631496D01*
X81762767Y-76296606D01*
X81687776Y-75968046D01*
X81675026Y-75931610D01*
X81640035Y-75831610D01*
X81576469Y-75649949D01*
X81458945Y-75405908D01*
X81430247Y-75346316D01*
X81416153Y-75323885D01*
X81250946Y-75060961D01*
X81040825Y-74797477D01*
X80802523Y-74559175D01*
X80539039Y-74349054D01*
X80253686Y-74169754D01*
X80253683Y-74169752D01*
X79950054Y-74023532D01*
X79631965Y-73912227D01*
X79631953Y-73912223D01*
X79303397Y-73837233D01*
X79303381Y-73837231D01*
X78968508Y-73799500D01*
X78968504Y-73799500D01*
X78631496Y-73799500D01*
X78631491Y-73799500D01*
X78296618Y-73837231D01*
X78296602Y-73837233D01*
X77968048Y-73912223D01*
X77968037Y-73912227D01*
X77812165Y-73966769D01*
X77742387Y-73970330D01*
X77681759Y-73935601D01*
X77649532Y-73873608D01*
X77655937Y-73804033D01*
X77662081Y-73790849D01*
X77864977Y-73414894D01*
X77914138Y-73365249D01*
X77973743Y-73349789D01*
X82542685Y-73336735D01*
X82609776Y-73356226D01*
X82655682Y-73408899D01*
X82665823Y-73478029D01*
X82646139Y-73529621D01*
X82632682Y-73549761D01*
X82632676Y-73549771D01*
X82561027Y-73722748D01*
X82561025Y-73722756D01*
X82524500Y-73906379D01*
X82524500Y-74893620D01*
X82561025Y-75077243D01*
X82561027Y-75077251D01*
X82632676Y-75250228D01*
X82632681Y-75250237D01*
X82736697Y-75405907D01*
X82736700Y-75405911D01*
X82869088Y-75538299D01*
X82869092Y-75538302D01*
X83024762Y-75642318D01*
X83024771Y-75642323D01*
X83057834Y-75656018D01*
X83197749Y-75713973D01*
X83335057Y-75741285D01*
X83381379Y-75750499D01*
X83381383Y-75750500D01*
X83381384Y-75750500D01*
X83568617Y-75750500D01*
X83568618Y-75750499D01*
X83752251Y-75713973D01*
X83925231Y-75642322D01*
X84080908Y-75538302D01*
X84213302Y-75405908D01*
X84317322Y-75250231D01*
X84388973Y-75077251D01*
X84425500Y-74893616D01*
X84425500Y-73906384D01*
X84388973Y-73722749D01*
X84317322Y-73549769D01*
X84317321Y-73549767D01*
X84317315Y-73549757D01*
X84300311Y-73524308D01*
X84279433Y-73457631D01*
X84297918Y-73390251D01*
X84349897Y-73343561D01*
X84403055Y-73331419D01*
X91209231Y-73311973D01*
X91276321Y-73331464D01*
X91322227Y-73384137D01*
X91332368Y-73453267D01*
X91312683Y-73504860D01*
X91282683Y-73549759D01*
X91282676Y-73549771D01*
X91211027Y-73722748D01*
X91211025Y-73722756D01*
X91174500Y-73906379D01*
X91174500Y-74893620D01*
X91211025Y-75077243D01*
X91211027Y-75077251D01*
X91282676Y-75250228D01*
X91282681Y-75250237D01*
X91386697Y-75405907D01*
X91386700Y-75405911D01*
X91447608Y-75466819D01*
X91481093Y-75528142D01*
X91476109Y-75597834D01*
X91434237Y-75653767D01*
X91368773Y-75678184D01*
X91359927Y-75678500D01*
X87117324Y-75678500D01*
X86964594Y-75719423D01*
X86936811Y-75735465D01*
X86936810Y-75735465D01*
X86827668Y-75798477D01*
X86827663Y-75798481D01*
X86156286Y-76469858D01*
X86156286Y-76469859D01*
X86156284Y-76469861D01*
X86075645Y-76550500D01*
X86040566Y-76585579D01*
X85979243Y-76619063D01*
X85921892Y-76616759D01*
X85921763Y-76617412D01*
X85917621Y-76616588D01*
X85916893Y-76616559D01*
X85915784Y-76616222D01*
X85756307Y-76584500D01*
X85756305Y-76584500D01*
X85593695Y-76584500D01*
X85593693Y-76584500D01*
X85434216Y-76616222D01*
X85434210Y-76616224D01*
X85297453Y-76672871D01*
X85227983Y-76680340D01*
X85202547Y-76672871D01*
X85184172Y-76665260D01*
X85065789Y-76616224D01*
X85065783Y-76616222D01*
X84906307Y-76584500D01*
X84906305Y-76584500D01*
X84743695Y-76584500D01*
X84743693Y-76584500D01*
X84584216Y-76616222D01*
X84584215Y-76616223D01*
X84584214Y-76616223D01*
X84584211Y-76616224D01*
X84539657Y-76634679D01*
X84483856Y-76657792D01*
X84414386Y-76665260D01*
X84351907Y-76633984D01*
X84321843Y-76590683D01*
X84317323Y-76579772D01*
X84317323Y-76579771D01*
X84317322Y-76579769D01*
X84317320Y-76579766D01*
X84317318Y-76579762D01*
X84213302Y-76424092D01*
X84213299Y-76424088D01*
X84080911Y-76291700D01*
X84080907Y-76291697D01*
X83925237Y-76187681D01*
X83925228Y-76187676D01*
X83752251Y-76116027D01*
X83752243Y-76116025D01*
X83568620Y-76079500D01*
X83568616Y-76079500D01*
X83381384Y-76079500D01*
X83381379Y-76079500D01*
X83197756Y-76116025D01*
X83197748Y-76116027D01*
X83024771Y-76187676D01*
X83024762Y-76187681D01*
X82869092Y-76291697D01*
X82869088Y-76291700D01*
X82736700Y-76424088D01*
X82736697Y-76424092D01*
X82632681Y-76579762D01*
X82632676Y-76579771D01*
X82561027Y-76752748D01*
X82561025Y-76752756D01*
X82524500Y-76936379D01*
X82524500Y-78623620D01*
X82561025Y-78807243D01*
X82561027Y-78807251D01*
X82632676Y-78980228D01*
X82632681Y-78980237D01*
X82736697Y-79135907D01*
X82736700Y-79135911D01*
X82869088Y-79268299D01*
X82869092Y-79268302D01*
X83024762Y-79372318D01*
X83024771Y-79372323D01*
X83063956Y-79388554D01*
X83197749Y-79443973D01*
X83381379Y-79480499D01*
X83381383Y-79480500D01*
X83381384Y-79480500D01*
X83568617Y-79480500D01*
X83568618Y-79480499D01*
X83752251Y-79443973D01*
X83925231Y-79372322D01*
X83955189Y-79352305D01*
X84047224Y-79290809D01*
X84113901Y-79269931D01*
X84181282Y-79288415D01*
X84203796Y-79306230D01*
X84298771Y-79401205D01*
X84298779Y-79401211D01*
X84433976Y-79491547D01*
X84433980Y-79491549D01*
X84583402Y-79553441D01*
X84584211Y-79553776D01*
X84584215Y-79553776D01*
X84584216Y-79553777D01*
X84743692Y-79585500D01*
X84743695Y-79585500D01*
X84906307Y-79585500D01*
X85020594Y-79562766D01*
X85065789Y-79553776D01*
X85202547Y-79497128D01*
X85272017Y-79489660D01*
X85297452Y-79497128D01*
X85434211Y-79553776D01*
X85434215Y-79553776D01*
X85434216Y-79553777D01*
X85593692Y-79585500D01*
X85593695Y-79585500D01*
X85756307Y-79585500D01*
X85870594Y-79562766D01*
X85915789Y-79553776D01*
X86052547Y-79497128D01*
X86122017Y-79489660D01*
X86147452Y-79497128D01*
X86284211Y-79553776D01*
X86284215Y-79553776D01*
X86284216Y-79553777D01*
X86443692Y-79585500D01*
X86443695Y-79585500D01*
X86606307Y-79585500D01*
X86720594Y-79562766D01*
X86765789Y-79553776D01*
X86902547Y-79497128D01*
X86972017Y-79489660D01*
X86997452Y-79497128D01*
X87134211Y-79553776D01*
X87134215Y-79553776D01*
X87134216Y-79553777D01*
X87293692Y-79585500D01*
X87293695Y-79585500D01*
X87456307Y-79585500D01*
X87570594Y-79562766D01*
X87615789Y-79553776D01*
X87752547Y-79497128D01*
X87822017Y-79489660D01*
X87847452Y-79497128D01*
X87984211Y-79553776D01*
X87984215Y-79553776D01*
X87984216Y-79553777D01*
X88143692Y-79585500D01*
X88143695Y-79585500D01*
X88306307Y-79585500D01*
X88465781Y-79553778D01*
X88465784Y-79553776D01*
X88465789Y-79553776D01*
X88465792Y-79553774D01*
X88466872Y-79553447D01*
X88467473Y-79553441D01*
X88471764Y-79552588D01*
X88471925Y-79553401D01*
X88480896Y-79553319D01*
X88494038Y-79548418D01*
X88515142Y-79553008D01*
X88536739Y-79552813D01*
X88549978Y-79560587D01*
X88562311Y-79563270D01*
X88590559Y-79584416D01*
X88590566Y-79584420D01*
X88594478Y-79588332D01*
X88594480Y-79588335D01*
X88706284Y-79700139D01*
X88706286Y-79700140D01*
X88713356Y-79707210D01*
X89121520Y-80115374D01*
X89121530Y-80115385D01*
X89125860Y-80119715D01*
X89125861Y-80119716D01*
X89237665Y-80231520D01*
X89324476Y-80281639D01*
X89324478Y-80281641D01*
X89374594Y-80310576D01*
X89374596Y-80310577D01*
X89527323Y-80351500D01*
X89527324Y-80351500D01*
X122012331Y-80351500D01*
X122012347Y-80351501D01*
X122019943Y-80351501D01*
X122178054Y-80351501D01*
X122178057Y-80351501D01*
X122330785Y-80310577D01*
X122380904Y-80281639D01*
X122467716Y-80231520D01*
X122579520Y-80119716D01*
X122579520Y-80119714D01*
X122589728Y-80109507D01*
X122589730Y-80109504D01*
X123055158Y-79644075D01*
X123116479Y-79610592D01*
X123181151Y-79613825D01*
X123195466Y-79618477D01*
X123397648Y-79650500D01*
X123397649Y-79650500D01*
X123602351Y-79650500D01*
X123602352Y-79650500D01*
X123804534Y-79618477D01*
X123999219Y-79555220D01*
X124002711Y-79553441D01*
X124012569Y-79548418D01*
X124181610Y-79462287D01*
X124185352Y-79459568D01*
X136299500Y-79459568D01*
X136299500Y-79740431D01*
X136330942Y-80019494D01*
X136330945Y-80019512D01*
X136393439Y-80293317D01*
X136393443Y-80293329D01*
X136486200Y-80558411D01*
X136608053Y-80811442D01*
X136608055Y-80811445D01*
X136757477Y-81049248D01*
X136932584Y-81268825D01*
X137131175Y-81467416D01*
X137350752Y-81642523D01*
X137588555Y-81791945D01*
X137841592Y-81913801D01*
X138001971Y-81969920D01*
X138106670Y-82006556D01*
X138106682Y-82006560D01*
X138380491Y-82069055D01*
X138380497Y-82069055D01*
X138380505Y-82069057D01*
X138566547Y-82090018D01*
X138659569Y-82100499D01*
X138659572Y-82100500D01*
X138659575Y-82100500D01*
X138940428Y-82100500D01*
X138940429Y-82100499D01*
X139083055Y-82084429D01*
X139219494Y-82069057D01*
X139219499Y-82069056D01*
X139219509Y-82069055D01*
X139493318Y-82006560D01*
X139758408Y-81913801D01*
X140011445Y-81791945D01*
X140249248Y-81642523D01*
X140468825Y-81467416D01*
X140667416Y-81268825D01*
X140842523Y-81049248D01*
X140991945Y-80811445D01*
X141113801Y-80558408D01*
X141206560Y-80293318D01*
X141269055Y-80019509D01*
X141300500Y-79740425D01*
X141300500Y-79459575D01*
X141280968Y-79286225D01*
X141269057Y-79180505D01*
X141269054Y-79180487D01*
X141206560Y-78906682D01*
X141206556Y-78906670D01*
X141183465Y-78840680D01*
X141113801Y-78641592D01*
X140991945Y-78388555D01*
X140842523Y-78150752D01*
X140667416Y-77931175D01*
X140468825Y-77732584D01*
X140436011Y-77706416D01*
X140312644Y-77608034D01*
X140249248Y-77557477D01*
X140056829Y-77436572D01*
X140011442Y-77408053D01*
X139758411Y-77286200D01*
X139493329Y-77193443D01*
X139493317Y-77193439D01*
X139219512Y-77130945D01*
X139219494Y-77130942D01*
X138940431Y-77099500D01*
X138940425Y-77099500D01*
X138659575Y-77099500D01*
X138659568Y-77099500D01*
X138380505Y-77130942D01*
X138380487Y-77130945D01*
X138106682Y-77193439D01*
X138106670Y-77193443D01*
X137841588Y-77286200D01*
X137588557Y-77408053D01*
X137350753Y-77557476D01*
X137131175Y-77732583D01*
X136932583Y-77931175D01*
X136757476Y-78150753D01*
X136608053Y-78388557D01*
X136486200Y-78641588D01*
X136393443Y-78906670D01*
X136393439Y-78906682D01*
X136330945Y-79180487D01*
X136330942Y-79180505D01*
X136299500Y-79459568D01*
X124185352Y-79459568D01*
X124305443Y-79372318D01*
X124328210Y-79355777D01*
X124328210Y-79355776D01*
X124347219Y-79341966D01*
X124491966Y-79197219D01*
X124491968Y-79197215D01*
X124491971Y-79197213D01*
X124559973Y-79103614D01*
X124612287Y-79031610D01*
X124705220Y-78849219D01*
X124768477Y-78654534D01*
X124800500Y-78452352D01*
X124800500Y-78247648D01*
X124769779Y-78053686D01*
X124768477Y-78045465D01*
X124705218Y-77850776D01*
X124653895Y-77750051D01*
X124612287Y-77668390D01*
X124585814Y-77631953D01*
X124491971Y-77502786D01*
X124347213Y-77358028D01*
X124181613Y-77237715D01*
X124181612Y-77237714D01*
X124181610Y-77237713D01*
X124124653Y-77208691D01*
X123999223Y-77144781D01*
X123804534Y-77081522D01*
X123629995Y-77053878D01*
X123602352Y-77049500D01*
X123397648Y-77049500D01*
X123373329Y-77053351D01*
X123195465Y-77081522D01*
X123000776Y-77144781D01*
X122818386Y-77237715D01*
X122652786Y-77358028D01*
X122508028Y-77502786D01*
X122387715Y-77668386D01*
X122294781Y-77850776D01*
X122231522Y-78045465D01*
X122199500Y-78247648D01*
X122199500Y-78452351D01*
X122231523Y-78654534D01*
X122236172Y-78668843D01*
X122238167Y-78738684D01*
X122205922Y-78794842D01*
X121886584Y-79114181D01*
X121825261Y-79147666D01*
X121798903Y-79150500D01*
X117134059Y-79150500D01*
X117067020Y-79130815D01*
X117021265Y-79078011D01*
X117011321Y-79008853D01*
X117023574Y-78970205D01*
X117031559Y-78954535D01*
X117085220Y-78849219D01*
X117148477Y-78654534D01*
X117180500Y-78452352D01*
X117180500Y-78247648D01*
X117149779Y-78053686D01*
X117148477Y-78045465D01*
X117085218Y-77850776D01*
X117033895Y-77750051D01*
X116992287Y-77668390D01*
X116965814Y-77631953D01*
X116871971Y-77502786D01*
X116727213Y-77358028D01*
X116561613Y-77237715D01*
X116561612Y-77237714D01*
X116561610Y-77237713D01*
X116504653Y-77208691D01*
X116379223Y-77144781D01*
X116184534Y-77081522D01*
X116009995Y-77053878D01*
X115982352Y-77049500D01*
X115777648Y-77049500D01*
X115753329Y-77053351D01*
X115575465Y-77081522D01*
X115380776Y-77144781D01*
X115198386Y-77237715D01*
X115032786Y-77358028D01*
X114888028Y-77502786D01*
X114767715Y-77668386D01*
X114674781Y-77850776D01*
X114611522Y-78045465D01*
X114579500Y-78247648D01*
X114579500Y-78452351D01*
X114611522Y-78654534D01*
X114674781Y-78849223D01*
X114704059Y-78906682D01*
X114728441Y-78954535D01*
X114736426Y-78970205D01*
X114749322Y-79038874D01*
X114723046Y-79103614D01*
X114665940Y-79143872D01*
X114625941Y-79150500D01*
X114069229Y-79150500D01*
X114002190Y-79130815D01*
X113956435Y-79078011D01*
X113946491Y-79008853D01*
X113951298Y-78988181D01*
X113953880Y-78980237D01*
X113978477Y-78904534D01*
X114010500Y-78702352D01*
X114010500Y-78497648D01*
X113986396Y-78345465D01*
X113978477Y-78295465D01*
X113931457Y-78150753D01*
X113915220Y-78100781D01*
X113915218Y-78100778D01*
X113915218Y-78100776D01*
X113847761Y-77968386D01*
X113822287Y-77918390D01*
X113773163Y-77850776D01*
X113701971Y-77752786D01*
X113557213Y-77608028D01*
X113391613Y-77487715D01*
X113391612Y-77487714D01*
X113391610Y-77487713D01*
X113334653Y-77458691D01*
X113209223Y-77394781D01*
X113014534Y-77331522D01*
X112836855Y-77303381D01*
X112812352Y-77299500D01*
X112607648Y-77299500D01*
X112583329Y-77303351D01*
X112405465Y-77331522D01*
X112210776Y-77394781D01*
X112028386Y-77487715D01*
X111862786Y-77608028D01*
X111718028Y-77752786D01*
X111597715Y-77918386D01*
X111504781Y-78100776D01*
X111441522Y-78295465D01*
X111409500Y-78497648D01*
X111409500Y-78702351D01*
X111441522Y-78904534D01*
X111460418Y-78962689D01*
X111466120Y-78980237D01*
X111468702Y-78988181D01*
X111470697Y-79058022D01*
X111434617Y-79117855D01*
X111371917Y-79148684D01*
X111350771Y-79150500D01*
X106449229Y-79150500D01*
X106382190Y-79130815D01*
X106336435Y-79078011D01*
X106326491Y-79008853D01*
X106331298Y-78988181D01*
X106333880Y-78980237D01*
X106358477Y-78904534D01*
X106390500Y-78702352D01*
X106390500Y-78497648D01*
X106366396Y-78345465D01*
X106358477Y-78295465D01*
X106311457Y-78150753D01*
X106295220Y-78100781D01*
X106295218Y-78100778D01*
X106295218Y-78100776D01*
X106227761Y-77968386D01*
X106202287Y-77918390D01*
X106153163Y-77850776D01*
X106081971Y-77752786D01*
X105937213Y-77608028D01*
X105771613Y-77487715D01*
X105771612Y-77487714D01*
X105771610Y-77487713D01*
X105714653Y-77458691D01*
X105589223Y-77394781D01*
X105394534Y-77331522D01*
X105216855Y-77303381D01*
X105192352Y-77299500D01*
X104987648Y-77299500D01*
X104963329Y-77303351D01*
X104785465Y-77331522D01*
X104590776Y-77394781D01*
X104408386Y-77487715D01*
X104242786Y-77608028D01*
X104098032Y-77752782D01*
X104098028Y-77752787D01*
X103977154Y-77919157D01*
X103921824Y-77961823D01*
X103852211Y-77967802D01*
X103790416Y-77935196D01*
X103776517Y-77919157D01*
X103726839Y-77850781D01*
X103691966Y-77802781D01*
X103547219Y-77658034D01*
X103547213Y-77658028D01*
X103381613Y-77537715D01*
X103381612Y-77537714D01*
X103381610Y-77537713D01*
X103310346Y-77501402D01*
X103199223Y-77444781D01*
X103004534Y-77381522D01*
X102829995Y-77353878D01*
X102802352Y-77349500D01*
X102597648Y-77349500D01*
X102573329Y-77353351D01*
X102395465Y-77381522D01*
X102200776Y-77444781D01*
X102018386Y-77537715D01*
X101852786Y-77658028D01*
X101708028Y-77802786D01*
X101587715Y-77968386D01*
X101494781Y-78150776D01*
X101431522Y-78345465D01*
X101407419Y-78497648D01*
X101399500Y-78547648D01*
X101399500Y-78752352D01*
X101408194Y-78807243D01*
X101431523Y-78954535D01*
X101431524Y-78954542D01*
X101442455Y-78988183D01*
X101444450Y-79058024D01*
X101408369Y-79117856D01*
X101345668Y-79148684D01*
X101324524Y-79150500D01*
X96455476Y-79150500D01*
X96388437Y-79130815D01*
X96342682Y-79078011D01*
X96332738Y-79008853D01*
X96337545Y-78988183D01*
X96348475Y-78954542D01*
X96348475Y-78954538D01*
X96348477Y-78954534D01*
X96380500Y-78752352D01*
X96380500Y-78547648D01*
X96348477Y-78345466D01*
X96285220Y-78150781D01*
X96285218Y-78150778D01*
X96285218Y-78150776D01*
X96251503Y-78084607D01*
X96192287Y-77968390D01*
X96178963Y-77950051D01*
X96071971Y-77802786D01*
X95927213Y-77658028D01*
X95761613Y-77537715D01*
X95761612Y-77537714D01*
X95761610Y-77537713D01*
X95690346Y-77501402D01*
X95579223Y-77444781D01*
X95384534Y-77381522D01*
X95209995Y-77353878D01*
X95182352Y-77349500D01*
X94977648Y-77349500D01*
X94939599Y-77355526D01*
X94775468Y-77381522D01*
X94766717Y-77384365D01*
X94761154Y-77386173D01*
X94691313Y-77388167D01*
X94635157Y-77355922D01*
X93196590Y-75917355D01*
X93196588Y-75917352D01*
X93077717Y-75798481D01*
X93077709Y-75798475D01*
X92978652Y-75741285D01*
X92978648Y-75741283D01*
X92968570Y-75735465D01*
X92940785Y-75719423D01*
X92835396Y-75691183D01*
X92831028Y-75689656D01*
X92806248Y-75671889D01*
X92780210Y-75656018D01*
X92778124Y-75651724D01*
X92774246Y-75648944D01*
X92763005Y-75620600D01*
X92749681Y-75593171D01*
X92750247Y-75588431D01*
X92748488Y-75583995D01*
X92754356Y-75554069D01*
X92757976Y-75523795D01*
X92761237Y-75518975D01*
X92761933Y-75515431D01*
X92767713Y-75509408D01*
X92784280Y-75484929D01*
X92863302Y-75405908D01*
X92868821Y-75397648D01*
X93779500Y-75397648D01*
X93779500Y-75602351D01*
X93811522Y-75804534D01*
X93874781Y-75999223D01*
X93967715Y-76181613D01*
X94088028Y-76347213D01*
X94232786Y-76491971D01*
X94356242Y-76581665D01*
X94398390Y-76612287D01*
X94502355Y-76665260D01*
X94580776Y-76705218D01*
X94580778Y-76705218D01*
X94580781Y-76705220D01*
X94676706Y-76736388D01*
X94775465Y-76768477D01*
X94876557Y-76784488D01*
X94977648Y-76800500D01*
X94977649Y-76800500D01*
X95182351Y-76800500D01*
X95182352Y-76800500D01*
X95384534Y-76768477D01*
X95579219Y-76705220D01*
X95761610Y-76612287D01*
X95854590Y-76544732D01*
X95927213Y-76491971D01*
X95927215Y-76491968D01*
X95927219Y-76491966D01*
X96071966Y-76347219D01*
X96071968Y-76347215D01*
X96071971Y-76347213D01*
X96133674Y-76262284D01*
X96192287Y-76181610D01*
X96285220Y-75999219D01*
X96348477Y-75804534D01*
X96380500Y-75602352D01*
X96380500Y-75397648D01*
X101399500Y-75397648D01*
X101399500Y-75602351D01*
X101431522Y-75804534D01*
X101494781Y-75999223D01*
X101587715Y-76181613D01*
X101708028Y-76347213D01*
X101852786Y-76491971D01*
X101976242Y-76581665D01*
X102018390Y-76612287D01*
X102122355Y-76665260D01*
X102200776Y-76705218D01*
X102200778Y-76705218D01*
X102200781Y-76705220D01*
X102296706Y-76736388D01*
X102395465Y-76768477D01*
X102496557Y-76784488D01*
X102597648Y-76800500D01*
X102597649Y-76800500D01*
X102802351Y-76800500D01*
X102802352Y-76800500D01*
X103004534Y-76768477D01*
X103199219Y-76705220D01*
X103381610Y-76612287D01*
X103474590Y-76544732D01*
X103547213Y-76491971D01*
X103547215Y-76491968D01*
X103547219Y-76491966D01*
X103691966Y-76347219D01*
X103691968Y-76347215D01*
X103691971Y-76347213D01*
X103753674Y-76262284D01*
X103812287Y-76181610D01*
X103905220Y-75999219D01*
X103968477Y-75804534D01*
X104000500Y-75602352D01*
X104000500Y-75397648D01*
X103968477Y-75195466D01*
X103968476Y-75195462D01*
X103968476Y-75195461D01*
X103963808Y-75181094D01*
X103952941Y-75147648D01*
X104579500Y-75147648D01*
X104579500Y-75352351D01*
X104611522Y-75554534D01*
X104674781Y-75749223D01*
X104699880Y-75798481D01*
X104767450Y-75931094D01*
X104767715Y-75931613D01*
X104888028Y-76097213D01*
X105032786Y-76241971D01*
X105186319Y-76353517D01*
X105198390Y-76362287D01*
X105308669Y-76418477D01*
X105380776Y-76455218D01*
X105380778Y-76455218D01*
X105380781Y-76455220D01*
X105485137Y-76489127D01*
X105575465Y-76518477D01*
X105676557Y-76534488D01*
X105777648Y-76550500D01*
X105777649Y-76550500D01*
X105982351Y-76550500D01*
X105982352Y-76550500D01*
X106184534Y-76518477D01*
X106379219Y-76455220D01*
X106561610Y-76362287D01*
X106654590Y-76294732D01*
X106727213Y-76241971D01*
X106727215Y-76241968D01*
X106727219Y-76241966D01*
X106871966Y-76097219D01*
X106871968Y-76097215D01*
X106871971Y-76097213D01*
X106924732Y-76024590D01*
X106992287Y-75931610D01*
X107085220Y-75749219D01*
X107148477Y-75554534D01*
X107180500Y-75352352D01*
X107180500Y-75147648D01*
X112199500Y-75147648D01*
X112199500Y-75352351D01*
X112231522Y-75554534D01*
X112294781Y-75749223D01*
X112319880Y-75798481D01*
X112387450Y-75931094D01*
X112387715Y-75931613D01*
X112508028Y-76097213D01*
X112652786Y-76241971D01*
X112806319Y-76353517D01*
X112818390Y-76362287D01*
X112928669Y-76418477D01*
X113000776Y-76455218D01*
X113000778Y-76455218D01*
X113000781Y-76455220D01*
X113105137Y-76489127D01*
X113195465Y-76518477D01*
X113296557Y-76534488D01*
X113397648Y-76550500D01*
X113397649Y-76550500D01*
X113602351Y-76550500D01*
X113602352Y-76550500D01*
X113804534Y-76518477D01*
X113999219Y-76455220D01*
X114181610Y-76362287D01*
X114274590Y-76294732D01*
X114347213Y-76241971D01*
X114347215Y-76241968D01*
X114347219Y-76241966D01*
X114491966Y-76097219D01*
X114601008Y-75947134D01*
X114656337Y-75904468D01*
X114725950Y-75898489D01*
X114787745Y-75931094D01*
X114801644Y-75947134D01*
X114838028Y-75997212D01*
X114838032Y-75997217D01*
X114982786Y-76141971D01*
X115114159Y-76237417D01*
X115148390Y-76262287D01*
X115264607Y-76321503D01*
X115330776Y-76355218D01*
X115330778Y-76355218D01*
X115330781Y-76355220D01*
X115414383Y-76382384D01*
X115525465Y-76418477D01*
X115607632Y-76431491D01*
X115727648Y-76450500D01*
X115727649Y-76450500D01*
X115932351Y-76450500D01*
X115932352Y-76450500D01*
X116134534Y-76418477D01*
X116329219Y-76355220D01*
X116511610Y-76262287D01*
X116622653Y-76181610D01*
X116677213Y-76141971D01*
X116677215Y-76141968D01*
X116677219Y-76141966D01*
X116821966Y-75997219D01*
X116821968Y-75997215D01*
X116821971Y-75997213D01*
X116893697Y-75898489D01*
X116942287Y-75831610D01*
X117035220Y-75649219D01*
X117098477Y-75454534D01*
X117130500Y-75252352D01*
X117130500Y-75047648D01*
X122149500Y-75047648D01*
X122149500Y-75252351D01*
X122181522Y-75454534D01*
X122244781Y-75649223D01*
X122296385Y-75750499D01*
X122320832Y-75798480D01*
X122337715Y-75831613D01*
X122458028Y-75997213D01*
X122602786Y-76141971D01*
X122734159Y-76237417D01*
X122768390Y-76262287D01*
X122884607Y-76321503D01*
X122950776Y-76355218D01*
X122950778Y-76355218D01*
X122950781Y-76355220D01*
X123034383Y-76382384D01*
X123145465Y-76418477D01*
X123227632Y-76431491D01*
X123347648Y-76450500D01*
X123347649Y-76450500D01*
X123552351Y-76450500D01*
X123552352Y-76450500D01*
X123754534Y-76418477D01*
X123949219Y-76355220D01*
X124131610Y-76262287D01*
X124242653Y-76181610D01*
X124297213Y-76141971D01*
X124297215Y-76141968D01*
X124297219Y-76141966D01*
X124441966Y-75997219D01*
X124441968Y-75997215D01*
X124441971Y-75997213D01*
X124513697Y-75898489D01*
X124562287Y-75831610D01*
X124655220Y-75649219D01*
X124718477Y-75454534D01*
X124750500Y-75252352D01*
X124750500Y-75047648D01*
X124726104Y-74893620D01*
X124718477Y-74845465D01*
X124655871Y-74652786D01*
X124655220Y-74650781D01*
X124655218Y-74650778D01*
X124655218Y-74650776D01*
X124621503Y-74584607D01*
X124562287Y-74468390D01*
X124551008Y-74452865D01*
X124441971Y-74302786D01*
X124297213Y-74158028D01*
X124131613Y-74037715D01*
X124131612Y-74037714D01*
X124131610Y-74037713D01*
X124074653Y-74008691D01*
X123949223Y-73944781D01*
X123754534Y-73881522D01*
X123579995Y-73853878D01*
X123552352Y-73849500D01*
X123347648Y-73849500D01*
X123323329Y-73853351D01*
X123145465Y-73881522D01*
X122950776Y-73944781D01*
X122768386Y-74037715D01*
X122602786Y-74158028D01*
X122458028Y-74302786D01*
X122337715Y-74468386D01*
X122244781Y-74650776D01*
X122181522Y-74845465D01*
X122149500Y-75047648D01*
X117130500Y-75047648D01*
X117106104Y-74893620D01*
X117098477Y-74845465D01*
X117035871Y-74652786D01*
X117035220Y-74650781D01*
X117035218Y-74650778D01*
X117035218Y-74650776D01*
X117001503Y-74584607D01*
X116942287Y-74468390D01*
X116931008Y-74452865D01*
X116821971Y-74302786D01*
X116677213Y-74158028D01*
X116511613Y-74037715D01*
X116511612Y-74037714D01*
X116511610Y-74037713D01*
X116454653Y-74008691D01*
X116329223Y-73944781D01*
X116134534Y-73881522D01*
X115959995Y-73853878D01*
X115932352Y-73849500D01*
X115727648Y-73849500D01*
X115703329Y-73853351D01*
X115525465Y-73881522D01*
X115330776Y-73944781D01*
X115148386Y-74037715D01*
X114982786Y-74158028D01*
X114838032Y-74302782D01*
X114838028Y-74302787D01*
X114728991Y-74452865D01*
X114673661Y-74495531D01*
X114604048Y-74501510D01*
X114542253Y-74468905D01*
X114528355Y-74452865D01*
X114491971Y-74402787D01*
X114491967Y-74402782D01*
X114347213Y-74258028D01*
X114181613Y-74137715D01*
X114181612Y-74137714D01*
X114181610Y-74137713D01*
X114124653Y-74108691D01*
X113999223Y-74044781D01*
X113804534Y-73981522D01*
X113629995Y-73953878D01*
X113602352Y-73949500D01*
X113397648Y-73949500D01*
X113373329Y-73953351D01*
X113195465Y-73981522D01*
X113000776Y-74044781D01*
X112818386Y-74137715D01*
X112652786Y-74258028D01*
X112508028Y-74402786D01*
X112387715Y-74568386D01*
X112294781Y-74750776D01*
X112231522Y-74945465D01*
X112199500Y-75147648D01*
X107180500Y-75147648D01*
X107148477Y-74945466D01*
X107085220Y-74750781D01*
X107085218Y-74750778D01*
X107085218Y-74750776D01*
X107019523Y-74621844D01*
X106992287Y-74568390D01*
X106984556Y-74557749D01*
X106871971Y-74402786D01*
X106727213Y-74258028D01*
X106561613Y-74137715D01*
X106561612Y-74137714D01*
X106561610Y-74137713D01*
X106504653Y-74108691D01*
X106379223Y-74044781D01*
X106184534Y-73981522D01*
X106009995Y-73953878D01*
X105982352Y-73949500D01*
X105777648Y-73949500D01*
X105753329Y-73953351D01*
X105575465Y-73981522D01*
X105380776Y-74044781D01*
X105198386Y-74137715D01*
X105032786Y-74258028D01*
X104888028Y-74402786D01*
X104767715Y-74568386D01*
X104674781Y-74750776D01*
X104611522Y-74945465D01*
X104579500Y-75147648D01*
X103952941Y-75147648D01*
X103905218Y-75000776D01*
X103871503Y-74934607D01*
X103812287Y-74818390D01*
X103763163Y-74750776D01*
X103691971Y-74652786D01*
X103547213Y-74508028D01*
X103381613Y-74387715D01*
X103381612Y-74387714D01*
X103381610Y-74387713D01*
X103305736Y-74349053D01*
X103199223Y-74294781D01*
X103004534Y-74231522D01*
X102829995Y-74203878D01*
X102802352Y-74199500D01*
X102597648Y-74199500D01*
X102573329Y-74203351D01*
X102395465Y-74231522D01*
X102200776Y-74294781D01*
X102018386Y-74387715D01*
X101852786Y-74508028D01*
X101708028Y-74652786D01*
X101587715Y-74818386D01*
X101494781Y-75000776D01*
X101431522Y-75195465D01*
X101399500Y-75397648D01*
X96380500Y-75397648D01*
X96348477Y-75195466D01*
X96348476Y-75195464D01*
X96285218Y-75000776D01*
X96251503Y-74934607D01*
X96192287Y-74818390D01*
X96143163Y-74750776D01*
X96071971Y-74652786D01*
X95927213Y-74508028D01*
X95761613Y-74387715D01*
X95761612Y-74387714D01*
X95761610Y-74387713D01*
X95685736Y-74349053D01*
X95579223Y-74294781D01*
X95384534Y-74231522D01*
X95209995Y-74203878D01*
X95182352Y-74199500D01*
X94977648Y-74199500D01*
X94953329Y-74203351D01*
X94775465Y-74231522D01*
X94580776Y-74294781D01*
X94398386Y-74387715D01*
X94232786Y-74508028D01*
X94088028Y-74652786D01*
X93967715Y-74818386D01*
X93874781Y-75000776D01*
X93811522Y-75195465D01*
X93779500Y-75397648D01*
X92868821Y-75397648D01*
X92877018Y-75385380D01*
X92918109Y-75323885D01*
X92918110Y-75323883D01*
X92967315Y-75250242D01*
X92967318Y-75250237D01*
X92967322Y-75250231D01*
X93038973Y-75077251D01*
X93075500Y-74893616D01*
X93075500Y-73906384D01*
X93038973Y-73722749D01*
X92967322Y-73549769D01*
X92967321Y-73549768D01*
X92967318Y-73549762D01*
X92933829Y-73499642D01*
X92912951Y-73432964D01*
X92931436Y-73365584D01*
X92983415Y-73318894D01*
X93036574Y-73306752D01*
X147296886Y-73151723D01*
X147363977Y-73171214D01*
G37*
%TD.AperFunction*%
%TD*%
M02*
