%TF.GenerationSoftware,KiCad,Pcbnew,9.0.0*%
%TF.CreationDate,2025-03-25T00:46:58+00:00*%
%TF.ProjectId,Wheelchair Powermeter PCB,57686565-6c63-4686-9169-7220506f7765,rev?*%
%TF.SameCoordinates,Original*%
%TF.FileFunction,Copper,L2,Bot*%
%TF.FilePolarity,Positive*%
%FSLAX46Y46*%
G04 Gerber Fmt 4.6, Leading zero omitted, Abs format (unit mm)*
G04 Created by KiCad (PCBNEW 9.0.0) date 2025-03-25 00:46:58*
%MOMM*%
%LPD*%
G01*
G04 APERTURE LIST*
%TA.AperFunction,ComponentPad*%
%ADD10C,4.000000*%
%TD*%
%TA.AperFunction,ComponentPad*%
%ADD11C,2.900000*%
%TD*%
%TA.AperFunction,ConnectorPad*%
%ADD12C,5.000000*%
%TD*%
%TA.AperFunction,ComponentPad*%
%ADD13O,2.000000X1.200000*%
%TD*%
%TA.AperFunction,ComponentPad*%
%ADD14O,1.800000X2.000000*%
%TD*%
%TA.AperFunction,ComponentPad*%
%ADD15R,1.238000X1.238000*%
%TD*%
%TA.AperFunction,ComponentPad*%
%ADD16C,1.238000*%
%TD*%
%TA.AperFunction,ComponentPad*%
%ADD17C,0.650000*%
%TD*%
%TA.AperFunction,ComponentPad*%
%ADD18O,0.900000X1.700000*%
%TD*%
%TA.AperFunction,ComponentPad*%
%ADD19O,0.900000X2.400000*%
%TD*%
%TA.AperFunction,ComponentPad*%
%ADD20C,1.778000*%
%TD*%
%TA.AperFunction,ComponentPad*%
%ADD21C,3.200000*%
%TD*%
%TA.AperFunction,ComponentPad*%
%ADD22C,1.600000*%
%TD*%
%TA.AperFunction,ComponentPad*%
%ADD23O,1.600000X1.600000*%
%TD*%
%TA.AperFunction,ViaPad*%
%ADD24C,0.600000*%
%TD*%
%TA.AperFunction,Conductor*%
%ADD25C,0.200000*%
%TD*%
%TA.AperFunction,Conductor*%
%ADD26C,0.400000*%
%TD*%
G04 APERTURE END LIST*
D10*
%TO.P,TP_GND3,1,1*%
%TO.N,GND*%
X138800000Y-79600000D03*
%TD*%
D11*
%TO.P,REF\u002A\u002A,1*%
%TO.N,N/C*%
X78400000Y-119400000D03*
D12*
X78400000Y-119400000D03*
%TD*%
D13*
%TO.P,U4,1,VIN*%
%TO.N,3.3V*%
X147195000Y-119380000D03*
%TO.P,U4,2,GND*%
%TO.N,GND*%
X147195000Y-116840000D03*
%TO.P,U4,3,3VO*%
%TO.N,unconnected-(U4-3VO-Pad3)*%
X147195000Y-114300000D03*
%TO.P,U4,4,INT2*%
%TO.N,unconnected-(U4-INT2-Pad4)*%
X147195000Y-111760000D03*
%TO.P,U4,5,INT*%
%TO.N,unconnected-(U4-INT-Pad5)*%
X147195000Y-109220000D03*
%TO.P,U4,6,SCL*%
%TO.N,SCL_MCU*%
X147195000Y-106680000D03*
%TO.P,U4,7,SDA*%
%TO.N,SDA_MCU*%
X147195000Y-104140000D03*
%TD*%
D10*
%TO.P,TP_VBUS1,1,1*%
%TO.N,/POWER*%
X86800000Y-91200000D03*
%TD*%
D11*
%TO.P,REF\u002A\u002A,1*%
%TO.N,N/C*%
X146200000Y-76600000D03*
D12*
X146200000Y-76600000D03*
%TD*%
D11*
%TO.P,REF\u002A\u002A,1*%
%TO.N,N/C*%
X127600000Y-120200000D03*
D12*
X127600000Y-120200000D03*
%TD*%
D11*
%TO.P,REF\u002A\u002A,1*%
%TO.N,N/C*%
X78800000Y-76800000D03*
D12*
X78800000Y-76800000D03*
%TD*%
D10*
%TO.P,TP_3.3V1,1,1*%
%TO.N,3.3V*%
X131800000Y-79400000D03*
%TD*%
D14*
%TO.P,U1,1,RST*%
%TO.N,unconnected-(U1-RST-Pad1)*%
X76740000Y-102800000D03*
%TO.P,U1,2,3.3V*%
%TO.N,3.3V*%
X79280000Y-102800000D03*
%TO.P,U1,3,3.3V*%
X81820000Y-102800000D03*
%TO.P,U1,4,GND*%
%TO.N,GND*%
X84360000Y-102800000D03*
%TO.P,U1,5,A0*%
%TO.N,unconnected-(U1-A0-Pad5)*%
X86900000Y-102800000D03*
%TO.P,U1,6,A1*%
%TO.N,unconnected-(U1-A1-Pad6)*%
X89440000Y-102800000D03*
%TO.P,U1,7,A2*%
%TO.N,unconnected-(U1-A2-Pad7)*%
X91980000Y-102800000D03*
%TO.P,U1,8,A3*%
%TO.N,unconnected-(U1-A3-Pad8)*%
X94520000Y-102800000D03*
%TO.P,U1,9,A4*%
%TO.N,unconnected-(U1-A4-Pad9)*%
X97060000Y-102800000D03*
%TO.P,U1,10,A5*%
%TO.N,unconnected-(U1-A5-Pad10)*%
X99600000Y-102800000D03*
%TO.P,U1,11,SCK*%
%TO.N,Net-(U1-SCK)*%
X102140000Y-102800000D03*
%TO.P,U1,12,MOSI*%
%TO.N,Net-(U1-MOSI)*%
X104680000Y-102800000D03*
%TO.P,U1,13,MISO*%
%TO.N,unconnected-(U1-MISO-Pad13)*%
X107220000Y-102800000D03*
%TO.P,U1,14,RX*%
%TO.N,unconnected-(U1-RX-Pad14)*%
X109760000Y-102800000D03*
%TO.P,U1,15,TX*%
%TO.N,unconnected-(U1-TX-Pad15)*%
X112300000Y-102800000D03*
%TO.P,U1,16,TXD0*%
%TO.N,unconnected-(U1-TXD0-Pad16)*%
X114840000Y-102800000D03*
%TO.P,U1,17,VBAT*%
%TO.N,/POWER*%
X86900000Y-82800000D03*
%TO.P,U1,18,EN*%
%TO.N,unconnected-(U1-EN-Pad18)*%
X89440000Y-82800000D03*
%TO.P,U1,19,VBUS*%
%TO.N,unconnected-(U1-VBUS-Pad19)*%
X91980000Y-82800000D03*
%TO.P,U1,20,D13*%
%TO.N,Net-(U1-D13)*%
X94520000Y-82800000D03*
%TO.P,U1,21,D12*%
%TO.N,Net-(U1-D12)*%
X97060000Y-82800000D03*
%TO.P,U1,22,D11*%
%TO.N,Net-(U1-D11)*%
X99600000Y-82800000D03*
%TO.P,U1,23,D10*%
%TO.N,Net-(U1-D10)*%
X102140000Y-82800000D03*
%TO.P,U1,24,D9*%
%TO.N,unconnected-(U1-D9-Pad24)*%
X104680000Y-82800000D03*
%TO.P,U1,25,D6*%
%TO.N,Net-(S1-NO_1)*%
X107220000Y-82800000D03*
%TO.P,U1,26,D5*%
%TO.N,Net-(S2-NO_1)*%
X109760000Y-82800000D03*
%TO.P,U1,27,SCL*%
%TO.N,SCL_MCU*%
X112300000Y-82800000D03*
%TO.P,U1,28,SDA*%
%TO.N,SDA_MCU*%
X114840000Y-82800000D03*
%TD*%
D15*
%TO.P,U2,1,GND*%
%TO.N,GND*%
X91762500Y-114700000D03*
D16*
%TO.P,U2,2,Supply*%
%TO.N,3.3V*%
X91762500Y-112200000D03*
%TO.P,U2,3,SDA*%
%TO.N,SDA_MCU*%
X91762500Y-109700000D03*
%TO.P,U2,4,SCL*%
%TO.N,SCL_MCU*%
X91762500Y-107200000D03*
%TO.P,U2,5*%
%TO.N,unconnected-(U2-Pad5)*%
X79062500Y-107200000D03*
%TO.P,U2,6*%
%TO.N,unconnected-(U2-Pad6)*%
X79062500Y-109700000D03*
%TO.P,U2,7*%
%TO.N,unconnected-(U2-Pad7)*%
X79062500Y-112200000D03*
%TO.P,U2,8,INT*%
%TO.N,unconnected-(U2-INT-Pad8)*%
X79062500Y-114700000D03*
%TD*%
D17*
%TO.P,J1,A1,GND*%
%TO.N,GND*%
X90775000Y-78760000D03*
%TO.P,J1,A4,VBUS*%
%TO.N,/POWER*%
X89925000Y-78760000D03*
%TO.P,J1,A5,CC1*%
%TO.N,Net-(J1-CC1)*%
X89075000Y-78760000D03*
%TO.P,J1,A6,DP1*%
%TO.N,unconnected-(J1-DP1-PadA6)*%
X88225000Y-78760000D03*
%TO.P,J1,A7,DN1*%
%TO.N,unconnected-(J1-DN1-PadA7)*%
X87375000Y-78760000D03*
%TO.P,J1,A8,SBU1*%
%TO.N,unconnected-(J1-SBU1-PadA8)*%
X86525000Y-78760000D03*
%TO.P,J1,A9,VBUS*%
%TO.N,/POWER*%
X85675000Y-78760000D03*
%TO.P,J1,A12,GND*%
%TO.N,GND*%
X84825000Y-78760000D03*
%TO.P,J1,B1,GND*%
X84825000Y-77410000D03*
%TO.P,J1,B4,VBUS*%
%TO.N,/POWER*%
X85675000Y-77410000D03*
%TO.P,J1,B5,CC2*%
%TO.N,Net-(J1-CC2)*%
X86525000Y-77410000D03*
%TO.P,J1,B6,DP2*%
%TO.N,unconnected-(J1-DP2-PadB6)*%
X87375000Y-77410000D03*
%TO.P,J1,B7,DN2*%
%TO.N,unconnected-(J1-DN2-PadB7)*%
X88225000Y-77410000D03*
%TO.P,J1,B8,SBU2*%
%TO.N,unconnected-(J1-SBU2-PadB8)*%
X89075000Y-77410000D03*
%TO.P,J1,B9,VBUS*%
%TO.N,/POWER*%
X89925000Y-77410000D03*
%TO.P,J1,B12,GND*%
%TO.N,GND*%
X90775000Y-77410000D03*
D18*
%TO.P,J1,S1,SHELL*%
X92125000Y-74400000D03*
%TO.P,J1,S2,SHELL*%
X83475000Y-74400000D03*
D19*
%TO.P,J1,S3,SHELL*%
X92125000Y-77780000D03*
%TO.P,J1,S4,SHELL*%
X83475000Y-77780000D03*
%TD*%
D20*
%TO.P,U3,JP1_1,VIN*%
%TO.N,3.3V*%
X129800000Y-99000000D03*
%TO.P,U3,JP1_2,1.8V*%
%TO.N,unconnected-(U3A-1.8V-PadJP1_2)*%
X132340000Y-99000000D03*
%TO.P,U3,JP1_3,GND_JP1*%
%TO.N,GND*%
X134880000Y-99000000D03*
%TO.P,U3,JP1_4,SCK/SCL*%
%TO.N,SCL_MCU*%
X137420000Y-99000000D03*
%TO.P,U3,JP1_5,SDI/SDA*%
%TO.N,SDA_MCU*%
X139960000Y-99000000D03*
%TO.P,U3,JP1_6,INT*%
%TO.N,unconnected-(U3A-INT-PadJP1_6)*%
X142500000Y-99000000D03*
%TO.P,U3,JP3_1*%
%TO.N,N/C*%
X142500000Y-86300000D03*
%TO.P,U3,JP3_2*%
X139960000Y-86300000D03*
%TO.P,U3,JP3_3*%
X137420000Y-86300000D03*
%TO.P,U3,JP3_4*%
X134880000Y-86300000D03*
%TO.P,U3,JP3_5*%
X132340000Y-86300000D03*
%TO.P,U3,JP3_6*%
X129800000Y-86300000D03*
D21*
%TO.P,U3,SH1*%
X125990000Y-86300000D03*
%TO.P,U3,SH2*%
X125990000Y-99000000D03*
%TO.P,U3,SH3*%
X146310000Y-99000000D03*
%TO.P,U3,SH4*%
X146310000Y-86300000D03*
%TD*%
D22*
%TO.P,R3,1*%
%TO.N,Net-(J1-CC1)*%
X123500000Y-78350000D03*
D23*
%TO.P,R3,2*%
%TO.N,Net-(R2-Pad2)*%
X115880000Y-78350000D03*
%TD*%
D22*
%TO.P,R5,1*%
%TO.N,Net-(R1-Pad2)*%
X105090000Y-78600000D03*
D23*
%TO.P,R5,2*%
%TO.N,GND*%
X112710000Y-78600000D03*
%TD*%
D22*
%TO.P,R4,1*%
%TO.N,Net-(J1-CC2)*%
X95080000Y-78650000D03*
D23*
%TO.P,R4,2*%
%TO.N,Net-(R1-Pad2)*%
X102700000Y-78650000D03*
%TD*%
D22*
%TO.P,R6,1*%
%TO.N,Net-(R2-Pad2)*%
X113500000Y-75250000D03*
D23*
%TO.P,R6,2*%
%TO.N,GND*%
X105880000Y-75250000D03*
%TD*%
D22*
%TO.P,R1,1*%
%TO.N,Net-(J1-CC2)*%
X95080000Y-75500000D03*
D23*
%TO.P,R1,2*%
%TO.N,Net-(R1-Pad2)*%
X102700000Y-75500000D03*
%TD*%
D22*
%TO.P,R2,1*%
%TO.N,Net-(J1-CC1)*%
X123450000Y-75150000D03*
D23*
%TO.P,R2,2*%
%TO.N,Net-(R2-Pad2)*%
X115830000Y-75150000D03*
%TD*%
D24*
%TO.N,Net-(S2-NO_1)*%
X113650000Y-108300000D03*
%TO.N,Net-(U1-D12)*%
X121100000Y-100150000D03*
X117800000Y-116000000D03*
%TO.N,Net-(U1-D13)*%
X119300000Y-115950000D03*
X122600000Y-102750000D03*
%TO.N,Net-(U1-MOSI)*%
X98500000Y-106750000D03*
%TO.N,Net-(U1-D11)*%
X119600000Y-98200000D03*
X116300000Y-115950000D03*
%TO.N,Net-(U1-D10)*%
X118050000Y-96700000D03*
X114800000Y-115850000D03*
%TO.N,GND*%
X113850000Y-112800000D03*
%TD*%
D25*
%TO.N,Net-(J1-CC1)*%
X123450000Y-78300000D02*
X123500000Y-78350000D01*
X123450000Y-75150000D02*
X123450000Y-78300000D01*
%TO.N,Net-(J1-CC2)*%
X95080000Y-78650000D02*
X95080000Y-75500000D01*
%TO.N,Net-(R1-Pad2)*%
X102700000Y-78650000D02*
X102700000Y-75500000D01*
X102700000Y-78650000D02*
X102790000Y-78650000D01*
X102840000Y-78600000D02*
X105090000Y-78600000D01*
X102790000Y-78650000D02*
X102840000Y-78600000D01*
%TO.N,Net-(R2-Pad2)*%
X115830000Y-75150000D02*
X113600000Y-75150000D01*
X113600000Y-75150000D02*
X113500000Y-75250000D01*
X115880000Y-78350000D02*
X115880000Y-75200000D01*
X115880000Y-75200000D02*
X115830000Y-75150000D01*
%TO.N,Net-(S2-NO_1)*%
X113650000Y-108300000D02*
X113650000Y-106250000D01*
X117000000Y-102900000D02*
X117000000Y-94500000D01*
X117000000Y-94500000D02*
X109760000Y-87260000D01*
X109760000Y-87260000D02*
X109760000Y-82800000D01*
X113650000Y-106250000D02*
X117000000Y-102900000D01*
%TO.N,SCL_MCU*%
X147195000Y-106680000D02*
X138370000Y-106680000D01*
X128251000Y-116799000D02*
X98350000Y-116799000D01*
X98350000Y-113535086D02*
X92014914Y-107200000D01*
X98350000Y-116799000D02*
X98350000Y-114732200D01*
X92014914Y-107200000D02*
X91762500Y-107200000D01*
X138370000Y-106680000D02*
X128251000Y-116799000D01*
X98350000Y-114400000D02*
X98350000Y-113535086D01*
X98350000Y-114732200D02*
X98350000Y-114400000D01*
%TO.N,Net-(U1-D12)*%
X121100000Y-112700000D02*
X117800000Y-116000000D01*
X121100000Y-100150000D02*
X121100000Y-112700000D01*
%TO.N,Net-(U1-D13)*%
X122600000Y-102750000D02*
X122600000Y-112650000D01*
X122600000Y-112650000D02*
X119300000Y-115950000D01*
%TO.N,SDA_MCU*%
X91762500Y-109700000D02*
X93082900Y-109700000D01*
X148900000Y-105845000D02*
X147195000Y-104140000D01*
X148900000Y-107660000D02*
X148900000Y-105845000D01*
X97949000Y-114566100D02*
X97949000Y-117200000D01*
X138040000Y-107660000D02*
X148900000Y-107660000D01*
X93082900Y-109700000D02*
X97949000Y-114566100D01*
X97949000Y-117200000D02*
X128500000Y-117200000D01*
X128500000Y-117200000D02*
X138040000Y-107660000D01*
%TO.N,Net-(U1-MOSI)*%
X100730000Y-106750000D02*
X104680000Y-102800000D01*
X98500000Y-106750000D02*
X100730000Y-106750000D01*
%TO.N,Net-(U1-D11)*%
X119600000Y-98200000D02*
X119600000Y-112650000D01*
X119600000Y-112650000D02*
X116300000Y-115950000D01*
%TO.N,Net-(U1-D10)*%
X118050000Y-96700000D02*
X118100000Y-96750000D01*
X118100000Y-112550000D02*
X114800000Y-115850000D01*
X118100000Y-96750000D02*
X118100000Y-112550000D01*
D26*
%TO.N,/POWER*%
X85675000Y-78760000D02*
X85675000Y-81575000D01*
X89925000Y-79775000D02*
X86900000Y-82800000D01*
X85675000Y-81575000D02*
X86900000Y-82800000D01*
D25*
X89925000Y-78760000D02*
X90065000Y-78900000D01*
D26*
X85675000Y-77410000D02*
X85675000Y-78760000D01*
X86900000Y-91100000D02*
X86800000Y-91200000D01*
X89925000Y-77410000D02*
X89925000Y-78760000D01*
X89925000Y-78760000D02*
X89925000Y-79775000D01*
X86900000Y-82800000D02*
X86900000Y-91100000D01*
%TD*%
%TA.AperFunction,Conductor*%
%TO.N,GND*%
G36*
X147396068Y-73219685D02*
G01*
X147432590Y-73255801D01*
X147771834Y-73770950D01*
X147792265Y-73837766D01*
X147773330Y-73905021D01*
X147721039Y-73951362D01*
X147651996Y-73962076D01*
X147614471Y-73950869D01*
X147350054Y-73823532D01*
X147031965Y-73712227D01*
X147031953Y-73712223D01*
X146703397Y-73637233D01*
X146703381Y-73637231D01*
X146368508Y-73599500D01*
X146368504Y-73599500D01*
X146031496Y-73599500D01*
X146031491Y-73599500D01*
X145696618Y-73637231D01*
X145696602Y-73637233D01*
X145368046Y-73712223D01*
X145368034Y-73712227D01*
X145049945Y-73823532D01*
X144746316Y-73969752D01*
X144460962Y-74149053D01*
X144197477Y-74359174D01*
X143959174Y-74597477D01*
X143749053Y-74860962D01*
X143569752Y-75146316D01*
X143423532Y-75449945D01*
X143312227Y-75768034D01*
X143312223Y-75768046D01*
X143237233Y-76096602D01*
X143237231Y-76096618D01*
X143199500Y-76431491D01*
X143199500Y-76768508D01*
X143237231Y-77103381D01*
X143237233Y-77103397D01*
X143312223Y-77431953D01*
X143312227Y-77431965D01*
X143423532Y-77750054D01*
X143569752Y-78053683D01*
X143569754Y-78053686D01*
X143749054Y-78339039D01*
X143959175Y-78602523D01*
X144197477Y-78840825D01*
X144460961Y-79050946D01*
X144746314Y-79230246D01*
X145049949Y-79376469D01*
X145203635Y-79430246D01*
X145368034Y-79487772D01*
X145368046Y-79487776D01*
X145696606Y-79562767D01*
X146031492Y-79600499D01*
X146031493Y-79600500D01*
X146031496Y-79600500D01*
X146368507Y-79600500D01*
X146368507Y-79600499D01*
X146703394Y-79562767D01*
X147031954Y-79487776D01*
X147350051Y-79376469D01*
X147653686Y-79230246D01*
X147939039Y-79050946D01*
X148202523Y-78840825D01*
X148440825Y-78602523D01*
X148650946Y-78339039D01*
X148830246Y-78053686D01*
X148976469Y-77750051D01*
X149087776Y-77431954D01*
X149162767Y-77103394D01*
X149200500Y-76768504D01*
X149200500Y-76431496D01*
X149191714Y-76353517D01*
X149203768Y-76284695D01*
X149251117Y-76233316D01*
X149318727Y-76215691D01*
X149385133Y-76237417D01*
X149418494Y-76271433D01*
X149439687Y-76303614D01*
X149778847Y-76818635D01*
X149799278Y-76885451D01*
X149799286Y-76886976D01*
X149750065Y-120003250D01*
X149730304Y-120070267D01*
X149714434Y-120090096D01*
X147480180Y-122359816D01*
X147475601Y-122364235D01*
X147090869Y-122716907D01*
X147028149Y-122747697D01*
X147007079Y-122749500D01*
X129569828Y-122749500D01*
X129502789Y-122729815D01*
X129457034Y-122677011D01*
X129447090Y-122607853D01*
X129476115Y-122544297D01*
X129492516Y-122528553D01*
X129602516Y-122440831D01*
X129602518Y-122440828D01*
X129602523Y-122440825D01*
X129840825Y-122202523D01*
X130050946Y-121939039D01*
X130230246Y-121653686D01*
X130376469Y-121350051D01*
X130487776Y-121031954D01*
X130562767Y-120703394D01*
X130600500Y-120368504D01*
X130600500Y-120031496D01*
X130562767Y-119696606D01*
X130487776Y-119368046D01*
X130487772Y-119368034D01*
X130474279Y-119329472D01*
X130461653Y-119293389D01*
X145694500Y-119293389D01*
X145694500Y-119466610D01*
X145710638Y-119568506D01*
X145721598Y-119637701D01*
X145775127Y-119802445D01*
X145853768Y-119956788D01*
X145955586Y-120096928D01*
X146078072Y-120219414D01*
X146218212Y-120321232D01*
X146372555Y-120399873D01*
X146537299Y-120453402D01*
X146708389Y-120480500D01*
X146708390Y-120480500D01*
X147681610Y-120480500D01*
X147681611Y-120480500D01*
X147852701Y-120453402D01*
X148017445Y-120399873D01*
X148171788Y-120321232D01*
X148311928Y-120219414D01*
X148434414Y-120096928D01*
X148536232Y-119956788D01*
X148614873Y-119802445D01*
X148668402Y-119637701D01*
X148695500Y-119466611D01*
X148695500Y-119293389D01*
X148668402Y-119122299D01*
X148614873Y-118957555D01*
X148536232Y-118803212D01*
X148434414Y-118663072D01*
X148311928Y-118540586D01*
X148171788Y-118438768D01*
X148017445Y-118360127D01*
X147852701Y-118306598D01*
X147852699Y-118306597D01*
X147852698Y-118306597D01*
X147721271Y-118285781D01*
X147681611Y-118279500D01*
X146708389Y-118279500D01*
X146668728Y-118285781D01*
X146537302Y-118306597D01*
X146372552Y-118360128D01*
X146218211Y-118438768D01*
X146138256Y-118496859D01*
X146078072Y-118540586D01*
X146078070Y-118540588D01*
X146078069Y-118540588D01*
X145955588Y-118663069D01*
X145955588Y-118663070D01*
X145955586Y-118663072D01*
X145911859Y-118723256D01*
X145853768Y-118803211D01*
X145775128Y-118957552D01*
X145721597Y-119122302D01*
X145694500Y-119293389D01*
X130461653Y-119293389D01*
X130401785Y-119122299D01*
X130376469Y-119049949D01*
X130230246Y-118746314D01*
X130050946Y-118460961D01*
X129840825Y-118197477D01*
X129602523Y-117959175D01*
X129339039Y-117749054D01*
X129229975Y-117680524D01*
X129139772Y-117623845D01*
X129093481Y-117571510D01*
X129082833Y-117502456D01*
X129111208Y-117438608D01*
X129118051Y-117431182D01*
X132335845Y-114213389D01*
X145694500Y-114213389D01*
X145694500Y-114386611D01*
X145721598Y-114557701D01*
X145775127Y-114722445D01*
X145853768Y-114876788D01*
X145955586Y-115016928D01*
X146078072Y-115139414D01*
X146218212Y-115241232D01*
X146372555Y-115319873D01*
X146537299Y-115373402D01*
X146708389Y-115400500D01*
X146708390Y-115400500D01*
X147681610Y-115400500D01*
X147681611Y-115400500D01*
X147852701Y-115373402D01*
X148017445Y-115319873D01*
X148171788Y-115241232D01*
X148311928Y-115139414D01*
X148434414Y-115016928D01*
X148536232Y-114876788D01*
X148614873Y-114722445D01*
X148668402Y-114557701D01*
X148695500Y-114386611D01*
X148695500Y-114213389D01*
X148668402Y-114042299D01*
X148614873Y-113877555D01*
X148536232Y-113723212D01*
X148434414Y-113583072D01*
X148311928Y-113460586D01*
X148171788Y-113358768D01*
X148017445Y-113280127D01*
X147852701Y-113226598D01*
X147852699Y-113226597D01*
X147852698Y-113226597D01*
X147721271Y-113205781D01*
X147681611Y-113199500D01*
X146708389Y-113199500D01*
X146668728Y-113205781D01*
X146537302Y-113226597D01*
X146372552Y-113280128D01*
X146218211Y-113358768D01*
X146138256Y-113416859D01*
X146078072Y-113460586D01*
X146078070Y-113460588D01*
X146078069Y-113460588D01*
X145955588Y-113583069D01*
X145955588Y-113583070D01*
X145955586Y-113583072D01*
X145925744Y-113624146D01*
X145853768Y-113723211D01*
X145775128Y-113877552D01*
X145721597Y-114042302D01*
X145710360Y-114113253D01*
X145694500Y-114213389D01*
X132335845Y-114213389D01*
X134875845Y-111673389D01*
X145694500Y-111673389D01*
X145694500Y-111846610D01*
X145708950Y-111937848D01*
X145721598Y-112017701D01*
X145775127Y-112182445D01*
X145853768Y-112336788D01*
X145955586Y-112476928D01*
X146078072Y-112599414D01*
X146218212Y-112701232D01*
X146372555Y-112779873D01*
X146537299Y-112833402D01*
X146708389Y-112860500D01*
X146708390Y-112860500D01*
X147681610Y-112860500D01*
X147681611Y-112860500D01*
X147852701Y-112833402D01*
X148017445Y-112779873D01*
X148171788Y-112701232D01*
X148311928Y-112599414D01*
X148434414Y-112476928D01*
X148536232Y-112336788D01*
X148614873Y-112182445D01*
X148668402Y-112017701D01*
X148695500Y-111846611D01*
X148695500Y-111673389D01*
X148668402Y-111502299D01*
X148614873Y-111337555D01*
X148536232Y-111183212D01*
X148434414Y-111043072D01*
X148311928Y-110920586D01*
X148171788Y-110818768D01*
X148017445Y-110740127D01*
X147852701Y-110686598D01*
X147852699Y-110686597D01*
X147852698Y-110686597D01*
X147721271Y-110665781D01*
X147681611Y-110659500D01*
X146708389Y-110659500D01*
X146668728Y-110665781D01*
X146537302Y-110686597D01*
X146372552Y-110740128D01*
X146218211Y-110818768D01*
X146217204Y-110819500D01*
X146078072Y-110920586D01*
X146078070Y-110920588D01*
X146078069Y-110920588D01*
X145955588Y-111043069D01*
X145955588Y-111043070D01*
X145955586Y-111043072D01*
X145928393Y-111080500D01*
X145853768Y-111183211D01*
X145775128Y-111337552D01*
X145775127Y-111337554D01*
X145775127Y-111337555D01*
X145748362Y-111419927D01*
X145721597Y-111502302D01*
X145694500Y-111673389D01*
X134875845Y-111673389D01*
X138252416Y-108296819D01*
X138313739Y-108263334D01*
X138340097Y-108260500D01*
X145898796Y-108260500D01*
X145965835Y-108280185D01*
X146011590Y-108332989D01*
X146021534Y-108402147D01*
X145992509Y-108465703D01*
X145986477Y-108472181D01*
X145955588Y-108503069D01*
X145955588Y-108503070D01*
X145955586Y-108503072D01*
X145933487Y-108533489D01*
X145853768Y-108643211D01*
X145775128Y-108797552D01*
X145721597Y-108962302D01*
X145714139Y-109009394D01*
X145694500Y-109133389D01*
X145694500Y-109306611D01*
X145721598Y-109477701D01*
X145775127Y-109642445D01*
X145853768Y-109796788D01*
X145955586Y-109936928D01*
X146078072Y-110059414D01*
X146218212Y-110161232D01*
X146372555Y-110239873D01*
X146537299Y-110293402D01*
X146708389Y-110320500D01*
X146708390Y-110320500D01*
X147681610Y-110320500D01*
X147681611Y-110320500D01*
X147852701Y-110293402D01*
X148017445Y-110239873D01*
X148171788Y-110161232D01*
X148311928Y-110059414D01*
X148434414Y-109936928D01*
X148536232Y-109796788D01*
X148614873Y-109642445D01*
X148668402Y-109477701D01*
X148695500Y-109306611D01*
X148695500Y-109133389D01*
X148668402Y-108962299D01*
X148614873Y-108797555D01*
X148536232Y-108643212D01*
X148434414Y-108503072D01*
X148403523Y-108472181D01*
X148370038Y-108410858D01*
X148375022Y-108341166D01*
X148416894Y-108285233D01*
X148482358Y-108260816D01*
X148491204Y-108260500D01*
X148979055Y-108260500D01*
X148979057Y-108260500D01*
X149131784Y-108219577D01*
X149268716Y-108140520D01*
X149380520Y-108028716D01*
X149459577Y-107891784D01*
X149500500Y-107739057D01*
X149500500Y-105765943D01*
X149459577Y-105613215D01*
X149430639Y-105563095D01*
X149380520Y-105476284D01*
X149268716Y-105364480D01*
X149268715Y-105364479D01*
X149264385Y-105360149D01*
X149264374Y-105360139D01*
X148628556Y-104724321D01*
X148595071Y-104662998D01*
X148600055Y-104593306D01*
X148605749Y-104580350D01*
X148614873Y-104562445D01*
X148668402Y-104397701D01*
X148695500Y-104226611D01*
X148695500Y-104053389D01*
X148668402Y-103882299D01*
X148614873Y-103717555D01*
X148536232Y-103563212D01*
X148434414Y-103423072D01*
X148311928Y-103300586D01*
X148171788Y-103198768D01*
X148038198Y-103130701D01*
X148017447Y-103120128D01*
X148017446Y-103120127D01*
X148017445Y-103120127D01*
X147852701Y-103066598D01*
X147852699Y-103066597D01*
X147852698Y-103066597D01*
X147721271Y-103045781D01*
X147681611Y-103039500D01*
X146708389Y-103039500D01*
X146668728Y-103045781D01*
X146537302Y-103066597D01*
X146372552Y-103120128D01*
X146218211Y-103198768D01*
X146142964Y-103253439D01*
X146078072Y-103300586D01*
X146078070Y-103300588D01*
X146078069Y-103300588D01*
X145955588Y-103423069D01*
X145955588Y-103423070D01*
X145955586Y-103423072D01*
X145911859Y-103483256D01*
X145853768Y-103563211D01*
X145775128Y-103717552D01*
X145721597Y-103882302D01*
X145694500Y-104053389D01*
X145694500Y-104226610D01*
X145706263Y-104300883D01*
X145721598Y-104397701D01*
X145775127Y-104562445D01*
X145853768Y-104716788D01*
X145955586Y-104856928D01*
X146078072Y-104979414D01*
X146218212Y-105081232D01*
X146372555Y-105159873D01*
X146537299Y-105213402D01*
X146708389Y-105240500D01*
X147394903Y-105240500D01*
X147424343Y-105249144D01*
X147454330Y-105255668D01*
X147459345Y-105259422D01*
X147461942Y-105260185D01*
X147482584Y-105276819D01*
X147573584Y-105367819D01*
X147607069Y-105429142D01*
X147602085Y-105498834D01*
X147560213Y-105554767D01*
X147494749Y-105579184D01*
X147485903Y-105579500D01*
X146708389Y-105579500D01*
X146668728Y-105585781D01*
X146537302Y-105606597D01*
X146372552Y-105660128D01*
X146218211Y-105738768D01*
X146138256Y-105796859D01*
X146078072Y-105840586D01*
X146078070Y-105840588D01*
X146078069Y-105840588D01*
X145955588Y-105963069D01*
X145955588Y-105963070D01*
X145955586Y-105963072D01*
X145908133Y-106028386D01*
X145852803Y-106071051D01*
X145807815Y-106079500D01*
X138456669Y-106079500D01*
X138456653Y-106079499D01*
X138449057Y-106079499D01*
X138290943Y-106079499D01*
X138184331Y-106108066D01*
X138138210Y-106120424D01*
X138138209Y-106120425D01*
X138088096Y-106149359D01*
X138088095Y-106149360D01*
X138044689Y-106174420D01*
X138001285Y-106199479D01*
X138001282Y-106199481D01*
X137889480Y-106311284D01*
X137889478Y-106311286D01*
X132958248Y-111242517D01*
X128038584Y-116162181D01*
X127977261Y-116195666D01*
X127950903Y-116198500D01*
X120217848Y-116198500D01*
X120197636Y-116192565D01*
X120176599Y-116191438D01*
X120164783Y-116182918D01*
X120150809Y-116178815D01*
X120137014Y-116162895D01*
X120119925Y-116150573D01*
X120114591Y-116137017D01*
X120105054Y-116126011D01*
X120102055Y-116105160D01*
X120094342Y-116085556D01*
X120095670Y-116060752D01*
X120095110Y-116056853D01*
X120096230Y-116050312D01*
X120100637Y-116028153D01*
X120133020Y-115966241D01*
X120134515Y-115964719D01*
X123080520Y-113018716D01*
X123159577Y-112881784D01*
X123200501Y-112729057D01*
X123200501Y-112570942D01*
X123200501Y-112563347D01*
X123200500Y-112563329D01*
X123200500Y-103329765D01*
X123220185Y-103262726D01*
X123221398Y-103260874D01*
X123309390Y-103129185D01*
X123309390Y-103129184D01*
X123309394Y-103129179D01*
X123313144Y-103120127D01*
X123358667Y-103010222D01*
X123369737Y-102983497D01*
X123400500Y-102828842D01*
X123400500Y-102671158D01*
X123400500Y-102671155D01*
X123400499Y-102671153D01*
X123369738Y-102516510D01*
X123369737Y-102516503D01*
X123309902Y-102372047D01*
X123309397Y-102370827D01*
X123309390Y-102370814D01*
X123221789Y-102239711D01*
X123221786Y-102239707D01*
X123110292Y-102128213D01*
X123110288Y-102128210D01*
X122979185Y-102040609D01*
X122979172Y-102040602D01*
X122833501Y-101980264D01*
X122833489Y-101980261D01*
X122678845Y-101949500D01*
X122678842Y-101949500D01*
X122521158Y-101949500D01*
X122521155Y-101949500D01*
X122366510Y-101980261D01*
X122366498Y-101980264D01*
X122220827Y-102040602D01*
X122220814Y-102040609D01*
X122089711Y-102128210D01*
X122089707Y-102128213D01*
X121978213Y-102239707D01*
X121978210Y-102239711D01*
X121927602Y-102315451D01*
X121873989Y-102360256D01*
X121804664Y-102368963D01*
X121741637Y-102338808D01*
X121704918Y-102279365D01*
X121700500Y-102246560D01*
X121700500Y-100729765D01*
X121720185Y-100662726D01*
X121721398Y-100660874D01*
X121809390Y-100529185D01*
X121809390Y-100529184D01*
X121809394Y-100529179D01*
X121869737Y-100383497D01*
X121900500Y-100228842D01*
X121900500Y-100071158D01*
X121900500Y-100071155D01*
X121900499Y-100071153D01*
X121872626Y-99931028D01*
X121869737Y-99916503D01*
X121865052Y-99905193D01*
X121809397Y-99770827D01*
X121809390Y-99770814D01*
X121721789Y-99639711D01*
X121721786Y-99639707D01*
X121610292Y-99528213D01*
X121610288Y-99528210D01*
X121479185Y-99440609D01*
X121479172Y-99440602D01*
X121333501Y-99380264D01*
X121333489Y-99380261D01*
X121178845Y-99349500D01*
X121178842Y-99349500D01*
X121021158Y-99349500D01*
X121021155Y-99349500D01*
X120866510Y-99380261D01*
X120866498Y-99380264D01*
X120720827Y-99440602D01*
X120720814Y-99440609D01*
X120589711Y-99528210D01*
X120589707Y-99528213D01*
X120478213Y-99639707D01*
X120478210Y-99639711D01*
X120427602Y-99715451D01*
X120373989Y-99760256D01*
X120304664Y-99768963D01*
X120241637Y-99738808D01*
X120204918Y-99679365D01*
X120200500Y-99646560D01*
X120200500Y-98862332D01*
X123889500Y-98862332D01*
X123889500Y-99137667D01*
X123889501Y-99137684D01*
X123925438Y-99410655D01*
X123925439Y-99410660D01*
X123925440Y-99410666D01*
X123958321Y-99533380D01*
X123996704Y-99676630D01*
X124102075Y-99931017D01*
X124102080Y-99931028D01*
X124176458Y-100059852D01*
X124239751Y-100169479D01*
X124239753Y-100169482D01*
X124239754Y-100169483D01*
X124407370Y-100387926D01*
X124407376Y-100387933D01*
X124602066Y-100582623D01*
X124602073Y-100582629D01*
X124694355Y-100653439D01*
X124820521Y-100750249D01*
X124973778Y-100838732D01*
X125058971Y-100887919D01*
X125058976Y-100887921D01*
X125058979Y-100887923D01*
X125313368Y-100993295D01*
X125579334Y-101064560D01*
X125852326Y-101100500D01*
X125852333Y-101100500D01*
X126127667Y-101100500D01*
X126127674Y-101100500D01*
X126400666Y-101064560D01*
X126666632Y-100993295D01*
X126921021Y-100887923D01*
X127159479Y-100750249D01*
X127377928Y-100582628D01*
X127572628Y-100387928D01*
X127740249Y-100169479D01*
X127877923Y-99931021D01*
X127983295Y-99676632D01*
X128054560Y-99410666D01*
X128090500Y-99137674D01*
X128090500Y-98890638D01*
X128410500Y-98890638D01*
X128410500Y-99109361D01*
X128444714Y-99325376D01*
X128512297Y-99533380D01*
X128512298Y-99533383D01*
X128611595Y-99728260D01*
X128740142Y-99905193D01*
X128894806Y-100059857D01*
X129045696Y-100169483D01*
X129071743Y-100188407D01*
X129199132Y-100253315D01*
X129266616Y-100287701D01*
X129266619Y-100287702D01*
X129370621Y-100321493D01*
X129474625Y-100355286D01*
X129574672Y-100371132D01*
X129690639Y-100389500D01*
X129690644Y-100389500D01*
X129909361Y-100389500D01*
X130014082Y-100372912D01*
X130125375Y-100355286D01*
X130333383Y-100287701D01*
X130528257Y-100188407D01*
X130689642Y-100071155D01*
X130705193Y-100059857D01*
X130705195Y-100059854D01*
X130705199Y-100059852D01*
X130859852Y-99905199D01*
X130969683Y-99754028D01*
X131025011Y-99711364D01*
X131094624Y-99705385D01*
X131156420Y-99737990D01*
X131170313Y-99754023D01*
X131280144Y-99905193D01*
X131280148Y-99905199D01*
X131434806Y-100059857D01*
X131585696Y-100169483D01*
X131611743Y-100188407D01*
X131739132Y-100253315D01*
X131806616Y-100287701D01*
X131806619Y-100287702D01*
X131910621Y-100321493D01*
X132014625Y-100355286D01*
X132114672Y-100371132D01*
X132230639Y-100389500D01*
X132230644Y-100389500D01*
X132449361Y-100389500D01*
X132554082Y-100372912D01*
X132665375Y-100355286D01*
X132873383Y-100287701D01*
X133068257Y-100188407D01*
X133229642Y-100071155D01*
X133245193Y-100059857D01*
X133245195Y-100059854D01*
X133245199Y-100059852D01*
X133399852Y-99905199D01*
X133399854Y-99905195D01*
X133399857Y-99905193D01*
X133497478Y-99770827D01*
X133528407Y-99728257D01*
X133627701Y-99533383D01*
X133695286Y-99325375D01*
X133712912Y-99214082D01*
X133729500Y-99109361D01*
X133729500Y-98890638D01*
X136030500Y-98890638D01*
X136030500Y-99109361D01*
X136064714Y-99325376D01*
X136132297Y-99533380D01*
X136132298Y-99533383D01*
X136231595Y-99728260D01*
X136360142Y-99905193D01*
X136514806Y-100059857D01*
X136665696Y-100169483D01*
X136691743Y-100188407D01*
X136819132Y-100253315D01*
X136886616Y-100287701D01*
X136886619Y-100287702D01*
X136990621Y-100321493D01*
X137094625Y-100355286D01*
X137194672Y-100371132D01*
X137310639Y-100389500D01*
X137310644Y-100389500D01*
X137529361Y-100389500D01*
X137634082Y-100372912D01*
X137745375Y-100355286D01*
X137953383Y-100287701D01*
X138148257Y-100188407D01*
X138309642Y-100071155D01*
X138325193Y-100059857D01*
X138325195Y-100059854D01*
X138325199Y-100059852D01*
X138479852Y-99905199D01*
X138589683Y-99754028D01*
X138645011Y-99711364D01*
X138714624Y-99705385D01*
X138776420Y-99737990D01*
X138790313Y-99754023D01*
X138900144Y-99905193D01*
X138900148Y-99905199D01*
X139054806Y-100059857D01*
X139205696Y-100169483D01*
X139231743Y-100188407D01*
X139359132Y-100253315D01*
X139426616Y-100287701D01*
X139426619Y-100287702D01*
X139530621Y-100321493D01*
X139634625Y-100355286D01*
X139734672Y-100371132D01*
X139850639Y-100389500D01*
X139850644Y-100389500D01*
X140069361Y-100389500D01*
X140174082Y-100372912D01*
X140285375Y-100355286D01*
X140493383Y-100287701D01*
X140688257Y-100188407D01*
X140849642Y-100071155D01*
X140865193Y-100059857D01*
X140865195Y-100059854D01*
X140865199Y-100059852D01*
X141019852Y-99905199D01*
X141129683Y-99754028D01*
X141185011Y-99711364D01*
X141254624Y-99705385D01*
X141316420Y-99737990D01*
X141330313Y-99754023D01*
X141440144Y-99905193D01*
X141440148Y-99905199D01*
X141594806Y-100059857D01*
X141745696Y-100169483D01*
X141771743Y-100188407D01*
X141899132Y-100253315D01*
X141966616Y-100287701D01*
X141966619Y-100287702D01*
X142070621Y-100321493D01*
X142174625Y-100355286D01*
X142274672Y-100371132D01*
X142390639Y-100389500D01*
X142390644Y-100389500D01*
X142609361Y-100389500D01*
X142714082Y-100372912D01*
X142825375Y-100355286D01*
X143033383Y-100287701D01*
X143228257Y-100188407D01*
X143389642Y-100071155D01*
X143405193Y-100059857D01*
X143405195Y-100059854D01*
X143405199Y-100059852D01*
X143559852Y-99905199D01*
X143559854Y-99905195D01*
X143559857Y-99905193D01*
X143657478Y-99770827D01*
X143688407Y-99728257D01*
X143787701Y-99533383D01*
X143855286Y-99325375D01*
X143872912Y-99214082D01*
X143889500Y-99109361D01*
X143889500Y-98890639D01*
X143887445Y-98877666D01*
X143887445Y-98877665D01*
X143885016Y-98862332D01*
X144209500Y-98862332D01*
X144209500Y-99137667D01*
X144209501Y-99137684D01*
X144245438Y-99410655D01*
X144245439Y-99410660D01*
X144245440Y-99410666D01*
X144278321Y-99533380D01*
X144316704Y-99676630D01*
X144422075Y-99931017D01*
X144422080Y-99931028D01*
X144496458Y-100059852D01*
X144559751Y-100169479D01*
X144559753Y-100169482D01*
X144559754Y-100169483D01*
X144727370Y-100387926D01*
X144727376Y-100387933D01*
X144922066Y-100582623D01*
X144922073Y-100582629D01*
X145014355Y-100653439D01*
X145140521Y-100750249D01*
X145293778Y-100838732D01*
X145378971Y-100887919D01*
X145378976Y-100887921D01*
X145378979Y-100887923D01*
X145633368Y-100993295D01*
X145899334Y-101064560D01*
X146172326Y-101100500D01*
X146172333Y-101100500D01*
X146447667Y-101100500D01*
X146447674Y-101100500D01*
X146720666Y-101064560D01*
X146986632Y-100993295D01*
X147241021Y-100887923D01*
X147479479Y-100750249D01*
X147697928Y-100582628D01*
X147892628Y-100387928D01*
X148060249Y-100169479D01*
X148197923Y-99931021D01*
X148303295Y-99676632D01*
X148374560Y-99410666D01*
X148410500Y-99137674D01*
X148410500Y-98862326D01*
X148374560Y-98589334D01*
X148303295Y-98323368D01*
X148197923Y-98068979D01*
X148197921Y-98068976D01*
X148197919Y-98068971D01*
X148123542Y-97940148D01*
X148060249Y-97830521D01*
X147892628Y-97612072D01*
X147892623Y-97612066D01*
X147697933Y-97417376D01*
X147697926Y-97417370D01*
X147479483Y-97249754D01*
X147479482Y-97249753D01*
X147479479Y-97249751D01*
X147336705Y-97167320D01*
X147241028Y-97112080D01*
X147241017Y-97112075D01*
X146986630Y-97006704D01*
X146853649Y-96971072D01*
X146720666Y-96935440D01*
X146720660Y-96935439D01*
X146720655Y-96935438D01*
X146447684Y-96899501D01*
X146447679Y-96899500D01*
X146447674Y-96899500D01*
X146172326Y-96899500D01*
X146172320Y-96899500D01*
X146172315Y-96899501D01*
X145899344Y-96935438D01*
X145899337Y-96935439D01*
X145899334Y-96935440D01*
X145843125Y-96950500D01*
X145633369Y-97006704D01*
X145378982Y-97112075D01*
X145378971Y-97112080D01*
X145140516Y-97249754D01*
X144922073Y-97417370D01*
X144922066Y-97417376D01*
X144727376Y-97612066D01*
X144727370Y-97612073D01*
X144559754Y-97830516D01*
X144422080Y-98068971D01*
X144422075Y-98068982D01*
X144316704Y-98323369D01*
X144287630Y-98431877D01*
X144248160Y-98579185D01*
X144245441Y-98589331D01*
X144245438Y-98589344D01*
X144209501Y-98862315D01*
X144209500Y-98862332D01*
X143885016Y-98862332D01*
X143864306Y-98731578D01*
X143855286Y-98674625D01*
X143787701Y-98466617D01*
X143787701Y-98466616D01*
X143753315Y-98399132D01*
X143688407Y-98271743D01*
X143669681Y-98245969D01*
X143559857Y-98094806D01*
X143405193Y-97940142D01*
X143228260Y-97811595D01*
X143228259Y-97811594D01*
X143228257Y-97811593D01*
X143137699Y-97765451D01*
X143033383Y-97712298D01*
X143033380Y-97712297D01*
X142825376Y-97644714D01*
X142609361Y-97610500D01*
X142609356Y-97610500D01*
X142390644Y-97610500D01*
X142390639Y-97610500D01*
X142174623Y-97644714D01*
X141966619Y-97712297D01*
X141966616Y-97712298D01*
X141771739Y-97811595D01*
X141594806Y-97940142D01*
X141440142Y-98094806D01*
X141330318Y-98245969D01*
X141274989Y-98288635D01*
X141205375Y-98294614D01*
X141143580Y-98262009D01*
X141129682Y-98245969D01*
X141019857Y-98094806D01*
X140865193Y-97940142D01*
X140688260Y-97811595D01*
X140688259Y-97811594D01*
X140688257Y-97811593D01*
X140597699Y-97765451D01*
X140493383Y-97712298D01*
X140493380Y-97712297D01*
X140285376Y-97644714D01*
X140069361Y-97610500D01*
X140069356Y-97610500D01*
X139850644Y-97610500D01*
X139850639Y-97610500D01*
X139634623Y-97644714D01*
X139426619Y-97712297D01*
X139426616Y-97712298D01*
X139231739Y-97811595D01*
X139054806Y-97940142D01*
X138900142Y-98094806D01*
X138790318Y-98245969D01*
X138734989Y-98288635D01*
X138665375Y-98294614D01*
X138603580Y-98262009D01*
X138589682Y-98245969D01*
X138479857Y-98094806D01*
X138325193Y-97940142D01*
X138148260Y-97811595D01*
X138148259Y-97811594D01*
X138148257Y-97811593D01*
X138057699Y-97765451D01*
X137953383Y-97712298D01*
X137953380Y-97712297D01*
X137745376Y-97644714D01*
X137529361Y-97610500D01*
X137529356Y-97610500D01*
X137310644Y-97610500D01*
X137310639Y-97610500D01*
X137094623Y-97644714D01*
X136886619Y-97712297D01*
X136886616Y-97712298D01*
X136691739Y-97811595D01*
X136514806Y-97940142D01*
X136360142Y-98094806D01*
X136231595Y-98271739D01*
X136132298Y-98466616D01*
X136132297Y-98466619D01*
X136064714Y-98674623D01*
X136030500Y-98890638D01*
X133729500Y-98890638D01*
X133704306Y-98731578D01*
X133695286Y-98674625D01*
X133627701Y-98466617D01*
X133627701Y-98466616D01*
X133593315Y-98399132D01*
X133528407Y-98271743D01*
X133509681Y-98245969D01*
X133399857Y-98094806D01*
X133245193Y-97940142D01*
X133068260Y-97811595D01*
X133068259Y-97811594D01*
X133068257Y-97811593D01*
X132977699Y-97765451D01*
X132873383Y-97712298D01*
X132873380Y-97712297D01*
X132665376Y-97644714D01*
X132449361Y-97610500D01*
X132449356Y-97610500D01*
X132230644Y-97610500D01*
X132230639Y-97610500D01*
X132014623Y-97644714D01*
X131806619Y-97712297D01*
X131806616Y-97712298D01*
X131611739Y-97811595D01*
X131434806Y-97940142D01*
X131280142Y-98094806D01*
X131170318Y-98245969D01*
X131114989Y-98288635D01*
X131045375Y-98294614D01*
X130983580Y-98262009D01*
X130969682Y-98245969D01*
X130859857Y-98094806D01*
X130705193Y-97940142D01*
X130528260Y-97811595D01*
X130528259Y-97811594D01*
X130528257Y-97811593D01*
X130437699Y-97765451D01*
X130333383Y-97712298D01*
X130333380Y-97712297D01*
X130125376Y-97644714D01*
X129909361Y-97610500D01*
X129909356Y-97610500D01*
X129690644Y-97610500D01*
X129690639Y-97610500D01*
X129474623Y-97644714D01*
X129266619Y-97712297D01*
X129266616Y-97712298D01*
X129071739Y-97811595D01*
X128894806Y-97940142D01*
X128740142Y-98094806D01*
X128611595Y-98271739D01*
X128512298Y-98466616D01*
X128512297Y-98466619D01*
X128444714Y-98674623D01*
X128410500Y-98890638D01*
X128090500Y-98890638D01*
X128090500Y-98862326D01*
X128054560Y-98589334D01*
X127983295Y-98323368D01*
X127877923Y-98068979D01*
X127877921Y-98068976D01*
X127877919Y-98068971D01*
X127803542Y-97940148D01*
X127740249Y-97830521D01*
X127572628Y-97612072D01*
X127572623Y-97612066D01*
X127377933Y-97417376D01*
X127377926Y-97417370D01*
X127159483Y-97249754D01*
X127159482Y-97249753D01*
X127159479Y-97249751D01*
X127016705Y-97167320D01*
X126921028Y-97112080D01*
X126921017Y-97112075D01*
X126666630Y-97006704D01*
X126533649Y-96971072D01*
X126400666Y-96935440D01*
X126400660Y-96935439D01*
X126400655Y-96935438D01*
X126127684Y-96899501D01*
X126127679Y-96899500D01*
X126127674Y-96899500D01*
X125852326Y-96899500D01*
X125852320Y-96899500D01*
X125852315Y-96899501D01*
X125579344Y-96935438D01*
X125579337Y-96935439D01*
X125579334Y-96935440D01*
X125523125Y-96950500D01*
X125313369Y-97006704D01*
X125058982Y-97112075D01*
X125058971Y-97112080D01*
X124820516Y-97249754D01*
X124602073Y-97417370D01*
X124602066Y-97417376D01*
X124407376Y-97612066D01*
X124407370Y-97612073D01*
X124239754Y-97830516D01*
X124102080Y-98068971D01*
X124102075Y-98068982D01*
X123996704Y-98323369D01*
X123967630Y-98431877D01*
X123928160Y-98579185D01*
X123925441Y-98589331D01*
X123925438Y-98589344D01*
X123889501Y-98862315D01*
X123889500Y-98862332D01*
X120200500Y-98862332D01*
X120200500Y-98779765D01*
X120220185Y-98712726D01*
X120221398Y-98710874D01*
X120309390Y-98579185D01*
X120309390Y-98579184D01*
X120309394Y-98579179D01*
X120369737Y-98433497D01*
X120400500Y-98278842D01*
X120400500Y-98121158D01*
X120400500Y-98121155D01*
X120400499Y-98121153D01*
X120369738Y-97966510D01*
X120369737Y-97966503D01*
X120369735Y-97966498D01*
X120309397Y-97820827D01*
X120309390Y-97820814D01*
X120221789Y-97689711D01*
X120221786Y-97689707D01*
X120110292Y-97578213D01*
X120110288Y-97578210D01*
X119979185Y-97490609D01*
X119979172Y-97490602D01*
X119833501Y-97430264D01*
X119833489Y-97430261D01*
X119678845Y-97399500D01*
X119678842Y-97399500D01*
X119521158Y-97399500D01*
X119521155Y-97399500D01*
X119366510Y-97430261D01*
X119366498Y-97430264D01*
X119220827Y-97490602D01*
X119220814Y-97490609D01*
X119089711Y-97578210D01*
X119089707Y-97578213D01*
X118978213Y-97689707D01*
X118978210Y-97689711D01*
X118927602Y-97765451D01*
X118873989Y-97810256D01*
X118804664Y-97818963D01*
X118741637Y-97788808D01*
X118704918Y-97729365D01*
X118700500Y-97696560D01*
X118700500Y-97204935D01*
X118720185Y-97137896D01*
X118721366Y-97136090D01*
X118759394Y-97079179D01*
X118819737Y-96933497D01*
X118850500Y-96778842D01*
X118850500Y-96621158D01*
X118850500Y-96621155D01*
X118850499Y-96621153D01*
X118819738Y-96466510D01*
X118819737Y-96466503D01*
X118819735Y-96466498D01*
X118759397Y-96320827D01*
X118759390Y-96320814D01*
X118671789Y-96189711D01*
X118671786Y-96189707D01*
X118560292Y-96078213D01*
X118560288Y-96078210D01*
X118429185Y-95990609D01*
X118429172Y-95990602D01*
X118283501Y-95930264D01*
X118283489Y-95930261D01*
X118128845Y-95899500D01*
X118128842Y-95899500D01*
X117971158Y-95899500D01*
X117971155Y-95899500D01*
X117816510Y-95930261D01*
X117816498Y-95930264D01*
X117771952Y-95948716D01*
X117702483Y-95956185D01*
X117640004Y-95924909D01*
X117604352Y-95864820D01*
X117600500Y-95834155D01*
X117600500Y-94420945D01*
X117600500Y-94420943D01*
X117559577Y-94268216D01*
X117559577Y-94268215D01*
X117559577Y-94268214D01*
X117530639Y-94218095D01*
X117530637Y-94218092D01*
X117480520Y-94131284D01*
X117368716Y-94019480D01*
X117368715Y-94019479D01*
X117364385Y-94015149D01*
X117364374Y-94015139D01*
X110396819Y-87047584D01*
X110363334Y-86986261D01*
X110360500Y-86959903D01*
X110360500Y-86162332D01*
X123889500Y-86162332D01*
X123889500Y-86437667D01*
X123889501Y-86437684D01*
X123925438Y-86710655D01*
X123925439Y-86710660D01*
X123925440Y-86710666D01*
X123925441Y-86710668D01*
X123996704Y-86976630D01*
X124102075Y-87231017D01*
X124102080Y-87231028D01*
X124176458Y-87359852D01*
X124239751Y-87469479D01*
X124239753Y-87469482D01*
X124239754Y-87469483D01*
X124407370Y-87687926D01*
X124407376Y-87687933D01*
X124602066Y-87882623D01*
X124602072Y-87882628D01*
X124820521Y-88050249D01*
X124973778Y-88138732D01*
X125058971Y-88187919D01*
X125058976Y-88187921D01*
X125058979Y-88187923D01*
X125313368Y-88293295D01*
X125579334Y-88364560D01*
X125852326Y-88400500D01*
X125852333Y-88400500D01*
X126127667Y-88400500D01*
X126127674Y-88400500D01*
X126400666Y-88364560D01*
X126666632Y-88293295D01*
X126921021Y-88187923D01*
X127159479Y-88050249D01*
X127377928Y-87882628D01*
X127572628Y-87687928D01*
X127740249Y-87469479D01*
X127877923Y-87231021D01*
X127983295Y-86976632D01*
X128054560Y-86710666D01*
X128090500Y-86437674D01*
X128090500Y-86190638D01*
X128410500Y-86190638D01*
X128410500Y-86409361D01*
X128444714Y-86625376D01*
X128512297Y-86833380D01*
X128512298Y-86833383D01*
X128611595Y-87028260D01*
X128740142Y-87205193D01*
X128894806Y-87359857D01*
X129045696Y-87469483D01*
X129071743Y-87488407D01*
X129176728Y-87541900D01*
X129266616Y-87587701D01*
X129266619Y-87587702D01*
X129370621Y-87621493D01*
X129474625Y-87655286D01*
X129574672Y-87671132D01*
X129690639Y-87689500D01*
X129690644Y-87689500D01*
X129909361Y-87689500D01*
X130014082Y-87672912D01*
X130125375Y-87655286D01*
X130333383Y-87587701D01*
X130528257Y-87488407D01*
X130627601Y-87416229D01*
X130705193Y-87359857D01*
X130705195Y-87359854D01*
X130705199Y-87359852D01*
X130859852Y-87205199D01*
X130969683Y-87054028D01*
X131025011Y-87011364D01*
X131094624Y-87005385D01*
X131156420Y-87037990D01*
X131170313Y-87054023D01*
X131256994Y-87173330D01*
X131280148Y-87205199D01*
X131434806Y-87359857D01*
X131585696Y-87469483D01*
X131611743Y-87488407D01*
X131716728Y-87541900D01*
X131806616Y-87587701D01*
X131806619Y-87587702D01*
X131910621Y-87621493D01*
X132014625Y-87655286D01*
X132114672Y-87671132D01*
X132230639Y-87689500D01*
X132230644Y-87689500D01*
X132449361Y-87689500D01*
X132554082Y-87672912D01*
X132665375Y-87655286D01*
X132873383Y-87587701D01*
X133068257Y-87488407D01*
X133167601Y-87416229D01*
X133245193Y-87359857D01*
X133245195Y-87359854D01*
X133245199Y-87359852D01*
X133399852Y-87205199D01*
X133509683Y-87054028D01*
X133565011Y-87011364D01*
X133634624Y-87005385D01*
X133696420Y-87037990D01*
X133710313Y-87054023D01*
X133796994Y-87173330D01*
X133820148Y-87205199D01*
X133974806Y-87359857D01*
X134125696Y-87469483D01*
X134151743Y-87488407D01*
X134256728Y-87541900D01*
X134346616Y-87587701D01*
X134346619Y-87587702D01*
X134450621Y-87621493D01*
X134554625Y-87655286D01*
X134654672Y-87671132D01*
X134770639Y-87689500D01*
X134770644Y-87689500D01*
X134989361Y-87689500D01*
X135094082Y-87672912D01*
X135205375Y-87655286D01*
X135413383Y-87587701D01*
X135608257Y-87488407D01*
X135707601Y-87416229D01*
X135785193Y-87359857D01*
X135785195Y-87359854D01*
X135785199Y-87359852D01*
X135939852Y-87205199D01*
X136049683Y-87054028D01*
X136105011Y-87011364D01*
X136174624Y-87005385D01*
X136236420Y-87037990D01*
X136250313Y-87054023D01*
X136336994Y-87173330D01*
X136360148Y-87205199D01*
X136514806Y-87359857D01*
X136665696Y-87469483D01*
X136691743Y-87488407D01*
X136796728Y-87541900D01*
X136886616Y-87587701D01*
X136886619Y-87587702D01*
X136990621Y-87621493D01*
X137094625Y-87655286D01*
X137194672Y-87671132D01*
X137310639Y-87689500D01*
X137310644Y-87689500D01*
X137529361Y-87689500D01*
X137634082Y-87672912D01*
X137745375Y-87655286D01*
X137953383Y-87587701D01*
X138148257Y-87488407D01*
X138247601Y-87416229D01*
X138325193Y-87359857D01*
X138325195Y-87359854D01*
X138325199Y-87359852D01*
X138479852Y-87205199D01*
X138589683Y-87054028D01*
X138645011Y-87011364D01*
X138714624Y-87005385D01*
X138776420Y-87037990D01*
X138790313Y-87054023D01*
X138876994Y-87173330D01*
X138900148Y-87205199D01*
X139054806Y-87359857D01*
X139205696Y-87469483D01*
X139231743Y-87488407D01*
X139336728Y-87541900D01*
X139426616Y-87587701D01*
X139426619Y-87587702D01*
X139530621Y-87621493D01*
X139634625Y-87655286D01*
X139734672Y-87671132D01*
X139850639Y-87689500D01*
X139850644Y-87689500D01*
X140069361Y-87689500D01*
X140174082Y-87672912D01*
X140285375Y-87655286D01*
X140493383Y-87587701D01*
X140688257Y-87488407D01*
X140787601Y-87416229D01*
X140865193Y-87359857D01*
X140865195Y-87359854D01*
X140865199Y-87359852D01*
X141019852Y-87205199D01*
X141129683Y-87054028D01*
X141185011Y-87011364D01*
X141254624Y-87005385D01*
X141316420Y-87037990D01*
X141330313Y-87054023D01*
X141416994Y-87173330D01*
X141440148Y-87205199D01*
X141594806Y-87359857D01*
X141745696Y-87469483D01*
X141771743Y-87488407D01*
X141876728Y-87541900D01*
X141966616Y-87587701D01*
X141966619Y-87587702D01*
X142070621Y-87621493D01*
X142174625Y-87655286D01*
X142274672Y-87671132D01*
X142390639Y-87689500D01*
X142390644Y-87689500D01*
X142609361Y-87689500D01*
X142714082Y-87672912D01*
X142825375Y-87655286D01*
X143033383Y-87587701D01*
X143228257Y-87488407D01*
X143327601Y-87416229D01*
X143405193Y-87359857D01*
X143405195Y-87359854D01*
X143405199Y-87359852D01*
X143559852Y-87205199D01*
X143559854Y-87205195D01*
X143559857Y-87205193D01*
X143616229Y-87127601D01*
X143688407Y-87028257D01*
X143787701Y-86833383D01*
X143855286Y-86625375D01*
X143872912Y-86514082D01*
X143889500Y-86409361D01*
X143889500Y-86190639D01*
X143887445Y-86177666D01*
X143887445Y-86177665D01*
X143885016Y-86162332D01*
X144209500Y-86162332D01*
X144209500Y-86437667D01*
X144209501Y-86437684D01*
X144245438Y-86710655D01*
X144245439Y-86710660D01*
X144245440Y-86710666D01*
X144245441Y-86710668D01*
X144316704Y-86976630D01*
X144422075Y-87231017D01*
X144422080Y-87231028D01*
X144496458Y-87359852D01*
X144559751Y-87469479D01*
X144559753Y-87469482D01*
X144559754Y-87469483D01*
X144727370Y-87687926D01*
X144727376Y-87687933D01*
X144922066Y-87882623D01*
X144922072Y-87882628D01*
X145140521Y-88050249D01*
X145293778Y-88138732D01*
X145378971Y-88187919D01*
X145378976Y-88187921D01*
X145378979Y-88187923D01*
X145633368Y-88293295D01*
X145899334Y-88364560D01*
X146172326Y-88400500D01*
X146172333Y-88400500D01*
X146447667Y-88400500D01*
X146447674Y-88400500D01*
X146720666Y-88364560D01*
X146986632Y-88293295D01*
X147241021Y-88187923D01*
X147479479Y-88050249D01*
X147697928Y-87882628D01*
X147892628Y-87687928D01*
X148060249Y-87469479D01*
X148197923Y-87231021D01*
X148303295Y-86976632D01*
X148374560Y-86710666D01*
X148410500Y-86437674D01*
X148410500Y-86162326D01*
X148374560Y-85889334D01*
X148303295Y-85623368D01*
X148197923Y-85368979D01*
X148197921Y-85368976D01*
X148197919Y-85368971D01*
X148123542Y-85240148D01*
X148060249Y-85130521D01*
X147892628Y-84912072D01*
X147892623Y-84912066D01*
X147697933Y-84717376D01*
X147697926Y-84717370D01*
X147479483Y-84549754D01*
X147479482Y-84549753D01*
X147479479Y-84549751D01*
X147384407Y-84494861D01*
X147241028Y-84412080D01*
X147241017Y-84412075D01*
X146986630Y-84306704D01*
X146834770Y-84266014D01*
X146720666Y-84235440D01*
X146720660Y-84235439D01*
X146720655Y-84235438D01*
X146447684Y-84199501D01*
X146447679Y-84199500D01*
X146447674Y-84199500D01*
X146172326Y-84199500D01*
X146172320Y-84199500D01*
X146172315Y-84199501D01*
X145899344Y-84235438D01*
X145899337Y-84235439D01*
X145899334Y-84235440D01*
X145843125Y-84250500D01*
X145633369Y-84306704D01*
X145378982Y-84412075D01*
X145378971Y-84412080D01*
X145140516Y-84549754D01*
X144922073Y-84717370D01*
X144922066Y-84717376D01*
X144727376Y-84912066D01*
X144727370Y-84912073D01*
X144559754Y-85130516D01*
X144422080Y-85368971D01*
X144422075Y-85368982D01*
X144316704Y-85623369D01*
X144245441Y-85889331D01*
X144245438Y-85889344D01*
X144209501Y-86162315D01*
X144209500Y-86162332D01*
X143885016Y-86162332D01*
X143871537Y-86077232D01*
X143855286Y-85974625D01*
X143787701Y-85766617D01*
X143787701Y-85766616D01*
X143753315Y-85699132D01*
X143688407Y-85571743D01*
X143669681Y-85545969D01*
X143559857Y-85394806D01*
X143405193Y-85240142D01*
X143228260Y-85111595D01*
X143228259Y-85111594D01*
X143228257Y-85111593D01*
X143165825Y-85079782D01*
X143033383Y-85012298D01*
X143033380Y-85012297D01*
X142825376Y-84944714D01*
X142609361Y-84910500D01*
X142609356Y-84910500D01*
X142390644Y-84910500D01*
X142390639Y-84910500D01*
X142174623Y-84944714D01*
X141966619Y-85012297D01*
X141966616Y-85012298D01*
X141771739Y-85111595D01*
X141594806Y-85240142D01*
X141440142Y-85394806D01*
X141330318Y-85545969D01*
X141274989Y-85588635D01*
X141205375Y-85594614D01*
X141143580Y-85562009D01*
X141129682Y-85545969D01*
X141019857Y-85394806D01*
X140865193Y-85240142D01*
X140688260Y-85111595D01*
X140688259Y-85111594D01*
X140688257Y-85111593D01*
X140625825Y-85079782D01*
X140493383Y-85012298D01*
X140493380Y-85012297D01*
X140285376Y-84944714D01*
X140069361Y-84910500D01*
X140069356Y-84910500D01*
X139850644Y-84910500D01*
X139850639Y-84910500D01*
X139634623Y-84944714D01*
X139426619Y-85012297D01*
X139426616Y-85012298D01*
X139231739Y-85111595D01*
X139054806Y-85240142D01*
X138900142Y-85394806D01*
X138790318Y-85545969D01*
X138734989Y-85588635D01*
X138665375Y-85594614D01*
X138603580Y-85562009D01*
X138589682Y-85545969D01*
X138479857Y-85394806D01*
X138325193Y-85240142D01*
X138148260Y-85111595D01*
X138148259Y-85111594D01*
X138148257Y-85111593D01*
X138085825Y-85079782D01*
X137953383Y-85012298D01*
X137953380Y-85012297D01*
X137745376Y-84944714D01*
X137529361Y-84910500D01*
X137529356Y-84910500D01*
X137310644Y-84910500D01*
X137310639Y-84910500D01*
X137094623Y-84944714D01*
X136886619Y-85012297D01*
X136886616Y-85012298D01*
X136691739Y-85111595D01*
X136514806Y-85240142D01*
X136360142Y-85394806D01*
X136250318Y-85545969D01*
X136194989Y-85588635D01*
X136125375Y-85594614D01*
X136063580Y-85562009D01*
X136049682Y-85545969D01*
X135939857Y-85394806D01*
X135785193Y-85240142D01*
X135608260Y-85111595D01*
X135608259Y-85111594D01*
X135608257Y-85111593D01*
X135545825Y-85079782D01*
X135413383Y-85012298D01*
X135413380Y-85012297D01*
X135205376Y-84944714D01*
X134989361Y-84910500D01*
X134989356Y-84910500D01*
X134770644Y-84910500D01*
X134770639Y-84910500D01*
X134554623Y-84944714D01*
X134346619Y-85012297D01*
X134346616Y-85012298D01*
X134151739Y-85111595D01*
X133974806Y-85240142D01*
X133820142Y-85394806D01*
X133710318Y-85545969D01*
X133654989Y-85588635D01*
X133585375Y-85594614D01*
X133523580Y-85562009D01*
X133509682Y-85545969D01*
X133399857Y-85394806D01*
X133245193Y-85240142D01*
X133068260Y-85111595D01*
X133068259Y-85111594D01*
X133068257Y-85111593D01*
X133005825Y-85079782D01*
X132873383Y-85012298D01*
X132873380Y-85012297D01*
X132665376Y-84944714D01*
X132449361Y-84910500D01*
X132449356Y-84910500D01*
X132230644Y-84910500D01*
X132230639Y-84910500D01*
X132014623Y-84944714D01*
X131806619Y-85012297D01*
X131806616Y-85012298D01*
X131611739Y-85111595D01*
X131434806Y-85240142D01*
X131280142Y-85394806D01*
X131170318Y-85545969D01*
X131114989Y-85588635D01*
X131045375Y-85594614D01*
X130983580Y-85562009D01*
X130969682Y-85545969D01*
X130859857Y-85394806D01*
X130705193Y-85240142D01*
X130528260Y-85111595D01*
X130528259Y-85111594D01*
X130528257Y-85111593D01*
X130465825Y-85079782D01*
X130333383Y-85012298D01*
X130333380Y-85012297D01*
X130125376Y-84944714D01*
X129909361Y-84910500D01*
X129909356Y-84910500D01*
X129690644Y-84910500D01*
X129690639Y-84910500D01*
X129474623Y-84944714D01*
X129266619Y-85012297D01*
X129266616Y-85012298D01*
X129071739Y-85111595D01*
X128894806Y-85240142D01*
X128740142Y-85394806D01*
X128611595Y-85571739D01*
X128512298Y-85766616D01*
X128512297Y-85766619D01*
X128444714Y-85974623D01*
X128410500Y-86190638D01*
X128090500Y-86190638D01*
X128090500Y-86162326D01*
X128054560Y-85889334D01*
X127983295Y-85623368D01*
X127877923Y-85368979D01*
X127877921Y-85368976D01*
X127877919Y-85368971D01*
X127803542Y-85240148D01*
X127740249Y-85130521D01*
X127572628Y-84912072D01*
X127572623Y-84912066D01*
X127377933Y-84717376D01*
X127377926Y-84717370D01*
X127159483Y-84549754D01*
X127159482Y-84549753D01*
X127159479Y-84549751D01*
X127064407Y-84494861D01*
X126921028Y-84412080D01*
X126921017Y-84412075D01*
X126666630Y-84306704D01*
X126514770Y-84266014D01*
X126400666Y-84235440D01*
X126400660Y-84235439D01*
X126400655Y-84235438D01*
X126127684Y-84199501D01*
X126127679Y-84199500D01*
X126127674Y-84199500D01*
X125852326Y-84199500D01*
X125852320Y-84199500D01*
X125852315Y-84199501D01*
X125579344Y-84235438D01*
X125579337Y-84235439D01*
X125579334Y-84235440D01*
X125523125Y-84250500D01*
X125313369Y-84306704D01*
X125058982Y-84412075D01*
X125058971Y-84412080D01*
X124820516Y-84549754D01*
X124602073Y-84717370D01*
X124602066Y-84717376D01*
X124407376Y-84912066D01*
X124407370Y-84912073D01*
X124239754Y-85130516D01*
X124102080Y-85368971D01*
X124102075Y-85368982D01*
X123996704Y-85623369D01*
X123925441Y-85889331D01*
X123925438Y-85889344D01*
X123889501Y-86162315D01*
X123889500Y-86162332D01*
X110360500Y-86162332D01*
X110360500Y-84241835D01*
X110380185Y-84174796D01*
X110428206Y-84131350D01*
X110453794Y-84118312D01*
X110494022Y-84097815D01*
X110672365Y-83968242D01*
X110828242Y-83812365D01*
X110838804Y-83797826D01*
X110929682Y-83672745D01*
X110985011Y-83630079D01*
X111054625Y-83624100D01*
X111116420Y-83656705D01*
X111130318Y-83672745D01*
X111231752Y-83812358D01*
X111231756Y-83812363D01*
X111387636Y-83968243D01*
X111387641Y-83968247D01*
X111543192Y-84081260D01*
X111565978Y-84097815D01*
X111694375Y-84163237D01*
X111762393Y-84197895D01*
X111762396Y-84197896D01*
X111867221Y-84231955D01*
X111972049Y-84266015D01*
X112189778Y-84300500D01*
X112189779Y-84300500D01*
X112410221Y-84300500D01*
X112410222Y-84300500D01*
X112627951Y-84266015D01*
X112837606Y-84197895D01*
X113034022Y-84097815D01*
X113212365Y-83968242D01*
X113368242Y-83812365D01*
X113378804Y-83797826D01*
X113469682Y-83672745D01*
X113525011Y-83630079D01*
X113594625Y-83624100D01*
X113656420Y-83656705D01*
X113670318Y-83672745D01*
X113771752Y-83812358D01*
X113771756Y-83812363D01*
X113927636Y-83968243D01*
X113927641Y-83968247D01*
X114083192Y-84081260D01*
X114105978Y-84097815D01*
X114234375Y-84163237D01*
X114302393Y-84197895D01*
X114302396Y-84197896D01*
X114407221Y-84231955D01*
X114512049Y-84266015D01*
X114729778Y-84300500D01*
X114729779Y-84300500D01*
X114950221Y-84300500D01*
X114950222Y-84300500D01*
X115167951Y-84266015D01*
X115377606Y-84197895D01*
X115574022Y-84097815D01*
X115752365Y-83968242D01*
X115908242Y-83812365D01*
X116037815Y-83634022D01*
X116137895Y-83437606D01*
X116206015Y-83227951D01*
X116240500Y-83010222D01*
X116240500Y-82589778D01*
X116206015Y-82372049D01*
X116137895Y-82162394D01*
X116137895Y-82162393D01*
X116103237Y-82094375D01*
X116037815Y-81965978D01*
X115921989Y-81806556D01*
X115908247Y-81787641D01*
X115908243Y-81787636D01*
X115752363Y-81631756D01*
X115752358Y-81631752D01*
X115574025Y-81502187D01*
X115574024Y-81502186D01*
X115574022Y-81502185D01*
X115511096Y-81470122D01*
X115377606Y-81402104D01*
X115377603Y-81402103D01*
X115167952Y-81333985D01*
X115022950Y-81311019D01*
X114950222Y-81299500D01*
X114729778Y-81299500D01*
X114657201Y-81310995D01*
X114512047Y-81333985D01*
X114302396Y-81402103D01*
X114302393Y-81402104D01*
X114105974Y-81502187D01*
X113927641Y-81631752D01*
X113927636Y-81631756D01*
X113771756Y-81787636D01*
X113771752Y-81787641D01*
X113670318Y-81927254D01*
X113614988Y-81969920D01*
X113545375Y-81975899D01*
X113483580Y-81943293D01*
X113469682Y-81927254D01*
X113368247Y-81787641D01*
X113368243Y-81787636D01*
X113212363Y-81631756D01*
X113212358Y-81631752D01*
X113034025Y-81502187D01*
X113034024Y-81502186D01*
X113034022Y-81502185D01*
X112971096Y-81470122D01*
X112837606Y-81402104D01*
X112837603Y-81402103D01*
X112627952Y-81333985D01*
X112482950Y-81311019D01*
X112410222Y-81299500D01*
X112189778Y-81299500D01*
X112117201Y-81310995D01*
X111972047Y-81333985D01*
X111762396Y-81402103D01*
X111762393Y-81402104D01*
X111565974Y-81502187D01*
X111387641Y-81631752D01*
X111387636Y-81631756D01*
X111231756Y-81787636D01*
X111231752Y-81787641D01*
X111130318Y-81927254D01*
X111074988Y-81969920D01*
X111005375Y-81975899D01*
X110943580Y-81943293D01*
X110929682Y-81927254D01*
X110828247Y-81787641D01*
X110828243Y-81787636D01*
X110672363Y-81631756D01*
X110672358Y-81631752D01*
X110494025Y-81502187D01*
X110494024Y-81502186D01*
X110494022Y-81502185D01*
X110431096Y-81470122D01*
X110297606Y-81402104D01*
X110297603Y-81402103D01*
X110087952Y-81333985D01*
X109942950Y-81311019D01*
X109870222Y-81299500D01*
X109649778Y-81299500D01*
X109577201Y-81310995D01*
X109432047Y-81333985D01*
X109222396Y-81402103D01*
X109222393Y-81402104D01*
X109025974Y-81502187D01*
X108847641Y-81631752D01*
X108847636Y-81631756D01*
X108691756Y-81787636D01*
X108691752Y-81787641D01*
X108590318Y-81927254D01*
X108534988Y-81969920D01*
X108465375Y-81975899D01*
X108403580Y-81943293D01*
X108389682Y-81927254D01*
X108288247Y-81787641D01*
X108288243Y-81787636D01*
X108132363Y-81631756D01*
X108132358Y-81631752D01*
X107954025Y-81502187D01*
X107954024Y-81502186D01*
X107954022Y-81502185D01*
X107891096Y-81470122D01*
X107757606Y-81402104D01*
X107757603Y-81402103D01*
X107547952Y-81333985D01*
X107402950Y-81311019D01*
X107330222Y-81299500D01*
X107109778Y-81299500D01*
X107037201Y-81310995D01*
X106892047Y-81333985D01*
X106682396Y-81402103D01*
X106682393Y-81402104D01*
X106485974Y-81502187D01*
X106307641Y-81631752D01*
X106307636Y-81631756D01*
X106151756Y-81787636D01*
X106151752Y-81787641D01*
X106050318Y-81927254D01*
X105994988Y-81969920D01*
X105925375Y-81975899D01*
X105863580Y-81943293D01*
X105849682Y-81927254D01*
X105748247Y-81787641D01*
X105748243Y-81787636D01*
X105592363Y-81631756D01*
X105592358Y-81631752D01*
X105414025Y-81502187D01*
X105414024Y-81502186D01*
X105414022Y-81502185D01*
X105351096Y-81470122D01*
X105217606Y-81402104D01*
X105217603Y-81402103D01*
X105007952Y-81333985D01*
X104862950Y-81311019D01*
X104790222Y-81299500D01*
X104569778Y-81299500D01*
X104497201Y-81310995D01*
X104352047Y-81333985D01*
X104142396Y-81402103D01*
X104142393Y-81402104D01*
X103945974Y-81502187D01*
X103767641Y-81631752D01*
X103767636Y-81631756D01*
X103611756Y-81787636D01*
X103611752Y-81787641D01*
X103510318Y-81927254D01*
X103454988Y-81969920D01*
X103385375Y-81975899D01*
X103323580Y-81943293D01*
X103309682Y-81927254D01*
X103208247Y-81787641D01*
X103208243Y-81787636D01*
X103052363Y-81631756D01*
X103052358Y-81631752D01*
X102874025Y-81502187D01*
X102874024Y-81502186D01*
X102874022Y-81502185D01*
X102811096Y-81470122D01*
X102677606Y-81402104D01*
X102677603Y-81402103D01*
X102467952Y-81333985D01*
X102322950Y-81311019D01*
X102250222Y-81299500D01*
X102029778Y-81299500D01*
X101957201Y-81310995D01*
X101812047Y-81333985D01*
X101602396Y-81402103D01*
X101602393Y-81402104D01*
X101405974Y-81502187D01*
X101227641Y-81631752D01*
X101227636Y-81631756D01*
X101071756Y-81787636D01*
X101071752Y-81787641D01*
X100970318Y-81927254D01*
X100914988Y-81969920D01*
X100845375Y-81975899D01*
X100783580Y-81943293D01*
X100769682Y-81927254D01*
X100668247Y-81787641D01*
X100668243Y-81787636D01*
X100512363Y-81631756D01*
X100512358Y-81631752D01*
X100334025Y-81502187D01*
X100334024Y-81502186D01*
X100334022Y-81502185D01*
X100271096Y-81470122D01*
X100137606Y-81402104D01*
X100137603Y-81402103D01*
X99927952Y-81333985D01*
X99782950Y-81311019D01*
X99710222Y-81299500D01*
X99489778Y-81299500D01*
X99417201Y-81310995D01*
X99272047Y-81333985D01*
X99062396Y-81402103D01*
X99062393Y-81402104D01*
X98865974Y-81502187D01*
X98687641Y-81631752D01*
X98687636Y-81631756D01*
X98531756Y-81787636D01*
X98531752Y-81787641D01*
X98430318Y-81927254D01*
X98374988Y-81969920D01*
X98305375Y-81975899D01*
X98243580Y-81943293D01*
X98229682Y-81927254D01*
X98128247Y-81787641D01*
X98128243Y-81787636D01*
X97972363Y-81631756D01*
X97972358Y-81631752D01*
X97794025Y-81502187D01*
X97794024Y-81502186D01*
X97794022Y-81502185D01*
X97731096Y-81470122D01*
X97597606Y-81402104D01*
X97597603Y-81402103D01*
X97387952Y-81333985D01*
X97242950Y-81311019D01*
X97170222Y-81299500D01*
X96949778Y-81299500D01*
X96877201Y-81310995D01*
X96732047Y-81333985D01*
X96522396Y-81402103D01*
X96522393Y-81402104D01*
X96325974Y-81502187D01*
X96147641Y-81631752D01*
X96147636Y-81631756D01*
X95991756Y-81787636D01*
X95991752Y-81787641D01*
X95890318Y-81927254D01*
X95834988Y-81969920D01*
X95765375Y-81975899D01*
X95703580Y-81943293D01*
X95689682Y-81927254D01*
X95588247Y-81787641D01*
X95588243Y-81787636D01*
X95432363Y-81631756D01*
X95432358Y-81631752D01*
X95254025Y-81502187D01*
X95254024Y-81502186D01*
X95254022Y-81502185D01*
X95191096Y-81470122D01*
X95057606Y-81402104D01*
X95057603Y-81402103D01*
X94847952Y-81333985D01*
X94702950Y-81311019D01*
X94630222Y-81299500D01*
X94409778Y-81299500D01*
X94337201Y-81310995D01*
X94192047Y-81333985D01*
X93982396Y-81402103D01*
X93982393Y-81402104D01*
X93785974Y-81502187D01*
X93607641Y-81631752D01*
X93607636Y-81631756D01*
X93451756Y-81787636D01*
X93451752Y-81787641D01*
X93350318Y-81927254D01*
X93294988Y-81969920D01*
X93225375Y-81975899D01*
X93163580Y-81943293D01*
X93149682Y-81927254D01*
X93048247Y-81787641D01*
X93048243Y-81787636D01*
X92892363Y-81631756D01*
X92892358Y-81631752D01*
X92714025Y-81502187D01*
X92714024Y-81502186D01*
X92714022Y-81502185D01*
X92651096Y-81470122D01*
X92517606Y-81402104D01*
X92517603Y-81402103D01*
X92307952Y-81333985D01*
X92162950Y-81311019D01*
X92090222Y-81299500D01*
X91869778Y-81299500D01*
X91797201Y-81310995D01*
X91652047Y-81333985D01*
X91442396Y-81402103D01*
X91442393Y-81402104D01*
X91245974Y-81502187D01*
X91067641Y-81631752D01*
X91067636Y-81631756D01*
X90911756Y-81787636D01*
X90911752Y-81787641D01*
X90810318Y-81927254D01*
X90754988Y-81969920D01*
X90685375Y-81975899D01*
X90623580Y-81943293D01*
X90609682Y-81927254D01*
X90508247Y-81787641D01*
X90508243Y-81787636D01*
X90352363Y-81631756D01*
X90352358Y-81631752D01*
X90174025Y-81502187D01*
X90174024Y-81502186D01*
X90174022Y-81502185D01*
X90111096Y-81470122D01*
X89977606Y-81402104D01*
X89977603Y-81402103D01*
X89767952Y-81333985D01*
X89653272Y-81315821D01*
X89590137Y-81285892D01*
X89553206Y-81226580D01*
X89554204Y-81156717D01*
X89584987Y-81105669D01*
X90469114Y-80221543D01*
X90545775Y-80106811D01*
X90551360Y-80093329D01*
X90598578Y-79979332D01*
X90598580Y-79979328D01*
X90623267Y-79855220D01*
X90625500Y-79843996D01*
X90625500Y-79235102D01*
X90645185Y-79168063D01*
X90646398Y-79166211D01*
X90647004Y-79165304D01*
X90656548Y-79151021D01*
X90718776Y-79000789D01*
X90750500Y-78841305D01*
X90750500Y-78678695D01*
X90750500Y-78678692D01*
X90718777Y-78519216D01*
X90718776Y-78519215D01*
X90718776Y-78519211D01*
X90656548Y-78368979D01*
X90646396Y-78353786D01*
X90625520Y-78287109D01*
X90625500Y-78284897D01*
X90625500Y-77885102D01*
X90645185Y-77818063D01*
X90646398Y-77816211D01*
X90656548Y-77801021D01*
X90718776Y-77650789D01*
X90742628Y-77530879D01*
X90750500Y-77491307D01*
X90750500Y-77328692D01*
X90718777Y-77169216D01*
X90718776Y-77169215D01*
X90718776Y-77169211D01*
X90691514Y-77103394D01*
X90656549Y-77018980D01*
X90656547Y-77018976D01*
X90566211Y-76883779D01*
X90566205Y-76883771D01*
X90451228Y-76768794D01*
X90451220Y-76768788D01*
X90316023Y-76678452D01*
X90316019Y-76678450D01*
X90165793Y-76616225D01*
X90165783Y-76616222D01*
X90006307Y-76584500D01*
X90006305Y-76584500D01*
X89843695Y-76584500D01*
X89843693Y-76584500D01*
X89684216Y-76616222D01*
X89684210Y-76616224D01*
X89547453Y-76672871D01*
X89477983Y-76680340D01*
X89452547Y-76672871D01*
X89406056Y-76653614D01*
X89315789Y-76616224D01*
X89315783Y-76616222D01*
X89156307Y-76584500D01*
X89156305Y-76584500D01*
X88993695Y-76584500D01*
X88993693Y-76584500D01*
X88834216Y-76616222D01*
X88834210Y-76616224D01*
X88697453Y-76672871D01*
X88627983Y-76680340D01*
X88602547Y-76672871D01*
X88556056Y-76653614D01*
X88465789Y-76616224D01*
X88465783Y-76616222D01*
X88306307Y-76584500D01*
X88306305Y-76584500D01*
X88143695Y-76584500D01*
X88143693Y-76584500D01*
X87984216Y-76616222D01*
X87984210Y-76616224D01*
X87847453Y-76672871D01*
X87777983Y-76680340D01*
X87752547Y-76672871D01*
X87706056Y-76653614D01*
X87615789Y-76616224D01*
X87615783Y-76616222D01*
X87456307Y-76584500D01*
X87456305Y-76584500D01*
X87293695Y-76584500D01*
X87293693Y-76584500D01*
X87134216Y-76616222D01*
X87134210Y-76616224D01*
X86997453Y-76672871D01*
X86927983Y-76680340D01*
X86902547Y-76672871D01*
X86856056Y-76653614D01*
X86765789Y-76616224D01*
X86765783Y-76616222D01*
X86606307Y-76584500D01*
X86606305Y-76584500D01*
X86443695Y-76584500D01*
X86443693Y-76584500D01*
X86284216Y-76616222D01*
X86284210Y-76616224D01*
X86147453Y-76672871D01*
X86077983Y-76680340D01*
X86052547Y-76672871D01*
X86006056Y-76653614D01*
X85915789Y-76616224D01*
X85915783Y-76616222D01*
X85756307Y-76584500D01*
X85756305Y-76584500D01*
X85593695Y-76584500D01*
X85593693Y-76584500D01*
X85434216Y-76616222D01*
X85434206Y-76616225D01*
X85283980Y-76678450D01*
X85283976Y-76678452D01*
X85148779Y-76768788D01*
X85148771Y-76768794D01*
X85033794Y-76883771D01*
X85033788Y-76883779D01*
X84943452Y-77018976D01*
X84943450Y-77018980D01*
X84881225Y-77169206D01*
X84881222Y-77169216D01*
X84849500Y-77328692D01*
X84849500Y-77328695D01*
X84849500Y-77491305D01*
X84849500Y-77491307D01*
X84849499Y-77491307D01*
X84881222Y-77650783D01*
X84881225Y-77650793D01*
X84943449Y-77801016D01*
X84943450Y-77801018D01*
X84953602Y-77816211D01*
X84974480Y-77882889D01*
X84974500Y-77885102D01*
X84974500Y-78284897D01*
X84954815Y-78351936D01*
X84953603Y-78353787D01*
X84943450Y-78368982D01*
X84881225Y-78519206D01*
X84881222Y-78519216D01*
X84849500Y-78678692D01*
X84849500Y-78678695D01*
X84849500Y-78841305D01*
X84849500Y-78841307D01*
X84849499Y-78841307D01*
X84881222Y-79000783D01*
X84881225Y-79000793D01*
X84943449Y-79151016D01*
X84943450Y-79151018D01*
X84953602Y-79166211D01*
X84974480Y-79232889D01*
X84974500Y-79235102D01*
X84974500Y-81506006D01*
X84974500Y-81643994D01*
X84974500Y-81643996D01*
X84974499Y-81643996D01*
X85001418Y-81779322D01*
X85001421Y-81779332D01*
X85054222Y-81906807D01*
X85130887Y-82021545D01*
X85130888Y-82021546D01*
X85482118Y-82372775D01*
X85515603Y-82434098D01*
X85516910Y-82479853D01*
X85499500Y-82589777D01*
X85499500Y-83010221D01*
X85533985Y-83227952D01*
X85602103Y-83437603D01*
X85602104Y-83437606D01*
X85670122Y-83571096D01*
X85697129Y-83624100D01*
X85702187Y-83634025D01*
X85831752Y-83812358D01*
X85831756Y-83812363D01*
X85831758Y-83812365D01*
X85987635Y-83968242D01*
X86148386Y-84085034D01*
X86191051Y-84140362D01*
X86199500Y-84185351D01*
X86199500Y-88673379D01*
X86179815Y-88740418D01*
X86127011Y-88786173D01*
X86109837Y-88792530D01*
X86106680Y-88793439D01*
X85841588Y-88886200D01*
X85588557Y-89008053D01*
X85350753Y-89157476D01*
X85131175Y-89332583D01*
X84932583Y-89531175D01*
X84757476Y-89750753D01*
X84608053Y-89988557D01*
X84486200Y-90241588D01*
X84393443Y-90506670D01*
X84393439Y-90506682D01*
X84330945Y-90780487D01*
X84330942Y-90780505D01*
X84299500Y-91059568D01*
X84299500Y-91340431D01*
X84330942Y-91619494D01*
X84330945Y-91619512D01*
X84393439Y-91893317D01*
X84393443Y-91893329D01*
X84486200Y-92158411D01*
X84608053Y-92411442D01*
X84608055Y-92411445D01*
X84757477Y-92649248D01*
X84932584Y-92868825D01*
X85131175Y-93067416D01*
X85350752Y-93242523D01*
X85588555Y-93391945D01*
X85841592Y-93513801D01*
X86040680Y-93583465D01*
X86106670Y-93606556D01*
X86106682Y-93606560D01*
X86380491Y-93669055D01*
X86380497Y-93669055D01*
X86380505Y-93669057D01*
X86566547Y-93690018D01*
X86659569Y-93700499D01*
X86659572Y-93700500D01*
X86659575Y-93700500D01*
X86940428Y-93700500D01*
X86940429Y-93700499D01*
X87083055Y-93684429D01*
X87219494Y-93669057D01*
X87219499Y-93669056D01*
X87219509Y-93669055D01*
X87493318Y-93606560D01*
X87758408Y-93513801D01*
X88011445Y-93391945D01*
X88249248Y-93242523D01*
X88468825Y-93067416D01*
X88667416Y-92868825D01*
X88842523Y-92649248D01*
X88991945Y-92411445D01*
X89113801Y-92158408D01*
X89206560Y-91893318D01*
X89269055Y-91619509D01*
X89300500Y-91340425D01*
X89300500Y-91059575D01*
X89269055Y-90780491D01*
X89206560Y-90506682D01*
X89113801Y-90241592D01*
X88991945Y-89988555D01*
X88842523Y-89750752D01*
X88667416Y-89531175D01*
X88468825Y-89332584D01*
X88249248Y-89157477D01*
X88011445Y-89008055D01*
X88011442Y-89008053D01*
X87758415Y-88886202D01*
X87758406Y-88886198D01*
X87683544Y-88860002D01*
X87626768Y-88819280D01*
X87601022Y-88754327D01*
X87600500Y-88742961D01*
X87600500Y-84185351D01*
X87620185Y-84118312D01*
X87651611Y-84085035D01*
X87812365Y-83968242D01*
X87968242Y-83812365D01*
X87978804Y-83797826D01*
X88069682Y-83672745D01*
X88125011Y-83630079D01*
X88194625Y-83624100D01*
X88256420Y-83656705D01*
X88270318Y-83672745D01*
X88371752Y-83812358D01*
X88371756Y-83812363D01*
X88527636Y-83968243D01*
X88527641Y-83968247D01*
X88683192Y-84081260D01*
X88705978Y-84097815D01*
X88834375Y-84163237D01*
X88902393Y-84197895D01*
X88902396Y-84197896D01*
X89007221Y-84231955D01*
X89112049Y-84266015D01*
X89329778Y-84300500D01*
X89329779Y-84300500D01*
X89550221Y-84300500D01*
X89550222Y-84300500D01*
X89767951Y-84266015D01*
X89977606Y-84197895D01*
X90174022Y-84097815D01*
X90352365Y-83968242D01*
X90508242Y-83812365D01*
X90518804Y-83797826D01*
X90609682Y-83672745D01*
X90665011Y-83630079D01*
X90734625Y-83624100D01*
X90796420Y-83656705D01*
X90810318Y-83672745D01*
X90911752Y-83812358D01*
X90911756Y-83812363D01*
X91067636Y-83968243D01*
X91067641Y-83968247D01*
X91223192Y-84081260D01*
X91245978Y-84097815D01*
X91374375Y-84163237D01*
X91442393Y-84197895D01*
X91442396Y-84197896D01*
X91547221Y-84231955D01*
X91652049Y-84266015D01*
X91869778Y-84300500D01*
X91869779Y-84300500D01*
X92090221Y-84300500D01*
X92090222Y-84300500D01*
X92307951Y-84266015D01*
X92517606Y-84197895D01*
X92714022Y-84097815D01*
X92892365Y-83968242D01*
X93048242Y-83812365D01*
X93058804Y-83797826D01*
X93149682Y-83672745D01*
X93205011Y-83630079D01*
X93274625Y-83624100D01*
X93336420Y-83656705D01*
X93350318Y-83672745D01*
X93451752Y-83812358D01*
X93451756Y-83812363D01*
X93607636Y-83968243D01*
X93607641Y-83968247D01*
X93763192Y-84081260D01*
X93785978Y-84097815D01*
X93914375Y-84163237D01*
X93982393Y-84197895D01*
X93982396Y-84197896D01*
X94087221Y-84231955D01*
X94192049Y-84266015D01*
X94409778Y-84300500D01*
X94409779Y-84300500D01*
X94630221Y-84300500D01*
X94630222Y-84300500D01*
X94847951Y-84266015D01*
X95057606Y-84197895D01*
X95254022Y-84097815D01*
X95432365Y-83968242D01*
X95588242Y-83812365D01*
X95598804Y-83797826D01*
X95689682Y-83672745D01*
X95745011Y-83630079D01*
X95814625Y-83624100D01*
X95876420Y-83656705D01*
X95890318Y-83672745D01*
X95991752Y-83812358D01*
X95991756Y-83812363D01*
X96147636Y-83968243D01*
X96147641Y-83968247D01*
X96303192Y-84081260D01*
X96325978Y-84097815D01*
X96454375Y-84163237D01*
X96522393Y-84197895D01*
X96522396Y-84197896D01*
X96627221Y-84231955D01*
X96732049Y-84266015D01*
X96949778Y-84300500D01*
X96949779Y-84300500D01*
X97170221Y-84300500D01*
X97170222Y-84300500D01*
X97387951Y-84266015D01*
X97597606Y-84197895D01*
X97794022Y-84097815D01*
X97972365Y-83968242D01*
X98128242Y-83812365D01*
X98138804Y-83797826D01*
X98229682Y-83672745D01*
X98285011Y-83630079D01*
X98354625Y-83624100D01*
X98416420Y-83656705D01*
X98430318Y-83672745D01*
X98531752Y-83812358D01*
X98531756Y-83812363D01*
X98687636Y-83968243D01*
X98687641Y-83968247D01*
X98843192Y-84081260D01*
X98865978Y-84097815D01*
X98994375Y-84163237D01*
X99062393Y-84197895D01*
X99062396Y-84197896D01*
X99167221Y-84231955D01*
X99272049Y-84266015D01*
X99489778Y-84300500D01*
X99489779Y-84300500D01*
X99710221Y-84300500D01*
X99710222Y-84300500D01*
X99927951Y-84266015D01*
X100137606Y-84197895D01*
X100334022Y-84097815D01*
X100512365Y-83968242D01*
X100668242Y-83812365D01*
X100678804Y-83797826D01*
X100769682Y-83672745D01*
X100825011Y-83630079D01*
X100894625Y-83624100D01*
X100956420Y-83656705D01*
X100970318Y-83672745D01*
X101071752Y-83812358D01*
X101071756Y-83812363D01*
X101227636Y-83968243D01*
X101227641Y-83968247D01*
X101383192Y-84081260D01*
X101405978Y-84097815D01*
X101534375Y-84163237D01*
X101602393Y-84197895D01*
X101602396Y-84197896D01*
X101707221Y-84231955D01*
X101812049Y-84266015D01*
X102029778Y-84300500D01*
X102029779Y-84300500D01*
X102250221Y-84300500D01*
X102250222Y-84300500D01*
X102467951Y-84266015D01*
X102677606Y-84197895D01*
X102874022Y-84097815D01*
X103052365Y-83968242D01*
X103208242Y-83812365D01*
X103218804Y-83797826D01*
X103309682Y-83672745D01*
X103365011Y-83630079D01*
X103434625Y-83624100D01*
X103496420Y-83656705D01*
X103510318Y-83672745D01*
X103611752Y-83812358D01*
X103611756Y-83812363D01*
X103767636Y-83968243D01*
X103767641Y-83968247D01*
X103923192Y-84081260D01*
X103945978Y-84097815D01*
X104074375Y-84163237D01*
X104142393Y-84197895D01*
X104142396Y-84197896D01*
X104247221Y-84231955D01*
X104352049Y-84266015D01*
X104569778Y-84300500D01*
X104569779Y-84300500D01*
X104790221Y-84300500D01*
X104790222Y-84300500D01*
X105007951Y-84266015D01*
X105217606Y-84197895D01*
X105414022Y-84097815D01*
X105592365Y-83968242D01*
X105748242Y-83812365D01*
X105758804Y-83797826D01*
X105849682Y-83672745D01*
X105905011Y-83630079D01*
X105974625Y-83624100D01*
X106036420Y-83656705D01*
X106050318Y-83672745D01*
X106151752Y-83812358D01*
X106151756Y-83812363D01*
X106307636Y-83968243D01*
X106307641Y-83968247D01*
X106463192Y-84081260D01*
X106485978Y-84097815D01*
X106614375Y-84163237D01*
X106682393Y-84197895D01*
X106682396Y-84197896D01*
X106787221Y-84231955D01*
X106892049Y-84266015D01*
X107109778Y-84300500D01*
X107109779Y-84300500D01*
X107330221Y-84300500D01*
X107330222Y-84300500D01*
X107547951Y-84266015D01*
X107757606Y-84197895D01*
X107954022Y-84097815D01*
X108132365Y-83968242D01*
X108288242Y-83812365D01*
X108298804Y-83797826D01*
X108389682Y-83672745D01*
X108445011Y-83630079D01*
X108514625Y-83624100D01*
X108576420Y-83656705D01*
X108590318Y-83672745D01*
X108691752Y-83812358D01*
X108691756Y-83812363D01*
X108847636Y-83968243D01*
X108847641Y-83968247D01*
X109025976Y-84097814D01*
X109091794Y-84131350D01*
X109142591Y-84179324D01*
X109159500Y-84241835D01*
X109159500Y-87173330D01*
X109159499Y-87173348D01*
X109159499Y-87339054D01*
X109159498Y-87339054D01*
X109200423Y-87491785D01*
X109229358Y-87541900D01*
X109229359Y-87541904D01*
X109229360Y-87541904D01*
X109255800Y-87587701D01*
X109279479Y-87628714D01*
X109279481Y-87628717D01*
X109398349Y-87747585D01*
X109398355Y-87747590D01*
X116363181Y-94712416D01*
X116396666Y-94773739D01*
X116399500Y-94800097D01*
X116399500Y-102184626D01*
X116379815Y-102251665D01*
X116327011Y-102297420D01*
X116257853Y-102307364D01*
X116194297Y-102278339D01*
X116157569Y-102222944D01*
X116137896Y-102162396D01*
X116137895Y-102162393D01*
X116103237Y-102094375D01*
X116037815Y-101965978D01*
X116009681Y-101927254D01*
X115908247Y-101787641D01*
X115908243Y-101787636D01*
X115752363Y-101631756D01*
X115752358Y-101631752D01*
X115574025Y-101502187D01*
X115574024Y-101502186D01*
X115574022Y-101502185D01*
X115511096Y-101470122D01*
X115377606Y-101402104D01*
X115377603Y-101402103D01*
X115167952Y-101333985D01*
X115059086Y-101316742D01*
X114950222Y-101299500D01*
X114729778Y-101299500D01*
X114657201Y-101310995D01*
X114512047Y-101333985D01*
X114302396Y-101402103D01*
X114302393Y-101402104D01*
X114105974Y-101502187D01*
X113927641Y-101631752D01*
X113927636Y-101631756D01*
X113771756Y-101787636D01*
X113771752Y-101787641D01*
X113670318Y-101927254D01*
X113614988Y-101969920D01*
X113545375Y-101975899D01*
X113483580Y-101943293D01*
X113469682Y-101927254D01*
X113368247Y-101787641D01*
X113368243Y-101787636D01*
X113212363Y-101631756D01*
X113212358Y-101631752D01*
X113034025Y-101502187D01*
X113034024Y-101502186D01*
X113034022Y-101502185D01*
X112971096Y-101470122D01*
X112837606Y-101402104D01*
X112837603Y-101402103D01*
X112627952Y-101333985D01*
X112519086Y-101316742D01*
X112410222Y-101299500D01*
X112189778Y-101299500D01*
X112117201Y-101310995D01*
X111972047Y-101333985D01*
X111762396Y-101402103D01*
X111762393Y-101402104D01*
X111565974Y-101502187D01*
X111387641Y-101631752D01*
X111387636Y-101631756D01*
X111231756Y-101787636D01*
X111231752Y-101787641D01*
X111130318Y-101927254D01*
X111074988Y-101969920D01*
X111005375Y-101975899D01*
X110943580Y-101943293D01*
X110929682Y-101927254D01*
X110828247Y-101787641D01*
X110828243Y-101787636D01*
X110672363Y-101631756D01*
X110672358Y-101631752D01*
X110494025Y-101502187D01*
X110494024Y-101502186D01*
X110494022Y-101502185D01*
X110431096Y-101470122D01*
X110297606Y-101402104D01*
X110297603Y-101402103D01*
X110087952Y-101333985D01*
X109979086Y-101316742D01*
X109870222Y-101299500D01*
X109649778Y-101299500D01*
X109577201Y-101310995D01*
X109432047Y-101333985D01*
X109222396Y-101402103D01*
X109222393Y-101402104D01*
X109025974Y-101502187D01*
X108847641Y-101631752D01*
X108847636Y-101631756D01*
X108691756Y-101787636D01*
X108691752Y-101787641D01*
X108590318Y-101927254D01*
X108534988Y-101969920D01*
X108465375Y-101975899D01*
X108403580Y-101943293D01*
X108389682Y-101927254D01*
X108288247Y-101787641D01*
X108288243Y-101787636D01*
X108132363Y-101631756D01*
X108132358Y-101631752D01*
X107954025Y-101502187D01*
X107954024Y-101502186D01*
X107954022Y-101502185D01*
X107891096Y-101470122D01*
X107757606Y-101402104D01*
X107757603Y-101402103D01*
X107547952Y-101333985D01*
X107439086Y-101316742D01*
X107330222Y-101299500D01*
X107109778Y-101299500D01*
X107037201Y-101310995D01*
X106892047Y-101333985D01*
X106682396Y-101402103D01*
X106682393Y-101402104D01*
X106485974Y-101502187D01*
X106307641Y-101631752D01*
X106307636Y-101631756D01*
X106151756Y-101787636D01*
X106151752Y-101787641D01*
X106050318Y-101927254D01*
X105994988Y-101969920D01*
X105925375Y-101975899D01*
X105863580Y-101943293D01*
X105849682Y-101927254D01*
X105748247Y-101787641D01*
X105748243Y-101787636D01*
X105592363Y-101631756D01*
X105592358Y-101631752D01*
X105414025Y-101502187D01*
X105414024Y-101502186D01*
X105414022Y-101502185D01*
X105351096Y-101470122D01*
X105217606Y-101402104D01*
X105217603Y-101402103D01*
X105007952Y-101333985D01*
X104899086Y-101316742D01*
X104790222Y-101299500D01*
X104569778Y-101299500D01*
X104497201Y-101310995D01*
X104352047Y-101333985D01*
X104142396Y-101402103D01*
X104142393Y-101402104D01*
X103945974Y-101502187D01*
X103767641Y-101631752D01*
X103767636Y-101631756D01*
X103611756Y-101787636D01*
X103611752Y-101787641D01*
X103510318Y-101927254D01*
X103454988Y-101969920D01*
X103385375Y-101975899D01*
X103323580Y-101943293D01*
X103309682Y-101927254D01*
X103208247Y-101787641D01*
X103208243Y-101787636D01*
X103052363Y-101631756D01*
X103052358Y-101631752D01*
X102874025Y-101502187D01*
X102874024Y-101502186D01*
X102874022Y-101502185D01*
X102811096Y-101470122D01*
X102677606Y-101402104D01*
X102677603Y-101402103D01*
X102467952Y-101333985D01*
X102359086Y-101316742D01*
X102250222Y-101299500D01*
X102029778Y-101299500D01*
X101957201Y-101310995D01*
X101812047Y-101333985D01*
X101602396Y-101402103D01*
X101602393Y-101402104D01*
X101405974Y-101502187D01*
X101227641Y-101631752D01*
X101227636Y-101631756D01*
X101071756Y-101787636D01*
X101071752Y-101787641D01*
X100970318Y-101927254D01*
X100914988Y-101969920D01*
X100845375Y-101975899D01*
X100783580Y-101943293D01*
X100769682Y-101927254D01*
X100668247Y-101787641D01*
X100668243Y-101787636D01*
X100512363Y-101631756D01*
X100512358Y-101631752D01*
X100334025Y-101502187D01*
X100334024Y-101502186D01*
X100334022Y-101502185D01*
X100271096Y-101470122D01*
X100137606Y-101402104D01*
X100137603Y-101402103D01*
X99927952Y-101333985D01*
X99819086Y-101316742D01*
X99710222Y-101299500D01*
X99489778Y-101299500D01*
X99417201Y-101310995D01*
X99272047Y-101333985D01*
X99062396Y-101402103D01*
X99062393Y-101402104D01*
X98865974Y-101502187D01*
X98687641Y-101631752D01*
X98687636Y-101631756D01*
X98531756Y-101787636D01*
X98531752Y-101787641D01*
X98430318Y-101927254D01*
X98374988Y-101969920D01*
X98305375Y-101975899D01*
X98243580Y-101943293D01*
X98229682Y-101927254D01*
X98128247Y-101787641D01*
X98128243Y-101787636D01*
X97972363Y-101631756D01*
X97972358Y-101631752D01*
X97794025Y-101502187D01*
X97794024Y-101502186D01*
X97794022Y-101502185D01*
X97731096Y-101470122D01*
X97597606Y-101402104D01*
X97597603Y-101402103D01*
X97387952Y-101333985D01*
X97279086Y-101316742D01*
X97170222Y-101299500D01*
X96949778Y-101299500D01*
X96877201Y-101310995D01*
X96732047Y-101333985D01*
X96522396Y-101402103D01*
X96522393Y-101402104D01*
X96325974Y-101502187D01*
X96147641Y-101631752D01*
X96147636Y-101631756D01*
X95991756Y-101787636D01*
X95991752Y-101787641D01*
X95890318Y-101927254D01*
X95834988Y-101969920D01*
X95765375Y-101975899D01*
X95703580Y-101943293D01*
X95689682Y-101927254D01*
X95588247Y-101787641D01*
X95588243Y-101787636D01*
X95432363Y-101631756D01*
X95432358Y-101631752D01*
X95254025Y-101502187D01*
X95254024Y-101502186D01*
X95254022Y-101502185D01*
X95191096Y-101470122D01*
X95057606Y-101402104D01*
X95057603Y-101402103D01*
X94847952Y-101333985D01*
X94739086Y-101316742D01*
X94630222Y-101299500D01*
X94409778Y-101299500D01*
X94337201Y-101310995D01*
X94192047Y-101333985D01*
X93982396Y-101402103D01*
X93982393Y-101402104D01*
X93785974Y-101502187D01*
X93607641Y-101631752D01*
X93607636Y-101631756D01*
X93451756Y-101787636D01*
X93451752Y-101787641D01*
X93350318Y-101927254D01*
X93294988Y-101969920D01*
X93225375Y-101975899D01*
X93163580Y-101943293D01*
X93149682Y-101927254D01*
X93048247Y-101787641D01*
X93048243Y-101787636D01*
X92892363Y-101631756D01*
X92892358Y-101631752D01*
X92714025Y-101502187D01*
X92714024Y-101502186D01*
X92714022Y-101502185D01*
X92651096Y-101470122D01*
X92517606Y-101402104D01*
X92517603Y-101402103D01*
X92307952Y-101333985D01*
X92199086Y-101316742D01*
X92090222Y-101299500D01*
X91869778Y-101299500D01*
X91797201Y-101310995D01*
X91652047Y-101333985D01*
X91442396Y-101402103D01*
X91442393Y-101402104D01*
X91245974Y-101502187D01*
X91067641Y-101631752D01*
X91067636Y-101631756D01*
X90911756Y-101787636D01*
X90911752Y-101787641D01*
X90810318Y-101927254D01*
X90754988Y-101969920D01*
X90685375Y-101975899D01*
X90623580Y-101943293D01*
X90609682Y-101927254D01*
X90508247Y-101787641D01*
X90508243Y-101787636D01*
X90352363Y-101631756D01*
X90352358Y-101631752D01*
X90174025Y-101502187D01*
X90174024Y-101502186D01*
X90174022Y-101502185D01*
X90111096Y-101470122D01*
X89977606Y-101402104D01*
X89977603Y-101402103D01*
X89767952Y-101333985D01*
X89659086Y-101316742D01*
X89550222Y-101299500D01*
X89329778Y-101299500D01*
X89257201Y-101310995D01*
X89112047Y-101333985D01*
X88902396Y-101402103D01*
X88902393Y-101402104D01*
X88705974Y-101502187D01*
X88527641Y-101631752D01*
X88527636Y-101631756D01*
X88371756Y-101787636D01*
X88371752Y-101787641D01*
X88270318Y-101927254D01*
X88214988Y-101969920D01*
X88145375Y-101975899D01*
X88083580Y-101943293D01*
X88069682Y-101927254D01*
X87968247Y-101787641D01*
X87968243Y-101787636D01*
X87812363Y-101631756D01*
X87812358Y-101631752D01*
X87634025Y-101502187D01*
X87634024Y-101502186D01*
X87634022Y-101502185D01*
X87571096Y-101470122D01*
X87437606Y-101402104D01*
X87437603Y-101402103D01*
X87227952Y-101333985D01*
X87119086Y-101316742D01*
X87010222Y-101299500D01*
X86789778Y-101299500D01*
X86717201Y-101310995D01*
X86572047Y-101333985D01*
X86362396Y-101402103D01*
X86362393Y-101402104D01*
X86165974Y-101502187D01*
X85987641Y-101631752D01*
X85987636Y-101631756D01*
X85831756Y-101787636D01*
X85831752Y-101787641D01*
X85702187Y-101965974D01*
X85602104Y-102162393D01*
X85602103Y-102162396D01*
X85533985Y-102372047D01*
X85499500Y-102589778D01*
X85499500Y-103010221D01*
X85533985Y-103227952D01*
X85602103Y-103437603D01*
X85602104Y-103437606D01*
X85666105Y-103563211D01*
X85697129Y-103624100D01*
X85702187Y-103634025D01*
X85831752Y-103812358D01*
X85831756Y-103812363D01*
X85987636Y-103968243D01*
X85987641Y-103968247D01*
X86104830Y-104053389D01*
X86165978Y-104097815D01*
X86294375Y-104163237D01*
X86362393Y-104197895D01*
X86362396Y-104197896D01*
X86426318Y-104218665D01*
X86572049Y-104266015D01*
X86789778Y-104300500D01*
X86789779Y-104300500D01*
X87010221Y-104300500D01*
X87010222Y-104300500D01*
X87227951Y-104266015D01*
X87437606Y-104197895D01*
X87634022Y-104097815D01*
X87812365Y-103968242D01*
X87968242Y-103812365D01*
X87978804Y-103797826D01*
X88069682Y-103672745D01*
X88125011Y-103630079D01*
X88194625Y-103624100D01*
X88256420Y-103656705D01*
X88270318Y-103672745D01*
X88371752Y-103812358D01*
X88371756Y-103812363D01*
X88527636Y-103968243D01*
X88527641Y-103968247D01*
X88644830Y-104053389D01*
X88705978Y-104097815D01*
X88834375Y-104163237D01*
X88902393Y-104197895D01*
X88902396Y-104197896D01*
X88966318Y-104218665D01*
X89112049Y-104266015D01*
X89329778Y-104300500D01*
X89329779Y-104300500D01*
X89550221Y-104300500D01*
X89550222Y-104300500D01*
X89767951Y-104266015D01*
X89977606Y-104197895D01*
X90174022Y-104097815D01*
X90352365Y-103968242D01*
X90508242Y-103812365D01*
X90518804Y-103797826D01*
X90609682Y-103672745D01*
X90665011Y-103630079D01*
X90734625Y-103624100D01*
X90796420Y-103656705D01*
X90810318Y-103672745D01*
X90911752Y-103812358D01*
X90911756Y-103812363D01*
X91067636Y-103968243D01*
X91067641Y-103968247D01*
X91184830Y-104053389D01*
X91245978Y-104097815D01*
X91374375Y-104163237D01*
X91442393Y-104197895D01*
X91442396Y-104197896D01*
X91506318Y-104218665D01*
X91652049Y-104266015D01*
X91869778Y-104300500D01*
X91869779Y-104300500D01*
X92090221Y-104300500D01*
X92090222Y-104300500D01*
X92307951Y-104266015D01*
X92517606Y-104197895D01*
X92714022Y-104097815D01*
X92892365Y-103968242D01*
X93048242Y-103812365D01*
X93058804Y-103797826D01*
X93149682Y-103672745D01*
X93205011Y-103630079D01*
X93274625Y-103624100D01*
X93336420Y-103656705D01*
X93350318Y-103672745D01*
X93451752Y-103812358D01*
X93451756Y-103812363D01*
X93607636Y-103968243D01*
X93607641Y-103968247D01*
X93724830Y-104053389D01*
X93785978Y-104097815D01*
X93914375Y-104163237D01*
X93982393Y-104197895D01*
X93982396Y-104197896D01*
X94046318Y-104218665D01*
X94192049Y-104266015D01*
X94409778Y-104300500D01*
X94409779Y-104300500D01*
X94630221Y-104300500D01*
X94630222Y-104300500D01*
X94847951Y-104266015D01*
X95057606Y-104197895D01*
X95254022Y-104097815D01*
X95432365Y-103968242D01*
X95588242Y-103812365D01*
X95598804Y-103797826D01*
X95689682Y-103672745D01*
X95745011Y-103630079D01*
X95814625Y-103624100D01*
X95876420Y-103656705D01*
X95890318Y-103672745D01*
X95991752Y-103812358D01*
X95991756Y-103812363D01*
X96147636Y-103968243D01*
X96147641Y-103968247D01*
X96264830Y-104053389D01*
X96325978Y-104097815D01*
X96454375Y-104163237D01*
X96522393Y-104197895D01*
X96522396Y-104197896D01*
X96586318Y-104218665D01*
X96732049Y-104266015D01*
X96949778Y-104300500D01*
X96949779Y-104300500D01*
X97170221Y-104300500D01*
X97170222Y-104300500D01*
X97387951Y-104266015D01*
X97597606Y-104197895D01*
X97794022Y-104097815D01*
X97972365Y-103968242D01*
X98128242Y-103812365D01*
X98138804Y-103797826D01*
X98229682Y-103672745D01*
X98285011Y-103630079D01*
X98354625Y-103624100D01*
X98416420Y-103656705D01*
X98430318Y-103672745D01*
X98531752Y-103812358D01*
X98531756Y-103812363D01*
X98687636Y-103968243D01*
X98687641Y-103968247D01*
X98804830Y-104053389D01*
X98865978Y-104097815D01*
X98994375Y-104163237D01*
X99062393Y-104197895D01*
X99062396Y-104197896D01*
X99126318Y-104218665D01*
X99272049Y-104266015D01*
X99489778Y-104300500D01*
X99489779Y-104300500D01*
X99710221Y-104300500D01*
X99710222Y-104300500D01*
X99927951Y-104266015D01*
X100137606Y-104197895D01*
X100334022Y-104097815D01*
X100512365Y-103968242D01*
X100668242Y-103812365D01*
X100678804Y-103797826D01*
X100769682Y-103672745D01*
X100825011Y-103630079D01*
X100894625Y-103624100D01*
X100956420Y-103656705D01*
X100970318Y-103672745D01*
X101071752Y-103812358D01*
X101071756Y-103812363D01*
X101227636Y-103968243D01*
X101227641Y-103968247D01*
X101344830Y-104053389D01*
X101405978Y-104097815D01*
X101534375Y-104163237D01*
X101602393Y-104197895D01*
X101602396Y-104197896D01*
X101666318Y-104218665D01*
X101812049Y-104266015D01*
X102029778Y-104300500D01*
X102029779Y-104300500D01*
X102030901Y-104300500D01*
X102031312Y-104300620D01*
X102034641Y-104300883D01*
X102034585Y-104301582D01*
X102097940Y-104320185D01*
X102143695Y-104372989D01*
X102153639Y-104442147D01*
X102124614Y-104505703D01*
X102118582Y-104512181D01*
X100517584Y-106113181D01*
X100456261Y-106146666D01*
X100429903Y-106149500D01*
X99079766Y-106149500D01*
X99012727Y-106129815D01*
X99010875Y-106128602D01*
X98879185Y-106040609D01*
X98879172Y-106040602D01*
X98733501Y-105980264D01*
X98733489Y-105980261D01*
X98578845Y-105949500D01*
X98578842Y-105949500D01*
X98421158Y-105949500D01*
X98421155Y-105949500D01*
X98266510Y-105980261D01*
X98266498Y-105980264D01*
X98120827Y-106040602D01*
X98120814Y-106040609D01*
X97989711Y-106128210D01*
X97989707Y-106128213D01*
X97878213Y-106239707D01*
X97878210Y-106239711D01*
X97790609Y-106370814D01*
X97790602Y-106370827D01*
X97730264Y-106516498D01*
X97730261Y-106516510D01*
X97699500Y-106671153D01*
X97699500Y-106828846D01*
X97730261Y-106983489D01*
X97730264Y-106983501D01*
X97790602Y-107129172D01*
X97790609Y-107129185D01*
X97878210Y-107260288D01*
X97878213Y-107260292D01*
X97989707Y-107371786D01*
X97989711Y-107371789D01*
X98120814Y-107459390D01*
X98120827Y-107459397D01*
X98266498Y-107519735D01*
X98266503Y-107519737D01*
X98421153Y-107550499D01*
X98421156Y-107550500D01*
X98421158Y-107550500D01*
X98578844Y-107550500D01*
X98578845Y-107550499D01*
X98733497Y-107519737D01*
X98872523Y-107462151D01*
X98879172Y-107459397D01*
X98879172Y-107459396D01*
X98879179Y-107459394D01*
X98879185Y-107459390D01*
X99010875Y-107371398D01*
X99077553Y-107350520D01*
X99079766Y-107350500D01*
X100643331Y-107350500D01*
X100643347Y-107350501D01*
X100650943Y-107350501D01*
X100809054Y-107350501D01*
X100809057Y-107350501D01*
X100961785Y-107309577D01*
X101014647Y-107279057D01*
X101014648Y-107279057D01*
X101098709Y-107230524D01*
X101098708Y-107230524D01*
X101098716Y-107230520D01*
X101210520Y-107118716D01*
X101210520Y-107118714D01*
X101220724Y-107108511D01*
X101220727Y-107108506D01*
X104080321Y-104248913D01*
X104141642Y-104215430D01*
X104206318Y-104218665D01*
X104352049Y-104266015D01*
X104569778Y-104300500D01*
X104569779Y-104300500D01*
X104790221Y-104300500D01*
X104790222Y-104300500D01*
X105007951Y-104266015D01*
X105217606Y-104197895D01*
X105414022Y-104097815D01*
X105592365Y-103968242D01*
X105748242Y-103812365D01*
X105758804Y-103797826D01*
X105849682Y-103672745D01*
X105905011Y-103630079D01*
X105974625Y-103624100D01*
X106036420Y-103656705D01*
X106050318Y-103672745D01*
X106151752Y-103812358D01*
X106151756Y-103812363D01*
X106307636Y-103968243D01*
X106307641Y-103968247D01*
X106424830Y-104053389D01*
X106485978Y-104097815D01*
X106614375Y-104163237D01*
X106682393Y-104197895D01*
X106682396Y-104197896D01*
X106746318Y-104218665D01*
X106892049Y-104266015D01*
X107109778Y-104300500D01*
X107109779Y-104300500D01*
X107330221Y-104300500D01*
X107330222Y-104300500D01*
X107547951Y-104266015D01*
X107757606Y-104197895D01*
X107954022Y-104097815D01*
X108132365Y-103968242D01*
X108288242Y-103812365D01*
X108298804Y-103797826D01*
X108389682Y-103672745D01*
X108445011Y-103630079D01*
X108514625Y-103624100D01*
X108576420Y-103656705D01*
X108590318Y-103672745D01*
X108691752Y-103812358D01*
X108691756Y-103812363D01*
X108847636Y-103968243D01*
X108847641Y-103968247D01*
X108964830Y-104053389D01*
X109025978Y-104097815D01*
X109154375Y-104163237D01*
X109222393Y-104197895D01*
X109222396Y-104197896D01*
X109286318Y-104218665D01*
X109432049Y-104266015D01*
X109649778Y-104300500D01*
X109649779Y-104300500D01*
X109870221Y-104300500D01*
X109870222Y-104300500D01*
X110087951Y-104266015D01*
X110297606Y-104197895D01*
X110494022Y-104097815D01*
X110672365Y-103968242D01*
X110828242Y-103812365D01*
X110838804Y-103797826D01*
X110929682Y-103672745D01*
X110985011Y-103630079D01*
X111054625Y-103624100D01*
X111116420Y-103656705D01*
X111130318Y-103672745D01*
X111231752Y-103812358D01*
X111231756Y-103812363D01*
X111387636Y-103968243D01*
X111387641Y-103968247D01*
X111504830Y-104053389D01*
X111565978Y-104097815D01*
X111694375Y-104163237D01*
X111762393Y-104197895D01*
X111762396Y-104197896D01*
X111826318Y-104218665D01*
X111972049Y-104266015D01*
X112189778Y-104300500D01*
X112189779Y-104300500D01*
X112410221Y-104300500D01*
X112410222Y-104300500D01*
X112627951Y-104266015D01*
X112837606Y-104197895D01*
X113034022Y-104097815D01*
X113212365Y-103968242D01*
X113368242Y-103812365D01*
X113378804Y-103797826D01*
X113469682Y-103672745D01*
X113525011Y-103630079D01*
X113594625Y-103624100D01*
X113656420Y-103656705D01*
X113670318Y-103672745D01*
X113771752Y-103812358D01*
X113771756Y-103812363D01*
X113927636Y-103968243D01*
X113927641Y-103968247D01*
X114044830Y-104053389D01*
X114105978Y-104097815D01*
X114234375Y-104163237D01*
X114302393Y-104197895D01*
X114302396Y-104197896D01*
X114390774Y-104226611D01*
X114512049Y-104266015D01*
X114512055Y-104266016D01*
X114516642Y-104267117D01*
X114577238Y-104301901D01*
X114609408Y-104363924D01*
X114602940Y-104433494D01*
X114575389Y-104475375D01*
X113169481Y-105881282D01*
X113169479Y-105881284D01*
X113141797Y-105929232D01*
X113130096Y-105949500D01*
X113090423Y-106018215D01*
X113049499Y-106170943D01*
X113049499Y-106170945D01*
X113049499Y-106339046D01*
X113049500Y-106339059D01*
X113049500Y-107720234D01*
X113029815Y-107787273D01*
X113028602Y-107789125D01*
X112940609Y-107920814D01*
X112940602Y-107920827D01*
X112880264Y-108066498D01*
X112880261Y-108066510D01*
X112849500Y-108221153D01*
X112849500Y-108378846D01*
X112880261Y-108533489D01*
X112880264Y-108533501D01*
X112940602Y-108679172D01*
X112940609Y-108679185D01*
X113028210Y-108810288D01*
X113028213Y-108810292D01*
X113139707Y-108921786D01*
X113139711Y-108921789D01*
X113270814Y-109009390D01*
X113270827Y-109009397D01*
X113416498Y-109069735D01*
X113416503Y-109069737D01*
X113566126Y-109099499D01*
X113571153Y-109100499D01*
X113571156Y-109100500D01*
X113571158Y-109100500D01*
X113728844Y-109100500D01*
X113728845Y-109100499D01*
X113883497Y-109069737D01*
X114029179Y-109009394D01*
X114160289Y-108921789D01*
X114271789Y-108810289D01*
X114359394Y-108679179D01*
X114419737Y-108533497D01*
X114450500Y-108378842D01*
X114450500Y-108221158D01*
X114450500Y-108221155D01*
X114450499Y-108221153D01*
X114434460Y-108140520D01*
X114419737Y-108066503D01*
X114404085Y-108028716D01*
X114359397Y-107920827D01*
X114359390Y-107920814D01*
X114271398Y-107789125D01*
X114250520Y-107722447D01*
X114250500Y-107720234D01*
X114250500Y-106550096D01*
X114270185Y-106483057D01*
X114286814Y-106462420D01*
X117287819Y-103461414D01*
X117349142Y-103427930D01*
X117418834Y-103432914D01*
X117474767Y-103474786D01*
X117499184Y-103540250D01*
X117499500Y-103549096D01*
X117499500Y-112249902D01*
X117479815Y-112316941D01*
X117463181Y-112337583D01*
X114785339Y-115015425D01*
X114724016Y-115048910D01*
X114721850Y-115049361D01*
X114566508Y-115080261D01*
X114566498Y-115080264D01*
X114420827Y-115140602D01*
X114420814Y-115140609D01*
X114289711Y-115228210D01*
X114289707Y-115228213D01*
X114178213Y-115339707D01*
X114178210Y-115339711D01*
X114090609Y-115470814D01*
X114090602Y-115470827D01*
X114030264Y-115616498D01*
X114030261Y-115616510D01*
X113999500Y-115771153D01*
X113999500Y-115771158D01*
X113999500Y-115928842D01*
X113999500Y-115928844D01*
X113999499Y-115928844D01*
X114023661Y-116050308D01*
X114017434Y-116119900D01*
X113974571Y-116175077D01*
X113908681Y-116198322D01*
X113902044Y-116198500D01*
X99074500Y-116198500D01*
X99007461Y-116178815D01*
X98961706Y-116126011D01*
X98950500Y-116074500D01*
X98950500Y-113624146D01*
X98950501Y-113624133D01*
X98950501Y-113456030D01*
X98909576Y-113303300D01*
X98909573Y-113303295D01*
X98830524Y-113166376D01*
X98830518Y-113166368D01*
X92918319Y-107254169D01*
X92884834Y-107192846D01*
X92882000Y-107166488D01*
X92882000Y-107111893D01*
X92861664Y-106983501D01*
X92854434Y-106937850D01*
X92799982Y-106770261D01*
X92799982Y-106770260D01*
X92759219Y-106690261D01*
X92719983Y-106613254D01*
X92616407Y-106470695D01*
X92491805Y-106346093D01*
X92349246Y-106242517D01*
X92343731Y-106239707D01*
X92192239Y-106162517D01*
X92192236Y-106162516D01*
X92024651Y-106108066D01*
X91937628Y-106094283D01*
X91850607Y-106080500D01*
X91674393Y-106080500D01*
X91616378Y-106089688D01*
X91500348Y-106108066D01*
X91332763Y-106162516D01*
X91332760Y-106162517D01*
X91175753Y-106242517D01*
X91033193Y-106346094D01*
X90908594Y-106470693D01*
X90805017Y-106613253D01*
X90725017Y-106770260D01*
X90725016Y-106770263D01*
X90670566Y-106937848D01*
X90643000Y-107111893D01*
X90643000Y-107288106D01*
X90670566Y-107462151D01*
X90725016Y-107629736D01*
X90725017Y-107629739D01*
X90780718Y-107739057D01*
X90805017Y-107786746D01*
X90908593Y-107929305D01*
X91033195Y-108053907D01*
X91175754Y-108157483D01*
X91252761Y-108196719D01*
X91332760Y-108237482D01*
X91332763Y-108237483D01*
X91390644Y-108256289D01*
X91500350Y-108291934D01*
X91674393Y-108319500D01*
X91674394Y-108319500D01*
X91850606Y-108319500D01*
X91850607Y-108319500D01*
X92024650Y-108291934D01*
X92128216Y-108258283D01*
X92198055Y-108256289D01*
X92254213Y-108288534D01*
X92547787Y-108582108D01*
X92581272Y-108643431D01*
X92576288Y-108713123D01*
X92534416Y-108769056D01*
X92468952Y-108793473D01*
X92400679Y-108778621D01*
X92387220Y-108770107D01*
X92385773Y-108769056D01*
X92349246Y-108742517D01*
X92192239Y-108662517D01*
X92192236Y-108662516D01*
X92024651Y-108608066D01*
X91860759Y-108582108D01*
X91850607Y-108580500D01*
X91674393Y-108580500D01*
X91664241Y-108582108D01*
X91500348Y-108608066D01*
X91332763Y-108662516D01*
X91332760Y-108662517D01*
X91175753Y-108742517D01*
X91033193Y-108846094D01*
X90908594Y-108970693D01*
X90805017Y-109113253D01*
X90725017Y-109270260D01*
X90725016Y-109270263D01*
X90670566Y-109437848D01*
X90643000Y-109611893D01*
X90643000Y-109788106D01*
X90670566Y-109962151D01*
X90725016Y-110129736D01*
X90725017Y-110129739D01*
X90741064Y-110161232D01*
X90805017Y-110286746D01*
X90908593Y-110429305D01*
X91033195Y-110553907D01*
X91175754Y-110657483D01*
X91252761Y-110696719D01*
X91332760Y-110737482D01*
X91332763Y-110737483D01*
X91416555Y-110764708D01*
X91500350Y-110791934D01*
X91674393Y-110819500D01*
X91674394Y-110819500D01*
X91850606Y-110819500D01*
X91850607Y-110819500D01*
X92024650Y-110791934D01*
X92192239Y-110737482D01*
X92349246Y-110657483D01*
X92491805Y-110553907D01*
X92616407Y-110429305D01*
X92672853Y-110351613D01*
X92677185Y-110348273D01*
X92679458Y-110343297D01*
X92704560Y-110327164D01*
X92728184Y-110308949D01*
X92734854Y-110307696D01*
X92738236Y-110305523D01*
X92773171Y-110300500D01*
X92782803Y-110300500D01*
X92849842Y-110320185D01*
X92870484Y-110336819D01*
X97312181Y-114778516D01*
X97345666Y-114839839D01*
X97348500Y-114866197D01*
X97348500Y-117120943D01*
X97348500Y-117279057D01*
X97389259Y-117431170D01*
X97389423Y-117431783D01*
X97389426Y-117431790D01*
X97468475Y-117568709D01*
X97468479Y-117568714D01*
X97468480Y-117568716D01*
X97580284Y-117680520D01*
X97580286Y-117680521D01*
X97580290Y-117680524D01*
X97698988Y-117749053D01*
X97717216Y-117759577D01*
X97869943Y-117800500D01*
X125456790Y-117800500D01*
X125523829Y-117820185D01*
X125569584Y-117872989D01*
X125579528Y-117942147D01*
X125550503Y-118005703D01*
X125544471Y-118012181D01*
X125359174Y-118197477D01*
X125149053Y-118460962D01*
X124969752Y-118746316D01*
X124823532Y-119049945D01*
X124712227Y-119368034D01*
X124712223Y-119368046D01*
X124637233Y-119696602D01*
X124637231Y-119696618D01*
X124599500Y-120031491D01*
X124599500Y-120368508D01*
X124637231Y-120703381D01*
X124637233Y-120703397D01*
X124712223Y-121031953D01*
X124712227Y-121031965D01*
X124823532Y-121350054D01*
X124969752Y-121653683D01*
X124969754Y-121653686D01*
X125149054Y-121939039D01*
X125221789Y-122030246D01*
X125359174Y-122202522D01*
X125597483Y-122440831D01*
X125707484Y-122528553D01*
X125747625Y-122585741D01*
X125750475Y-122655552D01*
X125715130Y-122715823D01*
X125652811Y-122747416D01*
X125630172Y-122749500D01*
X77247984Y-122749500D01*
X77180945Y-122729815D01*
X77162918Y-122715721D01*
X74039434Y-119770721D01*
X74004161Y-119710409D01*
X74000500Y-119680500D01*
X74000500Y-119231491D01*
X75399500Y-119231491D01*
X75399500Y-119568508D01*
X75437231Y-119903381D01*
X75437233Y-119903397D01*
X75512223Y-120231953D01*
X75512227Y-120231965D01*
X75623532Y-120550054D01*
X75769752Y-120853683D01*
X75769754Y-120853686D01*
X75949054Y-121139039D01*
X76159175Y-121402523D01*
X76397477Y-121640825D01*
X76660961Y-121850946D01*
X76946314Y-122030246D01*
X77249949Y-122176469D01*
X77488848Y-122260063D01*
X77568034Y-122287772D01*
X77568046Y-122287776D01*
X77896606Y-122362767D01*
X78231492Y-122400499D01*
X78231493Y-122400500D01*
X78231496Y-122400500D01*
X78568507Y-122400500D01*
X78568507Y-122400499D01*
X78903394Y-122362767D01*
X79231954Y-122287776D01*
X79550051Y-122176469D01*
X79853686Y-122030246D01*
X80139039Y-121850946D01*
X80402523Y-121640825D01*
X80640825Y-121402523D01*
X80850946Y-121139039D01*
X81030246Y-120853686D01*
X81176469Y-120550051D01*
X81287776Y-120231954D01*
X81362767Y-119903394D01*
X81400500Y-119568504D01*
X81400500Y-119231496D01*
X81362767Y-118896606D01*
X81287776Y-118568046D01*
X81176469Y-118249949D01*
X81030246Y-117946314D01*
X80850946Y-117660961D01*
X80640825Y-117397477D01*
X80402523Y-117159175D01*
X80354581Y-117120943D01*
X80335606Y-117105811D01*
X80139039Y-116949054D01*
X79853686Y-116769754D01*
X79853683Y-116769752D01*
X79550054Y-116623532D01*
X79231965Y-116512227D01*
X79231953Y-116512223D01*
X78903397Y-116437233D01*
X78903381Y-116437231D01*
X78568508Y-116399500D01*
X78568504Y-116399500D01*
X78231496Y-116399500D01*
X78231491Y-116399500D01*
X77896618Y-116437231D01*
X77896602Y-116437233D01*
X77568046Y-116512223D01*
X77568034Y-116512227D01*
X77249945Y-116623532D01*
X76946316Y-116769752D01*
X76660962Y-116949053D01*
X76397477Y-117159174D01*
X76159174Y-117397477D01*
X75949053Y-117660962D01*
X75769752Y-117946316D01*
X75623532Y-118249945D01*
X75512227Y-118568034D01*
X75512223Y-118568046D01*
X75437233Y-118896602D01*
X75437231Y-118896618D01*
X75399500Y-119231491D01*
X74000500Y-119231491D01*
X74000500Y-114611893D01*
X77943000Y-114611893D01*
X77943000Y-114788106D01*
X77970566Y-114962151D01*
X78025016Y-115129736D01*
X78025017Y-115129739D01*
X78075191Y-115228210D01*
X78105017Y-115286746D01*
X78208593Y-115429305D01*
X78333195Y-115553907D01*
X78475754Y-115657483D01*
X78552761Y-115696719D01*
X78632760Y-115737482D01*
X78632763Y-115737483D01*
X78716555Y-115764708D01*
X78800350Y-115791934D01*
X78974393Y-115819500D01*
X78974394Y-115819500D01*
X79150606Y-115819500D01*
X79150607Y-115819500D01*
X79324650Y-115791934D01*
X79492239Y-115737482D01*
X79649246Y-115657483D01*
X79791805Y-115553907D01*
X79916407Y-115429305D01*
X80019983Y-115286746D01*
X80099982Y-115129739D01*
X80154434Y-114962150D01*
X80182000Y-114788107D01*
X80182000Y-114611893D01*
X80154434Y-114437850D01*
X80099982Y-114270261D01*
X80099982Y-114270260D01*
X80019982Y-114113253D01*
X79968433Y-114042302D01*
X79916407Y-113970695D01*
X79791805Y-113846093D01*
X79649246Y-113742517D01*
X79611356Y-113723211D01*
X79492239Y-113662517D01*
X79492236Y-113662516D01*
X79324651Y-113608066D01*
X79237628Y-113594283D01*
X79150607Y-113580500D01*
X78974393Y-113580500D01*
X78916378Y-113589688D01*
X78800348Y-113608066D01*
X78632763Y-113662516D01*
X78632760Y-113662517D01*
X78475753Y-113742517D01*
X78333193Y-113846094D01*
X78208594Y-113970693D01*
X78105017Y-114113253D01*
X78025017Y-114270260D01*
X78025016Y-114270263D01*
X77970566Y-114437848D01*
X77943000Y-114611893D01*
X74000500Y-114611893D01*
X74000500Y-112111893D01*
X77943000Y-112111893D01*
X77943000Y-112288107D01*
X77956783Y-112375128D01*
X77970566Y-112462151D01*
X78025016Y-112629736D01*
X78025017Y-112629739D01*
X78061445Y-112701232D01*
X78105017Y-112786746D01*
X78208593Y-112929305D01*
X78333195Y-113053907D01*
X78475754Y-113157483D01*
X78493196Y-113166370D01*
X78632760Y-113237482D01*
X78632763Y-113237483D01*
X78716555Y-113264708D01*
X78800350Y-113291934D01*
X78974393Y-113319500D01*
X78974394Y-113319500D01*
X79150606Y-113319500D01*
X79150607Y-113319500D01*
X79324650Y-113291934D01*
X79492239Y-113237482D01*
X79649246Y-113157483D01*
X79791805Y-113053907D01*
X79916407Y-112929305D01*
X80019983Y-112786746D01*
X80099982Y-112629739D01*
X80154434Y-112462150D01*
X80182000Y-112288107D01*
X80182000Y-112111893D01*
X90643000Y-112111893D01*
X90643000Y-112288107D01*
X90656783Y-112375128D01*
X90670566Y-112462151D01*
X90725016Y-112629736D01*
X90725017Y-112629739D01*
X90761445Y-112701232D01*
X90805017Y-112786746D01*
X90908593Y-112929305D01*
X91033195Y-113053907D01*
X91175754Y-113157483D01*
X91193196Y-113166370D01*
X91332760Y-113237482D01*
X91332763Y-113237483D01*
X91416555Y-113264708D01*
X91500350Y-113291934D01*
X91674393Y-113319500D01*
X91674394Y-113319500D01*
X91850606Y-113319500D01*
X91850607Y-113319500D01*
X92024650Y-113291934D01*
X92192239Y-113237482D01*
X92349246Y-113157483D01*
X92491805Y-113053907D01*
X92616407Y-112929305D01*
X92719983Y-112786746D01*
X92799982Y-112629739D01*
X92854434Y-112462150D01*
X92882000Y-112288107D01*
X92882000Y-112111893D01*
X92854434Y-111937850D01*
X92799982Y-111770261D01*
X92799982Y-111770260D01*
X92719982Y-111613253D01*
X92616407Y-111470695D01*
X92491805Y-111346093D01*
X92349246Y-111242517D01*
X92192239Y-111162517D01*
X92192236Y-111162516D01*
X92024651Y-111108066D01*
X91937628Y-111094283D01*
X91850607Y-111080500D01*
X91674393Y-111080500D01*
X91616378Y-111089688D01*
X91500348Y-111108066D01*
X91332763Y-111162516D01*
X91332760Y-111162517D01*
X91175753Y-111242517D01*
X91033193Y-111346094D01*
X90908594Y-111470693D01*
X90805017Y-111613253D01*
X90725017Y-111770260D01*
X90725016Y-111770263D01*
X90670566Y-111937848D01*
X90670566Y-111937850D01*
X90643000Y-112111893D01*
X80182000Y-112111893D01*
X80154434Y-111937850D01*
X80099982Y-111770261D01*
X80099982Y-111770260D01*
X80019982Y-111613253D01*
X79916407Y-111470695D01*
X79791805Y-111346093D01*
X79649246Y-111242517D01*
X79492239Y-111162517D01*
X79492236Y-111162516D01*
X79324651Y-111108066D01*
X79237628Y-111094283D01*
X79150607Y-111080500D01*
X78974393Y-111080500D01*
X78916378Y-111089688D01*
X78800348Y-111108066D01*
X78632763Y-111162516D01*
X78632760Y-111162517D01*
X78475753Y-111242517D01*
X78333193Y-111346094D01*
X78208594Y-111470693D01*
X78105017Y-111613253D01*
X78025017Y-111770260D01*
X78025016Y-111770263D01*
X77970566Y-111937848D01*
X77970566Y-111937850D01*
X77943000Y-112111893D01*
X74000500Y-112111893D01*
X74000500Y-109611893D01*
X77943000Y-109611893D01*
X77943000Y-109788106D01*
X77970566Y-109962151D01*
X78025016Y-110129736D01*
X78025017Y-110129739D01*
X78041064Y-110161232D01*
X78105017Y-110286746D01*
X78208593Y-110429305D01*
X78333195Y-110553907D01*
X78475754Y-110657483D01*
X78552761Y-110696719D01*
X78632760Y-110737482D01*
X78632763Y-110737483D01*
X78716555Y-110764708D01*
X78800350Y-110791934D01*
X78974393Y-110819500D01*
X78974394Y-110819500D01*
X79150606Y-110819500D01*
X79150607Y-110819500D01*
X79324650Y-110791934D01*
X79492239Y-110737482D01*
X79649246Y-110657483D01*
X79791805Y-110553907D01*
X79916407Y-110429305D01*
X80019983Y-110286746D01*
X80099982Y-110129739D01*
X80154434Y-109962150D01*
X80182000Y-109788107D01*
X80182000Y-109611893D01*
X80154434Y-109437850D01*
X80099982Y-109270261D01*
X80099982Y-109270260D01*
X80019982Y-109113253D01*
X79916407Y-108970695D01*
X79791805Y-108846093D01*
X79649246Y-108742517D01*
X79492239Y-108662517D01*
X79492236Y-108662516D01*
X79324651Y-108608066D01*
X79160759Y-108582108D01*
X79150607Y-108580500D01*
X78974393Y-108580500D01*
X78964241Y-108582108D01*
X78800348Y-108608066D01*
X78632763Y-108662516D01*
X78632760Y-108662517D01*
X78475753Y-108742517D01*
X78333193Y-108846094D01*
X78208594Y-108970693D01*
X78105017Y-109113253D01*
X78025017Y-109270260D01*
X78025016Y-109270263D01*
X77970566Y-109437848D01*
X77943000Y-109611893D01*
X74000500Y-109611893D01*
X74000500Y-107111893D01*
X77943000Y-107111893D01*
X77943000Y-107288106D01*
X77970566Y-107462151D01*
X78025016Y-107629736D01*
X78025017Y-107629739D01*
X78080718Y-107739057D01*
X78105017Y-107786746D01*
X78208593Y-107929305D01*
X78333195Y-108053907D01*
X78475754Y-108157483D01*
X78552761Y-108196719D01*
X78632760Y-108237482D01*
X78632763Y-108237483D01*
X78690644Y-108256289D01*
X78800350Y-108291934D01*
X78974393Y-108319500D01*
X78974394Y-108319500D01*
X79150606Y-108319500D01*
X79150607Y-108319500D01*
X79324650Y-108291934D01*
X79492239Y-108237482D01*
X79649246Y-108157483D01*
X79791805Y-108053907D01*
X79916407Y-107929305D01*
X80019983Y-107786746D01*
X80099982Y-107629739D01*
X80154434Y-107462150D01*
X80182000Y-107288107D01*
X80182000Y-107111893D01*
X80154434Y-106937850D01*
X80099982Y-106770261D01*
X80099982Y-106770260D01*
X80059219Y-106690261D01*
X80019983Y-106613254D01*
X79916407Y-106470695D01*
X79791805Y-106346093D01*
X79649246Y-106242517D01*
X79643731Y-106239707D01*
X79492239Y-106162517D01*
X79492236Y-106162516D01*
X79324651Y-106108066D01*
X79237628Y-106094283D01*
X79150607Y-106080500D01*
X78974393Y-106080500D01*
X78916378Y-106089688D01*
X78800348Y-106108066D01*
X78632763Y-106162516D01*
X78632760Y-106162517D01*
X78475753Y-106242517D01*
X78333193Y-106346094D01*
X78208594Y-106470693D01*
X78105017Y-106613253D01*
X78025017Y-106770260D01*
X78025016Y-106770263D01*
X77970566Y-106937848D01*
X77943000Y-107111893D01*
X74000500Y-107111893D01*
X74000500Y-102589778D01*
X75339500Y-102589778D01*
X75339500Y-103010221D01*
X75373985Y-103227952D01*
X75442103Y-103437603D01*
X75442104Y-103437606D01*
X75506105Y-103563211D01*
X75537129Y-103624100D01*
X75542187Y-103634025D01*
X75671752Y-103812358D01*
X75671756Y-103812363D01*
X75827636Y-103968243D01*
X75827641Y-103968247D01*
X75944830Y-104053389D01*
X76005978Y-104097815D01*
X76134375Y-104163237D01*
X76202393Y-104197895D01*
X76202396Y-104197896D01*
X76266318Y-104218665D01*
X76412049Y-104266015D01*
X76629778Y-104300500D01*
X76629779Y-104300500D01*
X76850221Y-104300500D01*
X76850222Y-104300500D01*
X77067951Y-104266015D01*
X77277606Y-104197895D01*
X77474022Y-104097815D01*
X77652365Y-103968242D01*
X77808242Y-103812365D01*
X77818804Y-103797826D01*
X77909682Y-103672745D01*
X77965011Y-103630079D01*
X78034625Y-103624100D01*
X78096420Y-103656705D01*
X78110318Y-103672745D01*
X78211752Y-103812358D01*
X78211756Y-103812363D01*
X78367636Y-103968243D01*
X78367641Y-103968247D01*
X78484830Y-104053389D01*
X78545978Y-104097815D01*
X78674375Y-104163237D01*
X78742393Y-104197895D01*
X78742396Y-104197896D01*
X78806318Y-104218665D01*
X78952049Y-104266015D01*
X79169778Y-104300500D01*
X79169779Y-104300500D01*
X79390221Y-104300500D01*
X79390222Y-104300500D01*
X79607951Y-104266015D01*
X79817606Y-104197895D01*
X80014022Y-104097815D01*
X80192365Y-103968242D01*
X80348242Y-103812365D01*
X80358804Y-103797826D01*
X80449682Y-103672745D01*
X80505011Y-103630079D01*
X80574625Y-103624100D01*
X80636420Y-103656705D01*
X80650318Y-103672745D01*
X80751752Y-103812358D01*
X80751756Y-103812363D01*
X80907636Y-103968243D01*
X80907641Y-103968247D01*
X81024830Y-104053389D01*
X81085978Y-104097815D01*
X81214375Y-104163237D01*
X81282393Y-104197895D01*
X81282396Y-104197896D01*
X81346318Y-104218665D01*
X81492049Y-104266015D01*
X81709778Y-104300500D01*
X81709779Y-104300500D01*
X81930221Y-104300500D01*
X81930222Y-104300500D01*
X82147951Y-104266015D01*
X82357606Y-104197895D01*
X82554022Y-104097815D01*
X82732365Y-103968242D01*
X82888242Y-103812365D01*
X83017815Y-103634022D01*
X83117895Y-103437606D01*
X83119420Y-103432914D01*
X83162414Y-103300588D01*
X83186015Y-103227951D01*
X83220500Y-103010222D01*
X83220500Y-102589778D01*
X83186015Y-102372049D01*
X83151955Y-102267221D01*
X83117896Y-102162396D01*
X83117895Y-102162393D01*
X83083237Y-102094375D01*
X83017815Y-101965978D01*
X82989681Y-101927254D01*
X82888247Y-101787641D01*
X82888243Y-101787636D01*
X82732363Y-101631756D01*
X82732358Y-101631752D01*
X82554025Y-101502187D01*
X82554024Y-101502186D01*
X82554022Y-101502185D01*
X82491096Y-101470122D01*
X82357606Y-101402104D01*
X82357603Y-101402103D01*
X82147952Y-101333985D01*
X82039086Y-101316742D01*
X81930222Y-101299500D01*
X81709778Y-101299500D01*
X81637201Y-101310995D01*
X81492047Y-101333985D01*
X81282396Y-101402103D01*
X81282393Y-101402104D01*
X81085974Y-101502187D01*
X80907641Y-101631752D01*
X80907636Y-101631756D01*
X80751756Y-101787636D01*
X80751752Y-101787641D01*
X80650318Y-101927254D01*
X80594988Y-101969920D01*
X80525375Y-101975899D01*
X80463580Y-101943293D01*
X80449682Y-101927254D01*
X80348247Y-101787641D01*
X80348243Y-101787636D01*
X80192363Y-101631756D01*
X80192358Y-101631752D01*
X80014025Y-101502187D01*
X80014024Y-101502186D01*
X80014022Y-101502185D01*
X79951096Y-101470122D01*
X79817606Y-101402104D01*
X79817603Y-101402103D01*
X79607952Y-101333985D01*
X79499086Y-101316742D01*
X79390222Y-101299500D01*
X79169778Y-101299500D01*
X79097201Y-101310995D01*
X78952047Y-101333985D01*
X78742396Y-101402103D01*
X78742393Y-101402104D01*
X78545974Y-101502187D01*
X78367641Y-101631752D01*
X78367636Y-101631756D01*
X78211756Y-101787636D01*
X78211752Y-101787641D01*
X78110318Y-101927254D01*
X78054988Y-101969920D01*
X77985375Y-101975899D01*
X77923580Y-101943293D01*
X77909682Y-101927254D01*
X77808247Y-101787641D01*
X77808243Y-101787636D01*
X77652363Y-101631756D01*
X77652358Y-101631752D01*
X77474025Y-101502187D01*
X77474024Y-101502186D01*
X77474022Y-101502185D01*
X77411096Y-101470122D01*
X77277606Y-101402104D01*
X77277603Y-101402103D01*
X77067952Y-101333985D01*
X76959086Y-101316742D01*
X76850222Y-101299500D01*
X76629778Y-101299500D01*
X76557201Y-101310995D01*
X76412047Y-101333985D01*
X76202396Y-101402103D01*
X76202393Y-101402104D01*
X76005974Y-101502187D01*
X75827641Y-101631752D01*
X75827636Y-101631756D01*
X75671756Y-101787636D01*
X75671752Y-101787641D01*
X75542187Y-101965974D01*
X75442104Y-102162393D01*
X75442103Y-102162396D01*
X75373985Y-102372047D01*
X75339500Y-102589778D01*
X74000500Y-102589778D01*
X74000500Y-99600510D01*
X74000506Y-99599273D01*
X74002691Y-99380261D01*
X74199714Y-79628614D01*
X74212797Y-79574404D01*
X75564593Y-76870813D01*
X75612178Y-76819658D01*
X75679870Y-76802348D01*
X75746174Y-76824383D01*
X75790040Y-76878767D01*
X75799500Y-76926271D01*
X75799500Y-76968508D01*
X75837231Y-77303381D01*
X75837233Y-77303397D01*
X75912223Y-77631953D01*
X75912227Y-77631965D01*
X76023532Y-77950054D01*
X76169752Y-78253683D01*
X76169754Y-78253686D01*
X76349054Y-78539039D01*
X76559175Y-78802523D01*
X76797477Y-79040825D01*
X77060961Y-79250946D01*
X77346314Y-79430246D01*
X77649949Y-79576469D01*
X77888848Y-79660063D01*
X77968034Y-79687772D01*
X77968046Y-79687776D01*
X78296606Y-79762767D01*
X78631492Y-79800499D01*
X78631493Y-79800500D01*
X78631496Y-79800500D01*
X78968507Y-79800500D01*
X78968507Y-79800499D01*
X79303394Y-79762767D01*
X79631954Y-79687776D01*
X79950051Y-79576469D01*
X80253686Y-79430246D01*
X80539039Y-79250946D01*
X80802523Y-79040825D01*
X81040825Y-78802523D01*
X81250946Y-78539039D01*
X81430246Y-78253686D01*
X81576469Y-77950051D01*
X81687776Y-77631954D01*
X81762767Y-77303394D01*
X81800500Y-76968504D01*
X81800500Y-76631496D01*
X81762767Y-76296606D01*
X81687776Y-75968046D01*
X81675026Y-75931610D01*
X81640035Y-75831610D01*
X81576469Y-75649949D01*
X81560290Y-75616353D01*
X81478531Y-75446578D01*
X81454967Y-75397648D01*
X93779500Y-75397648D01*
X93779500Y-75602351D01*
X93811522Y-75804534D01*
X93874781Y-75999223D01*
X93967715Y-76181613D01*
X94088028Y-76347213D01*
X94088034Y-76347219D01*
X94232781Y-76491966D01*
X94398390Y-76612287D01*
X94411793Y-76619116D01*
X94462589Y-76667088D01*
X94479500Y-76729601D01*
X94479500Y-77420397D01*
X94459815Y-77487436D01*
X94411800Y-77530879D01*
X94398389Y-77537712D01*
X94232786Y-77658028D01*
X94088028Y-77802786D01*
X93967715Y-77968386D01*
X93874781Y-78150776D01*
X93811522Y-78345465D01*
X93779500Y-78547648D01*
X93779500Y-78752351D01*
X93811522Y-78954534D01*
X93874781Y-79149223D01*
X93967715Y-79331613D01*
X94088028Y-79497213D01*
X94232786Y-79641971D01*
X94325734Y-79709500D01*
X94398390Y-79762287D01*
X94482647Y-79805218D01*
X94580776Y-79855218D01*
X94580778Y-79855218D01*
X94580781Y-79855220D01*
X94685137Y-79889127D01*
X94775465Y-79918477D01*
X94876557Y-79934488D01*
X94977648Y-79950500D01*
X94977649Y-79950500D01*
X95182351Y-79950500D01*
X95182352Y-79950500D01*
X95384534Y-79918477D01*
X95579219Y-79855220D01*
X95761610Y-79762287D01*
X95854590Y-79694732D01*
X95927213Y-79641971D01*
X95927215Y-79641968D01*
X95927219Y-79641966D01*
X96071966Y-79497219D01*
X96071968Y-79497215D01*
X96071971Y-79497213D01*
X96159695Y-79376469D01*
X96192287Y-79331610D01*
X96285220Y-79149219D01*
X96348477Y-78954534D01*
X96380500Y-78752352D01*
X96380500Y-78547648D01*
X96363702Y-78441592D01*
X96348477Y-78345465D01*
X96297494Y-78188557D01*
X96285220Y-78150781D01*
X96285218Y-78150778D01*
X96285218Y-78150776D01*
X96251503Y-78084607D01*
X96192287Y-77968390D01*
X96178963Y-77950051D01*
X96071971Y-77802786D01*
X95927213Y-77658028D01*
X95761610Y-77537712D01*
X95748200Y-77530879D01*
X95697406Y-77482903D01*
X95680500Y-77420397D01*
X95680500Y-76729601D01*
X95700185Y-76662562D01*
X95748206Y-76619116D01*
X95761610Y-76612287D01*
X95927219Y-76491966D01*
X96071966Y-76347219D01*
X96071968Y-76347215D01*
X96071971Y-76347213D01*
X96144233Y-76247751D01*
X96192287Y-76181610D01*
X96285220Y-75999219D01*
X96348477Y-75804534D01*
X96380500Y-75602352D01*
X96380500Y-75397648D01*
X101399500Y-75397648D01*
X101399500Y-75602351D01*
X101431522Y-75804534D01*
X101494781Y-75999223D01*
X101587715Y-76181613D01*
X101708028Y-76347213D01*
X101708034Y-76347219D01*
X101852781Y-76491966D01*
X102018390Y-76612287D01*
X102031793Y-76619116D01*
X102082589Y-76667088D01*
X102099500Y-76729601D01*
X102099500Y-77420397D01*
X102079815Y-77487436D01*
X102031800Y-77530879D01*
X102018389Y-77537712D01*
X101852786Y-77658028D01*
X101708028Y-77802786D01*
X101587715Y-77968386D01*
X101494781Y-78150776D01*
X101431522Y-78345465D01*
X101399500Y-78547648D01*
X101399500Y-78752351D01*
X101431522Y-78954534D01*
X101494781Y-79149223D01*
X101587715Y-79331613D01*
X101708028Y-79497213D01*
X101852786Y-79641971D01*
X101945734Y-79709500D01*
X102018390Y-79762287D01*
X102102647Y-79805218D01*
X102200776Y-79855218D01*
X102200778Y-79855218D01*
X102200781Y-79855220D01*
X102305137Y-79889127D01*
X102395465Y-79918477D01*
X102496557Y-79934488D01*
X102597648Y-79950500D01*
X102597649Y-79950500D01*
X102802351Y-79950500D01*
X102802352Y-79950500D01*
X103004534Y-79918477D01*
X103199219Y-79855220D01*
X103381610Y-79762287D01*
X103474590Y-79694732D01*
X103547213Y-79641971D01*
X103547215Y-79641968D01*
X103547219Y-79641966D01*
X103691966Y-79497219D01*
X103812287Y-79331610D01*
X103812289Y-79331605D01*
X103812844Y-79330842D01*
X103868174Y-79288176D01*
X103937787Y-79282197D01*
X103999583Y-79314802D01*
X104013481Y-79330842D01*
X104098028Y-79447213D01*
X104242786Y-79591971D01*
X104374653Y-79687776D01*
X104408390Y-79712287D01*
X104523880Y-79771132D01*
X104590776Y-79805218D01*
X104590778Y-79805218D01*
X104590781Y-79805220D01*
X104695137Y-79839127D01*
X104785465Y-79868477D01*
X104886557Y-79884488D01*
X104987648Y-79900500D01*
X104987649Y-79900500D01*
X105192351Y-79900500D01*
X105192352Y-79900500D01*
X105394534Y-79868477D01*
X105589219Y-79805220D01*
X105771610Y-79712287D01*
X105867718Y-79642461D01*
X105937213Y-79591971D01*
X105937215Y-79591968D01*
X105937219Y-79591966D01*
X106081966Y-79447219D01*
X106081968Y-79447215D01*
X106081971Y-79447213D01*
X106150924Y-79352305D01*
X106202287Y-79281610D01*
X106295220Y-79099219D01*
X106358477Y-78904534D01*
X106390500Y-78702352D01*
X106390500Y-78497648D01*
X106383326Y-78452351D01*
X106358477Y-78295465D01*
X106323740Y-78188557D01*
X106295220Y-78100781D01*
X106295218Y-78100778D01*
X106295218Y-78100776D01*
X106261503Y-78034607D01*
X106202287Y-77918390D01*
X106153163Y-77850776D01*
X106081971Y-77752786D01*
X105937213Y-77608028D01*
X105771613Y-77487715D01*
X105771612Y-77487714D01*
X105771610Y-77487713D01*
X105662199Y-77431965D01*
X105589223Y-77394781D01*
X105394534Y-77331522D01*
X105216855Y-77303381D01*
X105192352Y-77299500D01*
X104987648Y-77299500D01*
X104963329Y-77303351D01*
X104785465Y-77331522D01*
X104590776Y-77394781D01*
X104408386Y-77487715D01*
X104242786Y-77608028D01*
X104098032Y-77752782D01*
X104098028Y-77752787D01*
X103977154Y-77919157D01*
X103921824Y-77961823D01*
X103852211Y-77967802D01*
X103790416Y-77935196D01*
X103776517Y-77919157D01*
X103726839Y-77850781D01*
X103691966Y-77802781D01*
X103547219Y-77658034D01*
X103547213Y-77658028D01*
X103381610Y-77537712D01*
X103368200Y-77530879D01*
X103317406Y-77482903D01*
X103300500Y-77420397D01*
X103300500Y-76729601D01*
X103320185Y-76662562D01*
X103368206Y-76619116D01*
X103381610Y-76612287D01*
X103547219Y-76491966D01*
X103691966Y-76347219D01*
X103691968Y-76347215D01*
X103691971Y-76347213D01*
X103764233Y-76247751D01*
X103812287Y-76181610D01*
X103905220Y-75999219D01*
X103968477Y-75804534D01*
X104000500Y-75602352D01*
X104000500Y-75397648D01*
X103968477Y-75195466D01*
X103968476Y-75195462D01*
X103968476Y-75195461D01*
X103963808Y-75181094D01*
X103952941Y-75147648D01*
X112199500Y-75147648D01*
X112199500Y-75352351D01*
X112231522Y-75554534D01*
X112294781Y-75749223D01*
X112322964Y-75804534D01*
X112387450Y-75931094D01*
X112387715Y-75931613D01*
X112508028Y-76097213D01*
X112652786Y-76241971D01*
X112798822Y-76348070D01*
X112818390Y-76362287D01*
X112902370Y-76405077D01*
X113000776Y-76455218D01*
X113000778Y-76455218D01*
X113000781Y-76455220D01*
X113105137Y-76489127D01*
X113195465Y-76518477D01*
X113296557Y-76534488D01*
X113397648Y-76550500D01*
X113397649Y-76550500D01*
X113602351Y-76550500D01*
X113602352Y-76550500D01*
X113804534Y-76518477D01*
X113999219Y-76455220D01*
X114181610Y-76362287D01*
X114297432Y-76278138D01*
X114347213Y-76241971D01*
X114347215Y-76241968D01*
X114347219Y-76241966D01*
X114491966Y-76097219D01*
X114601008Y-75947134D01*
X114656337Y-75904468D01*
X114725950Y-75898489D01*
X114787745Y-75931094D01*
X114801644Y-75947134D01*
X114838028Y-75997212D01*
X114838032Y-75997217D01*
X114838034Y-75997219D01*
X114982781Y-76141966D01*
X115148390Y-76262287D01*
X115211795Y-76294593D01*
X115262590Y-76342566D01*
X115279500Y-76405077D01*
X115279500Y-77120397D01*
X115259815Y-77187436D01*
X115211800Y-77230879D01*
X115198389Y-77237712D01*
X115032786Y-77358028D01*
X114888028Y-77502786D01*
X114767715Y-77668386D01*
X114674781Y-77850776D01*
X114611522Y-78045465D01*
X114579500Y-78247648D01*
X114579500Y-78452351D01*
X114611522Y-78654534D01*
X114674781Y-78849223D01*
X114702964Y-78904534D01*
X114741664Y-78980487D01*
X114767715Y-79031613D01*
X114888028Y-79197213D01*
X115032786Y-79341971D01*
X115187749Y-79454556D01*
X115198390Y-79462287D01*
X115301904Y-79515030D01*
X115380776Y-79555218D01*
X115380778Y-79555218D01*
X115380781Y-79555220D01*
X115446173Y-79576467D01*
X115575465Y-79618477D01*
X115639467Y-79628614D01*
X115777648Y-79650500D01*
X115777649Y-79650500D01*
X115982351Y-79650500D01*
X115982352Y-79650500D01*
X116184534Y-79618477D01*
X116379219Y-79555220D01*
X116561610Y-79462287D01*
X116654590Y-79394732D01*
X116727213Y-79341971D01*
X116727215Y-79341968D01*
X116727219Y-79341966D01*
X116871966Y-79197219D01*
X116871968Y-79197215D01*
X116871971Y-79197213D01*
X116924732Y-79124590D01*
X116992287Y-79031610D01*
X117085220Y-78849219D01*
X117148477Y-78654534D01*
X117180500Y-78452352D01*
X117180500Y-78247648D01*
X117149779Y-78053686D01*
X117148477Y-78045465D01*
X117107186Y-77918386D01*
X117085220Y-77850781D01*
X117085218Y-77850778D01*
X117085218Y-77850776D01*
X117033895Y-77750051D01*
X116992287Y-77668390D01*
X116965814Y-77631953D01*
X116871971Y-77502786D01*
X116727213Y-77358028D01*
X116561610Y-77237712D01*
X116548200Y-77230879D01*
X116497406Y-77182903D01*
X116480500Y-77120397D01*
X116480500Y-76348070D01*
X116500185Y-76281031D01*
X116531613Y-76247753D01*
X116677219Y-76141966D01*
X116821966Y-75997219D01*
X116821968Y-75997215D01*
X116821971Y-75997213D01*
X116893697Y-75898489D01*
X116942287Y-75831610D01*
X117035220Y-75649219D01*
X117098477Y-75454534D01*
X117130500Y-75252352D01*
X117130500Y-75047648D01*
X122149500Y-75047648D01*
X122149500Y-75252351D01*
X122181522Y-75454534D01*
X122244781Y-75649223D01*
X122337715Y-75831613D01*
X122458028Y-75997213D01*
X122458034Y-75997219D01*
X122602781Y-76141966D01*
X122768390Y-76262287D01*
X122781793Y-76269116D01*
X122832589Y-76317088D01*
X122849500Y-76379601D01*
X122849500Y-77151928D01*
X122829815Y-77218967D01*
X122798385Y-77252246D01*
X122652787Y-77358028D01*
X122652782Y-77358032D01*
X122508028Y-77502786D01*
X122387715Y-77668386D01*
X122294781Y-77850776D01*
X122231522Y-78045465D01*
X122199500Y-78247648D01*
X122199500Y-78452351D01*
X122231522Y-78654534D01*
X122294781Y-78849223D01*
X122322964Y-78904534D01*
X122361664Y-78980487D01*
X122387715Y-79031613D01*
X122508028Y-79197213D01*
X122652786Y-79341971D01*
X122807749Y-79454556D01*
X122818390Y-79462287D01*
X122921904Y-79515030D01*
X123000776Y-79555218D01*
X123000778Y-79555218D01*
X123000781Y-79555220D01*
X123066173Y-79576467D01*
X123195465Y-79618477D01*
X123259467Y-79628614D01*
X123397648Y-79650500D01*
X123397649Y-79650500D01*
X123602351Y-79650500D01*
X123602352Y-79650500D01*
X123804534Y-79618477D01*
X123999219Y-79555220D01*
X124181610Y-79462287D01*
X124274590Y-79394732D01*
X124347213Y-79341971D01*
X124347215Y-79341968D01*
X124347219Y-79341966D01*
X124429617Y-79259568D01*
X129299500Y-79259568D01*
X129299500Y-79540431D01*
X129330942Y-79819494D01*
X129330945Y-79819512D01*
X129393439Y-80093317D01*
X129393443Y-80093329D01*
X129486200Y-80358411D01*
X129608053Y-80611442D01*
X129608055Y-80611445D01*
X129757477Y-80849248D01*
X129932584Y-81068825D01*
X130131175Y-81267416D01*
X130350752Y-81442523D01*
X130588555Y-81591945D01*
X130841592Y-81713801D01*
X131028869Y-81779332D01*
X131106670Y-81806556D01*
X131106682Y-81806560D01*
X131380491Y-81869055D01*
X131380497Y-81869055D01*
X131380505Y-81869057D01*
X131566547Y-81890018D01*
X131659569Y-81900499D01*
X131659572Y-81900500D01*
X131659575Y-81900500D01*
X131940428Y-81900500D01*
X131940429Y-81900499D01*
X132083055Y-81884429D01*
X132219494Y-81869057D01*
X132219499Y-81869056D01*
X132219509Y-81869055D01*
X132493318Y-81806560D01*
X132758408Y-81713801D01*
X133011445Y-81591945D01*
X133249248Y-81442523D01*
X133468825Y-81267416D01*
X133667416Y-81068825D01*
X133842523Y-80849248D01*
X133991945Y-80611445D01*
X134113801Y-80358408D01*
X134206560Y-80093318D01*
X134269055Y-79819509D01*
X134275449Y-79762766D01*
X134289003Y-79642461D01*
X134300500Y-79540425D01*
X134300500Y-79259575D01*
X134282432Y-79099219D01*
X134269057Y-78980505D01*
X134269054Y-78980487D01*
X134206560Y-78706682D01*
X134206556Y-78706670D01*
X134170113Y-78602522D01*
X134113801Y-78441592D01*
X133991945Y-78188555D01*
X133842523Y-77950752D01*
X133667416Y-77731175D01*
X133468825Y-77532584D01*
X133249248Y-77357477D01*
X133011445Y-77208055D01*
X133011442Y-77208053D01*
X132758411Y-77086200D01*
X132493329Y-76993443D01*
X132493317Y-76993439D01*
X132219512Y-76930945D01*
X132219494Y-76930942D01*
X131940431Y-76899500D01*
X131940425Y-76899500D01*
X131659575Y-76899500D01*
X131659568Y-76899500D01*
X131380505Y-76930942D01*
X131380487Y-76930945D01*
X131106682Y-76993439D01*
X131106670Y-76993443D01*
X130841588Y-77086200D01*
X130588557Y-77208053D01*
X130350753Y-77357476D01*
X130131175Y-77532583D01*
X129932583Y-77731175D01*
X129757476Y-77950753D01*
X129608053Y-78188557D01*
X129486200Y-78441588D01*
X129393443Y-78706670D01*
X129393439Y-78706682D01*
X129330945Y-78980487D01*
X129330942Y-78980505D01*
X129299500Y-79259568D01*
X124429617Y-79259568D01*
X124491966Y-79197219D01*
X124612287Y-79031610D01*
X124705220Y-78849219D01*
X124768477Y-78654534D01*
X124800500Y-78452352D01*
X124800500Y-78247648D01*
X124769779Y-78053686D01*
X124768477Y-78045465D01*
X124727186Y-77918386D01*
X124705220Y-77850781D01*
X124705218Y-77850778D01*
X124705218Y-77850776D01*
X124653895Y-77750051D01*
X124612287Y-77668390D01*
X124585814Y-77631953D01*
X124491971Y-77502786D01*
X124347213Y-77358028D01*
X124181611Y-77237713D01*
X124118204Y-77205405D01*
X124067409Y-77157431D01*
X124050500Y-77094921D01*
X124050500Y-76379601D01*
X124070185Y-76312562D01*
X124118206Y-76269116D01*
X124131610Y-76262287D01*
X124297219Y-76141966D01*
X124441966Y-75997219D01*
X124441968Y-75997215D01*
X124441971Y-75997213D01*
X124513697Y-75898489D01*
X124562287Y-75831610D01*
X124655220Y-75649219D01*
X124718477Y-75454534D01*
X124750500Y-75252352D01*
X124750500Y-75047648D01*
X124734316Y-74945465D01*
X124718477Y-74845465D01*
X124655871Y-74652786D01*
X124655220Y-74650781D01*
X124655218Y-74650778D01*
X124655218Y-74650776D01*
X124621503Y-74584607D01*
X124562287Y-74468390D01*
X124551008Y-74452865D01*
X124441971Y-74302786D01*
X124297213Y-74158028D01*
X124131613Y-74037715D01*
X124131612Y-74037714D01*
X124131610Y-74037713D01*
X124074653Y-74008691D01*
X123949223Y-73944781D01*
X123754534Y-73881522D01*
X123579995Y-73853878D01*
X123552352Y-73849500D01*
X123347648Y-73849500D01*
X123323329Y-73853351D01*
X123145465Y-73881522D01*
X122950776Y-73944781D01*
X122768386Y-74037715D01*
X122602786Y-74158028D01*
X122458028Y-74302786D01*
X122337715Y-74468386D01*
X122244781Y-74650776D01*
X122181522Y-74845465D01*
X122149500Y-75047648D01*
X117130500Y-75047648D01*
X117114316Y-74945465D01*
X117098477Y-74845465D01*
X117035871Y-74652786D01*
X117035220Y-74650781D01*
X117035218Y-74650778D01*
X117035218Y-74650776D01*
X117001503Y-74584607D01*
X116942287Y-74468390D01*
X116931008Y-74452865D01*
X116821971Y-74302786D01*
X116677213Y-74158028D01*
X116511613Y-74037715D01*
X116511612Y-74037714D01*
X116511610Y-74037713D01*
X116454653Y-74008691D01*
X116329223Y-73944781D01*
X116134534Y-73881522D01*
X115959995Y-73853878D01*
X115932352Y-73849500D01*
X115727648Y-73849500D01*
X115703329Y-73853351D01*
X115525465Y-73881522D01*
X115330776Y-73944781D01*
X115148386Y-74037715D01*
X114982786Y-74158028D01*
X114838032Y-74302782D01*
X114838028Y-74302787D01*
X114728991Y-74452865D01*
X114673661Y-74495531D01*
X114604048Y-74501510D01*
X114542253Y-74468905D01*
X114528355Y-74452865D01*
X114491971Y-74402787D01*
X114491967Y-74402782D01*
X114347213Y-74258028D01*
X114181613Y-74137715D01*
X114181612Y-74137714D01*
X114181610Y-74137713D01*
X114124653Y-74108691D01*
X113999223Y-74044781D01*
X113804534Y-73981522D01*
X113629995Y-73953878D01*
X113602352Y-73949500D01*
X113397648Y-73949500D01*
X113373329Y-73953351D01*
X113195465Y-73981522D01*
X113000776Y-74044781D01*
X112818386Y-74137715D01*
X112652786Y-74258028D01*
X112508028Y-74402786D01*
X112387715Y-74568386D01*
X112294781Y-74750776D01*
X112231522Y-74945465D01*
X112199500Y-75147648D01*
X103952941Y-75147648D01*
X103905218Y-75000776D01*
X103871503Y-74934607D01*
X103812287Y-74818390D01*
X103763163Y-74750776D01*
X103691971Y-74652786D01*
X103547213Y-74508028D01*
X103381613Y-74387715D01*
X103381612Y-74387714D01*
X103381610Y-74387713D01*
X103304156Y-74348248D01*
X103199223Y-74294781D01*
X103004534Y-74231522D01*
X102829995Y-74203878D01*
X102802352Y-74199500D01*
X102597648Y-74199500D01*
X102573329Y-74203351D01*
X102395465Y-74231522D01*
X102200776Y-74294781D01*
X102018386Y-74387715D01*
X101852786Y-74508028D01*
X101708028Y-74652786D01*
X101587715Y-74818386D01*
X101494781Y-75000776D01*
X101431522Y-75195465D01*
X101399500Y-75397648D01*
X96380500Y-75397648D01*
X96348477Y-75195466D01*
X96348476Y-75195464D01*
X96285218Y-75000776D01*
X96251503Y-74934607D01*
X96192287Y-74818390D01*
X96143163Y-74750776D01*
X96071971Y-74652786D01*
X95927213Y-74508028D01*
X95761613Y-74387715D01*
X95761612Y-74387714D01*
X95761610Y-74387713D01*
X95684156Y-74348248D01*
X95579223Y-74294781D01*
X95384534Y-74231522D01*
X95209995Y-74203878D01*
X95182352Y-74199500D01*
X94977648Y-74199500D01*
X94953329Y-74203351D01*
X94775465Y-74231522D01*
X94580776Y-74294781D01*
X94398386Y-74387715D01*
X94232786Y-74508028D01*
X94088028Y-74652786D01*
X93967715Y-74818386D01*
X93874781Y-75000776D01*
X93811522Y-75195465D01*
X93779500Y-75397648D01*
X81454967Y-75397648D01*
X81430247Y-75346316D01*
X81371205Y-75252352D01*
X81250946Y-75060961D01*
X81040825Y-74797477D01*
X80802523Y-74559175D01*
X80539039Y-74349054D01*
X80253686Y-74169754D01*
X80253683Y-74169752D01*
X79950054Y-74023532D01*
X79631965Y-73912227D01*
X79631953Y-73912223D01*
X79303397Y-73837233D01*
X79303381Y-73837231D01*
X78968508Y-73799500D01*
X78968504Y-73799500D01*
X78631496Y-73799500D01*
X78631491Y-73799500D01*
X78296618Y-73837231D01*
X78296602Y-73837233D01*
X77968046Y-73912223D01*
X77968034Y-73912227D01*
X77649945Y-74023532D01*
X77346316Y-74169752D01*
X77092480Y-74329248D01*
X77025243Y-74348248D01*
X76958408Y-74327880D01*
X76913194Y-74274612D01*
X76903957Y-74205356D01*
X76915596Y-74168807D01*
X77365728Y-73268543D01*
X77413314Y-73217387D01*
X77476636Y-73200000D01*
X147329029Y-73200000D01*
X147396068Y-73219685D01*
G37*
%TD.AperFunction*%
%TD*%
M02*
