%TF.GenerationSoftware,KiCad,Pcbnew,9.0.0*%
%TF.CreationDate,2025-03-25T00:46:00+00:00*%
%TF.ProjectId,Wheelchair Powermeter PCB,57686565-6c63-4686-9169-7220506f7765,rev?*%
%TF.SameCoordinates,Original*%
%TF.FileFunction,Legend,Top*%
%TF.FilePolarity,Positive*%
%FSLAX46Y46*%
G04 Gerber Fmt 4.6, Leading zero omitted, Abs format (unit mm)*
G04 Created by KiCad (PCBNEW 9.0.0) date 2025-03-25 00:46:00*
%MOMM*%
%LPD*%
G01*
G04 APERTURE LIST*
%ADD10C,0.187500*%
%ADD11C,0.300000*%
%ADD12C,0.254000*%
%ADD13C,0.150000*%
%ADD14C,0.100000*%
%ADD15C,0.200000*%
%ADD16C,0.120000*%
%ADD17C,0.127000*%
G04 APERTURE END LIST*
D10*
X103337640Y-116067869D02*
X102837640Y-115591678D01*
X102480497Y-116067869D02*
X102480497Y-115067869D01*
X102480497Y-115067869D02*
X103051926Y-115067869D01*
X103051926Y-115067869D02*
X103194783Y-115115488D01*
X103194783Y-115115488D02*
X103266212Y-115163107D01*
X103266212Y-115163107D02*
X103337640Y-115258345D01*
X103337640Y-115258345D02*
X103337640Y-115401202D01*
X103337640Y-115401202D02*
X103266212Y-115496440D01*
X103266212Y-115496440D02*
X103194783Y-115544059D01*
X103194783Y-115544059D02*
X103051926Y-115591678D01*
X103051926Y-115591678D02*
X102480497Y-115591678D01*
X104837640Y-116067869D02*
X104337640Y-115591678D01*
X103980497Y-116067869D02*
X103980497Y-115067869D01*
X103980497Y-115067869D02*
X104551926Y-115067869D01*
X104551926Y-115067869D02*
X104694783Y-115115488D01*
X104694783Y-115115488D02*
X104766212Y-115163107D01*
X104766212Y-115163107D02*
X104837640Y-115258345D01*
X104837640Y-115258345D02*
X104837640Y-115401202D01*
X104837640Y-115401202D02*
X104766212Y-115496440D01*
X104766212Y-115496440D02*
X104694783Y-115544059D01*
X104694783Y-115544059D02*
X104551926Y-115591678D01*
X104551926Y-115591678D02*
X103980497Y-115591678D01*
X106409069Y-115067869D02*
X107266212Y-115067869D01*
X106837640Y-116067869D02*
X106837640Y-115067869D01*
X107766211Y-115544059D02*
X108266211Y-115544059D01*
X108480497Y-116067869D02*
X107766211Y-116067869D01*
X107766211Y-116067869D02*
X107766211Y-115067869D01*
X107766211Y-115067869D02*
X108480497Y-115067869D01*
X109051926Y-116020250D02*
X109266212Y-116067869D01*
X109266212Y-116067869D02*
X109623354Y-116067869D01*
X109623354Y-116067869D02*
X109766212Y-116020250D01*
X109766212Y-116020250D02*
X109837640Y-115972630D01*
X109837640Y-115972630D02*
X109909069Y-115877392D01*
X109909069Y-115877392D02*
X109909069Y-115782154D01*
X109909069Y-115782154D02*
X109837640Y-115686916D01*
X109837640Y-115686916D02*
X109766212Y-115639297D01*
X109766212Y-115639297D02*
X109623354Y-115591678D01*
X109623354Y-115591678D02*
X109337640Y-115544059D01*
X109337640Y-115544059D02*
X109194783Y-115496440D01*
X109194783Y-115496440D02*
X109123354Y-115448821D01*
X109123354Y-115448821D02*
X109051926Y-115353583D01*
X109051926Y-115353583D02*
X109051926Y-115258345D01*
X109051926Y-115258345D02*
X109123354Y-115163107D01*
X109123354Y-115163107D02*
X109194783Y-115115488D01*
X109194783Y-115115488D02*
X109337640Y-115067869D01*
X109337640Y-115067869D02*
X109694783Y-115067869D01*
X109694783Y-115067869D02*
X109909069Y-115115488D01*
X110337640Y-115067869D02*
X111194783Y-115067869D01*
X110766211Y-116067869D02*
X110766211Y-115067869D01*
D11*
X118011653Y-116200828D02*
X117511653Y-115486542D01*
X117154510Y-116200828D02*
X117154510Y-114700828D01*
X117154510Y-114700828D02*
X117725939Y-114700828D01*
X117725939Y-114700828D02*
X117868796Y-114772257D01*
X117868796Y-114772257D02*
X117940225Y-114843685D01*
X117940225Y-114843685D02*
X118011653Y-114986542D01*
X118011653Y-114986542D02*
X118011653Y-115200828D01*
X118011653Y-115200828D02*
X117940225Y-115343685D01*
X117940225Y-115343685D02*
X117868796Y-115415114D01*
X117868796Y-115415114D02*
X117725939Y-115486542D01*
X117725939Y-115486542D02*
X117154510Y-115486542D01*
X118654510Y-115415114D02*
X119154510Y-115415114D01*
X119368796Y-116200828D02*
X118654510Y-116200828D01*
X118654510Y-116200828D02*
X118654510Y-114700828D01*
X118654510Y-114700828D02*
X119368796Y-114700828D01*
X120868796Y-116057971D02*
X120797368Y-116129400D01*
X120797368Y-116129400D02*
X120583082Y-116200828D01*
X120583082Y-116200828D02*
X120440225Y-116200828D01*
X120440225Y-116200828D02*
X120225939Y-116129400D01*
X120225939Y-116129400D02*
X120083082Y-115986542D01*
X120083082Y-115986542D02*
X120011653Y-115843685D01*
X120011653Y-115843685D02*
X119940225Y-115557971D01*
X119940225Y-115557971D02*
X119940225Y-115343685D01*
X119940225Y-115343685D02*
X120011653Y-115057971D01*
X120011653Y-115057971D02*
X120083082Y-114915114D01*
X120083082Y-114915114D02*
X120225939Y-114772257D01*
X120225939Y-114772257D02*
X120440225Y-114700828D01*
X120440225Y-114700828D02*
X120583082Y-114700828D01*
X120583082Y-114700828D02*
X120797368Y-114772257D01*
X120797368Y-114772257D02*
X120868796Y-114843685D01*
X121797368Y-114700828D02*
X122083082Y-114700828D01*
X122083082Y-114700828D02*
X122225939Y-114772257D01*
X122225939Y-114772257D02*
X122368796Y-114915114D01*
X122368796Y-114915114D02*
X122440225Y-115200828D01*
X122440225Y-115200828D02*
X122440225Y-115700828D01*
X122440225Y-115700828D02*
X122368796Y-115986542D01*
X122368796Y-115986542D02*
X122225939Y-116129400D01*
X122225939Y-116129400D02*
X122083082Y-116200828D01*
X122083082Y-116200828D02*
X121797368Y-116200828D01*
X121797368Y-116200828D02*
X121654511Y-116129400D01*
X121654511Y-116129400D02*
X121511653Y-115986542D01*
X121511653Y-115986542D02*
X121440225Y-115700828D01*
X121440225Y-115700828D02*
X121440225Y-115200828D01*
X121440225Y-115200828D02*
X121511653Y-114915114D01*
X121511653Y-114915114D02*
X121654511Y-114772257D01*
X121654511Y-114772257D02*
X121797368Y-114700828D01*
X123940225Y-116200828D02*
X123440225Y-115486542D01*
X123083082Y-116200828D02*
X123083082Y-114700828D01*
X123083082Y-114700828D02*
X123654511Y-114700828D01*
X123654511Y-114700828D02*
X123797368Y-114772257D01*
X123797368Y-114772257D02*
X123868797Y-114843685D01*
X123868797Y-114843685D02*
X123940225Y-114986542D01*
X123940225Y-114986542D02*
X123940225Y-115200828D01*
X123940225Y-115200828D02*
X123868797Y-115343685D01*
X123868797Y-115343685D02*
X123797368Y-115415114D01*
X123797368Y-115415114D02*
X123654511Y-115486542D01*
X123654511Y-115486542D02*
X123083082Y-115486542D01*
X124583082Y-116200828D02*
X124583082Y-114700828D01*
X124583082Y-114700828D02*
X124940225Y-114700828D01*
X124940225Y-114700828D02*
X125154511Y-114772257D01*
X125154511Y-114772257D02*
X125297368Y-114915114D01*
X125297368Y-114915114D02*
X125368797Y-115057971D01*
X125368797Y-115057971D02*
X125440225Y-115343685D01*
X125440225Y-115343685D02*
X125440225Y-115557971D01*
X125440225Y-115557971D02*
X125368797Y-115843685D01*
X125368797Y-115843685D02*
X125297368Y-115986542D01*
X125297368Y-115986542D02*
X125154511Y-116129400D01*
X125154511Y-116129400D02*
X124940225Y-116200828D01*
X124940225Y-116200828D02*
X124583082Y-116200828D01*
D12*
X121713842Y-111517619D02*
X121774318Y-111336190D01*
X121774318Y-111336190D02*
X121774318Y-111033809D01*
X121774318Y-111033809D02*
X121713842Y-110912857D01*
X121713842Y-110912857D02*
X121653365Y-110852381D01*
X121653365Y-110852381D02*
X121532413Y-110791904D01*
X121532413Y-110791904D02*
X121411461Y-110791904D01*
X121411461Y-110791904D02*
X121290508Y-110852381D01*
X121290508Y-110852381D02*
X121230032Y-110912857D01*
X121230032Y-110912857D02*
X121169556Y-111033809D01*
X121169556Y-111033809D02*
X121109080Y-111275714D01*
X121109080Y-111275714D02*
X121048603Y-111396666D01*
X121048603Y-111396666D02*
X120988127Y-111457143D01*
X120988127Y-111457143D02*
X120867175Y-111517619D01*
X120867175Y-111517619D02*
X120746222Y-111517619D01*
X120746222Y-111517619D02*
X120625270Y-111457143D01*
X120625270Y-111457143D02*
X120564794Y-111396666D01*
X120564794Y-111396666D02*
X120504318Y-111275714D01*
X120504318Y-111275714D02*
X120504318Y-110973333D01*
X120504318Y-110973333D02*
X120564794Y-110791904D01*
X121774318Y-109582380D02*
X121774318Y-110308095D01*
X121774318Y-109945238D02*
X120504318Y-109945238D01*
X120504318Y-109945238D02*
X120685746Y-110066190D01*
X120685746Y-110066190D02*
X120806699Y-110187142D01*
X120806699Y-110187142D02*
X120867175Y-110308095D01*
D13*
X135133333Y-75854819D02*
X135704761Y-75854819D01*
X135419047Y-76854819D02*
X135419047Y-75854819D01*
X136038095Y-76854819D02*
X136038095Y-75854819D01*
X136038095Y-75854819D02*
X136419047Y-75854819D01*
X136419047Y-75854819D02*
X136514285Y-75902438D01*
X136514285Y-75902438D02*
X136561904Y-75950057D01*
X136561904Y-75950057D02*
X136609523Y-76045295D01*
X136609523Y-76045295D02*
X136609523Y-76188152D01*
X136609523Y-76188152D02*
X136561904Y-76283390D01*
X136561904Y-76283390D02*
X136514285Y-76331009D01*
X136514285Y-76331009D02*
X136419047Y-76378628D01*
X136419047Y-76378628D02*
X136038095Y-76378628D01*
X136800000Y-76950057D02*
X137561904Y-76950057D01*
X138323809Y-75902438D02*
X138228571Y-75854819D01*
X138228571Y-75854819D02*
X138085714Y-75854819D01*
X138085714Y-75854819D02*
X137942857Y-75902438D01*
X137942857Y-75902438D02*
X137847619Y-75997676D01*
X137847619Y-75997676D02*
X137800000Y-76092914D01*
X137800000Y-76092914D02*
X137752381Y-76283390D01*
X137752381Y-76283390D02*
X137752381Y-76426247D01*
X137752381Y-76426247D02*
X137800000Y-76616723D01*
X137800000Y-76616723D02*
X137847619Y-76711961D01*
X137847619Y-76711961D02*
X137942857Y-76807200D01*
X137942857Y-76807200D02*
X138085714Y-76854819D01*
X138085714Y-76854819D02*
X138180952Y-76854819D01*
X138180952Y-76854819D02*
X138323809Y-76807200D01*
X138323809Y-76807200D02*
X138371428Y-76759580D01*
X138371428Y-76759580D02*
X138371428Y-76426247D01*
X138371428Y-76426247D02*
X138180952Y-76426247D01*
X138800000Y-76854819D02*
X138800000Y-75854819D01*
X138800000Y-75854819D02*
X139371428Y-76854819D01*
X139371428Y-76854819D02*
X139371428Y-75854819D01*
X139847619Y-76854819D02*
X139847619Y-75854819D01*
X139847619Y-75854819D02*
X140085714Y-75854819D01*
X140085714Y-75854819D02*
X140228571Y-75902438D01*
X140228571Y-75902438D02*
X140323809Y-75997676D01*
X140323809Y-75997676D02*
X140371428Y-76092914D01*
X140371428Y-76092914D02*
X140419047Y-76283390D01*
X140419047Y-76283390D02*
X140419047Y-76426247D01*
X140419047Y-76426247D02*
X140371428Y-76616723D01*
X140371428Y-76616723D02*
X140323809Y-76711961D01*
X140323809Y-76711961D02*
X140228571Y-76807200D01*
X140228571Y-76807200D02*
X140085714Y-76854819D01*
X140085714Y-76854819D02*
X139847619Y-76854819D01*
X140752381Y-75854819D02*
X141371428Y-75854819D01*
X141371428Y-75854819D02*
X141038095Y-76235771D01*
X141038095Y-76235771D02*
X141180952Y-76235771D01*
X141180952Y-76235771D02*
X141276190Y-76283390D01*
X141276190Y-76283390D02*
X141323809Y-76331009D01*
X141323809Y-76331009D02*
X141371428Y-76426247D01*
X141371428Y-76426247D02*
X141371428Y-76664342D01*
X141371428Y-76664342D02*
X141323809Y-76759580D01*
X141323809Y-76759580D02*
X141276190Y-76807200D01*
X141276190Y-76807200D02*
X141180952Y-76854819D01*
X141180952Y-76854819D02*
X140895238Y-76854819D01*
X140895238Y-76854819D02*
X140800000Y-76807200D01*
X140800000Y-76807200D02*
X140752381Y-76759580D01*
X77066666Y-116354819D02*
X76733333Y-115878628D01*
X76495238Y-116354819D02*
X76495238Y-115354819D01*
X76495238Y-115354819D02*
X76876190Y-115354819D01*
X76876190Y-115354819D02*
X76971428Y-115402438D01*
X76971428Y-115402438D02*
X77019047Y-115450057D01*
X77019047Y-115450057D02*
X77066666Y-115545295D01*
X77066666Y-115545295D02*
X77066666Y-115688152D01*
X77066666Y-115688152D02*
X77019047Y-115783390D01*
X77019047Y-115783390D02*
X76971428Y-115831009D01*
X76971428Y-115831009D02*
X76876190Y-115878628D01*
X76876190Y-115878628D02*
X76495238Y-115878628D01*
X77495238Y-115831009D02*
X77828571Y-115831009D01*
X77971428Y-116354819D02*
X77495238Y-116354819D01*
X77495238Y-116354819D02*
X77495238Y-115354819D01*
X77495238Y-115354819D02*
X77971428Y-115354819D01*
X78733333Y-115831009D02*
X78400000Y-115831009D01*
X78400000Y-116354819D02*
X78400000Y-115354819D01*
X78400000Y-115354819D02*
X78876190Y-115354819D01*
X79400000Y-115354819D02*
X79400000Y-115592914D01*
X79161905Y-115497676D02*
X79400000Y-115592914D01*
X79400000Y-115592914D02*
X79638095Y-115497676D01*
X79257143Y-115783390D02*
X79400000Y-115592914D01*
X79400000Y-115592914D02*
X79542857Y-115783390D01*
X80161905Y-115354819D02*
X80161905Y-115592914D01*
X79923810Y-115497676D02*
X80161905Y-115592914D01*
X80161905Y-115592914D02*
X80400000Y-115497676D01*
X80019048Y-115783390D02*
X80161905Y-115592914D01*
X80161905Y-115592914D02*
X80304762Y-115783390D01*
X139149819Y-112521904D02*
X139959342Y-112521904D01*
X139959342Y-112521904D02*
X140054580Y-112474285D01*
X140054580Y-112474285D02*
X140102200Y-112426666D01*
X140102200Y-112426666D02*
X140149819Y-112331428D01*
X140149819Y-112331428D02*
X140149819Y-112140952D01*
X140149819Y-112140952D02*
X140102200Y-112045714D01*
X140102200Y-112045714D02*
X140054580Y-111998095D01*
X140054580Y-111998095D02*
X139959342Y-111950476D01*
X139959342Y-111950476D02*
X139149819Y-111950476D01*
X139483152Y-111045714D02*
X140149819Y-111045714D01*
X139102200Y-111283809D02*
X139816485Y-111521904D01*
X139816485Y-111521904D02*
X139816485Y-110902857D01*
X145149819Y-115807618D02*
X144149819Y-115807618D01*
X144149819Y-115807618D02*
X144864104Y-115474285D01*
X144864104Y-115474285D02*
X144149819Y-115140952D01*
X144149819Y-115140952D02*
X145149819Y-115140952D01*
X145149819Y-114664761D02*
X144149819Y-114664761D01*
X144149819Y-114664761D02*
X144149819Y-114283809D01*
X144149819Y-114283809D02*
X144197438Y-114188571D01*
X144197438Y-114188571D02*
X144245057Y-114140952D01*
X144245057Y-114140952D02*
X144340295Y-114093333D01*
X144340295Y-114093333D02*
X144483152Y-114093333D01*
X144483152Y-114093333D02*
X144578390Y-114140952D01*
X144578390Y-114140952D02*
X144626009Y-114188571D01*
X144626009Y-114188571D02*
X144673628Y-114283809D01*
X144673628Y-114283809D02*
X144673628Y-114664761D01*
X145149819Y-113188571D02*
X145149819Y-113664761D01*
X145149819Y-113664761D02*
X144149819Y-113664761D01*
X144149819Y-112950475D02*
X144149819Y-112331428D01*
X144149819Y-112331428D02*
X144530771Y-112664761D01*
X144530771Y-112664761D02*
X144530771Y-112521904D01*
X144530771Y-112521904D02*
X144578390Y-112426666D01*
X144578390Y-112426666D02*
X144626009Y-112379047D01*
X144626009Y-112379047D02*
X144721247Y-112331428D01*
X144721247Y-112331428D02*
X144959342Y-112331428D01*
X144959342Y-112331428D02*
X145054580Y-112379047D01*
X145054580Y-112379047D02*
X145102200Y-112426666D01*
X145102200Y-112426666D02*
X145149819Y-112521904D01*
X145149819Y-112521904D02*
X145149819Y-112807618D01*
X145149819Y-112807618D02*
X145102200Y-112902856D01*
X145102200Y-112902856D02*
X145054580Y-112950475D01*
X145149819Y-111379047D02*
X145149819Y-111950475D01*
X145149819Y-111664761D02*
X144149819Y-111664761D01*
X144149819Y-111664761D02*
X144292676Y-111759999D01*
X144292676Y-111759999D02*
X144387914Y-111855237D01*
X144387914Y-111855237D02*
X144435533Y-111950475D01*
X145149819Y-110426666D02*
X145149819Y-110998094D01*
X145149819Y-110712380D02*
X144149819Y-110712380D01*
X144149819Y-110712380D02*
X144292676Y-110807618D01*
X144292676Y-110807618D02*
X144387914Y-110902856D01*
X144387914Y-110902856D02*
X144435533Y-110998094D01*
X144149819Y-109521904D02*
X144149819Y-109998094D01*
X144149819Y-109998094D02*
X144626009Y-110045713D01*
X144626009Y-110045713D02*
X144578390Y-109998094D01*
X144578390Y-109998094D02*
X144530771Y-109902856D01*
X144530771Y-109902856D02*
X144530771Y-109664761D01*
X144530771Y-109664761D02*
X144578390Y-109569523D01*
X144578390Y-109569523D02*
X144626009Y-109521904D01*
X144626009Y-109521904D02*
X144721247Y-109474285D01*
X144721247Y-109474285D02*
X144959342Y-109474285D01*
X144959342Y-109474285D02*
X145054580Y-109521904D01*
X145054580Y-109521904D02*
X145102200Y-109569523D01*
X145102200Y-109569523D02*
X145149819Y-109664761D01*
X145149819Y-109664761D02*
X145149819Y-109902856D01*
X145149819Y-109902856D02*
X145102200Y-109998094D01*
X145102200Y-109998094D02*
X145054580Y-110045713D01*
X144864104Y-109093332D02*
X144864104Y-108617142D01*
X145149819Y-109188570D02*
X144149819Y-108855237D01*
X144149819Y-108855237D02*
X145149819Y-108521904D01*
X144245057Y-108236189D02*
X144197438Y-108188570D01*
X144197438Y-108188570D02*
X144149819Y-108093332D01*
X144149819Y-108093332D02*
X144149819Y-107855237D01*
X144149819Y-107855237D02*
X144197438Y-107759999D01*
X144197438Y-107759999D02*
X144245057Y-107712380D01*
X144245057Y-107712380D02*
X144340295Y-107664761D01*
X144340295Y-107664761D02*
X144435533Y-107664761D01*
X144435533Y-107664761D02*
X144578390Y-107712380D01*
X144578390Y-107712380D02*
X145149819Y-108283808D01*
X145149819Y-108283808D02*
X145149819Y-107664761D01*
X83728571Y-93854819D02*
X84299999Y-93854819D01*
X84014285Y-94854819D02*
X84014285Y-93854819D01*
X84633333Y-94854819D02*
X84633333Y-93854819D01*
X84633333Y-93854819D02*
X85014285Y-93854819D01*
X85014285Y-93854819D02*
X85109523Y-93902438D01*
X85109523Y-93902438D02*
X85157142Y-93950057D01*
X85157142Y-93950057D02*
X85204761Y-94045295D01*
X85204761Y-94045295D02*
X85204761Y-94188152D01*
X85204761Y-94188152D02*
X85157142Y-94283390D01*
X85157142Y-94283390D02*
X85109523Y-94331009D01*
X85109523Y-94331009D02*
X85014285Y-94378628D01*
X85014285Y-94378628D02*
X84633333Y-94378628D01*
X85395238Y-94950057D02*
X86157142Y-94950057D01*
X86252381Y-93854819D02*
X86585714Y-94854819D01*
X86585714Y-94854819D02*
X86919047Y-93854819D01*
X87585714Y-94331009D02*
X87728571Y-94378628D01*
X87728571Y-94378628D02*
X87776190Y-94426247D01*
X87776190Y-94426247D02*
X87823809Y-94521485D01*
X87823809Y-94521485D02*
X87823809Y-94664342D01*
X87823809Y-94664342D02*
X87776190Y-94759580D01*
X87776190Y-94759580D02*
X87728571Y-94807200D01*
X87728571Y-94807200D02*
X87633333Y-94854819D01*
X87633333Y-94854819D02*
X87252381Y-94854819D01*
X87252381Y-94854819D02*
X87252381Y-93854819D01*
X87252381Y-93854819D02*
X87585714Y-93854819D01*
X87585714Y-93854819D02*
X87680952Y-93902438D01*
X87680952Y-93902438D02*
X87728571Y-93950057D01*
X87728571Y-93950057D02*
X87776190Y-94045295D01*
X87776190Y-94045295D02*
X87776190Y-94140533D01*
X87776190Y-94140533D02*
X87728571Y-94235771D01*
X87728571Y-94235771D02*
X87680952Y-94283390D01*
X87680952Y-94283390D02*
X87585714Y-94331009D01*
X87585714Y-94331009D02*
X87252381Y-94331009D01*
X88252381Y-93854819D02*
X88252381Y-94664342D01*
X88252381Y-94664342D02*
X88300000Y-94759580D01*
X88300000Y-94759580D02*
X88347619Y-94807200D01*
X88347619Y-94807200D02*
X88442857Y-94854819D01*
X88442857Y-94854819D02*
X88633333Y-94854819D01*
X88633333Y-94854819D02*
X88728571Y-94807200D01*
X88728571Y-94807200D02*
X88776190Y-94759580D01*
X88776190Y-94759580D02*
X88823809Y-94664342D01*
X88823809Y-94664342D02*
X88823809Y-93854819D01*
X89252381Y-94807200D02*
X89395238Y-94854819D01*
X89395238Y-94854819D02*
X89633333Y-94854819D01*
X89633333Y-94854819D02*
X89728571Y-94807200D01*
X89728571Y-94807200D02*
X89776190Y-94759580D01*
X89776190Y-94759580D02*
X89823809Y-94664342D01*
X89823809Y-94664342D02*
X89823809Y-94569104D01*
X89823809Y-94569104D02*
X89776190Y-94473866D01*
X89776190Y-94473866D02*
X89728571Y-94426247D01*
X89728571Y-94426247D02*
X89633333Y-94378628D01*
X89633333Y-94378628D02*
X89442857Y-94331009D01*
X89442857Y-94331009D02*
X89347619Y-94283390D01*
X89347619Y-94283390D02*
X89300000Y-94235771D01*
X89300000Y-94235771D02*
X89252381Y-94140533D01*
X89252381Y-94140533D02*
X89252381Y-94045295D01*
X89252381Y-94045295D02*
X89300000Y-93950057D01*
X89300000Y-93950057D02*
X89347619Y-93902438D01*
X89347619Y-93902438D02*
X89442857Y-93854819D01*
X89442857Y-93854819D02*
X89680952Y-93854819D01*
X89680952Y-93854819D02*
X89823809Y-93902438D01*
X90776190Y-94854819D02*
X90204762Y-94854819D01*
X90490476Y-94854819D02*
X90490476Y-93854819D01*
X90490476Y-93854819D02*
X90395238Y-93997676D01*
X90395238Y-93997676D02*
X90300000Y-94092914D01*
X90300000Y-94092914D02*
X90204762Y-94140533D01*
X144866666Y-73554819D02*
X144533333Y-73078628D01*
X144295238Y-73554819D02*
X144295238Y-72554819D01*
X144295238Y-72554819D02*
X144676190Y-72554819D01*
X144676190Y-72554819D02*
X144771428Y-72602438D01*
X144771428Y-72602438D02*
X144819047Y-72650057D01*
X144819047Y-72650057D02*
X144866666Y-72745295D01*
X144866666Y-72745295D02*
X144866666Y-72888152D01*
X144866666Y-72888152D02*
X144819047Y-72983390D01*
X144819047Y-72983390D02*
X144771428Y-73031009D01*
X144771428Y-73031009D02*
X144676190Y-73078628D01*
X144676190Y-73078628D02*
X144295238Y-73078628D01*
X145295238Y-73031009D02*
X145628571Y-73031009D01*
X145771428Y-73554819D02*
X145295238Y-73554819D01*
X145295238Y-73554819D02*
X145295238Y-72554819D01*
X145295238Y-72554819D02*
X145771428Y-72554819D01*
X146533333Y-73031009D02*
X146200000Y-73031009D01*
X146200000Y-73554819D02*
X146200000Y-72554819D01*
X146200000Y-72554819D02*
X146676190Y-72554819D01*
X147200000Y-72554819D02*
X147200000Y-72792914D01*
X146961905Y-72697676D02*
X147200000Y-72792914D01*
X147200000Y-72792914D02*
X147438095Y-72697676D01*
X147057143Y-72983390D02*
X147200000Y-72792914D01*
X147200000Y-72792914D02*
X147342857Y-72983390D01*
X147961905Y-72554819D02*
X147961905Y-72792914D01*
X147723810Y-72697676D02*
X147961905Y-72792914D01*
X147961905Y-72792914D02*
X148200000Y-72697676D01*
X147819048Y-72983390D02*
X147961905Y-72792914D01*
X147961905Y-72792914D02*
X148104762Y-72983390D01*
X126266666Y-117154819D02*
X125933333Y-116678628D01*
X125695238Y-117154819D02*
X125695238Y-116154819D01*
X125695238Y-116154819D02*
X126076190Y-116154819D01*
X126076190Y-116154819D02*
X126171428Y-116202438D01*
X126171428Y-116202438D02*
X126219047Y-116250057D01*
X126219047Y-116250057D02*
X126266666Y-116345295D01*
X126266666Y-116345295D02*
X126266666Y-116488152D01*
X126266666Y-116488152D02*
X126219047Y-116583390D01*
X126219047Y-116583390D02*
X126171428Y-116631009D01*
X126171428Y-116631009D02*
X126076190Y-116678628D01*
X126076190Y-116678628D02*
X125695238Y-116678628D01*
X126695238Y-116631009D02*
X127028571Y-116631009D01*
X127171428Y-117154819D02*
X126695238Y-117154819D01*
X126695238Y-117154819D02*
X126695238Y-116154819D01*
X126695238Y-116154819D02*
X127171428Y-116154819D01*
X127933333Y-116631009D02*
X127600000Y-116631009D01*
X127600000Y-117154819D02*
X127600000Y-116154819D01*
X127600000Y-116154819D02*
X128076190Y-116154819D01*
X128600000Y-116154819D02*
X128600000Y-116392914D01*
X128361905Y-116297676D02*
X128600000Y-116392914D01*
X128600000Y-116392914D02*
X128838095Y-116297676D01*
X128457143Y-116583390D02*
X128600000Y-116392914D01*
X128600000Y-116392914D02*
X128742857Y-116583390D01*
X129361905Y-116154819D02*
X129361905Y-116392914D01*
X129123810Y-116297676D02*
X129361905Y-116392914D01*
X129361905Y-116392914D02*
X129600000Y-116297676D01*
X129219048Y-116583390D02*
X129361905Y-116392914D01*
X129361905Y-116392914D02*
X129504762Y-116583390D01*
X113413095Y-121654819D02*
X113413095Y-122464342D01*
X113413095Y-122464342D02*
X113460714Y-122559580D01*
X113460714Y-122559580D02*
X113508333Y-122607200D01*
X113508333Y-122607200D02*
X113603571Y-122654819D01*
X113603571Y-122654819D02*
X113794047Y-122654819D01*
X113794047Y-122654819D02*
X113889285Y-122607200D01*
X113889285Y-122607200D02*
X113936904Y-122559580D01*
X113936904Y-122559580D02*
X113984523Y-122464342D01*
X113984523Y-122464342D02*
X113984523Y-121654819D01*
X114936904Y-121654819D02*
X114460714Y-121654819D01*
X114460714Y-121654819D02*
X114413095Y-122131009D01*
X114413095Y-122131009D02*
X114460714Y-122083390D01*
X114460714Y-122083390D02*
X114555952Y-122035771D01*
X114555952Y-122035771D02*
X114794047Y-122035771D01*
X114794047Y-122035771D02*
X114889285Y-122083390D01*
X114889285Y-122083390D02*
X114936904Y-122131009D01*
X114936904Y-122131009D02*
X114984523Y-122226247D01*
X114984523Y-122226247D02*
X114984523Y-122464342D01*
X114984523Y-122464342D02*
X114936904Y-122559580D01*
X114936904Y-122559580D02*
X114889285Y-122607200D01*
X114889285Y-122607200D02*
X114794047Y-122654819D01*
X114794047Y-122654819D02*
X114555952Y-122654819D01*
X114555952Y-122654819D02*
X114460714Y-122607200D01*
X114460714Y-122607200D02*
X114413095Y-122559580D01*
D14*
X109853884Y-120191466D02*
X110615789Y-120191466D01*
X108334084Y-120180666D02*
X109095989Y-120180666D01*
X108715036Y-120561619D02*
X108715036Y-119799714D01*
X111704761Y-120488704D02*
X111680952Y-120526800D01*
X111680952Y-120526800D02*
X111609523Y-120564895D01*
X111609523Y-120564895D02*
X111561904Y-120564895D01*
X111561904Y-120564895D02*
X111490476Y-120526800D01*
X111490476Y-120526800D02*
X111442857Y-120450609D01*
X111442857Y-120450609D02*
X111419047Y-120374419D01*
X111419047Y-120374419D02*
X111395238Y-120222038D01*
X111395238Y-120222038D02*
X111395238Y-120107752D01*
X111395238Y-120107752D02*
X111419047Y-119955371D01*
X111419047Y-119955371D02*
X111442857Y-119879180D01*
X111442857Y-119879180D02*
X111490476Y-119802990D01*
X111490476Y-119802990D02*
X111561904Y-119764895D01*
X111561904Y-119764895D02*
X111609523Y-119764895D01*
X111609523Y-119764895D02*
X111680952Y-119802990D01*
X111680952Y-119802990D02*
X111704761Y-119841085D01*
X111919047Y-120564895D02*
X111919047Y-119764895D01*
X112204761Y-120564895D02*
X111990476Y-120107752D01*
X112204761Y-119764895D02*
X111919047Y-120222038D01*
X119133333Y-120145847D02*
X119204761Y-120183942D01*
X119204761Y-120183942D02*
X119228571Y-120222038D01*
X119228571Y-120222038D02*
X119252380Y-120298228D01*
X119252380Y-120298228D02*
X119252380Y-120412514D01*
X119252380Y-120412514D02*
X119228571Y-120488704D01*
X119228571Y-120488704D02*
X119204761Y-120526800D01*
X119204761Y-120526800D02*
X119157142Y-120564895D01*
X119157142Y-120564895D02*
X118966666Y-120564895D01*
X118966666Y-120564895D02*
X118966666Y-119764895D01*
X118966666Y-119764895D02*
X119133333Y-119764895D01*
X119133333Y-119764895D02*
X119180952Y-119802990D01*
X119180952Y-119802990D02*
X119204761Y-119841085D01*
X119204761Y-119841085D02*
X119228571Y-119917276D01*
X119228571Y-119917276D02*
X119228571Y-119993466D01*
X119228571Y-119993466D02*
X119204761Y-120069657D01*
X119204761Y-120069657D02*
X119180952Y-120107752D01*
X119180952Y-120107752D02*
X119133333Y-120145847D01*
X119133333Y-120145847D02*
X118966666Y-120145847D01*
X119704761Y-120564895D02*
X119466666Y-120564895D01*
X119466666Y-120564895D02*
X119466666Y-119764895D01*
X113038096Y-120526800D02*
X113109524Y-120564895D01*
X113109524Y-120564895D02*
X113228572Y-120564895D01*
X113228572Y-120564895D02*
X113276191Y-120526800D01*
X113276191Y-120526800D02*
X113300000Y-120488704D01*
X113300000Y-120488704D02*
X113323810Y-120412514D01*
X113323810Y-120412514D02*
X113323810Y-120336323D01*
X113323810Y-120336323D02*
X113300000Y-120260133D01*
X113300000Y-120260133D02*
X113276191Y-120222038D01*
X113276191Y-120222038D02*
X113228572Y-120183942D01*
X113228572Y-120183942D02*
X113133334Y-120145847D01*
X113133334Y-120145847D02*
X113085715Y-120107752D01*
X113085715Y-120107752D02*
X113061905Y-120069657D01*
X113061905Y-120069657D02*
X113038096Y-119993466D01*
X113038096Y-119993466D02*
X113038096Y-119917276D01*
X113038096Y-119917276D02*
X113061905Y-119841085D01*
X113061905Y-119841085D02*
X113085715Y-119802990D01*
X113085715Y-119802990D02*
X113133334Y-119764895D01*
X113133334Y-119764895D02*
X113252381Y-119764895D01*
X113252381Y-119764895D02*
X113323810Y-119802990D01*
X113538095Y-120564895D02*
X113538095Y-119764895D01*
X117419047Y-120564895D02*
X117419047Y-119764895D01*
X117419047Y-119764895D02*
X117538095Y-119764895D01*
X117538095Y-119764895D02*
X117609523Y-119802990D01*
X117609523Y-119802990D02*
X117657142Y-119879180D01*
X117657142Y-119879180D02*
X117680952Y-119955371D01*
X117680952Y-119955371D02*
X117704761Y-120107752D01*
X117704761Y-120107752D02*
X117704761Y-120222038D01*
X117704761Y-120222038D02*
X117680952Y-120374419D01*
X117680952Y-120374419D02*
X117657142Y-120450609D01*
X117657142Y-120450609D02*
X117609523Y-120526800D01*
X117609523Y-120526800D02*
X117538095Y-120564895D01*
X117538095Y-120564895D02*
X117419047Y-120564895D01*
X118204761Y-120488704D02*
X118180952Y-120526800D01*
X118180952Y-120526800D02*
X118109523Y-120564895D01*
X118109523Y-120564895D02*
X118061904Y-120564895D01*
X118061904Y-120564895D02*
X117990476Y-120526800D01*
X117990476Y-120526800D02*
X117942857Y-120450609D01*
X117942857Y-120450609D02*
X117919047Y-120374419D01*
X117919047Y-120374419D02*
X117895238Y-120222038D01*
X117895238Y-120222038D02*
X117895238Y-120107752D01*
X117895238Y-120107752D02*
X117919047Y-119955371D01*
X117919047Y-119955371D02*
X117942857Y-119879180D01*
X117942857Y-119879180D02*
X117990476Y-119802990D01*
X117990476Y-119802990D02*
X118061904Y-119764895D01*
X118061904Y-119764895D02*
X118109523Y-119764895D01*
X118109523Y-119764895D02*
X118180952Y-119802990D01*
X118180952Y-119802990D02*
X118204761Y-119841085D01*
X114716666Y-120488704D02*
X114692857Y-120526800D01*
X114692857Y-120526800D02*
X114621428Y-120564895D01*
X114621428Y-120564895D02*
X114573809Y-120564895D01*
X114573809Y-120564895D02*
X114502381Y-120526800D01*
X114502381Y-120526800D02*
X114454762Y-120450609D01*
X114454762Y-120450609D02*
X114430952Y-120374419D01*
X114430952Y-120374419D02*
X114407143Y-120222038D01*
X114407143Y-120222038D02*
X114407143Y-120107752D01*
X114407143Y-120107752D02*
X114430952Y-119955371D01*
X114430952Y-119955371D02*
X114454762Y-119879180D01*
X114454762Y-119879180D02*
X114502381Y-119802990D01*
X114502381Y-119802990D02*
X114573809Y-119764895D01*
X114573809Y-119764895D02*
X114621428Y-119764895D01*
X114621428Y-119764895D02*
X114692857Y-119802990D01*
X114692857Y-119802990D02*
X114716666Y-119841085D01*
X114907143Y-120526800D02*
X114978571Y-120564895D01*
X114978571Y-120564895D02*
X115097619Y-120564895D01*
X115097619Y-120564895D02*
X115145238Y-120526800D01*
X115145238Y-120526800D02*
X115169047Y-120488704D01*
X115169047Y-120488704D02*
X115192857Y-120412514D01*
X115192857Y-120412514D02*
X115192857Y-120336323D01*
X115192857Y-120336323D02*
X115169047Y-120260133D01*
X115169047Y-120260133D02*
X115145238Y-120222038D01*
X115145238Y-120222038D02*
X115097619Y-120183942D01*
X115097619Y-120183942D02*
X115002381Y-120145847D01*
X115002381Y-120145847D02*
X114954762Y-120107752D01*
X114954762Y-120107752D02*
X114930952Y-120069657D01*
X114930952Y-120069657D02*
X114907143Y-119993466D01*
X114907143Y-119993466D02*
X114907143Y-119917276D01*
X114907143Y-119917276D02*
X114930952Y-119841085D01*
X114930952Y-119841085D02*
X114954762Y-119802990D01*
X114954762Y-119802990D02*
X115002381Y-119764895D01*
X115002381Y-119764895D02*
X115121428Y-119764895D01*
X115121428Y-119764895D02*
X115192857Y-119802990D01*
X116264285Y-120564895D02*
X116097619Y-120183942D01*
X115978571Y-120564895D02*
X115978571Y-119764895D01*
X115978571Y-119764895D02*
X116169047Y-119764895D01*
X116169047Y-119764895D02*
X116216666Y-119802990D01*
X116216666Y-119802990D02*
X116240476Y-119841085D01*
X116240476Y-119841085D02*
X116264285Y-119917276D01*
X116264285Y-119917276D02*
X116264285Y-120031561D01*
X116264285Y-120031561D02*
X116240476Y-120107752D01*
X116240476Y-120107752D02*
X116216666Y-120145847D01*
X116216666Y-120145847D02*
X116169047Y-120183942D01*
X116169047Y-120183942D02*
X115978571Y-120183942D01*
X116407143Y-119764895D02*
X116692857Y-119764895D01*
X116550000Y-120564895D02*
X116550000Y-119764895D01*
D13*
X77466666Y-73754819D02*
X77133333Y-73278628D01*
X76895238Y-73754819D02*
X76895238Y-72754819D01*
X76895238Y-72754819D02*
X77276190Y-72754819D01*
X77276190Y-72754819D02*
X77371428Y-72802438D01*
X77371428Y-72802438D02*
X77419047Y-72850057D01*
X77419047Y-72850057D02*
X77466666Y-72945295D01*
X77466666Y-72945295D02*
X77466666Y-73088152D01*
X77466666Y-73088152D02*
X77419047Y-73183390D01*
X77419047Y-73183390D02*
X77371428Y-73231009D01*
X77371428Y-73231009D02*
X77276190Y-73278628D01*
X77276190Y-73278628D02*
X76895238Y-73278628D01*
X77895238Y-73231009D02*
X78228571Y-73231009D01*
X78371428Y-73754819D02*
X77895238Y-73754819D01*
X77895238Y-73754819D02*
X77895238Y-72754819D01*
X77895238Y-72754819D02*
X78371428Y-72754819D01*
X79133333Y-73231009D02*
X78800000Y-73231009D01*
X78800000Y-73754819D02*
X78800000Y-72754819D01*
X78800000Y-72754819D02*
X79276190Y-72754819D01*
X79800000Y-72754819D02*
X79800000Y-72992914D01*
X79561905Y-72897676D02*
X79800000Y-72992914D01*
X79800000Y-72992914D02*
X80038095Y-72897676D01*
X79657143Y-73183390D02*
X79800000Y-72992914D01*
X79800000Y-72992914D02*
X79942857Y-73183390D01*
X80561905Y-72754819D02*
X80561905Y-72992914D01*
X80323810Y-72897676D02*
X80561905Y-72992914D01*
X80561905Y-72992914D02*
X80800000Y-72897676D01*
X80419048Y-73183390D02*
X80561905Y-72992914D01*
X80561905Y-72992914D02*
X80704762Y-73183390D01*
X128538095Y-75754819D02*
X129109523Y-75754819D01*
X128823809Y-76754819D02*
X128823809Y-75754819D01*
X129442857Y-76754819D02*
X129442857Y-75754819D01*
X129442857Y-75754819D02*
X129823809Y-75754819D01*
X129823809Y-75754819D02*
X129919047Y-75802438D01*
X129919047Y-75802438D02*
X129966666Y-75850057D01*
X129966666Y-75850057D02*
X130014285Y-75945295D01*
X130014285Y-75945295D02*
X130014285Y-76088152D01*
X130014285Y-76088152D02*
X129966666Y-76183390D01*
X129966666Y-76183390D02*
X129919047Y-76231009D01*
X129919047Y-76231009D02*
X129823809Y-76278628D01*
X129823809Y-76278628D02*
X129442857Y-76278628D01*
X130204762Y-76850057D02*
X130966666Y-76850057D01*
X131109524Y-75754819D02*
X131728571Y-75754819D01*
X131728571Y-75754819D02*
X131395238Y-76135771D01*
X131395238Y-76135771D02*
X131538095Y-76135771D01*
X131538095Y-76135771D02*
X131633333Y-76183390D01*
X131633333Y-76183390D02*
X131680952Y-76231009D01*
X131680952Y-76231009D02*
X131728571Y-76326247D01*
X131728571Y-76326247D02*
X131728571Y-76564342D01*
X131728571Y-76564342D02*
X131680952Y-76659580D01*
X131680952Y-76659580D02*
X131633333Y-76707200D01*
X131633333Y-76707200D02*
X131538095Y-76754819D01*
X131538095Y-76754819D02*
X131252381Y-76754819D01*
X131252381Y-76754819D02*
X131157143Y-76707200D01*
X131157143Y-76707200D02*
X131109524Y-76659580D01*
X132157143Y-76659580D02*
X132204762Y-76707200D01*
X132204762Y-76707200D02*
X132157143Y-76754819D01*
X132157143Y-76754819D02*
X132109524Y-76707200D01*
X132109524Y-76707200D02*
X132157143Y-76659580D01*
X132157143Y-76659580D02*
X132157143Y-76754819D01*
X132538095Y-75754819D02*
X133157142Y-75754819D01*
X133157142Y-75754819D02*
X132823809Y-76135771D01*
X132823809Y-76135771D02*
X132966666Y-76135771D01*
X132966666Y-76135771D02*
X133061904Y-76183390D01*
X133061904Y-76183390D02*
X133109523Y-76231009D01*
X133109523Y-76231009D02*
X133157142Y-76326247D01*
X133157142Y-76326247D02*
X133157142Y-76564342D01*
X133157142Y-76564342D02*
X133109523Y-76659580D01*
X133109523Y-76659580D02*
X133061904Y-76707200D01*
X133061904Y-76707200D02*
X132966666Y-76754819D01*
X132966666Y-76754819D02*
X132680952Y-76754819D01*
X132680952Y-76754819D02*
X132585714Y-76707200D01*
X132585714Y-76707200D02*
X132538095Y-76659580D01*
X133442857Y-75754819D02*
X133776190Y-76754819D01*
X133776190Y-76754819D02*
X134109523Y-75754819D01*
X134966666Y-76754819D02*
X134395238Y-76754819D01*
X134680952Y-76754819D02*
X134680952Y-75754819D01*
X134680952Y-75754819D02*
X134585714Y-75897676D01*
X134585714Y-75897676D02*
X134490476Y-75992914D01*
X134490476Y-75992914D02*
X134395238Y-76040533D01*
X73794819Y-93561904D02*
X74604342Y-93561904D01*
X74604342Y-93561904D02*
X74699580Y-93514285D01*
X74699580Y-93514285D02*
X74747200Y-93466666D01*
X74747200Y-93466666D02*
X74794819Y-93371428D01*
X74794819Y-93371428D02*
X74794819Y-93180952D01*
X74794819Y-93180952D02*
X74747200Y-93085714D01*
X74747200Y-93085714D02*
X74699580Y-93038095D01*
X74699580Y-93038095D02*
X74604342Y-92990476D01*
X74604342Y-92990476D02*
X73794819Y-92990476D01*
X74794819Y-91990476D02*
X74794819Y-92561904D01*
X74794819Y-92276190D02*
X73794819Y-92276190D01*
X73794819Y-92276190D02*
X73937676Y-92371428D01*
X73937676Y-92371428D02*
X74032914Y-92466666D01*
X74032914Y-92466666D02*
X74080533Y-92561904D01*
D12*
X107013842Y-111517619D02*
X107074318Y-111336190D01*
X107074318Y-111336190D02*
X107074318Y-111033809D01*
X107074318Y-111033809D02*
X107013842Y-110912857D01*
X107013842Y-110912857D02*
X106953365Y-110852381D01*
X106953365Y-110852381D02*
X106832413Y-110791904D01*
X106832413Y-110791904D02*
X106711461Y-110791904D01*
X106711461Y-110791904D02*
X106590508Y-110852381D01*
X106590508Y-110852381D02*
X106530032Y-110912857D01*
X106530032Y-110912857D02*
X106469556Y-111033809D01*
X106469556Y-111033809D02*
X106409080Y-111275714D01*
X106409080Y-111275714D02*
X106348603Y-111396666D01*
X106348603Y-111396666D02*
X106288127Y-111457143D01*
X106288127Y-111457143D02*
X106167175Y-111517619D01*
X106167175Y-111517619D02*
X106046222Y-111517619D01*
X106046222Y-111517619D02*
X105925270Y-111457143D01*
X105925270Y-111457143D02*
X105864794Y-111396666D01*
X105864794Y-111396666D02*
X105804318Y-111275714D01*
X105804318Y-111275714D02*
X105804318Y-110973333D01*
X105804318Y-110973333D02*
X105864794Y-110791904D01*
X105925270Y-110308095D02*
X105864794Y-110247619D01*
X105864794Y-110247619D02*
X105804318Y-110126666D01*
X105804318Y-110126666D02*
X105804318Y-109824285D01*
X105804318Y-109824285D02*
X105864794Y-109703333D01*
X105864794Y-109703333D02*
X105925270Y-109642857D01*
X105925270Y-109642857D02*
X106046222Y-109582380D01*
X106046222Y-109582380D02*
X106167175Y-109582380D01*
X106167175Y-109582380D02*
X106348603Y-109642857D01*
X106348603Y-109642857D02*
X107074318Y-110368571D01*
X107074318Y-110368571D02*
X107074318Y-109582380D01*
D13*
X84433333Y-110289866D02*
X84433333Y-111423200D01*
X84433333Y-111423200D02*
X84500000Y-111556533D01*
X84500000Y-111556533D02*
X84566666Y-111623200D01*
X84566666Y-111623200D02*
X84700000Y-111689866D01*
X84700000Y-111689866D02*
X84966666Y-111689866D01*
X84966666Y-111689866D02*
X85100000Y-111623200D01*
X85100000Y-111623200D02*
X85166666Y-111556533D01*
X85166666Y-111556533D02*
X85233333Y-111423200D01*
X85233333Y-111423200D02*
X85233333Y-110289866D01*
X85833333Y-110423200D02*
X85900000Y-110356533D01*
X85900000Y-110356533D02*
X86033333Y-110289866D01*
X86033333Y-110289866D02*
X86366667Y-110289866D01*
X86366667Y-110289866D02*
X86500000Y-110356533D01*
X86500000Y-110356533D02*
X86566667Y-110423200D01*
X86566667Y-110423200D02*
X86633333Y-110556533D01*
X86633333Y-110556533D02*
X86633333Y-110689866D01*
X86633333Y-110689866D02*
X86566667Y-110889866D01*
X86566667Y-110889866D02*
X85766667Y-111689866D01*
X85766667Y-111689866D02*
X86633333Y-111689866D01*
X89316666Y-82409819D02*
X89316666Y-83124104D01*
X89316666Y-83124104D02*
X89269047Y-83266961D01*
X89269047Y-83266961D02*
X89173809Y-83362200D01*
X89173809Y-83362200D02*
X89030952Y-83409819D01*
X89030952Y-83409819D02*
X88935714Y-83409819D01*
X90316666Y-83409819D02*
X89745238Y-83409819D01*
X90030952Y-83409819D02*
X90030952Y-82409819D01*
X90030952Y-82409819D02*
X89935714Y-82552676D01*
X89935714Y-82552676D02*
X89840476Y-82647914D01*
X89840476Y-82647914D02*
X89745238Y-82695533D01*
X135488095Y-92104819D02*
X135488095Y-92914342D01*
X135488095Y-92914342D02*
X135535714Y-93009580D01*
X135535714Y-93009580D02*
X135583333Y-93057200D01*
X135583333Y-93057200D02*
X135678571Y-93104819D01*
X135678571Y-93104819D02*
X135869047Y-93104819D01*
X135869047Y-93104819D02*
X135964285Y-93057200D01*
X135964285Y-93057200D02*
X136011904Y-93009580D01*
X136011904Y-93009580D02*
X136059523Y-92914342D01*
X136059523Y-92914342D02*
X136059523Y-92104819D01*
X136440476Y-92104819D02*
X137059523Y-92104819D01*
X137059523Y-92104819D02*
X136726190Y-92485771D01*
X136726190Y-92485771D02*
X136869047Y-92485771D01*
X136869047Y-92485771D02*
X136964285Y-92533390D01*
X136964285Y-92533390D02*
X137011904Y-92581009D01*
X137011904Y-92581009D02*
X137059523Y-92676247D01*
X137059523Y-92676247D02*
X137059523Y-92914342D01*
X137059523Y-92914342D02*
X137011904Y-93009580D01*
X137011904Y-93009580D02*
X136964285Y-93057200D01*
X136964285Y-93057200D02*
X136869047Y-93104819D01*
X136869047Y-93104819D02*
X136583333Y-93104819D01*
X136583333Y-93104819D02*
X136488095Y-93057200D01*
X136488095Y-93057200D02*
X136440476Y-93009580D01*
D15*
%TO.C,S1*%
X118100000Y-109550000D02*
X118100000Y-111550000D01*
X123700000Y-107450000D02*
X118700000Y-107450000D01*
X123700000Y-113650000D02*
X118700000Y-113650000D01*
X124300000Y-109550000D02*
X124300000Y-111550000D01*
D14*
X127250000Y-112800000D02*
X127250000Y-112800000D01*
X127350000Y-112800000D02*
X127350000Y-112800000D01*
X127250000Y-112800000D02*
G75*
G02*
X127350000Y-112800000I50000J0D01*
G01*
X127350000Y-112800000D02*
G75*
G02*
X127250000Y-112800000I-50000J0D01*
G01*
D16*
%TO.C,TP_GND3*%
X141100000Y-79600000D02*
G75*
G02*
X136500000Y-79600000I-2300000J0D01*
G01*
X136500000Y-79600000D02*
G75*
G02*
X141100000Y-79600000I2300000J0D01*
G01*
%TO.C,U4*%
X145695000Y-103040000D02*
X148695000Y-103040000D01*
X145695000Y-118110000D02*
X148695000Y-118110000D01*
X145695000Y-120480000D02*
X145695000Y-103040000D01*
X148695000Y-103040000D02*
X148695000Y-120480000D01*
X148695000Y-120480000D02*
X145695000Y-120480000D01*
D14*
X130695000Y-120480000D02*
X148695000Y-120480000D01*
X148695000Y-103040000D01*
X130695000Y-103040000D01*
X130695000Y-120480000D01*
D16*
%TO.C,TP_VBUS1*%
X89100000Y-91200000D02*
G75*
G02*
X84500000Y-91200000I-2300000J0D01*
G01*
X84500000Y-91200000D02*
G75*
G02*
X89100000Y-91200000I2300000J0D01*
G01*
%TO.C,U5*%
X107800000Y-116600000D02*
X120300000Y-116600000D01*
X107800000Y-121200000D02*
X107800000Y-116600000D01*
X120300000Y-116600000D02*
X120300000Y-121200000D01*
X120300000Y-121200000D02*
X107800000Y-121200000D01*
%TO.C,TP_3.3V1*%
X134100000Y-79400000D02*
G75*
G02*
X129500000Y-79400000I-2300000J0D01*
G01*
X129500000Y-79400000D02*
G75*
G02*
X134100000Y-79400000I2300000J0D01*
G01*
%TO.C,U1*%
X75340000Y-81300000D02*
X75340000Y-88966667D01*
X75340000Y-88966667D02*
X75700000Y-88966667D01*
X75340000Y-96633333D02*
X75340000Y-104299999D01*
X75340000Y-104299999D02*
X116240000Y-104300000D01*
X75700000Y-88966667D02*
X75700000Y-96633333D01*
X75700000Y-96633333D02*
X75340000Y-96633333D01*
X116240000Y-81300001D02*
X75340000Y-81300000D01*
X116240000Y-104300000D02*
X116240000Y-81300001D01*
D14*
X70540000Y-80050000D02*
X123450000Y-80050000D01*
X123450000Y-105550000D01*
X70540000Y-105550000D01*
X70540000Y-80050000D01*
D15*
%TO.C,S2*%
X103400000Y-109550000D02*
X103400000Y-111550000D01*
X109000000Y-107450000D02*
X104000000Y-107450000D01*
X109000000Y-113650000D02*
X104000000Y-113650000D01*
X109600000Y-109550000D02*
X109600000Y-111550000D01*
D14*
X112550000Y-112800000D02*
X112550000Y-112800000D01*
X112650000Y-112800000D02*
X112650000Y-112800000D01*
X112550000Y-112800000D02*
G75*
G02*
X112650000Y-112800000I50000J0D01*
G01*
X112650000Y-112800000D02*
G75*
G02*
X112550000Y-112800000I-50000J0D01*
G01*
D17*
%TO.C,U2*%
X79212500Y-106000000D02*
X91612500Y-106000000D01*
X81512500Y-115900000D02*
X79212500Y-115900000D01*
X81512500Y-115900000D02*
X81512500Y-123400000D01*
X81512500Y-123400000D02*
X89312500Y-123400000D01*
X89312500Y-115900000D02*
X81512500Y-115900000D01*
X89312500Y-123400000D02*
X89312500Y-115900000D01*
X91612500Y-115900000D02*
X89312500Y-115900000D01*
D11*
X93312500Y-114750000D02*
G75*
G02*
X93112500Y-114750000I-100000J0D01*
G01*
X93112500Y-114750000D02*
G75*
G02*
X93312500Y-114750000I100000J0D01*
G01*
D15*
%TO.C,J1*%
X83330000Y-72660000D02*
X83330000Y-73010000D01*
X83330000Y-76250000D02*
X83330000Y-75570000D01*
X92270000Y-72660000D02*
X83330000Y-72660000D01*
X92270000Y-73010000D02*
X92270000Y-72660000D01*
X92270000Y-76250000D02*
X92270000Y-75570000D01*
X90875000Y-80100000D02*
G75*
G02*
X90675000Y-80100000I-100000J0D01*
G01*
X90675000Y-80100000D02*
G75*
G02*
X90875000Y-80100000I100000J0D01*
G01*
D17*
%TO.C,U3*%
X123450000Y-99000000D02*
X123450000Y-86300000D01*
X125990000Y-83760000D02*
X146310000Y-83760000D01*
X146310000Y-101540000D02*
X125990000Y-101540000D01*
X148850000Y-86300000D02*
X148850000Y-99000000D01*
X123450000Y-86300000D02*
G75*
G02*
X125990000Y-83760000I2540001J-1D01*
G01*
X125990000Y-101540000D02*
G75*
G02*
X123450000Y-99000000I1J2540001D01*
G01*
X146310000Y-83760000D02*
G75*
G02*
X148850000Y-86300000I0J-2540000D01*
G01*
X148850000Y-99000000D02*
G75*
G02*
X146310000Y-101540000I-2540000J0D01*
G01*
%TD*%
M02*
