M48
; DRILL file {KiCad 9.0.0} date 2025-03-02T23:53:29+0000
; FORMAT={-:-/ absolute / metric / decimal}
; #@! TF.CreationDate,2025-03-02T23:53:29+00:00
; #@! TF.GenerationSoftware,Kicad,Pcbnew,9.0.0
; #@! TF.FileFunction,Plated,1,2,PTH
FMAT,2
METRIC
; #@! TA.AperFunction,Plated,PTH,ViaDrill
T1C0.300
; #@! TA.AperFunction,Plated,PTH,ComponentDrill
T2C0.400
; #@! TA.AperFunction,Plated,PTH,ComponentDrill
T3C0.600
; #@! TA.AperFunction,Plated,PTH,ComponentDrill
T4C0.730
; #@! TA.AperFunction,Plated,PTH,ComponentDrill
T5C0.800
; #@! TA.AperFunction,Plated,PTH,ComponentDrill
T6C1.000
; #@! TA.AperFunction,Plated,PTH,ComponentDrill
T7C2.500
; #@! TA.AperFunction,Plated,PTH,ComponentDrill
T8C3.200
%
G90
G05
T1
X102.5Y-107.5
X102.75Y-112.0
T2
X83.35Y-64.51
X83.35Y-65.86
X84.2Y-64.51
X84.2Y-65.86
X85.05Y-64.51
X85.05Y-65.86
X85.9Y-64.51
X85.9Y-65.86
X86.75Y-64.51
X86.75Y-65.86
X87.6Y-64.51
X87.6Y-65.86
X88.45Y-64.51
X88.45Y-65.86
X89.3Y-64.51
X89.3Y-65.86
T4
X127.537Y-73.25
X127.537Y-75.75
X127.537Y-78.25
X127.537Y-80.75
X140.237Y-73.25
X140.237Y-75.75
X140.237Y-78.25
X140.237Y-80.75
T5
X76.325Y-102.75
X77.69Y-79.88
X78.865Y-102.75
X81.405Y-102.75
X81.5Y-69.69
X81.5Y-77.31
X83.945Y-102.75
X85.0Y-69.69
X85.0Y-77.31
X85.31Y-79.88
X86.485Y-82.75
X86.485Y-102.75
X87.5Y-80.0
X88.0Y-69.69
X88.0Y-77.31
X89.025Y-82.75
X89.025Y-102.75
X91.0Y-69.69
X91.0Y-77.31
X91.565Y-82.75
X91.565Y-102.75
X94.105Y-82.75
X94.105Y-102.75
X95.12Y-80.0
X96.645Y-82.75
X96.645Y-102.75
X99.185Y-82.75
X99.185Y-102.75
X101.725Y-82.75
X101.725Y-102.75
X104.265Y-82.75
X104.265Y-102.75
X106.805Y-82.75
X106.805Y-102.75
X109.345Y-82.75
X109.345Y-102.75
X111.885Y-82.75
X111.885Y-102.75
X114.425Y-82.75
X114.425Y-102.75
X116.875Y-82.75
X116.875Y-102.75
X125.63Y-105.25
X128.17Y-105.25
X130.71Y-105.25
X133.25Y-105.25
X135.79Y-105.25
X138.33Y-105.25
X140.87Y-105.25
T6
X122.257Y-66.25
X122.257Y-81.25
X127.65Y-86.65
X127.65Y-99.35
X130.19Y-86.65
X130.19Y-99.35
X132.73Y-86.65
X132.73Y-99.35
X135.27Y-86.65
X135.27Y-99.35
X137.81Y-86.65
X137.81Y-99.35
X140.35Y-86.65
X140.35Y-99.35
T7
X78.75Y-108.75
X81.5Y-84.75
X84.0Y-109.0
X94.0Y-89.5
X99.0Y-90.0
X101.75Y-76.25
X104.0Y-90.0
X107.0Y-76.5
X112.25Y-76.5
X120.5Y-110.0
X120.5Y-117.0
X123.84Y-86.65
X123.84Y-99.35
X144.16Y-86.65
X144.16Y-99.35
T8
X77.25Y-64.0
X77.25Y-119.0
X146.0Y-64.0
X146.0Y-118.75
T3
G00X82.0Y-61.9
M15
G01X82.0Y-61.1
M16
G05
G00X82.0Y-65.63
M15
G01X82.0Y-64.13
M16
G05
G00X90.65Y-61.9
M15
G01X90.65Y-61.1
M16
G05
G00X90.65Y-65.63
M15
G01X90.65Y-64.13
M16
G05
M30
