%TF.GenerationSoftware,KiCad,Pcbnew,9.0.0*%
%TF.CreationDate,2025-03-25T00:47:00+00:00*%
%TF.ProjectId,Wheelchair Powermeter PCB,57686565-6c63-4686-9169-7220506f7765,rev?*%
%TF.SameCoordinates,Original*%
%TF.FileFunction,Drillmap*%
%TF.FilePolarity,Positive*%
%FSLAX45Y45*%
G04 Gerber Fmt 4.5, Leading zero omitted, Abs format (unit mm)*
G04 Created by KiCad (PCBNEW 9.0.0) date 2025-03-25 00:47:00*
%MOMM*%
%LPD*%
G01*
G04 APERTURE LIST*
%ADD10C,0.050000*%
%ADD11C,0.200000*%
%ADD12C,0.100000*%
%ADD13C,0.250000*%
G04 APERTURE END LIST*
D10*
X7350000Y-11995000D02*
X7700000Y-12325000D01*
X15025000Y-12050000D02*
X15030000Y-7670000D01*
X7680000Y-7260000D02*
X7350000Y-7940000D01*
X7350000Y-7940000D02*
X7350000Y-11995000D01*
X14760000Y-7260000D02*
X7680000Y-7260000D01*
X7700000Y-12325000D02*
X14725000Y-12325000D01*
X14725000Y-12325000D02*
X15025000Y-12050000D01*
X14760000Y-7260000D02*
X15030000Y-7670000D01*
D11*
D12*
X9835000Y-10660000D02*
X9865000Y-10690000D01*
X9865000Y-10660000D02*
X9835000Y-10690000D01*
X11350000Y-10815000D02*
X11380000Y-10845000D01*
X11380000Y-10815000D02*
X11350000Y-10845000D01*
X11370000Y-11265000D02*
X11400000Y-11295000D01*
X11400000Y-11265000D02*
X11370000Y-11295000D01*
X11465000Y-11570000D02*
X11495000Y-11600000D01*
X11495000Y-11570000D02*
X11465000Y-11600000D01*
X11615000Y-11580000D02*
X11645000Y-11610000D01*
X11645000Y-11580000D02*
X11615000Y-11610000D01*
X11765000Y-11585000D02*
X11795000Y-11615000D01*
X11795000Y-11585000D02*
X11765000Y-11615000D01*
X11790000Y-9655000D02*
X11820000Y-9685000D01*
X11820000Y-9655000D02*
X11790000Y-9685000D01*
X11915000Y-11580000D02*
X11945000Y-11610000D01*
X11945000Y-11580000D02*
X11915000Y-11610000D01*
X11945000Y-9805000D02*
X11975000Y-9835000D01*
X11975000Y-9805000D02*
X11945000Y-9835000D01*
X12095000Y-10000000D02*
X12125000Y-10030000D01*
X12125000Y-10000000D02*
X12095000Y-10030000D01*
X12245000Y-10260000D02*
X12275000Y-10290000D01*
X12275000Y-10260000D02*
X12245000Y-10290000D01*
X8502500Y-7741000D02*
G75*
G02*
X8462500Y-7741000I-20000J0D01*
G01*
X8462500Y-7741000D02*
G75*
G02*
X8502500Y-7741000I20000J0D01*
G01*
X8502500Y-7876000D02*
G75*
G02*
X8462500Y-7876000I-20000J0D01*
G01*
X8462500Y-7876000D02*
G75*
G02*
X8502500Y-7876000I20000J0D01*
G01*
X8587500Y-7741000D02*
G75*
G02*
X8547500Y-7741000I-20000J0D01*
G01*
X8547500Y-7741000D02*
G75*
G02*
X8587500Y-7741000I20000J0D01*
G01*
X8587500Y-7876000D02*
G75*
G02*
X8547500Y-7876000I-20000J0D01*
G01*
X8547500Y-7876000D02*
G75*
G02*
X8587500Y-7876000I20000J0D01*
G01*
X8672500Y-7741000D02*
G75*
G02*
X8632500Y-7741000I-20000J0D01*
G01*
X8632500Y-7741000D02*
G75*
G02*
X8672500Y-7741000I20000J0D01*
G01*
X8672500Y-7876000D02*
G75*
G02*
X8632500Y-7876000I-20000J0D01*
G01*
X8632500Y-7876000D02*
G75*
G02*
X8672500Y-7876000I20000J0D01*
G01*
X8757500Y-7741000D02*
G75*
G02*
X8717500Y-7741000I-20000J0D01*
G01*
X8717500Y-7741000D02*
G75*
G02*
X8757500Y-7741000I20000J0D01*
G01*
X8757500Y-7876000D02*
G75*
G02*
X8717500Y-7876000I-20000J0D01*
G01*
X8717500Y-7876000D02*
G75*
G02*
X8757500Y-7876000I20000J0D01*
G01*
X8842500Y-7741000D02*
G75*
G02*
X8802500Y-7741000I-20000J0D01*
G01*
X8802500Y-7741000D02*
G75*
G02*
X8842500Y-7741000I20000J0D01*
G01*
X8842500Y-7876000D02*
G75*
G02*
X8802500Y-7876000I-20000J0D01*
G01*
X8802500Y-7876000D02*
G75*
G02*
X8842500Y-7876000I20000J0D01*
G01*
X8927500Y-7741000D02*
G75*
G02*
X8887500Y-7741000I-20000J0D01*
G01*
X8887500Y-7741000D02*
G75*
G02*
X8927500Y-7741000I20000J0D01*
G01*
X8927500Y-7876000D02*
G75*
G02*
X8887500Y-7876000I-20000J0D01*
G01*
X8887500Y-7876000D02*
G75*
G02*
X8927500Y-7876000I20000J0D01*
G01*
X9012500Y-7741000D02*
G75*
G02*
X8972500Y-7741000I-20000J0D01*
G01*
X8972500Y-7741000D02*
G75*
G02*
X9012500Y-7741000I20000J0D01*
G01*
X9012500Y-7876000D02*
G75*
G02*
X8972500Y-7876000I-20000J0D01*
G01*
X8972500Y-7876000D02*
G75*
G02*
X9012500Y-7876000I20000J0D01*
G01*
X9097500Y-7741000D02*
G75*
G02*
X9057500Y-7741000I-20000J0D01*
G01*
X9057500Y-7741000D02*
G75*
G02*
X9097500Y-7741000I20000J0D01*
G01*
X9097500Y-7876000D02*
G75*
G02*
X9057500Y-7876000I-20000J0D01*
G01*
X9057500Y-7876000D02*
G75*
G02*
X9097500Y-7876000I20000J0D01*
G01*
X8347500Y-7410000D02*
X8347500Y-7470000D01*
X8317500Y-7440000D02*
X8377500Y-7440000D01*
X8377500Y-7480000D02*
X8377500Y-7400000D01*
X8317500Y-7400000D02*
G75*
G02*
X8377500Y-7400000I30000J0D01*
G01*
X8317500Y-7400000D02*
X8317500Y-7480000D01*
X8317500Y-7480000D02*
G75*
G03*
X8377500Y-7480000I30000J0D01*
G01*
X8347500Y-7748000D02*
X8347500Y-7808000D01*
X8317500Y-7778000D02*
X8377500Y-7778000D01*
X8377500Y-7853000D02*
X8377500Y-7703000D01*
X8317500Y-7703000D02*
G75*
G02*
X8377500Y-7703000I30000J0D01*
G01*
X8317500Y-7703000D02*
X8317500Y-7853000D01*
X8317500Y-7853000D02*
G75*
G03*
X8377500Y-7853000I30000J0D01*
G01*
X9212500Y-7410000D02*
X9212500Y-7470000D01*
X9182500Y-7440000D02*
X9242500Y-7440000D01*
X9242500Y-7480000D02*
X9242500Y-7400000D01*
X9182500Y-7400000D02*
G75*
G02*
X9242500Y-7400000I30000J0D01*
G01*
X9182500Y-7400000D02*
X9182500Y-7480000D01*
X9182500Y-7480000D02*
G75*
G03*
X9242500Y-7480000I30000J0D01*
G01*
X9212500Y-7748000D02*
X9212500Y-7808000D01*
X9182500Y-7778000D02*
X9242500Y-7778000D01*
X9242500Y-7853000D02*
X9242500Y-7703000D01*
X9182500Y-7703000D02*
G75*
G02*
X9242500Y-7703000I30000J0D01*
G01*
X9182500Y-7703000D02*
X9182500Y-7853000D01*
X9182500Y-7853000D02*
G75*
G03*
X9242500Y-7853000I30000J0D01*
G01*
X7932060Y-10745810D02*
X7932060Y-10694190D01*
X7880440Y-10694190D01*
X7880440Y-10745810D01*
X7932060Y-10745810D01*
X7932060Y-10995810D02*
X7932060Y-10944190D01*
X7880440Y-10944190D01*
X7880440Y-10995810D01*
X7932060Y-10995810D01*
X7932060Y-11245810D02*
X7932060Y-11194190D01*
X7880440Y-11194190D01*
X7880440Y-11245810D01*
X7932060Y-11245810D01*
X7932060Y-11495810D02*
X7932060Y-11444190D01*
X7880440Y-11444190D01*
X7880440Y-11495810D01*
X7932060Y-11495810D01*
X9202060Y-10745810D02*
X9202060Y-10694190D01*
X9150440Y-10694190D01*
X9150440Y-10745810D01*
X9202060Y-10745810D01*
X9202060Y-10995810D02*
X9202060Y-10944190D01*
X9150440Y-10944190D01*
X9150440Y-10995810D01*
X9202060Y-10995810D01*
X9202060Y-11245810D02*
X9202060Y-11194190D01*
X9150440Y-11194190D01*
X9150440Y-11245810D01*
X9202060Y-11245810D01*
X9202060Y-11495810D02*
X9202060Y-11444190D01*
X9150440Y-11444190D01*
X9150440Y-11495810D01*
X9202060Y-11495810D01*
X9508000Y-7590000D02*
X9548000Y-7550000D01*
X9508000Y-7510000D01*
X9468000Y-7550000D01*
X9508000Y-7590000D01*
X9508000Y-7905000D02*
X9548000Y-7865000D01*
X9508000Y-7825000D01*
X9468000Y-7865000D01*
X9508000Y-7905000D01*
X10270000Y-7590000D02*
X10310000Y-7550000D01*
X10270000Y-7510000D01*
X10230000Y-7550000D01*
X10270000Y-7590000D01*
X10270000Y-7905000D02*
X10310000Y-7865000D01*
X10270000Y-7825000D01*
X10230000Y-7865000D01*
X10270000Y-7905000D01*
X10509000Y-7900000D02*
X10549000Y-7860000D01*
X10509000Y-7820000D01*
X10469000Y-7860000D01*
X10509000Y-7900000D01*
X10588000Y-7565000D02*
X10628000Y-7525000D01*
X10588000Y-7485000D01*
X10548000Y-7525000D01*
X10588000Y-7565000D01*
X11271000Y-7900000D02*
X11311000Y-7860000D01*
X11271000Y-7820000D01*
X11231000Y-7860000D01*
X11271000Y-7900000D01*
X11350000Y-7565000D02*
X11390000Y-7525000D01*
X11350000Y-7485000D01*
X11310000Y-7525000D01*
X11350000Y-7565000D01*
X11583000Y-7555000D02*
X11623000Y-7515000D01*
X11583000Y-7475000D01*
X11543000Y-7515000D01*
X11583000Y-7555000D01*
X11588000Y-7875000D02*
X11628000Y-7835000D01*
X11588000Y-7795000D01*
X11548000Y-7835000D01*
X11588000Y-7875000D01*
X12345000Y-7555000D02*
X12385000Y-7515000D01*
X12345000Y-7475000D01*
X12305000Y-7515000D01*
X12345000Y-7555000D01*
X12350000Y-7875000D02*
X12390000Y-7835000D01*
X12350000Y-7795000D01*
X12310000Y-7835000D01*
X12350000Y-7875000D01*
X14719500Y-10454000D02*
X14759500Y-10414000D01*
X14719500Y-10374000D01*
X14679500Y-10414000D01*
X14719500Y-10454000D01*
X14719500Y-10708000D02*
X14759500Y-10668000D01*
X14719500Y-10628000D01*
X14679500Y-10668000D01*
X14719500Y-10708000D01*
X14719500Y-10962000D02*
X14759500Y-10922000D01*
X14719500Y-10882000D01*
X14679500Y-10922000D01*
X14719500Y-10962000D01*
X14719500Y-11216000D02*
X14759500Y-11176000D01*
X14719500Y-11136000D01*
X14679500Y-11176000D01*
X14719500Y-11216000D01*
X14719500Y-11470000D02*
X14759500Y-11430000D01*
X14719500Y-11390000D01*
X14679500Y-11430000D01*
X14719500Y-11470000D01*
X14719500Y-11724000D02*
X14759500Y-11684000D01*
X14719500Y-11644000D01*
X14679500Y-11684000D01*
X14719500Y-11724000D01*
X14719500Y-11978000D02*
X14759500Y-11938000D01*
X14719500Y-11898000D01*
X14679500Y-11938000D01*
X14719500Y-11978000D01*
X7624000Y-10230000D02*
X7724000Y-10330000D01*
X7724000Y-10230000D02*
X7624000Y-10330000D01*
X7724000Y-10280000D02*
G75*
G02*
X7624000Y-10280000I-50000J0D01*
G01*
X7624000Y-10280000D02*
G75*
G02*
X7724000Y-10280000I50000J0D01*
G01*
X7878000Y-10230000D02*
X7978000Y-10330000D01*
X7978000Y-10230000D02*
X7878000Y-10330000D01*
X7978000Y-10280000D02*
G75*
G02*
X7878000Y-10280000I-50000J0D01*
G01*
X7878000Y-10280000D02*
G75*
G02*
X7978000Y-10280000I50000J0D01*
G01*
X8132000Y-10230000D02*
X8232000Y-10330000D01*
X8232000Y-10230000D02*
X8132000Y-10330000D01*
X8232000Y-10280000D02*
G75*
G02*
X8132000Y-10280000I-50000J0D01*
G01*
X8132000Y-10280000D02*
G75*
G02*
X8232000Y-10280000I50000J0D01*
G01*
X8386000Y-10230000D02*
X8486000Y-10330000D01*
X8486000Y-10230000D02*
X8386000Y-10330000D01*
X8486000Y-10280000D02*
G75*
G02*
X8386000Y-10280000I-50000J0D01*
G01*
X8386000Y-10280000D02*
G75*
G02*
X8486000Y-10280000I50000J0D01*
G01*
X8640000Y-8230000D02*
X8740000Y-8330000D01*
X8740000Y-8230000D02*
X8640000Y-8330000D01*
X8740000Y-8280000D02*
G75*
G02*
X8640000Y-8280000I-50000J0D01*
G01*
X8640000Y-8280000D02*
G75*
G02*
X8740000Y-8280000I50000J0D01*
G01*
X8640000Y-10230000D02*
X8740000Y-10330000D01*
X8740000Y-10230000D02*
X8640000Y-10330000D01*
X8740000Y-10280000D02*
G75*
G02*
X8640000Y-10280000I-50000J0D01*
G01*
X8640000Y-10280000D02*
G75*
G02*
X8740000Y-10280000I50000J0D01*
G01*
X8894000Y-8230000D02*
X8994000Y-8330000D01*
X8994000Y-8230000D02*
X8894000Y-8330000D01*
X8994000Y-8280000D02*
G75*
G02*
X8894000Y-8280000I-50000J0D01*
G01*
X8894000Y-8280000D02*
G75*
G02*
X8994000Y-8280000I50000J0D01*
G01*
X8894000Y-10230000D02*
X8994000Y-10330000D01*
X8994000Y-10230000D02*
X8894000Y-10330000D01*
X8994000Y-10280000D02*
G75*
G02*
X8894000Y-10280000I-50000J0D01*
G01*
X8894000Y-10280000D02*
G75*
G02*
X8994000Y-10280000I50000J0D01*
G01*
X9148000Y-8230000D02*
X9248000Y-8330000D01*
X9248000Y-8230000D02*
X9148000Y-8330000D01*
X9248000Y-8280000D02*
G75*
G02*
X9148000Y-8280000I-50000J0D01*
G01*
X9148000Y-8280000D02*
G75*
G02*
X9248000Y-8280000I50000J0D01*
G01*
X9148000Y-10230000D02*
X9248000Y-10330000D01*
X9248000Y-10230000D02*
X9148000Y-10330000D01*
X9248000Y-10280000D02*
G75*
G02*
X9148000Y-10280000I-50000J0D01*
G01*
X9148000Y-10280000D02*
G75*
G02*
X9248000Y-10280000I50000J0D01*
G01*
X9402000Y-8230000D02*
X9502000Y-8330000D01*
X9502000Y-8230000D02*
X9402000Y-8330000D01*
X9502000Y-8280000D02*
G75*
G02*
X9402000Y-8280000I-50000J0D01*
G01*
X9402000Y-8280000D02*
G75*
G02*
X9502000Y-8280000I50000J0D01*
G01*
X9402000Y-10230000D02*
X9502000Y-10330000D01*
X9502000Y-10230000D02*
X9402000Y-10330000D01*
X9502000Y-10280000D02*
G75*
G02*
X9402000Y-10280000I-50000J0D01*
G01*
X9402000Y-10280000D02*
G75*
G02*
X9502000Y-10280000I50000J0D01*
G01*
X9656000Y-8230000D02*
X9756000Y-8330000D01*
X9756000Y-8230000D02*
X9656000Y-8330000D01*
X9756000Y-8280000D02*
G75*
G02*
X9656000Y-8280000I-50000J0D01*
G01*
X9656000Y-8280000D02*
G75*
G02*
X9756000Y-8280000I50000J0D01*
G01*
X9656000Y-10230000D02*
X9756000Y-10330000D01*
X9756000Y-10230000D02*
X9656000Y-10330000D01*
X9756000Y-10280000D02*
G75*
G02*
X9656000Y-10280000I-50000J0D01*
G01*
X9656000Y-10280000D02*
G75*
G02*
X9756000Y-10280000I50000J0D01*
G01*
X9910000Y-8230000D02*
X10010000Y-8330000D01*
X10010000Y-8230000D02*
X9910000Y-8330000D01*
X10010000Y-8280000D02*
G75*
G02*
X9910000Y-8280000I-50000J0D01*
G01*
X9910000Y-8280000D02*
G75*
G02*
X10010000Y-8280000I50000J0D01*
G01*
X9910000Y-10230000D02*
X10010000Y-10330000D01*
X10010000Y-10230000D02*
X9910000Y-10330000D01*
X10010000Y-10280000D02*
G75*
G02*
X9910000Y-10280000I-50000J0D01*
G01*
X9910000Y-10280000D02*
G75*
G02*
X10010000Y-10280000I50000J0D01*
G01*
X10164000Y-8230000D02*
X10264000Y-8330000D01*
X10264000Y-8230000D02*
X10164000Y-8330000D01*
X10264000Y-8280000D02*
G75*
G02*
X10164000Y-8280000I-50000J0D01*
G01*
X10164000Y-8280000D02*
G75*
G02*
X10264000Y-8280000I50000J0D01*
G01*
X10164000Y-10230000D02*
X10264000Y-10330000D01*
X10264000Y-10230000D02*
X10164000Y-10330000D01*
X10264000Y-10280000D02*
G75*
G02*
X10164000Y-10280000I-50000J0D01*
G01*
X10164000Y-10280000D02*
G75*
G02*
X10264000Y-10280000I50000J0D01*
G01*
X10418000Y-8230000D02*
X10518000Y-8330000D01*
X10518000Y-8230000D02*
X10418000Y-8330000D01*
X10518000Y-8280000D02*
G75*
G02*
X10418000Y-8280000I-50000J0D01*
G01*
X10418000Y-8280000D02*
G75*
G02*
X10518000Y-8280000I50000J0D01*
G01*
X10418000Y-10230000D02*
X10518000Y-10330000D01*
X10518000Y-10230000D02*
X10418000Y-10330000D01*
X10518000Y-10280000D02*
G75*
G02*
X10418000Y-10280000I-50000J0D01*
G01*
X10418000Y-10280000D02*
G75*
G02*
X10518000Y-10280000I50000J0D01*
G01*
X10672000Y-8230000D02*
X10772000Y-8330000D01*
X10772000Y-8230000D02*
X10672000Y-8330000D01*
X10772000Y-8280000D02*
G75*
G02*
X10672000Y-8280000I-50000J0D01*
G01*
X10672000Y-8280000D02*
G75*
G02*
X10772000Y-8280000I50000J0D01*
G01*
X10672000Y-10230000D02*
X10772000Y-10330000D01*
X10772000Y-10230000D02*
X10672000Y-10330000D01*
X10772000Y-10280000D02*
G75*
G02*
X10672000Y-10280000I-50000J0D01*
G01*
X10672000Y-10280000D02*
G75*
G02*
X10772000Y-10280000I50000J0D01*
G01*
X10926000Y-8230000D02*
X11026000Y-8330000D01*
X11026000Y-8230000D02*
X10926000Y-8330000D01*
X11026000Y-8280000D02*
G75*
G02*
X10926000Y-8280000I-50000J0D01*
G01*
X10926000Y-8280000D02*
G75*
G02*
X11026000Y-8280000I50000J0D01*
G01*
X10926000Y-10230000D02*
X11026000Y-10330000D01*
X11026000Y-10230000D02*
X10926000Y-10330000D01*
X11026000Y-10280000D02*
G75*
G02*
X10926000Y-10280000I-50000J0D01*
G01*
X10926000Y-10280000D02*
G75*
G02*
X11026000Y-10280000I50000J0D01*
G01*
X11180000Y-8230000D02*
X11280000Y-8330000D01*
X11280000Y-8230000D02*
X11180000Y-8330000D01*
X11280000Y-8280000D02*
G75*
G02*
X11180000Y-8280000I-50000J0D01*
G01*
X11180000Y-8280000D02*
G75*
G02*
X11280000Y-8280000I50000J0D01*
G01*
X11180000Y-10230000D02*
X11280000Y-10330000D01*
X11280000Y-10230000D02*
X11180000Y-10330000D01*
X11280000Y-10280000D02*
G75*
G02*
X11180000Y-10280000I-50000J0D01*
G01*
X11180000Y-10280000D02*
G75*
G02*
X11280000Y-10280000I50000J0D01*
G01*
X11434000Y-8230000D02*
X11534000Y-8330000D01*
X11534000Y-8230000D02*
X11434000Y-8330000D01*
X11534000Y-8280000D02*
G75*
G02*
X11434000Y-8280000I-50000J0D01*
G01*
X11434000Y-8280000D02*
G75*
G02*
X11534000Y-8280000I50000J0D01*
G01*
X11434000Y-10230000D02*
X11534000Y-10330000D01*
X11534000Y-10230000D02*
X11434000Y-10330000D01*
X11534000Y-10280000D02*
G75*
G02*
X11434000Y-10280000I-50000J0D01*
G01*
X11434000Y-10280000D02*
G75*
G02*
X11534000Y-10280000I50000J0D01*
G01*
X12930000Y-8580000D02*
X13030000Y-8680000D01*
X13030000Y-8580000D02*
X12930000Y-8680000D01*
X13030000Y-8630000D02*
G75*
G02*
X12930000Y-8630000I-50000J0D01*
G01*
X12930000Y-8630000D02*
G75*
G02*
X13030000Y-8630000I50000J0D01*
G01*
X12930000Y-9850000D02*
X13030000Y-9950000D01*
X13030000Y-9850000D02*
X12930000Y-9950000D01*
X13030000Y-9900000D02*
G75*
G02*
X12930000Y-9900000I-50000J0D01*
G01*
X12930000Y-9900000D02*
G75*
G02*
X13030000Y-9900000I50000J0D01*
G01*
X13184000Y-8580000D02*
X13284000Y-8680000D01*
X13284000Y-8580000D02*
X13184000Y-8680000D01*
X13284000Y-8630000D02*
G75*
G02*
X13184000Y-8630000I-50000J0D01*
G01*
X13184000Y-8630000D02*
G75*
G02*
X13284000Y-8630000I50000J0D01*
G01*
X13184000Y-9850000D02*
X13284000Y-9950000D01*
X13284000Y-9850000D02*
X13184000Y-9950000D01*
X13284000Y-9900000D02*
G75*
G02*
X13184000Y-9900000I-50000J0D01*
G01*
X13184000Y-9900000D02*
G75*
G02*
X13284000Y-9900000I50000J0D01*
G01*
X13438000Y-8580000D02*
X13538000Y-8680000D01*
X13538000Y-8580000D02*
X13438000Y-8680000D01*
X13538000Y-8630000D02*
G75*
G02*
X13438000Y-8630000I-50000J0D01*
G01*
X13438000Y-8630000D02*
G75*
G02*
X13538000Y-8630000I50000J0D01*
G01*
X13438000Y-9850000D02*
X13538000Y-9950000D01*
X13538000Y-9850000D02*
X13438000Y-9950000D01*
X13538000Y-9900000D02*
G75*
G02*
X13438000Y-9900000I-50000J0D01*
G01*
X13438000Y-9900000D02*
G75*
G02*
X13538000Y-9900000I50000J0D01*
G01*
X13692000Y-8580000D02*
X13792000Y-8680000D01*
X13792000Y-8580000D02*
X13692000Y-8680000D01*
X13792000Y-8630000D02*
G75*
G02*
X13692000Y-8630000I-50000J0D01*
G01*
X13692000Y-8630000D02*
G75*
G02*
X13792000Y-8630000I50000J0D01*
G01*
X13692000Y-9850000D02*
X13792000Y-9950000D01*
X13792000Y-9850000D02*
X13692000Y-9950000D01*
X13792000Y-9900000D02*
G75*
G02*
X13692000Y-9900000I-50000J0D01*
G01*
X13692000Y-9900000D02*
G75*
G02*
X13792000Y-9900000I50000J0D01*
G01*
X13946000Y-8580000D02*
X14046000Y-8680000D01*
X14046000Y-8580000D02*
X13946000Y-8680000D01*
X14046000Y-8630000D02*
G75*
G02*
X13946000Y-8630000I-50000J0D01*
G01*
X13946000Y-8630000D02*
G75*
G02*
X14046000Y-8630000I50000J0D01*
G01*
X13946000Y-9850000D02*
X14046000Y-9950000D01*
X14046000Y-9850000D02*
X13946000Y-9950000D01*
X14046000Y-9900000D02*
G75*
G02*
X13946000Y-9900000I-50000J0D01*
G01*
X13946000Y-9900000D02*
G75*
G02*
X14046000Y-9900000I50000J0D01*
G01*
X14200000Y-8580000D02*
X14300000Y-8680000D01*
X14300000Y-8580000D02*
X14200000Y-8680000D01*
X14300000Y-8630000D02*
G75*
G02*
X14200000Y-8630000I-50000J0D01*
G01*
X14200000Y-8630000D02*
G75*
G02*
X14300000Y-8630000I50000J0D01*
G01*
X14200000Y-9850000D02*
X14300000Y-9950000D01*
X14300000Y-9850000D02*
X14200000Y-9950000D01*
X14300000Y-9900000D02*
G75*
G02*
X14200000Y-9900000I-50000J0D01*
G01*
X14200000Y-9900000D02*
G75*
G02*
X14300000Y-9900000I50000J0D01*
G01*
D13*
X7715000Y-11815000D02*
X7965000Y-12065000D01*
X7965000Y-11815000D02*
X7715000Y-12065000D01*
X7840000Y-11815000D02*
X7840000Y-12065000D01*
X7715000Y-11940000D02*
X7965000Y-11940000D01*
X7755000Y-7555000D02*
X8005000Y-7805000D01*
X8005000Y-7555000D02*
X7755000Y-7805000D01*
X7880000Y-7555000D02*
X7880000Y-7805000D01*
X7755000Y-7680000D02*
X8005000Y-7680000D01*
X8555000Y-8995000D02*
X8805000Y-9245000D01*
X8805000Y-8995000D02*
X8555000Y-9245000D01*
X8680000Y-8995000D02*
X8680000Y-9245000D01*
X8555000Y-9120000D02*
X8805000Y-9120000D01*
X12474000Y-8505000D02*
X12724000Y-8755000D01*
X12724000Y-8505000D02*
X12474000Y-8755000D01*
X12599000Y-8505000D02*
X12599000Y-8755000D01*
X12474000Y-8630000D02*
X12724000Y-8630000D01*
X12474000Y-9775000D02*
X12724000Y-10025000D01*
X12724000Y-9775000D02*
X12474000Y-10025000D01*
X12599000Y-9775000D02*
X12599000Y-10025000D01*
X12474000Y-9900000D02*
X12724000Y-9900000D01*
X12635000Y-11895000D02*
X12885000Y-12145000D01*
X12885000Y-11895000D02*
X12635000Y-12145000D01*
X12760000Y-11895000D02*
X12760000Y-12145000D01*
X12635000Y-12020000D02*
X12885000Y-12020000D01*
X13055000Y-7815000D02*
X13305000Y-8065000D01*
X13305000Y-7815000D02*
X13055000Y-8065000D01*
X13180000Y-7815000D02*
X13180000Y-8065000D01*
X13055000Y-7940000D02*
X13305000Y-7940000D01*
X13755000Y-7835000D02*
X14005000Y-8085000D01*
X14005000Y-7835000D02*
X13755000Y-8085000D01*
X13880000Y-7835000D02*
X13880000Y-8085000D01*
X13755000Y-7960000D02*
X14005000Y-7960000D01*
X14495000Y-7535000D02*
X14745000Y-7785000D01*
X14745000Y-7535000D02*
X14495000Y-7785000D01*
X14620000Y-7535000D02*
X14620000Y-7785000D01*
X14495000Y-7660000D02*
X14745000Y-7660000D01*
X14506000Y-8505000D02*
X14756000Y-8755000D01*
X14756000Y-8505000D02*
X14506000Y-8755000D01*
X14631000Y-8505000D02*
X14631000Y-8755000D01*
X14506000Y-8630000D02*
X14756000Y-8630000D01*
X14506000Y-9775000D02*
X14756000Y-10025000D01*
X14756000Y-9775000D02*
X14506000Y-10025000D01*
X14631000Y-9775000D02*
X14631000Y-10025000D01*
X14506000Y-9900000D02*
X14756000Y-9900000D01*
D11*
X7608277Y-12638984D02*
X7608277Y-12438984D01*
X7608277Y-12438984D02*
X7655896Y-12438984D01*
X7655896Y-12438984D02*
X7684467Y-12448508D01*
X7684467Y-12448508D02*
X7703515Y-12467555D01*
X7703515Y-12467555D02*
X7713039Y-12486603D01*
X7713039Y-12486603D02*
X7722562Y-12524698D01*
X7722562Y-12524698D02*
X7722562Y-12553269D01*
X7722562Y-12553269D02*
X7713039Y-12591365D01*
X7713039Y-12591365D02*
X7703515Y-12610412D01*
X7703515Y-12610412D02*
X7684467Y-12629460D01*
X7684467Y-12629460D02*
X7655896Y-12638984D01*
X7655896Y-12638984D02*
X7608277Y-12638984D01*
X7808277Y-12638984D02*
X7808277Y-12505650D01*
X7808277Y-12543746D02*
X7817801Y-12524698D01*
X7817801Y-12524698D02*
X7827324Y-12515174D01*
X7827324Y-12515174D02*
X7846372Y-12505650D01*
X7846372Y-12505650D02*
X7865420Y-12505650D01*
X7932086Y-12638984D02*
X7932086Y-12505650D01*
X7932086Y-12438984D02*
X7922562Y-12448508D01*
X7922562Y-12448508D02*
X7932086Y-12458031D01*
X7932086Y-12458031D02*
X7941610Y-12448508D01*
X7941610Y-12448508D02*
X7932086Y-12438984D01*
X7932086Y-12438984D02*
X7932086Y-12458031D01*
X8055896Y-12638984D02*
X8036848Y-12629460D01*
X8036848Y-12629460D02*
X8027324Y-12610412D01*
X8027324Y-12610412D02*
X8027324Y-12438984D01*
X8160658Y-12638984D02*
X8141610Y-12629460D01*
X8141610Y-12629460D02*
X8132086Y-12610412D01*
X8132086Y-12610412D02*
X8132086Y-12438984D01*
X8389229Y-12638984D02*
X8389229Y-12438984D01*
X8389229Y-12438984D02*
X8455896Y-12581841D01*
X8455896Y-12581841D02*
X8522563Y-12438984D01*
X8522563Y-12438984D02*
X8522563Y-12638984D01*
X8703515Y-12638984D02*
X8703515Y-12534222D01*
X8703515Y-12534222D02*
X8693991Y-12515174D01*
X8693991Y-12515174D02*
X8674944Y-12505650D01*
X8674944Y-12505650D02*
X8636848Y-12505650D01*
X8636848Y-12505650D02*
X8617801Y-12515174D01*
X8703515Y-12629460D02*
X8684467Y-12638984D01*
X8684467Y-12638984D02*
X8636848Y-12638984D01*
X8636848Y-12638984D02*
X8617801Y-12629460D01*
X8617801Y-12629460D02*
X8608277Y-12610412D01*
X8608277Y-12610412D02*
X8608277Y-12591365D01*
X8608277Y-12591365D02*
X8617801Y-12572317D01*
X8617801Y-12572317D02*
X8636848Y-12562793D01*
X8636848Y-12562793D02*
X8684467Y-12562793D01*
X8684467Y-12562793D02*
X8703515Y-12553269D01*
X8798753Y-12505650D02*
X8798753Y-12705650D01*
X8798753Y-12515174D02*
X8817801Y-12505650D01*
X8817801Y-12505650D02*
X8855896Y-12505650D01*
X8855896Y-12505650D02*
X8874944Y-12515174D01*
X8874944Y-12515174D02*
X8884467Y-12524698D01*
X8884467Y-12524698D02*
X8893991Y-12543746D01*
X8893991Y-12543746D02*
X8893991Y-12600888D01*
X8893991Y-12600888D02*
X8884467Y-12619936D01*
X8884467Y-12619936D02*
X8874944Y-12629460D01*
X8874944Y-12629460D02*
X8855896Y-12638984D01*
X8855896Y-12638984D02*
X8817801Y-12638984D01*
X8817801Y-12638984D02*
X8798753Y-12629460D01*
X8979705Y-12619936D02*
X8989229Y-12629460D01*
X8989229Y-12629460D02*
X8979705Y-12638984D01*
X8979705Y-12638984D02*
X8970182Y-12629460D01*
X8970182Y-12629460D02*
X8979705Y-12619936D01*
X8979705Y-12619936D02*
X8979705Y-12638984D01*
X8979705Y-12515174D02*
X8989229Y-12524698D01*
X8989229Y-12524698D02*
X8979705Y-12534222D01*
X8979705Y-12534222D02*
X8970182Y-12524698D01*
X8970182Y-12524698D02*
X8979705Y-12515174D01*
X8979705Y-12515174D02*
X8979705Y-12534222D01*
D12*
X7317500Y-12952500D02*
X7347500Y-12982500D01*
X7347500Y-12952500D02*
X7317500Y-12982500D01*
D11*
X7646372Y-12858984D02*
X7665420Y-12858984D01*
X7665420Y-12858984D02*
X7684467Y-12868508D01*
X7684467Y-12868508D02*
X7693991Y-12878031D01*
X7693991Y-12878031D02*
X7703515Y-12897079D01*
X7703515Y-12897079D02*
X7713039Y-12935174D01*
X7713039Y-12935174D02*
X7713039Y-12982793D01*
X7713039Y-12982793D02*
X7703515Y-13020888D01*
X7703515Y-13020888D02*
X7693991Y-13039936D01*
X7693991Y-13039936D02*
X7684467Y-13049460D01*
X7684467Y-13049460D02*
X7665420Y-13058984D01*
X7665420Y-13058984D02*
X7646372Y-13058984D01*
X7646372Y-13058984D02*
X7627324Y-13049460D01*
X7627324Y-13049460D02*
X7617801Y-13039936D01*
X7617801Y-13039936D02*
X7608277Y-13020888D01*
X7608277Y-13020888D02*
X7598753Y-12982793D01*
X7598753Y-12982793D02*
X7598753Y-12935174D01*
X7598753Y-12935174D02*
X7608277Y-12897079D01*
X7608277Y-12897079D02*
X7617801Y-12878031D01*
X7617801Y-12878031D02*
X7627324Y-12868508D01*
X7627324Y-12868508D02*
X7646372Y-12858984D01*
X7798753Y-13039936D02*
X7808277Y-13049460D01*
X7808277Y-13049460D02*
X7798753Y-13058984D01*
X7798753Y-13058984D02*
X7789229Y-13049460D01*
X7789229Y-13049460D02*
X7798753Y-13039936D01*
X7798753Y-13039936D02*
X7798753Y-13058984D01*
X7874943Y-12858984D02*
X7998753Y-12858984D01*
X7998753Y-12858984D02*
X7932086Y-12935174D01*
X7932086Y-12935174D02*
X7960658Y-12935174D01*
X7960658Y-12935174D02*
X7979705Y-12944698D01*
X7979705Y-12944698D02*
X7989229Y-12954222D01*
X7989229Y-12954222D02*
X7998753Y-12973269D01*
X7998753Y-12973269D02*
X7998753Y-13020888D01*
X7998753Y-13020888D02*
X7989229Y-13039936D01*
X7989229Y-13039936D02*
X7979705Y-13049460D01*
X7979705Y-13049460D02*
X7960658Y-13058984D01*
X7960658Y-13058984D02*
X7903515Y-13058984D01*
X7903515Y-13058984D02*
X7884467Y-13049460D01*
X7884467Y-13049460D02*
X7874943Y-13039936D01*
X8122562Y-12858984D02*
X8141610Y-12858984D01*
X8141610Y-12858984D02*
X8160658Y-12868508D01*
X8160658Y-12868508D02*
X8170182Y-12878031D01*
X8170182Y-12878031D02*
X8179705Y-12897079D01*
X8179705Y-12897079D02*
X8189229Y-12935174D01*
X8189229Y-12935174D02*
X8189229Y-12982793D01*
X8189229Y-12982793D02*
X8179705Y-13020888D01*
X8179705Y-13020888D02*
X8170182Y-13039936D01*
X8170182Y-13039936D02*
X8160658Y-13049460D01*
X8160658Y-13049460D02*
X8141610Y-13058984D01*
X8141610Y-13058984D02*
X8122562Y-13058984D01*
X8122562Y-13058984D02*
X8103515Y-13049460D01*
X8103515Y-13049460D02*
X8093991Y-13039936D01*
X8093991Y-13039936D02*
X8084467Y-13020888D01*
X8084467Y-13020888D02*
X8074943Y-12982793D01*
X8074943Y-12982793D02*
X8074943Y-12935174D01*
X8074943Y-12935174D02*
X8084467Y-12897079D01*
X8084467Y-12897079D02*
X8093991Y-12878031D01*
X8093991Y-12878031D02*
X8103515Y-12868508D01*
X8103515Y-12868508D02*
X8122562Y-12858984D01*
X8313039Y-12858984D02*
X8332086Y-12858984D01*
X8332086Y-12858984D02*
X8351134Y-12868508D01*
X8351134Y-12868508D02*
X8360658Y-12878031D01*
X8360658Y-12878031D02*
X8370182Y-12897079D01*
X8370182Y-12897079D02*
X8379705Y-12935174D01*
X8379705Y-12935174D02*
X8379705Y-12982793D01*
X8379705Y-12982793D02*
X8370182Y-13020888D01*
X8370182Y-13020888D02*
X8360658Y-13039936D01*
X8360658Y-13039936D02*
X8351134Y-13049460D01*
X8351134Y-13049460D02*
X8332086Y-13058984D01*
X8332086Y-13058984D02*
X8313039Y-13058984D01*
X8313039Y-13058984D02*
X8293991Y-13049460D01*
X8293991Y-13049460D02*
X8284467Y-13039936D01*
X8284467Y-13039936D02*
X8274943Y-13020888D01*
X8274943Y-13020888D02*
X8265420Y-12982793D01*
X8265420Y-12982793D02*
X8265420Y-12935174D01*
X8265420Y-12935174D02*
X8274943Y-12897079D01*
X8274943Y-12897079D02*
X8284467Y-12878031D01*
X8284467Y-12878031D02*
X8293991Y-12868508D01*
X8293991Y-12868508D02*
X8313039Y-12858984D01*
X8465420Y-13058984D02*
X8465420Y-12925650D01*
X8465420Y-12944698D02*
X8474944Y-12935174D01*
X8474944Y-12935174D02*
X8493991Y-12925650D01*
X8493991Y-12925650D02*
X8522563Y-12925650D01*
X8522563Y-12925650D02*
X8541610Y-12935174D01*
X8541610Y-12935174D02*
X8551134Y-12954222D01*
X8551134Y-12954222D02*
X8551134Y-13058984D01*
X8551134Y-12954222D02*
X8560658Y-12935174D01*
X8560658Y-12935174D02*
X8579705Y-12925650D01*
X8579705Y-12925650D02*
X8608277Y-12925650D01*
X8608277Y-12925650D02*
X8627325Y-12935174D01*
X8627325Y-12935174D02*
X8636848Y-12954222D01*
X8636848Y-12954222D02*
X8636848Y-13058984D01*
X8732086Y-13058984D02*
X8732086Y-12925650D01*
X8732086Y-12944698D02*
X8741610Y-12935174D01*
X8741610Y-12935174D02*
X8760658Y-12925650D01*
X8760658Y-12925650D02*
X8789229Y-12925650D01*
X8789229Y-12925650D02*
X8808277Y-12935174D01*
X8808277Y-12935174D02*
X8817801Y-12954222D01*
X8817801Y-12954222D02*
X8817801Y-13058984D01*
X8817801Y-12954222D02*
X8827325Y-12935174D01*
X8827325Y-12935174D02*
X8846372Y-12925650D01*
X8846372Y-12925650D02*
X8874944Y-12925650D01*
X8874944Y-12925650D02*
X8893991Y-12935174D01*
X8893991Y-12935174D02*
X8903515Y-12954222D01*
X8903515Y-12954222D02*
X8903515Y-13058984D01*
X9293991Y-12849460D02*
X9122563Y-13106603D01*
X9551134Y-12858984D02*
X9570182Y-12858984D01*
X9570182Y-12858984D02*
X9589229Y-12868508D01*
X9589229Y-12868508D02*
X9598753Y-12878031D01*
X9598753Y-12878031D02*
X9608277Y-12897079D01*
X9608277Y-12897079D02*
X9617801Y-12935174D01*
X9617801Y-12935174D02*
X9617801Y-12982793D01*
X9617801Y-12982793D02*
X9608277Y-13020888D01*
X9608277Y-13020888D02*
X9598753Y-13039936D01*
X9598753Y-13039936D02*
X9589229Y-13049460D01*
X9589229Y-13049460D02*
X9570182Y-13058984D01*
X9570182Y-13058984D02*
X9551134Y-13058984D01*
X9551134Y-13058984D02*
X9532087Y-13049460D01*
X9532087Y-13049460D02*
X9522563Y-13039936D01*
X9522563Y-13039936D02*
X9513039Y-13020888D01*
X9513039Y-13020888D02*
X9503515Y-12982793D01*
X9503515Y-12982793D02*
X9503515Y-12935174D01*
X9503515Y-12935174D02*
X9513039Y-12897079D01*
X9513039Y-12897079D02*
X9522563Y-12878031D01*
X9522563Y-12878031D02*
X9532087Y-12868508D01*
X9532087Y-12868508D02*
X9551134Y-12858984D01*
X9703515Y-13039936D02*
X9713039Y-13049460D01*
X9713039Y-13049460D02*
X9703515Y-13058984D01*
X9703515Y-13058984D02*
X9693991Y-13049460D01*
X9693991Y-13049460D02*
X9703515Y-13039936D01*
X9703515Y-13039936D02*
X9703515Y-13058984D01*
X9836848Y-12858984D02*
X9855896Y-12858984D01*
X9855896Y-12858984D02*
X9874944Y-12868508D01*
X9874944Y-12868508D02*
X9884468Y-12878031D01*
X9884468Y-12878031D02*
X9893991Y-12897079D01*
X9893991Y-12897079D02*
X9903515Y-12935174D01*
X9903515Y-12935174D02*
X9903515Y-12982793D01*
X9903515Y-12982793D02*
X9893991Y-13020888D01*
X9893991Y-13020888D02*
X9884468Y-13039936D01*
X9884468Y-13039936D02*
X9874944Y-13049460D01*
X9874944Y-13049460D02*
X9855896Y-13058984D01*
X9855896Y-13058984D02*
X9836848Y-13058984D01*
X9836848Y-13058984D02*
X9817801Y-13049460D01*
X9817801Y-13049460D02*
X9808277Y-13039936D01*
X9808277Y-13039936D02*
X9798753Y-13020888D01*
X9798753Y-13020888D02*
X9789229Y-12982793D01*
X9789229Y-12982793D02*
X9789229Y-12935174D01*
X9789229Y-12935174D02*
X9798753Y-12897079D01*
X9798753Y-12897079D02*
X9808277Y-12878031D01*
X9808277Y-12878031D02*
X9817801Y-12868508D01*
X9817801Y-12868508D02*
X9836848Y-12858984D01*
X10093991Y-13058984D02*
X9979706Y-13058984D01*
X10036848Y-13058984D02*
X10036848Y-12858984D01*
X10036848Y-12858984D02*
X10017801Y-12887555D01*
X10017801Y-12887555D02*
X9998753Y-12906603D01*
X9998753Y-12906603D02*
X9979706Y-12916127D01*
X10284468Y-13058984D02*
X10170182Y-13058984D01*
X10227325Y-13058984D02*
X10227325Y-12858984D01*
X10227325Y-12858984D02*
X10208277Y-12887555D01*
X10208277Y-12887555D02*
X10189229Y-12906603D01*
X10189229Y-12906603D02*
X10170182Y-12916127D01*
X10398753Y-12944698D02*
X10379706Y-12935174D01*
X10379706Y-12935174D02*
X10370182Y-12925650D01*
X10370182Y-12925650D02*
X10360658Y-12906603D01*
X10360658Y-12906603D02*
X10360658Y-12897079D01*
X10360658Y-12897079D02*
X10370182Y-12878031D01*
X10370182Y-12878031D02*
X10379706Y-12868508D01*
X10379706Y-12868508D02*
X10398753Y-12858984D01*
X10398753Y-12858984D02*
X10436849Y-12858984D01*
X10436849Y-12858984D02*
X10455896Y-12868508D01*
X10455896Y-12868508D02*
X10465420Y-12878031D01*
X10465420Y-12878031D02*
X10474944Y-12897079D01*
X10474944Y-12897079D02*
X10474944Y-12906603D01*
X10474944Y-12906603D02*
X10465420Y-12925650D01*
X10465420Y-12925650D02*
X10455896Y-12935174D01*
X10455896Y-12935174D02*
X10436849Y-12944698D01*
X10436849Y-12944698D02*
X10398753Y-12944698D01*
X10398753Y-12944698D02*
X10379706Y-12954222D01*
X10379706Y-12954222D02*
X10370182Y-12963746D01*
X10370182Y-12963746D02*
X10360658Y-12982793D01*
X10360658Y-12982793D02*
X10360658Y-13020888D01*
X10360658Y-13020888D02*
X10370182Y-13039936D01*
X10370182Y-13039936D02*
X10379706Y-13049460D01*
X10379706Y-13049460D02*
X10398753Y-13058984D01*
X10398753Y-13058984D02*
X10436849Y-13058984D01*
X10436849Y-13058984D02*
X10455896Y-13049460D01*
X10455896Y-13049460D02*
X10465420Y-13039936D01*
X10465420Y-13039936D02*
X10474944Y-13020888D01*
X10474944Y-13020888D02*
X10474944Y-12982793D01*
X10474944Y-12982793D02*
X10465420Y-12963746D01*
X10465420Y-12963746D02*
X10455896Y-12954222D01*
X10455896Y-12954222D02*
X10436849Y-12944698D01*
X10551134Y-12858984D02*
X10551134Y-12897079D01*
X10627325Y-12858984D02*
X10627325Y-12897079D01*
X10922563Y-13135174D02*
X10913039Y-13125650D01*
X10913039Y-13125650D02*
X10893991Y-13097079D01*
X10893991Y-13097079D02*
X10884468Y-13078031D01*
X10884468Y-13078031D02*
X10874944Y-13049460D01*
X10874944Y-13049460D02*
X10865420Y-13001841D01*
X10865420Y-13001841D02*
X10865420Y-12963746D01*
X10865420Y-12963746D02*
X10874944Y-12916127D01*
X10874944Y-12916127D02*
X10884468Y-12887555D01*
X10884468Y-12887555D02*
X10893991Y-12868508D01*
X10893991Y-12868508D02*
X10913039Y-12839936D01*
X10913039Y-12839936D02*
X10922563Y-12830412D01*
X11103515Y-13058984D02*
X10989230Y-13058984D01*
X11046372Y-13058984D02*
X11046372Y-12858984D01*
X11046372Y-12858984D02*
X11027325Y-12887555D01*
X11027325Y-12887555D02*
X11008277Y-12906603D01*
X11008277Y-12906603D02*
X10989230Y-12916127D01*
X11293991Y-13058984D02*
X11179706Y-13058984D01*
X11236848Y-13058984D02*
X11236848Y-12858984D01*
X11236848Y-12858984D02*
X11217801Y-12887555D01*
X11217801Y-12887555D02*
X11198753Y-12906603D01*
X11198753Y-12906603D02*
X11179706Y-12916127D01*
X11532087Y-13058984D02*
X11532087Y-12858984D01*
X11617801Y-13058984D02*
X11617801Y-12954222D01*
X11617801Y-12954222D02*
X11608277Y-12935174D01*
X11608277Y-12935174D02*
X11589230Y-12925650D01*
X11589230Y-12925650D02*
X11560658Y-12925650D01*
X11560658Y-12925650D02*
X11541610Y-12935174D01*
X11541610Y-12935174D02*
X11532087Y-12944698D01*
X11741610Y-13058984D02*
X11722563Y-13049460D01*
X11722563Y-13049460D02*
X11713039Y-13039936D01*
X11713039Y-13039936D02*
X11703515Y-13020888D01*
X11703515Y-13020888D02*
X11703515Y-12963746D01*
X11703515Y-12963746D02*
X11713039Y-12944698D01*
X11713039Y-12944698D02*
X11722563Y-12935174D01*
X11722563Y-12935174D02*
X11741610Y-12925650D01*
X11741610Y-12925650D02*
X11770182Y-12925650D01*
X11770182Y-12925650D02*
X11789230Y-12935174D01*
X11789230Y-12935174D02*
X11798753Y-12944698D01*
X11798753Y-12944698D02*
X11808277Y-12963746D01*
X11808277Y-12963746D02*
X11808277Y-13020888D01*
X11808277Y-13020888D02*
X11798753Y-13039936D01*
X11798753Y-13039936D02*
X11789230Y-13049460D01*
X11789230Y-13049460D02*
X11770182Y-13058984D01*
X11770182Y-13058984D02*
X11741610Y-13058984D01*
X11922563Y-13058984D02*
X11903515Y-13049460D01*
X11903515Y-13049460D02*
X11893991Y-13030412D01*
X11893991Y-13030412D02*
X11893991Y-12858984D01*
X12074944Y-13049460D02*
X12055896Y-13058984D01*
X12055896Y-13058984D02*
X12017801Y-13058984D01*
X12017801Y-13058984D02*
X11998753Y-13049460D01*
X11998753Y-13049460D02*
X11989230Y-13030412D01*
X11989230Y-13030412D02*
X11989230Y-12954222D01*
X11989230Y-12954222D02*
X11998753Y-12935174D01*
X11998753Y-12935174D02*
X12017801Y-12925650D01*
X12017801Y-12925650D02*
X12055896Y-12925650D01*
X12055896Y-12925650D02*
X12074944Y-12935174D01*
X12074944Y-12935174D02*
X12084468Y-12954222D01*
X12084468Y-12954222D02*
X12084468Y-12973269D01*
X12084468Y-12973269D02*
X11989230Y-12992317D01*
X12160658Y-13049460D02*
X12179706Y-13058984D01*
X12179706Y-13058984D02*
X12217801Y-13058984D01*
X12217801Y-13058984D02*
X12236849Y-13049460D01*
X12236849Y-13049460D02*
X12246372Y-13030412D01*
X12246372Y-13030412D02*
X12246372Y-13020888D01*
X12246372Y-13020888D02*
X12236849Y-13001841D01*
X12236849Y-13001841D02*
X12217801Y-12992317D01*
X12217801Y-12992317D02*
X12189230Y-12992317D01*
X12189230Y-12992317D02*
X12170182Y-12982793D01*
X12170182Y-12982793D02*
X12160658Y-12963746D01*
X12160658Y-12963746D02*
X12160658Y-12954222D01*
X12160658Y-12954222D02*
X12170182Y-12935174D01*
X12170182Y-12935174D02*
X12189230Y-12925650D01*
X12189230Y-12925650D02*
X12217801Y-12925650D01*
X12217801Y-12925650D02*
X12236849Y-12935174D01*
X12313039Y-13135174D02*
X12322563Y-13125650D01*
X12322563Y-13125650D02*
X12341611Y-13097079D01*
X12341611Y-13097079D02*
X12351134Y-13078031D01*
X12351134Y-13078031D02*
X12360658Y-13049460D01*
X12360658Y-13049460D02*
X12370182Y-13001841D01*
X12370182Y-13001841D02*
X12370182Y-12963746D01*
X12370182Y-12963746D02*
X12360658Y-12916127D01*
X12360658Y-12916127D02*
X12351134Y-12887555D01*
X12351134Y-12887555D02*
X12341611Y-12868508D01*
X12341611Y-12868508D02*
X12322563Y-12839936D01*
X12322563Y-12839936D02*
X12313039Y-12830412D01*
D12*
X7347500Y-13231500D02*
G75*
G02*
X7307500Y-13231500I-20000J0D01*
G01*
X7307500Y-13231500D02*
G75*
G02*
X7347500Y-13231500I20000J0D01*
G01*
D11*
X7646372Y-13122984D02*
X7665420Y-13122984D01*
X7665420Y-13122984D02*
X7684467Y-13132508D01*
X7684467Y-13132508D02*
X7693991Y-13142031D01*
X7693991Y-13142031D02*
X7703515Y-13161079D01*
X7703515Y-13161079D02*
X7713039Y-13199174D01*
X7713039Y-13199174D02*
X7713039Y-13246793D01*
X7713039Y-13246793D02*
X7703515Y-13284888D01*
X7703515Y-13284888D02*
X7693991Y-13303936D01*
X7693991Y-13303936D02*
X7684467Y-13313460D01*
X7684467Y-13313460D02*
X7665420Y-13322984D01*
X7665420Y-13322984D02*
X7646372Y-13322984D01*
X7646372Y-13322984D02*
X7627324Y-13313460D01*
X7627324Y-13313460D02*
X7617801Y-13303936D01*
X7617801Y-13303936D02*
X7608277Y-13284888D01*
X7608277Y-13284888D02*
X7598753Y-13246793D01*
X7598753Y-13246793D02*
X7598753Y-13199174D01*
X7598753Y-13199174D02*
X7608277Y-13161079D01*
X7608277Y-13161079D02*
X7617801Y-13142031D01*
X7617801Y-13142031D02*
X7627324Y-13132508D01*
X7627324Y-13132508D02*
X7646372Y-13122984D01*
X7798753Y-13303936D02*
X7808277Y-13313460D01*
X7808277Y-13313460D02*
X7798753Y-13322984D01*
X7798753Y-13322984D02*
X7789229Y-13313460D01*
X7789229Y-13313460D02*
X7798753Y-13303936D01*
X7798753Y-13303936D02*
X7798753Y-13322984D01*
X7979705Y-13189650D02*
X7979705Y-13322984D01*
X7932086Y-13113460D02*
X7884467Y-13256317D01*
X7884467Y-13256317D02*
X8008277Y-13256317D01*
X8122562Y-13122984D02*
X8141610Y-13122984D01*
X8141610Y-13122984D02*
X8160658Y-13132508D01*
X8160658Y-13132508D02*
X8170182Y-13142031D01*
X8170182Y-13142031D02*
X8179705Y-13161079D01*
X8179705Y-13161079D02*
X8189229Y-13199174D01*
X8189229Y-13199174D02*
X8189229Y-13246793D01*
X8189229Y-13246793D02*
X8179705Y-13284888D01*
X8179705Y-13284888D02*
X8170182Y-13303936D01*
X8170182Y-13303936D02*
X8160658Y-13313460D01*
X8160658Y-13313460D02*
X8141610Y-13322984D01*
X8141610Y-13322984D02*
X8122562Y-13322984D01*
X8122562Y-13322984D02*
X8103515Y-13313460D01*
X8103515Y-13313460D02*
X8093991Y-13303936D01*
X8093991Y-13303936D02*
X8084467Y-13284888D01*
X8084467Y-13284888D02*
X8074943Y-13246793D01*
X8074943Y-13246793D02*
X8074943Y-13199174D01*
X8074943Y-13199174D02*
X8084467Y-13161079D01*
X8084467Y-13161079D02*
X8093991Y-13142031D01*
X8093991Y-13142031D02*
X8103515Y-13132508D01*
X8103515Y-13132508D02*
X8122562Y-13122984D01*
X8313039Y-13122984D02*
X8332086Y-13122984D01*
X8332086Y-13122984D02*
X8351134Y-13132508D01*
X8351134Y-13132508D02*
X8360658Y-13142031D01*
X8360658Y-13142031D02*
X8370182Y-13161079D01*
X8370182Y-13161079D02*
X8379705Y-13199174D01*
X8379705Y-13199174D02*
X8379705Y-13246793D01*
X8379705Y-13246793D02*
X8370182Y-13284888D01*
X8370182Y-13284888D02*
X8360658Y-13303936D01*
X8360658Y-13303936D02*
X8351134Y-13313460D01*
X8351134Y-13313460D02*
X8332086Y-13322984D01*
X8332086Y-13322984D02*
X8313039Y-13322984D01*
X8313039Y-13322984D02*
X8293991Y-13313460D01*
X8293991Y-13313460D02*
X8284467Y-13303936D01*
X8284467Y-13303936D02*
X8274943Y-13284888D01*
X8274943Y-13284888D02*
X8265420Y-13246793D01*
X8265420Y-13246793D02*
X8265420Y-13199174D01*
X8265420Y-13199174D02*
X8274943Y-13161079D01*
X8274943Y-13161079D02*
X8284467Y-13142031D01*
X8284467Y-13142031D02*
X8293991Y-13132508D01*
X8293991Y-13132508D02*
X8313039Y-13122984D01*
X8465420Y-13322984D02*
X8465420Y-13189650D01*
X8465420Y-13208698D02*
X8474944Y-13199174D01*
X8474944Y-13199174D02*
X8493991Y-13189650D01*
X8493991Y-13189650D02*
X8522563Y-13189650D01*
X8522563Y-13189650D02*
X8541610Y-13199174D01*
X8541610Y-13199174D02*
X8551134Y-13218222D01*
X8551134Y-13218222D02*
X8551134Y-13322984D01*
X8551134Y-13218222D02*
X8560658Y-13199174D01*
X8560658Y-13199174D02*
X8579705Y-13189650D01*
X8579705Y-13189650D02*
X8608277Y-13189650D01*
X8608277Y-13189650D02*
X8627325Y-13199174D01*
X8627325Y-13199174D02*
X8636848Y-13218222D01*
X8636848Y-13218222D02*
X8636848Y-13322984D01*
X8732086Y-13322984D02*
X8732086Y-13189650D01*
X8732086Y-13208698D02*
X8741610Y-13199174D01*
X8741610Y-13199174D02*
X8760658Y-13189650D01*
X8760658Y-13189650D02*
X8789229Y-13189650D01*
X8789229Y-13189650D02*
X8808277Y-13199174D01*
X8808277Y-13199174D02*
X8817801Y-13218222D01*
X8817801Y-13218222D02*
X8817801Y-13322984D01*
X8817801Y-13218222D02*
X8827325Y-13199174D01*
X8827325Y-13199174D02*
X8846372Y-13189650D01*
X8846372Y-13189650D02*
X8874944Y-13189650D01*
X8874944Y-13189650D02*
X8893991Y-13199174D01*
X8893991Y-13199174D02*
X8903515Y-13218222D01*
X8903515Y-13218222D02*
X8903515Y-13322984D01*
X9293991Y-13113460D02*
X9122563Y-13370603D01*
X9551134Y-13122984D02*
X9570182Y-13122984D01*
X9570182Y-13122984D02*
X9589229Y-13132508D01*
X9589229Y-13132508D02*
X9598753Y-13142031D01*
X9598753Y-13142031D02*
X9608277Y-13161079D01*
X9608277Y-13161079D02*
X9617801Y-13199174D01*
X9617801Y-13199174D02*
X9617801Y-13246793D01*
X9617801Y-13246793D02*
X9608277Y-13284888D01*
X9608277Y-13284888D02*
X9598753Y-13303936D01*
X9598753Y-13303936D02*
X9589229Y-13313460D01*
X9589229Y-13313460D02*
X9570182Y-13322984D01*
X9570182Y-13322984D02*
X9551134Y-13322984D01*
X9551134Y-13322984D02*
X9532087Y-13313460D01*
X9532087Y-13313460D02*
X9522563Y-13303936D01*
X9522563Y-13303936D02*
X9513039Y-13284888D01*
X9513039Y-13284888D02*
X9503515Y-13246793D01*
X9503515Y-13246793D02*
X9503515Y-13199174D01*
X9503515Y-13199174D02*
X9513039Y-13161079D01*
X9513039Y-13161079D02*
X9522563Y-13142031D01*
X9522563Y-13142031D02*
X9532087Y-13132508D01*
X9532087Y-13132508D02*
X9551134Y-13122984D01*
X9703515Y-13303936D02*
X9713039Y-13313460D01*
X9713039Y-13313460D02*
X9703515Y-13322984D01*
X9703515Y-13322984D02*
X9693991Y-13313460D01*
X9693991Y-13313460D02*
X9703515Y-13303936D01*
X9703515Y-13303936D02*
X9703515Y-13322984D01*
X9836848Y-13122984D02*
X9855896Y-13122984D01*
X9855896Y-13122984D02*
X9874944Y-13132508D01*
X9874944Y-13132508D02*
X9884468Y-13142031D01*
X9884468Y-13142031D02*
X9893991Y-13161079D01*
X9893991Y-13161079D02*
X9903515Y-13199174D01*
X9903515Y-13199174D02*
X9903515Y-13246793D01*
X9903515Y-13246793D02*
X9893991Y-13284888D01*
X9893991Y-13284888D02*
X9884468Y-13303936D01*
X9884468Y-13303936D02*
X9874944Y-13313460D01*
X9874944Y-13313460D02*
X9855896Y-13322984D01*
X9855896Y-13322984D02*
X9836848Y-13322984D01*
X9836848Y-13322984D02*
X9817801Y-13313460D01*
X9817801Y-13313460D02*
X9808277Y-13303936D01*
X9808277Y-13303936D02*
X9798753Y-13284888D01*
X9798753Y-13284888D02*
X9789229Y-13246793D01*
X9789229Y-13246793D02*
X9789229Y-13199174D01*
X9789229Y-13199174D02*
X9798753Y-13161079D01*
X9798753Y-13161079D02*
X9808277Y-13142031D01*
X9808277Y-13142031D02*
X9817801Y-13132508D01*
X9817801Y-13132508D02*
X9836848Y-13122984D01*
X10093991Y-13322984D02*
X9979706Y-13322984D01*
X10036848Y-13322984D02*
X10036848Y-13122984D01*
X10036848Y-13122984D02*
X10017801Y-13151555D01*
X10017801Y-13151555D02*
X9998753Y-13170603D01*
X9998753Y-13170603D02*
X9979706Y-13180127D01*
X10274944Y-13122984D02*
X10179706Y-13122984D01*
X10179706Y-13122984D02*
X10170182Y-13218222D01*
X10170182Y-13218222D02*
X10179706Y-13208698D01*
X10179706Y-13208698D02*
X10198753Y-13199174D01*
X10198753Y-13199174D02*
X10246372Y-13199174D01*
X10246372Y-13199174D02*
X10265420Y-13208698D01*
X10265420Y-13208698D02*
X10274944Y-13218222D01*
X10274944Y-13218222D02*
X10284468Y-13237269D01*
X10284468Y-13237269D02*
X10284468Y-13284888D01*
X10284468Y-13284888D02*
X10274944Y-13303936D01*
X10274944Y-13303936D02*
X10265420Y-13313460D01*
X10265420Y-13313460D02*
X10246372Y-13322984D01*
X10246372Y-13322984D02*
X10198753Y-13322984D01*
X10198753Y-13322984D02*
X10179706Y-13313460D01*
X10179706Y-13313460D02*
X10170182Y-13303936D01*
X10351134Y-13122984D02*
X10484468Y-13122984D01*
X10484468Y-13122984D02*
X10398753Y-13322984D01*
X10551134Y-13122984D02*
X10551134Y-13161079D01*
X10627325Y-13122984D02*
X10627325Y-13161079D01*
X10922563Y-13399174D02*
X10913039Y-13389650D01*
X10913039Y-13389650D02*
X10893991Y-13361079D01*
X10893991Y-13361079D02*
X10884468Y-13342031D01*
X10884468Y-13342031D02*
X10874944Y-13313460D01*
X10874944Y-13313460D02*
X10865420Y-13265841D01*
X10865420Y-13265841D02*
X10865420Y-13227746D01*
X10865420Y-13227746D02*
X10874944Y-13180127D01*
X10874944Y-13180127D02*
X10884468Y-13151555D01*
X10884468Y-13151555D02*
X10893991Y-13132508D01*
X10893991Y-13132508D02*
X10913039Y-13103936D01*
X10913039Y-13103936D02*
X10922563Y-13094412D01*
X11103515Y-13322984D02*
X10989230Y-13322984D01*
X11046372Y-13322984D02*
X11046372Y-13122984D01*
X11046372Y-13122984D02*
X11027325Y-13151555D01*
X11027325Y-13151555D02*
X11008277Y-13170603D01*
X11008277Y-13170603D02*
X10989230Y-13180127D01*
X11274944Y-13122984D02*
X11236848Y-13122984D01*
X11236848Y-13122984D02*
X11217801Y-13132508D01*
X11217801Y-13132508D02*
X11208277Y-13142031D01*
X11208277Y-13142031D02*
X11189229Y-13170603D01*
X11189229Y-13170603D02*
X11179706Y-13208698D01*
X11179706Y-13208698D02*
X11179706Y-13284888D01*
X11179706Y-13284888D02*
X11189229Y-13303936D01*
X11189229Y-13303936D02*
X11198753Y-13313460D01*
X11198753Y-13313460D02*
X11217801Y-13322984D01*
X11217801Y-13322984D02*
X11255896Y-13322984D01*
X11255896Y-13322984D02*
X11274944Y-13313460D01*
X11274944Y-13313460D02*
X11284468Y-13303936D01*
X11284468Y-13303936D02*
X11293991Y-13284888D01*
X11293991Y-13284888D02*
X11293991Y-13237269D01*
X11293991Y-13237269D02*
X11284468Y-13218222D01*
X11284468Y-13218222D02*
X11274944Y-13208698D01*
X11274944Y-13208698D02*
X11255896Y-13199174D01*
X11255896Y-13199174D02*
X11217801Y-13199174D01*
X11217801Y-13199174D02*
X11198753Y-13208698D01*
X11198753Y-13208698D02*
X11189229Y-13218222D01*
X11189229Y-13218222D02*
X11179706Y-13237269D01*
X11532087Y-13322984D02*
X11532087Y-13122984D01*
X11617801Y-13322984D02*
X11617801Y-13218222D01*
X11617801Y-13218222D02*
X11608277Y-13199174D01*
X11608277Y-13199174D02*
X11589230Y-13189650D01*
X11589230Y-13189650D02*
X11560658Y-13189650D01*
X11560658Y-13189650D02*
X11541610Y-13199174D01*
X11541610Y-13199174D02*
X11532087Y-13208698D01*
X11741610Y-13322984D02*
X11722563Y-13313460D01*
X11722563Y-13313460D02*
X11713039Y-13303936D01*
X11713039Y-13303936D02*
X11703515Y-13284888D01*
X11703515Y-13284888D02*
X11703515Y-13227746D01*
X11703515Y-13227746D02*
X11713039Y-13208698D01*
X11713039Y-13208698D02*
X11722563Y-13199174D01*
X11722563Y-13199174D02*
X11741610Y-13189650D01*
X11741610Y-13189650D02*
X11770182Y-13189650D01*
X11770182Y-13189650D02*
X11789230Y-13199174D01*
X11789230Y-13199174D02*
X11798753Y-13208698D01*
X11798753Y-13208698D02*
X11808277Y-13227746D01*
X11808277Y-13227746D02*
X11808277Y-13284888D01*
X11808277Y-13284888D02*
X11798753Y-13303936D01*
X11798753Y-13303936D02*
X11789230Y-13313460D01*
X11789230Y-13313460D02*
X11770182Y-13322984D01*
X11770182Y-13322984D02*
X11741610Y-13322984D01*
X11922563Y-13322984D02*
X11903515Y-13313460D01*
X11903515Y-13313460D02*
X11893991Y-13294412D01*
X11893991Y-13294412D02*
X11893991Y-13122984D01*
X12074944Y-13313460D02*
X12055896Y-13322984D01*
X12055896Y-13322984D02*
X12017801Y-13322984D01*
X12017801Y-13322984D02*
X11998753Y-13313460D01*
X11998753Y-13313460D02*
X11989230Y-13294412D01*
X11989230Y-13294412D02*
X11989230Y-13218222D01*
X11989230Y-13218222D02*
X11998753Y-13199174D01*
X11998753Y-13199174D02*
X12017801Y-13189650D01*
X12017801Y-13189650D02*
X12055896Y-13189650D01*
X12055896Y-13189650D02*
X12074944Y-13199174D01*
X12074944Y-13199174D02*
X12084468Y-13218222D01*
X12084468Y-13218222D02*
X12084468Y-13237269D01*
X12084468Y-13237269D02*
X11989230Y-13256317D01*
X12160658Y-13313460D02*
X12179706Y-13322984D01*
X12179706Y-13322984D02*
X12217801Y-13322984D01*
X12217801Y-13322984D02*
X12236849Y-13313460D01*
X12236849Y-13313460D02*
X12246372Y-13294412D01*
X12246372Y-13294412D02*
X12246372Y-13284888D01*
X12246372Y-13284888D02*
X12236849Y-13265841D01*
X12236849Y-13265841D02*
X12217801Y-13256317D01*
X12217801Y-13256317D02*
X12189230Y-13256317D01*
X12189230Y-13256317D02*
X12170182Y-13246793D01*
X12170182Y-13246793D02*
X12160658Y-13227746D01*
X12160658Y-13227746D02*
X12160658Y-13218222D01*
X12160658Y-13218222D02*
X12170182Y-13199174D01*
X12170182Y-13199174D02*
X12189230Y-13189650D01*
X12189230Y-13189650D02*
X12217801Y-13189650D01*
X12217801Y-13189650D02*
X12236849Y-13199174D01*
X12313039Y-13399174D02*
X12322563Y-13389650D01*
X12322563Y-13389650D02*
X12341611Y-13361079D01*
X12341611Y-13361079D02*
X12351134Y-13342031D01*
X12351134Y-13342031D02*
X12360658Y-13313460D01*
X12360658Y-13313460D02*
X12370182Y-13265841D01*
X12370182Y-13265841D02*
X12370182Y-13227746D01*
X12370182Y-13227746D02*
X12360658Y-13180127D01*
X12360658Y-13180127D02*
X12351134Y-13151555D01*
X12351134Y-13151555D02*
X12341611Y-13132508D01*
X12341611Y-13132508D02*
X12322563Y-13103936D01*
X12322563Y-13103936D02*
X12313039Y-13094412D01*
D12*
X7317500Y-13465500D02*
X7317500Y-13525500D01*
X7287500Y-13495500D02*
X7347500Y-13495500D01*
D11*
X7646372Y-13386984D02*
X7665420Y-13386984D01*
X7665420Y-13386984D02*
X7684467Y-13396508D01*
X7684467Y-13396508D02*
X7693991Y-13406031D01*
X7693991Y-13406031D02*
X7703515Y-13425079D01*
X7703515Y-13425079D02*
X7713039Y-13463174D01*
X7713039Y-13463174D02*
X7713039Y-13510793D01*
X7713039Y-13510793D02*
X7703515Y-13548888D01*
X7703515Y-13548888D02*
X7693991Y-13567936D01*
X7693991Y-13567936D02*
X7684467Y-13577460D01*
X7684467Y-13577460D02*
X7665420Y-13586984D01*
X7665420Y-13586984D02*
X7646372Y-13586984D01*
X7646372Y-13586984D02*
X7627324Y-13577460D01*
X7627324Y-13577460D02*
X7617801Y-13567936D01*
X7617801Y-13567936D02*
X7608277Y-13548888D01*
X7608277Y-13548888D02*
X7598753Y-13510793D01*
X7598753Y-13510793D02*
X7598753Y-13463174D01*
X7598753Y-13463174D02*
X7608277Y-13425079D01*
X7608277Y-13425079D02*
X7617801Y-13406031D01*
X7617801Y-13406031D02*
X7627324Y-13396508D01*
X7627324Y-13396508D02*
X7646372Y-13386984D01*
X7798753Y-13567936D02*
X7808277Y-13577460D01*
X7808277Y-13577460D02*
X7798753Y-13586984D01*
X7798753Y-13586984D02*
X7789229Y-13577460D01*
X7789229Y-13577460D02*
X7798753Y-13567936D01*
X7798753Y-13567936D02*
X7798753Y-13586984D01*
X7979705Y-13386984D02*
X7941610Y-13386984D01*
X7941610Y-13386984D02*
X7922562Y-13396508D01*
X7922562Y-13396508D02*
X7913039Y-13406031D01*
X7913039Y-13406031D02*
X7893991Y-13434603D01*
X7893991Y-13434603D02*
X7884467Y-13472698D01*
X7884467Y-13472698D02*
X7884467Y-13548888D01*
X7884467Y-13548888D02*
X7893991Y-13567936D01*
X7893991Y-13567936D02*
X7903515Y-13577460D01*
X7903515Y-13577460D02*
X7922562Y-13586984D01*
X7922562Y-13586984D02*
X7960658Y-13586984D01*
X7960658Y-13586984D02*
X7979705Y-13577460D01*
X7979705Y-13577460D02*
X7989229Y-13567936D01*
X7989229Y-13567936D02*
X7998753Y-13548888D01*
X7998753Y-13548888D02*
X7998753Y-13501269D01*
X7998753Y-13501269D02*
X7989229Y-13482222D01*
X7989229Y-13482222D02*
X7979705Y-13472698D01*
X7979705Y-13472698D02*
X7960658Y-13463174D01*
X7960658Y-13463174D02*
X7922562Y-13463174D01*
X7922562Y-13463174D02*
X7903515Y-13472698D01*
X7903515Y-13472698D02*
X7893991Y-13482222D01*
X7893991Y-13482222D02*
X7884467Y-13501269D01*
X8122562Y-13386984D02*
X8141610Y-13386984D01*
X8141610Y-13386984D02*
X8160658Y-13396508D01*
X8160658Y-13396508D02*
X8170182Y-13406031D01*
X8170182Y-13406031D02*
X8179705Y-13425079D01*
X8179705Y-13425079D02*
X8189229Y-13463174D01*
X8189229Y-13463174D02*
X8189229Y-13510793D01*
X8189229Y-13510793D02*
X8179705Y-13548888D01*
X8179705Y-13548888D02*
X8170182Y-13567936D01*
X8170182Y-13567936D02*
X8160658Y-13577460D01*
X8160658Y-13577460D02*
X8141610Y-13586984D01*
X8141610Y-13586984D02*
X8122562Y-13586984D01*
X8122562Y-13586984D02*
X8103515Y-13577460D01*
X8103515Y-13577460D02*
X8093991Y-13567936D01*
X8093991Y-13567936D02*
X8084467Y-13548888D01*
X8084467Y-13548888D02*
X8074943Y-13510793D01*
X8074943Y-13510793D02*
X8074943Y-13463174D01*
X8074943Y-13463174D02*
X8084467Y-13425079D01*
X8084467Y-13425079D02*
X8093991Y-13406031D01*
X8093991Y-13406031D02*
X8103515Y-13396508D01*
X8103515Y-13396508D02*
X8122562Y-13386984D01*
X8313039Y-13386984D02*
X8332086Y-13386984D01*
X8332086Y-13386984D02*
X8351134Y-13396508D01*
X8351134Y-13396508D02*
X8360658Y-13406031D01*
X8360658Y-13406031D02*
X8370182Y-13425079D01*
X8370182Y-13425079D02*
X8379705Y-13463174D01*
X8379705Y-13463174D02*
X8379705Y-13510793D01*
X8379705Y-13510793D02*
X8370182Y-13548888D01*
X8370182Y-13548888D02*
X8360658Y-13567936D01*
X8360658Y-13567936D02*
X8351134Y-13577460D01*
X8351134Y-13577460D02*
X8332086Y-13586984D01*
X8332086Y-13586984D02*
X8313039Y-13586984D01*
X8313039Y-13586984D02*
X8293991Y-13577460D01*
X8293991Y-13577460D02*
X8284467Y-13567936D01*
X8284467Y-13567936D02*
X8274943Y-13548888D01*
X8274943Y-13548888D02*
X8265420Y-13510793D01*
X8265420Y-13510793D02*
X8265420Y-13463174D01*
X8265420Y-13463174D02*
X8274943Y-13425079D01*
X8274943Y-13425079D02*
X8284467Y-13406031D01*
X8284467Y-13406031D02*
X8293991Y-13396508D01*
X8293991Y-13396508D02*
X8313039Y-13386984D01*
X8465420Y-13586984D02*
X8465420Y-13453650D01*
X8465420Y-13472698D02*
X8474944Y-13463174D01*
X8474944Y-13463174D02*
X8493991Y-13453650D01*
X8493991Y-13453650D02*
X8522563Y-13453650D01*
X8522563Y-13453650D02*
X8541610Y-13463174D01*
X8541610Y-13463174D02*
X8551134Y-13482222D01*
X8551134Y-13482222D02*
X8551134Y-13586984D01*
X8551134Y-13482222D02*
X8560658Y-13463174D01*
X8560658Y-13463174D02*
X8579705Y-13453650D01*
X8579705Y-13453650D02*
X8608277Y-13453650D01*
X8608277Y-13453650D02*
X8627325Y-13463174D01*
X8627325Y-13463174D02*
X8636848Y-13482222D01*
X8636848Y-13482222D02*
X8636848Y-13586984D01*
X8732086Y-13586984D02*
X8732086Y-13453650D01*
X8732086Y-13472698D02*
X8741610Y-13463174D01*
X8741610Y-13463174D02*
X8760658Y-13453650D01*
X8760658Y-13453650D02*
X8789229Y-13453650D01*
X8789229Y-13453650D02*
X8808277Y-13463174D01*
X8808277Y-13463174D02*
X8817801Y-13482222D01*
X8817801Y-13482222D02*
X8817801Y-13586984D01*
X8817801Y-13482222D02*
X8827325Y-13463174D01*
X8827325Y-13463174D02*
X8846372Y-13453650D01*
X8846372Y-13453650D02*
X8874944Y-13453650D01*
X8874944Y-13453650D02*
X8893991Y-13463174D01*
X8893991Y-13463174D02*
X8903515Y-13482222D01*
X8903515Y-13482222D02*
X8903515Y-13586984D01*
X9293991Y-13377460D02*
X9122563Y-13634603D01*
X9551134Y-13386984D02*
X9570182Y-13386984D01*
X9570182Y-13386984D02*
X9589229Y-13396508D01*
X9589229Y-13396508D02*
X9598753Y-13406031D01*
X9598753Y-13406031D02*
X9608277Y-13425079D01*
X9608277Y-13425079D02*
X9617801Y-13463174D01*
X9617801Y-13463174D02*
X9617801Y-13510793D01*
X9617801Y-13510793D02*
X9608277Y-13548888D01*
X9608277Y-13548888D02*
X9598753Y-13567936D01*
X9598753Y-13567936D02*
X9589229Y-13577460D01*
X9589229Y-13577460D02*
X9570182Y-13586984D01*
X9570182Y-13586984D02*
X9551134Y-13586984D01*
X9551134Y-13586984D02*
X9532087Y-13577460D01*
X9532087Y-13577460D02*
X9522563Y-13567936D01*
X9522563Y-13567936D02*
X9513039Y-13548888D01*
X9513039Y-13548888D02*
X9503515Y-13510793D01*
X9503515Y-13510793D02*
X9503515Y-13463174D01*
X9503515Y-13463174D02*
X9513039Y-13425079D01*
X9513039Y-13425079D02*
X9522563Y-13406031D01*
X9522563Y-13406031D02*
X9532087Y-13396508D01*
X9532087Y-13396508D02*
X9551134Y-13386984D01*
X9703515Y-13567936D02*
X9713039Y-13577460D01*
X9713039Y-13577460D02*
X9703515Y-13586984D01*
X9703515Y-13586984D02*
X9693991Y-13577460D01*
X9693991Y-13577460D02*
X9703515Y-13567936D01*
X9703515Y-13567936D02*
X9703515Y-13586984D01*
X9836848Y-13386984D02*
X9855896Y-13386984D01*
X9855896Y-13386984D02*
X9874944Y-13396508D01*
X9874944Y-13396508D02*
X9884468Y-13406031D01*
X9884468Y-13406031D02*
X9893991Y-13425079D01*
X9893991Y-13425079D02*
X9903515Y-13463174D01*
X9903515Y-13463174D02*
X9903515Y-13510793D01*
X9903515Y-13510793D02*
X9893991Y-13548888D01*
X9893991Y-13548888D02*
X9884468Y-13567936D01*
X9884468Y-13567936D02*
X9874944Y-13577460D01*
X9874944Y-13577460D02*
X9855896Y-13586984D01*
X9855896Y-13586984D02*
X9836848Y-13586984D01*
X9836848Y-13586984D02*
X9817801Y-13577460D01*
X9817801Y-13577460D02*
X9808277Y-13567936D01*
X9808277Y-13567936D02*
X9798753Y-13548888D01*
X9798753Y-13548888D02*
X9789229Y-13510793D01*
X9789229Y-13510793D02*
X9789229Y-13463174D01*
X9789229Y-13463174D02*
X9798753Y-13425079D01*
X9798753Y-13425079D02*
X9808277Y-13406031D01*
X9808277Y-13406031D02*
X9817801Y-13396508D01*
X9817801Y-13396508D02*
X9836848Y-13386984D01*
X9979706Y-13406031D02*
X9989229Y-13396508D01*
X9989229Y-13396508D02*
X10008277Y-13386984D01*
X10008277Y-13386984D02*
X10055896Y-13386984D01*
X10055896Y-13386984D02*
X10074944Y-13396508D01*
X10074944Y-13396508D02*
X10084468Y-13406031D01*
X10084468Y-13406031D02*
X10093991Y-13425079D01*
X10093991Y-13425079D02*
X10093991Y-13444127D01*
X10093991Y-13444127D02*
X10084468Y-13472698D01*
X10084468Y-13472698D02*
X9970182Y-13586984D01*
X9970182Y-13586984D02*
X10093991Y-13586984D01*
X10160658Y-13386984D02*
X10284468Y-13386984D01*
X10284468Y-13386984D02*
X10217801Y-13463174D01*
X10217801Y-13463174D02*
X10246372Y-13463174D01*
X10246372Y-13463174D02*
X10265420Y-13472698D01*
X10265420Y-13472698D02*
X10274944Y-13482222D01*
X10274944Y-13482222D02*
X10284468Y-13501269D01*
X10284468Y-13501269D02*
X10284468Y-13548888D01*
X10284468Y-13548888D02*
X10274944Y-13567936D01*
X10274944Y-13567936D02*
X10265420Y-13577460D01*
X10265420Y-13577460D02*
X10246372Y-13586984D01*
X10246372Y-13586984D02*
X10189229Y-13586984D01*
X10189229Y-13586984D02*
X10170182Y-13577460D01*
X10170182Y-13577460D02*
X10160658Y-13567936D01*
X10455896Y-13386984D02*
X10417801Y-13386984D01*
X10417801Y-13386984D02*
X10398753Y-13396508D01*
X10398753Y-13396508D02*
X10389229Y-13406031D01*
X10389229Y-13406031D02*
X10370182Y-13434603D01*
X10370182Y-13434603D02*
X10360658Y-13472698D01*
X10360658Y-13472698D02*
X10360658Y-13548888D01*
X10360658Y-13548888D02*
X10370182Y-13567936D01*
X10370182Y-13567936D02*
X10379706Y-13577460D01*
X10379706Y-13577460D02*
X10398753Y-13586984D01*
X10398753Y-13586984D02*
X10436849Y-13586984D01*
X10436849Y-13586984D02*
X10455896Y-13577460D01*
X10455896Y-13577460D02*
X10465420Y-13567936D01*
X10465420Y-13567936D02*
X10474944Y-13548888D01*
X10474944Y-13548888D02*
X10474944Y-13501269D01*
X10474944Y-13501269D02*
X10465420Y-13482222D01*
X10465420Y-13482222D02*
X10455896Y-13472698D01*
X10455896Y-13472698D02*
X10436849Y-13463174D01*
X10436849Y-13463174D02*
X10398753Y-13463174D01*
X10398753Y-13463174D02*
X10379706Y-13472698D01*
X10379706Y-13472698D02*
X10370182Y-13482222D01*
X10370182Y-13482222D02*
X10360658Y-13501269D01*
X10551134Y-13386984D02*
X10551134Y-13425079D01*
X10627325Y-13386984D02*
X10627325Y-13425079D01*
X10922563Y-13663174D02*
X10913039Y-13653650D01*
X10913039Y-13653650D02*
X10893991Y-13625079D01*
X10893991Y-13625079D02*
X10884468Y-13606031D01*
X10884468Y-13606031D02*
X10874944Y-13577460D01*
X10874944Y-13577460D02*
X10865420Y-13529841D01*
X10865420Y-13529841D02*
X10865420Y-13491746D01*
X10865420Y-13491746D02*
X10874944Y-13444127D01*
X10874944Y-13444127D02*
X10884468Y-13415555D01*
X10884468Y-13415555D02*
X10893991Y-13396508D01*
X10893991Y-13396508D02*
X10913039Y-13367936D01*
X10913039Y-13367936D02*
X10922563Y-13358412D01*
X11036849Y-13386984D02*
X11055896Y-13386984D01*
X11055896Y-13386984D02*
X11074944Y-13396508D01*
X11074944Y-13396508D02*
X11084468Y-13406031D01*
X11084468Y-13406031D02*
X11093991Y-13425079D01*
X11093991Y-13425079D02*
X11103515Y-13463174D01*
X11103515Y-13463174D02*
X11103515Y-13510793D01*
X11103515Y-13510793D02*
X11093991Y-13548888D01*
X11093991Y-13548888D02*
X11084468Y-13567936D01*
X11084468Y-13567936D02*
X11074944Y-13577460D01*
X11074944Y-13577460D02*
X11055896Y-13586984D01*
X11055896Y-13586984D02*
X11036849Y-13586984D01*
X11036849Y-13586984D02*
X11017801Y-13577460D01*
X11017801Y-13577460D02*
X11008277Y-13567936D01*
X11008277Y-13567936D02*
X10998753Y-13548888D01*
X10998753Y-13548888D02*
X10989230Y-13510793D01*
X10989230Y-13510793D02*
X10989230Y-13463174D01*
X10989230Y-13463174D02*
X10998753Y-13425079D01*
X10998753Y-13425079D02*
X11008277Y-13406031D01*
X11008277Y-13406031D02*
X11017801Y-13396508D01*
X11017801Y-13396508D02*
X11036849Y-13386984D01*
X11341610Y-13586984D02*
X11341610Y-13386984D01*
X11427325Y-13586984D02*
X11427325Y-13482222D01*
X11427325Y-13482222D02*
X11417801Y-13463174D01*
X11417801Y-13463174D02*
X11398753Y-13453650D01*
X11398753Y-13453650D02*
X11370182Y-13453650D01*
X11370182Y-13453650D02*
X11351134Y-13463174D01*
X11351134Y-13463174D02*
X11341610Y-13472698D01*
X11551134Y-13586984D02*
X11532087Y-13577460D01*
X11532087Y-13577460D02*
X11522563Y-13567936D01*
X11522563Y-13567936D02*
X11513039Y-13548888D01*
X11513039Y-13548888D02*
X11513039Y-13491746D01*
X11513039Y-13491746D02*
X11522563Y-13472698D01*
X11522563Y-13472698D02*
X11532087Y-13463174D01*
X11532087Y-13463174D02*
X11551134Y-13453650D01*
X11551134Y-13453650D02*
X11579706Y-13453650D01*
X11579706Y-13453650D02*
X11598753Y-13463174D01*
X11598753Y-13463174D02*
X11608277Y-13472698D01*
X11608277Y-13472698D02*
X11617801Y-13491746D01*
X11617801Y-13491746D02*
X11617801Y-13548888D01*
X11617801Y-13548888D02*
X11608277Y-13567936D01*
X11608277Y-13567936D02*
X11598753Y-13577460D01*
X11598753Y-13577460D02*
X11579706Y-13586984D01*
X11579706Y-13586984D02*
X11551134Y-13586984D01*
X11732087Y-13586984D02*
X11713039Y-13577460D01*
X11713039Y-13577460D02*
X11703515Y-13558412D01*
X11703515Y-13558412D02*
X11703515Y-13386984D01*
X11884468Y-13577460D02*
X11865420Y-13586984D01*
X11865420Y-13586984D02*
X11827325Y-13586984D01*
X11827325Y-13586984D02*
X11808277Y-13577460D01*
X11808277Y-13577460D02*
X11798753Y-13558412D01*
X11798753Y-13558412D02*
X11798753Y-13482222D01*
X11798753Y-13482222D02*
X11808277Y-13463174D01*
X11808277Y-13463174D02*
X11827325Y-13453650D01*
X11827325Y-13453650D02*
X11865420Y-13453650D01*
X11865420Y-13453650D02*
X11884468Y-13463174D01*
X11884468Y-13463174D02*
X11893991Y-13482222D01*
X11893991Y-13482222D02*
X11893991Y-13501269D01*
X11893991Y-13501269D02*
X11798753Y-13520317D01*
X11970182Y-13577460D02*
X11989230Y-13586984D01*
X11989230Y-13586984D02*
X12027325Y-13586984D01*
X12027325Y-13586984D02*
X12046372Y-13577460D01*
X12046372Y-13577460D02*
X12055896Y-13558412D01*
X12055896Y-13558412D02*
X12055896Y-13548888D01*
X12055896Y-13548888D02*
X12046372Y-13529841D01*
X12046372Y-13529841D02*
X12027325Y-13520317D01*
X12027325Y-13520317D02*
X11998753Y-13520317D01*
X11998753Y-13520317D02*
X11979706Y-13510793D01*
X11979706Y-13510793D02*
X11970182Y-13491746D01*
X11970182Y-13491746D02*
X11970182Y-13482222D01*
X11970182Y-13482222D02*
X11979706Y-13463174D01*
X11979706Y-13463174D02*
X11998753Y-13453650D01*
X11998753Y-13453650D02*
X12027325Y-13453650D01*
X12027325Y-13453650D02*
X12046372Y-13463174D01*
X12293992Y-13510793D02*
X12446373Y-13510793D01*
X12370182Y-13586984D02*
X12370182Y-13434603D01*
X12779706Y-13453650D02*
X12779706Y-13586984D01*
X12732087Y-13377460D02*
X12684468Y-13520317D01*
X12684468Y-13520317D02*
X12808277Y-13520317D01*
X13027325Y-13577460D02*
X13046373Y-13586984D01*
X13046373Y-13586984D02*
X13084468Y-13586984D01*
X13084468Y-13586984D02*
X13103515Y-13577460D01*
X13103515Y-13577460D02*
X13113039Y-13558412D01*
X13113039Y-13558412D02*
X13113039Y-13548888D01*
X13113039Y-13548888D02*
X13103515Y-13529841D01*
X13103515Y-13529841D02*
X13084468Y-13520317D01*
X13084468Y-13520317D02*
X13055896Y-13520317D01*
X13055896Y-13520317D02*
X13036849Y-13510793D01*
X13036849Y-13510793D02*
X13027325Y-13491746D01*
X13027325Y-13491746D02*
X13027325Y-13482222D01*
X13027325Y-13482222D02*
X13036849Y-13463174D01*
X13036849Y-13463174D02*
X13055896Y-13453650D01*
X13055896Y-13453650D02*
X13084468Y-13453650D01*
X13084468Y-13453650D02*
X13103515Y-13463174D01*
X13227325Y-13586984D02*
X13208277Y-13577460D01*
X13208277Y-13577460D02*
X13198754Y-13558412D01*
X13198754Y-13558412D02*
X13198754Y-13386984D01*
X13332087Y-13586984D02*
X13313039Y-13577460D01*
X13313039Y-13577460D02*
X13303515Y-13567936D01*
X13303515Y-13567936D02*
X13293992Y-13548888D01*
X13293992Y-13548888D02*
X13293992Y-13491746D01*
X13293992Y-13491746D02*
X13303515Y-13472698D01*
X13303515Y-13472698D02*
X13313039Y-13463174D01*
X13313039Y-13463174D02*
X13332087Y-13453650D01*
X13332087Y-13453650D02*
X13360658Y-13453650D01*
X13360658Y-13453650D02*
X13379706Y-13463174D01*
X13379706Y-13463174D02*
X13389230Y-13472698D01*
X13389230Y-13472698D02*
X13398754Y-13491746D01*
X13398754Y-13491746D02*
X13398754Y-13548888D01*
X13398754Y-13548888D02*
X13389230Y-13567936D01*
X13389230Y-13567936D02*
X13379706Y-13577460D01*
X13379706Y-13577460D02*
X13360658Y-13586984D01*
X13360658Y-13586984D02*
X13332087Y-13586984D01*
X13455896Y-13453650D02*
X13532087Y-13453650D01*
X13484468Y-13386984D02*
X13484468Y-13558412D01*
X13484468Y-13558412D02*
X13493992Y-13577460D01*
X13493992Y-13577460D02*
X13513039Y-13586984D01*
X13513039Y-13586984D02*
X13532087Y-13586984D01*
X13589230Y-13577460D02*
X13608277Y-13586984D01*
X13608277Y-13586984D02*
X13646373Y-13586984D01*
X13646373Y-13586984D02*
X13665420Y-13577460D01*
X13665420Y-13577460D02*
X13674944Y-13558412D01*
X13674944Y-13558412D02*
X13674944Y-13548888D01*
X13674944Y-13548888D02*
X13665420Y-13529841D01*
X13665420Y-13529841D02*
X13646373Y-13520317D01*
X13646373Y-13520317D02*
X13617801Y-13520317D01*
X13617801Y-13520317D02*
X13598754Y-13510793D01*
X13598754Y-13510793D02*
X13589230Y-13491746D01*
X13589230Y-13491746D02*
X13589230Y-13482222D01*
X13589230Y-13482222D02*
X13598754Y-13463174D01*
X13598754Y-13463174D02*
X13617801Y-13453650D01*
X13617801Y-13453650D02*
X13646373Y-13453650D01*
X13646373Y-13453650D02*
X13665420Y-13463174D01*
X13741611Y-13663174D02*
X13751135Y-13653650D01*
X13751135Y-13653650D02*
X13770182Y-13625079D01*
X13770182Y-13625079D02*
X13779706Y-13606031D01*
X13779706Y-13606031D02*
X13789230Y-13577460D01*
X13789230Y-13577460D02*
X13798754Y-13529841D01*
X13798754Y-13529841D02*
X13798754Y-13491746D01*
X13798754Y-13491746D02*
X13789230Y-13444127D01*
X13789230Y-13444127D02*
X13779706Y-13415555D01*
X13779706Y-13415555D02*
X13770182Y-13396508D01*
X13770182Y-13396508D02*
X13751135Y-13367936D01*
X13751135Y-13367936D02*
X13741611Y-13358412D01*
D12*
X7336810Y-13785310D02*
X7336810Y-13733690D01*
X7285190Y-13733690D01*
X7285190Y-13785310D01*
X7336810Y-13785310D01*
D11*
X7646372Y-13650984D02*
X7665420Y-13650984D01*
X7665420Y-13650984D02*
X7684467Y-13660508D01*
X7684467Y-13660508D02*
X7693991Y-13670031D01*
X7693991Y-13670031D02*
X7703515Y-13689079D01*
X7703515Y-13689079D02*
X7713039Y-13727174D01*
X7713039Y-13727174D02*
X7713039Y-13774793D01*
X7713039Y-13774793D02*
X7703515Y-13812888D01*
X7703515Y-13812888D02*
X7693991Y-13831936D01*
X7693991Y-13831936D02*
X7684467Y-13841460D01*
X7684467Y-13841460D02*
X7665420Y-13850984D01*
X7665420Y-13850984D02*
X7646372Y-13850984D01*
X7646372Y-13850984D02*
X7627324Y-13841460D01*
X7627324Y-13841460D02*
X7617801Y-13831936D01*
X7617801Y-13831936D02*
X7608277Y-13812888D01*
X7608277Y-13812888D02*
X7598753Y-13774793D01*
X7598753Y-13774793D02*
X7598753Y-13727174D01*
X7598753Y-13727174D02*
X7608277Y-13689079D01*
X7608277Y-13689079D02*
X7617801Y-13670031D01*
X7617801Y-13670031D02*
X7627324Y-13660508D01*
X7627324Y-13660508D02*
X7646372Y-13650984D01*
X7798753Y-13831936D02*
X7808277Y-13841460D01*
X7808277Y-13841460D02*
X7798753Y-13850984D01*
X7798753Y-13850984D02*
X7789229Y-13841460D01*
X7789229Y-13841460D02*
X7798753Y-13831936D01*
X7798753Y-13831936D02*
X7798753Y-13850984D01*
X7874943Y-13650984D02*
X8008277Y-13650984D01*
X8008277Y-13650984D02*
X7922562Y-13850984D01*
X8065420Y-13650984D02*
X8189229Y-13650984D01*
X8189229Y-13650984D02*
X8122562Y-13727174D01*
X8122562Y-13727174D02*
X8151134Y-13727174D01*
X8151134Y-13727174D02*
X8170182Y-13736698D01*
X8170182Y-13736698D02*
X8179705Y-13746222D01*
X8179705Y-13746222D02*
X8189229Y-13765269D01*
X8189229Y-13765269D02*
X8189229Y-13812888D01*
X8189229Y-13812888D02*
X8179705Y-13831936D01*
X8179705Y-13831936D02*
X8170182Y-13841460D01*
X8170182Y-13841460D02*
X8151134Y-13850984D01*
X8151134Y-13850984D02*
X8093991Y-13850984D01*
X8093991Y-13850984D02*
X8074943Y-13841460D01*
X8074943Y-13841460D02*
X8065420Y-13831936D01*
X8313039Y-13650984D02*
X8332086Y-13650984D01*
X8332086Y-13650984D02*
X8351134Y-13660508D01*
X8351134Y-13660508D02*
X8360658Y-13670031D01*
X8360658Y-13670031D02*
X8370182Y-13689079D01*
X8370182Y-13689079D02*
X8379705Y-13727174D01*
X8379705Y-13727174D02*
X8379705Y-13774793D01*
X8379705Y-13774793D02*
X8370182Y-13812888D01*
X8370182Y-13812888D02*
X8360658Y-13831936D01*
X8360658Y-13831936D02*
X8351134Y-13841460D01*
X8351134Y-13841460D02*
X8332086Y-13850984D01*
X8332086Y-13850984D02*
X8313039Y-13850984D01*
X8313039Y-13850984D02*
X8293991Y-13841460D01*
X8293991Y-13841460D02*
X8284467Y-13831936D01*
X8284467Y-13831936D02*
X8274943Y-13812888D01*
X8274943Y-13812888D02*
X8265420Y-13774793D01*
X8265420Y-13774793D02*
X8265420Y-13727174D01*
X8265420Y-13727174D02*
X8274943Y-13689079D01*
X8274943Y-13689079D02*
X8284467Y-13670031D01*
X8284467Y-13670031D02*
X8293991Y-13660508D01*
X8293991Y-13660508D02*
X8313039Y-13650984D01*
X8465420Y-13850984D02*
X8465420Y-13717650D01*
X8465420Y-13736698D02*
X8474944Y-13727174D01*
X8474944Y-13727174D02*
X8493991Y-13717650D01*
X8493991Y-13717650D02*
X8522563Y-13717650D01*
X8522563Y-13717650D02*
X8541610Y-13727174D01*
X8541610Y-13727174D02*
X8551134Y-13746222D01*
X8551134Y-13746222D02*
X8551134Y-13850984D01*
X8551134Y-13746222D02*
X8560658Y-13727174D01*
X8560658Y-13727174D02*
X8579705Y-13717650D01*
X8579705Y-13717650D02*
X8608277Y-13717650D01*
X8608277Y-13717650D02*
X8627325Y-13727174D01*
X8627325Y-13727174D02*
X8636848Y-13746222D01*
X8636848Y-13746222D02*
X8636848Y-13850984D01*
X8732086Y-13850984D02*
X8732086Y-13717650D01*
X8732086Y-13736698D02*
X8741610Y-13727174D01*
X8741610Y-13727174D02*
X8760658Y-13717650D01*
X8760658Y-13717650D02*
X8789229Y-13717650D01*
X8789229Y-13717650D02*
X8808277Y-13727174D01*
X8808277Y-13727174D02*
X8817801Y-13746222D01*
X8817801Y-13746222D02*
X8817801Y-13850984D01*
X8817801Y-13746222D02*
X8827325Y-13727174D01*
X8827325Y-13727174D02*
X8846372Y-13717650D01*
X8846372Y-13717650D02*
X8874944Y-13717650D01*
X8874944Y-13717650D02*
X8893991Y-13727174D01*
X8893991Y-13727174D02*
X8903515Y-13746222D01*
X8903515Y-13746222D02*
X8903515Y-13850984D01*
X9293991Y-13641460D02*
X9122563Y-13898603D01*
X9551134Y-13650984D02*
X9570182Y-13650984D01*
X9570182Y-13650984D02*
X9589229Y-13660508D01*
X9589229Y-13660508D02*
X9598753Y-13670031D01*
X9598753Y-13670031D02*
X9608277Y-13689079D01*
X9608277Y-13689079D02*
X9617801Y-13727174D01*
X9617801Y-13727174D02*
X9617801Y-13774793D01*
X9617801Y-13774793D02*
X9608277Y-13812888D01*
X9608277Y-13812888D02*
X9598753Y-13831936D01*
X9598753Y-13831936D02*
X9589229Y-13841460D01*
X9589229Y-13841460D02*
X9570182Y-13850984D01*
X9570182Y-13850984D02*
X9551134Y-13850984D01*
X9551134Y-13850984D02*
X9532087Y-13841460D01*
X9532087Y-13841460D02*
X9522563Y-13831936D01*
X9522563Y-13831936D02*
X9513039Y-13812888D01*
X9513039Y-13812888D02*
X9503515Y-13774793D01*
X9503515Y-13774793D02*
X9503515Y-13727174D01*
X9503515Y-13727174D02*
X9513039Y-13689079D01*
X9513039Y-13689079D02*
X9522563Y-13670031D01*
X9522563Y-13670031D02*
X9532087Y-13660508D01*
X9532087Y-13660508D02*
X9551134Y-13650984D01*
X9703515Y-13831936D02*
X9713039Y-13841460D01*
X9713039Y-13841460D02*
X9703515Y-13850984D01*
X9703515Y-13850984D02*
X9693991Y-13841460D01*
X9693991Y-13841460D02*
X9703515Y-13831936D01*
X9703515Y-13831936D02*
X9703515Y-13850984D01*
X9836848Y-13650984D02*
X9855896Y-13650984D01*
X9855896Y-13650984D02*
X9874944Y-13660508D01*
X9874944Y-13660508D02*
X9884468Y-13670031D01*
X9884468Y-13670031D02*
X9893991Y-13689079D01*
X9893991Y-13689079D02*
X9903515Y-13727174D01*
X9903515Y-13727174D02*
X9903515Y-13774793D01*
X9903515Y-13774793D02*
X9893991Y-13812888D01*
X9893991Y-13812888D02*
X9884468Y-13831936D01*
X9884468Y-13831936D02*
X9874944Y-13841460D01*
X9874944Y-13841460D02*
X9855896Y-13850984D01*
X9855896Y-13850984D02*
X9836848Y-13850984D01*
X9836848Y-13850984D02*
X9817801Y-13841460D01*
X9817801Y-13841460D02*
X9808277Y-13831936D01*
X9808277Y-13831936D02*
X9798753Y-13812888D01*
X9798753Y-13812888D02*
X9789229Y-13774793D01*
X9789229Y-13774793D02*
X9789229Y-13727174D01*
X9789229Y-13727174D02*
X9798753Y-13689079D01*
X9798753Y-13689079D02*
X9808277Y-13670031D01*
X9808277Y-13670031D02*
X9817801Y-13660508D01*
X9817801Y-13660508D02*
X9836848Y-13650984D01*
X9979706Y-13670031D02*
X9989229Y-13660508D01*
X9989229Y-13660508D02*
X10008277Y-13650984D01*
X10008277Y-13650984D02*
X10055896Y-13650984D01*
X10055896Y-13650984D02*
X10074944Y-13660508D01*
X10074944Y-13660508D02*
X10084468Y-13670031D01*
X10084468Y-13670031D02*
X10093991Y-13689079D01*
X10093991Y-13689079D02*
X10093991Y-13708127D01*
X10093991Y-13708127D02*
X10084468Y-13736698D01*
X10084468Y-13736698D02*
X9970182Y-13850984D01*
X9970182Y-13850984D02*
X10093991Y-13850984D01*
X10208277Y-13736698D02*
X10189229Y-13727174D01*
X10189229Y-13727174D02*
X10179706Y-13717650D01*
X10179706Y-13717650D02*
X10170182Y-13698603D01*
X10170182Y-13698603D02*
X10170182Y-13689079D01*
X10170182Y-13689079D02*
X10179706Y-13670031D01*
X10179706Y-13670031D02*
X10189229Y-13660508D01*
X10189229Y-13660508D02*
X10208277Y-13650984D01*
X10208277Y-13650984D02*
X10246372Y-13650984D01*
X10246372Y-13650984D02*
X10265420Y-13660508D01*
X10265420Y-13660508D02*
X10274944Y-13670031D01*
X10274944Y-13670031D02*
X10284468Y-13689079D01*
X10284468Y-13689079D02*
X10284468Y-13698603D01*
X10284468Y-13698603D02*
X10274944Y-13717650D01*
X10274944Y-13717650D02*
X10265420Y-13727174D01*
X10265420Y-13727174D02*
X10246372Y-13736698D01*
X10246372Y-13736698D02*
X10208277Y-13736698D01*
X10208277Y-13736698D02*
X10189229Y-13746222D01*
X10189229Y-13746222D02*
X10179706Y-13755746D01*
X10179706Y-13755746D02*
X10170182Y-13774793D01*
X10170182Y-13774793D02*
X10170182Y-13812888D01*
X10170182Y-13812888D02*
X10179706Y-13831936D01*
X10179706Y-13831936D02*
X10189229Y-13841460D01*
X10189229Y-13841460D02*
X10208277Y-13850984D01*
X10208277Y-13850984D02*
X10246372Y-13850984D01*
X10246372Y-13850984D02*
X10265420Y-13841460D01*
X10265420Y-13841460D02*
X10274944Y-13831936D01*
X10274944Y-13831936D02*
X10284468Y-13812888D01*
X10284468Y-13812888D02*
X10284468Y-13774793D01*
X10284468Y-13774793D02*
X10274944Y-13755746D01*
X10274944Y-13755746D02*
X10265420Y-13746222D01*
X10265420Y-13746222D02*
X10246372Y-13736698D01*
X10351134Y-13650984D02*
X10484468Y-13650984D01*
X10484468Y-13650984D02*
X10398753Y-13850984D01*
X10551134Y-13650984D02*
X10551134Y-13689079D01*
X10627325Y-13650984D02*
X10627325Y-13689079D01*
X10922563Y-13927174D02*
X10913039Y-13917650D01*
X10913039Y-13917650D02*
X10893991Y-13889079D01*
X10893991Y-13889079D02*
X10884468Y-13870031D01*
X10884468Y-13870031D02*
X10874944Y-13841460D01*
X10874944Y-13841460D02*
X10865420Y-13793841D01*
X10865420Y-13793841D02*
X10865420Y-13755746D01*
X10865420Y-13755746D02*
X10874944Y-13708127D01*
X10874944Y-13708127D02*
X10884468Y-13679555D01*
X10884468Y-13679555D02*
X10893991Y-13660508D01*
X10893991Y-13660508D02*
X10913039Y-13631936D01*
X10913039Y-13631936D02*
X10922563Y-13622412D01*
X11027325Y-13736698D02*
X11008277Y-13727174D01*
X11008277Y-13727174D02*
X10998753Y-13717650D01*
X10998753Y-13717650D02*
X10989230Y-13698603D01*
X10989230Y-13698603D02*
X10989230Y-13689079D01*
X10989230Y-13689079D02*
X10998753Y-13670031D01*
X10998753Y-13670031D02*
X11008277Y-13660508D01*
X11008277Y-13660508D02*
X11027325Y-13650984D01*
X11027325Y-13650984D02*
X11065420Y-13650984D01*
X11065420Y-13650984D02*
X11084468Y-13660508D01*
X11084468Y-13660508D02*
X11093991Y-13670031D01*
X11093991Y-13670031D02*
X11103515Y-13689079D01*
X11103515Y-13689079D02*
X11103515Y-13698603D01*
X11103515Y-13698603D02*
X11093991Y-13717650D01*
X11093991Y-13717650D02*
X11084468Y-13727174D01*
X11084468Y-13727174D02*
X11065420Y-13736698D01*
X11065420Y-13736698D02*
X11027325Y-13736698D01*
X11027325Y-13736698D02*
X11008277Y-13746222D01*
X11008277Y-13746222D02*
X10998753Y-13755746D01*
X10998753Y-13755746D02*
X10989230Y-13774793D01*
X10989230Y-13774793D02*
X10989230Y-13812888D01*
X10989230Y-13812888D02*
X10998753Y-13831936D01*
X10998753Y-13831936D02*
X11008277Y-13841460D01*
X11008277Y-13841460D02*
X11027325Y-13850984D01*
X11027325Y-13850984D02*
X11065420Y-13850984D01*
X11065420Y-13850984D02*
X11084468Y-13841460D01*
X11084468Y-13841460D02*
X11093991Y-13831936D01*
X11093991Y-13831936D02*
X11103515Y-13812888D01*
X11103515Y-13812888D02*
X11103515Y-13774793D01*
X11103515Y-13774793D02*
X11093991Y-13755746D01*
X11093991Y-13755746D02*
X11084468Y-13746222D01*
X11084468Y-13746222D02*
X11065420Y-13736698D01*
X11341610Y-13850984D02*
X11341610Y-13650984D01*
X11427325Y-13850984D02*
X11427325Y-13746222D01*
X11427325Y-13746222D02*
X11417801Y-13727174D01*
X11417801Y-13727174D02*
X11398753Y-13717650D01*
X11398753Y-13717650D02*
X11370182Y-13717650D01*
X11370182Y-13717650D02*
X11351134Y-13727174D01*
X11351134Y-13727174D02*
X11341610Y-13736698D01*
X11551134Y-13850984D02*
X11532087Y-13841460D01*
X11532087Y-13841460D02*
X11522563Y-13831936D01*
X11522563Y-13831936D02*
X11513039Y-13812888D01*
X11513039Y-13812888D02*
X11513039Y-13755746D01*
X11513039Y-13755746D02*
X11522563Y-13736698D01*
X11522563Y-13736698D02*
X11532087Y-13727174D01*
X11532087Y-13727174D02*
X11551134Y-13717650D01*
X11551134Y-13717650D02*
X11579706Y-13717650D01*
X11579706Y-13717650D02*
X11598753Y-13727174D01*
X11598753Y-13727174D02*
X11608277Y-13736698D01*
X11608277Y-13736698D02*
X11617801Y-13755746D01*
X11617801Y-13755746D02*
X11617801Y-13812888D01*
X11617801Y-13812888D02*
X11608277Y-13831936D01*
X11608277Y-13831936D02*
X11598753Y-13841460D01*
X11598753Y-13841460D02*
X11579706Y-13850984D01*
X11579706Y-13850984D02*
X11551134Y-13850984D01*
X11732087Y-13850984D02*
X11713039Y-13841460D01*
X11713039Y-13841460D02*
X11703515Y-13822412D01*
X11703515Y-13822412D02*
X11703515Y-13650984D01*
X11884468Y-13841460D02*
X11865420Y-13850984D01*
X11865420Y-13850984D02*
X11827325Y-13850984D01*
X11827325Y-13850984D02*
X11808277Y-13841460D01*
X11808277Y-13841460D02*
X11798753Y-13822412D01*
X11798753Y-13822412D02*
X11798753Y-13746222D01*
X11798753Y-13746222D02*
X11808277Y-13727174D01*
X11808277Y-13727174D02*
X11827325Y-13717650D01*
X11827325Y-13717650D02*
X11865420Y-13717650D01*
X11865420Y-13717650D02*
X11884468Y-13727174D01*
X11884468Y-13727174D02*
X11893991Y-13746222D01*
X11893991Y-13746222D02*
X11893991Y-13765269D01*
X11893991Y-13765269D02*
X11798753Y-13784317D01*
X11970182Y-13841460D02*
X11989230Y-13850984D01*
X11989230Y-13850984D02*
X12027325Y-13850984D01*
X12027325Y-13850984D02*
X12046372Y-13841460D01*
X12046372Y-13841460D02*
X12055896Y-13822412D01*
X12055896Y-13822412D02*
X12055896Y-13812888D01*
X12055896Y-13812888D02*
X12046372Y-13793841D01*
X12046372Y-13793841D02*
X12027325Y-13784317D01*
X12027325Y-13784317D02*
X11998753Y-13784317D01*
X11998753Y-13784317D02*
X11979706Y-13774793D01*
X11979706Y-13774793D02*
X11970182Y-13755746D01*
X11970182Y-13755746D02*
X11970182Y-13746222D01*
X11970182Y-13746222D02*
X11979706Y-13727174D01*
X11979706Y-13727174D02*
X11998753Y-13717650D01*
X11998753Y-13717650D02*
X12027325Y-13717650D01*
X12027325Y-13717650D02*
X12046372Y-13727174D01*
X12122563Y-13927174D02*
X12132087Y-13917650D01*
X12132087Y-13917650D02*
X12151134Y-13889079D01*
X12151134Y-13889079D02*
X12160658Y-13870031D01*
X12160658Y-13870031D02*
X12170182Y-13841460D01*
X12170182Y-13841460D02*
X12179706Y-13793841D01*
X12179706Y-13793841D02*
X12179706Y-13755746D01*
X12179706Y-13755746D02*
X12170182Y-13708127D01*
X12170182Y-13708127D02*
X12160658Y-13679555D01*
X12160658Y-13679555D02*
X12151134Y-13660508D01*
X12151134Y-13660508D02*
X12132087Y-13631936D01*
X12132087Y-13631936D02*
X12122563Y-13622412D01*
D12*
X7307500Y-14063500D02*
X7347500Y-14023500D01*
X7307500Y-13983500D01*
X7267500Y-14023500D01*
X7307500Y-14063500D01*
D11*
X7646372Y-13914984D02*
X7665420Y-13914984D01*
X7665420Y-13914984D02*
X7684467Y-13924508D01*
X7684467Y-13924508D02*
X7693991Y-13934031D01*
X7693991Y-13934031D02*
X7703515Y-13953079D01*
X7703515Y-13953079D02*
X7713039Y-13991174D01*
X7713039Y-13991174D02*
X7713039Y-14038793D01*
X7713039Y-14038793D02*
X7703515Y-14076888D01*
X7703515Y-14076888D02*
X7693991Y-14095936D01*
X7693991Y-14095936D02*
X7684467Y-14105460D01*
X7684467Y-14105460D02*
X7665420Y-14114984D01*
X7665420Y-14114984D02*
X7646372Y-14114984D01*
X7646372Y-14114984D02*
X7627324Y-14105460D01*
X7627324Y-14105460D02*
X7617801Y-14095936D01*
X7617801Y-14095936D02*
X7608277Y-14076888D01*
X7608277Y-14076888D02*
X7598753Y-14038793D01*
X7598753Y-14038793D02*
X7598753Y-13991174D01*
X7598753Y-13991174D02*
X7608277Y-13953079D01*
X7608277Y-13953079D02*
X7617801Y-13934031D01*
X7617801Y-13934031D02*
X7627324Y-13924508D01*
X7627324Y-13924508D02*
X7646372Y-13914984D01*
X7798753Y-14095936D02*
X7808277Y-14105460D01*
X7808277Y-14105460D02*
X7798753Y-14114984D01*
X7798753Y-14114984D02*
X7789229Y-14105460D01*
X7789229Y-14105460D02*
X7798753Y-14095936D01*
X7798753Y-14095936D02*
X7798753Y-14114984D01*
X7922562Y-14000698D02*
X7903515Y-13991174D01*
X7903515Y-13991174D02*
X7893991Y-13981650D01*
X7893991Y-13981650D02*
X7884467Y-13962603D01*
X7884467Y-13962603D02*
X7884467Y-13953079D01*
X7884467Y-13953079D02*
X7893991Y-13934031D01*
X7893991Y-13934031D02*
X7903515Y-13924508D01*
X7903515Y-13924508D02*
X7922562Y-13914984D01*
X7922562Y-13914984D02*
X7960658Y-13914984D01*
X7960658Y-13914984D02*
X7979705Y-13924508D01*
X7979705Y-13924508D02*
X7989229Y-13934031D01*
X7989229Y-13934031D02*
X7998753Y-13953079D01*
X7998753Y-13953079D02*
X7998753Y-13962603D01*
X7998753Y-13962603D02*
X7989229Y-13981650D01*
X7989229Y-13981650D02*
X7979705Y-13991174D01*
X7979705Y-13991174D02*
X7960658Y-14000698D01*
X7960658Y-14000698D02*
X7922562Y-14000698D01*
X7922562Y-14000698D02*
X7903515Y-14010222D01*
X7903515Y-14010222D02*
X7893991Y-14019746D01*
X7893991Y-14019746D02*
X7884467Y-14038793D01*
X7884467Y-14038793D02*
X7884467Y-14076888D01*
X7884467Y-14076888D02*
X7893991Y-14095936D01*
X7893991Y-14095936D02*
X7903515Y-14105460D01*
X7903515Y-14105460D02*
X7922562Y-14114984D01*
X7922562Y-14114984D02*
X7960658Y-14114984D01*
X7960658Y-14114984D02*
X7979705Y-14105460D01*
X7979705Y-14105460D02*
X7989229Y-14095936D01*
X7989229Y-14095936D02*
X7998753Y-14076888D01*
X7998753Y-14076888D02*
X7998753Y-14038793D01*
X7998753Y-14038793D02*
X7989229Y-14019746D01*
X7989229Y-14019746D02*
X7979705Y-14010222D01*
X7979705Y-14010222D02*
X7960658Y-14000698D01*
X8122562Y-13914984D02*
X8141610Y-13914984D01*
X8141610Y-13914984D02*
X8160658Y-13924508D01*
X8160658Y-13924508D02*
X8170182Y-13934031D01*
X8170182Y-13934031D02*
X8179705Y-13953079D01*
X8179705Y-13953079D02*
X8189229Y-13991174D01*
X8189229Y-13991174D02*
X8189229Y-14038793D01*
X8189229Y-14038793D02*
X8179705Y-14076888D01*
X8179705Y-14076888D02*
X8170182Y-14095936D01*
X8170182Y-14095936D02*
X8160658Y-14105460D01*
X8160658Y-14105460D02*
X8141610Y-14114984D01*
X8141610Y-14114984D02*
X8122562Y-14114984D01*
X8122562Y-14114984D02*
X8103515Y-14105460D01*
X8103515Y-14105460D02*
X8093991Y-14095936D01*
X8093991Y-14095936D02*
X8084467Y-14076888D01*
X8084467Y-14076888D02*
X8074943Y-14038793D01*
X8074943Y-14038793D02*
X8074943Y-13991174D01*
X8074943Y-13991174D02*
X8084467Y-13953079D01*
X8084467Y-13953079D02*
X8093991Y-13934031D01*
X8093991Y-13934031D02*
X8103515Y-13924508D01*
X8103515Y-13924508D02*
X8122562Y-13914984D01*
X8313039Y-13914984D02*
X8332086Y-13914984D01*
X8332086Y-13914984D02*
X8351134Y-13924508D01*
X8351134Y-13924508D02*
X8360658Y-13934031D01*
X8360658Y-13934031D02*
X8370182Y-13953079D01*
X8370182Y-13953079D02*
X8379705Y-13991174D01*
X8379705Y-13991174D02*
X8379705Y-14038793D01*
X8379705Y-14038793D02*
X8370182Y-14076888D01*
X8370182Y-14076888D02*
X8360658Y-14095936D01*
X8360658Y-14095936D02*
X8351134Y-14105460D01*
X8351134Y-14105460D02*
X8332086Y-14114984D01*
X8332086Y-14114984D02*
X8313039Y-14114984D01*
X8313039Y-14114984D02*
X8293991Y-14105460D01*
X8293991Y-14105460D02*
X8284467Y-14095936D01*
X8284467Y-14095936D02*
X8274943Y-14076888D01*
X8274943Y-14076888D02*
X8265420Y-14038793D01*
X8265420Y-14038793D02*
X8265420Y-13991174D01*
X8265420Y-13991174D02*
X8274943Y-13953079D01*
X8274943Y-13953079D02*
X8284467Y-13934031D01*
X8284467Y-13934031D02*
X8293991Y-13924508D01*
X8293991Y-13924508D02*
X8313039Y-13914984D01*
X8465420Y-14114984D02*
X8465420Y-13981650D01*
X8465420Y-14000698D02*
X8474944Y-13991174D01*
X8474944Y-13991174D02*
X8493991Y-13981650D01*
X8493991Y-13981650D02*
X8522563Y-13981650D01*
X8522563Y-13981650D02*
X8541610Y-13991174D01*
X8541610Y-13991174D02*
X8551134Y-14010222D01*
X8551134Y-14010222D02*
X8551134Y-14114984D01*
X8551134Y-14010222D02*
X8560658Y-13991174D01*
X8560658Y-13991174D02*
X8579705Y-13981650D01*
X8579705Y-13981650D02*
X8608277Y-13981650D01*
X8608277Y-13981650D02*
X8627325Y-13991174D01*
X8627325Y-13991174D02*
X8636848Y-14010222D01*
X8636848Y-14010222D02*
X8636848Y-14114984D01*
X8732086Y-14114984D02*
X8732086Y-13981650D01*
X8732086Y-14000698D02*
X8741610Y-13991174D01*
X8741610Y-13991174D02*
X8760658Y-13981650D01*
X8760658Y-13981650D02*
X8789229Y-13981650D01*
X8789229Y-13981650D02*
X8808277Y-13991174D01*
X8808277Y-13991174D02*
X8817801Y-14010222D01*
X8817801Y-14010222D02*
X8817801Y-14114984D01*
X8817801Y-14010222D02*
X8827325Y-13991174D01*
X8827325Y-13991174D02*
X8846372Y-13981650D01*
X8846372Y-13981650D02*
X8874944Y-13981650D01*
X8874944Y-13981650D02*
X8893991Y-13991174D01*
X8893991Y-13991174D02*
X8903515Y-14010222D01*
X8903515Y-14010222D02*
X8903515Y-14114984D01*
X9293991Y-13905460D02*
X9122563Y-14162603D01*
X9551134Y-13914984D02*
X9570182Y-13914984D01*
X9570182Y-13914984D02*
X9589229Y-13924508D01*
X9589229Y-13924508D02*
X9598753Y-13934031D01*
X9598753Y-13934031D02*
X9608277Y-13953079D01*
X9608277Y-13953079D02*
X9617801Y-13991174D01*
X9617801Y-13991174D02*
X9617801Y-14038793D01*
X9617801Y-14038793D02*
X9608277Y-14076888D01*
X9608277Y-14076888D02*
X9598753Y-14095936D01*
X9598753Y-14095936D02*
X9589229Y-14105460D01*
X9589229Y-14105460D02*
X9570182Y-14114984D01*
X9570182Y-14114984D02*
X9551134Y-14114984D01*
X9551134Y-14114984D02*
X9532087Y-14105460D01*
X9532087Y-14105460D02*
X9522563Y-14095936D01*
X9522563Y-14095936D02*
X9513039Y-14076888D01*
X9513039Y-14076888D02*
X9503515Y-14038793D01*
X9503515Y-14038793D02*
X9503515Y-13991174D01*
X9503515Y-13991174D02*
X9513039Y-13953079D01*
X9513039Y-13953079D02*
X9522563Y-13934031D01*
X9522563Y-13934031D02*
X9532087Y-13924508D01*
X9532087Y-13924508D02*
X9551134Y-13914984D01*
X9703515Y-14095936D02*
X9713039Y-14105460D01*
X9713039Y-14105460D02*
X9703515Y-14114984D01*
X9703515Y-14114984D02*
X9693991Y-14105460D01*
X9693991Y-14105460D02*
X9703515Y-14095936D01*
X9703515Y-14095936D02*
X9703515Y-14114984D01*
X9836848Y-13914984D02*
X9855896Y-13914984D01*
X9855896Y-13914984D02*
X9874944Y-13924508D01*
X9874944Y-13924508D02*
X9884468Y-13934031D01*
X9884468Y-13934031D02*
X9893991Y-13953079D01*
X9893991Y-13953079D02*
X9903515Y-13991174D01*
X9903515Y-13991174D02*
X9903515Y-14038793D01*
X9903515Y-14038793D02*
X9893991Y-14076888D01*
X9893991Y-14076888D02*
X9884468Y-14095936D01*
X9884468Y-14095936D02*
X9874944Y-14105460D01*
X9874944Y-14105460D02*
X9855896Y-14114984D01*
X9855896Y-14114984D02*
X9836848Y-14114984D01*
X9836848Y-14114984D02*
X9817801Y-14105460D01*
X9817801Y-14105460D02*
X9808277Y-14095936D01*
X9808277Y-14095936D02*
X9798753Y-14076888D01*
X9798753Y-14076888D02*
X9789229Y-14038793D01*
X9789229Y-14038793D02*
X9789229Y-13991174D01*
X9789229Y-13991174D02*
X9798753Y-13953079D01*
X9798753Y-13953079D02*
X9808277Y-13934031D01*
X9808277Y-13934031D02*
X9817801Y-13924508D01*
X9817801Y-13924508D02*
X9836848Y-13914984D01*
X9970182Y-13914984D02*
X10093991Y-13914984D01*
X10093991Y-13914984D02*
X10027325Y-13991174D01*
X10027325Y-13991174D02*
X10055896Y-13991174D01*
X10055896Y-13991174D02*
X10074944Y-14000698D01*
X10074944Y-14000698D02*
X10084468Y-14010222D01*
X10084468Y-14010222D02*
X10093991Y-14029269D01*
X10093991Y-14029269D02*
X10093991Y-14076888D01*
X10093991Y-14076888D02*
X10084468Y-14095936D01*
X10084468Y-14095936D02*
X10074944Y-14105460D01*
X10074944Y-14105460D02*
X10055896Y-14114984D01*
X10055896Y-14114984D02*
X9998753Y-14114984D01*
X9998753Y-14114984D02*
X9979706Y-14105460D01*
X9979706Y-14105460D02*
X9970182Y-14095936D01*
X10284468Y-14114984D02*
X10170182Y-14114984D01*
X10227325Y-14114984D02*
X10227325Y-13914984D01*
X10227325Y-13914984D02*
X10208277Y-13943555D01*
X10208277Y-13943555D02*
X10189229Y-13962603D01*
X10189229Y-13962603D02*
X10170182Y-13972127D01*
X10465420Y-13914984D02*
X10370182Y-13914984D01*
X10370182Y-13914984D02*
X10360658Y-14010222D01*
X10360658Y-14010222D02*
X10370182Y-14000698D01*
X10370182Y-14000698D02*
X10389229Y-13991174D01*
X10389229Y-13991174D02*
X10436849Y-13991174D01*
X10436849Y-13991174D02*
X10455896Y-14000698D01*
X10455896Y-14000698D02*
X10465420Y-14010222D01*
X10465420Y-14010222D02*
X10474944Y-14029269D01*
X10474944Y-14029269D02*
X10474944Y-14076888D01*
X10474944Y-14076888D02*
X10465420Y-14095936D01*
X10465420Y-14095936D02*
X10455896Y-14105460D01*
X10455896Y-14105460D02*
X10436849Y-14114984D01*
X10436849Y-14114984D02*
X10389229Y-14114984D01*
X10389229Y-14114984D02*
X10370182Y-14105460D01*
X10370182Y-14105460D02*
X10360658Y-14095936D01*
X10551134Y-13914984D02*
X10551134Y-13953079D01*
X10627325Y-13914984D02*
X10627325Y-13953079D01*
X10922563Y-14191174D02*
X10913039Y-14181650D01*
X10913039Y-14181650D02*
X10893991Y-14153079D01*
X10893991Y-14153079D02*
X10884468Y-14134031D01*
X10884468Y-14134031D02*
X10874944Y-14105460D01*
X10874944Y-14105460D02*
X10865420Y-14057841D01*
X10865420Y-14057841D02*
X10865420Y-14019746D01*
X10865420Y-14019746D02*
X10874944Y-13972127D01*
X10874944Y-13972127D02*
X10884468Y-13943555D01*
X10884468Y-13943555D02*
X10893991Y-13924508D01*
X10893991Y-13924508D02*
X10913039Y-13895936D01*
X10913039Y-13895936D02*
X10922563Y-13886412D01*
X11103515Y-14114984D02*
X10989230Y-14114984D01*
X11046372Y-14114984D02*
X11046372Y-13914984D01*
X11046372Y-13914984D02*
X11027325Y-13943555D01*
X11027325Y-13943555D02*
X11008277Y-13962603D01*
X11008277Y-13962603D02*
X10989230Y-13972127D01*
X11198753Y-14114984D02*
X11236848Y-14114984D01*
X11236848Y-14114984D02*
X11255896Y-14105460D01*
X11255896Y-14105460D02*
X11265420Y-14095936D01*
X11265420Y-14095936D02*
X11284468Y-14067365D01*
X11284468Y-14067365D02*
X11293991Y-14029269D01*
X11293991Y-14029269D02*
X11293991Y-13953079D01*
X11293991Y-13953079D02*
X11284468Y-13934031D01*
X11284468Y-13934031D02*
X11274944Y-13924508D01*
X11274944Y-13924508D02*
X11255896Y-13914984D01*
X11255896Y-13914984D02*
X11217801Y-13914984D01*
X11217801Y-13914984D02*
X11198753Y-13924508D01*
X11198753Y-13924508D02*
X11189229Y-13934031D01*
X11189229Y-13934031D02*
X11179706Y-13953079D01*
X11179706Y-13953079D02*
X11179706Y-14000698D01*
X11179706Y-14000698D02*
X11189229Y-14019746D01*
X11189229Y-14019746D02*
X11198753Y-14029269D01*
X11198753Y-14029269D02*
X11217801Y-14038793D01*
X11217801Y-14038793D02*
X11255896Y-14038793D01*
X11255896Y-14038793D02*
X11274944Y-14029269D01*
X11274944Y-14029269D02*
X11284468Y-14019746D01*
X11284468Y-14019746D02*
X11293991Y-14000698D01*
X11532087Y-14114984D02*
X11532087Y-13914984D01*
X11617801Y-14114984D02*
X11617801Y-14010222D01*
X11617801Y-14010222D02*
X11608277Y-13991174D01*
X11608277Y-13991174D02*
X11589230Y-13981650D01*
X11589230Y-13981650D02*
X11560658Y-13981650D01*
X11560658Y-13981650D02*
X11541610Y-13991174D01*
X11541610Y-13991174D02*
X11532087Y-14000698D01*
X11741610Y-14114984D02*
X11722563Y-14105460D01*
X11722563Y-14105460D02*
X11713039Y-14095936D01*
X11713039Y-14095936D02*
X11703515Y-14076888D01*
X11703515Y-14076888D02*
X11703515Y-14019746D01*
X11703515Y-14019746D02*
X11713039Y-14000698D01*
X11713039Y-14000698D02*
X11722563Y-13991174D01*
X11722563Y-13991174D02*
X11741610Y-13981650D01*
X11741610Y-13981650D02*
X11770182Y-13981650D01*
X11770182Y-13981650D02*
X11789230Y-13991174D01*
X11789230Y-13991174D02*
X11798753Y-14000698D01*
X11798753Y-14000698D02*
X11808277Y-14019746D01*
X11808277Y-14019746D02*
X11808277Y-14076888D01*
X11808277Y-14076888D02*
X11798753Y-14095936D01*
X11798753Y-14095936D02*
X11789230Y-14105460D01*
X11789230Y-14105460D02*
X11770182Y-14114984D01*
X11770182Y-14114984D02*
X11741610Y-14114984D01*
X11922563Y-14114984D02*
X11903515Y-14105460D01*
X11903515Y-14105460D02*
X11893991Y-14086412D01*
X11893991Y-14086412D02*
X11893991Y-13914984D01*
X12074944Y-14105460D02*
X12055896Y-14114984D01*
X12055896Y-14114984D02*
X12017801Y-14114984D01*
X12017801Y-14114984D02*
X11998753Y-14105460D01*
X11998753Y-14105460D02*
X11989230Y-14086412D01*
X11989230Y-14086412D02*
X11989230Y-14010222D01*
X11989230Y-14010222D02*
X11998753Y-13991174D01*
X11998753Y-13991174D02*
X12017801Y-13981650D01*
X12017801Y-13981650D02*
X12055896Y-13981650D01*
X12055896Y-13981650D02*
X12074944Y-13991174D01*
X12074944Y-13991174D02*
X12084468Y-14010222D01*
X12084468Y-14010222D02*
X12084468Y-14029269D01*
X12084468Y-14029269D02*
X11989230Y-14048317D01*
X12160658Y-14105460D02*
X12179706Y-14114984D01*
X12179706Y-14114984D02*
X12217801Y-14114984D01*
X12217801Y-14114984D02*
X12236849Y-14105460D01*
X12236849Y-14105460D02*
X12246372Y-14086412D01*
X12246372Y-14086412D02*
X12246372Y-14076888D01*
X12246372Y-14076888D02*
X12236849Y-14057841D01*
X12236849Y-14057841D02*
X12217801Y-14048317D01*
X12217801Y-14048317D02*
X12189230Y-14048317D01*
X12189230Y-14048317D02*
X12170182Y-14038793D01*
X12170182Y-14038793D02*
X12160658Y-14019746D01*
X12160658Y-14019746D02*
X12160658Y-14010222D01*
X12160658Y-14010222D02*
X12170182Y-13991174D01*
X12170182Y-13991174D02*
X12189230Y-13981650D01*
X12189230Y-13981650D02*
X12217801Y-13981650D01*
X12217801Y-13981650D02*
X12236849Y-13991174D01*
X12313039Y-14191174D02*
X12322563Y-14181650D01*
X12322563Y-14181650D02*
X12341611Y-14153079D01*
X12341611Y-14153079D02*
X12351134Y-14134031D01*
X12351134Y-14134031D02*
X12360658Y-14105460D01*
X12360658Y-14105460D02*
X12370182Y-14057841D01*
X12370182Y-14057841D02*
X12370182Y-14019746D01*
X12370182Y-14019746D02*
X12360658Y-13972127D01*
X12360658Y-13972127D02*
X12351134Y-13943555D01*
X12351134Y-13943555D02*
X12341611Y-13924508D01*
X12341611Y-13924508D02*
X12322563Y-13895936D01*
X12322563Y-13895936D02*
X12313039Y-13886412D01*
D12*
X7247500Y-14237500D02*
X7347500Y-14337500D01*
X7347500Y-14237500D02*
X7247500Y-14337500D01*
X7347500Y-14287500D02*
G75*
G02*
X7247500Y-14287500I-50000J0D01*
G01*
X7247500Y-14287500D02*
G75*
G02*
X7347500Y-14287500I50000J0D01*
G01*
D11*
X7713039Y-14378984D02*
X7598753Y-14378984D01*
X7655896Y-14378984D02*
X7655896Y-14178984D01*
X7655896Y-14178984D02*
X7636848Y-14207555D01*
X7636848Y-14207555D02*
X7617801Y-14226603D01*
X7617801Y-14226603D02*
X7598753Y-14236127D01*
X7798753Y-14359936D02*
X7808277Y-14369460D01*
X7808277Y-14369460D02*
X7798753Y-14378984D01*
X7798753Y-14378984D02*
X7789229Y-14369460D01*
X7789229Y-14369460D02*
X7798753Y-14359936D01*
X7798753Y-14359936D02*
X7798753Y-14378984D01*
X7932086Y-14178984D02*
X7951134Y-14178984D01*
X7951134Y-14178984D02*
X7970182Y-14188508D01*
X7970182Y-14188508D02*
X7979705Y-14198031D01*
X7979705Y-14198031D02*
X7989229Y-14217079D01*
X7989229Y-14217079D02*
X7998753Y-14255174D01*
X7998753Y-14255174D02*
X7998753Y-14302793D01*
X7998753Y-14302793D02*
X7989229Y-14340888D01*
X7989229Y-14340888D02*
X7979705Y-14359936D01*
X7979705Y-14359936D02*
X7970182Y-14369460D01*
X7970182Y-14369460D02*
X7951134Y-14378984D01*
X7951134Y-14378984D02*
X7932086Y-14378984D01*
X7932086Y-14378984D02*
X7913039Y-14369460D01*
X7913039Y-14369460D02*
X7903515Y-14359936D01*
X7903515Y-14359936D02*
X7893991Y-14340888D01*
X7893991Y-14340888D02*
X7884467Y-14302793D01*
X7884467Y-14302793D02*
X7884467Y-14255174D01*
X7884467Y-14255174D02*
X7893991Y-14217079D01*
X7893991Y-14217079D02*
X7903515Y-14198031D01*
X7903515Y-14198031D02*
X7913039Y-14188508D01*
X7913039Y-14188508D02*
X7932086Y-14178984D01*
X8122562Y-14178984D02*
X8141610Y-14178984D01*
X8141610Y-14178984D02*
X8160658Y-14188508D01*
X8160658Y-14188508D02*
X8170182Y-14198031D01*
X8170182Y-14198031D02*
X8179705Y-14217079D01*
X8179705Y-14217079D02*
X8189229Y-14255174D01*
X8189229Y-14255174D02*
X8189229Y-14302793D01*
X8189229Y-14302793D02*
X8179705Y-14340888D01*
X8179705Y-14340888D02*
X8170182Y-14359936D01*
X8170182Y-14359936D02*
X8160658Y-14369460D01*
X8160658Y-14369460D02*
X8141610Y-14378984D01*
X8141610Y-14378984D02*
X8122562Y-14378984D01*
X8122562Y-14378984D02*
X8103515Y-14369460D01*
X8103515Y-14369460D02*
X8093991Y-14359936D01*
X8093991Y-14359936D02*
X8084467Y-14340888D01*
X8084467Y-14340888D02*
X8074943Y-14302793D01*
X8074943Y-14302793D02*
X8074943Y-14255174D01*
X8074943Y-14255174D02*
X8084467Y-14217079D01*
X8084467Y-14217079D02*
X8093991Y-14198031D01*
X8093991Y-14198031D02*
X8103515Y-14188508D01*
X8103515Y-14188508D02*
X8122562Y-14178984D01*
X8313039Y-14178984D02*
X8332086Y-14178984D01*
X8332086Y-14178984D02*
X8351134Y-14188508D01*
X8351134Y-14188508D02*
X8360658Y-14198031D01*
X8360658Y-14198031D02*
X8370182Y-14217079D01*
X8370182Y-14217079D02*
X8379705Y-14255174D01*
X8379705Y-14255174D02*
X8379705Y-14302793D01*
X8379705Y-14302793D02*
X8370182Y-14340888D01*
X8370182Y-14340888D02*
X8360658Y-14359936D01*
X8360658Y-14359936D02*
X8351134Y-14369460D01*
X8351134Y-14369460D02*
X8332086Y-14378984D01*
X8332086Y-14378984D02*
X8313039Y-14378984D01*
X8313039Y-14378984D02*
X8293991Y-14369460D01*
X8293991Y-14369460D02*
X8284467Y-14359936D01*
X8284467Y-14359936D02*
X8274943Y-14340888D01*
X8274943Y-14340888D02*
X8265420Y-14302793D01*
X8265420Y-14302793D02*
X8265420Y-14255174D01*
X8265420Y-14255174D02*
X8274943Y-14217079D01*
X8274943Y-14217079D02*
X8284467Y-14198031D01*
X8284467Y-14198031D02*
X8293991Y-14188508D01*
X8293991Y-14188508D02*
X8313039Y-14178984D01*
X8465420Y-14378984D02*
X8465420Y-14245650D01*
X8465420Y-14264698D02*
X8474944Y-14255174D01*
X8474944Y-14255174D02*
X8493991Y-14245650D01*
X8493991Y-14245650D02*
X8522563Y-14245650D01*
X8522563Y-14245650D02*
X8541610Y-14255174D01*
X8541610Y-14255174D02*
X8551134Y-14274222D01*
X8551134Y-14274222D02*
X8551134Y-14378984D01*
X8551134Y-14274222D02*
X8560658Y-14255174D01*
X8560658Y-14255174D02*
X8579705Y-14245650D01*
X8579705Y-14245650D02*
X8608277Y-14245650D01*
X8608277Y-14245650D02*
X8627325Y-14255174D01*
X8627325Y-14255174D02*
X8636848Y-14274222D01*
X8636848Y-14274222D02*
X8636848Y-14378984D01*
X8732086Y-14378984D02*
X8732086Y-14245650D01*
X8732086Y-14264698D02*
X8741610Y-14255174D01*
X8741610Y-14255174D02*
X8760658Y-14245650D01*
X8760658Y-14245650D02*
X8789229Y-14245650D01*
X8789229Y-14245650D02*
X8808277Y-14255174D01*
X8808277Y-14255174D02*
X8817801Y-14274222D01*
X8817801Y-14274222D02*
X8817801Y-14378984D01*
X8817801Y-14274222D02*
X8827325Y-14255174D01*
X8827325Y-14255174D02*
X8846372Y-14245650D01*
X8846372Y-14245650D02*
X8874944Y-14245650D01*
X8874944Y-14245650D02*
X8893991Y-14255174D01*
X8893991Y-14255174D02*
X8903515Y-14274222D01*
X8903515Y-14274222D02*
X8903515Y-14378984D01*
X9293991Y-14169460D02*
X9122563Y-14426603D01*
X9551134Y-14178984D02*
X9570182Y-14178984D01*
X9570182Y-14178984D02*
X9589229Y-14188508D01*
X9589229Y-14188508D02*
X9598753Y-14198031D01*
X9598753Y-14198031D02*
X9608277Y-14217079D01*
X9608277Y-14217079D02*
X9617801Y-14255174D01*
X9617801Y-14255174D02*
X9617801Y-14302793D01*
X9617801Y-14302793D02*
X9608277Y-14340888D01*
X9608277Y-14340888D02*
X9598753Y-14359936D01*
X9598753Y-14359936D02*
X9589229Y-14369460D01*
X9589229Y-14369460D02*
X9570182Y-14378984D01*
X9570182Y-14378984D02*
X9551134Y-14378984D01*
X9551134Y-14378984D02*
X9532087Y-14369460D01*
X9532087Y-14369460D02*
X9522563Y-14359936D01*
X9522563Y-14359936D02*
X9513039Y-14340888D01*
X9513039Y-14340888D02*
X9503515Y-14302793D01*
X9503515Y-14302793D02*
X9503515Y-14255174D01*
X9503515Y-14255174D02*
X9513039Y-14217079D01*
X9513039Y-14217079D02*
X9522563Y-14198031D01*
X9522563Y-14198031D02*
X9532087Y-14188508D01*
X9532087Y-14188508D02*
X9551134Y-14178984D01*
X9703515Y-14359936D02*
X9713039Y-14369460D01*
X9713039Y-14369460D02*
X9703515Y-14378984D01*
X9703515Y-14378984D02*
X9693991Y-14369460D01*
X9693991Y-14369460D02*
X9703515Y-14359936D01*
X9703515Y-14359936D02*
X9703515Y-14378984D01*
X9836848Y-14178984D02*
X9855896Y-14178984D01*
X9855896Y-14178984D02*
X9874944Y-14188508D01*
X9874944Y-14188508D02*
X9884468Y-14198031D01*
X9884468Y-14198031D02*
X9893991Y-14217079D01*
X9893991Y-14217079D02*
X9903515Y-14255174D01*
X9903515Y-14255174D02*
X9903515Y-14302793D01*
X9903515Y-14302793D02*
X9893991Y-14340888D01*
X9893991Y-14340888D02*
X9884468Y-14359936D01*
X9884468Y-14359936D02*
X9874944Y-14369460D01*
X9874944Y-14369460D02*
X9855896Y-14378984D01*
X9855896Y-14378984D02*
X9836848Y-14378984D01*
X9836848Y-14378984D02*
X9817801Y-14369460D01*
X9817801Y-14369460D02*
X9808277Y-14359936D01*
X9808277Y-14359936D02*
X9798753Y-14340888D01*
X9798753Y-14340888D02*
X9789229Y-14302793D01*
X9789229Y-14302793D02*
X9789229Y-14255174D01*
X9789229Y-14255174D02*
X9798753Y-14217079D01*
X9798753Y-14217079D02*
X9808277Y-14198031D01*
X9808277Y-14198031D02*
X9817801Y-14188508D01*
X9817801Y-14188508D02*
X9836848Y-14178984D01*
X9970182Y-14178984D02*
X10093991Y-14178984D01*
X10093991Y-14178984D02*
X10027325Y-14255174D01*
X10027325Y-14255174D02*
X10055896Y-14255174D01*
X10055896Y-14255174D02*
X10074944Y-14264698D01*
X10074944Y-14264698D02*
X10084468Y-14274222D01*
X10084468Y-14274222D02*
X10093991Y-14293269D01*
X10093991Y-14293269D02*
X10093991Y-14340888D01*
X10093991Y-14340888D02*
X10084468Y-14359936D01*
X10084468Y-14359936D02*
X10074944Y-14369460D01*
X10074944Y-14369460D02*
X10055896Y-14378984D01*
X10055896Y-14378984D02*
X9998753Y-14378984D01*
X9998753Y-14378984D02*
X9979706Y-14369460D01*
X9979706Y-14369460D02*
X9970182Y-14359936D01*
X10189229Y-14378984D02*
X10227325Y-14378984D01*
X10227325Y-14378984D02*
X10246372Y-14369460D01*
X10246372Y-14369460D02*
X10255896Y-14359936D01*
X10255896Y-14359936D02*
X10274944Y-14331365D01*
X10274944Y-14331365D02*
X10284468Y-14293269D01*
X10284468Y-14293269D02*
X10284468Y-14217079D01*
X10284468Y-14217079D02*
X10274944Y-14198031D01*
X10274944Y-14198031D02*
X10265420Y-14188508D01*
X10265420Y-14188508D02*
X10246372Y-14178984D01*
X10246372Y-14178984D02*
X10208277Y-14178984D01*
X10208277Y-14178984D02*
X10189229Y-14188508D01*
X10189229Y-14188508D02*
X10179706Y-14198031D01*
X10179706Y-14198031D02*
X10170182Y-14217079D01*
X10170182Y-14217079D02*
X10170182Y-14264698D01*
X10170182Y-14264698D02*
X10179706Y-14283746D01*
X10179706Y-14283746D02*
X10189229Y-14293269D01*
X10189229Y-14293269D02*
X10208277Y-14302793D01*
X10208277Y-14302793D02*
X10246372Y-14302793D01*
X10246372Y-14302793D02*
X10265420Y-14293269D01*
X10265420Y-14293269D02*
X10274944Y-14283746D01*
X10274944Y-14283746D02*
X10284468Y-14264698D01*
X10455896Y-14245650D02*
X10455896Y-14378984D01*
X10408277Y-14169460D02*
X10360658Y-14312317D01*
X10360658Y-14312317D02*
X10484468Y-14312317D01*
X10551134Y-14178984D02*
X10551134Y-14217079D01*
X10627325Y-14178984D02*
X10627325Y-14217079D01*
X10922563Y-14455174D02*
X10913039Y-14445650D01*
X10913039Y-14445650D02*
X10893991Y-14417079D01*
X10893991Y-14417079D02*
X10884468Y-14398031D01*
X10884468Y-14398031D02*
X10874944Y-14369460D01*
X10874944Y-14369460D02*
X10865420Y-14321841D01*
X10865420Y-14321841D02*
X10865420Y-14283746D01*
X10865420Y-14283746D02*
X10874944Y-14236127D01*
X10874944Y-14236127D02*
X10884468Y-14207555D01*
X10884468Y-14207555D02*
X10893991Y-14188508D01*
X10893991Y-14188508D02*
X10913039Y-14159936D01*
X10913039Y-14159936D02*
X10922563Y-14150412D01*
X11084468Y-14245650D02*
X11084468Y-14378984D01*
X11036849Y-14169460D02*
X10989230Y-14312317D01*
X10989230Y-14312317D02*
X11113039Y-14312317D01*
X11227325Y-14178984D02*
X11246372Y-14178984D01*
X11246372Y-14178984D02*
X11265420Y-14188508D01*
X11265420Y-14188508D02*
X11274944Y-14198031D01*
X11274944Y-14198031D02*
X11284468Y-14217079D01*
X11284468Y-14217079D02*
X11293991Y-14255174D01*
X11293991Y-14255174D02*
X11293991Y-14302793D01*
X11293991Y-14302793D02*
X11284468Y-14340888D01*
X11284468Y-14340888D02*
X11274944Y-14359936D01*
X11274944Y-14359936D02*
X11265420Y-14369460D01*
X11265420Y-14369460D02*
X11246372Y-14378984D01*
X11246372Y-14378984D02*
X11227325Y-14378984D01*
X11227325Y-14378984D02*
X11208277Y-14369460D01*
X11208277Y-14369460D02*
X11198753Y-14359936D01*
X11198753Y-14359936D02*
X11189229Y-14340888D01*
X11189229Y-14340888D02*
X11179706Y-14302793D01*
X11179706Y-14302793D02*
X11179706Y-14255174D01*
X11179706Y-14255174D02*
X11189229Y-14217079D01*
X11189229Y-14217079D02*
X11198753Y-14198031D01*
X11198753Y-14198031D02*
X11208277Y-14188508D01*
X11208277Y-14188508D02*
X11227325Y-14178984D01*
X11532087Y-14378984D02*
X11532087Y-14178984D01*
X11617801Y-14378984D02*
X11617801Y-14274222D01*
X11617801Y-14274222D02*
X11608277Y-14255174D01*
X11608277Y-14255174D02*
X11589230Y-14245650D01*
X11589230Y-14245650D02*
X11560658Y-14245650D01*
X11560658Y-14245650D02*
X11541610Y-14255174D01*
X11541610Y-14255174D02*
X11532087Y-14264698D01*
X11741610Y-14378984D02*
X11722563Y-14369460D01*
X11722563Y-14369460D02*
X11713039Y-14359936D01*
X11713039Y-14359936D02*
X11703515Y-14340888D01*
X11703515Y-14340888D02*
X11703515Y-14283746D01*
X11703515Y-14283746D02*
X11713039Y-14264698D01*
X11713039Y-14264698D02*
X11722563Y-14255174D01*
X11722563Y-14255174D02*
X11741610Y-14245650D01*
X11741610Y-14245650D02*
X11770182Y-14245650D01*
X11770182Y-14245650D02*
X11789230Y-14255174D01*
X11789230Y-14255174D02*
X11798753Y-14264698D01*
X11798753Y-14264698D02*
X11808277Y-14283746D01*
X11808277Y-14283746D02*
X11808277Y-14340888D01*
X11808277Y-14340888D02*
X11798753Y-14359936D01*
X11798753Y-14359936D02*
X11789230Y-14369460D01*
X11789230Y-14369460D02*
X11770182Y-14378984D01*
X11770182Y-14378984D02*
X11741610Y-14378984D01*
X11922563Y-14378984D02*
X11903515Y-14369460D01*
X11903515Y-14369460D02*
X11893991Y-14350412D01*
X11893991Y-14350412D02*
X11893991Y-14178984D01*
X12074944Y-14369460D02*
X12055896Y-14378984D01*
X12055896Y-14378984D02*
X12017801Y-14378984D01*
X12017801Y-14378984D02*
X11998753Y-14369460D01*
X11998753Y-14369460D02*
X11989230Y-14350412D01*
X11989230Y-14350412D02*
X11989230Y-14274222D01*
X11989230Y-14274222D02*
X11998753Y-14255174D01*
X11998753Y-14255174D02*
X12017801Y-14245650D01*
X12017801Y-14245650D02*
X12055896Y-14245650D01*
X12055896Y-14245650D02*
X12074944Y-14255174D01*
X12074944Y-14255174D02*
X12084468Y-14274222D01*
X12084468Y-14274222D02*
X12084468Y-14293269D01*
X12084468Y-14293269D02*
X11989230Y-14312317D01*
X12160658Y-14369460D02*
X12179706Y-14378984D01*
X12179706Y-14378984D02*
X12217801Y-14378984D01*
X12217801Y-14378984D02*
X12236849Y-14369460D01*
X12236849Y-14369460D02*
X12246372Y-14350412D01*
X12246372Y-14350412D02*
X12246372Y-14340888D01*
X12246372Y-14340888D02*
X12236849Y-14321841D01*
X12236849Y-14321841D02*
X12217801Y-14312317D01*
X12217801Y-14312317D02*
X12189230Y-14312317D01*
X12189230Y-14312317D02*
X12170182Y-14302793D01*
X12170182Y-14302793D02*
X12160658Y-14283746D01*
X12160658Y-14283746D02*
X12160658Y-14274222D01*
X12160658Y-14274222D02*
X12170182Y-14255174D01*
X12170182Y-14255174D02*
X12189230Y-14245650D01*
X12189230Y-14245650D02*
X12217801Y-14245650D01*
X12217801Y-14245650D02*
X12236849Y-14255174D01*
X12313039Y-14455174D02*
X12322563Y-14445650D01*
X12322563Y-14445650D02*
X12341611Y-14417079D01*
X12341611Y-14417079D02*
X12351134Y-14398031D01*
X12351134Y-14398031D02*
X12360658Y-14369460D01*
X12360658Y-14369460D02*
X12370182Y-14321841D01*
X12370182Y-14321841D02*
X12370182Y-14283746D01*
X12370182Y-14283746D02*
X12360658Y-14236127D01*
X12360658Y-14236127D02*
X12351134Y-14207555D01*
X12351134Y-14207555D02*
X12341611Y-14188508D01*
X12341611Y-14188508D02*
X12322563Y-14159936D01*
X12322563Y-14159936D02*
X12313039Y-14150412D01*
X7147500Y-14451500D02*
X7347500Y-14651500D01*
X7347500Y-14451500D02*
X7147500Y-14651500D01*
X7247500Y-14451500D02*
X7247500Y-14651500D01*
X7147500Y-14551500D02*
X7347500Y-14551500D01*
X7598753Y-14462031D02*
X7608277Y-14452508D01*
X7608277Y-14452508D02*
X7627324Y-14442984D01*
X7627324Y-14442984D02*
X7674943Y-14442984D01*
X7674943Y-14442984D02*
X7693991Y-14452508D01*
X7693991Y-14452508D02*
X7703515Y-14462031D01*
X7703515Y-14462031D02*
X7713039Y-14481079D01*
X7713039Y-14481079D02*
X7713039Y-14500127D01*
X7713039Y-14500127D02*
X7703515Y-14528698D01*
X7703515Y-14528698D02*
X7589229Y-14642984D01*
X7589229Y-14642984D02*
X7713039Y-14642984D01*
X7798753Y-14623936D02*
X7808277Y-14633460D01*
X7808277Y-14633460D02*
X7798753Y-14642984D01*
X7798753Y-14642984D02*
X7789229Y-14633460D01*
X7789229Y-14633460D02*
X7798753Y-14623936D01*
X7798753Y-14623936D02*
X7798753Y-14642984D01*
X7989229Y-14442984D02*
X7893991Y-14442984D01*
X7893991Y-14442984D02*
X7884467Y-14538222D01*
X7884467Y-14538222D02*
X7893991Y-14528698D01*
X7893991Y-14528698D02*
X7913039Y-14519174D01*
X7913039Y-14519174D02*
X7960658Y-14519174D01*
X7960658Y-14519174D02*
X7979705Y-14528698D01*
X7979705Y-14528698D02*
X7989229Y-14538222D01*
X7989229Y-14538222D02*
X7998753Y-14557269D01*
X7998753Y-14557269D02*
X7998753Y-14604888D01*
X7998753Y-14604888D02*
X7989229Y-14623936D01*
X7989229Y-14623936D02*
X7979705Y-14633460D01*
X7979705Y-14633460D02*
X7960658Y-14642984D01*
X7960658Y-14642984D02*
X7913039Y-14642984D01*
X7913039Y-14642984D02*
X7893991Y-14633460D01*
X7893991Y-14633460D02*
X7884467Y-14623936D01*
X8122562Y-14442984D02*
X8141610Y-14442984D01*
X8141610Y-14442984D02*
X8160658Y-14452508D01*
X8160658Y-14452508D02*
X8170182Y-14462031D01*
X8170182Y-14462031D02*
X8179705Y-14481079D01*
X8179705Y-14481079D02*
X8189229Y-14519174D01*
X8189229Y-14519174D02*
X8189229Y-14566793D01*
X8189229Y-14566793D02*
X8179705Y-14604888D01*
X8179705Y-14604888D02*
X8170182Y-14623936D01*
X8170182Y-14623936D02*
X8160658Y-14633460D01*
X8160658Y-14633460D02*
X8141610Y-14642984D01*
X8141610Y-14642984D02*
X8122562Y-14642984D01*
X8122562Y-14642984D02*
X8103515Y-14633460D01*
X8103515Y-14633460D02*
X8093991Y-14623936D01*
X8093991Y-14623936D02*
X8084467Y-14604888D01*
X8084467Y-14604888D02*
X8074943Y-14566793D01*
X8074943Y-14566793D02*
X8074943Y-14519174D01*
X8074943Y-14519174D02*
X8084467Y-14481079D01*
X8084467Y-14481079D02*
X8093991Y-14462031D01*
X8093991Y-14462031D02*
X8103515Y-14452508D01*
X8103515Y-14452508D02*
X8122562Y-14442984D01*
X8313039Y-14442984D02*
X8332086Y-14442984D01*
X8332086Y-14442984D02*
X8351134Y-14452508D01*
X8351134Y-14452508D02*
X8360658Y-14462031D01*
X8360658Y-14462031D02*
X8370182Y-14481079D01*
X8370182Y-14481079D02*
X8379705Y-14519174D01*
X8379705Y-14519174D02*
X8379705Y-14566793D01*
X8379705Y-14566793D02*
X8370182Y-14604888D01*
X8370182Y-14604888D02*
X8360658Y-14623936D01*
X8360658Y-14623936D02*
X8351134Y-14633460D01*
X8351134Y-14633460D02*
X8332086Y-14642984D01*
X8332086Y-14642984D02*
X8313039Y-14642984D01*
X8313039Y-14642984D02*
X8293991Y-14633460D01*
X8293991Y-14633460D02*
X8284467Y-14623936D01*
X8284467Y-14623936D02*
X8274943Y-14604888D01*
X8274943Y-14604888D02*
X8265420Y-14566793D01*
X8265420Y-14566793D02*
X8265420Y-14519174D01*
X8265420Y-14519174D02*
X8274943Y-14481079D01*
X8274943Y-14481079D02*
X8284467Y-14462031D01*
X8284467Y-14462031D02*
X8293991Y-14452508D01*
X8293991Y-14452508D02*
X8313039Y-14442984D01*
X8465420Y-14642984D02*
X8465420Y-14509650D01*
X8465420Y-14528698D02*
X8474944Y-14519174D01*
X8474944Y-14519174D02*
X8493991Y-14509650D01*
X8493991Y-14509650D02*
X8522563Y-14509650D01*
X8522563Y-14509650D02*
X8541610Y-14519174D01*
X8541610Y-14519174D02*
X8551134Y-14538222D01*
X8551134Y-14538222D02*
X8551134Y-14642984D01*
X8551134Y-14538222D02*
X8560658Y-14519174D01*
X8560658Y-14519174D02*
X8579705Y-14509650D01*
X8579705Y-14509650D02*
X8608277Y-14509650D01*
X8608277Y-14509650D02*
X8627325Y-14519174D01*
X8627325Y-14519174D02*
X8636848Y-14538222D01*
X8636848Y-14538222D02*
X8636848Y-14642984D01*
X8732086Y-14642984D02*
X8732086Y-14509650D01*
X8732086Y-14528698D02*
X8741610Y-14519174D01*
X8741610Y-14519174D02*
X8760658Y-14509650D01*
X8760658Y-14509650D02*
X8789229Y-14509650D01*
X8789229Y-14509650D02*
X8808277Y-14519174D01*
X8808277Y-14519174D02*
X8817801Y-14538222D01*
X8817801Y-14538222D02*
X8817801Y-14642984D01*
X8817801Y-14538222D02*
X8827325Y-14519174D01*
X8827325Y-14519174D02*
X8846372Y-14509650D01*
X8846372Y-14509650D02*
X8874944Y-14509650D01*
X8874944Y-14509650D02*
X8893991Y-14519174D01*
X8893991Y-14519174D02*
X8903515Y-14538222D01*
X8903515Y-14538222D02*
X8903515Y-14642984D01*
X9293991Y-14433460D02*
X9122563Y-14690603D01*
X9551134Y-14442984D02*
X9570182Y-14442984D01*
X9570182Y-14442984D02*
X9589229Y-14452508D01*
X9589229Y-14452508D02*
X9598753Y-14462031D01*
X9598753Y-14462031D02*
X9608277Y-14481079D01*
X9608277Y-14481079D02*
X9617801Y-14519174D01*
X9617801Y-14519174D02*
X9617801Y-14566793D01*
X9617801Y-14566793D02*
X9608277Y-14604888D01*
X9608277Y-14604888D02*
X9598753Y-14623936D01*
X9598753Y-14623936D02*
X9589229Y-14633460D01*
X9589229Y-14633460D02*
X9570182Y-14642984D01*
X9570182Y-14642984D02*
X9551134Y-14642984D01*
X9551134Y-14642984D02*
X9532087Y-14633460D01*
X9532087Y-14633460D02*
X9522563Y-14623936D01*
X9522563Y-14623936D02*
X9513039Y-14604888D01*
X9513039Y-14604888D02*
X9503515Y-14566793D01*
X9503515Y-14566793D02*
X9503515Y-14519174D01*
X9503515Y-14519174D02*
X9513039Y-14481079D01*
X9513039Y-14481079D02*
X9522563Y-14462031D01*
X9522563Y-14462031D02*
X9532087Y-14452508D01*
X9532087Y-14452508D02*
X9551134Y-14442984D01*
X9703515Y-14623936D02*
X9713039Y-14633460D01*
X9713039Y-14633460D02*
X9703515Y-14642984D01*
X9703515Y-14642984D02*
X9693991Y-14633460D01*
X9693991Y-14633460D02*
X9703515Y-14623936D01*
X9703515Y-14623936D02*
X9703515Y-14642984D01*
X9836848Y-14442984D02*
X9855896Y-14442984D01*
X9855896Y-14442984D02*
X9874944Y-14452508D01*
X9874944Y-14452508D02*
X9884468Y-14462031D01*
X9884468Y-14462031D02*
X9893991Y-14481079D01*
X9893991Y-14481079D02*
X9903515Y-14519174D01*
X9903515Y-14519174D02*
X9903515Y-14566793D01*
X9903515Y-14566793D02*
X9893991Y-14604888D01*
X9893991Y-14604888D02*
X9884468Y-14623936D01*
X9884468Y-14623936D02*
X9874944Y-14633460D01*
X9874944Y-14633460D02*
X9855896Y-14642984D01*
X9855896Y-14642984D02*
X9836848Y-14642984D01*
X9836848Y-14642984D02*
X9817801Y-14633460D01*
X9817801Y-14633460D02*
X9808277Y-14623936D01*
X9808277Y-14623936D02*
X9798753Y-14604888D01*
X9798753Y-14604888D02*
X9789229Y-14566793D01*
X9789229Y-14566793D02*
X9789229Y-14519174D01*
X9789229Y-14519174D02*
X9798753Y-14481079D01*
X9798753Y-14481079D02*
X9808277Y-14462031D01*
X9808277Y-14462031D02*
X9817801Y-14452508D01*
X9817801Y-14452508D02*
X9836848Y-14442984D01*
X9998753Y-14642984D02*
X10036848Y-14642984D01*
X10036848Y-14642984D02*
X10055896Y-14633460D01*
X10055896Y-14633460D02*
X10065420Y-14623936D01*
X10065420Y-14623936D02*
X10084468Y-14595365D01*
X10084468Y-14595365D02*
X10093991Y-14557269D01*
X10093991Y-14557269D02*
X10093991Y-14481079D01*
X10093991Y-14481079D02*
X10084468Y-14462031D01*
X10084468Y-14462031D02*
X10074944Y-14452508D01*
X10074944Y-14452508D02*
X10055896Y-14442984D01*
X10055896Y-14442984D02*
X10017801Y-14442984D01*
X10017801Y-14442984D02*
X9998753Y-14452508D01*
X9998753Y-14452508D02*
X9989229Y-14462031D01*
X9989229Y-14462031D02*
X9979706Y-14481079D01*
X9979706Y-14481079D02*
X9979706Y-14528698D01*
X9979706Y-14528698D02*
X9989229Y-14547746D01*
X9989229Y-14547746D02*
X9998753Y-14557269D01*
X9998753Y-14557269D02*
X10017801Y-14566793D01*
X10017801Y-14566793D02*
X10055896Y-14566793D01*
X10055896Y-14566793D02*
X10074944Y-14557269D01*
X10074944Y-14557269D02*
X10084468Y-14547746D01*
X10084468Y-14547746D02*
X10093991Y-14528698D01*
X10208277Y-14528698D02*
X10189229Y-14519174D01*
X10189229Y-14519174D02*
X10179706Y-14509650D01*
X10179706Y-14509650D02*
X10170182Y-14490603D01*
X10170182Y-14490603D02*
X10170182Y-14481079D01*
X10170182Y-14481079D02*
X10179706Y-14462031D01*
X10179706Y-14462031D02*
X10189229Y-14452508D01*
X10189229Y-14452508D02*
X10208277Y-14442984D01*
X10208277Y-14442984D02*
X10246372Y-14442984D01*
X10246372Y-14442984D02*
X10265420Y-14452508D01*
X10265420Y-14452508D02*
X10274944Y-14462031D01*
X10274944Y-14462031D02*
X10284468Y-14481079D01*
X10284468Y-14481079D02*
X10284468Y-14490603D01*
X10284468Y-14490603D02*
X10274944Y-14509650D01*
X10274944Y-14509650D02*
X10265420Y-14519174D01*
X10265420Y-14519174D02*
X10246372Y-14528698D01*
X10246372Y-14528698D02*
X10208277Y-14528698D01*
X10208277Y-14528698D02*
X10189229Y-14538222D01*
X10189229Y-14538222D02*
X10179706Y-14547746D01*
X10179706Y-14547746D02*
X10170182Y-14566793D01*
X10170182Y-14566793D02*
X10170182Y-14604888D01*
X10170182Y-14604888D02*
X10179706Y-14623936D01*
X10179706Y-14623936D02*
X10189229Y-14633460D01*
X10189229Y-14633460D02*
X10208277Y-14642984D01*
X10208277Y-14642984D02*
X10246372Y-14642984D01*
X10246372Y-14642984D02*
X10265420Y-14633460D01*
X10265420Y-14633460D02*
X10274944Y-14623936D01*
X10274944Y-14623936D02*
X10284468Y-14604888D01*
X10284468Y-14604888D02*
X10284468Y-14566793D01*
X10284468Y-14566793D02*
X10274944Y-14547746D01*
X10274944Y-14547746D02*
X10265420Y-14538222D01*
X10265420Y-14538222D02*
X10246372Y-14528698D01*
X10455896Y-14509650D02*
X10455896Y-14642984D01*
X10408277Y-14433460D02*
X10360658Y-14576317D01*
X10360658Y-14576317D02*
X10484468Y-14576317D01*
X10551134Y-14442984D02*
X10551134Y-14481079D01*
X10627325Y-14442984D02*
X10627325Y-14481079D01*
X10922563Y-14719174D02*
X10913039Y-14709650D01*
X10913039Y-14709650D02*
X10893991Y-14681079D01*
X10893991Y-14681079D02*
X10884468Y-14662031D01*
X10884468Y-14662031D02*
X10874944Y-14633460D01*
X10874944Y-14633460D02*
X10865420Y-14585841D01*
X10865420Y-14585841D02*
X10865420Y-14547746D01*
X10865420Y-14547746D02*
X10874944Y-14500127D01*
X10874944Y-14500127D02*
X10884468Y-14471555D01*
X10884468Y-14471555D02*
X10893991Y-14452508D01*
X10893991Y-14452508D02*
X10913039Y-14423936D01*
X10913039Y-14423936D02*
X10922563Y-14414412D01*
X11103515Y-14642984D02*
X10989230Y-14642984D01*
X11046372Y-14642984D02*
X11046372Y-14442984D01*
X11046372Y-14442984D02*
X11027325Y-14471555D01*
X11027325Y-14471555D02*
X11008277Y-14490603D01*
X11008277Y-14490603D02*
X10989230Y-14500127D01*
X11293991Y-14642984D02*
X11179706Y-14642984D01*
X11236848Y-14642984D02*
X11236848Y-14442984D01*
X11236848Y-14442984D02*
X11217801Y-14471555D01*
X11217801Y-14471555D02*
X11198753Y-14490603D01*
X11198753Y-14490603D02*
X11179706Y-14500127D01*
X11532087Y-14642984D02*
X11532087Y-14442984D01*
X11617801Y-14642984D02*
X11617801Y-14538222D01*
X11617801Y-14538222D02*
X11608277Y-14519174D01*
X11608277Y-14519174D02*
X11589230Y-14509650D01*
X11589230Y-14509650D02*
X11560658Y-14509650D01*
X11560658Y-14509650D02*
X11541610Y-14519174D01*
X11541610Y-14519174D02*
X11532087Y-14528698D01*
X11741610Y-14642984D02*
X11722563Y-14633460D01*
X11722563Y-14633460D02*
X11713039Y-14623936D01*
X11713039Y-14623936D02*
X11703515Y-14604888D01*
X11703515Y-14604888D02*
X11703515Y-14547746D01*
X11703515Y-14547746D02*
X11713039Y-14528698D01*
X11713039Y-14528698D02*
X11722563Y-14519174D01*
X11722563Y-14519174D02*
X11741610Y-14509650D01*
X11741610Y-14509650D02*
X11770182Y-14509650D01*
X11770182Y-14509650D02*
X11789230Y-14519174D01*
X11789230Y-14519174D02*
X11798753Y-14528698D01*
X11798753Y-14528698D02*
X11808277Y-14547746D01*
X11808277Y-14547746D02*
X11808277Y-14604888D01*
X11808277Y-14604888D02*
X11798753Y-14623936D01*
X11798753Y-14623936D02*
X11789230Y-14633460D01*
X11789230Y-14633460D02*
X11770182Y-14642984D01*
X11770182Y-14642984D02*
X11741610Y-14642984D01*
X11922563Y-14642984D02*
X11903515Y-14633460D01*
X11903515Y-14633460D02*
X11893991Y-14614412D01*
X11893991Y-14614412D02*
X11893991Y-14442984D01*
X12074944Y-14633460D02*
X12055896Y-14642984D01*
X12055896Y-14642984D02*
X12017801Y-14642984D01*
X12017801Y-14642984D02*
X11998753Y-14633460D01*
X11998753Y-14633460D02*
X11989230Y-14614412D01*
X11989230Y-14614412D02*
X11989230Y-14538222D01*
X11989230Y-14538222D02*
X11998753Y-14519174D01*
X11998753Y-14519174D02*
X12017801Y-14509650D01*
X12017801Y-14509650D02*
X12055896Y-14509650D01*
X12055896Y-14509650D02*
X12074944Y-14519174D01*
X12074944Y-14519174D02*
X12084468Y-14538222D01*
X12084468Y-14538222D02*
X12084468Y-14557269D01*
X12084468Y-14557269D02*
X11989230Y-14576317D01*
X12160658Y-14633460D02*
X12179706Y-14642984D01*
X12179706Y-14642984D02*
X12217801Y-14642984D01*
X12217801Y-14642984D02*
X12236849Y-14633460D01*
X12236849Y-14633460D02*
X12246372Y-14614412D01*
X12246372Y-14614412D02*
X12246372Y-14604888D01*
X12246372Y-14604888D02*
X12236849Y-14585841D01*
X12236849Y-14585841D02*
X12217801Y-14576317D01*
X12217801Y-14576317D02*
X12189230Y-14576317D01*
X12189230Y-14576317D02*
X12170182Y-14566793D01*
X12170182Y-14566793D02*
X12160658Y-14547746D01*
X12160658Y-14547746D02*
X12160658Y-14538222D01*
X12160658Y-14538222D02*
X12170182Y-14519174D01*
X12170182Y-14519174D02*
X12189230Y-14509650D01*
X12189230Y-14509650D02*
X12217801Y-14509650D01*
X12217801Y-14509650D02*
X12236849Y-14519174D01*
X12313039Y-14719174D02*
X12322563Y-14709650D01*
X12322563Y-14709650D02*
X12341611Y-14681079D01*
X12341611Y-14681079D02*
X12351134Y-14662031D01*
X12351134Y-14662031D02*
X12360658Y-14633460D01*
X12360658Y-14633460D02*
X12370182Y-14585841D01*
X12370182Y-14585841D02*
X12370182Y-14547746D01*
X12370182Y-14547746D02*
X12360658Y-14500127D01*
X12360658Y-14500127D02*
X12351134Y-14471555D01*
X12351134Y-14471555D02*
X12341611Y-14452508D01*
X12341611Y-14452508D02*
X12322563Y-14423936D01*
X12322563Y-14423936D02*
X12313039Y-14414412D01*
M02*
