%TF.GenerationSoftware,KiCad,Pcbnew,9.0.0*%
%TF.CreationDate,2025-03-03T00:02:01+00:00*%
%TF.ProjectId,Wheelchair Powermeter PCB,57686565-6c63-4686-9169-7220506f7765,rev?*%
%TF.SameCoordinates,Original*%
%TF.FileFunction,Copper,L1,Top*%
%TF.FilePolarity,Positive*%
%FSLAX46Y46*%
G04 Gerber Fmt 4.6, Leading zero omitted, Abs format (unit mm)*
G04 Created by KiCad (PCBNEW 9.0.0) date 2025-03-03 00:02:01*
%MOMM*%
%LPD*%
G01*
G04 APERTURE LIST*
%TA.AperFunction,ComponentPad*%
%ADD10O,2.000000X2.000000*%
%TD*%
%TA.AperFunction,ComponentPad*%
%ADD11R,2.000000X2.000000*%
%TD*%
%TA.AperFunction,ComponentPad*%
%ADD12C,4.000000*%
%TD*%
%TA.AperFunction,SMDPad,CuDef*%
%ADD13R,2.200000X1.400000*%
%TD*%
%TA.AperFunction,ConnectorPad*%
%ADD14C,5.500000*%
%TD*%
%TA.AperFunction,ComponentPad*%
%ADD15O,1.400000X2.000000*%
%TD*%
%TA.AperFunction,ComponentPad*%
%ADD16C,3.600000*%
%TD*%
%TA.AperFunction,ComponentPad*%
%ADD17R,1.238000X1.238000*%
%TD*%
%TA.AperFunction,ComponentPad*%
%ADD18C,1.238000*%
%TD*%
%TA.AperFunction,ComponentPad*%
%ADD19C,0.650000*%
%TD*%
%TA.AperFunction,ComponentPad*%
%ADD20O,0.900000X1.700000*%
%TD*%
%TA.AperFunction,ComponentPad*%
%ADD21O,0.900000X2.400000*%
%TD*%
%TA.AperFunction,ComponentPad*%
%ADD22C,1.600000*%
%TD*%
%TA.AperFunction,ComponentPad*%
%ADD23O,1.600000X1.600000*%
%TD*%
%TA.AperFunction,ComponentPad*%
%ADD24O,1.200000X2.000000*%
%TD*%
%TA.AperFunction,ComponentPad*%
%ADD25C,1.778000*%
%TD*%
%TA.AperFunction,ComponentPad*%
%ADD26C,3.200000*%
%TD*%
%TA.AperFunction,ViaPad*%
%ADD27C,0.600000*%
%TD*%
%TA.AperFunction,Conductor*%
%ADD28C,0.200000*%
%TD*%
%TA.AperFunction,Conductor*%
%ADD29C,0.500000*%
%TD*%
G04 APERTURE END LIST*
D10*
%TO.P,C1,2*%
%TO.N,GND*%
X122257500Y-66250000D03*
D11*
%TO.P,C1,1*%
%TO.N,3.3V*%
X122257500Y-81250000D03*
%TD*%
D12*
%TO.P,TP4,1,1*%
%TO.N,Net-(TP4-Pad1)*%
X101750000Y-76250000D03*
%TD*%
D13*
%TO.P,S1,1,COM_1*%
%TO.N,GND*%
X114500000Y-112000000D03*
%TO.P,S1,2,COM_2*%
X105500000Y-112000000D03*
%TO.P,S1,3,NO_1*%
%TO.N,Net-(S1-NO_1)*%
X114500000Y-107500000D03*
%TO.P,S1,4,NO_2*%
X105500000Y-107500000D03*
%TD*%
D12*
%TO.P,TP_GND3,1,1*%
%TO.N,GND*%
X120500000Y-117000000D03*
%TD*%
D14*
%TO.P,,1*%
%TO.N,N/C*%
X146000000Y-64000000D03*
%TD*%
D15*
%TO.P,U1,1,RST*%
%TO.N,unconnected-(U1-RST-Pad1)*%
X76325000Y-102750000D03*
%TO.P,U1,2,3.3V*%
%TO.N,3.3V*%
X78865000Y-102750000D03*
%TO.P,U1,3*%
%TO.N,unconnected-(U1-Pad3)*%
X81405000Y-102750000D03*
%TO.P,U1,4,GND*%
%TO.N,GND*%
X83945000Y-102750000D03*
%TO.P,U1,5,A0*%
%TO.N,unconnected-(U1-A0-Pad5)*%
X86485000Y-102750000D03*
%TO.P,U1,6,A1*%
%TO.N,unconnected-(U1-A1-Pad6)*%
X89025000Y-102750000D03*
%TO.P,U1,7,A2*%
%TO.N,unconnected-(U1-A2-Pad7)*%
X91565000Y-102750000D03*
%TO.P,U1,8,A3*%
%TO.N,unconnected-(U1-A3-Pad8)*%
X94105000Y-102750000D03*
%TO.P,U1,9,A4*%
%TO.N,unconnected-(U1-A4-Pad9)*%
X96645000Y-102750000D03*
%TO.P,U1,10,A5*%
%TO.N,unconnected-(U1-A5-Pad10)*%
X99185000Y-102750000D03*
%TO.P,U1,11,SCK*%
%TO.N,unconnected-(U1-SCK-Pad11)*%
X101725000Y-102750000D03*
%TO.P,U1,12,MOSI*%
%TO.N,unconnected-(U1-MOSI-Pad12)*%
X104265000Y-102750000D03*
%TO.P,U1,13,MISO*%
%TO.N,unconnected-(U1-MISO-Pad13)*%
X106805000Y-102750000D03*
%TO.P,U1,14,RX*%
%TO.N,unconnected-(U1-RX-Pad14)*%
X109345000Y-102750000D03*
%TO.P,U1,15,TX*%
%TO.N,unconnected-(U1-TX-Pad15)*%
X111885000Y-102750000D03*
%TO.P,U1,16*%
%TO.N,N/C*%
X114425000Y-102750000D03*
%TO.P,U1,17,D37*%
%TO.N,unconnected-(U1-D37-Pad17)*%
X116875000Y-102750000D03*
%TO.P,U1,18,VBAT*%
%TO.N,Net-(U1-VBAT)*%
X86485000Y-82750000D03*
%TO.P,U1,19,EN*%
%TO.N,unconnected-(U1-EN-Pad19)*%
X89025000Y-82750000D03*
%TO.P,U1,20,VBUS*%
%TO.N,unconnected-(U1-VBUS-Pad20)*%
X91565000Y-82750000D03*
%TO.P,U1,21,LED*%
%TO.N,Net-(U1-LED)*%
X94105000Y-82750000D03*
%TO.P,U1,22,D12*%
%TO.N,Net-(TP4-Pad1)*%
X96645000Y-82750000D03*
%TO.P,U1,23,D12*%
%TO.N,Net-(TP5-Pad1)*%
X99185000Y-82750000D03*
%TO.P,U1,24,D27*%
%TO.N,Net-(U1-D27)*%
X101725000Y-82750000D03*
%TO.P,U1,25,D33*%
%TO.N,Net-(U1-D33)*%
X104265000Y-82750000D03*
%TO.P,U1,26,D15*%
%TO.N,Net-(U1-D15)*%
X106805000Y-82750000D03*
%TO.P,U1,27,D32*%
%TO.N,Net-(S1-NO_1)*%
X109345000Y-82750000D03*
%TO.P,U1,28,D14*%
%TO.N,Net-(S2-NO_1)*%
X111885000Y-82750000D03*
%TO.P,U1,29,SCL*%
%TO.N,SCL_MCU*%
X114425000Y-82750000D03*
%TO.P,U1,30,SDA*%
%TO.N,SDA_MCU*%
X116875000Y-82750000D03*
%TD*%
D14*
%TO.P,,1*%
%TO.N,N/C*%
X77250000Y-119000000D03*
%TD*%
D12*
%TO.P,TP8,1,1*%
%TO.N,Net-(U1-D15)*%
X112250000Y-76500000D03*
%TD*%
%TO.P,TP_GND2,1,1*%
%TO.N,GND*%
X120500000Y-110000000D03*
%TD*%
%TO.P,TP_VBUS1,1,1*%
%TO.N,Net-(U1-VBAT)*%
X81500000Y-84750000D03*
%TD*%
D16*
%TO.P,REF3,1*%
%TO.N,N/C*%
X77250000Y-119000000D03*
D14*
X77250000Y-119000000D03*
%TD*%
D16*
%TO.P,REF2,1*%
%TO.N,N/C*%
X146000000Y-118750000D03*
D14*
X146000000Y-118750000D03*
%TD*%
D16*
%TO.P,REF4,1*%
%TO.N,N/C*%
X77250000Y-64000000D03*
D14*
X77250000Y-64000000D03*
%TD*%
D12*
%TO.P,TP5,1,1*%
%TO.N,Net-(TP5-Pad1)*%
X99000000Y-90000000D03*
%TD*%
%TO.P,TP7,1,1*%
%TO.N,Net-(U1-D33)*%
X104000000Y-90000000D03*
%TD*%
%TO.P,TP_GND1,1,1*%
%TO.N,GND*%
X84000000Y-109000000D03*
%TD*%
%TO.P,TP_3.3V1,1,1*%
%TO.N,3.3V*%
X78750000Y-108750000D03*
%TD*%
D13*
%TO.P,S2,1,COM_1*%
%TO.N,GND*%
X99750000Y-112000000D03*
%TO.P,S2,2,COM_2*%
X90750000Y-112000000D03*
%TO.P,S2,3,NO_1*%
%TO.N,Net-(S2-NO_1)*%
X99750000Y-107500000D03*
%TO.P,S2,4,NO_2*%
X90750000Y-107500000D03*
%TD*%
D17*
%TO.P,U2,1,GND*%
%TO.N,GND*%
X127537500Y-73250000D03*
D18*
%TO.P,U2,2,Supply*%
%TO.N,3.3V*%
X127537500Y-75750000D03*
%TO.P,U2,3,SDA*%
%TO.N,SDA_MCU*%
X127537500Y-78250000D03*
%TO.P,U2,4,SCL*%
%TO.N,SCL_MCU*%
X127537500Y-80750000D03*
%TO.P,U2,5*%
%TO.N,unconnected-(U2-Pad5)*%
X140237500Y-80750000D03*
%TO.P,U2,6*%
%TO.N,unconnected-(U2-Pad6)*%
X140237500Y-78250000D03*
%TO.P,U2,7*%
%TO.N,unconnected-(U2-Pad7)*%
X140237500Y-75750000D03*
%TO.P,U2,8,INT*%
%TO.N,unconnected-(U2-INT-Pad8)*%
X140237500Y-73250000D03*
%TD*%
D14*
%TO.P,,1*%
%TO.N,N/C*%
X146000000Y-118750000D03*
%TD*%
D12*
%TO.P,TP6,1,1*%
%TO.N,Net-(U1-D27)*%
X107000000Y-76500000D03*
%TD*%
D19*
%TO.P,J1,A1,GND*%
%TO.N,GND*%
X89300000Y-65860000D03*
%TO.P,J1,A4,VBUS*%
%TO.N,Net-(U1-VBAT)*%
X88450000Y-65860000D03*
%TO.P,J1,A5,CC1*%
%TO.N,Net-(J1-CC1)*%
X87600000Y-65860000D03*
%TO.P,J1,A6,DP1*%
%TO.N,unconnected-(J1-DP1-PadA6)*%
X86750000Y-65860000D03*
%TO.P,J1,A7,DN1*%
%TO.N,unconnected-(J1-DN1-PadA7)*%
X85900000Y-65860000D03*
%TO.P,J1,A8,SBU1*%
%TO.N,unconnected-(J1-SBU1-PadA8)*%
X85050000Y-65860000D03*
%TO.P,J1,A9,VBUS*%
%TO.N,Net-(U1-VBAT)*%
X84200000Y-65860000D03*
%TO.P,J1,A12,GND*%
%TO.N,GND*%
X83350000Y-65860000D03*
%TO.P,J1,B1,GND*%
X83350000Y-64510000D03*
%TO.P,J1,B4,VBUS*%
%TO.N,Net-(U1-VBAT)*%
X84200000Y-64510000D03*
%TO.P,J1,B5,CC2*%
%TO.N,Net-(J1-CC2)*%
X85050000Y-64510000D03*
%TO.P,J1,B6,DP2*%
%TO.N,unconnected-(J1-DP2-PadB6)*%
X85900000Y-64510000D03*
%TO.P,J1,B7,DN2*%
%TO.N,unconnected-(J1-DN2-PadB7)*%
X86750000Y-64510000D03*
%TO.P,J1,B8,SBU2*%
%TO.N,unconnected-(J1-SBU2-PadB8)*%
X87600000Y-64510000D03*
%TO.P,J1,B9,VBUS*%
%TO.N,Net-(U1-VBAT)*%
X88450000Y-64510000D03*
%TO.P,J1,B12,GND*%
%TO.N,GND*%
X89300000Y-64510000D03*
D20*
%TO.P,J1,S1,SHELL*%
X90650000Y-61500000D03*
%TO.P,J1,S2,SHELL*%
X82000000Y-61500000D03*
D21*
%TO.P,J1,S3,SHELL*%
X90650000Y-64880000D03*
%TO.P,J1,S4,SHELL*%
X82000000Y-64880000D03*
%TD*%
D16*
%TO.P,REF1,1*%
%TO.N,N/C*%
X146000000Y-64000000D03*
D14*
X146000000Y-64000000D03*
%TD*%
%TO.P,,1*%
%TO.N,N/C*%
X77250000Y-64000000D03*
%TD*%
D12*
%TO.P,TP3,1,1*%
%TO.N,Net-(U1-LED)*%
X94000000Y-89500000D03*
%TD*%
D22*
%TO.P,R3,1*%
%TO.N,Net-(J1-CC1)*%
X91000000Y-69690000D03*
D23*
%TO.P,R3,2*%
%TO.N,Net-(R2-Pad2)*%
X91000000Y-77310000D03*
%TD*%
D24*
%TO.P,U4,1,VIN*%
%TO.N,3.3V*%
X140870000Y-105250000D03*
%TO.P,U4,2,GND*%
%TO.N,GND*%
X138330000Y-105250000D03*
%TO.P,U4,3,3VO*%
%TO.N,unconnected-(U4-3VO-Pad3)*%
X135790000Y-105250000D03*
%TO.P,U4,4,INT2*%
%TO.N,unconnected-(U4-INT2-Pad4)*%
X133250000Y-105250000D03*
%TO.P,U4,5,INT*%
%TO.N,unconnected-(U4-INT-Pad5)*%
X130710000Y-105250000D03*
%TO.P,U4,6,SCL*%
%TO.N,SCL_MCU*%
X128170000Y-105250000D03*
%TO.P,U4,7,SDA*%
%TO.N,SDA_MCU*%
X125630000Y-105250000D03*
%TD*%
D22*
%TO.P,R5,1*%
%TO.N,Net-(R1-Pad2)*%
X85310000Y-79880000D03*
D23*
%TO.P,R5,2*%
%TO.N,GND*%
X77690000Y-79880000D03*
%TD*%
D22*
%TO.P,R4,1*%
%TO.N,Net-(J1-CC2)*%
X81500000Y-69690000D03*
D23*
%TO.P,R4,2*%
%TO.N,Net-(R1-Pad2)*%
X81500000Y-77310000D03*
%TD*%
D22*
%TO.P,R6,1*%
%TO.N,Net-(R2-Pad2)*%
X87500000Y-80000000D03*
D23*
%TO.P,R6,2*%
%TO.N,GND*%
X95120000Y-80000000D03*
%TD*%
D22*
%TO.P,R1,1*%
%TO.N,Net-(J1-CC2)*%
X85000000Y-69690000D03*
D23*
%TO.P,R1,2*%
%TO.N,Net-(R1-Pad2)*%
X85000000Y-77310000D03*
%TD*%
D22*
%TO.P,R2,1*%
%TO.N,Net-(J1-CC1)*%
X88000000Y-69690000D03*
D23*
%TO.P,R2,2*%
%TO.N,Net-(R2-Pad2)*%
X88000000Y-77310000D03*
%TD*%
D25*
%TO.P,U3,JP1_1,VIN*%
%TO.N,3.3V*%
X127650000Y-99350000D03*
%TO.P,U3,JP1_2,1.8V*%
%TO.N,unconnected-(U3A-1.8V-PadJP1_2)*%
X130190000Y-99350000D03*
%TO.P,U3,JP1_3,GND_JP1*%
%TO.N,GND*%
X132730000Y-99350000D03*
%TO.P,U3,JP1_4,SCK/SCL*%
%TO.N,SCL_MCU*%
X135270000Y-99350000D03*
%TO.P,U3,JP1_5,SDI/SDA*%
%TO.N,SDA_MCU*%
X137810000Y-99350000D03*
%TO.P,U3,JP1_6,INT*%
%TO.N,unconnected-(U3A-INT-PadJP1_6)*%
X140350000Y-99350000D03*
%TO.P,U3,JP3_1*%
%TO.N,N/C*%
X140350000Y-86650000D03*
%TO.P,U3,JP3_2*%
X137810000Y-86650000D03*
%TO.P,U3,JP3_3*%
X135270000Y-86650000D03*
%TO.P,U3,JP3_4*%
X132730000Y-86650000D03*
%TO.P,U3,JP3_5*%
X130190000Y-86650000D03*
%TO.P,U3,JP3_6*%
X127650000Y-86650000D03*
D26*
%TO.P,U3,SH1*%
X123840000Y-86650000D03*
%TO.P,U3,SH2*%
X123840000Y-99350000D03*
%TO.P,U3,SH3*%
X144160000Y-99350000D03*
%TO.P,U3,SH4*%
X144160000Y-86650000D03*
%TD*%
D27*
%TO.N,GND*%
X102750000Y-112000000D03*
%TO.N,Net-(S2-NO_1)*%
X102500000Y-107500000D03*
%TD*%
D28*
%TO.N,SDA_MCU*%
X131540000Y-93080000D02*
X137810000Y-99350000D01*
X131540000Y-82252500D02*
X131540000Y-93080000D01*
X127537500Y-78250000D02*
X131540000Y-82252500D01*
X127537500Y-78462500D02*
X127537500Y-78250000D01*
X123250000Y-82750000D02*
X127537500Y-78462500D01*
X116875000Y-82750000D02*
X123250000Y-82750000D01*
%TO.N,SCL_MCU*%
X134080000Y-100540000D02*
X132880000Y-100540000D01*
X132880000Y-100540000D02*
X128170000Y-105250000D01*
X135270000Y-99350000D02*
X134080000Y-100540000D01*
X128840000Y-92920000D02*
X135270000Y-99350000D01*
X128840000Y-82052500D02*
X128840000Y-92920000D01*
X127537500Y-80750000D02*
X128840000Y-82052500D01*
X124037500Y-84250000D02*
X127537500Y-80750000D01*
X115925000Y-84250000D02*
X124037500Y-84250000D01*
X114425000Y-82750000D02*
X115925000Y-84250000D01*
%TO.N,GND*%
X105500000Y-112000000D02*
X102750000Y-112000000D01*
X90750000Y-112000000D02*
X99750000Y-112000000D01*
X102750000Y-112000000D02*
X99750000Y-112000000D01*
X127537500Y-73250000D02*
X127537500Y-71530000D01*
D29*
X82000000Y-64880000D02*
X82000000Y-61500000D01*
D28*
X127537500Y-71530000D02*
X122257500Y-66250000D01*
X114500000Y-112000000D02*
X105500000Y-112000000D01*
D29*
%TO.N,Net-(U1-VBAT)*%
X88450000Y-66969618D02*
X87419618Y-68000000D01*
X88450000Y-64510000D02*
X88450000Y-65860000D01*
X76000000Y-82500000D02*
X77500000Y-84000000D01*
X87419618Y-68000000D02*
X82519619Y-68000000D01*
X76000000Y-68000000D02*
X76000000Y-82500000D01*
X84200000Y-64510000D02*
X84200000Y-65860000D01*
X76000000Y-68000000D02*
X82519619Y-68000000D01*
X88450000Y-65860000D02*
X88450000Y-66969618D01*
X85250000Y-82750000D02*
X86485000Y-82750000D01*
X84200000Y-66319619D02*
X84200000Y-65860000D01*
X84000000Y-84000000D02*
X85250000Y-82750000D01*
X82519619Y-68000000D02*
X84200000Y-66319619D01*
X77500000Y-84000000D02*
X84000000Y-84000000D01*
D28*
%TO.N,Net-(S1-NO_1)*%
X105500000Y-107500000D02*
X105500000Y-91754106D01*
X114500000Y-107500000D02*
X105500000Y-107500000D01*
X105500000Y-91754106D02*
X109345000Y-87909106D01*
X109345000Y-87909106D02*
X109345000Y-82750000D01*
%TO.N,Net-(S2-NO_1)*%
X99750000Y-107500000D02*
X102500000Y-107500000D01*
X99750000Y-107500000D02*
X90750000Y-107500000D01*
%TO.N,Net-(TP4-Pad1)*%
X97250000Y-80750000D02*
X101750000Y-76250000D01*
X97250000Y-81750000D02*
X97250000Y-80750000D01*
X96645000Y-82355000D02*
X97250000Y-81750000D01*
X96645000Y-82750000D02*
X96645000Y-82355000D01*
%TO.N,Net-(TP5-Pad1)*%
X99000000Y-90000000D02*
X99000000Y-89500000D01*
X99185000Y-89315000D02*
X99185000Y-82750000D01*
X99000000Y-89500000D02*
X99185000Y-89315000D01*
%TO.N,Net-(U1-D27)*%
X101725000Y-81775000D02*
X107000000Y-76500000D01*
X101725000Y-82750000D02*
X101725000Y-81775000D01*
%TO.N,Net-(U1-D15)*%
X106805000Y-81945000D02*
X112250000Y-76500000D01*
X106805000Y-82750000D02*
X106805000Y-81945000D01*
%TO.N,3.3V*%
X122257500Y-81250000D02*
X122257500Y-81030000D01*
X122257500Y-81030000D02*
X127537500Y-75750000D01*
%TD*%
%TA.AperFunction,Conductor*%
%TO.N,3.3V*%
G36*
X143767308Y-60269709D02*
G01*
X143785981Y-60284417D01*
X144095804Y-60580769D01*
X144130643Y-60641333D01*
X144127208Y-60711119D01*
X144086590Y-60767969D01*
X144072036Y-60777465D01*
X144072144Y-60777644D01*
X144069525Y-60779213D01*
X143763143Y-60983931D01*
X143763129Y-60983941D01*
X143478275Y-61217715D01*
X143217715Y-61478275D01*
X142983941Y-61763129D01*
X142983931Y-61763143D01*
X142779213Y-62069525D01*
X142779202Y-62069543D01*
X142605502Y-62394513D01*
X142605500Y-62394518D01*
X142464480Y-62734969D01*
X142357507Y-63087613D01*
X142357504Y-63087624D01*
X142285618Y-63449024D01*
X142249500Y-63815753D01*
X142249500Y-64184246D01*
X142285618Y-64550975D01*
X142357504Y-64912375D01*
X142357507Y-64912386D01*
X142464480Y-65265030D01*
X142605500Y-65605481D01*
X142605502Y-65605486D01*
X142779202Y-65930456D01*
X142779213Y-65930474D01*
X142983931Y-66236856D01*
X142983941Y-66236870D01*
X143217715Y-66521724D01*
X143478275Y-66782284D01*
X143478280Y-66782288D01*
X143478281Y-66782289D01*
X143763135Y-67016063D01*
X144069532Y-67220791D01*
X144069541Y-67220796D01*
X144069543Y-67220797D01*
X144394513Y-67394497D01*
X144394515Y-67394497D01*
X144394521Y-67394501D01*
X144734971Y-67535520D01*
X145087604Y-67642490D01*
X145087610Y-67642491D01*
X145087613Y-67642492D01*
X145087624Y-67642495D01*
X145449024Y-67714381D01*
X145815750Y-67750500D01*
X145815753Y-67750500D01*
X146184247Y-67750500D01*
X146184250Y-67750500D01*
X146550976Y-67714381D01*
X146621331Y-67700386D01*
X146912375Y-67642495D01*
X146912386Y-67642492D01*
X146912386Y-67642491D01*
X146912396Y-67642490D01*
X147265029Y-67535520D01*
X147605479Y-67394501D01*
X147930468Y-67220791D01*
X148236865Y-67016063D01*
X148521719Y-66782289D01*
X148782289Y-66521719D01*
X149016063Y-66236865D01*
X149220791Y-65930468D01*
X149266644Y-65844682D01*
X149315604Y-65794842D01*
X149383741Y-65779381D01*
X149449421Y-65803212D01*
X149491790Y-65858770D01*
X149500000Y-65903139D01*
X149500000Y-116846859D01*
X149480315Y-116913898D01*
X149427511Y-116959653D01*
X149358353Y-116969597D01*
X149294797Y-116940572D01*
X149266642Y-116905313D01*
X149256869Y-116887030D01*
X149220791Y-116819532D01*
X149016063Y-116513135D01*
X148782289Y-116228281D01*
X148782288Y-116228280D01*
X148782284Y-116228275D01*
X148521724Y-115967715D01*
X148236870Y-115733941D01*
X148236869Y-115733940D01*
X148236865Y-115733937D01*
X147930468Y-115529209D01*
X147930463Y-115529206D01*
X147930456Y-115529202D01*
X147605486Y-115355502D01*
X147605481Y-115355500D01*
X147265030Y-115214480D01*
X146912386Y-115107507D01*
X146912375Y-115107504D01*
X146550975Y-115035618D01*
X146274772Y-115008415D01*
X146184250Y-114999500D01*
X145815750Y-114999500D01*
X145732109Y-115007737D01*
X145449024Y-115035618D01*
X145087624Y-115107504D01*
X145087613Y-115107507D01*
X144734969Y-115214480D01*
X144394518Y-115355500D01*
X144394513Y-115355502D01*
X144069543Y-115529202D01*
X144069525Y-115529213D01*
X143763143Y-115733931D01*
X143763129Y-115733941D01*
X143478275Y-115967715D01*
X143217715Y-116228275D01*
X142983941Y-116513129D01*
X142983931Y-116513143D01*
X142779213Y-116819525D01*
X142779202Y-116819543D01*
X142605502Y-117144513D01*
X142605500Y-117144518D01*
X142464480Y-117484969D01*
X142357507Y-117837613D01*
X142357504Y-117837624D01*
X142285618Y-118199024D01*
X142249500Y-118565753D01*
X142249500Y-118934246D01*
X142285618Y-119300975D01*
X142357504Y-119662375D01*
X142357507Y-119662386D01*
X142464480Y-120015030D01*
X142605500Y-120355481D01*
X142605502Y-120355486D01*
X142779202Y-120680456D01*
X142779213Y-120680474D01*
X142983931Y-120986856D01*
X142983941Y-120986870D01*
X143217715Y-121271724D01*
X143478275Y-121532284D01*
X143478280Y-121532288D01*
X143478281Y-121532289D01*
X143763135Y-121766063D01*
X143769635Y-121770406D01*
X143773364Y-121772898D01*
X143818169Y-121826510D01*
X143826876Y-121895835D01*
X143796721Y-121958863D01*
X143737278Y-121995582D01*
X143704473Y-122000000D01*
X79852970Y-122000000D01*
X79785931Y-121980315D01*
X79740176Y-121927511D01*
X79730232Y-121858353D01*
X79759257Y-121794797D01*
X79769701Y-121784118D01*
X79771710Y-121782296D01*
X79771719Y-121782289D01*
X80032289Y-121521719D01*
X80266063Y-121236865D01*
X80470791Y-120930468D01*
X80644501Y-120605479D01*
X80785520Y-120265029D01*
X80892490Y-119912396D01*
X80892492Y-119912386D01*
X80892495Y-119912375D01*
X80964381Y-119550975D01*
X80974233Y-119450946D01*
X81000500Y-119184250D01*
X81000500Y-118815750D01*
X80964381Y-118449024D01*
X80892495Y-118087624D01*
X80892492Y-118087613D01*
X80892491Y-118087610D01*
X80892490Y-118087604D01*
X80785520Y-117734971D01*
X80644501Y-117394521D01*
X80510873Y-117144521D01*
X80470797Y-117069543D01*
X80470796Y-117069541D01*
X80470791Y-117069532D01*
X80322006Y-116846859D01*
X80311737Y-116831491D01*
X117499500Y-116831491D01*
X117499500Y-117168508D01*
X117537231Y-117503381D01*
X117537233Y-117503397D01*
X117612223Y-117831953D01*
X117612227Y-117831965D01*
X117723532Y-118150054D01*
X117869752Y-118453683D01*
X117869754Y-118453686D01*
X118049054Y-118739039D01*
X118259175Y-119002523D01*
X118497477Y-119240825D01*
X118760961Y-119450946D01*
X119046314Y-119630246D01*
X119046316Y-119630247D01*
X119113053Y-119662386D01*
X119349949Y-119776469D01*
X119588848Y-119860063D01*
X119668034Y-119887772D01*
X119668046Y-119887776D01*
X119996606Y-119962767D01*
X120331492Y-120000499D01*
X120331493Y-120000500D01*
X120331496Y-120000500D01*
X120668507Y-120000500D01*
X120668507Y-120000499D01*
X121003394Y-119962767D01*
X121331954Y-119887776D01*
X121650051Y-119776469D01*
X121953686Y-119630246D01*
X122239039Y-119450946D01*
X122502523Y-119240825D01*
X122740825Y-119002523D01*
X122950946Y-118739039D01*
X123130246Y-118453686D01*
X123276469Y-118150051D01*
X123387776Y-117831954D01*
X123462767Y-117503394D01*
X123500500Y-117168504D01*
X123500500Y-116831496D01*
X123462767Y-116496606D01*
X123387776Y-116168046D01*
X123276469Y-115849949D01*
X123158749Y-115605502D01*
X123130247Y-115546316D01*
X123130246Y-115546314D01*
X122950946Y-115260961D01*
X122740825Y-114997477D01*
X122502523Y-114759175D01*
X122239039Y-114549054D01*
X121953686Y-114369754D01*
X121953683Y-114369752D01*
X121650054Y-114223532D01*
X121331965Y-114112227D01*
X121331953Y-114112223D01*
X121003397Y-114037233D01*
X121003381Y-114037231D01*
X120668508Y-113999500D01*
X120668504Y-113999500D01*
X120331496Y-113999500D01*
X120331491Y-113999500D01*
X119996618Y-114037231D01*
X119996602Y-114037233D01*
X119668046Y-114112223D01*
X119668034Y-114112227D01*
X119349945Y-114223532D01*
X119046316Y-114369752D01*
X118760962Y-114549053D01*
X118497477Y-114759174D01*
X118259174Y-114997477D01*
X118049053Y-115260962D01*
X117869752Y-115546316D01*
X117723532Y-115849945D01*
X117612227Y-116168034D01*
X117612223Y-116168046D01*
X117537233Y-116496602D01*
X117537231Y-116496618D01*
X117499500Y-116831491D01*
X80311737Y-116831491D01*
X80266075Y-116763152D01*
X80266068Y-116763142D01*
X80266063Y-116763135D01*
X80032289Y-116478281D01*
X80032288Y-116478280D01*
X80032284Y-116478275D01*
X79771724Y-116217715D01*
X79486870Y-115983941D01*
X79486869Y-115983940D01*
X79486865Y-115983937D01*
X79180468Y-115779209D01*
X79180463Y-115779206D01*
X79180456Y-115779202D01*
X78855486Y-115605502D01*
X78855481Y-115605500D01*
X78515030Y-115464480D01*
X78162386Y-115357507D01*
X78162375Y-115357504D01*
X77800975Y-115285618D01*
X77524772Y-115258415D01*
X77434250Y-115249500D01*
X77065750Y-115249500D01*
X76982109Y-115257737D01*
X76699024Y-115285618D01*
X76337624Y-115357504D01*
X76337613Y-115357507D01*
X75984969Y-115464480D01*
X75644518Y-115605500D01*
X75644513Y-115605502D01*
X75319543Y-115779202D01*
X75319525Y-115779213D01*
X75013143Y-115983931D01*
X75013129Y-115983941D01*
X74728275Y-116217715D01*
X74479679Y-116466311D01*
X74418356Y-116499796D01*
X74348664Y-116494812D01*
X74292731Y-116452940D01*
X74268314Y-116387476D01*
X74268005Y-116377472D01*
X74340562Y-108831491D01*
X80999500Y-108831491D01*
X80999500Y-109168508D01*
X81037231Y-109503381D01*
X81037233Y-109503397D01*
X81112223Y-109831953D01*
X81112227Y-109831965D01*
X81223532Y-110150054D01*
X81369752Y-110453683D01*
X81369754Y-110453686D01*
X81549054Y-110739039D01*
X81759175Y-111002523D01*
X81997477Y-111240825D01*
X82260961Y-111450946D01*
X82546314Y-111630246D01*
X82849949Y-111776469D01*
X83088848Y-111860063D01*
X83168034Y-111887772D01*
X83168046Y-111887776D01*
X83496606Y-111962767D01*
X83831492Y-112000499D01*
X83831493Y-112000500D01*
X83831496Y-112000500D01*
X84168507Y-112000500D01*
X84168507Y-112000499D01*
X84503394Y-111962767D01*
X84831954Y-111887776D01*
X85150051Y-111776469D01*
X85453686Y-111630246D01*
X85739039Y-111450946D01*
X86001092Y-111241966D01*
X88649500Y-111241966D01*
X88649500Y-112758028D01*
X88649501Y-112758034D01*
X88660113Y-112877415D01*
X88716089Y-113073045D01*
X88716090Y-113073048D01*
X88716091Y-113073049D01*
X88810302Y-113253407D01*
X88810304Y-113253409D01*
X88938890Y-113411109D01*
X89032803Y-113487684D01*
X89096593Y-113539698D01*
X89276951Y-113633909D01*
X89472582Y-113689886D01*
X89591963Y-113700500D01*
X91908036Y-113700499D01*
X92027418Y-113689886D01*
X92223049Y-113633909D01*
X92403407Y-113539698D01*
X92561109Y-113411109D01*
X92689698Y-113253407D01*
X92714870Y-113205218D01*
X92734788Y-113167088D01*
X92783275Y-113116781D01*
X92844696Y-113100500D01*
X97655304Y-113100500D01*
X97722343Y-113120185D01*
X97765212Y-113167088D01*
X97785130Y-113205218D01*
X97810302Y-113253407D01*
X97868057Y-113324239D01*
X97938890Y-113411109D01*
X98032803Y-113487684D01*
X98096593Y-113539698D01*
X98276951Y-113633909D01*
X98472582Y-113689886D01*
X98591963Y-113700500D01*
X100908036Y-113700499D01*
X101027418Y-113689886D01*
X101223049Y-113633909D01*
X101403407Y-113539698D01*
X101561109Y-113411109D01*
X101689698Y-113253407D01*
X101714870Y-113205218D01*
X101734788Y-113167088D01*
X101744917Y-113156577D01*
X101750983Y-113143297D01*
X101768679Y-113131924D01*
X101783275Y-113116781D01*
X101798538Y-113112734D01*
X101809761Y-113105523D01*
X101844696Y-113100500D01*
X102015488Y-113100500D01*
X102071779Y-113114014D01*
X102155314Y-113156577D01*
X102250776Y-113205218D01*
X102250778Y-113205218D01*
X102250781Y-113205220D01*
X102355137Y-113239127D01*
X102445465Y-113268477D01*
X102546557Y-113284488D01*
X102647648Y-113300500D01*
X102647649Y-113300500D01*
X102852351Y-113300500D01*
X102852352Y-113300500D01*
X103054534Y-113268477D01*
X103249219Y-113205220D01*
X103365658Y-113145890D01*
X103434328Y-113132994D01*
X103499068Y-113159270D01*
X103531862Y-113198962D01*
X103560302Y-113253407D01*
X103688890Y-113411109D01*
X103782803Y-113487684D01*
X103846593Y-113539698D01*
X104026951Y-113633909D01*
X104222582Y-113689886D01*
X104341963Y-113700500D01*
X106658036Y-113700499D01*
X106777418Y-113689886D01*
X106973049Y-113633909D01*
X107153407Y-113539698D01*
X107311109Y-113411109D01*
X107439698Y-113253407D01*
X107464870Y-113205218D01*
X107484788Y-113167088D01*
X107533275Y-113116781D01*
X107594696Y-113100500D01*
X112405304Y-113100500D01*
X112472343Y-113120185D01*
X112515212Y-113167088D01*
X112535130Y-113205218D01*
X112560302Y-113253407D01*
X112618057Y-113324239D01*
X112688890Y-113411109D01*
X112782803Y-113487684D01*
X112846593Y-113539698D01*
X113026951Y-113633909D01*
X113222582Y-113689886D01*
X113341963Y-113700500D01*
X115658036Y-113700499D01*
X115777418Y-113689886D01*
X115973049Y-113633909D01*
X116153407Y-113539698D01*
X116311109Y-113411109D01*
X116439698Y-113253407D01*
X116533909Y-113073049D01*
X116589886Y-112877418D01*
X116600500Y-112758037D01*
X116600499Y-111241964D01*
X116589886Y-111122582D01*
X116533909Y-110926951D01*
X116439698Y-110746593D01*
X116387684Y-110682803D01*
X116311109Y-110588890D01*
X116153409Y-110460304D01*
X116153410Y-110460304D01*
X116153407Y-110460302D01*
X115973049Y-110366091D01*
X115973048Y-110366090D01*
X115973045Y-110366089D01*
X115855829Y-110332550D01*
X115777418Y-110310114D01*
X115777415Y-110310113D01*
X115777413Y-110310113D01*
X115711102Y-110304217D01*
X115658037Y-110299500D01*
X115658032Y-110299500D01*
X113341971Y-110299500D01*
X113341965Y-110299500D01*
X113341964Y-110299501D01*
X113330316Y-110300536D01*
X113222584Y-110310113D01*
X113026954Y-110366089D01*
X112936772Y-110413196D01*
X112846593Y-110460302D01*
X112846591Y-110460303D01*
X112846590Y-110460304D01*
X112688890Y-110588890D01*
X112560302Y-110746593D01*
X112560300Y-110746595D01*
X112515212Y-110832912D01*
X112466725Y-110883219D01*
X112405304Y-110899500D01*
X107594696Y-110899500D01*
X107527657Y-110879815D01*
X107484788Y-110832912D01*
X107439699Y-110746595D01*
X107439698Y-110746593D01*
X107368864Y-110659723D01*
X107311109Y-110588890D01*
X107153409Y-110460304D01*
X107153410Y-110460304D01*
X107153407Y-110460302D01*
X106973049Y-110366091D01*
X106973048Y-110366090D01*
X106973045Y-110366089D01*
X106855829Y-110332550D01*
X106777418Y-110310114D01*
X106777415Y-110310113D01*
X106777413Y-110310113D01*
X106711102Y-110304217D01*
X106658037Y-110299500D01*
X106658032Y-110299500D01*
X104341971Y-110299500D01*
X104341965Y-110299500D01*
X104341964Y-110299501D01*
X104330316Y-110300536D01*
X104222584Y-110310113D01*
X104026954Y-110366089D01*
X103936772Y-110413196D01*
X103846593Y-110460302D01*
X103846591Y-110460303D01*
X103846590Y-110460304D01*
X103688890Y-110588890D01*
X103560302Y-110746592D01*
X103531862Y-110801037D01*
X103483374Y-110851344D01*
X103415386Y-110867450D01*
X103365659Y-110854109D01*
X103249223Y-110794781D01*
X103054534Y-110731522D01*
X102879995Y-110703878D01*
X102852352Y-110699500D01*
X102647648Y-110699500D01*
X102623329Y-110703351D01*
X102445465Y-110731522D01*
X102250776Y-110794781D01*
X102139768Y-110851344D01*
X102071779Y-110885985D01*
X102058779Y-110889106D01*
X102050423Y-110894477D01*
X102015488Y-110899500D01*
X101844696Y-110899500D01*
X101777657Y-110879815D01*
X101734788Y-110832912D01*
X101689699Y-110746595D01*
X101689698Y-110746593D01*
X101618864Y-110659723D01*
X101561109Y-110588890D01*
X101403409Y-110460304D01*
X101403410Y-110460304D01*
X101403407Y-110460302D01*
X101223049Y-110366091D01*
X101223048Y-110366090D01*
X101223045Y-110366089D01*
X101105829Y-110332550D01*
X101027418Y-110310114D01*
X101027415Y-110310113D01*
X101027413Y-110310113D01*
X100961102Y-110304217D01*
X100908037Y-110299500D01*
X100908032Y-110299500D01*
X98591971Y-110299500D01*
X98591965Y-110299500D01*
X98591964Y-110299501D01*
X98580316Y-110300536D01*
X98472584Y-110310113D01*
X98276954Y-110366089D01*
X98186772Y-110413196D01*
X98096593Y-110460302D01*
X98096591Y-110460303D01*
X98096590Y-110460304D01*
X97938890Y-110588890D01*
X97810302Y-110746593D01*
X97810300Y-110746595D01*
X97765212Y-110832912D01*
X97716725Y-110883219D01*
X97655304Y-110899500D01*
X92844696Y-110899500D01*
X92777657Y-110879815D01*
X92734788Y-110832912D01*
X92689699Y-110746595D01*
X92689698Y-110746593D01*
X92618864Y-110659723D01*
X92561109Y-110588890D01*
X92403409Y-110460304D01*
X92403410Y-110460304D01*
X92403407Y-110460302D01*
X92223049Y-110366091D01*
X92223048Y-110366090D01*
X92223045Y-110366089D01*
X92105829Y-110332550D01*
X92027418Y-110310114D01*
X92027415Y-110310113D01*
X92027413Y-110310113D01*
X91961102Y-110304217D01*
X91908037Y-110299500D01*
X91908032Y-110299500D01*
X89591971Y-110299500D01*
X89591965Y-110299500D01*
X89591964Y-110299501D01*
X89580316Y-110300536D01*
X89472584Y-110310113D01*
X89276954Y-110366089D01*
X89186772Y-110413196D01*
X89096593Y-110460302D01*
X89096591Y-110460303D01*
X89096590Y-110460304D01*
X88938890Y-110588890D01*
X88810304Y-110746590D01*
X88716089Y-110926954D01*
X88660114Y-111122583D01*
X88660113Y-111122586D01*
X88649500Y-111241966D01*
X86001092Y-111241966D01*
X86002523Y-111240825D01*
X86240825Y-111002523D01*
X86450946Y-110739039D01*
X86630246Y-110453686D01*
X86776469Y-110150051D01*
X86887776Y-109831954D01*
X86887882Y-109831491D01*
X117499500Y-109831491D01*
X117499500Y-110168508D01*
X117537231Y-110503381D01*
X117537233Y-110503397D01*
X117612223Y-110831953D01*
X117612227Y-110831965D01*
X117723532Y-111150054D01*
X117869752Y-111453683D01*
X117869754Y-111453686D01*
X118049054Y-111739039D01*
X118167664Y-111887772D01*
X118227471Y-111962768D01*
X118259175Y-112002523D01*
X118497477Y-112240825D01*
X118760961Y-112450946D01*
X119046314Y-112630246D01*
X119349949Y-112776469D01*
X119588848Y-112860063D01*
X119668034Y-112887772D01*
X119668046Y-112887776D01*
X119996606Y-112962767D01*
X120331492Y-113000499D01*
X120331493Y-113000500D01*
X120331496Y-113000500D01*
X120668507Y-113000500D01*
X120668507Y-113000499D01*
X121003394Y-112962767D01*
X121331954Y-112887776D01*
X121650051Y-112776469D01*
X121953686Y-112630246D01*
X122239039Y-112450946D01*
X122502523Y-112240825D01*
X122740825Y-112002523D01*
X122950946Y-111739039D01*
X123130246Y-111453686D01*
X123276469Y-111150051D01*
X123387776Y-110831954D01*
X123462767Y-110503394D01*
X123500500Y-110168504D01*
X123500500Y-109831496D01*
X123462767Y-109496606D01*
X123387776Y-109168046D01*
X123276469Y-108849949D01*
X123162017Y-108612287D01*
X123130247Y-108546316D01*
X123109096Y-108512654D01*
X122950946Y-108260961D01*
X122740825Y-107997477D01*
X122502523Y-107759175D01*
X122239039Y-107549054D01*
X121953686Y-107369754D01*
X121953683Y-107369752D01*
X121650054Y-107223532D01*
X121331965Y-107112227D01*
X121331953Y-107112223D01*
X121003397Y-107037233D01*
X121003381Y-107037231D01*
X120668508Y-106999500D01*
X120668504Y-106999500D01*
X120331496Y-106999500D01*
X120331491Y-106999500D01*
X119996618Y-107037231D01*
X119996602Y-107037233D01*
X119668046Y-107112223D01*
X119668034Y-107112227D01*
X119349945Y-107223532D01*
X119046316Y-107369752D01*
X118760962Y-107549053D01*
X118497477Y-107759174D01*
X118259174Y-107997477D01*
X118049053Y-108260962D01*
X117869752Y-108546316D01*
X117723532Y-108849945D01*
X117612227Y-109168034D01*
X117612223Y-109168046D01*
X117537233Y-109496602D01*
X117537231Y-109496618D01*
X117499500Y-109831491D01*
X86887882Y-109831491D01*
X86962767Y-109503394D01*
X87000500Y-109168504D01*
X87000500Y-108831496D01*
X86962767Y-108496606D01*
X86887776Y-108168046D01*
X86776469Y-107849949D01*
X86630246Y-107546314D01*
X86450946Y-107260961D01*
X86240825Y-106997477D01*
X86002523Y-106759175D01*
X85739039Y-106549054D01*
X85501026Y-106399500D01*
X85453683Y-106369752D01*
X85150054Y-106223532D01*
X84831965Y-106112227D01*
X84831953Y-106112223D01*
X84503397Y-106037233D01*
X84503381Y-106037231D01*
X84168508Y-105999500D01*
X84168504Y-105999500D01*
X83831496Y-105999500D01*
X83831491Y-105999500D01*
X83496618Y-106037231D01*
X83496602Y-106037233D01*
X83168046Y-106112223D01*
X83168034Y-106112227D01*
X82849945Y-106223532D01*
X82546316Y-106369752D01*
X82260962Y-106549053D01*
X81997477Y-106759174D01*
X81759174Y-106997477D01*
X81549053Y-107260962D01*
X81369752Y-107546316D01*
X81223532Y-107849945D01*
X81112227Y-108168034D01*
X81112223Y-108168046D01*
X81037233Y-108496602D01*
X81037231Y-108496618D01*
X80999500Y-108831491D01*
X74340562Y-108831491D01*
X74393755Y-103299403D01*
X74414082Y-103232562D01*
X74467323Y-103187317D01*
X74536574Y-103178038D01*
X74599848Y-103207673D01*
X74637056Y-103266812D01*
X74640687Y-103284415D01*
X74650099Y-103355898D01*
X74653596Y-103382463D01*
X74696852Y-103543897D01*
X74711290Y-103597780D01*
X74711293Y-103597790D01*
X74796027Y-103802355D01*
X74796595Y-103803726D01*
X74908052Y-103996774D01*
X74908057Y-103996780D01*
X74908058Y-103996782D01*
X75043751Y-104173622D01*
X75043757Y-104173629D01*
X75201370Y-104331242D01*
X75201377Y-104331248D01*
X75327294Y-104427867D01*
X75378226Y-104466948D01*
X75571274Y-104578405D01*
X75777219Y-104663710D01*
X75992537Y-104721404D01*
X76213543Y-104750500D01*
X76213550Y-104750500D01*
X76436450Y-104750500D01*
X76436457Y-104750500D01*
X76657463Y-104721404D01*
X76872781Y-104663710D01*
X77078726Y-104578405D01*
X77271774Y-104466948D01*
X77448624Y-104331247D01*
X77606247Y-104173624D01*
X77741948Y-103996774D01*
X77853405Y-103803726D01*
X77938710Y-103597781D01*
X77996404Y-103382463D01*
X78025500Y-103161457D01*
X78025500Y-102338543D01*
X77996404Y-102117537D01*
X77938710Y-101902219D01*
X77853405Y-101696274D01*
X77741948Y-101503226D01*
X77606247Y-101326376D01*
X77606242Y-101326370D01*
X77448629Y-101168757D01*
X77448622Y-101168751D01*
X77271782Y-101033058D01*
X77271780Y-101033057D01*
X77271774Y-101033052D01*
X77078726Y-100921595D01*
X77078722Y-100921593D01*
X76872790Y-100836293D01*
X76872783Y-100836291D01*
X76872781Y-100836290D01*
X76657463Y-100778596D01*
X76657457Y-100778595D01*
X76657452Y-100778594D01*
X76436466Y-100749501D01*
X76436463Y-100749500D01*
X76436457Y-100749500D01*
X76213543Y-100749500D01*
X76213537Y-100749500D01*
X76213533Y-100749501D01*
X75992547Y-100778594D01*
X75992540Y-100778595D01*
X75992537Y-100778596D01*
X75950406Y-100789885D01*
X75777219Y-100836290D01*
X75777209Y-100836293D01*
X75571277Y-100921593D01*
X75571273Y-100921595D01*
X75378226Y-101033052D01*
X75378217Y-101033058D01*
X75201377Y-101168751D01*
X75201370Y-101168757D01*
X75043757Y-101326370D01*
X75043751Y-101326377D01*
X74908058Y-101503217D01*
X74908052Y-101503226D01*
X74796595Y-101696273D01*
X74796593Y-101696277D01*
X74711293Y-101902209D01*
X74711290Y-101902219D01*
X74698354Y-101950499D01*
X74653597Y-102117534D01*
X74653593Y-102117551D01*
X74652109Y-102128826D01*
X74623840Y-102192721D01*
X74565513Y-102231189D01*
X74495648Y-102232017D01*
X74436427Y-102194941D01*
X74406651Y-102131734D01*
X74405178Y-102111459D01*
X74589076Y-82986014D01*
X74609403Y-82919173D01*
X74662644Y-82873928D01*
X74731895Y-82864649D01*
X74795169Y-82894284D01*
X74830999Y-82948891D01*
X74841116Y-82980027D01*
X74844167Y-82986014D01*
X74930476Y-83155405D01*
X75046172Y-83314646D01*
X76546171Y-84814645D01*
X76546172Y-84814646D01*
X76685354Y-84953828D01*
X76844595Y-85069524D01*
X77019975Y-85158884D01*
X77019979Y-85158886D01*
X77100106Y-85184920D01*
X77146346Y-85199944D01*
X77146347Y-85199945D01*
X77146348Y-85199945D01*
X77207173Y-85219709D01*
X77280076Y-85231255D01*
X77401578Y-85250500D01*
X77401583Y-85250500D01*
X78437686Y-85250500D01*
X78504725Y-85270185D01*
X78550480Y-85322989D01*
X78558577Y-85346908D01*
X78612223Y-85581953D01*
X78612227Y-85581965D01*
X78723532Y-85900054D01*
X78869752Y-86203683D01*
X78869754Y-86203686D01*
X79049054Y-86489039D01*
X79147290Y-86612223D01*
X79236055Y-86723532D01*
X79259175Y-86752523D01*
X79497477Y-86990825D01*
X79760961Y-87200946D01*
X80046314Y-87380246D01*
X80349949Y-87526469D01*
X80588848Y-87610063D01*
X80668034Y-87637772D01*
X80668046Y-87637776D01*
X80996606Y-87712767D01*
X81331492Y-87750499D01*
X81331493Y-87750500D01*
X81331496Y-87750500D01*
X81668507Y-87750500D01*
X81668507Y-87750499D01*
X82003394Y-87712767D01*
X82331954Y-87637776D01*
X82650051Y-87526469D01*
X82953686Y-87380246D01*
X83239039Y-87200946D01*
X83502523Y-86990825D01*
X83740825Y-86752523D01*
X83950946Y-86489039D01*
X84130246Y-86203686D01*
X84276469Y-85900051D01*
X84387776Y-85581954D01*
X84462767Y-85253394D01*
X84465541Y-85228764D01*
X84492607Y-85164352D01*
X84532466Y-85132164D01*
X84655405Y-85069524D01*
X84814646Y-84953828D01*
X85327401Y-84441071D01*
X85388722Y-84407588D01*
X85458413Y-84412572D01*
X85490566Y-84430378D01*
X85538216Y-84466941D01*
X85538220Y-84466943D01*
X85538226Y-84466948D01*
X85731274Y-84578405D01*
X85937219Y-84663710D01*
X86152537Y-84721404D01*
X86373543Y-84750500D01*
X86373550Y-84750500D01*
X86596450Y-84750500D01*
X86596457Y-84750500D01*
X86817463Y-84721404D01*
X87032781Y-84663710D01*
X87238726Y-84578405D01*
X87431774Y-84466948D01*
X87608624Y-84331247D01*
X87667320Y-84272550D01*
X87728641Y-84239067D01*
X87798333Y-84244051D01*
X87842679Y-84272550D01*
X87888181Y-84318052D01*
X87901378Y-84331249D01*
X88000866Y-84407588D01*
X88078226Y-84466948D01*
X88271274Y-84578405D01*
X88477219Y-84663710D01*
X88692537Y-84721404D01*
X88913543Y-84750500D01*
X88913550Y-84750500D01*
X89136450Y-84750500D01*
X89136457Y-84750500D01*
X89357463Y-84721404D01*
X89572781Y-84663710D01*
X89778726Y-84578405D01*
X89971774Y-84466948D01*
X90148624Y-84331247D01*
X90207320Y-84272550D01*
X90268641Y-84239067D01*
X90338333Y-84244051D01*
X90382679Y-84272550D01*
X90428181Y-84318052D01*
X90441378Y-84331249D01*
X90540866Y-84407588D01*
X90618226Y-84466948D01*
X90811274Y-84578405D01*
X91017219Y-84663710D01*
X91232537Y-84721404D01*
X91453543Y-84750500D01*
X91453550Y-84750500D01*
X91676450Y-84750500D01*
X91676457Y-84750500D01*
X91897463Y-84721404D01*
X92112781Y-84663710D01*
X92318726Y-84578405D01*
X92511774Y-84466948D01*
X92688624Y-84331247D01*
X92747320Y-84272550D01*
X92808641Y-84239067D01*
X92878333Y-84244051D01*
X92922679Y-84272550D01*
X92968181Y-84318052D01*
X92981378Y-84331249D01*
X93080866Y-84407588D01*
X93158226Y-84466948D01*
X93351274Y-84578405D01*
X93557219Y-84663710D01*
X93772537Y-84721404D01*
X93993543Y-84750500D01*
X93993550Y-84750500D01*
X94216450Y-84750500D01*
X94216457Y-84750500D01*
X94437463Y-84721404D01*
X94652781Y-84663710D01*
X94858726Y-84578405D01*
X95051774Y-84466948D01*
X95228624Y-84331247D01*
X95287320Y-84272550D01*
X95348641Y-84239067D01*
X95418333Y-84244051D01*
X95462679Y-84272550D01*
X95508181Y-84318052D01*
X95521378Y-84331249D01*
X95620866Y-84407588D01*
X95698226Y-84466948D01*
X95891274Y-84578405D01*
X96097219Y-84663710D01*
X96312537Y-84721404D01*
X96533543Y-84750500D01*
X96533550Y-84750500D01*
X96756450Y-84750500D01*
X96756457Y-84750500D01*
X96977463Y-84721404D01*
X97192781Y-84663710D01*
X97398726Y-84578405D01*
X97591774Y-84466948D01*
X97768624Y-84331247D01*
X97827320Y-84272550D01*
X97835265Y-84268212D01*
X97840690Y-84260966D01*
X97865446Y-84251732D01*
X97888641Y-84239067D01*
X97897671Y-84239712D01*
X97906154Y-84236549D01*
X97931974Y-84242165D01*
X97958333Y-84244051D01*
X97967386Y-84249869D01*
X97974427Y-84251401D01*
X98002681Y-84272552D01*
X98048181Y-84318052D01*
X98081666Y-84379375D01*
X98084500Y-84405733D01*
X98084500Y-87053475D01*
X98064815Y-87120514D01*
X98012011Y-87166269D01*
X98001455Y-87170516D01*
X97849945Y-87223532D01*
X97546316Y-87369752D01*
X97260962Y-87549053D01*
X96997477Y-87759174D01*
X96771100Y-87985551D01*
X96709777Y-88019036D01*
X96640085Y-88014052D01*
X96584152Y-87972180D01*
X96578425Y-87963842D01*
X96568028Y-87947295D01*
X96450946Y-87760961D01*
X96240825Y-87497477D01*
X96002523Y-87259175D01*
X95739039Y-87049054D01*
X95453686Y-86869754D01*
X95453683Y-86869752D01*
X95150054Y-86723532D01*
X94831965Y-86612227D01*
X94831953Y-86612223D01*
X94503397Y-86537233D01*
X94503381Y-86537231D01*
X94168508Y-86499500D01*
X94168504Y-86499500D01*
X93831496Y-86499500D01*
X93831491Y-86499500D01*
X93496618Y-86537231D01*
X93496602Y-86537233D01*
X93168046Y-86612223D01*
X93168034Y-86612227D01*
X92849945Y-86723532D01*
X92546316Y-86869752D01*
X92260962Y-87049053D01*
X91997477Y-87259174D01*
X91759174Y-87497477D01*
X91549053Y-87760962D01*
X91369752Y-88046316D01*
X91223532Y-88349945D01*
X91112227Y-88668034D01*
X91112223Y-88668046D01*
X91037233Y-88996602D01*
X91037231Y-88996618D01*
X90999500Y-89331491D01*
X90999500Y-89668508D01*
X91037231Y-90003381D01*
X91037233Y-90003397D01*
X91112223Y-90331953D01*
X91112227Y-90331965D01*
X91223532Y-90650054D01*
X91369752Y-90953683D01*
X91369754Y-90953686D01*
X91549054Y-91239039D01*
X91664125Y-91383334D01*
X91741981Y-91480963D01*
X91759175Y-91502523D01*
X91997477Y-91740825D01*
X92260961Y-91950946D01*
X92546314Y-92130246D01*
X92849949Y-92276469D01*
X93088848Y-92360063D01*
X93168034Y-92387772D01*
X93168046Y-92387776D01*
X93496606Y-92462767D01*
X93831492Y-92500499D01*
X93831493Y-92500500D01*
X93831496Y-92500500D01*
X94168507Y-92500500D01*
X94168507Y-92500499D01*
X94503394Y-92462767D01*
X94831954Y-92387776D01*
X95150051Y-92276469D01*
X95453686Y-92130246D01*
X95739039Y-91950946D01*
X96002523Y-91740825D01*
X96228901Y-91514446D01*
X96290222Y-91480963D01*
X96359913Y-91485947D01*
X96415847Y-91527818D01*
X96421574Y-91536157D01*
X96549054Y-91739039D01*
X96759175Y-92002523D01*
X96997477Y-92240825D01*
X97260961Y-92450946D01*
X97546314Y-92630246D01*
X97849949Y-92776469D01*
X98012617Y-92833389D01*
X98168034Y-92887772D01*
X98168046Y-92887776D01*
X98496606Y-92962767D01*
X98831492Y-93000499D01*
X98831493Y-93000500D01*
X98831496Y-93000500D01*
X99168507Y-93000500D01*
X99168507Y-93000499D01*
X99503394Y-92962767D01*
X99831954Y-92887776D01*
X100150051Y-92776469D01*
X100453686Y-92630246D01*
X100739039Y-92450946D01*
X101002523Y-92240825D01*
X101240825Y-92002523D01*
X101403053Y-91799094D01*
X101460241Y-91758954D01*
X101530052Y-91756104D01*
X101590322Y-91791449D01*
X101596947Y-91799095D01*
X101759168Y-92002516D01*
X101759174Y-92002522D01*
X101759175Y-92002523D01*
X101997477Y-92240825D01*
X102260961Y-92450946D01*
X102546314Y-92630246D01*
X102849949Y-92776469D01*
X103012617Y-92833389D01*
X103168034Y-92887772D01*
X103168046Y-92887776D01*
X103496606Y-92962767D01*
X103831492Y-93000499D01*
X103831493Y-93000500D01*
X103831496Y-93000500D01*
X104168507Y-93000500D01*
X104168507Y-93000499D01*
X104236454Y-92992843D01*
X104261616Y-92990009D01*
X104330438Y-93002063D01*
X104381818Y-93049412D01*
X104399500Y-93113229D01*
X104399500Y-100625500D01*
X104379815Y-100692539D01*
X104327011Y-100738294D01*
X104275500Y-100749500D01*
X104153543Y-100749500D01*
X104153537Y-100749500D01*
X104153533Y-100749501D01*
X103932547Y-100778594D01*
X103932540Y-100778595D01*
X103932537Y-100778596D01*
X103890406Y-100789885D01*
X103717219Y-100836290D01*
X103717209Y-100836293D01*
X103511277Y-100921593D01*
X103511273Y-100921595D01*
X103318226Y-101033052D01*
X103318217Y-101033058D01*
X103141377Y-101168751D01*
X103141370Y-101168757D01*
X103082681Y-101227447D01*
X103021358Y-101260932D01*
X102951666Y-101255948D01*
X102907319Y-101227447D01*
X102848629Y-101168757D01*
X102848622Y-101168751D01*
X102671782Y-101033058D01*
X102671780Y-101033057D01*
X102671774Y-101033052D01*
X102478726Y-100921595D01*
X102478722Y-100921593D01*
X102272790Y-100836293D01*
X102272783Y-100836291D01*
X102272781Y-100836290D01*
X102057463Y-100778596D01*
X102057457Y-100778595D01*
X102057452Y-100778594D01*
X101836466Y-100749501D01*
X101836463Y-100749500D01*
X101836457Y-100749500D01*
X101613543Y-100749500D01*
X101613537Y-100749500D01*
X101613533Y-100749501D01*
X101392547Y-100778594D01*
X101392540Y-100778595D01*
X101392537Y-100778596D01*
X101350406Y-100789885D01*
X101177219Y-100836290D01*
X101177209Y-100836293D01*
X100971277Y-100921593D01*
X100971273Y-100921595D01*
X100778226Y-101033052D01*
X100778217Y-101033058D01*
X100601377Y-101168751D01*
X100601370Y-101168757D01*
X100542681Y-101227447D01*
X100481358Y-101260932D01*
X100411666Y-101255948D01*
X100367319Y-101227447D01*
X100308629Y-101168757D01*
X100308622Y-101168751D01*
X100131782Y-101033058D01*
X100131780Y-101033057D01*
X100131774Y-101033052D01*
X99938726Y-100921595D01*
X99938722Y-100921593D01*
X99732790Y-100836293D01*
X99732783Y-100836291D01*
X99732781Y-100836290D01*
X99517463Y-100778596D01*
X99517457Y-100778595D01*
X99517452Y-100778594D01*
X99296466Y-100749501D01*
X99296463Y-100749500D01*
X99296457Y-100749500D01*
X99073543Y-100749500D01*
X99073537Y-100749500D01*
X99073533Y-100749501D01*
X98852547Y-100778594D01*
X98852540Y-100778595D01*
X98852537Y-100778596D01*
X98810406Y-100789885D01*
X98637219Y-100836290D01*
X98637209Y-100836293D01*
X98431277Y-100921593D01*
X98431273Y-100921595D01*
X98238226Y-101033052D01*
X98238217Y-101033058D01*
X98061377Y-101168751D01*
X98061370Y-101168757D01*
X98002681Y-101227447D01*
X97941358Y-101260932D01*
X97871666Y-101255948D01*
X97827319Y-101227447D01*
X97768629Y-101168757D01*
X97768622Y-101168751D01*
X97591782Y-101033058D01*
X97591780Y-101033057D01*
X97591774Y-101033052D01*
X97398726Y-100921595D01*
X97398722Y-100921593D01*
X97192790Y-100836293D01*
X97192783Y-100836291D01*
X97192781Y-100836290D01*
X96977463Y-100778596D01*
X96977457Y-100778595D01*
X96977452Y-100778594D01*
X96756466Y-100749501D01*
X96756463Y-100749500D01*
X96756457Y-100749500D01*
X96533543Y-100749500D01*
X96533537Y-100749500D01*
X96533533Y-100749501D01*
X96312547Y-100778594D01*
X96312540Y-100778595D01*
X96312537Y-100778596D01*
X96270406Y-100789885D01*
X96097219Y-100836290D01*
X96097209Y-100836293D01*
X95891277Y-100921593D01*
X95891273Y-100921595D01*
X95698226Y-101033052D01*
X95698217Y-101033058D01*
X95521377Y-101168751D01*
X95521370Y-101168757D01*
X95462681Y-101227447D01*
X95401358Y-101260932D01*
X95331666Y-101255948D01*
X95287319Y-101227447D01*
X95228629Y-101168757D01*
X95228622Y-101168751D01*
X95051782Y-101033058D01*
X95051780Y-101033057D01*
X95051774Y-101033052D01*
X94858726Y-100921595D01*
X94858722Y-100921593D01*
X94652790Y-100836293D01*
X94652783Y-100836291D01*
X94652781Y-100836290D01*
X94437463Y-100778596D01*
X94437457Y-100778595D01*
X94437452Y-100778594D01*
X94216466Y-100749501D01*
X94216463Y-100749500D01*
X94216457Y-100749500D01*
X93993543Y-100749500D01*
X93993537Y-100749500D01*
X93993533Y-100749501D01*
X93772547Y-100778594D01*
X93772540Y-100778595D01*
X93772537Y-100778596D01*
X93730406Y-100789885D01*
X93557219Y-100836290D01*
X93557209Y-100836293D01*
X93351277Y-100921593D01*
X93351273Y-100921595D01*
X93158226Y-101033052D01*
X93158217Y-101033058D01*
X92981377Y-101168751D01*
X92981370Y-101168757D01*
X92922681Y-101227447D01*
X92861358Y-101260932D01*
X92791666Y-101255948D01*
X92747319Y-101227447D01*
X92688629Y-101168757D01*
X92688622Y-101168751D01*
X92511782Y-101033058D01*
X92511780Y-101033057D01*
X92511774Y-101033052D01*
X92318726Y-100921595D01*
X92318722Y-100921593D01*
X92112790Y-100836293D01*
X92112783Y-100836291D01*
X92112781Y-100836290D01*
X91897463Y-100778596D01*
X91897457Y-100778595D01*
X91897452Y-100778594D01*
X91676466Y-100749501D01*
X91676463Y-100749500D01*
X91676457Y-100749500D01*
X91453543Y-100749500D01*
X91453537Y-100749500D01*
X91453533Y-100749501D01*
X91232547Y-100778594D01*
X91232540Y-100778595D01*
X91232537Y-100778596D01*
X91190406Y-100789885D01*
X91017219Y-100836290D01*
X91017209Y-100836293D01*
X90811277Y-100921593D01*
X90811273Y-100921595D01*
X90618226Y-101033052D01*
X90618217Y-101033058D01*
X90441377Y-101168751D01*
X90441370Y-101168757D01*
X90382681Y-101227447D01*
X90321358Y-101260932D01*
X90251666Y-101255948D01*
X90207319Y-101227447D01*
X90148629Y-101168757D01*
X90148622Y-101168751D01*
X89971782Y-101033058D01*
X89971780Y-101033057D01*
X89971774Y-101033052D01*
X89778726Y-100921595D01*
X89778722Y-100921593D01*
X89572790Y-100836293D01*
X89572783Y-100836291D01*
X89572781Y-100836290D01*
X89357463Y-100778596D01*
X89357457Y-100778595D01*
X89357452Y-100778594D01*
X89136466Y-100749501D01*
X89136463Y-100749500D01*
X89136457Y-100749500D01*
X88913543Y-100749500D01*
X88913537Y-100749500D01*
X88913533Y-100749501D01*
X88692547Y-100778594D01*
X88692540Y-100778595D01*
X88692537Y-100778596D01*
X88650406Y-100789885D01*
X88477219Y-100836290D01*
X88477209Y-100836293D01*
X88271277Y-100921593D01*
X88271273Y-100921595D01*
X88078226Y-101033052D01*
X88078217Y-101033058D01*
X87901377Y-101168751D01*
X87901370Y-101168757D01*
X87842681Y-101227447D01*
X87781358Y-101260932D01*
X87711666Y-101255948D01*
X87667319Y-101227447D01*
X87608629Y-101168757D01*
X87608622Y-101168751D01*
X87431782Y-101033058D01*
X87431780Y-101033057D01*
X87431774Y-101033052D01*
X87238726Y-100921595D01*
X87238722Y-100921593D01*
X87032790Y-100836293D01*
X87032783Y-100836291D01*
X87032781Y-100836290D01*
X86817463Y-100778596D01*
X86817457Y-100778595D01*
X86817452Y-100778594D01*
X86596466Y-100749501D01*
X86596463Y-100749500D01*
X86596457Y-100749500D01*
X86373543Y-100749500D01*
X86373537Y-100749500D01*
X86373533Y-100749501D01*
X86152547Y-100778594D01*
X86152540Y-100778595D01*
X86152537Y-100778596D01*
X86110406Y-100789885D01*
X85937219Y-100836290D01*
X85937209Y-100836293D01*
X85731277Y-100921593D01*
X85731273Y-100921595D01*
X85538226Y-101033052D01*
X85538217Y-101033058D01*
X85361377Y-101168751D01*
X85361370Y-101168757D01*
X85302681Y-101227447D01*
X85241358Y-101260932D01*
X85171666Y-101255948D01*
X85127319Y-101227447D01*
X85068629Y-101168757D01*
X85068622Y-101168751D01*
X84891782Y-101033058D01*
X84891780Y-101033057D01*
X84891774Y-101033052D01*
X84698726Y-100921595D01*
X84698722Y-100921593D01*
X84492790Y-100836293D01*
X84492783Y-100836291D01*
X84492781Y-100836290D01*
X84277463Y-100778596D01*
X84277457Y-100778595D01*
X84277452Y-100778594D01*
X84056466Y-100749501D01*
X84056463Y-100749500D01*
X84056457Y-100749500D01*
X83833543Y-100749500D01*
X83833537Y-100749500D01*
X83833533Y-100749501D01*
X83612547Y-100778594D01*
X83612540Y-100778595D01*
X83612537Y-100778596D01*
X83570406Y-100789885D01*
X83397219Y-100836290D01*
X83397209Y-100836293D01*
X83191277Y-100921593D01*
X83191273Y-100921595D01*
X82998226Y-101033052D01*
X82998217Y-101033058D01*
X82821377Y-101168751D01*
X82821370Y-101168757D01*
X82762681Y-101227447D01*
X82701358Y-101260932D01*
X82631666Y-101255948D01*
X82587319Y-101227447D01*
X82528629Y-101168757D01*
X82528622Y-101168751D01*
X82351782Y-101033058D01*
X82351780Y-101033057D01*
X82351774Y-101033052D01*
X82158726Y-100921595D01*
X82158722Y-100921593D01*
X81952790Y-100836293D01*
X81952783Y-100836291D01*
X81952781Y-100836290D01*
X81737463Y-100778596D01*
X81737457Y-100778595D01*
X81737452Y-100778594D01*
X81516466Y-100749501D01*
X81516463Y-100749500D01*
X81516457Y-100749500D01*
X81293543Y-100749500D01*
X81293537Y-100749500D01*
X81293533Y-100749501D01*
X81072547Y-100778594D01*
X81072540Y-100778595D01*
X81072537Y-100778596D01*
X81030406Y-100789885D01*
X80857219Y-100836290D01*
X80857209Y-100836293D01*
X80651277Y-100921593D01*
X80651273Y-100921595D01*
X80458226Y-101033052D01*
X80458217Y-101033058D01*
X80281377Y-101168751D01*
X80281370Y-101168757D01*
X80123757Y-101326370D01*
X80123751Y-101326377D01*
X79988058Y-101503217D01*
X79988052Y-101503226D01*
X79876595Y-101696273D01*
X79876593Y-101696277D01*
X79791293Y-101902209D01*
X79791290Y-101902219D01*
X79778354Y-101950499D01*
X79733597Y-102117534D01*
X79733594Y-102117547D01*
X79704501Y-102338533D01*
X79704500Y-102338549D01*
X79704500Y-103161450D01*
X79704501Y-103161466D01*
X79733594Y-103382452D01*
X79733595Y-103382457D01*
X79733596Y-103382463D01*
X79776852Y-103543897D01*
X79791290Y-103597780D01*
X79791293Y-103597790D01*
X79876027Y-103802355D01*
X79876595Y-103803726D01*
X79988052Y-103996774D01*
X79988057Y-103996780D01*
X79988058Y-103996782D01*
X80123751Y-104173622D01*
X80123757Y-104173629D01*
X80281370Y-104331242D01*
X80281377Y-104331248D01*
X80407294Y-104427867D01*
X80458226Y-104466948D01*
X80651274Y-104578405D01*
X80857219Y-104663710D01*
X81072537Y-104721404D01*
X81293543Y-104750500D01*
X81293550Y-104750500D01*
X81516450Y-104750500D01*
X81516457Y-104750500D01*
X81737463Y-104721404D01*
X81952781Y-104663710D01*
X82158726Y-104578405D01*
X82351774Y-104466948D01*
X82528624Y-104331247D01*
X82587320Y-104272550D01*
X82648641Y-104239067D01*
X82718333Y-104244051D01*
X82762679Y-104272550D01*
X82807683Y-104317554D01*
X82821378Y-104331249D01*
X82968473Y-104444118D01*
X82998226Y-104466948D01*
X83191274Y-104578405D01*
X83397219Y-104663710D01*
X83612537Y-104721404D01*
X83833543Y-104750500D01*
X83833550Y-104750500D01*
X84056450Y-104750500D01*
X84056457Y-104750500D01*
X84277463Y-104721404D01*
X84492781Y-104663710D01*
X84698726Y-104578405D01*
X84891774Y-104466948D01*
X85068624Y-104331247D01*
X85127320Y-104272550D01*
X85188641Y-104239067D01*
X85258333Y-104244051D01*
X85302679Y-104272550D01*
X85347683Y-104317554D01*
X85361378Y-104331249D01*
X85508473Y-104444118D01*
X85538226Y-104466948D01*
X85731274Y-104578405D01*
X85937219Y-104663710D01*
X86152537Y-104721404D01*
X86373543Y-104750500D01*
X86373550Y-104750500D01*
X86596450Y-104750500D01*
X86596457Y-104750500D01*
X86817463Y-104721404D01*
X87032781Y-104663710D01*
X87238726Y-104578405D01*
X87431774Y-104466948D01*
X87608624Y-104331247D01*
X87667320Y-104272550D01*
X87728641Y-104239067D01*
X87798333Y-104244051D01*
X87842679Y-104272550D01*
X87887683Y-104317554D01*
X87901378Y-104331249D01*
X88048473Y-104444118D01*
X88078226Y-104466948D01*
X88271274Y-104578405D01*
X88477219Y-104663710D01*
X88692537Y-104721404D01*
X88913543Y-104750500D01*
X88913550Y-104750500D01*
X89136450Y-104750500D01*
X89136457Y-104750500D01*
X89357463Y-104721404D01*
X89572781Y-104663710D01*
X89778726Y-104578405D01*
X89971774Y-104466948D01*
X90148624Y-104331247D01*
X90207320Y-104272550D01*
X90268641Y-104239067D01*
X90338333Y-104244051D01*
X90382679Y-104272550D01*
X90427683Y-104317554D01*
X90441378Y-104331249D01*
X90588473Y-104444118D01*
X90618226Y-104466948D01*
X90811274Y-104578405D01*
X91017219Y-104663710D01*
X91232537Y-104721404D01*
X91453543Y-104750500D01*
X91453550Y-104750500D01*
X91676450Y-104750500D01*
X91676457Y-104750500D01*
X91897463Y-104721404D01*
X92112781Y-104663710D01*
X92318726Y-104578405D01*
X92511774Y-104466948D01*
X92688624Y-104331247D01*
X92747320Y-104272550D01*
X92808641Y-104239067D01*
X92878333Y-104244051D01*
X92922679Y-104272550D01*
X92967683Y-104317554D01*
X92981378Y-104331249D01*
X93128473Y-104444118D01*
X93158226Y-104466948D01*
X93351274Y-104578405D01*
X93557219Y-104663710D01*
X93772537Y-104721404D01*
X93993543Y-104750500D01*
X93993550Y-104750500D01*
X94216450Y-104750500D01*
X94216457Y-104750500D01*
X94437463Y-104721404D01*
X94652781Y-104663710D01*
X94858726Y-104578405D01*
X95051774Y-104466948D01*
X95228624Y-104331247D01*
X95287320Y-104272550D01*
X95348641Y-104239067D01*
X95418333Y-104244051D01*
X95462679Y-104272550D01*
X95507683Y-104317554D01*
X95521378Y-104331249D01*
X95668473Y-104444118D01*
X95698226Y-104466948D01*
X95891274Y-104578405D01*
X96097219Y-104663710D01*
X96312537Y-104721404D01*
X96533543Y-104750500D01*
X96533550Y-104750500D01*
X96756450Y-104750500D01*
X96756457Y-104750500D01*
X96977463Y-104721404D01*
X97192781Y-104663710D01*
X97398726Y-104578405D01*
X97591774Y-104466948D01*
X97768624Y-104331247D01*
X97827320Y-104272550D01*
X97888641Y-104239067D01*
X97958333Y-104244051D01*
X98002679Y-104272550D01*
X98047683Y-104317554D01*
X98061378Y-104331249D01*
X98208473Y-104444118D01*
X98238226Y-104466948D01*
X98431274Y-104578405D01*
X98637219Y-104663710D01*
X98852537Y-104721404D01*
X99073543Y-104750500D01*
X99073550Y-104750500D01*
X99296450Y-104750500D01*
X99296457Y-104750500D01*
X99517463Y-104721404D01*
X99732781Y-104663710D01*
X99938726Y-104578405D01*
X100131774Y-104466948D01*
X100308624Y-104331247D01*
X100367320Y-104272550D01*
X100428641Y-104239067D01*
X100498333Y-104244051D01*
X100542679Y-104272550D01*
X100587683Y-104317554D01*
X100601378Y-104331249D01*
X100748473Y-104444118D01*
X100778226Y-104466948D01*
X100971274Y-104578405D01*
X101177219Y-104663710D01*
X101392537Y-104721404D01*
X101613543Y-104750500D01*
X101613550Y-104750500D01*
X101836450Y-104750500D01*
X101836457Y-104750500D01*
X102057463Y-104721404D01*
X102272781Y-104663710D01*
X102478726Y-104578405D01*
X102671774Y-104466948D01*
X102848624Y-104331247D01*
X102907320Y-104272550D01*
X102968641Y-104239067D01*
X103038333Y-104244051D01*
X103082679Y-104272550D01*
X103127683Y-104317554D01*
X103141378Y-104331249D01*
X103288473Y-104444118D01*
X103318226Y-104466948D01*
X103511274Y-104578405D01*
X103717219Y-104663710D01*
X103932537Y-104721404D01*
X104153543Y-104750500D01*
X104153550Y-104750500D01*
X104275500Y-104750500D01*
X104342539Y-104770185D01*
X104388294Y-104822989D01*
X104399500Y-104874500D01*
X104399500Y-105680920D01*
X104379815Y-105747959D01*
X104327011Y-105793714D01*
X104286481Y-105804433D01*
X104222584Y-105810113D01*
X104026954Y-105866089D01*
X103936772Y-105913196D01*
X103846593Y-105960302D01*
X103846591Y-105960303D01*
X103846590Y-105960304D01*
X103688890Y-106088890D01*
X103560304Y-106246590D01*
X103560302Y-106246593D01*
X103497404Y-106367005D01*
X103469221Y-106420959D01*
X103420734Y-106471266D01*
X103352746Y-106487373D01*
X103286843Y-106464166D01*
X103286427Y-106463866D01*
X103181609Y-106387712D01*
X102999223Y-106294781D01*
X102804534Y-106231522D01*
X102629995Y-106203878D01*
X102602352Y-106199500D01*
X102397648Y-106199500D01*
X102373329Y-106203351D01*
X102195465Y-106231522D01*
X102000773Y-106294782D01*
X101884339Y-106354109D01*
X101815670Y-106367005D01*
X101750930Y-106340728D01*
X101718137Y-106301036D01*
X101689699Y-106246595D01*
X101689698Y-106246593D01*
X101618864Y-106159723D01*
X101561109Y-106088890D01*
X101403409Y-105960304D01*
X101403410Y-105960304D01*
X101403407Y-105960302D01*
X101223049Y-105866091D01*
X101223048Y-105866090D01*
X101223045Y-105866089D01*
X101105829Y-105832550D01*
X101027418Y-105810114D01*
X101027415Y-105810113D01*
X101027413Y-105810113D01*
X100961102Y-105804217D01*
X100908037Y-105799500D01*
X100908032Y-105799500D01*
X98591971Y-105799500D01*
X98591965Y-105799500D01*
X98591964Y-105799501D01*
X98580316Y-105800536D01*
X98472584Y-105810113D01*
X98276954Y-105866089D01*
X98186772Y-105913196D01*
X98096593Y-105960302D01*
X98096591Y-105960303D01*
X98096590Y-105960304D01*
X97938890Y-106088890D01*
X97810302Y-106246593D01*
X97810300Y-106246595D01*
X97765212Y-106332912D01*
X97716725Y-106383219D01*
X97655304Y-106399500D01*
X92844696Y-106399500D01*
X92777657Y-106379815D01*
X92734788Y-106332912D01*
X92689699Y-106246595D01*
X92689698Y-106246593D01*
X92618864Y-106159723D01*
X92561109Y-106088890D01*
X92403409Y-105960304D01*
X92403410Y-105960304D01*
X92403407Y-105960302D01*
X92223049Y-105866091D01*
X92223048Y-105866090D01*
X92223045Y-105866089D01*
X92105829Y-105832550D01*
X92027418Y-105810114D01*
X92027415Y-105810113D01*
X92027413Y-105810113D01*
X91961102Y-105804217D01*
X91908037Y-105799500D01*
X91908032Y-105799500D01*
X89591971Y-105799500D01*
X89591965Y-105799500D01*
X89591964Y-105799501D01*
X89580316Y-105800536D01*
X89472584Y-105810113D01*
X89276954Y-105866089D01*
X89186772Y-105913196D01*
X89096593Y-105960302D01*
X89096591Y-105960303D01*
X89096590Y-105960304D01*
X88938890Y-106088890D01*
X88810304Y-106246590D01*
X88810302Y-106246593D01*
X88765213Y-106332912D01*
X88716089Y-106426954D01*
X88660114Y-106622583D01*
X88660113Y-106622586D01*
X88649500Y-106741966D01*
X88649500Y-108258031D01*
X88660113Y-108377415D01*
X88716089Y-108573045D01*
X88716090Y-108573048D01*
X88716091Y-108573049D01*
X88810302Y-108753407D01*
X88810304Y-108753409D01*
X88938890Y-108911109D01*
X89032803Y-108987684D01*
X89096593Y-109039698D01*
X89276951Y-109133909D01*
X89472582Y-109189886D01*
X89591963Y-109200500D01*
X91908036Y-109200499D01*
X92027418Y-109189886D01*
X92223049Y-109133909D01*
X92403407Y-109039698D01*
X92561109Y-108911109D01*
X92689698Y-108753407D01*
X92718137Y-108698964D01*
X92734788Y-108667088D01*
X92783275Y-108616781D01*
X92844696Y-108600500D01*
X97655304Y-108600500D01*
X97722343Y-108620185D01*
X97765212Y-108667088D01*
X97781863Y-108698964D01*
X97810302Y-108753407D01*
X97868057Y-108824239D01*
X97938890Y-108911109D01*
X98032803Y-108987684D01*
X98096593Y-109039698D01*
X98276951Y-109133909D01*
X98472582Y-109189886D01*
X98591963Y-109200500D01*
X100908036Y-109200499D01*
X101027418Y-109189886D01*
X101223049Y-109133909D01*
X101403407Y-109039698D01*
X101561109Y-108911109D01*
X101689698Y-108753407D01*
X101718137Y-108698962D01*
X101766623Y-108648656D01*
X101834610Y-108632549D01*
X101884338Y-108645889D01*
X101889768Y-108648656D01*
X102000776Y-108705218D01*
X102000778Y-108705218D01*
X102000781Y-108705220D01*
X102105137Y-108739127D01*
X102195465Y-108768477D01*
X102296557Y-108784488D01*
X102397648Y-108800500D01*
X102397649Y-108800500D01*
X102602351Y-108800500D01*
X102602352Y-108800500D01*
X102804534Y-108768477D01*
X102999219Y-108705220D01*
X103181610Y-108612287D01*
X103272415Y-108546314D01*
X103286427Y-108536134D01*
X103352233Y-108512654D01*
X103420287Y-108528480D01*
X103468982Y-108578585D01*
X103469118Y-108578845D01*
X103560302Y-108753407D01*
X103560304Y-108753409D01*
X103688890Y-108911109D01*
X103782803Y-108987684D01*
X103846593Y-109039698D01*
X104026951Y-109133909D01*
X104222582Y-109189886D01*
X104341963Y-109200500D01*
X106658036Y-109200499D01*
X106777418Y-109189886D01*
X106973049Y-109133909D01*
X107153407Y-109039698D01*
X107311109Y-108911109D01*
X107439698Y-108753407D01*
X107468137Y-108698964D01*
X107484788Y-108667088D01*
X107533275Y-108616781D01*
X107594696Y-108600500D01*
X112405304Y-108600500D01*
X112472343Y-108620185D01*
X112515212Y-108667088D01*
X112531863Y-108698964D01*
X112560302Y-108753407D01*
X112618057Y-108824239D01*
X112688890Y-108911109D01*
X112782803Y-108987684D01*
X112846593Y-109039698D01*
X113026951Y-109133909D01*
X113222582Y-109189886D01*
X113341963Y-109200500D01*
X115658036Y-109200499D01*
X115777418Y-109189886D01*
X115973049Y-109133909D01*
X116153407Y-109039698D01*
X116311109Y-108911109D01*
X116439698Y-108753407D01*
X116533909Y-108573049D01*
X116589886Y-108377418D01*
X116600500Y-108258037D01*
X116600499Y-106741964D01*
X116589886Y-106622582D01*
X116533909Y-106426951D01*
X116439698Y-106246593D01*
X116387684Y-106182803D01*
X116311109Y-106088890D01*
X116153409Y-105960304D01*
X116153410Y-105960304D01*
X116153407Y-105960302D01*
X115973049Y-105866091D01*
X115973048Y-105866090D01*
X115973045Y-105866089D01*
X115855829Y-105832550D01*
X115777418Y-105810114D01*
X115777415Y-105810113D01*
X115777413Y-105810113D01*
X115711102Y-105804217D01*
X115658037Y-105799500D01*
X115658032Y-105799500D01*
X113341971Y-105799500D01*
X113341965Y-105799500D01*
X113341964Y-105799501D01*
X113330316Y-105800536D01*
X113222584Y-105810113D01*
X113026954Y-105866089D01*
X112936772Y-105913196D01*
X112846593Y-105960302D01*
X112846591Y-105960303D01*
X112846590Y-105960304D01*
X112688890Y-106088890D01*
X112560302Y-106246593D01*
X112560300Y-106246595D01*
X112515212Y-106332912D01*
X112466725Y-106383219D01*
X112405304Y-106399500D01*
X107594696Y-106399500D01*
X107527657Y-106379815D01*
X107484788Y-106332912D01*
X107439699Y-106246595D01*
X107439698Y-106246593D01*
X107368864Y-106159723D01*
X107311109Y-106088890D01*
X107153409Y-105960304D01*
X107153410Y-105960304D01*
X107153407Y-105960302D01*
X106973049Y-105866091D01*
X106973048Y-105866090D01*
X106973045Y-105866089D01*
X106855829Y-105832550D01*
X106777418Y-105810114D01*
X106777415Y-105810113D01*
X106777413Y-105810113D01*
X106728621Y-105805775D01*
X106713518Y-105804432D01*
X106648486Y-105778889D01*
X106607587Y-105722240D01*
X106600500Y-105680920D01*
X106600500Y-104874500D01*
X106620185Y-104807461D01*
X106672989Y-104761706D01*
X106724500Y-104750500D01*
X106916450Y-104750500D01*
X106916457Y-104750500D01*
X107137463Y-104721404D01*
X107352781Y-104663710D01*
X107558726Y-104578405D01*
X107751774Y-104466948D01*
X107928624Y-104331247D01*
X107987320Y-104272550D01*
X108048641Y-104239067D01*
X108118333Y-104244051D01*
X108162679Y-104272550D01*
X108207683Y-104317554D01*
X108221378Y-104331249D01*
X108368473Y-104444118D01*
X108398226Y-104466948D01*
X108591274Y-104578405D01*
X108797219Y-104663710D01*
X109012537Y-104721404D01*
X109233543Y-104750500D01*
X109233550Y-104750500D01*
X109456450Y-104750500D01*
X109456457Y-104750500D01*
X109677463Y-104721404D01*
X109892781Y-104663710D01*
X110098726Y-104578405D01*
X110291774Y-104466948D01*
X110468624Y-104331247D01*
X110527320Y-104272550D01*
X110588641Y-104239067D01*
X110658333Y-104244051D01*
X110702679Y-104272550D01*
X110747683Y-104317554D01*
X110761378Y-104331249D01*
X110908473Y-104444118D01*
X110938226Y-104466948D01*
X111131274Y-104578405D01*
X111337219Y-104663710D01*
X111552537Y-104721404D01*
X111773543Y-104750500D01*
X111773550Y-104750500D01*
X111996450Y-104750500D01*
X111996457Y-104750500D01*
X112217463Y-104721404D01*
X112432781Y-104663710D01*
X112638726Y-104578405D01*
X112831774Y-104466948D01*
X113008624Y-104331247D01*
X113067320Y-104272550D01*
X113128641Y-104239067D01*
X113198333Y-104244051D01*
X113242679Y-104272550D01*
X113287683Y-104317554D01*
X113301378Y-104331249D01*
X113448473Y-104444118D01*
X113478226Y-104466948D01*
X113671274Y-104578405D01*
X113877219Y-104663710D01*
X114092537Y-104721404D01*
X114313543Y-104750500D01*
X114313550Y-104750500D01*
X114536450Y-104750500D01*
X114536457Y-104750500D01*
X114757463Y-104721404D01*
X114972781Y-104663710D01*
X115178726Y-104578405D01*
X115371774Y-104466948D01*
X115548624Y-104331247D01*
X115562318Y-104317552D01*
X115623638Y-104284068D01*
X115693330Y-104289050D01*
X115737681Y-104317552D01*
X115751376Y-104331247D01*
X115928226Y-104466948D01*
X116121274Y-104578405D01*
X116327219Y-104663710D01*
X116542537Y-104721404D01*
X116763543Y-104750500D01*
X116763550Y-104750500D01*
X116986450Y-104750500D01*
X116986457Y-104750500D01*
X117207463Y-104721404D01*
X117422781Y-104663710D01*
X117628726Y-104578405D01*
X117821774Y-104466948D01*
X117998624Y-104331247D01*
X118156247Y-104173624D01*
X118291948Y-103996774D01*
X118403405Y-103803726D01*
X118488710Y-103597781D01*
X118546404Y-103382463D01*
X118575500Y-103161457D01*
X118575500Y-102338543D01*
X118546404Y-102117537D01*
X118488710Y-101902219D01*
X118403405Y-101696274D01*
X118291948Y-101503226D01*
X118156247Y-101326376D01*
X118156242Y-101326370D01*
X117998629Y-101168757D01*
X117998622Y-101168751D01*
X117821782Y-101033058D01*
X117821780Y-101033057D01*
X117821774Y-101033052D01*
X117628726Y-100921595D01*
X117628722Y-100921593D01*
X117422790Y-100836293D01*
X117422783Y-100836291D01*
X117422781Y-100836290D01*
X117207463Y-100778596D01*
X117207457Y-100778595D01*
X117207452Y-100778594D01*
X116986466Y-100749501D01*
X116986463Y-100749500D01*
X116986457Y-100749500D01*
X116763543Y-100749500D01*
X116763537Y-100749500D01*
X116763533Y-100749501D01*
X116542547Y-100778594D01*
X116542540Y-100778595D01*
X116542537Y-100778596D01*
X116500406Y-100789885D01*
X116327219Y-100836290D01*
X116327209Y-100836293D01*
X116121277Y-100921593D01*
X116121273Y-100921595D01*
X115928226Y-101033052D01*
X115928217Y-101033058D01*
X115751377Y-101168751D01*
X115751370Y-101168757D01*
X115737681Y-101182447D01*
X115676358Y-101215932D01*
X115606666Y-101210948D01*
X115562319Y-101182447D01*
X115548629Y-101168757D01*
X115548622Y-101168751D01*
X115371782Y-101033058D01*
X115371780Y-101033057D01*
X115371774Y-101033052D01*
X115178726Y-100921595D01*
X115178722Y-100921593D01*
X114972790Y-100836293D01*
X114972783Y-100836291D01*
X114972781Y-100836290D01*
X114757463Y-100778596D01*
X114757457Y-100778595D01*
X114757452Y-100778594D01*
X114536466Y-100749501D01*
X114536463Y-100749500D01*
X114536457Y-100749500D01*
X114313543Y-100749500D01*
X114313537Y-100749500D01*
X114313533Y-100749501D01*
X114092547Y-100778594D01*
X114092540Y-100778595D01*
X114092537Y-100778596D01*
X114050406Y-100789885D01*
X113877219Y-100836290D01*
X113877209Y-100836293D01*
X113671277Y-100921593D01*
X113671273Y-100921595D01*
X113478226Y-101033052D01*
X113478217Y-101033058D01*
X113301377Y-101168751D01*
X113301370Y-101168757D01*
X113242681Y-101227447D01*
X113181358Y-101260932D01*
X113111666Y-101255948D01*
X113067319Y-101227447D01*
X113008629Y-101168757D01*
X113008622Y-101168751D01*
X112831782Y-101033058D01*
X112831780Y-101033057D01*
X112831774Y-101033052D01*
X112638726Y-100921595D01*
X112638722Y-100921593D01*
X112432790Y-100836293D01*
X112432783Y-100836291D01*
X112432781Y-100836290D01*
X112217463Y-100778596D01*
X112217457Y-100778595D01*
X112217452Y-100778594D01*
X111996466Y-100749501D01*
X111996463Y-100749500D01*
X111996457Y-100749500D01*
X111773543Y-100749500D01*
X111773537Y-100749500D01*
X111773533Y-100749501D01*
X111552547Y-100778594D01*
X111552540Y-100778595D01*
X111552537Y-100778596D01*
X111510406Y-100789885D01*
X111337219Y-100836290D01*
X111337209Y-100836293D01*
X111131277Y-100921593D01*
X111131273Y-100921595D01*
X110938226Y-101033052D01*
X110938217Y-101033058D01*
X110761377Y-101168751D01*
X110761370Y-101168757D01*
X110702681Y-101227447D01*
X110641358Y-101260932D01*
X110571666Y-101255948D01*
X110527319Y-101227447D01*
X110468629Y-101168757D01*
X110468622Y-101168751D01*
X110291782Y-101033058D01*
X110291780Y-101033057D01*
X110291774Y-101033052D01*
X110098726Y-100921595D01*
X110098722Y-100921593D01*
X109892790Y-100836293D01*
X109892783Y-100836291D01*
X109892781Y-100836290D01*
X109677463Y-100778596D01*
X109677457Y-100778595D01*
X109677452Y-100778594D01*
X109456466Y-100749501D01*
X109456463Y-100749500D01*
X109456457Y-100749500D01*
X109233543Y-100749500D01*
X109233537Y-100749500D01*
X109233533Y-100749501D01*
X109012547Y-100778594D01*
X109012540Y-100778595D01*
X109012537Y-100778596D01*
X108970406Y-100789885D01*
X108797219Y-100836290D01*
X108797209Y-100836293D01*
X108591277Y-100921593D01*
X108591273Y-100921595D01*
X108398226Y-101033052D01*
X108398217Y-101033058D01*
X108221377Y-101168751D01*
X108221370Y-101168757D01*
X108162681Y-101227447D01*
X108101358Y-101260932D01*
X108031666Y-101255948D01*
X107987319Y-101227447D01*
X107928629Y-101168757D01*
X107928622Y-101168751D01*
X107751782Y-101033058D01*
X107751780Y-101033057D01*
X107751774Y-101033052D01*
X107558726Y-100921595D01*
X107558722Y-100921593D01*
X107352790Y-100836293D01*
X107352783Y-100836291D01*
X107352781Y-100836290D01*
X107137463Y-100778596D01*
X107137457Y-100778595D01*
X107137452Y-100778594D01*
X106916466Y-100749501D01*
X106916463Y-100749500D01*
X106916457Y-100749500D01*
X106724500Y-100749500D01*
X106657461Y-100729815D01*
X106611706Y-100677011D01*
X106600500Y-100625500D01*
X106600500Y-99203952D01*
X121239500Y-99203952D01*
X121239500Y-99496047D01*
X121272199Y-99786271D01*
X121272202Y-99786285D01*
X121337196Y-100071044D01*
X121337197Y-100071046D01*
X121433665Y-100346738D01*
X121560393Y-100609890D01*
X121583896Y-100647295D01*
X121715792Y-100857206D01*
X121897902Y-101085565D01*
X122104435Y-101292098D01*
X122332794Y-101474208D01*
X122580107Y-101629605D01*
X122843263Y-101756335D01*
X123118955Y-101852803D01*
X123403714Y-101917798D01*
X123403723Y-101917799D01*
X123403728Y-101917800D01*
X123597210Y-101939599D01*
X123693953Y-101950499D01*
X123693956Y-101950500D01*
X123693959Y-101950500D01*
X123986044Y-101950500D01*
X123986045Y-101950499D01*
X124134371Y-101933787D01*
X124276271Y-101917800D01*
X124276274Y-101917799D01*
X124276286Y-101917798D01*
X124561045Y-101852803D01*
X124836737Y-101756335D01*
X125099893Y-101629605D01*
X125347206Y-101474208D01*
X125575565Y-101292098D01*
X125782098Y-101085565D01*
X125964208Y-100857206D01*
X126119605Y-100609893D01*
X126246335Y-100346737D01*
X126342803Y-100071045D01*
X126407798Y-99786286D01*
X126415333Y-99719414D01*
X126440499Y-99496047D01*
X126440500Y-99496043D01*
X126440500Y-99203956D01*
X126440499Y-99203952D01*
X126407800Y-98913728D01*
X126407799Y-98913723D01*
X126407798Y-98913714D01*
X126342803Y-98628955D01*
X126246335Y-98353263D01*
X126119605Y-98090107D01*
X125964208Y-97842794D01*
X125782098Y-97614435D01*
X125575565Y-97407902D01*
X125347206Y-97225792D01*
X125099893Y-97070395D01*
X125099890Y-97070393D01*
X124836738Y-96943665D01*
X124561046Y-96847197D01*
X124561044Y-96847196D01*
X124341280Y-96797036D01*
X124276286Y-96782202D01*
X124276283Y-96782201D01*
X124276271Y-96782199D01*
X123986047Y-96749500D01*
X123986041Y-96749500D01*
X123693959Y-96749500D01*
X123693952Y-96749500D01*
X123403728Y-96782199D01*
X123403714Y-96782202D01*
X123118955Y-96847196D01*
X123118953Y-96847197D01*
X122843261Y-96943665D01*
X122580109Y-97070393D01*
X122332795Y-97225791D01*
X122104435Y-97407901D01*
X121897901Y-97614435D01*
X121715791Y-97842795D01*
X121560393Y-98090109D01*
X121433665Y-98353261D01*
X121337197Y-98628953D01*
X121337196Y-98628955D01*
X121272202Y-98913714D01*
X121272199Y-98913728D01*
X121239500Y-99203952D01*
X106600500Y-99203952D01*
X106600500Y-92261310D01*
X106620185Y-92194271D01*
X106636819Y-92173629D01*
X108160397Y-90650051D01*
X110184414Y-88626034D01*
X110286232Y-88485894D01*
X110364873Y-88331551D01*
X110418402Y-88166807D01*
X110445500Y-87995717D01*
X110445500Y-87822495D01*
X110445500Y-84405733D01*
X110454143Y-84376296D01*
X110460667Y-84346307D01*
X110464422Y-84341290D01*
X110465185Y-84338694D01*
X110481818Y-84318053D01*
X110481819Y-84318052D01*
X110527319Y-84272551D01*
X110588640Y-84239067D01*
X110658331Y-84244051D01*
X110702680Y-84272552D01*
X110761370Y-84331242D01*
X110761377Y-84331248D01*
X110784499Y-84348990D01*
X110938226Y-84466948D01*
X111131274Y-84578405D01*
X111337219Y-84663710D01*
X111552537Y-84721404D01*
X111773543Y-84750500D01*
X111773550Y-84750500D01*
X111996450Y-84750500D01*
X111996457Y-84750500D01*
X112217463Y-84721404D01*
X112432781Y-84663710D01*
X112638726Y-84578405D01*
X112831774Y-84466948D01*
X113008624Y-84331247D01*
X113067320Y-84272550D01*
X113128641Y-84239067D01*
X113198333Y-84244051D01*
X113242679Y-84272550D01*
X113288181Y-84318052D01*
X113301378Y-84331249D01*
X113400866Y-84407588D01*
X113478226Y-84466948D01*
X113671274Y-84578405D01*
X113877219Y-84663710D01*
X114092537Y-84721404D01*
X114313543Y-84750500D01*
X114313550Y-84750500D01*
X114536450Y-84750500D01*
X114536457Y-84750500D01*
X114757463Y-84721404D01*
X114757485Y-84721397D01*
X114761343Y-84720631D01*
X114830935Y-84726854D01*
X114873224Y-84754566D01*
X115208072Y-85089414D01*
X115348212Y-85191232D01*
X115417131Y-85226348D01*
X115502549Y-85269871D01*
X115502551Y-85269871D01*
X115502554Y-85269873D01*
X115667299Y-85323402D01*
X115838389Y-85350500D01*
X116011610Y-85350500D01*
X121382124Y-85350500D01*
X121449163Y-85370185D01*
X121494918Y-85422989D01*
X121504862Y-85492147D01*
X121493845Y-85528298D01*
X121468006Y-85581953D01*
X121433665Y-85653262D01*
X121337197Y-85928953D01*
X121337196Y-85928955D01*
X121272202Y-86213714D01*
X121272199Y-86213728D01*
X121239500Y-86503952D01*
X121239500Y-86796047D01*
X121272199Y-87086271D01*
X121272202Y-87086285D01*
X121337196Y-87371044D01*
X121337197Y-87371046D01*
X121433665Y-87646738D01*
X121560393Y-87909890D01*
X121607934Y-87985551D01*
X121715792Y-88157206D01*
X121897902Y-88385565D01*
X122104435Y-88592098D01*
X122332794Y-88774208D01*
X122580107Y-88929605D01*
X122843263Y-89056335D01*
X123118955Y-89152803D01*
X123403714Y-89217798D01*
X123403723Y-89217799D01*
X123403728Y-89217800D01*
X123597210Y-89239599D01*
X123693953Y-89250499D01*
X123693956Y-89250500D01*
X123693959Y-89250500D01*
X123986044Y-89250500D01*
X123986045Y-89250499D01*
X124134371Y-89233787D01*
X124276271Y-89217800D01*
X124276274Y-89217799D01*
X124276286Y-89217798D01*
X124561045Y-89152803D01*
X124836737Y-89056335D01*
X125099893Y-88929605D01*
X125347206Y-88774208D01*
X125575565Y-88592098D01*
X125782098Y-88385565D01*
X125964208Y-88157206D01*
X126082463Y-87969003D01*
X126134798Y-87922713D01*
X126203851Y-87912065D01*
X126267700Y-87940440D01*
X126275138Y-87947295D01*
X126401487Y-88073644D01*
X126401494Y-88073650D01*
X126541430Y-88181027D01*
X126597998Y-88224433D01*
X126812502Y-88348277D01*
X127041337Y-88443063D01*
X127280586Y-88507170D01*
X127526156Y-88539500D01*
X127615500Y-88539500D01*
X127682539Y-88559185D01*
X127728294Y-88611989D01*
X127739500Y-88663500D01*
X127739500Y-93006610D01*
X127756386Y-93113229D01*
X127766598Y-93177701D01*
X127820127Y-93342445D01*
X127898768Y-93496788D01*
X128000586Y-93636928D01*
X128000588Y-93636930D01*
X131856135Y-97492477D01*
X131889620Y-97553800D01*
X131884636Y-97623492D01*
X131842764Y-97679425D01*
X131830455Y-97687545D01*
X131677998Y-97775567D01*
X131677989Y-97775573D01*
X131535486Y-97884920D01*
X131470317Y-97910114D01*
X131401872Y-97896076D01*
X131384514Y-97884920D01*
X131242010Y-97775573D01*
X131242008Y-97775572D01*
X131242002Y-97775567D01*
X131196665Y-97749391D01*
X131027500Y-97651724D01*
X131027491Y-97651720D01*
X130798667Y-97556938D01*
X130559410Y-97492829D01*
X130313853Y-97460501D01*
X130313850Y-97460500D01*
X130313844Y-97460500D01*
X130066156Y-97460500D01*
X130066150Y-97460500D01*
X130066146Y-97460501D01*
X129820589Y-97492829D01*
X129581332Y-97556938D01*
X129352508Y-97651720D01*
X129352499Y-97651724D01*
X129138004Y-97775563D01*
X129137989Y-97775573D01*
X128941494Y-97926349D01*
X128941487Y-97926355D01*
X128766355Y-98101487D01*
X128766349Y-98101494D01*
X128615573Y-98297989D01*
X128615563Y-98298004D01*
X128491724Y-98512499D01*
X128491720Y-98512508D01*
X128396938Y-98741332D01*
X128332829Y-98980589D01*
X128300501Y-99226146D01*
X128300500Y-99226162D01*
X128300500Y-99473837D01*
X128300501Y-99473853D01*
X128332829Y-99719410D01*
X128396938Y-99958667D01*
X128443487Y-100071046D01*
X128491723Y-100187498D01*
X128615567Y-100402002D01*
X128615572Y-100402008D01*
X128615573Y-100402010D01*
X128766349Y-100598505D01*
X128766355Y-100598512D01*
X128941487Y-100773644D01*
X128941494Y-100773650D01*
X128947937Y-100778594D01*
X129137998Y-100924433D01*
X129352502Y-101048277D01*
X129581337Y-101143063D01*
X129820586Y-101207170D01*
X130066156Y-101239500D01*
X130066163Y-101239500D01*
X130313836Y-101239500D01*
X130313844Y-101239500D01*
X130313851Y-101239498D01*
X130317158Y-101239282D01*
X130385342Y-101254534D01*
X130434457Y-101304229D01*
X130448908Y-101372588D01*
X130424107Y-101437908D01*
X130412959Y-101450697D01*
X128615326Y-103248330D01*
X128554003Y-103281815D01*
X128508248Y-103283122D01*
X128295962Y-103249500D01*
X128044038Y-103249500D01*
X127934735Y-103266812D01*
X127795214Y-103288910D01*
X127555616Y-103366760D01*
X127331151Y-103481132D01*
X127127350Y-103629201D01*
X127127345Y-103629205D01*
X126987681Y-103768870D01*
X126926358Y-103802355D01*
X126856666Y-103797371D01*
X126812319Y-103768870D01*
X126672654Y-103629205D01*
X126672649Y-103629201D01*
X126468848Y-103481132D01*
X126468847Y-103481131D01*
X126468845Y-103481130D01*
X126346818Y-103418954D01*
X126244383Y-103366760D01*
X126004785Y-103288910D01*
X125959989Y-103281815D01*
X125755962Y-103249500D01*
X125504038Y-103249500D01*
X125394735Y-103266812D01*
X125255214Y-103288910D01*
X125015616Y-103366760D01*
X124791151Y-103481132D01*
X124587350Y-103629201D01*
X124587345Y-103629205D01*
X124409205Y-103807345D01*
X124409201Y-103807350D01*
X124261132Y-104011151D01*
X124146760Y-104235616D01*
X124071598Y-104466941D01*
X124068910Y-104475215D01*
X124029500Y-104724038D01*
X124029500Y-105775962D01*
X124034909Y-105810113D01*
X124068910Y-106024785D01*
X124146760Y-106264383D01*
X124225413Y-106418747D01*
X124248555Y-106464166D01*
X124261132Y-106488848D01*
X124409201Y-106692649D01*
X124409205Y-106692654D01*
X124587345Y-106870794D01*
X124587350Y-106870798D01*
X124761710Y-106997477D01*
X124791155Y-107018870D01*
X124934184Y-107091747D01*
X125015616Y-107133239D01*
X125015618Y-107133239D01*
X125015621Y-107133241D01*
X125255215Y-107211090D01*
X125504038Y-107250500D01*
X125504039Y-107250500D01*
X125755961Y-107250500D01*
X125755962Y-107250500D01*
X126004785Y-107211090D01*
X126244379Y-107133241D01*
X126468845Y-107018870D01*
X126672656Y-106870793D01*
X126812319Y-106731130D01*
X126873642Y-106697645D01*
X126943334Y-106702629D01*
X126987681Y-106731130D01*
X127127345Y-106870794D01*
X127127350Y-106870798D01*
X127301710Y-106997477D01*
X127331155Y-107018870D01*
X127474184Y-107091747D01*
X127555616Y-107133239D01*
X127555618Y-107133239D01*
X127555621Y-107133241D01*
X127795215Y-107211090D01*
X128044038Y-107250500D01*
X128044039Y-107250500D01*
X128295961Y-107250500D01*
X128295962Y-107250500D01*
X128544785Y-107211090D01*
X128784379Y-107133241D01*
X129008845Y-107018870D01*
X129212656Y-106870793D01*
X129352319Y-106731130D01*
X129413642Y-106697645D01*
X129483334Y-106702629D01*
X129527681Y-106731130D01*
X129667345Y-106870794D01*
X129667350Y-106870798D01*
X129841710Y-106997477D01*
X129871155Y-107018870D01*
X130014184Y-107091747D01*
X130095616Y-107133239D01*
X130095618Y-107133239D01*
X130095621Y-107133241D01*
X130335215Y-107211090D01*
X130584038Y-107250500D01*
X130584039Y-107250500D01*
X130835961Y-107250500D01*
X130835962Y-107250500D01*
X131084785Y-107211090D01*
X131324379Y-107133241D01*
X131548845Y-107018870D01*
X131752656Y-106870793D01*
X131892319Y-106731130D01*
X131953642Y-106697645D01*
X132023334Y-106702629D01*
X132067681Y-106731130D01*
X132207345Y-106870794D01*
X132207350Y-106870798D01*
X132381710Y-106997477D01*
X132411155Y-107018870D01*
X132554184Y-107091747D01*
X132635616Y-107133239D01*
X132635618Y-107133239D01*
X132635621Y-107133241D01*
X132875215Y-107211090D01*
X133124038Y-107250500D01*
X133124039Y-107250500D01*
X133375961Y-107250500D01*
X133375962Y-107250500D01*
X133624785Y-107211090D01*
X133864379Y-107133241D01*
X134088845Y-107018870D01*
X134292656Y-106870793D01*
X134432319Y-106731130D01*
X134493642Y-106697645D01*
X134563334Y-106702629D01*
X134607681Y-106731130D01*
X134747345Y-106870794D01*
X134747350Y-106870798D01*
X134921710Y-106997477D01*
X134951155Y-107018870D01*
X135094184Y-107091747D01*
X135175616Y-107133239D01*
X135175618Y-107133239D01*
X135175621Y-107133241D01*
X135415215Y-107211090D01*
X135664038Y-107250500D01*
X135664039Y-107250500D01*
X135915961Y-107250500D01*
X135915962Y-107250500D01*
X136164785Y-107211090D01*
X136404379Y-107133241D01*
X136628845Y-107018870D01*
X136832656Y-106870793D01*
X136972319Y-106731130D01*
X137033642Y-106697645D01*
X137103334Y-106702629D01*
X137147681Y-106731130D01*
X137287345Y-106870794D01*
X137287350Y-106870798D01*
X137461710Y-106997477D01*
X137491155Y-107018870D01*
X137634184Y-107091747D01*
X137715616Y-107133239D01*
X137715618Y-107133239D01*
X137715621Y-107133241D01*
X137955215Y-107211090D01*
X138204038Y-107250500D01*
X138204039Y-107250500D01*
X138455961Y-107250500D01*
X138455962Y-107250500D01*
X138704785Y-107211090D01*
X138944379Y-107133241D01*
X139168845Y-107018870D01*
X139372656Y-106870793D01*
X139550793Y-106692656D01*
X139698870Y-106488845D01*
X139813241Y-106264379D01*
X139891090Y-106024785D01*
X139930500Y-105775962D01*
X139930500Y-104724038D01*
X139891090Y-104475215D01*
X139813241Y-104235621D01*
X139813239Y-104235618D01*
X139813239Y-104235616D01*
X139771747Y-104154184D01*
X139698870Y-104011155D01*
X139679952Y-103985117D01*
X139550798Y-103807350D01*
X139550794Y-103807345D01*
X139372654Y-103629205D01*
X139372649Y-103629201D01*
X139168848Y-103481132D01*
X139168847Y-103481131D01*
X139168845Y-103481130D01*
X139046818Y-103418954D01*
X138944383Y-103366760D01*
X138704785Y-103288910D01*
X138659989Y-103281815D01*
X138455962Y-103249500D01*
X138204038Y-103249500D01*
X138094735Y-103266812D01*
X137955214Y-103288910D01*
X137715616Y-103366760D01*
X137491151Y-103481132D01*
X137287350Y-103629201D01*
X137287345Y-103629205D01*
X137147681Y-103768870D01*
X137086358Y-103802355D01*
X137016666Y-103797371D01*
X136972319Y-103768870D01*
X136832654Y-103629205D01*
X136832649Y-103629201D01*
X136628848Y-103481132D01*
X136628847Y-103481131D01*
X136628845Y-103481130D01*
X136506818Y-103418954D01*
X136404383Y-103366760D01*
X136164785Y-103288910D01*
X136119989Y-103281815D01*
X135915962Y-103249500D01*
X135664038Y-103249500D01*
X135554735Y-103266812D01*
X135415214Y-103288910D01*
X135175616Y-103366760D01*
X134951151Y-103481132D01*
X134747350Y-103629201D01*
X134747345Y-103629205D01*
X134607681Y-103768870D01*
X134546358Y-103802355D01*
X134476666Y-103797371D01*
X134432319Y-103768870D01*
X134292654Y-103629205D01*
X134292649Y-103629201D01*
X134088848Y-103481132D01*
X134088847Y-103481131D01*
X134088845Y-103481130D01*
X133966818Y-103418954D01*
X133864383Y-103366760D01*
X133624785Y-103288910D01*
X133579989Y-103281815D01*
X133375962Y-103249500D01*
X133124038Y-103249500D01*
X133014735Y-103266812D01*
X132875214Y-103288910D01*
X132635616Y-103366760D01*
X132411151Y-103481132D01*
X132207350Y-103629201D01*
X132207345Y-103629205D01*
X132067681Y-103768870D01*
X132006358Y-103802355D01*
X131936666Y-103797371D01*
X131892319Y-103768870D01*
X131752654Y-103629205D01*
X131752649Y-103629201D01*
X131635238Y-103543897D01*
X131592572Y-103488567D01*
X131586593Y-103418954D01*
X131619199Y-103357159D01*
X131620368Y-103355972D01*
X133299523Y-101676819D01*
X133360846Y-101643334D01*
X133387204Y-101640500D01*
X134166610Y-101640500D01*
X134166611Y-101640500D01*
X134337701Y-101613402D01*
X134502445Y-101559873D01*
X134656788Y-101481232D01*
X134796928Y-101379414D01*
X134917954Y-101258386D01*
X134979275Y-101224903D01*
X135021815Y-101223130D01*
X135138711Y-101238519D01*
X135146140Y-101239498D01*
X135146156Y-101239500D01*
X135146163Y-101239500D01*
X135393837Y-101239500D01*
X135393844Y-101239500D01*
X135639414Y-101207170D01*
X135878663Y-101143063D01*
X136107498Y-101048277D01*
X136322002Y-100924433D01*
X136464516Y-100815077D01*
X136529682Y-100789885D01*
X136598127Y-100803923D01*
X136615477Y-100815072D01*
X136757998Y-100924433D01*
X136972502Y-101048277D01*
X137201337Y-101143063D01*
X137440586Y-101207170D01*
X137686156Y-101239500D01*
X137686163Y-101239500D01*
X137933837Y-101239500D01*
X137933844Y-101239500D01*
X138179414Y-101207170D01*
X138418663Y-101143063D01*
X138647498Y-101048277D01*
X138862002Y-100924433D01*
X139004516Y-100815077D01*
X139069682Y-100789885D01*
X139138127Y-100803923D01*
X139155477Y-100815072D01*
X139297998Y-100924433D01*
X139512502Y-101048277D01*
X139741337Y-101143063D01*
X139980586Y-101207170D01*
X140226156Y-101239500D01*
X140226163Y-101239500D01*
X140473837Y-101239500D01*
X140473844Y-101239500D01*
X140719414Y-101207170D01*
X140958663Y-101143063D01*
X141187498Y-101048277D01*
X141402002Y-100924433D01*
X141598507Y-100773649D01*
X141724862Y-100647293D01*
X141786183Y-100613810D01*
X141855875Y-100618794D01*
X141911809Y-100660665D01*
X141917536Y-100669004D01*
X141993491Y-100789885D01*
X142035792Y-100857206D01*
X142217902Y-101085565D01*
X142424435Y-101292098D01*
X142652794Y-101474208D01*
X142900107Y-101629605D01*
X143163263Y-101756335D01*
X143438955Y-101852803D01*
X143723714Y-101917798D01*
X143723723Y-101917799D01*
X143723728Y-101917800D01*
X143917210Y-101939599D01*
X144013953Y-101950499D01*
X144013956Y-101950500D01*
X144013959Y-101950500D01*
X144306044Y-101950500D01*
X144306045Y-101950499D01*
X144454371Y-101933787D01*
X144596271Y-101917800D01*
X144596274Y-101917799D01*
X144596286Y-101917798D01*
X144881045Y-101852803D01*
X145156737Y-101756335D01*
X145419893Y-101629605D01*
X145667206Y-101474208D01*
X145895565Y-101292098D01*
X146102098Y-101085565D01*
X146284208Y-100857206D01*
X146439605Y-100609893D01*
X146566335Y-100346737D01*
X146662803Y-100071045D01*
X146727798Y-99786286D01*
X146735333Y-99719414D01*
X146760499Y-99496047D01*
X146760500Y-99496043D01*
X146760500Y-99203956D01*
X146760499Y-99203952D01*
X146727800Y-98913728D01*
X146727799Y-98913723D01*
X146727798Y-98913714D01*
X146662803Y-98628955D01*
X146566335Y-98353263D01*
X146439605Y-98090107D01*
X146284208Y-97842794D01*
X146102098Y-97614435D01*
X145895565Y-97407902D01*
X145667206Y-97225792D01*
X145419893Y-97070395D01*
X145419890Y-97070393D01*
X145156738Y-96943665D01*
X144881046Y-96847197D01*
X144881044Y-96847196D01*
X144661280Y-96797036D01*
X144596286Y-96782202D01*
X144596283Y-96782201D01*
X144596271Y-96782199D01*
X144306047Y-96749500D01*
X144306041Y-96749500D01*
X144013959Y-96749500D01*
X144013952Y-96749500D01*
X143723728Y-96782199D01*
X143723714Y-96782202D01*
X143438955Y-96847196D01*
X143438953Y-96847197D01*
X143163261Y-96943665D01*
X142900109Y-97070393D01*
X142652795Y-97225791D01*
X142424435Y-97407901D01*
X142217901Y-97614435D01*
X142035789Y-97842797D01*
X141917535Y-98030996D01*
X141865201Y-98077286D01*
X141796147Y-98087934D01*
X141732299Y-98059559D01*
X141724861Y-98052704D01*
X141598512Y-97926355D01*
X141598505Y-97926349D01*
X141402010Y-97775573D01*
X141402008Y-97775572D01*
X141402002Y-97775567D01*
X141356665Y-97749391D01*
X141187500Y-97651724D01*
X141187491Y-97651720D01*
X140958667Y-97556938D01*
X140719410Y-97492829D01*
X140473853Y-97460501D01*
X140473850Y-97460500D01*
X140473844Y-97460500D01*
X140226156Y-97460500D01*
X140226150Y-97460500D01*
X140226146Y-97460501D01*
X139980589Y-97492829D01*
X139741332Y-97556938D01*
X139512508Y-97651720D01*
X139512499Y-97651724D01*
X139298004Y-97775563D01*
X139297989Y-97775573D01*
X139155486Y-97884920D01*
X139090317Y-97910114D01*
X139021872Y-97896076D01*
X139004514Y-97884920D01*
X138862010Y-97775573D01*
X138862008Y-97775572D01*
X138862002Y-97775567D01*
X138816665Y-97749391D01*
X138647500Y-97651724D01*
X138647491Y-97651720D01*
X138418667Y-97556938D01*
X138179410Y-97492829D01*
X137933853Y-97460501D01*
X137933850Y-97460500D01*
X137933844Y-97460500D01*
X137686156Y-97460500D01*
X137686154Y-97460500D01*
X137561817Y-97476868D01*
X137492782Y-97466102D01*
X137457952Y-97441610D01*
X132676819Y-92660477D01*
X132643334Y-92599154D01*
X132640500Y-92572796D01*
X132640500Y-88663500D01*
X132660185Y-88596461D01*
X132712989Y-88550706D01*
X132764500Y-88539500D01*
X132853837Y-88539500D01*
X132853844Y-88539500D01*
X133099414Y-88507170D01*
X133338663Y-88443063D01*
X133567498Y-88348277D01*
X133782002Y-88224433D01*
X133924516Y-88115077D01*
X133989682Y-88089885D01*
X134058127Y-88103923D01*
X134075477Y-88115072D01*
X134217998Y-88224433D01*
X134432502Y-88348277D01*
X134661337Y-88443063D01*
X134900586Y-88507170D01*
X135146156Y-88539500D01*
X135146163Y-88539500D01*
X135393837Y-88539500D01*
X135393844Y-88539500D01*
X135639414Y-88507170D01*
X135878663Y-88443063D01*
X136107498Y-88348277D01*
X136322002Y-88224433D01*
X136464516Y-88115077D01*
X136529682Y-88089885D01*
X136598127Y-88103923D01*
X136615477Y-88115072D01*
X136757998Y-88224433D01*
X136972502Y-88348277D01*
X137201337Y-88443063D01*
X137440586Y-88507170D01*
X137686156Y-88539500D01*
X137686163Y-88539500D01*
X137933837Y-88539500D01*
X137933844Y-88539500D01*
X138179414Y-88507170D01*
X138418663Y-88443063D01*
X138647498Y-88348277D01*
X138862002Y-88224433D01*
X139004516Y-88115077D01*
X139069682Y-88089885D01*
X139138127Y-88103923D01*
X139155477Y-88115072D01*
X139297998Y-88224433D01*
X139512502Y-88348277D01*
X139741337Y-88443063D01*
X139980586Y-88507170D01*
X140226156Y-88539500D01*
X140226163Y-88539500D01*
X140473837Y-88539500D01*
X140473844Y-88539500D01*
X140719414Y-88507170D01*
X140958663Y-88443063D01*
X141187498Y-88348277D01*
X141402002Y-88224433D01*
X141598507Y-88073649D01*
X141724862Y-87947293D01*
X141786183Y-87913810D01*
X141855875Y-87918794D01*
X141911809Y-87960665D01*
X141917536Y-87969004D01*
X141983290Y-88073650D01*
X142035792Y-88157206D01*
X142217902Y-88385565D01*
X142424435Y-88592098D01*
X142652794Y-88774208D01*
X142900107Y-88929605D01*
X143163263Y-89056335D01*
X143438955Y-89152803D01*
X143723714Y-89217798D01*
X143723723Y-89217799D01*
X143723728Y-89217800D01*
X143917210Y-89239599D01*
X144013953Y-89250499D01*
X144013956Y-89250500D01*
X144013959Y-89250500D01*
X144306044Y-89250500D01*
X144306045Y-89250499D01*
X144454371Y-89233787D01*
X144596271Y-89217800D01*
X144596274Y-89217799D01*
X144596286Y-89217798D01*
X144881045Y-89152803D01*
X145156737Y-89056335D01*
X145419893Y-88929605D01*
X145667206Y-88774208D01*
X145895565Y-88592098D01*
X146102098Y-88385565D01*
X146284208Y-88157206D01*
X146439605Y-87909893D01*
X146566335Y-87646737D01*
X146662803Y-87371045D01*
X146727798Y-87086286D01*
X146760500Y-86796041D01*
X146760500Y-86503959D01*
X146727798Y-86213714D01*
X146662803Y-85928955D01*
X146566335Y-85653263D01*
X146439605Y-85390107D01*
X146284208Y-85142794D01*
X146102098Y-84914435D01*
X145895565Y-84707902D01*
X145870622Y-84688011D01*
X145837569Y-84661652D01*
X145667206Y-84525792D01*
X145434185Y-84379375D01*
X145419890Y-84370393D01*
X145156738Y-84243665D01*
X144881046Y-84147197D01*
X144881044Y-84147196D01*
X144661280Y-84097036D01*
X144596286Y-84082202D01*
X144596283Y-84082201D01*
X144596271Y-84082199D01*
X144306047Y-84049500D01*
X144306041Y-84049500D01*
X144013959Y-84049500D01*
X144013952Y-84049500D01*
X143723728Y-84082199D01*
X143723714Y-84082202D01*
X143438955Y-84147196D01*
X143438953Y-84147197D01*
X143163261Y-84243665D01*
X142900109Y-84370393D01*
X142652795Y-84525791D01*
X142424435Y-84707901D01*
X142217901Y-84914435D01*
X142035789Y-85142797D01*
X141917535Y-85330996D01*
X141865201Y-85377286D01*
X141796147Y-85387934D01*
X141732299Y-85359559D01*
X141724861Y-85352704D01*
X141598512Y-85226355D01*
X141598505Y-85226349D01*
X141402010Y-85075573D01*
X141402008Y-85075572D01*
X141402002Y-85075567D01*
X141187498Y-84951723D01*
X141187491Y-84951720D01*
X140958667Y-84856938D01*
X140719410Y-84792829D01*
X140473853Y-84760501D01*
X140473850Y-84760500D01*
X140473844Y-84760500D01*
X140226156Y-84760500D01*
X140226150Y-84760500D01*
X140226146Y-84760501D01*
X139980589Y-84792829D01*
X139741332Y-84856938D01*
X139512508Y-84951720D01*
X139512499Y-84951724D01*
X139298004Y-85075563D01*
X139297989Y-85075573D01*
X139155486Y-85184920D01*
X139090317Y-85210114D01*
X139021872Y-85196076D01*
X139004514Y-85184920D01*
X138862010Y-85075573D01*
X138862008Y-85075572D01*
X138862002Y-85075567D01*
X138647498Y-84951723D01*
X138647491Y-84951720D01*
X138418667Y-84856938D01*
X138179410Y-84792829D01*
X137933853Y-84760501D01*
X137933850Y-84760500D01*
X137933844Y-84760500D01*
X137686156Y-84760500D01*
X137686150Y-84760500D01*
X137686146Y-84760501D01*
X137440589Y-84792829D01*
X137201332Y-84856938D01*
X136972508Y-84951720D01*
X136972499Y-84951724D01*
X136758004Y-85075563D01*
X136757989Y-85075573D01*
X136615486Y-85184920D01*
X136550317Y-85210114D01*
X136481872Y-85196076D01*
X136464514Y-85184920D01*
X136322010Y-85075573D01*
X136322008Y-85075572D01*
X136322002Y-85075567D01*
X136107498Y-84951723D01*
X136107491Y-84951720D01*
X135878667Y-84856938D01*
X135639410Y-84792829D01*
X135393853Y-84760501D01*
X135393850Y-84760500D01*
X135393844Y-84760500D01*
X135146156Y-84760500D01*
X135146150Y-84760500D01*
X135146146Y-84760501D01*
X134900589Y-84792829D01*
X134661332Y-84856938D01*
X134432508Y-84951720D01*
X134432499Y-84951724D01*
X134218004Y-85075563D01*
X134217989Y-85075573D01*
X134075486Y-85184920D01*
X134010317Y-85210114D01*
X133941872Y-85196076D01*
X133924514Y-85184920D01*
X133782010Y-85075573D01*
X133782008Y-85075572D01*
X133782002Y-85075567D01*
X133567498Y-84951723D01*
X133567491Y-84951720D01*
X133338667Y-84856938D01*
X133099410Y-84792829D01*
X132853853Y-84760501D01*
X132853850Y-84760500D01*
X132853844Y-84760500D01*
X132853837Y-84760500D01*
X132764500Y-84760500D01*
X132697461Y-84740815D01*
X132651706Y-84688011D01*
X132640500Y-84636500D01*
X132640500Y-82165889D01*
X132633193Y-82119754D01*
X132613402Y-81994799D01*
X132559873Y-81830055D01*
X132481232Y-81675712D01*
X132379414Y-81535572D01*
X132256928Y-81413086D01*
X129193319Y-78349477D01*
X129159834Y-78288154D01*
X129157000Y-78261796D01*
X129157000Y-78122537D01*
X129117123Y-77870765D01*
X129038348Y-77628323D01*
X128946569Y-77448198D01*
X128922621Y-77401197D01*
X128872313Y-77331954D01*
X128772791Y-77194972D01*
X128772787Y-77194967D01*
X128592532Y-77014712D01*
X128592527Y-77014708D01*
X128386306Y-76864881D01*
X128386305Y-76864880D01*
X128386303Y-76864879D01*
X128268837Y-76805027D01*
X128159176Y-76749151D01*
X127916734Y-76670376D01*
X127664962Y-76630500D01*
X127664957Y-76630500D01*
X127410043Y-76630500D01*
X127410038Y-76630500D01*
X127158265Y-76670376D01*
X126915823Y-76749151D01*
X126688693Y-76864881D01*
X126482472Y-77014708D01*
X126482467Y-77014712D01*
X126302212Y-77194967D01*
X126302208Y-77194972D01*
X126152381Y-77401193D01*
X126036651Y-77628323D01*
X125957876Y-77870765D01*
X125918000Y-78122537D01*
X125918000Y-78377461D01*
X125928379Y-78442989D01*
X125919425Y-78512283D01*
X125893587Y-78550069D01*
X122830477Y-81613181D01*
X122769154Y-81646666D01*
X122742796Y-81649500D01*
X118447991Y-81649500D01*
X118380952Y-81629815D01*
X118340604Y-81587500D01*
X118291952Y-81503233D01*
X118291948Y-81503226D01*
X118222782Y-81413086D01*
X118156248Y-81326377D01*
X118156242Y-81326370D01*
X117998629Y-81168757D01*
X117998622Y-81168751D01*
X117821782Y-81033058D01*
X117821780Y-81033057D01*
X117821774Y-81033052D01*
X117628726Y-80921595D01*
X117628722Y-80921593D01*
X117422790Y-80836293D01*
X117422783Y-80836291D01*
X117422781Y-80836290D01*
X117207463Y-80778596D01*
X117207457Y-80778595D01*
X117207452Y-80778594D01*
X116986466Y-80749501D01*
X116986463Y-80749500D01*
X116986457Y-80749500D01*
X116763543Y-80749500D01*
X116763537Y-80749500D01*
X116763533Y-80749501D01*
X116542547Y-80778594D01*
X116542540Y-80778595D01*
X116542537Y-80778596D01*
X116327219Y-80836290D01*
X116327209Y-80836293D01*
X116121277Y-80921593D01*
X116121273Y-80921595D01*
X115928226Y-81033052D01*
X115928217Y-81033058D01*
X115751377Y-81168751D01*
X115751370Y-81168757D01*
X115737681Y-81182447D01*
X115676358Y-81215932D01*
X115606666Y-81210948D01*
X115562319Y-81182447D01*
X115548629Y-81168757D01*
X115548622Y-81168751D01*
X115371782Y-81033058D01*
X115371780Y-81033057D01*
X115371774Y-81033052D01*
X115178726Y-80921595D01*
X115178722Y-80921593D01*
X114972790Y-80836293D01*
X114972783Y-80836291D01*
X114972781Y-80836290D01*
X114757463Y-80778596D01*
X114757457Y-80778595D01*
X114757452Y-80778594D01*
X114536466Y-80749501D01*
X114536463Y-80749500D01*
X114536457Y-80749500D01*
X114313543Y-80749500D01*
X114313537Y-80749500D01*
X114313533Y-80749501D01*
X114092547Y-80778594D01*
X114092540Y-80778595D01*
X114092537Y-80778596D01*
X113877219Y-80836290D01*
X113877209Y-80836293D01*
X113671277Y-80921593D01*
X113671273Y-80921595D01*
X113478226Y-81033052D01*
X113478217Y-81033058D01*
X113301377Y-81168751D01*
X113301370Y-81168757D01*
X113242681Y-81227447D01*
X113181358Y-81260932D01*
X113111666Y-81255948D01*
X113067319Y-81227447D01*
X113008629Y-81168757D01*
X113008622Y-81168751D01*
X112831782Y-81033058D01*
X112831780Y-81033057D01*
X112831774Y-81033052D01*
X112638726Y-80921595D01*
X112638722Y-80921593D01*
X112432790Y-80836293D01*
X112432783Y-80836291D01*
X112432781Y-80836290D01*
X112217463Y-80778596D01*
X112217457Y-80778595D01*
X112217452Y-80778594D01*
X111996466Y-80749501D01*
X111996463Y-80749500D01*
X111996457Y-80749500D01*
X111773543Y-80749500D01*
X111773537Y-80749500D01*
X111773533Y-80749501D01*
X111552547Y-80778594D01*
X111552540Y-80778595D01*
X111552537Y-80778596D01*
X111337219Y-80836290D01*
X111337209Y-80836293D01*
X111131277Y-80921593D01*
X111131273Y-80921595D01*
X110938226Y-81033052D01*
X110938217Y-81033058D01*
X110761377Y-81168751D01*
X110761370Y-81168757D01*
X110702681Y-81227447D01*
X110641358Y-81260932D01*
X110571666Y-81255948D01*
X110527319Y-81227447D01*
X110468629Y-81168757D01*
X110468622Y-81168751D01*
X110291782Y-81033058D01*
X110291780Y-81033057D01*
X110291774Y-81033052D01*
X110098726Y-80921595D01*
X110098722Y-80921593D01*
X109892790Y-80836293D01*
X109892783Y-80836291D01*
X109892784Y-80836291D01*
X109892781Y-80836290D01*
X109788067Y-80808232D01*
X109766839Y-80802544D01*
X109707179Y-80766179D01*
X109676650Y-80703331D01*
X109684945Y-80633956D01*
X109711249Y-80595091D01*
X110992945Y-79313395D01*
X111054266Y-79279912D01*
X111121576Y-79284036D01*
X111300175Y-79346531D01*
X111418034Y-79387772D01*
X111418046Y-79387776D01*
X111746606Y-79462767D01*
X112081492Y-79500499D01*
X112081493Y-79500500D01*
X112081496Y-79500500D01*
X112418507Y-79500500D01*
X112418507Y-79500499D01*
X112753394Y-79462767D01*
X113081954Y-79387776D01*
X113400051Y-79276469D01*
X113703686Y-79130246D01*
X113989039Y-78950946D01*
X114252523Y-78740825D01*
X114490825Y-78502523D01*
X114700946Y-78239039D01*
X114880246Y-77953686D01*
X115026469Y-77650051D01*
X115137776Y-77331954D01*
X115212767Y-77003394D01*
X115250500Y-76668504D01*
X115250500Y-76331496D01*
X115212767Y-75996606D01*
X115137776Y-75668046D01*
X115026469Y-75349949D01*
X114880246Y-75046314D01*
X114700946Y-74760961D01*
X114490825Y-74497477D01*
X114252523Y-74259175D01*
X113989039Y-74049054D01*
X113706745Y-73871676D01*
X113703683Y-73869752D01*
X113400054Y-73723532D01*
X113081965Y-73612227D01*
X113081953Y-73612223D01*
X112753397Y-73537233D01*
X112753381Y-73537231D01*
X112418508Y-73499500D01*
X112418504Y-73499500D01*
X112081496Y-73499500D01*
X112081491Y-73499500D01*
X111746618Y-73537231D01*
X111746602Y-73537233D01*
X111418046Y-73612223D01*
X111418034Y-73612227D01*
X111099945Y-73723532D01*
X110796316Y-73869752D01*
X110510962Y-74049053D01*
X110247477Y-74259174D01*
X110009174Y-74497477D01*
X109799050Y-74760965D01*
X109799046Y-74760970D01*
X109729993Y-74870868D01*
X109677659Y-74917159D01*
X109608605Y-74927807D01*
X109544757Y-74899432D01*
X109520007Y-74870868D01*
X109450953Y-74760970D01*
X109450949Y-74760965D01*
X109240825Y-74497477D01*
X109002522Y-74259174D01*
X108801422Y-74098803D01*
X108739039Y-74049054D01*
X108456745Y-73871676D01*
X108453683Y-73869752D01*
X108150054Y-73723532D01*
X107831965Y-73612227D01*
X107831953Y-73612223D01*
X107503397Y-73537233D01*
X107503381Y-73537231D01*
X107168508Y-73499500D01*
X107168504Y-73499500D01*
X106831496Y-73499500D01*
X106831491Y-73499500D01*
X106496618Y-73537231D01*
X106496602Y-73537233D01*
X106168046Y-73612223D01*
X106168034Y-73612227D01*
X105849945Y-73723532D01*
X105546316Y-73869752D01*
X105260962Y-74049053D01*
X104997477Y-74259174D01*
X104759174Y-74497477D01*
X104551175Y-74758300D01*
X104493987Y-74798440D01*
X104424175Y-74801290D01*
X104363905Y-74765944D01*
X104349234Y-74746959D01*
X104316565Y-74694967D01*
X104200946Y-74510961D01*
X103990825Y-74247477D01*
X103752523Y-74009175D01*
X103489039Y-73799054D01*
X103203686Y-73619754D01*
X103203683Y-73619752D01*
X102900054Y-73473532D01*
X102581965Y-73362227D01*
X102581953Y-73362223D01*
X102253397Y-73287233D01*
X102253381Y-73287231D01*
X101918508Y-73249500D01*
X101918504Y-73249500D01*
X101581496Y-73249500D01*
X101581491Y-73249500D01*
X101246618Y-73287231D01*
X101246602Y-73287233D01*
X100918046Y-73362223D01*
X100918034Y-73362227D01*
X100599945Y-73473532D01*
X100296316Y-73619752D01*
X100010962Y-73799053D01*
X99747477Y-74009174D01*
X99509174Y-74247477D01*
X99299053Y-74510962D01*
X99119752Y-74796316D01*
X98973532Y-75099945D01*
X98862227Y-75418034D01*
X98862223Y-75418046D01*
X98787233Y-75746602D01*
X98787231Y-75746618D01*
X98749500Y-76081491D01*
X98749500Y-76418508D01*
X98787231Y-76753381D01*
X98787233Y-76753397D01*
X98862223Y-77081953D01*
X98862227Y-77081965D01*
X98965961Y-77378419D01*
X98969523Y-77448198D01*
X98936601Y-77507055D01*
X97016957Y-79426699D01*
X96955634Y-79460184D01*
X96885942Y-79455200D01*
X96830009Y-79413328D01*
X96814715Y-79386471D01*
X96772285Y-79284037D01*
X96738284Y-79201951D01*
X96738282Y-79201948D01*
X96738280Y-79201943D01*
X96685485Y-79110500D01*
X96620273Y-78997550D01*
X96476592Y-78810301D01*
X96476587Y-78810295D01*
X96309704Y-78643412D01*
X96309697Y-78643406D01*
X96122454Y-78499730D01*
X96122453Y-78499729D01*
X96122450Y-78499727D01*
X96040957Y-78452677D01*
X95918056Y-78381719D01*
X95918045Y-78381714D01*
X95699993Y-78291394D01*
X95589245Y-78261719D01*
X95472014Y-78230307D01*
X95472013Y-78230306D01*
X95472010Y-78230306D01*
X95238020Y-78199501D01*
X95238017Y-78199500D01*
X95238011Y-78199500D01*
X95001989Y-78199500D01*
X95001983Y-78199500D01*
X95001979Y-78199501D01*
X94767989Y-78230306D01*
X94540006Y-78291394D01*
X94321954Y-78381714D01*
X94321943Y-78381719D01*
X94130909Y-78492014D01*
X94117599Y-78499699D01*
X94117545Y-78499730D01*
X93930302Y-78643406D01*
X93930295Y-78643412D01*
X93763412Y-78810295D01*
X93763406Y-78810302D01*
X93619730Y-78997545D01*
X93619727Y-78997549D01*
X93619727Y-78997550D01*
X93612222Y-79010549D01*
X93501719Y-79201943D01*
X93501714Y-79201954D01*
X93411394Y-79420006D01*
X93350306Y-79647989D01*
X93319501Y-79881979D01*
X93319500Y-79881995D01*
X93319500Y-80118004D01*
X93319501Y-80118020D01*
X93350306Y-80352010D01*
X93411394Y-80579993D01*
X93475911Y-80735751D01*
X93483380Y-80805221D01*
X93452105Y-80867700D01*
X93408805Y-80897764D01*
X93351271Y-80921596D01*
X93158226Y-81033052D01*
X93158217Y-81033058D01*
X92981377Y-81168751D01*
X92981370Y-81168757D01*
X92922681Y-81227447D01*
X92861358Y-81260932D01*
X92791666Y-81255948D01*
X92747319Y-81227447D01*
X92688629Y-81168757D01*
X92688622Y-81168751D01*
X92511782Y-81033058D01*
X92511780Y-81033057D01*
X92511774Y-81033052D01*
X92318726Y-80921595D01*
X92318722Y-80921593D01*
X92112790Y-80836293D01*
X92112783Y-80836291D01*
X92112781Y-80836290D01*
X91897463Y-80778596D01*
X91897457Y-80778595D01*
X91897452Y-80778594D01*
X91676466Y-80749501D01*
X91676463Y-80749500D01*
X91676457Y-80749500D01*
X91453543Y-80749500D01*
X91453537Y-80749500D01*
X91453533Y-80749501D01*
X91232547Y-80778594D01*
X91232540Y-80778595D01*
X91232537Y-80778596D01*
X91017219Y-80836290D01*
X91017209Y-80836293D01*
X90811277Y-80921593D01*
X90811273Y-80921595D01*
X90618226Y-81033052D01*
X90618217Y-81033058D01*
X90441377Y-81168751D01*
X90441370Y-81168757D01*
X90382681Y-81227447D01*
X90321358Y-81260932D01*
X90251666Y-81255948D01*
X90207319Y-81227447D01*
X90148629Y-81168757D01*
X90148622Y-81168751D01*
X89971782Y-81033058D01*
X89971780Y-81033057D01*
X89971774Y-81033052D01*
X89778726Y-80921595D01*
X89778722Y-80921593D01*
X89572790Y-80836293D01*
X89572783Y-80836291D01*
X89572781Y-80836290D01*
X89357463Y-80778596D01*
X89338793Y-80776138D01*
X89298509Y-80770834D01*
X89234613Y-80742566D01*
X89196142Y-80684241D01*
X89195312Y-80614377D01*
X89200136Y-80600440D01*
X89202353Y-80595088D01*
X89208606Y-80579993D01*
X89269693Y-80352014D01*
X89300500Y-80118011D01*
X89300500Y-79881989D01*
X89269693Y-79647986D01*
X89208606Y-79420007D01*
X89118284Y-79201951D01*
X89118282Y-79201948D01*
X89118280Y-79201943D01*
X89007685Y-79010388D01*
X89000273Y-78997550D01*
X88986117Y-78979101D01*
X88960924Y-78913932D01*
X88974963Y-78845487D01*
X89009005Y-78805242D01*
X89189699Y-78666592D01*
X89356592Y-78499699D01*
X89401624Y-78441012D01*
X89458051Y-78399809D01*
X89527797Y-78395654D01*
X89588718Y-78429866D01*
X89598376Y-78441012D01*
X89643406Y-78499697D01*
X89643412Y-78499704D01*
X89810295Y-78666587D01*
X89810302Y-78666593D01*
X89907043Y-78740825D01*
X89997550Y-78810273D01*
X90114077Y-78877550D01*
X90201943Y-78928280D01*
X90201948Y-78928282D01*
X90201951Y-78928284D01*
X90420007Y-79018606D01*
X90647986Y-79079693D01*
X90881989Y-79110500D01*
X90881996Y-79110500D01*
X91118004Y-79110500D01*
X91118011Y-79110500D01*
X91352014Y-79079693D01*
X91579993Y-79018606D01*
X91798049Y-78928284D01*
X92002450Y-78810273D01*
X92189699Y-78666592D01*
X92356592Y-78499699D01*
X92500273Y-78312450D01*
X92618284Y-78108049D01*
X92708606Y-77889993D01*
X92769693Y-77662014D01*
X92800500Y-77428011D01*
X92800500Y-77191989D01*
X92769693Y-76957986D01*
X92708606Y-76730007D01*
X92618284Y-76511951D01*
X92618282Y-76511948D01*
X92618280Y-76511943D01*
X92576118Y-76438918D01*
X92500273Y-76307550D01*
X92356592Y-76120301D01*
X92356587Y-76120295D01*
X92189704Y-75953412D01*
X92189697Y-75953406D01*
X92002454Y-75809730D01*
X92002453Y-75809729D01*
X92002450Y-75809727D01*
X91893142Y-75746618D01*
X91798056Y-75691719D01*
X91798045Y-75691714D01*
X91579993Y-75601394D01*
X91352010Y-75540306D01*
X91118020Y-75509501D01*
X91118017Y-75509500D01*
X91118011Y-75509500D01*
X90881989Y-75509500D01*
X90881983Y-75509500D01*
X90881979Y-75509501D01*
X90647989Y-75540306D01*
X90420006Y-75601394D01*
X90201954Y-75691714D01*
X90201943Y-75691719D01*
X89997545Y-75809730D01*
X89810302Y-75953406D01*
X89810295Y-75953412D01*
X89643412Y-76120295D01*
X89598376Y-76178988D01*
X89541948Y-76220190D01*
X89472202Y-76224345D01*
X89411282Y-76190133D01*
X89401624Y-76178988D01*
X89356592Y-76120301D01*
X89356590Y-76120299D01*
X89356587Y-76120295D01*
X89189704Y-75953412D01*
X89189697Y-75953406D01*
X89002454Y-75809730D01*
X89002453Y-75809729D01*
X89002450Y-75809727D01*
X88893142Y-75746618D01*
X88798056Y-75691719D01*
X88798045Y-75691714D01*
X88579993Y-75601394D01*
X88352010Y-75540306D01*
X88118020Y-75509501D01*
X88118017Y-75509500D01*
X88118011Y-75509500D01*
X87881989Y-75509500D01*
X87881983Y-75509500D01*
X87881979Y-75509501D01*
X87647989Y-75540306D01*
X87420006Y-75601394D01*
X87201954Y-75691714D01*
X87201943Y-75691719D01*
X86997545Y-75809730D01*
X86810302Y-75953406D01*
X86810295Y-75953412D01*
X86643412Y-76120295D01*
X86598376Y-76178988D01*
X86541948Y-76220190D01*
X86472202Y-76224345D01*
X86411282Y-76190133D01*
X86401624Y-76178988D01*
X86356592Y-76120301D01*
X86356590Y-76120299D01*
X86356587Y-76120295D01*
X86189704Y-75953412D01*
X86189697Y-75953406D01*
X86002454Y-75809730D01*
X86002453Y-75809729D01*
X86002450Y-75809727D01*
X85893142Y-75746618D01*
X85798056Y-75691719D01*
X85798045Y-75691714D01*
X85579993Y-75601394D01*
X85352010Y-75540306D01*
X85118020Y-75509501D01*
X85118017Y-75509500D01*
X85118011Y-75509500D01*
X84881989Y-75509500D01*
X84881983Y-75509500D01*
X84881979Y-75509501D01*
X84647989Y-75540306D01*
X84420006Y-75601394D01*
X84201954Y-75691714D01*
X84201943Y-75691719D01*
X83997545Y-75809730D01*
X83810302Y-75953406D01*
X83810295Y-75953412D01*
X83643412Y-76120295D01*
X83643406Y-76120302D01*
X83499730Y-76307545D01*
X83381719Y-76511943D01*
X83381714Y-76511954D01*
X83364561Y-76553366D01*
X83320720Y-76607769D01*
X83254426Y-76629834D01*
X83186726Y-76612555D01*
X83139116Y-76561417D01*
X83135439Y-76553366D01*
X83118285Y-76511954D01*
X83118280Y-76511943D01*
X83076118Y-76438918D01*
X83000273Y-76307550D01*
X82856592Y-76120301D01*
X82856587Y-76120295D01*
X82689704Y-75953412D01*
X82689697Y-75953406D01*
X82502454Y-75809730D01*
X82502453Y-75809729D01*
X82502450Y-75809727D01*
X82393142Y-75746618D01*
X82298056Y-75691719D01*
X82298045Y-75691714D01*
X82079993Y-75601394D01*
X81852010Y-75540306D01*
X81618020Y-75509501D01*
X81618017Y-75509500D01*
X81618011Y-75509500D01*
X81381989Y-75509500D01*
X81381983Y-75509500D01*
X81381979Y-75509501D01*
X81147989Y-75540306D01*
X80920006Y-75601394D01*
X80701954Y-75691714D01*
X80701943Y-75691719D01*
X80497545Y-75809730D01*
X80310302Y-75953406D01*
X80310295Y-75953412D01*
X80143412Y-76120295D01*
X80143406Y-76120302D01*
X79999730Y-76307545D01*
X79881719Y-76511943D01*
X79881714Y-76511954D01*
X79791394Y-76730006D01*
X79730306Y-76957989D01*
X79699501Y-77191979D01*
X79699500Y-77191995D01*
X79699500Y-77428004D01*
X79699501Y-77428020D01*
X79730306Y-77662010D01*
X79791394Y-77889993D01*
X79881714Y-78108045D01*
X79881719Y-78108056D01*
X79896553Y-78133748D01*
X79999727Y-78312450D01*
X79999729Y-78312453D01*
X79999730Y-78312454D01*
X80143406Y-78499697D01*
X80143412Y-78499704D01*
X80310295Y-78666587D01*
X80310302Y-78666593D01*
X80407043Y-78740825D01*
X80497550Y-78810273D01*
X80614077Y-78877550D01*
X80701943Y-78928280D01*
X80701948Y-78928282D01*
X80701951Y-78928284D01*
X80920007Y-79018606D01*
X81147986Y-79079693D01*
X81381989Y-79110500D01*
X81381996Y-79110500D01*
X81618004Y-79110500D01*
X81618011Y-79110500D01*
X81852014Y-79079693D01*
X82079993Y-79018606D01*
X82298049Y-78928284D01*
X82502450Y-78810273D01*
X82689699Y-78666592D01*
X82856592Y-78499699D01*
X83000273Y-78312450D01*
X83118284Y-78108049D01*
X83130109Y-78079501D01*
X83135439Y-78066634D01*
X83179279Y-78012230D01*
X83245573Y-77990165D01*
X83313273Y-78007444D01*
X83360884Y-78058581D01*
X83364561Y-78066634D01*
X83381711Y-78108040D01*
X83381719Y-78108056D01*
X83396553Y-78133748D01*
X83499727Y-78312450D01*
X83499729Y-78312453D01*
X83499730Y-78312454D01*
X83643406Y-78499697D01*
X83643412Y-78499704D01*
X83810295Y-78666587D01*
X83810303Y-78666594D01*
X83813445Y-78669005D01*
X83854650Y-78725431D01*
X83858807Y-78795177D01*
X83836339Y-78842867D01*
X83809731Y-78877544D01*
X83809720Y-78877559D01*
X83691719Y-79081943D01*
X83691714Y-79081954D01*
X83601394Y-79300006D01*
X83540306Y-79527989D01*
X83509501Y-79761979D01*
X83509500Y-79761995D01*
X83509500Y-79998004D01*
X83509501Y-79998020D01*
X83540306Y-80232010D01*
X83601394Y-80459993D01*
X83691714Y-80678045D01*
X83691719Y-80678056D01*
X83742598Y-80766179D01*
X83809727Y-80882450D01*
X83809729Y-80882453D01*
X83809730Y-80882454D01*
X83953406Y-81069697D01*
X83953412Y-81069704D01*
X84120295Y-81236587D01*
X84120302Y-81236593D01*
X84164007Y-81270129D01*
X84307550Y-81380273D01*
X84438918Y-81456118D01*
X84511943Y-81498280D01*
X84511946Y-81498282D01*
X84511951Y-81498284D01*
X84519734Y-81501507D01*
X84574137Y-81545348D01*
X84596202Y-81611642D01*
X84578923Y-81679341D01*
X84545167Y-81716386D01*
X84435360Y-81796167D01*
X84435351Y-81796174D01*
X83700118Y-82531408D01*
X83638795Y-82564893D01*
X83569103Y-82559909D01*
X83524756Y-82531408D01*
X83502522Y-82509174D01*
X83417868Y-82441665D01*
X83239039Y-82299054D01*
X82953686Y-82119754D01*
X82953683Y-82119752D01*
X82650054Y-81973532D01*
X82331965Y-81862227D01*
X82331953Y-81862223D01*
X82003397Y-81787233D01*
X82003381Y-81787231D01*
X81668508Y-81749500D01*
X81668504Y-81749500D01*
X81331496Y-81749500D01*
X81331491Y-81749500D01*
X80996618Y-81787231D01*
X80996602Y-81787233D01*
X80668046Y-81862223D01*
X80668034Y-81862227D01*
X80349945Y-81973532D01*
X80046316Y-82119752D01*
X79760962Y-82299053D01*
X79497477Y-82509174D01*
X79293471Y-82713181D01*
X79232148Y-82746666D01*
X79205790Y-82749500D01*
X78069336Y-82749500D01*
X78002297Y-82729815D01*
X77981655Y-82713181D01*
X77286819Y-82018345D01*
X77272115Y-81991417D01*
X77255523Y-81965599D01*
X77254631Y-81959398D01*
X77253334Y-81957022D01*
X77250500Y-81930664D01*
X77250500Y-81779569D01*
X77270185Y-81712530D01*
X77322989Y-81666775D01*
X77390682Y-81656630D01*
X77563381Y-81679366D01*
X77571973Y-81680498D01*
X77571989Y-81680500D01*
X77571996Y-81680500D01*
X77808004Y-81680500D01*
X77808011Y-81680500D01*
X78042014Y-81649693D01*
X78269993Y-81588606D01*
X78488049Y-81498284D01*
X78692450Y-81380273D01*
X78879699Y-81236592D01*
X79046592Y-81069699D01*
X79190273Y-80882450D01*
X79308284Y-80678049D01*
X79398606Y-80459993D01*
X79459693Y-80232014D01*
X79490500Y-79998011D01*
X79490500Y-79761989D01*
X79459693Y-79527986D01*
X79398606Y-79300007D01*
X79308284Y-79081951D01*
X79308282Y-79081948D01*
X79308280Y-79081943D01*
X79259550Y-78997542D01*
X79190273Y-78877550D01*
X79046592Y-78690301D01*
X79046587Y-78690295D01*
X78879704Y-78523412D01*
X78879697Y-78523406D01*
X78692454Y-78379730D01*
X78692453Y-78379729D01*
X78692450Y-78379727D01*
X78610957Y-78332677D01*
X78488056Y-78261719D01*
X78488045Y-78261714D01*
X78269993Y-78171394D01*
X78042010Y-78110306D01*
X77808020Y-78079501D01*
X77808017Y-78079500D01*
X77808011Y-78079500D01*
X77571989Y-78079500D01*
X77571983Y-78079500D01*
X77571978Y-78079501D01*
X77390685Y-78103369D01*
X77321650Y-78092603D01*
X77269394Y-78046223D01*
X77250500Y-77980430D01*
X77250500Y-69374500D01*
X77270185Y-69307461D01*
X77322989Y-69261706D01*
X77374500Y-69250500D01*
X79600430Y-69250500D01*
X79667469Y-69270185D01*
X79713224Y-69322989D01*
X79723369Y-69390685D01*
X79699501Y-69571978D01*
X79699500Y-69571995D01*
X79699500Y-69808004D01*
X79699501Y-69808020D01*
X79730306Y-70042010D01*
X79791394Y-70269993D01*
X79881714Y-70488045D01*
X79881719Y-70488056D01*
X79952677Y-70610957D01*
X79999727Y-70692450D01*
X79999729Y-70692453D01*
X79999730Y-70692454D01*
X80143406Y-70879697D01*
X80143412Y-70879704D01*
X80310295Y-71046587D01*
X80310301Y-71046592D01*
X80497550Y-71190273D01*
X80628918Y-71266118D01*
X80701943Y-71308280D01*
X80701948Y-71308282D01*
X80701951Y-71308284D01*
X80920007Y-71398606D01*
X81147986Y-71459693D01*
X81381989Y-71490500D01*
X81381996Y-71490500D01*
X81618004Y-71490500D01*
X81618011Y-71490500D01*
X81852014Y-71459693D01*
X82079993Y-71398606D01*
X82298049Y-71308284D01*
X82502450Y-71190273D01*
X82689699Y-71046592D01*
X82856592Y-70879699D01*
X83000273Y-70692450D01*
X83118284Y-70488049D01*
X83135439Y-70446634D01*
X83179279Y-70392230D01*
X83245573Y-70370165D01*
X83313273Y-70387444D01*
X83360884Y-70438581D01*
X83364561Y-70446634D01*
X83381711Y-70488040D01*
X83381719Y-70488056D01*
X83452677Y-70610957D01*
X83499727Y-70692450D01*
X83499729Y-70692453D01*
X83499730Y-70692454D01*
X83643406Y-70879697D01*
X83643412Y-70879704D01*
X83810295Y-71046587D01*
X83810301Y-71046592D01*
X83997550Y-71190273D01*
X84128918Y-71266118D01*
X84201943Y-71308280D01*
X84201948Y-71308282D01*
X84201951Y-71308284D01*
X84420007Y-71398606D01*
X84647986Y-71459693D01*
X84881989Y-71490500D01*
X84881996Y-71490500D01*
X85118004Y-71490500D01*
X85118011Y-71490500D01*
X85352014Y-71459693D01*
X85579993Y-71398606D01*
X85798049Y-71308284D01*
X86002450Y-71190273D01*
X86189699Y-71046592D01*
X86356592Y-70879699D01*
X86401624Y-70821012D01*
X86458051Y-70779809D01*
X86527797Y-70775654D01*
X86588718Y-70809866D01*
X86598376Y-70821012D01*
X86643406Y-70879697D01*
X86643412Y-70879704D01*
X86810295Y-71046587D01*
X86810301Y-71046592D01*
X86997550Y-71190273D01*
X87128918Y-71266118D01*
X87201943Y-71308280D01*
X87201948Y-71308282D01*
X87201951Y-71308284D01*
X87420007Y-71398606D01*
X87647986Y-71459693D01*
X87881989Y-71490500D01*
X87881996Y-71490500D01*
X88118004Y-71490500D01*
X88118011Y-71490500D01*
X88352014Y-71459693D01*
X88579993Y-71398606D01*
X88798049Y-71308284D01*
X89002450Y-71190273D01*
X89189699Y-71046592D01*
X89356592Y-70879699D01*
X89401624Y-70821012D01*
X89458051Y-70779809D01*
X89527797Y-70775654D01*
X89588718Y-70809866D01*
X89598376Y-70821012D01*
X89643406Y-70879697D01*
X89643412Y-70879704D01*
X89810295Y-71046587D01*
X89810301Y-71046592D01*
X89997550Y-71190273D01*
X90128918Y-71266118D01*
X90201943Y-71308280D01*
X90201948Y-71308282D01*
X90201951Y-71308284D01*
X90420007Y-71398606D01*
X90647986Y-71459693D01*
X90881989Y-71490500D01*
X90881996Y-71490500D01*
X91118004Y-71490500D01*
X91118011Y-71490500D01*
X91352014Y-71459693D01*
X91579993Y-71398606D01*
X91798049Y-71308284D01*
X92002450Y-71190273D01*
X92189699Y-71046592D01*
X92356592Y-70879699D01*
X92500273Y-70692450D01*
X92618284Y-70488049D01*
X92708606Y-70269993D01*
X92769693Y-70042014D01*
X92800500Y-69808011D01*
X92800500Y-69571989D01*
X92769693Y-69337986D01*
X92708606Y-69110007D01*
X92618284Y-68891951D01*
X92618282Y-68891948D01*
X92618280Y-68891943D01*
X92576118Y-68818918D01*
X92500273Y-68687550D01*
X92356592Y-68500301D01*
X92356587Y-68500295D01*
X92189704Y-68333412D01*
X92189697Y-68333406D01*
X92002454Y-68189730D01*
X92002453Y-68189729D01*
X92002450Y-68189727D01*
X91920957Y-68142677D01*
X91798056Y-68071719D01*
X91798045Y-68071714D01*
X91579993Y-67981394D01*
X91352010Y-67920306D01*
X91118020Y-67889501D01*
X91118017Y-67889500D01*
X91118011Y-67889500D01*
X90881989Y-67889500D01*
X90881983Y-67889500D01*
X90881979Y-67889501D01*
X90647989Y-67920306D01*
X90420006Y-67981394D01*
X90201954Y-68071714D01*
X90201943Y-68071719D01*
X89997545Y-68189730D01*
X89810302Y-68333406D01*
X89810295Y-68333412D01*
X89643412Y-68500295D01*
X89598376Y-68558988D01*
X89541948Y-68600190D01*
X89472202Y-68604345D01*
X89411282Y-68570133D01*
X89401624Y-68558988D01*
X89356592Y-68500301D01*
X89356590Y-68500299D01*
X89356587Y-68500295D01*
X89189704Y-68333412D01*
X89189697Y-68333406D01*
X89112314Y-68274028D01*
X89071111Y-68217600D01*
X89066956Y-68147854D01*
X89100116Y-68087975D01*
X89403828Y-67784264D01*
X89519524Y-67625023D01*
X89608884Y-67449644D01*
X89669709Y-67262444D01*
X89679337Y-67201645D01*
X89709265Y-67138515D01*
X89763492Y-67103115D01*
X89808816Y-67088389D01*
X89994714Y-66993670D01*
X89994721Y-66993664D01*
X89998874Y-66991121D01*
X89999820Y-66992666D01*
X90058294Y-66971785D01*
X90103721Y-66977649D01*
X90221962Y-67016068D01*
X90310339Y-67044784D01*
X90535838Y-67080500D01*
X90535843Y-67080500D01*
X90764162Y-67080500D01*
X90989660Y-67044784D01*
X91078038Y-67016068D01*
X91206799Y-66974231D01*
X91410228Y-66870579D01*
X91594937Y-66736379D01*
X91756379Y-66574937D01*
X91890579Y-66390228D01*
X91994231Y-66186799D01*
X92016302Y-66118872D01*
X120257000Y-66118872D01*
X120257000Y-66381127D01*
X120275511Y-66521724D01*
X120291230Y-66641116D01*
X120329056Y-66782284D01*
X120359102Y-66894418D01*
X120359105Y-66894428D01*
X120459453Y-67136690D01*
X120459458Y-67136700D01*
X120590575Y-67363803D01*
X120750218Y-67571851D01*
X120750226Y-67571860D01*
X120935640Y-67757274D01*
X120935648Y-67757281D01*
X121143696Y-67916924D01*
X121370799Y-68048041D01*
X121370809Y-68048046D01*
X121613071Y-68148394D01*
X121613081Y-68148398D01*
X121866384Y-68216270D01*
X122126380Y-68250500D01*
X122126387Y-68250500D01*
X122388613Y-68250500D01*
X122388620Y-68250500D01*
X122604613Y-68222063D01*
X122673647Y-68232828D01*
X122708479Y-68257321D01*
X126201681Y-71750524D01*
X126235166Y-71811847D01*
X126230182Y-71881539D01*
X126210102Y-71916566D01*
X126078804Y-72077590D01*
X125984589Y-72257954D01*
X125928614Y-72453583D01*
X125928613Y-72453586D01*
X125918000Y-72572966D01*
X125918000Y-73927028D01*
X125918001Y-73927034D01*
X125928613Y-74046415D01*
X125984589Y-74242045D01*
X125984590Y-74242048D01*
X125984591Y-74242049D01*
X126078802Y-74422407D01*
X126078804Y-74422409D01*
X126207390Y-74580109D01*
X126301303Y-74656684D01*
X126365093Y-74708698D01*
X126545451Y-74802909D01*
X126741082Y-74858886D01*
X126860463Y-74869500D01*
X128214536Y-74869499D01*
X128333918Y-74858886D01*
X128529549Y-74802909D01*
X128709907Y-74708698D01*
X128867609Y-74580109D01*
X128996198Y-74422407D01*
X129090409Y-74242049D01*
X129146386Y-74046418D01*
X129157000Y-73927037D01*
X129156999Y-73122537D01*
X138618000Y-73122537D01*
X138618000Y-73377462D01*
X138657876Y-73629234D01*
X138736651Y-73871676D01*
X138806711Y-74009174D01*
X138825686Y-74046416D01*
X138852381Y-74098806D01*
X139002208Y-74305027D01*
X139002212Y-74305032D01*
X139109499Y-74412319D01*
X139142984Y-74473642D01*
X139138000Y-74543334D01*
X139109499Y-74587681D01*
X139002212Y-74694967D01*
X139002208Y-74694972D01*
X138852381Y-74901193D01*
X138736651Y-75128323D01*
X138657876Y-75370765D01*
X138618000Y-75622537D01*
X138618000Y-75877462D01*
X138657876Y-76129234D01*
X138736651Y-76371676D01*
X138852381Y-76598806D01*
X139002208Y-76805027D01*
X139002212Y-76805032D01*
X139109499Y-76912319D01*
X139142984Y-76973642D01*
X139138000Y-77043334D01*
X139109499Y-77087681D01*
X139002212Y-77194967D01*
X139002208Y-77194972D01*
X138852381Y-77401193D01*
X138736651Y-77628323D01*
X138657876Y-77870765D01*
X138618000Y-78122537D01*
X138618000Y-78377462D01*
X138657876Y-78629234D01*
X138736651Y-78871676D01*
X138803917Y-79003691D01*
X138843792Y-79081951D01*
X138852381Y-79098806D01*
X139002208Y-79305027D01*
X139002212Y-79305032D01*
X139109499Y-79412319D01*
X139142984Y-79473642D01*
X139138000Y-79543334D01*
X139109499Y-79587681D01*
X139002212Y-79694967D01*
X139002208Y-79694972D01*
X138852381Y-79901193D01*
X138736651Y-80128323D01*
X138657876Y-80370765D01*
X138618000Y-80622537D01*
X138618000Y-80877462D01*
X138657876Y-81129234D01*
X138736651Y-81371676D01*
X138816238Y-81527873D01*
X138847183Y-81588606D01*
X138852381Y-81598806D01*
X139002208Y-81805027D01*
X139002212Y-81805032D01*
X139182467Y-81985287D01*
X139182472Y-81985291D01*
X139362349Y-82115978D01*
X139388697Y-82135121D01*
X139533424Y-82208863D01*
X139615823Y-82250848D01*
X139615825Y-82250848D01*
X139615828Y-82250850D01*
X139745781Y-82293074D01*
X139858265Y-82329623D01*
X140110038Y-82369500D01*
X140110043Y-82369500D01*
X140364962Y-82369500D01*
X140616734Y-82329623D01*
X140859172Y-82250850D01*
X141086303Y-82135121D01*
X141292534Y-81985286D01*
X141472786Y-81805034D01*
X141622621Y-81598803D01*
X141738350Y-81371672D01*
X141817123Y-81129234D01*
X141857000Y-80877462D01*
X141857000Y-80622537D01*
X141817123Y-80370765D01*
X141738348Y-80128323D01*
X141696363Y-80045924D01*
X141622621Y-79901197D01*
X141603478Y-79874849D01*
X141472791Y-79694972D01*
X141472787Y-79694967D01*
X141365501Y-79587681D01*
X141332016Y-79526358D01*
X141337000Y-79456666D01*
X141365501Y-79412319D01*
X141401922Y-79375898D01*
X141472786Y-79305034D01*
X141622621Y-79098803D01*
X141738350Y-78871672D01*
X141817123Y-78629234D01*
X141857000Y-78377462D01*
X141857000Y-78122537D01*
X141817123Y-77870765D01*
X141738348Y-77628323D01*
X141646569Y-77448198D01*
X141622621Y-77401197D01*
X141572313Y-77331954D01*
X141472791Y-77194972D01*
X141472787Y-77194967D01*
X141365501Y-77087681D01*
X141332016Y-77026358D01*
X141337000Y-76956666D01*
X141365501Y-76912319D01*
X141412941Y-76864879D01*
X141472786Y-76805034D01*
X141622621Y-76598803D01*
X141738350Y-76371672D01*
X141817123Y-76129234D01*
X141838130Y-75996602D01*
X141857000Y-75877462D01*
X141857000Y-75622537D01*
X141817123Y-75370765D01*
X141738348Y-75128323D01*
X141692308Y-75037965D01*
X141622621Y-74901197D01*
X141546421Y-74796316D01*
X141472791Y-74694972D01*
X141472787Y-74694967D01*
X141365501Y-74587681D01*
X141332016Y-74526358D01*
X141337000Y-74456666D01*
X141365501Y-74412319D01*
X141472786Y-74305034D01*
X141622621Y-74098803D01*
X141738350Y-73871672D01*
X141817123Y-73629234D01*
X141819817Y-73612223D01*
X141857000Y-73377462D01*
X141857000Y-73122537D01*
X141817123Y-72870765D01*
X141738348Y-72628323D01*
X141696363Y-72545924D01*
X141622621Y-72401197D01*
X141603478Y-72374849D01*
X141472791Y-72194972D01*
X141472787Y-72194967D01*
X141292532Y-72014712D01*
X141292527Y-72014708D01*
X141086306Y-71864881D01*
X141086305Y-71864880D01*
X141086303Y-71864879D01*
X140982222Y-71811847D01*
X140859176Y-71749151D01*
X140616734Y-71670376D01*
X140364962Y-71630500D01*
X140364957Y-71630500D01*
X140110043Y-71630500D01*
X140110038Y-71630500D01*
X139858265Y-71670376D01*
X139615823Y-71749151D01*
X139388693Y-71864881D01*
X139182472Y-72014708D01*
X139182467Y-72014712D01*
X139002212Y-72194967D01*
X139002208Y-72194972D01*
X138852381Y-72401193D01*
X138736651Y-72628323D01*
X138657876Y-72870765D01*
X138618000Y-73122537D01*
X129156999Y-73122537D01*
X129156999Y-72572964D01*
X129146386Y-72453582D01*
X129090409Y-72257951D01*
X128996198Y-72077593D01*
X128944184Y-72013803D01*
X128867609Y-71919890D01*
X128735103Y-71811847D01*
X128709907Y-71791302D01*
X128709905Y-71791301D01*
X128709904Y-71791300D01*
X128704581Y-71788519D01*
X128654277Y-71740029D01*
X128638000Y-71678614D01*
X128638000Y-71443389D01*
X128630907Y-71398607D01*
X128630907Y-71398603D01*
X128616602Y-71308284D01*
X128610903Y-71272299D01*
X128557373Y-71107555D01*
X128557371Y-71107552D01*
X128557371Y-71107550D01*
X128528386Y-71050665D01*
X128526311Y-71046592D01*
X128478732Y-70953212D01*
X128425322Y-70879699D01*
X128382684Y-70821012D01*
X128376918Y-70813075D01*
X128376916Y-70813073D01*
X124264821Y-66700979D01*
X124231336Y-66639656D01*
X124229563Y-66597112D01*
X124232483Y-66574938D01*
X124258000Y-66381120D01*
X124258000Y-66118880D01*
X124223770Y-65858884D01*
X124155898Y-65605581D01*
X124155856Y-65605479D01*
X124055546Y-65363309D01*
X124055541Y-65363299D01*
X123924424Y-65136196D01*
X123764781Y-64928148D01*
X123764774Y-64928140D01*
X123579360Y-64742726D01*
X123579351Y-64742718D01*
X123371303Y-64583075D01*
X123144200Y-64451958D01*
X123144190Y-64451953D01*
X122901928Y-64351605D01*
X122901921Y-64351603D01*
X122901919Y-64351602D01*
X122648616Y-64283730D01*
X122590839Y-64276123D01*
X122388627Y-64249500D01*
X122388620Y-64249500D01*
X122126380Y-64249500D01*
X122126372Y-64249500D01*
X121895272Y-64279926D01*
X121866384Y-64283730D01*
X121613081Y-64351602D01*
X121613071Y-64351605D01*
X121370809Y-64451953D01*
X121370799Y-64451958D01*
X121143696Y-64583075D01*
X120935648Y-64742718D01*
X120750218Y-64928148D01*
X120590575Y-65136196D01*
X120459458Y-65363299D01*
X120459453Y-65363309D01*
X120359105Y-65605571D01*
X120359102Y-65605581D01*
X120295035Y-65844686D01*
X120291230Y-65858885D01*
X120257000Y-66118872D01*
X92016302Y-66118872D01*
X92049312Y-66017278D01*
X92064783Y-65969664D01*
X92064783Y-65969663D01*
X92064784Y-65969660D01*
X92091147Y-65803212D01*
X92100500Y-65744162D01*
X92100500Y-64015837D01*
X92064784Y-63790339D01*
X91994229Y-63573196D01*
X91890578Y-63369771D01*
X91799142Y-63243921D01*
X91756379Y-63185063D01*
X91673996Y-63102680D01*
X91640512Y-63041358D01*
X91645496Y-62971666D01*
X91673997Y-62927319D01*
X91692395Y-62908921D01*
X91756379Y-62844937D01*
X91890579Y-62660228D01*
X91994231Y-62456799D01*
X92064784Y-62239660D01*
X92091731Y-62069525D01*
X92100500Y-62014162D01*
X92100500Y-60985837D01*
X92064784Y-60760339D01*
X92014473Y-60605499D01*
X91994231Y-60543201D01*
X91994229Y-60543198D01*
X91994229Y-60543196D01*
X91936899Y-60430680D01*
X91924003Y-60362010D01*
X91950279Y-60297270D01*
X92007386Y-60257013D01*
X92047380Y-60250385D01*
X143700270Y-60250025D01*
X143767308Y-60269709D01*
G37*
%TD.AperFunction*%
%TD*%
M02*
