%TF.GenerationSoftware,KiCad,Pcbnew,9.0.0*%
%TF.CreationDate,2025-03-03T00:02:02+00:00*%
%TF.ProjectId,Wheelchair Powermeter PCB,57686565-6c63-4686-9169-7220506f7765,rev?*%
%TF.SameCoordinates,Original*%
%TF.FileFunction,Legend,Top*%
%TF.FilePolarity,Positive*%
%FSLAX46Y46*%
G04 Gerber Fmt 4.6, Leading zero omitted, Abs format (unit mm)*
G04 Created by KiCad (PCBNEW 9.0.0) date 2025-03-03 00:02:02*
%MOMM*%
%LPD*%
G01*
G04 APERTURE LIST*
%ADD10C,0.187500*%
%ADD11C,0.200000*%
%ADD12C,0.300000*%
%ADD13C,0.150000*%
%ADD14C,0.254000*%
%ADD15C,0.120000*%
%ADD16C,0.100000*%
%ADD17C,0.127000*%
G04 APERTURE END LIST*
D10*
X92087640Y-115117869D02*
X91587640Y-114641678D01*
X91230497Y-115117869D02*
X91230497Y-114117869D01*
X91230497Y-114117869D02*
X91801926Y-114117869D01*
X91801926Y-114117869D02*
X91944783Y-114165488D01*
X91944783Y-114165488D02*
X92016212Y-114213107D01*
X92016212Y-114213107D02*
X92087640Y-114308345D01*
X92087640Y-114308345D02*
X92087640Y-114451202D01*
X92087640Y-114451202D02*
X92016212Y-114546440D01*
X92016212Y-114546440D02*
X91944783Y-114594059D01*
X91944783Y-114594059D02*
X91801926Y-114641678D01*
X91801926Y-114641678D02*
X91230497Y-114641678D01*
X93587640Y-115117869D02*
X93087640Y-114641678D01*
X92730497Y-115117869D02*
X92730497Y-114117869D01*
X92730497Y-114117869D02*
X93301926Y-114117869D01*
X93301926Y-114117869D02*
X93444783Y-114165488D01*
X93444783Y-114165488D02*
X93516212Y-114213107D01*
X93516212Y-114213107D02*
X93587640Y-114308345D01*
X93587640Y-114308345D02*
X93587640Y-114451202D01*
X93587640Y-114451202D02*
X93516212Y-114546440D01*
X93516212Y-114546440D02*
X93444783Y-114594059D01*
X93444783Y-114594059D02*
X93301926Y-114641678D01*
X93301926Y-114641678D02*
X92730497Y-114641678D01*
X95159069Y-114117869D02*
X96016212Y-114117869D01*
X95587640Y-115117869D02*
X95587640Y-114117869D01*
X96516211Y-114594059D02*
X97016211Y-114594059D01*
X97230497Y-115117869D02*
X96516211Y-115117869D01*
X96516211Y-115117869D02*
X96516211Y-114117869D01*
X96516211Y-114117869D02*
X97230497Y-114117869D01*
X97801926Y-115070250D02*
X98016212Y-115117869D01*
X98016212Y-115117869D02*
X98373354Y-115117869D01*
X98373354Y-115117869D02*
X98516212Y-115070250D01*
X98516212Y-115070250D02*
X98587640Y-115022630D01*
X98587640Y-115022630D02*
X98659069Y-114927392D01*
X98659069Y-114927392D02*
X98659069Y-114832154D01*
X98659069Y-114832154D02*
X98587640Y-114736916D01*
X98587640Y-114736916D02*
X98516212Y-114689297D01*
X98516212Y-114689297D02*
X98373354Y-114641678D01*
X98373354Y-114641678D02*
X98087640Y-114594059D01*
X98087640Y-114594059D02*
X97944783Y-114546440D01*
X97944783Y-114546440D02*
X97873354Y-114498821D01*
X97873354Y-114498821D02*
X97801926Y-114403583D01*
X97801926Y-114403583D02*
X97801926Y-114308345D01*
X97801926Y-114308345D02*
X97873354Y-114213107D01*
X97873354Y-114213107D02*
X97944783Y-114165488D01*
X97944783Y-114165488D02*
X98087640Y-114117869D01*
X98087640Y-114117869D02*
X98444783Y-114117869D01*
X98444783Y-114117869D02*
X98659069Y-114165488D01*
X99087640Y-114117869D02*
X99944783Y-114117869D01*
X99516211Y-115117869D02*
X99516211Y-114117869D01*
D11*
X81000000Y-115750000D02*
X83200000Y-115750000D01*
X84000000Y-115750000D02*
X86200000Y-115750000D01*
X87000000Y-115750000D02*
X89200000Y-115750000D01*
X90000000Y-115750000D02*
X92200000Y-115750000D01*
X93000000Y-115750000D02*
X95200000Y-115750000D01*
X96000000Y-115750000D02*
X98200000Y-115750000D01*
X99000000Y-115750000D02*
X101200000Y-115750000D01*
X102000000Y-115750000D02*
X104200000Y-115750000D01*
X105000000Y-115750000D02*
X105500000Y-115750000D01*
X105500000Y-115750000D02*
X105500000Y-117950000D01*
X105500000Y-118750000D02*
X105500000Y-120950000D01*
X105500000Y-121750000D02*
X105500000Y-122500000D01*
X105500000Y-122500000D02*
X103300000Y-122500000D01*
X102500000Y-122500000D02*
X100300000Y-122500000D01*
X99500000Y-122500000D02*
X97300000Y-122500000D01*
X96500000Y-122500000D02*
X94300000Y-122500000D01*
X93500000Y-122500000D02*
X91300000Y-122500000D01*
X90500000Y-122500000D02*
X88300000Y-122500000D01*
X87500000Y-122500000D02*
X85300000Y-122500000D01*
X84500000Y-122500000D02*
X82300000Y-122500000D01*
X81500000Y-122500000D02*
X81000000Y-122500000D01*
X81000000Y-122500000D02*
X81000000Y-120300000D01*
X81000000Y-119500000D02*
X81000000Y-117300000D01*
X81000000Y-116500000D02*
X81000000Y-115750000D01*
D12*
X107161653Y-115800828D02*
X106661653Y-115086542D01*
X106304510Y-115800828D02*
X106304510Y-114300828D01*
X106304510Y-114300828D02*
X106875939Y-114300828D01*
X106875939Y-114300828D02*
X107018796Y-114372257D01*
X107018796Y-114372257D02*
X107090225Y-114443685D01*
X107090225Y-114443685D02*
X107161653Y-114586542D01*
X107161653Y-114586542D02*
X107161653Y-114800828D01*
X107161653Y-114800828D02*
X107090225Y-114943685D01*
X107090225Y-114943685D02*
X107018796Y-115015114D01*
X107018796Y-115015114D02*
X106875939Y-115086542D01*
X106875939Y-115086542D02*
X106304510Y-115086542D01*
X107804510Y-115015114D02*
X108304510Y-115015114D01*
X108518796Y-115800828D02*
X107804510Y-115800828D01*
X107804510Y-115800828D02*
X107804510Y-114300828D01*
X107804510Y-114300828D02*
X108518796Y-114300828D01*
X110018796Y-115657971D02*
X109947368Y-115729400D01*
X109947368Y-115729400D02*
X109733082Y-115800828D01*
X109733082Y-115800828D02*
X109590225Y-115800828D01*
X109590225Y-115800828D02*
X109375939Y-115729400D01*
X109375939Y-115729400D02*
X109233082Y-115586542D01*
X109233082Y-115586542D02*
X109161653Y-115443685D01*
X109161653Y-115443685D02*
X109090225Y-115157971D01*
X109090225Y-115157971D02*
X109090225Y-114943685D01*
X109090225Y-114943685D02*
X109161653Y-114657971D01*
X109161653Y-114657971D02*
X109233082Y-114515114D01*
X109233082Y-114515114D02*
X109375939Y-114372257D01*
X109375939Y-114372257D02*
X109590225Y-114300828D01*
X109590225Y-114300828D02*
X109733082Y-114300828D01*
X109733082Y-114300828D02*
X109947368Y-114372257D01*
X109947368Y-114372257D02*
X110018796Y-114443685D01*
X110947368Y-114300828D02*
X111233082Y-114300828D01*
X111233082Y-114300828D02*
X111375939Y-114372257D01*
X111375939Y-114372257D02*
X111518796Y-114515114D01*
X111518796Y-114515114D02*
X111590225Y-114800828D01*
X111590225Y-114800828D02*
X111590225Y-115300828D01*
X111590225Y-115300828D02*
X111518796Y-115586542D01*
X111518796Y-115586542D02*
X111375939Y-115729400D01*
X111375939Y-115729400D02*
X111233082Y-115800828D01*
X111233082Y-115800828D02*
X110947368Y-115800828D01*
X110947368Y-115800828D02*
X110804511Y-115729400D01*
X110804511Y-115729400D02*
X110661653Y-115586542D01*
X110661653Y-115586542D02*
X110590225Y-115300828D01*
X110590225Y-115300828D02*
X110590225Y-114800828D01*
X110590225Y-114800828D02*
X110661653Y-114515114D01*
X110661653Y-114515114D02*
X110804511Y-114372257D01*
X110804511Y-114372257D02*
X110947368Y-114300828D01*
X113090225Y-115800828D02*
X112590225Y-115086542D01*
X112233082Y-115800828D02*
X112233082Y-114300828D01*
X112233082Y-114300828D02*
X112804511Y-114300828D01*
X112804511Y-114300828D02*
X112947368Y-114372257D01*
X112947368Y-114372257D02*
X113018797Y-114443685D01*
X113018797Y-114443685D02*
X113090225Y-114586542D01*
X113090225Y-114586542D02*
X113090225Y-114800828D01*
X113090225Y-114800828D02*
X113018797Y-114943685D01*
X113018797Y-114943685D02*
X112947368Y-115015114D01*
X112947368Y-115015114D02*
X112804511Y-115086542D01*
X112804511Y-115086542D02*
X112233082Y-115086542D01*
X113733082Y-115800828D02*
X113733082Y-114300828D01*
X113733082Y-114300828D02*
X114090225Y-114300828D01*
X114090225Y-114300828D02*
X114304511Y-114372257D01*
X114304511Y-114372257D02*
X114447368Y-114515114D01*
X114447368Y-114515114D02*
X114518797Y-114657971D01*
X114518797Y-114657971D02*
X114590225Y-114943685D01*
X114590225Y-114943685D02*
X114590225Y-115157971D01*
X114590225Y-115157971D02*
X114518797Y-115443685D01*
X114518797Y-115443685D02*
X114447368Y-115586542D01*
X114447368Y-115586542D02*
X114304511Y-115729400D01*
X114304511Y-115729400D02*
X114090225Y-115800828D01*
X114090225Y-115800828D02*
X113733082Y-115800828D01*
D13*
X81491541Y-116039987D02*
X81729636Y-117039987D01*
X81729636Y-117039987D02*
X81920112Y-116325701D01*
X81920112Y-116325701D02*
X82110588Y-117039987D01*
X82110588Y-117039987D02*
X82348684Y-116039987D01*
X82729636Y-117039987D02*
X82729636Y-116039987D01*
X83158207Y-117039987D02*
X83158207Y-116516177D01*
X83158207Y-116516177D02*
X83110588Y-116420939D01*
X83110588Y-116420939D02*
X83015350Y-116373320D01*
X83015350Y-116373320D02*
X82872493Y-116373320D01*
X82872493Y-116373320D02*
X82777255Y-116420939D01*
X82777255Y-116420939D02*
X82729636Y-116468558D01*
X84015350Y-116992368D02*
X83920112Y-117039987D01*
X83920112Y-117039987D02*
X83729636Y-117039987D01*
X83729636Y-117039987D02*
X83634398Y-116992368D01*
X83634398Y-116992368D02*
X83586779Y-116897129D01*
X83586779Y-116897129D02*
X83586779Y-116516177D01*
X83586779Y-116516177D02*
X83634398Y-116420939D01*
X83634398Y-116420939D02*
X83729636Y-116373320D01*
X83729636Y-116373320D02*
X83920112Y-116373320D01*
X83920112Y-116373320D02*
X84015350Y-116420939D01*
X84015350Y-116420939D02*
X84062969Y-116516177D01*
X84062969Y-116516177D02*
X84062969Y-116611415D01*
X84062969Y-116611415D02*
X83586779Y-116706653D01*
X84872493Y-116992368D02*
X84777255Y-117039987D01*
X84777255Y-117039987D02*
X84586779Y-117039987D01*
X84586779Y-117039987D02*
X84491541Y-116992368D01*
X84491541Y-116992368D02*
X84443922Y-116897129D01*
X84443922Y-116897129D02*
X84443922Y-116516177D01*
X84443922Y-116516177D02*
X84491541Y-116420939D01*
X84491541Y-116420939D02*
X84586779Y-116373320D01*
X84586779Y-116373320D02*
X84777255Y-116373320D01*
X84777255Y-116373320D02*
X84872493Y-116420939D01*
X84872493Y-116420939D02*
X84920112Y-116516177D01*
X84920112Y-116516177D02*
X84920112Y-116611415D01*
X84920112Y-116611415D02*
X84443922Y-116706653D01*
X85491541Y-117039987D02*
X85396303Y-116992368D01*
X85396303Y-116992368D02*
X85348684Y-116897129D01*
X85348684Y-116897129D02*
X85348684Y-116039987D01*
X86301065Y-116992368D02*
X86205827Y-117039987D01*
X86205827Y-117039987D02*
X86015351Y-117039987D01*
X86015351Y-117039987D02*
X85920113Y-116992368D01*
X85920113Y-116992368D02*
X85872494Y-116944748D01*
X85872494Y-116944748D02*
X85824875Y-116849510D01*
X85824875Y-116849510D02*
X85824875Y-116563796D01*
X85824875Y-116563796D02*
X85872494Y-116468558D01*
X85872494Y-116468558D02*
X85920113Y-116420939D01*
X85920113Y-116420939D02*
X86015351Y-116373320D01*
X86015351Y-116373320D02*
X86205827Y-116373320D01*
X86205827Y-116373320D02*
X86301065Y-116420939D01*
X86729637Y-117039987D02*
X86729637Y-116039987D01*
X87158208Y-117039987D02*
X87158208Y-116516177D01*
X87158208Y-116516177D02*
X87110589Y-116420939D01*
X87110589Y-116420939D02*
X87015351Y-116373320D01*
X87015351Y-116373320D02*
X86872494Y-116373320D01*
X86872494Y-116373320D02*
X86777256Y-116420939D01*
X86777256Y-116420939D02*
X86729637Y-116468558D01*
X88062970Y-117039987D02*
X88062970Y-116516177D01*
X88062970Y-116516177D02*
X88015351Y-116420939D01*
X88015351Y-116420939D02*
X87920113Y-116373320D01*
X87920113Y-116373320D02*
X87729637Y-116373320D01*
X87729637Y-116373320D02*
X87634399Y-116420939D01*
X88062970Y-116992368D02*
X87967732Y-117039987D01*
X87967732Y-117039987D02*
X87729637Y-117039987D01*
X87729637Y-117039987D02*
X87634399Y-116992368D01*
X87634399Y-116992368D02*
X87586780Y-116897129D01*
X87586780Y-116897129D02*
X87586780Y-116801891D01*
X87586780Y-116801891D02*
X87634399Y-116706653D01*
X87634399Y-116706653D02*
X87729637Y-116659034D01*
X87729637Y-116659034D02*
X87967732Y-116659034D01*
X87967732Y-116659034D02*
X88062970Y-116611415D01*
X88539161Y-117039987D02*
X88539161Y-116373320D01*
X88539161Y-116039987D02*
X88491542Y-116087606D01*
X88491542Y-116087606D02*
X88539161Y-116135225D01*
X88539161Y-116135225D02*
X88586780Y-116087606D01*
X88586780Y-116087606D02*
X88539161Y-116039987D01*
X88539161Y-116039987D02*
X88539161Y-116135225D01*
X89015351Y-117039987D02*
X89015351Y-116373320D01*
X89015351Y-116563796D02*
X89062970Y-116468558D01*
X89062970Y-116468558D02*
X89110589Y-116420939D01*
X89110589Y-116420939D02*
X89205827Y-116373320D01*
X89205827Y-116373320D02*
X89301065Y-116373320D01*
X90396304Y-117039987D02*
X90396304Y-116039987D01*
X90396304Y-116039987D02*
X90777256Y-116039987D01*
X90777256Y-116039987D02*
X90872494Y-116087606D01*
X90872494Y-116087606D02*
X90920113Y-116135225D01*
X90920113Y-116135225D02*
X90967732Y-116230463D01*
X90967732Y-116230463D02*
X90967732Y-116373320D01*
X90967732Y-116373320D02*
X90920113Y-116468558D01*
X90920113Y-116468558D02*
X90872494Y-116516177D01*
X90872494Y-116516177D02*
X90777256Y-116563796D01*
X90777256Y-116563796D02*
X90396304Y-116563796D01*
X91539161Y-117039987D02*
X91443923Y-116992368D01*
X91443923Y-116992368D02*
X91396304Y-116944748D01*
X91396304Y-116944748D02*
X91348685Y-116849510D01*
X91348685Y-116849510D02*
X91348685Y-116563796D01*
X91348685Y-116563796D02*
X91396304Y-116468558D01*
X91396304Y-116468558D02*
X91443923Y-116420939D01*
X91443923Y-116420939D02*
X91539161Y-116373320D01*
X91539161Y-116373320D02*
X91682018Y-116373320D01*
X91682018Y-116373320D02*
X91777256Y-116420939D01*
X91777256Y-116420939D02*
X91824875Y-116468558D01*
X91824875Y-116468558D02*
X91872494Y-116563796D01*
X91872494Y-116563796D02*
X91872494Y-116849510D01*
X91872494Y-116849510D02*
X91824875Y-116944748D01*
X91824875Y-116944748D02*
X91777256Y-116992368D01*
X91777256Y-116992368D02*
X91682018Y-117039987D01*
X91682018Y-117039987D02*
X91539161Y-117039987D01*
X92205828Y-116373320D02*
X92396304Y-117039987D01*
X92396304Y-117039987D02*
X92586780Y-116563796D01*
X92586780Y-116563796D02*
X92777256Y-117039987D01*
X92777256Y-117039987D02*
X92967732Y-116373320D01*
X93729637Y-116992368D02*
X93634399Y-117039987D01*
X93634399Y-117039987D02*
X93443923Y-117039987D01*
X93443923Y-117039987D02*
X93348685Y-116992368D01*
X93348685Y-116992368D02*
X93301066Y-116897129D01*
X93301066Y-116897129D02*
X93301066Y-116516177D01*
X93301066Y-116516177D02*
X93348685Y-116420939D01*
X93348685Y-116420939D02*
X93443923Y-116373320D01*
X93443923Y-116373320D02*
X93634399Y-116373320D01*
X93634399Y-116373320D02*
X93729637Y-116420939D01*
X93729637Y-116420939D02*
X93777256Y-116516177D01*
X93777256Y-116516177D02*
X93777256Y-116611415D01*
X93777256Y-116611415D02*
X93301066Y-116706653D01*
X94205828Y-117039987D02*
X94205828Y-116373320D01*
X94205828Y-116563796D02*
X94253447Y-116468558D01*
X94253447Y-116468558D02*
X94301066Y-116420939D01*
X94301066Y-116420939D02*
X94396304Y-116373320D01*
X94396304Y-116373320D02*
X94491542Y-116373320D01*
X94824876Y-117039987D02*
X94824876Y-116373320D01*
X94824876Y-116468558D02*
X94872495Y-116420939D01*
X94872495Y-116420939D02*
X94967733Y-116373320D01*
X94967733Y-116373320D02*
X95110590Y-116373320D01*
X95110590Y-116373320D02*
X95205828Y-116420939D01*
X95205828Y-116420939D02*
X95253447Y-116516177D01*
X95253447Y-116516177D02*
X95253447Y-117039987D01*
X95253447Y-116516177D02*
X95301066Y-116420939D01*
X95301066Y-116420939D02*
X95396304Y-116373320D01*
X95396304Y-116373320D02*
X95539161Y-116373320D01*
X95539161Y-116373320D02*
X95634400Y-116420939D01*
X95634400Y-116420939D02*
X95682019Y-116516177D01*
X95682019Y-116516177D02*
X95682019Y-117039987D01*
X96539161Y-116992368D02*
X96443923Y-117039987D01*
X96443923Y-117039987D02*
X96253447Y-117039987D01*
X96253447Y-117039987D02*
X96158209Y-116992368D01*
X96158209Y-116992368D02*
X96110590Y-116897129D01*
X96110590Y-116897129D02*
X96110590Y-116516177D01*
X96110590Y-116516177D02*
X96158209Y-116420939D01*
X96158209Y-116420939D02*
X96253447Y-116373320D01*
X96253447Y-116373320D02*
X96443923Y-116373320D01*
X96443923Y-116373320D02*
X96539161Y-116420939D01*
X96539161Y-116420939D02*
X96586780Y-116516177D01*
X96586780Y-116516177D02*
X96586780Y-116611415D01*
X96586780Y-116611415D02*
X96110590Y-116706653D01*
X96872495Y-116373320D02*
X97253447Y-116373320D01*
X97015352Y-116039987D02*
X97015352Y-116897129D01*
X97015352Y-116897129D02*
X97062971Y-116992368D01*
X97062971Y-116992368D02*
X97158209Y-117039987D01*
X97158209Y-117039987D02*
X97253447Y-117039987D01*
X97967733Y-116992368D02*
X97872495Y-117039987D01*
X97872495Y-117039987D02*
X97682019Y-117039987D01*
X97682019Y-117039987D02*
X97586781Y-116992368D01*
X97586781Y-116992368D02*
X97539162Y-116897129D01*
X97539162Y-116897129D02*
X97539162Y-116516177D01*
X97539162Y-116516177D02*
X97586781Y-116420939D01*
X97586781Y-116420939D02*
X97682019Y-116373320D01*
X97682019Y-116373320D02*
X97872495Y-116373320D01*
X97872495Y-116373320D02*
X97967733Y-116420939D01*
X97967733Y-116420939D02*
X98015352Y-116516177D01*
X98015352Y-116516177D02*
X98015352Y-116611415D01*
X98015352Y-116611415D02*
X97539162Y-116706653D01*
X98443924Y-117039987D02*
X98443924Y-116373320D01*
X98443924Y-116563796D02*
X98491543Y-116468558D01*
X98491543Y-116468558D02*
X98539162Y-116420939D01*
X98539162Y-116420939D02*
X98634400Y-116373320D01*
X98634400Y-116373320D02*
X98729638Y-116373320D01*
X99824877Y-117039987D02*
X99824877Y-116039987D01*
X99824877Y-116039987D02*
X100205829Y-116039987D01*
X100205829Y-116039987D02*
X100301067Y-116087606D01*
X100301067Y-116087606D02*
X100348686Y-116135225D01*
X100348686Y-116135225D02*
X100396305Y-116230463D01*
X100396305Y-116230463D02*
X100396305Y-116373320D01*
X100396305Y-116373320D02*
X100348686Y-116468558D01*
X100348686Y-116468558D02*
X100301067Y-116516177D01*
X100301067Y-116516177D02*
X100205829Y-116563796D01*
X100205829Y-116563796D02*
X99824877Y-116563796D01*
X100824877Y-117039987D02*
X100824877Y-116373320D01*
X100824877Y-116563796D02*
X100872496Y-116468558D01*
X100872496Y-116468558D02*
X100920115Y-116420939D01*
X100920115Y-116420939D02*
X101015353Y-116373320D01*
X101015353Y-116373320D02*
X101110591Y-116373320D01*
X101586782Y-117039987D02*
X101491544Y-116992368D01*
X101491544Y-116992368D02*
X101443925Y-116944748D01*
X101443925Y-116944748D02*
X101396306Y-116849510D01*
X101396306Y-116849510D02*
X101396306Y-116563796D01*
X101396306Y-116563796D02*
X101443925Y-116468558D01*
X101443925Y-116468558D02*
X101491544Y-116420939D01*
X101491544Y-116420939D02*
X101586782Y-116373320D01*
X101586782Y-116373320D02*
X101729639Y-116373320D01*
X101729639Y-116373320D02*
X101824877Y-116420939D01*
X101824877Y-116420939D02*
X101872496Y-116468558D01*
X101872496Y-116468558D02*
X101920115Y-116563796D01*
X101920115Y-116563796D02*
X101920115Y-116849510D01*
X101920115Y-116849510D02*
X101872496Y-116944748D01*
X101872496Y-116944748D02*
X101824877Y-116992368D01*
X101824877Y-116992368D02*
X101729639Y-117039987D01*
X101729639Y-117039987D02*
X101586782Y-117039987D01*
X102205830Y-116373320D02*
X102586782Y-116373320D01*
X102348687Y-116039987D02*
X102348687Y-116897129D01*
X102348687Y-116897129D02*
X102396306Y-116992368D01*
X102396306Y-116992368D02*
X102491544Y-117039987D01*
X102491544Y-117039987D02*
X102586782Y-117039987D01*
X103062973Y-117039987D02*
X102967735Y-116992368D01*
X102967735Y-116992368D02*
X102920116Y-116944748D01*
X102920116Y-116944748D02*
X102872497Y-116849510D01*
X102872497Y-116849510D02*
X102872497Y-116563796D01*
X102872497Y-116563796D02*
X102920116Y-116468558D01*
X102920116Y-116468558D02*
X102967735Y-116420939D01*
X102967735Y-116420939D02*
X103062973Y-116373320D01*
X103062973Y-116373320D02*
X103205830Y-116373320D01*
X103205830Y-116373320D02*
X103301068Y-116420939D01*
X103301068Y-116420939D02*
X103348687Y-116468558D01*
X103348687Y-116468558D02*
X103396306Y-116563796D01*
X103396306Y-116563796D02*
X103396306Y-116849510D01*
X103396306Y-116849510D02*
X103348687Y-116944748D01*
X103348687Y-116944748D02*
X103301068Y-116992368D01*
X103301068Y-116992368D02*
X103205830Y-117039987D01*
X103205830Y-117039987D02*
X103062973Y-117039987D01*
X105110592Y-117039987D02*
X104539164Y-117039987D01*
X104824878Y-117039987D02*
X104824878Y-116039987D01*
X104824878Y-116039987D02*
X104729640Y-116182844D01*
X104729640Y-116182844D02*
X104634402Y-116278082D01*
X104634402Y-116278082D02*
X104539164Y-116325701D01*
X81586779Y-118649931D02*
X81586779Y-117649931D01*
X81586779Y-117649931D02*
X81824874Y-117649931D01*
X81824874Y-117649931D02*
X81967731Y-117697550D01*
X81967731Y-117697550D02*
X82062969Y-117792788D01*
X82062969Y-117792788D02*
X82110588Y-117888026D01*
X82110588Y-117888026D02*
X82158207Y-118078502D01*
X82158207Y-118078502D02*
X82158207Y-118221359D01*
X82158207Y-118221359D02*
X82110588Y-118411835D01*
X82110588Y-118411835D02*
X82062969Y-118507073D01*
X82062969Y-118507073D02*
X81967731Y-118602312D01*
X81967731Y-118602312D02*
X81824874Y-118649931D01*
X81824874Y-118649931D02*
X81586779Y-118649931D01*
X82967731Y-118602312D02*
X82872493Y-118649931D01*
X82872493Y-118649931D02*
X82682017Y-118649931D01*
X82682017Y-118649931D02*
X82586779Y-118602312D01*
X82586779Y-118602312D02*
X82539160Y-118507073D01*
X82539160Y-118507073D02*
X82539160Y-118126121D01*
X82539160Y-118126121D02*
X82586779Y-118030883D01*
X82586779Y-118030883D02*
X82682017Y-117983264D01*
X82682017Y-117983264D02*
X82872493Y-117983264D01*
X82872493Y-117983264D02*
X82967731Y-118030883D01*
X82967731Y-118030883D02*
X83015350Y-118126121D01*
X83015350Y-118126121D02*
X83015350Y-118221359D01*
X83015350Y-118221359D02*
X82539160Y-118316597D01*
X83396303Y-118602312D02*
X83491541Y-118649931D01*
X83491541Y-118649931D02*
X83682017Y-118649931D01*
X83682017Y-118649931D02*
X83777255Y-118602312D01*
X83777255Y-118602312D02*
X83824874Y-118507073D01*
X83824874Y-118507073D02*
X83824874Y-118459454D01*
X83824874Y-118459454D02*
X83777255Y-118364216D01*
X83777255Y-118364216D02*
X83682017Y-118316597D01*
X83682017Y-118316597D02*
X83539160Y-118316597D01*
X83539160Y-118316597D02*
X83443922Y-118268978D01*
X83443922Y-118268978D02*
X83396303Y-118173740D01*
X83396303Y-118173740D02*
X83396303Y-118126121D01*
X83396303Y-118126121D02*
X83443922Y-118030883D01*
X83443922Y-118030883D02*
X83539160Y-117983264D01*
X83539160Y-117983264D02*
X83682017Y-117983264D01*
X83682017Y-117983264D02*
X83777255Y-118030883D01*
X84253446Y-118649931D02*
X84253446Y-117983264D01*
X84253446Y-117649931D02*
X84205827Y-117697550D01*
X84205827Y-117697550D02*
X84253446Y-117745169D01*
X84253446Y-117745169D02*
X84301065Y-117697550D01*
X84301065Y-117697550D02*
X84253446Y-117649931D01*
X84253446Y-117649931D02*
X84253446Y-117745169D01*
X85158207Y-117983264D02*
X85158207Y-118792788D01*
X85158207Y-118792788D02*
X85110588Y-118888026D01*
X85110588Y-118888026D02*
X85062969Y-118935645D01*
X85062969Y-118935645D02*
X84967731Y-118983264D01*
X84967731Y-118983264D02*
X84824874Y-118983264D01*
X84824874Y-118983264D02*
X84729636Y-118935645D01*
X85158207Y-118602312D02*
X85062969Y-118649931D01*
X85062969Y-118649931D02*
X84872493Y-118649931D01*
X84872493Y-118649931D02*
X84777255Y-118602312D01*
X84777255Y-118602312D02*
X84729636Y-118554692D01*
X84729636Y-118554692D02*
X84682017Y-118459454D01*
X84682017Y-118459454D02*
X84682017Y-118173740D01*
X84682017Y-118173740D02*
X84729636Y-118078502D01*
X84729636Y-118078502D02*
X84777255Y-118030883D01*
X84777255Y-118030883D02*
X84872493Y-117983264D01*
X84872493Y-117983264D02*
X85062969Y-117983264D01*
X85062969Y-117983264D02*
X85158207Y-118030883D01*
X85634398Y-117983264D02*
X85634398Y-118649931D01*
X85634398Y-118078502D02*
X85682017Y-118030883D01*
X85682017Y-118030883D02*
X85777255Y-117983264D01*
X85777255Y-117983264D02*
X85920112Y-117983264D01*
X85920112Y-117983264D02*
X86015350Y-118030883D01*
X86015350Y-118030883D02*
X86062969Y-118126121D01*
X86062969Y-118126121D02*
X86062969Y-118649931D01*
X86539160Y-118554692D02*
X86586779Y-118602312D01*
X86586779Y-118602312D02*
X86539160Y-118649931D01*
X86539160Y-118649931D02*
X86491541Y-118602312D01*
X86491541Y-118602312D02*
X86539160Y-118554692D01*
X86539160Y-118554692D02*
X86539160Y-118649931D01*
X86539160Y-118030883D02*
X86586779Y-118078502D01*
X86586779Y-118078502D02*
X86539160Y-118126121D01*
X86539160Y-118126121D02*
X86491541Y-118078502D01*
X86491541Y-118078502D02*
X86539160Y-118030883D01*
X86539160Y-118030883D02*
X86539160Y-118126121D01*
X87777255Y-118649931D02*
X87777255Y-117649931D01*
X87777255Y-117649931D02*
X88110588Y-118364216D01*
X88110588Y-118364216D02*
X88443921Y-117649931D01*
X88443921Y-117649931D02*
X88443921Y-118649931D01*
X88920112Y-118554692D02*
X88967731Y-118602312D01*
X88967731Y-118602312D02*
X88920112Y-118649931D01*
X88920112Y-118649931D02*
X88872493Y-118602312D01*
X88872493Y-118602312D02*
X88920112Y-118554692D01*
X88920112Y-118554692D02*
X88920112Y-118649931D01*
X89967730Y-118649931D02*
X89634397Y-118173740D01*
X89396302Y-118649931D02*
X89396302Y-117649931D01*
X89396302Y-117649931D02*
X89777254Y-117649931D01*
X89777254Y-117649931D02*
X89872492Y-117697550D01*
X89872492Y-117697550D02*
X89920111Y-117745169D01*
X89920111Y-117745169D02*
X89967730Y-117840407D01*
X89967730Y-117840407D02*
X89967730Y-117983264D01*
X89967730Y-117983264D02*
X89920111Y-118078502D01*
X89920111Y-118078502D02*
X89872492Y-118126121D01*
X89872492Y-118126121D02*
X89777254Y-118173740D01*
X89777254Y-118173740D02*
X89396302Y-118173740D01*
X90539159Y-118649931D02*
X90443921Y-118602312D01*
X90443921Y-118602312D02*
X90396302Y-118554692D01*
X90396302Y-118554692D02*
X90348683Y-118459454D01*
X90348683Y-118459454D02*
X90348683Y-118173740D01*
X90348683Y-118173740D02*
X90396302Y-118078502D01*
X90396302Y-118078502D02*
X90443921Y-118030883D01*
X90443921Y-118030883D02*
X90539159Y-117983264D01*
X90539159Y-117983264D02*
X90682016Y-117983264D01*
X90682016Y-117983264D02*
X90777254Y-118030883D01*
X90777254Y-118030883D02*
X90824873Y-118078502D01*
X90824873Y-118078502D02*
X90872492Y-118173740D01*
X90872492Y-118173740D02*
X90872492Y-118459454D01*
X90872492Y-118459454D02*
X90824873Y-118554692D01*
X90824873Y-118554692D02*
X90777254Y-118602312D01*
X90777254Y-118602312D02*
X90682016Y-118649931D01*
X90682016Y-118649931D02*
X90539159Y-118649931D01*
X91729635Y-118602312D02*
X91634397Y-118649931D01*
X91634397Y-118649931D02*
X91443921Y-118649931D01*
X91443921Y-118649931D02*
X91348683Y-118602312D01*
X91348683Y-118602312D02*
X91301064Y-118554692D01*
X91301064Y-118554692D02*
X91253445Y-118459454D01*
X91253445Y-118459454D02*
X91253445Y-118173740D01*
X91253445Y-118173740D02*
X91301064Y-118078502D01*
X91301064Y-118078502D02*
X91348683Y-118030883D01*
X91348683Y-118030883D02*
X91443921Y-117983264D01*
X91443921Y-117983264D02*
X91634397Y-117983264D01*
X91634397Y-117983264D02*
X91729635Y-118030883D01*
X92158207Y-118649931D02*
X92158207Y-117649931D01*
X92586778Y-118649931D02*
X92586778Y-118126121D01*
X92586778Y-118126121D02*
X92539159Y-118030883D01*
X92539159Y-118030883D02*
X92443921Y-117983264D01*
X92443921Y-117983264D02*
X92301064Y-117983264D01*
X92301064Y-117983264D02*
X92205826Y-118030883D01*
X92205826Y-118030883D02*
X92158207Y-118078502D01*
X93443921Y-118602312D02*
X93348683Y-118649931D01*
X93348683Y-118649931D02*
X93158207Y-118649931D01*
X93158207Y-118649931D02*
X93062969Y-118602312D01*
X93062969Y-118602312D02*
X93015350Y-118507073D01*
X93015350Y-118507073D02*
X93015350Y-118126121D01*
X93015350Y-118126121D02*
X93062969Y-118030883D01*
X93062969Y-118030883D02*
X93158207Y-117983264D01*
X93158207Y-117983264D02*
X93348683Y-117983264D01*
X93348683Y-117983264D02*
X93443921Y-118030883D01*
X93443921Y-118030883D02*
X93491540Y-118126121D01*
X93491540Y-118126121D02*
X93491540Y-118221359D01*
X93491540Y-118221359D02*
X93015350Y-118316597D01*
X81586779Y-120259875D02*
X81586779Y-119259875D01*
X81586779Y-119259875D02*
X81967731Y-119259875D01*
X81967731Y-119259875D02*
X82062969Y-119307494D01*
X82062969Y-119307494D02*
X82110588Y-119355113D01*
X82110588Y-119355113D02*
X82158207Y-119450351D01*
X82158207Y-119450351D02*
X82158207Y-119593208D01*
X82158207Y-119593208D02*
X82110588Y-119688446D01*
X82110588Y-119688446D02*
X82062969Y-119736065D01*
X82062969Y-119736065D02*
X81967731Y-119783684D01*
X81967731Y-119783684D02*
X81586779Y-119783684D01*
X83301064Y-119212256D02*
X82443922Y-120497970D01*
X83634398Y-120259875D02*
X83634398Y-119259875D01*
X83634398Y-119259875D02*
X84205826Y-120259875D01*
X84205826Y-120259875D02*
X84205826Y-119259875D01*
X84682017Y-120164636D02*
X84729636Y-120212256D01*
X84729636Y-120212256D02*
X84682017Y-120259875D01*
X84682017Y-120259875D02*
X84634398Y-120212256D01*
X84634398Y-120212256D02*
X84682017Y-120164636D01*
X84682017Y-120164636D02*
X84682017Y-120259875D01*
X84682017Y-119640827D02*
X84729636Y-119688446D01*
X84729636Y-119688446D02*
X84682017Y-119736065D01*
X84682017Y-119736065D02*
X84634398Y-119688446D01*
X84634398Y-119688446D02*
X84682017Y-119640827D01*
X84682017Y-119640827D02*
X84682017Y-119736065D01*
X86110588Y-119259875D02*
X86205826Y-119259875D01*
X86205826Y-119259875D02*
X86301064Y-119307494D01*
X86301064Y-119307494D02*
X86348683Y-119355113D01*
X86348683Y-119355113D02*
X86396302Y-119450351D01*
X86396302Y-119450351D02*
X86443921Y-119640827D01*
X86443921Y-119640827D02*
X86443921Y-119878922D01*
X86443921Y-119878922D02*
X86396302Y-120069398D01*
X86396302Y-120069398D02*
X86348683Y-120164636D01*
X86348683Y-120164636D02*
X86301064Y-120212256D01*
X86301064Y-120212256D02*
X86205826Y-120259875D01*
X86205826Y-120259875D02*
X86110588Y-120259875D01*
X86110588Y-120259875D02*
X86015350Y-120212256D01*
X86015350Y-120212256D02*
X85967731Y-120164636D01*
X85967731Y-120164636D02*
X85920112Y-120069398D01*
X85920112Y-120069398D02*
X85872493Y-119878922D01*
X85872493Y-119878922D02*
X85872493Y-119640827D01*
X85872493Y-119640827D02*
X85920112Y-119450351D01*
X85920112Y-119450351D02*
X85967731Y-119355113D01*
X85967731Y-119355113D02*
X86015350Y-119307494D01*
X86015350Y-119307494D02*
X86110588Y-119259875D01*
X87062969Y-119259875D02*
X87158207Y-119259875D01*
X87158207Y-119259875D02*
X87253445Y-119307494D01*
X87253445Y-119307494D02*
X87301064Y-119355113D01*
X87301064Y-119355113D02*
X87348683Y-119450351D01*
X87348683Y-119450351D02*
X87396302Y-119640827D01*
X87396302Y-119640827D02*
X87396302Y-119878922D01*
X87396302Y-119878922D02*
X87348683Y-120069398D01*
X87348683Y-120069398D02*
X87301064Y-120164636D01*
X87301064Y-120164636D02*
X87253445Y-120212256D01*
X87253445Y-120212256D02*
X87158207Y-120259875D01*
X87158207Y-120259875D02*
X87062969Y-120259875D01*
X87062969Y-120259875D02*
X86967731Y-120212256D01*
X86967731Y-120212256D02*
X86920112Y-120164636D01*
X86920112Y-120164636D02*
X86872493Y-120069398D01*
X86872493Y-120069398D02*
X86824874Y-119878922D01*
X86824874Y-119878922D02*
X86824874Y-119640827D01*
X86824874Y-119640827D02*
X86872493Y-119450351D01*
X86872493Y-119450351D02*
X86920112Y-119355113D01*
X86920112Y-119355113D02*
X86967731Y-119307494D01*
X86967731Y-119307494D02*
X87062969Y-119259875D01*
X88253445Y-119259875D02*
X88062969Y-119259875D01*
X88062969Y-119259875D02*
X87967731Y-119307494D01*
X87967731Y-119307494D02*
X87920112Y-119355113D01*
X87920112Y-119355113D02*
X87824874Y-119497970D01*
X87824874Y-119497970D02*
X87777255Y-119688446D01*
X87777255Y-119688446D02*
X87777255Y-120069398D01*
X87777255Y-120069398D02*
X87824874Y-120164636D01*
X87824874Y-120164636D02*
X87872493Y-120212256D01*
X87872493Y-120212256D02*
X87967731Y-120259875D01*
X87967731Y-120259875D02*
X88158207Y-120259875D01*
X88158207Y-120259875D02*
X88253445Y-120212256D01*
X88253445Y-120212256D02*
X88301064Y-120164636D01*
X88301064Y-120164636D02*
X88348683Y-120069398D01*
X88348683Y-120069398D02*
X88348683Y-119831303D01*
X88348683Y-119831303D02*
X88301064Y-119736065D01*
X88301064Y-119736065D02*
X88253445Y-119688446D01*
X88253445Y-119688446D02*
X88158207Y-119640827D01*
X88158207Y-119640827D02*
X87967731Y-119640827D01*
X87967731Y-119640827D02*
X87872493Y-119688446D01*
X87872493Y-119688446D02*
X87824874Y-119736065D01*
X87824874Y-119736065D02*
X87777255Y-119831303D01*
X88777255Y-119878922D02*
X89539160Y-119878922D01*
X89967731Y-119974160D02*
X90443921Y-119974160D01*
X89872493Y-120259875D02*
X90205826Y-119259875D01*
X90205826Y-119259875D02*
X90539159Y-120259875D01*
X90824874Y-120212256D02*
X90967731Y-120259875D01*
X90967731Y-120259875D02*
X91205826Y-120259875D01*
X91205826Y-120259875D02*
X91301064Y-120212256D01*
X91301064Y-120212256D02*
X91348683Y-120164636D01*
X91348683Y-120164636D02*
X91396302Y-120069398D01*
X91396302Y-120069398D02*
X91396302Y-119974160D01*
X91396302Y-119974160D02*
X91348683Y-119878922D01*
X91348683Y-119878922D02*
X91301064Y-119831303D01*
X91301064Y-119831303D02*
X91205826Y-119783684D01*
X91205826Y-119783684D02*
X91015350Y-119736065D01*
X91015350Y-119736065D02*
X90920112Y-119688446D01*
X90920112Y-119688446D02*
X90872493Y-119640827D01*
X90872493Y-119640827D02*
X90824874Y-119545589D01*
X90824874Y-119545589D02*
X90824874Y-119450351D01*
X90824874Y-119450351D02*
X90872493Y-119355113D01*
X90872493Y-119355113D02*
X90920112Y-119307494D01*
X90920112Y-119307494D02*
X91015350Y-119259875D01*
X91015350Y-119259875D02*
X91253445Y-119259875D01*
X91253445Y-119259875D02*
X91396302Y-119307494D01*
X91777255Y-120212256D02*
X91920112Y-120259875D01*
X91920112Y-120259875D02*
X92158207Y-120259875D01*
X92158207Y-120259875D02*
X92253445Y-120212256D01*
X92253445Y-120212256D02*
X92301064Y-120164636D01*
X92301064Y-120164636D02*
X92348683Y-120069398D01*
X92348683Y-120069398D02*
X92348683Y-119974160D01*
X92348683Y-119974160D02*
X92301064Y-119878922D01*
X92301064Y-119878922D02*
X92253445Y-119831303D01*
X92253445Y-119831303D02*
X92158207Y-119783684D01*
X92158207Y-119783684D02*
X91967731Y-119736065D01*
X91967731Y-119736065D02*
X91872493Y-119688446D01*
X91872493Y-119688446D02*
X91824874Y-119640827D01*
X91824874Y-119640827D02*
X91777255Y-119545589D01*
X91777255Y-119545589D02*
X91777255Y-119450351D01*
X91777255Y-119450351D02*
X91824874Y-119355113D01*
X91824874Y-119355113D02*
X91872493Y-119307494D01*
X91872493Y-119307494D02*
X91967731Y-119259875D01*
X91967731Y-119259875D02*
X92205826Y-119259875D01*
X92205826Y-119259875D02*
X92348683Y-119307494D01*
X92967731Y-119783684D02*
X92967731Y-120259875D01*
X92634398Y-119259875D02*
X92967731Y-119783684D01*
X92967731Y-119783684D02*
X93301064Y-119259875D01*
X93634398Y-119878922D02*
X94396303Y-119878922D01*
X94872493Y-120259875D02*
X94872493Y-119259875D01*
X94872493Y-119259875D02*
X95253445Y-119259875D01*
X95253445Y-119259875D02*
X95348683Y-119307494D01*
X95348683Y-119307494D02*
X95396302Y-119355113D01*
X95396302Y-119355113D02*
X95443921Y-119450351D01*
X95443921Y-119450351D02*
X95443921Y-119593208D01*
X95443921Y-119593208D02*
X95396302Y-119688446D01*
X95396302Y-119688446D02*
X95348683Y-119736065D01*
X95348683Y-119736065D02*
X95253445Y-119783684D01*
X95253445Y-119783684D02*
X94872493Y-119783684D01*
X95872493Y-120259875D02*
X95872493Y-119593208D01*
X95872493Y-119783684D02*
X95920112Y-119688446D01*
X95920112Y-119688446D02*
X95967731Y-119640827D01*
X95967731Y-119640827D02*
X96062969Y-119593208D01*
X96062969Y-119593208D02*
X96158207Y-119593208D01*
X96634398Y-120259875D02*
X96539160Y-120212256D01*
X96539160Y-120212256D02*
X96491541Y-120164636D01*
X96491541Y-120164636D02*
X96443922Y-120069398D01*
X96443922Y-120069398D02*
X96443922Y-119783684D01*
X96443922Y-119783684D02*
X96491541Y-119688446D01*
X96491541Y-119688446D02*
X96539160Y-119640827D01*
X96539160Y-119640827D02*
X96634398Y-119593208D01*
X96634398Y-119593208D02*
X96777255Y-119593208D01*
X96777255Y-119593208D02*
X96872493Y-119640827D01*
X96872493Y-119640827D02*
X96920112Y-119688446D01*
X96920112Y-119688446D02*
X96967731Y-119783684D01*
X96967731Y-119783684D02*
X96967731Y-120069398D01*
X96967731Y-120069398D02*
X96920112Y-120164636D01*
X96920112Y-120164636D02*
X96872493Y-120212256D01*
X96872493Y-120212256D02*
X96777255Y-120259875D01*
X96777255Y-120259875D02*
X96634398Y-120259875D01*
X97253446Y-119593208D02*
X97634398Y-119593208D01*
X97396303Y-119259875D02*
X97396303Y-120117017D01*
X97396303Y-120117017D02*
X97443922Y-120212256D01*
X97443922Y-120212256D02*
X97539160Y-120259875D01*
X97539160Y-120259875D02*
X97634398Y-120259875D01*
X98110589Y-120259875D02*
X98015351Y-120212256D01*
X98015351Y-120212256D02*
X97967732Y-120164636D01*
X97967732Y-120164636D02*
X97920113Y-120069398D01*
X97920113Y-120069398D02*
X97920113Y-119783684D01*
X97920113Y-119783684D02*
X97967732Y-119688446D01*
X97967732Y-119688446D02*
X98015351Y-119640827D01*
X98015351Y-119640827D02*
X98110589Y-119593208D01*
X98110589Y-119593208D02*
X98253446Y-119593208D01*
X98253446Y-119593208D02*
X98348684Y-119640827D01*
X98348684Y-119640827D02*
X98396303Y-119688446D01*
X98396303Y-119688446D02*
X98443922Y-119783684D01*
X98443922Y-119783684D02*
X98443922Y-120069398D01*
X98443922Y-120069398D02*
X98396303Y-120164636D01*
X98396303Y-120164636D02*
X98348684Y-120212256D01*
X98348684Y-120212256D02*
X98253446Y-120259875D01*
X98253446Y-120259875D02*
X98110589Y-120259875D01*
X98634399Y-120355113D02*
X99396303Y-120355113D01*
X100158208Y-120259875D02*
X99586780Y-120259875D01*
X99872494Y-120259875D02*
X99872494Y-119259875D01*
X99872494Y-119259875D02*
X99777256Y-119402732D01*
X99777256Y-119402732D02*
X99682018Y-119497970D01*
X99682018Y-119497970D02*
X99586780Y-119545589D01*
X100348685Y-120355113D02*
X101110589Y-120355113D01*
X101301066Y-119974160D02*
X101777256Y-119974160D01*
X101205828Y-120259875D02*
X101539161Y-119259875D01*
X101539161Y-119259875D02*
X101872494Y-120259875D01*
X81777255Y-120869819D02*
X81872493Y-120869819D01*
X81872493Y-120869819D02*
X81967731Y-120917438D01*
X81967731Y-120917438D02*
X82015350Y-120965057D01*
X82015350Y-120965057D02*
X82062969Y-121060295D01*
X82062969Y-121060295D02*
X82110588Y-121250771D01*
X82110588Y-121250771D02*
X82110588Y-121488866D01*
X82110588Y-121488866D02*
X82062969Y-121679342D01*
X82062969Y-121679342D02*
X82015350Y-121774580D01*
X82015350Y-121774580D02*
X81967731Y-121822200D01*
X81967731Y-121822200D02*
X81872493Y-121869819D01*
X81872493Y-121869819D02*
X81777255Y-121869819D01*
X81777255Y-121869819D02*
X81682017Y-121822200D01*
X81682017Y-121822200D02*
X81634398Y-121774580D01*
X81634398Y-121774580D02*
X81586779Y-121679342D01*
X81586779Y-121679342D02*
X81539160Y-121488866D01*
X81539160Y-121488866D02*
X81539160Y-121250771D01*
X81539160Y-121250771D02*
X81586779Y-121060295D01*
X81586779Y-121060295D02*
X81634398Y-120965057D01*
X81634398Y-120965057D02*
X81682017Y-120917438D01*
X81682017Y-120917438D02*
X81777255Y-120869819D01*
X82491541Y-120965057D02*
X82539160Y-120917438D01*
X82539160Y-120917438D02*
X82634398Y-120869819D01*
X82634398Y-120869819D02*
X82872493Y-120869819D01*
X82872493Y-120869819D02*
X82967731Y-120917438D01*
X82967731Y-120917438D02*
X83015350Y-120965057D01*
X83015350Y-120965057D02*
X83062969Y-121060295D01*
X83062969Y-121060295D02*
X83062969Y-121155533D01*
X83062969Y-121155533D02*
X83015350Y-121298390D01*
X83015350Y-121298390D02*
X82443922Y-121869819D01*
X82443922Y-121869819D02*
X83062969Y-121869819D01*
X84205826Y-120822200D02*
X83348684Y-122107914D01*
X84729636Y-120869819D02*
X84824874Y-120869819D01*
X84824874Y-120869819D02*
X84920112Y-120917438D01*
X84920112Y-120917438D02*
X84967731Y-120965057D01*
X84967731Y-120965057D02*
X85015350Y-121060295D01*
X85015350Y-121060295D02*
X85062969Y-121250771D01*
X85062969Y-121250771D02*
X85062969Y-121488866D01*
X85062969Y-121488866D02*
X85015350Y-121679342D01*
X85015350Y-121679342D02*
X84967731Y-121774580D01*
X84967731Y-121774580D02*
X84920112Y-121822200D01*
X84920112Y-121822200D02*
X84824874Y-121869819D01*
X84824874Y-121869819D02*
X84729636Y-121869819D01*
X84729636Y-121869819D02*
X84634398Y-121822200D01*
X84634398Y-121822200D02*
X84586779Y-121774580D01*
X84586779Y-121774580D02*
X84539160Y-121679342D01*
X84539160Y-121679342D02*
X84491541Y-121488866D01*
X84491541Y-121488866D02*
X84491541Y-121250771D01*
X84491541Y-121250771D02*
X84539160Y-121060295D01*
X84539160Y-121060295D02*
X84586779Y-120965057D01*
X84586779Y-120965057D02*
X84634398Y-120917438D01*
X84634398Y-120917438D02*
X84729636Y-120869819D01*
X85396303Y-120869819D02*
X86015350Y-120869819D01*
X86015350Y-120869819D02*
X85682017Y-121250771D01*
X85682017Y-121250771D02*
X85824874Y-121250771D01*
X85824874Y-121250771D02*
X85920112Y-121298390D01*
X85920112Y-121298390D02*
X85967731Y-121346009D01*
X85967731Y-121346009D02*
X86015350Y-121441247D01*
X86015350Y-121441247D02*
X86015350Y-121679342D01*
X86015350Y-121679342D02*
X85967731Y-121774580D01*
X85967731Y-121774580D02*
X85920112Y-121822200D01*
X85920112Y-121822200D02*
X85824874Y-121869819D01*
X85824874Y-121869819D02*
X85539160Y-121869819D01*
X85539160Y-121869819D02*
X85443922Y-121822200D01*
X85443922Y-121822200D02*
X85396303Y-121774580D01*
X87158207Y-120822200D02*
X86301065Y-122107914D01*
X87443922Y-120965057D02*
X87491541Y-120917438D01*
X87491541Y-120917438D02*
X87586779Y-120869819D01*
X87586779Y-120869819D02*
X87824874Y-120869819D01*
X87824874Y-120869819D02*
X87920112Y-120917438D01*
X87920112Y-120917438D02*
X87967731Y-120965057D01*
X87967731Y-120965057D02*
X88015350Y-121060295D01*
X88015350Y-121060295D02*
X88015350Y-121155533D01*
X88015350Y-121155533D02*
X87967731Y-121298390D01*
X87967731Y-121298390D02*
X87396303Y-121869819D01*
X87396303Y-121869819D02*
X88015350Y-121869819D01*
X88920112Y-120869819D02*
X88443922Y-120869819D01*
X88443922Y-120869819D02*
X88396303Y-121346009D01*
X88396303Y-121346009D02*
X88443922Y-121298390D01*
X88443922Y-121298390D02*
X88539160Y-121250771D01*
X88539160Y-121250771D02*
X88777255Y-121250771D01*
X88777255Y-121250771D02*
X88872493Y-121298390D01*
X88872493Y-121298390D02*
X88920112Y-121346009D01*
X88920112Y-121346009D02*
X88967731Y-121441247D01*
X88967731Y-121441247D02*
X88967731Y-121679342D01*
X88967731Y-121679342D02*
X88920112Y-121774580D01*
X88920112Y-121774580D02*
X88872493Y-121822200D01*
X88872493Y-121822200D02*
X88777255Y-121869819D01*
X88777255Y-121869819D02*
X88539160Y-121869819D01*
X88539160Y-121869819D02*
X88443922Y-121822200D01*
X88443922Y-121822200D02*
X88396303Y-121774580D01*
X100988095Y-78904819D02*
X101559523Y-78904819D01*
X101273809Y-79904819D02*
X101273809Y-78904819D01*
X101892857Y-79904819D02*
X101892857Y-78904819D01*
X101892857Y-78904819D02*
X102273809Y-78904819D01*
X102273809Y-78904819D02*
X102369047Y-78952438D01*
X102369047Y-78952438D02*
X102416666Y-79000057D01*
X102416666Y-79000057D02*
X102464285Y-79095295D01*
X102464285Y-79095295D02*
X102464285Y-79238152D01*
X102464285Y-79238152D02*
X102416666Y-79333390D01*
X102416666Y-79333390D02*
X102369047Y-79381009D01*
X102369047Y-79381009D02*
X102273809Y-79428628D01*
X102273809Y-79428628D02*
X101892857Y-79428628D01*
X103321428Y-79238152D02*
X103321428Y-79904819D01*
X103083333Y-78857200D02*
X102845238Y-79571485D01*
X102845238Y-79571485D02*
X103464285Y-79571485D01*
D14*
X110513842Y-110717619D02*
X110574318Y-110536190D01*
X110574318Y-110536190D02*
X110574318Y-110233809D01*
X110574318Y-110233809D02*
X110513842Y-110112857D01*
X110513842Y-110112857D02*
X110453365Y-110052381D01*
X110453365Y-110052381D02*
X110332413Y-109991904D01*
X110332413Y-109991904D02*
X110211461Y-109991904D01*
X110211461Y-109991904D02*
X110090508Y-110052381D01*
X110090508Y-110052381D02*
X110030032Y-110112857D01*
X110030032Y-110112857D02*
X109969556Y-110233809D01*
X109969556Y-110233809D02*
X109909080Y-110475714D01*
X109909080Y-110475714D02*
X109848603Y-110596666D01*
X109848603Y-110596666D02*
X109788127Y-110657143D01*
X109788127Y-110657143D02*
X109667175Y-110717619D01*
X109667175Y-110717619D02*
X109546222Y-110717619D01*
X109546222Y-110717619D02*
X109425270Y-110657143D01*
X109425270Y-110657143D02*
X109364794Y-110596666D01*
X109364794Y-110596666D02*
X109304318Y-110475714D01*
X109304318Y-110475714D02*
X109304318Y-110173333D01*
X109304318Y-110173333D02*
X109364794Y-109991904D01*
X110574318Y-108782380D02*
X110574318Y-109508095D01*
X110574318Y-109145238D02*
X109304318Y-109145238D01*
X109304318Y-109145238D02*
X109485746Y-109266190D01*
X109485746Y-109266190D02*
X109606699Y-109387142D01*
X109606699Y-109387142D02*
X109667175Y-109508095D01*
D13*
X123154819Y-119666666D02*
X123154819Y-119095238D01*
X124154819Y-119380952D02*
X123154819Y-119380952D01*
X124154819Y-118761904D02*
X123154819Y-118761904D01*
X123154819Y-118761904D02*
X123154819Y-118380952D01*
X123154819Y-118380952D02*
X123202438Y-118285714D01*
X123202438Y-118285714D02*
X123250057Y-118238095D01*
X123250057Y-118238095D02*
X123345295Y-118190476D01*
X123345295Y-118190476D02*
X123488152Y-118190476D01*
X123488152Y-118190476D02*
X123583390Y-118238095D01*
X123583390Y-118238095D02*
X123631009Y-118285714D01*
X123631009Y-118285714D02*
X123678628Y-118380952D01*
X123678628Y-118380952D02*
X123678628Y-118761904D01*
X124250057Y-118000000D02*
X124250057Y-117238095D01*
X123202438Y-116476190D02*
X123154819Y-116571428D01*
X123154819Y-116571428D02*
X123154819Y-116714285D01*
X123154819Y-116714285D02*
X123202438Y-116857142D01*
X123202438Y-116857142D02*
X123297676Y-116952380D01*
X123297676Y-116952380D02*
X123392914Y-116999999D01*
X123392914Y-116999999D02*
X123583390Y-117047618D01*
X123583390Y-117047618D02*
X123726247Y-117047618D01*
X123726247Y-117047618D02*
X123916723Y-116999999D01*
X123916723Y-116999999D02*
X124011961Y-116952380D01*
X124011961Y-116952380D02*
X124107200Y-116857142D01*
X124107200Y-116857142D02*
X124154819Y-116714285D01*
X124154819Y-116714285D02*
X124154819Y-116619047D01*
X124154819Y-116619047D02*
X124107200Y-116476190D01*
X124107200Y-116476190D02*
X124059580Y-116428571D01*
X124059580Y-116428571D02*
X123726247Y-116428571D01*
X123726247Y-116428571D02*
X123726247Y-116619047D01*
X124154819Y-115999999D02*
X123154819Y-115999999D01*
X123154819Y-115999999D02*
X124154819Y-115428571D01*
X124154819Y-115428571D02*
X123154819Y-115428571D01*
X124154819Y-114952380D02*
X123154819Y-114952380D01*
X123154819Y-114952380D02*
X123154819Y-114714285D01*
X123154819Y-114714285D02*
X123202438Y-114571428D01*
X123202438Y-114571428D02*
X123297676Y-114476190D01*
X123297676Y-114476190D02*
X123392914Y-114428571D01*
X123392914Y-114428571D02*
X123583390Y-114380952D01*
X123583390Y-114380952D02*
X123726247Y-114380952D01*
X123726247Y-114380952D02*
X123916723Y-114428571D01*
X123916723Y-114428571D02*
X124011961Y-114476190D01*
X124011961Y-114476190D02*
X124107200Y-114571428D01*
X124107200Y-114571428D02*
X124154819Y-114714285D01*
X124154819Y-114714285D02*
X124154819Y-114952380D01*
X123154819Y-114047618D02*
X123154819Y-113428571D01*
X123154819Y-113428571D02*
X123535771Y-113761904D01*
X123535771Y-113761904D02*
X123535771Y-113619047D01*
X123535771Y-113619047D02*
X123583390Y-113523809D01*
X123583390Y-113523809D02*
X123631009Y-113476190D01*
X123631009Y-113476190D02*
X123726247Y-113428571D01*
X123726247Y-113428571D02*
X123964342Y-113428571D01*
X123964342Y-113428571D02*
X124059580Y-113476190D01*
X124059580Y-113476190D02*
X124107200Y-113523809D01*
X124107200Y-113523809D02*
X124154819Y-113619047D01*
X124154819Y-113619047D02*
X124154819Y-113904761D01*
X124154819Y-113904761D02*
X124107200Y-113999999D01*
X124107200Y-113999999D02*
X124059580Y-114047618D01*
X73579819Y-93511904D02*
X74389342Y-93511904D01*
X74389342Y-93511904D02*
X74484580Y-93464285D01*
X74484580Y-93464285D02*
X74532200Y-93416666D01*
X74532200Y-93416666D02*
X74579819Y-93321428D01*
X74579819Y-93321428D02*
X74579819Y-93130952D01*
X74579819Y-93130952D02*
X74532200Y-93035714D01*
X74532200Y-93035714D02*
X74484580Y-92988095D01*
X74484580Y-92988095D02*
X74389342Y-92940476D01*
X74389342Y-92940476D02*
X73579819Y-92940476D01*
X74579819Y-91940476D02*
X74579819Y-92511904D01*
X74579819Y-92226190D02*
X73579819Y-92226190D01*
X73579819Y-92226190D02*
X73722676Y-92321428D01*
X73722676Y-92321428D02*
X73817914Y-92416666D01*
X73817914Y-92416666D02*
X73865533Y-92511904D01*
X82833333Y-92681009D02*
X83166666Y-92681009D01*
X83309523Y-93204819D02*
X82833333Y-93204819D01*
X82833333Y-93204819D02*
X82833333Y-92204819D01*
X82833333Y-92204819D02*
X83309523Y-92204819D01*
X83690476Y-93157200D02*
X83833333Y-93204819D01*
X83833333Y-93204819D02*
X84071428Y-93204819D01*
X84071428Y-93204819D02*
X84166666Y-93157200D01*
X84166666Y-93157200D02*
X84214285Y-93109580D01*
X84214285Y-93109580D02*
X84261904Y-93014342D01*
X84261904Y-93014342D02*
X84261904Y-92919104D01*
X84261904Y-92919104D02*
X84214285Y-92823866D01*
X84214285Y-92823866D02*
X84166666Y-92776247D01*
X84166666Y-92776247D02*
X84071428Y-92728628D01*
X84071428Y-92728628D02*
X83880952Y-92681009D01*
X83880952Y-92681009D02*
X83785714Y-92633390D01*
X83785714Y-92633390D02*
X83738095Y-92585771D01*
X83738095Y-92585771D02*
X83690476Y-92490533D01*
X83690476Y-92490533D02*
X83690476Y-92395295D01*
X83690476Y-92395295D02*
X83738095Y-92300057D01*
X83738095Y-92300057D02*
X83785714Y-92252438D01*
X83785714Y-92252438D02*
X83880952Y-92204819D01*
X83880952Y-92204819D02*
X84119047Y-92204819D01*
X84119047Y-92204819D02*
X84261904Y-92252438D01*
X84690476Y-93204819D02*
X84690476Y-92204819D01*
X84690476Y-92204819D02*
X85071428Y-92204819D01*
X85071428Y-92204819D02*
X85166666Y-92252438D01*
X85166666Y-92252438D02*
X85214285Y-92300057D01*
X85214285Y-92300057D02*
X85261904Y-92395295D01*
X85261904Y-92395295D02*
X85261904Y-92538152D01*
X85261904Y-92538152D02*
X85214285Y-92633390D01*
X85214285Y-92633390D02*
X85166666Y-92681009D01*
X85166666Y-92681009D02*
X85071428Y-92728628D01*
X85071428Y-92728628D02*
X84690476Y-92728628D01*
X85595238Y-92204819D02*
X86214285Y-92204819D01*
X86214285Y-92204819D02*
X85880952Y-92585771D01*
X85880952Y-92585771D02*
X86023809Y-92585771D01*
X86023809Y-92585771D02*
X86119047Y-92633390D01*
X86119047Y-92633390D02*
X86166666Y-92681009D01*
X86166666Y-92681009D02*
X86214285Y-92776247D01*
X86214285Y-92776247D02*
X86214285Y-93014342D01*
X86214285Y-93014342D02*
X86166666Y-93109580D01*
X86166666Y-93109580D02*
X86119047Y-93157200D01*
X86119047Y-93157200D02*
X86023809Y-93204819D01*
X86023809Y-93204819D02*
X85738095Y-93204819D01*
X85738095Y-93204819D02*
X85642857Y-93157200D01*
X85642857Y-93157200D02*
X85595238Y-93109580D01*
X86595238Y-92300057D02*
X86642857Y-92252438D01*
X86642857Y-92252438D02*
X86738095Y-92204819D01*
X86738095Y-92204819D02*
X86976190Y-92204819D01*
X86976190Y-92204819D02*
X87071428Y-92252438D01*
X87071428Y-92252438D02*
X87119047Y-92300057D01*
X87119047Y-92300057D02*
X87166666Y-92395295D01*
X87166666Y-92395295D02*
X87166666Y-92490533D01*
X87166666Y-92490533D02*
X87119047Y-92633390D01*
X87119047Y-92633390D02*
X86547619Y-93204819D01*
X86547619Y-93204819D02*
X87166666Y-93204819D01*
X87595238Y-92823866D02*
X88357143Y-92823866D01*
X88690476Y-92204819D02*
X89023809Y-93204819D01*
X89023809Y-93204819D02*
X89357142Y-92204819D01*
X89642857Y-92300057D02*
X89690476Y-92252438D01*
X89690476Y-92252438D02*
X89785714Y-92204819D01*
X89785714Y-92204819D02*
X90023809Y-92204819D01*
X90023809Y-92204819D02*
X90119047Y-92252438D01*
X90119047Y-92252438D02*
X90166666Y-92300057D01*
X90166666Y-92300057D02*
X90214285Y-92395295D01*
X90214285Y-92395295D02*
X90214285Y-92490533D01*
X90214285Y-92490533D02*
X90166666Y-92633390D01*
X90166666Y-92633390D02*
X89595238Y-93204819D01*
X89595238Y-93204819D02*
X90214285Y-93204819D01*
X111488095Y-79154819D02*
X112059523Y-79154819D01*
X111773809Y-80154819D02*
X111773809Y-79154819D01*
X112392857Y-80154819D02*
X112392857Y-79154819D01*
X112392857Y-79154819D02*
X112773809Y-79154819D01*
X112773809Y-79154819D02*
X112869047Y-79202438D01*
X112869047Y-79202438D02*
X112916666Y-79250057D01*
X112916666Y-79250057D02*
X112964285Y-79345295D01*
X112964285Y-79345295D02*
X112964285Y-79488152D01*
X112964285Y-79488152D02*
X112916666Y-79583390D01*
X112916666Y-79583390D02*
X112869047Y-79631009D01*
X112869047Y-79631009D02*
X112773809Y-79678628D01*
X112773809Y-79678628D02*
X112392857Y-79678628D01*
X113535714Y-79583390D02*
X113440476Y-79535771D01*
X113440476Y-79535771D02*
X113392857Y-79488152D01*
X113392857Y-79488152D02*
X113345238Y-79392914D01*
X113345238Y-79392914D02*
X113345238Y-79345295D01*
X113345238Y-79345295D02*
X113392857Y-79250057D01*
X113392857Y-79250057D02*
X113440476Y-79202438D01*
X113440476Y-79202438D02*
X113535714Y-79154819D01*
X113535714Y-79154819D02*
X113726190Y-79154819D01*
X113726190Y-79154819D02*
X113821428Y-79202438D01*
X113821428Y-79202438D02*
X113869047Y-79250057D01*
X113869047Y-79250057D02*
X113916666Y-79345295D01*
X113916666Y-79345295D02*
X113916666Y-79392914D01*
X113916666Y-79392914D02*
X113869047Y-79488152D01*
X113869047Y-79488152D02*
X113821428Y-79535771D01*
X113821428Y-79535771D02*
X113726190Y-79583390D01*
X113726190Y-79583390D02*
X113535714Y-79583390D01*
X113535714Y-79583390D02*
X113440476Y-79631009D01*
X113440476Y-79631009D02*
X113392857Y-79678628D01*
X113392857Y-79678628D02*
X113345238Y-79773866D01*
X113345238Y-79773866D02*
X113345238Y-79964342D01*
X113345238Y-79964342D02*
X113392857Y-80059580D01*
X113392857Y-80059580D02*
X113440476Y-80107200D01*
X113440476Y-80107200D02*
X113535714Y-80154819D01*
X113535714Y-80154819D02*
X113726190Y-80154819D01*
X113726190Y-80154819D02*
X113821428Y-80107200D01*
X113821428Y-80107200D02*
X113869047Y-80059580D01*
X113869047Y-80059580D02*
X113916666Y-79964342D01*
X113916666Y-79964342D02*
X113916666Y-79773866D01*
X113916666Y-79773866D02*
X113869047Y-79678628D01*
X113869047Y-79678628D02*
X113821428Y-79631009D01*
X113821428Y-79631009D02*
X113726190Y-79583390D01*
X123154819Y-112666666D02*
X123154819Y-112095238D01*
X124154819Y-112380952D02*
X123154819Y-112380952D01*
X124154819Y-111761904D02*
X123154819Y-111761904D01*
X123154819Y-111761904D02*
X123154819Y-111380952D01*
X123154819Y-111380952D02*
X123202438Y-111285714D01*
X123202438Y-111285714D02*
X123250057Y-111238095D01*
X123250057Y-111238095D02*
X123345295Y-111190476D01*
X123345295Y-111190476D02*
X123488152Y-111190476D01*
X123488152Y-111190476D02*
X123583390Y-111238095D01*
X123583390Y-111238095D02*
X123631009Y-111285714D01*
X123631009Y-111285714D02*
X123678628Y-111380952D01*
X123678628Y-111380952D02*
X123678628Y-111761904D01*
X124250057Y-111000000D02*
X124250057Y-110238095D01*
X123202438Y-109476190D02*
X123154819Y-109571428D01*
X123154819Y-109571428D02*
X123154819Y-109714285D01*
X123154819Y-109714285D02*
X123202438Y-109857142D01*
X123202438Y-109857142D02*
X123297676Y-109952380D01*
X123297676Y-109952380D02*
X123392914Y-109999999D01*
X123392914Y-109999999D02*
X123583390Y-110047618D01*
X123583390Y-110047618D02*
X123726247Y-110047618D01*
X123726247Y-110047618D02*
X123916723Y-109999999D01*
X123916723Y-109999999D02*
X124011961Y-109952380D01*
X124011961Y-109952380D02*
X124107200Y-109857142D01*
X124107200Y-109857142D02*
X124154819Y-109714285D01*
X124154819Y-109714285D02*
X124154819Y-109619047D01*
X124154819Y-109619047D02*
X124107200Y-109476190D01*
X124107200Y-109476190D02*
X124059580Y-109428571D01*
X124059580Y-109428571D02*
X123726247Y-109428571D01*
X123726247Y-109428571D02*
X123726247Y-109619047D01*
X124154819Y-108999999D02*
X123154819Y-108999999D01*
X123154819Y-108999999D02*
X124154819Y-108428571D01*
X124154819Y-108428571D02*
X123154819Y-108428571D01*
X124154819Y-107952380D02*
X123154819Y-107952380D01*
X123154819Y-107952380D02*
X123154819Y-107714285D01*
X123154819Y-107714285D02*
X123202438Y-107571428D01*
X123202438Y-107571428D02*
X123297676Y-107476190D01*
X123297676Y-107476190D02*
X123392914Y-107428571D01*
X123392914Y-107428571D02*
X123583390Y-107380952D01*
X123583390Y-107380952D02*
X123726247Y-107380952D01*
X123726247Y-107380952D02*
X123916723Y-107428571D01*
X123916723Y-107428571D02*
X124011961Y-107476190D01*
X124011961Y-107476190D02*
X124107200Y-107571428D01*
X124107200Y-107571428D02*
X124154819Y-107714285D01*
X124154819Y-107714285D02*
X124154819Y-107952380D01*
X123250057Y-106999999D02*
X123202438Y-106952380D01*
X123202438Y-106952380D02*
X123154819Y-106857142D01*
X123154819Y-106857142D02*
X123154819Y-106619047D01*
X123154819Y-106619047D02*
X123202438Y-106523809D01*
X123202438Y-106523809D02*
X123250057Y-106476190D01*
X123250057Y-106476190D02*
X123345295Y-106428571D01*
X123345295Y-106428571D02*
X123440533Y-106428571D01*
X123440533Y-106428571D02*
X123583390Y-106476190D01*
X123583390Y-106476190D02*
X124154819Y-107047618D01*
X124154819Y-107047618D02*
X124154819Y-106428571D01*
X78428571Y-87404819D02*
X78999999Y-87404819D01*
X78714285Y-88404819D02*
X78714285Y-87404819D01*
X79333333Y-88404819D02*
X79333333Y-87404819D01*
X79333333Y-87404819D02*
X79714285Y-87404819D01*
X79714285Y-87404819D02*
X79809523Y-87452438D01*
X79809523Y-87452438D02*
X79857142Y-87500057D01*
X79857142Y-87500057D02*
X79904761Y-87595295D01*
X79904761Y-87595295D02*
X79904761Y-87738152D01*
X79904761Y-87738152D02*
X79857142Y-87833390D01*
X79857142Y-87833390D02*
X79809523Y-87881009D01*
X79809523Y-87881009D02*
X79714285Y-87928628D01*
X79714285Y-87928628D02*
X79333333Y-87928628D01*
X80095238Y-88500057D02*
X80857142Y-88500057D01*
X80952381Y-87404819D02*
X81285714Y-88404819D01*
X81285714Y-88404819D02*
X81619047Y-87404819D01*
X82285714Y-87881009D02*
X82428571Y-87928628D01*
X82428571Y-87928628D02*
X82476190Y-87976247D01*
X82476190Y-87976247D02*
X82523809Y-88071485D01*
X82523809Y-88071485D02*
X82523809Y-88214342D01*
X82523809Y-88214342D02*
X82476190Y-88309580D01*
X82476190Y-88309580D02*
X82428571Y-88357200D01*
X82428571Y-88357200D02*
X82333333Y-88404819D01*
X82333333Y-88404819D02*
X81952381Y-88404819D01*
X81952381Y-88404819D02*
X81952381Y-87404819D01*
X81952381Y-87404819D02*
X82285714Y-87404819D01*
X82285714Y-87404819D02*
X82380952Y-87452438D01*
X82380952Y-87452438D02*
X82428571Y-87500057D01*
X82428571Y-87500057D02*
X82476190Y-87595295D01*
X82476190Y-87595295D02*
X82476190Y-87690533D01*
X82476190Y-87690533D02*
X82428571Y-87785771D01*
X82428571Y-87785771D02*
X82380952Y-87833390D01*
X82380952Y-87833390D02*
X82285714Y-87881009D01*
X82285714Y-87881009D02*
X81952381Y-87881009D01*
X82952381Y-87404819D02*
X82952381Y-88214342D01*
X82952381Y-88214342D02*
X83000000Y-88309580D01*
X83000000Y-88309580D02*
X83047619Y-88357200D01*
X83047619Y-88357200D02*
X83142857Y-88404819D01*
X83142857Y-88404819D02*
X83333333Y-88404819D01*
X83333333Y-88404819D02*
X83428571Y-88357200D01*
X83428571Y-88357200D02*
X83476190Y-88309580D01*
X83476190Y-88309580D02*
X83523809Y-88214342D01*
X83523809Y-88214342D02*
X83523809Y-87404819D01*
X83952381Y-88357200D02*
X84095238Y-88404819D01*
X84095238Y-88404819D02*
X84333333Y-88404819D01*
X84333333Y-88404819D02*
X84428571Y-88357200D01*
X84428571Y-88357200D02*
X84476190Y-88309580D01*
X84476190Y-88309580D02*
X84523809Y-88214342D01*
X84523809Y-88214342D02*
X84523809Y-88119104D01*
X84523809Y-88119104D02*
X84476190Y-88023866D01*
X84476190Y-88023866D02*
X84428571Y-87976247D01*
X84428571Y-87976247D02*
X84333333Y-87928628D01*
X84333333Y-87928628D02*
X84142857Y-87881009D01*
X84142857Y-87881009D02*
X84047619Y-87833390D01*
X84047619Y-87833390D02*
X84000000Y-87785771D01*
X84000000Y-87785771D02*
X83952381Y-87690533D01*
X83952381Y-87690533D02*
X83952381Y-87595295D01*
X83952381Y-87595295D02*
X84000000Y-87500057D01*
X84000000Y-87500057D02*
X84047619Y-87452438D01*
X84047619Y-87452438D02*
X84142857Y-87404819D01*
X84142857Y-87404819D02*
X84380952Y-87404819D01*
X84380952Y-87404819D02*
X84523809Y-87452438D01*
X85476190Y-88404819D02*
X84904762Y-88404819D01*
X85190476Y-88404819D02*
X85190476Y-87404819D01*
X85190476Y-87404819D02*
X85095238Y-87547676D01*
X85095238Y-87547676D02*
X85000000Y-87642914D01*
X85000000Y-87642914D02*
X84904762Y-87690533D01*
X98238095Y-92654819D02*
X98809523Y-92654819D01*
X98523809Y-93654819D02*
X98523809Y-92654819D01*
X99142857Y-93654819D02*
X99142857Y-92654819D01*
X99142857Y-92654819D02*
X99523809Y-92654819D01*
X99523809Y-92654819D02*
X99619047Y-92702438D01*
X99619047Y-92702438D02*
X99666666Y-92750057D01*
X99666666Y-92750057D02*
X99714285Y-92845295D01*
X99714285Y-92845295D02*
X99714285Y-92988152D01*
X99714285Y-92988152D02*
X99666666Y-93083390D01*
X99666666Y-93083390D02*
X99619047Y-93131009D01*
X99619047Y-93131009D02*
X99523809Y-93178628D01*
X99523809Y-93178628D02*
X99142857Y-93178628D01*
X100619047Y-92654819D02*
X100142857Y-92654819D01*
X100142857Y-92654819D02*
X100095238Y-93131009D01*
X100095238Y-93131009D02*
X100142857Y-93083390D01*
X100142857Y-93083390D02*
X100238095Y-93035771D01*
X100238095Y-93035771D02*
X100476190Y-93035771D01*
X100476190Y-93035771D02*
X100571428Y-93083390D01*
X100571428Y-93083390D02*
X100619047Y-93131009D01*
X100619047Y-93131009D02*
X100666666Y-93226247D01*
X100666666Y-93226247D02*
X100666666Y-93464342D01*
X100666666Y-93464342D02*
X100619047Y-93559580D01*
X100619047Y-93559580D02*
X100571428Y-93607200D01*
X100571428Y-93607200D02*
X100476190Y-93654819D01*
X100476190Y-93654819D02*
X100238095Y-93654819D01*
X100238095Y-93654819D02*
X100142857Y-93607200D01*
X100142857Y-93607200D02*
X100095238Y-93559580D01*
X103238095Y-92654819D02*
X103809523Y-92654819D01*
X103523809Y-93654819D02*
X103523809Y-92654819D01*
X104142857Y-93654819D02*
X104142857Y-92654819D01*
X104142857Y-92654819D02*
X104523809Y-92654819D01*
X104523809Y-92654819D02*
X104619047Y-92702438D01*
X104619047Y-92702438D02*
X104666666Y-92750057D01*
X104666666Y-92750057D02*
X104714285Y-92845295D01*
X104714285Y-92845295D02*
X104714285Y-92988152D01*
X104714285Y-92988152D02*
X104666666Y-93083390D01*
X104666666Y-93083390D02*
X104619047Y-93131009D01*
X104619047Y-93131009D02*
X104523809Y-93178628D01*
X104523809Y-93178628D02*
X104142857Y-93178628D01*
X105047619Y-92654819D02*
X105714285Y-92654819D01*
X105714285Y-92654819D02*
X105285714Y-93654819D01*
X80833333Y-105204819D02*
X81404761Y-105204819D01*
X81119047Y-106204819D02*
X81119047Y-105204819D01*
X81738095Y-106204819D02*
X81738095Y-105204819D01*
X81738095Y-105204819D02*
X82119047Y-105204819D01*
X82119047Y-105204819D02*
X82214285Y-105252438D01*
X82214285Y-105252438D02*
X82261904Y-105300057D01*
X82261904Y-105300057D02*
X82309523Y-105395295D01*
X82309523Y-105395295D02*
X82309523Y-105538152D01*
X82309523Y-105538152D02*
X82261904Y-105633390D01*
X82261904Y-105633390D02*
X82214285Y-105681009D01*
X82214285Y-105681009D02*
X82119047Y-105728628D01*
X82119047Y-105728628D02*
X81738095Y-105728628D01*
X82500000Y-106300057D02*
X83261904Y-106300057D01*
X84023809Y-105252438D02*
X83928571Y-105204819D01*
X83928571Y-105204819D02*
X83785714Y-105204819D01*
X83785714Y-105204819D02*
X83642857Y-105252438D01*
X83642857Y-105252438D02*
X83547619Y-105347676D01*
X83547619Y-105347676D02*
X83500000Y-105442914D01*
X83500000Y-105442914D02*
X83452381Y-105633390D01*
X83452381Y-105633390D02*
X83452381Y-105776247D01*
X83452381Y-105776247D02*
X83500000Y-105966723D01*
X83500000Y-105966723D02*
X83547619Y-106061961D01*
X83547619Y-106061961D02*
X83642857Y-106157200D01*
X83642857Y-106157200D02*
X83785714Y-106204819D01*
X83785714Y-106204819D02*
X83880952Y-106204819D01*
X83880952Y-106204819D02*
X84023809Y-106157200D01*
X84023809Y-106157200D02*
X84071428Y-106109580D01*
X84071428Y-106109580D02*
X84071428Y-105776247D01*
X84071428Y-105776247D02*
X83880952Y-105776247D01*
X84500000Y-106204819D02*
X84500000Y-105204819D01*
X84500000Y-105204819D02*
X85071428Y-106204819D01*
X85071428Y-106204819D02*
X85071428Y-105204819D01*
X85547619Y-106204819D02*
X85547619Y-105204819D01*
X85547619Y-105204819D02*
X85785714Y-105204819D01*
X85785714Y-105204819D02*
X85928571Y-105252438D01*
X85928571Y-105252438D02*
X86023809Y-105347676D01*
X86023809Y-105347676D02*
X86071428Y-105442914D01*
X86071428Y-105442914D02*
X86119047Y-105633390D01*
X86119047Y-105633390D02*
X86119047Y-105776247D01*
X86119047Y-105776247D02*
X86071428Y-105966723D01*
X86071428Y-105966723D02*
X86023809Y-106061961D01*
X86023809Y-106061961D02*
X85928571Y-106157200D01*
X85928571Y-106157200D02*
X85785714Y-106204819D01*
X85785714Y-106204819D02*
X85547619Y-106204819D01*
X87071428Y-106204819D02*
X86500000Y-106204819D01*
X86785714Y-106204819D02*
X86785714Y-105204819D01*
X86785714Y-105204819D02*
X86690476Y-105347676D01*
X86690476Y-105347676D02*
X86595238Y-105442914D01*
X86595238Y-105442914D02*
X86500000Y-105490533D01*
X74988095Y-111704819D02*
X75559523Y-111704819D01*
X75273809Y-112704819D02*
X75273809Y-111704819D01*
X75892857Y-112704819D02*
X75892857Y-111704819D01*
X75892857Y-111704819D02*
X76273809Y-111704819D01*
X76273809Y-111704819D02*
X76369047Y-111752438D01*
X76369047Y-111752438D02*
X76416666Y-111800057D01*
X76416666Y-111800057D02*
X76464285Y-111895295D01*
X76464285Y-111895295D02*
X76464285Y-112038152D01*
X76464285Y-112038152D02*
X76416666Y-112133390D01*
X76416666Y-112133390D02*
X76369047Y-112181009D01*
X76369047Y-112181009D02*
X76273809Y-112228628D01*
X76273809Y-112228628D02*
X75892857Y-112228628D01*
X76654762Y-112800057D02*
X77416666Y-112800057D01*
X77559524Y-111704819D02*
X78178571Y-111704819D01*
X78178571Y-111704819D02*
X77845238Y-112085771D01*
X77845238Y-112085771D02*
X77988095Y-112085771D01*
X77988095Y-112085771D02*
X78083333Y-112133390D01*
X78083333Y-112133390D02*
X78130952Y-112181009D01*
X78130952Y-112181009D02*
X78178571Y-112276247D01*
X78178571Y-112276247D02*
X78178571Y-112514342D01*
X78178571Y-112514342D02*
X78130952Y-112609580D01*
X78130952Y-112609580D02*
X78083333Y-112657200D01*
X78083333Y-112657200D02*
X77988095Y-112704819D01*
X77988095Y-112704819D02*
X77702381Y-112704819D01*
X77702381Y-112704819D02*
X77607143Y-112657200D01*
X77607143Y-112657200D02*
X77559524Y-112609580D01*
X78607143Y-112609580D02*
X78654762Y-112657200D01*
X78654762Y-112657200D02*
X78607143Y-112704819D01*
X78607143Y-112704819D02*
X78559524Y-112657200D01*
X78559524Y-112657200D02*
X78607143Y-112609580D01*
X78607143Y-112609580D02*
X78607143Y-112704819D01*
X78988095Y-111704819D02*
X79607142Y-111704819D01*
X79607142Y-111704819D02*
X79273809Y-112085771D01*
X79273809Y-112085771D02*
X79416666Y-112085771D01*
X79416666Y-112085771D02*
X79511904Y-112133390D01*
X79511904Y-112133390D02*
X79559523Y-112181009D01*
X79559523Y-112181009D02*
X79607142Y-112276247D01*
X79607142Y-112276247D02*
X79607142Y-112514342D01*
X79607142Y-112514342D02*
X79559523Y-112609580D01*
X79559523Y-112609580D02*
X79511904Y-112657200D01*
X79511904Y-112657200D02*
X79416666Y-112704819D01*
X79416666Y-112704819D02*
X79130952Y-112704819D01*
X79130952Y-112704819D02*
X79035714Y-112657200D01*
X79035714Y-112657200D02*
X78988095Y-112609580D01*
X79892857Y-111704819D02*
X80226190Y-112704819D01*
X80226190Y-112704819D02*
X80559523Y-111704819D01*
X81416666Y-112704819D02*
X80845238Y-112704819D01*
X81130952Y-112704819D02*
X81130952Y-111704819D01*
X81130952Y-111704819D02*
X81035714Y-111847676D01*
X81035714Y-111847676D02*
X80940476Y-111942914D01*
X80940476Y-111942914D02*
X80845238Y-111990533D01*
D14*
X95763842Y-110717619D02*
X95824318Y-110536190D01*
X95824318Y-110536190D02*
X95824318Y-110233809D01*
X95824318Y-110233809D02*
X95763842Y-110112857D01*
X95763842Y-110112857D02*
X95703365Y-110052381D01*
X95703365Y-110052381D02*
X95582413Y-109991904D01*
X95582413Y-109991904D02*
X95461461Y-109991904D01*
X95461461Y-109991904D02*
X95340508Y-110052381D01*
X95340508Y-110052381D02*
X95280032Y-110112857D01*
X95280032Y-110112857D02*
X95219556Y-110233809D01*
X95219556Y-110233809D02*
X95159080Y-110475714D01*
X95159080Y-110475714D02*
X95098603Y-110596666D01*
X95098603Y-110596666D02*
X95038127Y-110657143D01*
X95038127Y-110657143D02*
X94917175Y-110717619D01*
X94917175Y-110717619D02*
X94796222Y-110717619D01*
X94796222Y-110717619D02*
X94675270Y-110657143D01*
X94675270Y-110657143D02*
X94614794Y-110596666D01*
X94614794Y-110596666D02*
X94554318Y-110475714D01*
X94554318Y-110475714D02*
X94554318Y-110173333D01*
X94554318Y-110173333D02*
X94614794Y-109991904D01*
X94675270Y-109508095D02*
X94614794Y-109447619D01*
X94614794Y-109447619D02*
X94554318Y-109326666D01*
X94554318Y-109326666D02*
X94554318Y-109024285D01*
X94554318Y-109024285D02*
X94614794Y-108903333D01*
X94614794Y-108903333D02*
X94675270Y-108842857D01*
X94675270Y-108842857D02*
X94796222Y-108782380D01*
X94796222Y-108782380D02*
X94917175Y-108782380D01*
X94917175Y-108782380D02*
X95098603Y-108842857D01*
X95098603Y-108842857D02*
X95824318Y-109568571D01*
X95824318Y-109568571D02*
X95824318Y-108782380D01*
D13*
X130915833Y-61380866D02*
X130915833Y-62514200D01*
X130915833Y-62514200D02*
X130982500Y-62647533D01*
X130982500Y-62647533D02*
X131049166Y-62714200D01*
X131049166Y-62714200D02*
X131182500Y-62780866D01*
X131182500Y-62780866D02*
X131449166Y-62780866D01*
X131449166Y-62780866D02*
X131582500Y-62714200D01*
X131582500Y-62714200D02*
X131649166Y-62647533D01*
X131649166Y-62647533D02*
X131715833Y-62514200D01*
X131715833Y-62514200D02*
X131715833Y-61380866D01*
X132315833Y-61514200D02*
X132382500Y-61447533D01*
X132382500Y-61447533D02*
X132515833Y-61380866D01*
X132515833Y-61380866D02*
X132849167Y-61380866D01*
X132849167Y-61380866D02*
X132982500Y-61447533D01*
X132982500Y-61447533D02*
X133049167Y-61514200D01*
X133049167Y-61514200D02*
X133115833Y-61647533D01*
X133115833Y-61647533D02*
X133115833Y-61780866D01*
X133115833Y-61780866D02*
X133049167Y-61980866D01*
X133049167Y-61980866D02*
X132249167Y-62780866D01*
X132249167Y-62780866D02*
X133115833Y-62780866D01*
X106238095Y-79154819D02*
X106809523Y-79154819D01*
X106523809Y-80154819D02*
X106523809Y-79154819D01*
X107142857Y-80154819D02*
X107142857Y-79154819D01*
X107142857Y-79154819D02*
X107523809Y-79154819D01*
X107523809Y-79154819D02*
X107619047Y-79202438D01*
X107619047Y-79202438D02*
X107666666Y-79250057D01*
X107666666Y-79250057D02*
X107714285Y-79345295D01*
X107714285Y-79345295D02*
X107714285Y-79488152D01*
X107714285Y-79488152D02*
X107666666Y-79583390D01*
X107666666Y-79583390D02*
X107619047Y-79631009D01*
X107619047Y-79631009D02*
X107523809Y-79678628D01*
X107523809Y-79678628D02*
X107142857Y-79678628D01*
X108571428Y-79154819D02*
X108380952Y-79154819D01*
X108380952Y-79154819D02*
X108285714Y-79202438D01*
X108285714Y-79202438D02*
X108238095Y-79250057D01*
X108238095Y-79250057D02*
X108142857Y-79392914D01*
X108142857Y-79392914D02*
X108095238Y-79583390D01*
X108095238Y-79583390D02*
X108095238Y-79964342D01*
X108095238Y-79964342D02*
X108142857Y-80059580D01*
X108142857Y-80059580D02*
X108190476Y-80107200D01*
X108190476Y-80107200D02*
X108285714Y-80154819D01*
X108285714Y-80154819D02*
X108476190Y-80154819D01*
X108476190Y-80154819D02*
X108571428Y-80107200D01*
X108571428Y-80107200D02*
X108619047Y-80059580D01*
X108619047Y-80059580D02*
X108666666Y-79964342D01*
X108666666Y-79964342D02*
X108666666Y-79726247D01*
X108666666Y-79726247D02*
X108619047Y-79631009D01*
X108619047Y-79631009D02*
X108571428Y-79583390D01*
X108571428Y-79583390D02*
X108476190Y-79535771D01*
X108476190Y-79535771D02*
X108285714Y-79535771D01*
X108285714Y-79535771D02*
X108190476Y-79583390D01*
X108190476Y-79583390D02*
X108142857Y-79631009D01*
X108142857Y-79631009D02*
X108095238Y-79726247D01*
X86166666Y-60954819D02*
X86166666Y-61669104D01*
X86166666Y-61669104D02*
X86119047Y-61811961D01*
X86119047Y-61811961D02*
X86023809Y-61907200D01*
X86023809Y-61907200D02*
X85880952Y-61954819D01*
X85880952Y-61954819D02*
X85785714Y-61954819D01*
X87166666Y-61954819D02*
X86595238Y-61954819D01*
X86880952Y-61954819D02*
X86880952Y-60954819D01*
X86880952Y-60954819D02*
X86785714Y-61097676D01*
X86785714Y-61097676D02*
X86690476Y-61192914D01*
X86690476Y-61192914D02*
X86595238Y-61240533D01*
X93238095Y-92154819D02*
X93809523Y-92154819D01*
X93523809Y-93154819D02*
X93523809Y-92154819D01*
X94142857Y-93154819D02*
X94142857Y-92154819D01*
X94142857Y-92154819D02*
X94523809Y-92154819D01*
X94523809Y-92154819D02*
X94619047Y-92202438D01*
X94619047Y-92202438D02*
X94666666Y-92250057D01*
X94666666Y-92250057D02*
X94714285Y-92345295D01*
X94714285Y-92345295D02*
X94714285Y-92488152D01*
X94714285Y-92488152D02*
X94666666Y-92583390D01*
X94666666Y-92583390D02*
X94619047Y-92631009D01*
X94619047Y-92631009D02*
X94523809Y-92678628D01*
X94523809Y-92678628D02*
X94142857Y-92678628D01*
X95047619Y-92154819D02*
X95666666Y-92154819D01*
X95666666Y-92154819D02*
X95333333Y-92535771D01*
X95333333Y-92535771D02*
X95476190Y-92535771D01*
X95476190Y-92535771D02*
X95571428Y-92583390D01*
X95571428Y-92583390D02*
X95619047Y-92631009D01*
X95619047Y-92631009D02*
X95666666Y-92726247D01*
X95666666Y-92726247D02*
X95666666Y-92964342D01*
X95666666Y-92964342D02*
X95619047Y-93059580D01*
X95619047Y-93059580D02*
X95571428Y-93107200D01*
X95571428Y-93107200D02*
X95476190Y-93154819D01*
X95476190Y-93154819D02*
X95190476Y-93154819D01*
X95190476Y-93154819D02*
X95095238Y-93107200D01*
X95095238Y-93107200D02*
X95047619Y-93059580D01*
X132488095Y-102204819D02*
X132488095Y-103014342D01*
X132488095Y-103014342D02*
X132535714Y-103109580D01*
X132535714Y-103109580D02*
X132583333Y-103157200D01*
X132583333Y-103157200D02*
X132678571Y-103204819D01*
X132678571Y-103204819D02*
X132869047Y-103204819D01*
X132869047Y-103204819D02*
X132964285Y-103157200D01*
X132964285Y-103157200D02*
X133011904Y-103109580D01*
X133011904Y-103109580D02*
X133059523Y-103014342D01*
X133059523Y-103014342D02*
X133059523Y-102204819D01*
X133964285Y-102538152D02*
X133964285Y-103204819D01*
X133726190Y-102157200D02*
X133488095Y-102871485D01*
X133488095Y-102871485D02*
X134107142Y-102871485D01*
X129202381Y-108204819D02*
X129202381Y-107204819D01*
X129202381Y-107204819D02*
X129535714Y-107919104D01*
X129535714Y-107919104D02*
X129869047Y-107204819D01*
X129869047Y-107204819D02*
X129869047Y-108204819D01*
X130345238Y-108204819D02*
X130345238Y-107204819D01*
X130345238Y-107204819D02*
X130726190Y-107204819D01*
X130726190Y-107204819D02*
X130821428Y-107252438D01*
X130821428Y-107252438D02*
X130869047Y-107300057D01*
X130869047Y-107300057D02*
X130916666Y-107395295D01*
X130916666Y-107395295D02*
X130916666Y-107538152D01*
X130916666Y-107538152D02*
X130869047Y-107633390D01*
X130869047Y-107633390D02*
X130821428Y-107681009D01*
X130821428Y-107681009D02*
X130726190Y-107728628D01*
X130726190Y-107728628D02*
X130345238Y-107728628D01*
X131821428Y-108204819D02*
X131345238Y-108204819D01*
X131345238Y-108204819D02*
X131345238Y-107204819D01*
X132059524Y-107204819D02*
X132678571Y-107204819D01*
X132678571Y-107204819D02*
X132345238Y-107585771D01*
X132345238Y-107585771D02*
X132488095Y-107585771D01*
X132488095Y-107585771D02*
X132583333Y-107633390D01*
X132583333Y-107633390D02*
X132630952Y-107681009D01*
X132630952Y-107681009D02*
X132678571Y-107776247D01*
X132678571Y-107776247D02*
X132678571Y-108014342D01*
X132678571Y-108014342D02*
X132630952Y-108109580D01*
X132630952Y-108109580D02*
X132583333Y-108157200D01*
X132583333Y-108157200D02*
X132488095Y-108204819D01*
X132488095Y-108204819D02*
X132202381Y-108204819D01*
X132202381Y-108204819D02*
X132107143Y-108157200D01*
X132107143Y-108157200D02*
X132059524Y-108109580D01*
X133630952Y-108204819D02*
X133059524Y-108204819D01*
X133345238Y-108204819D02*
X133345238Y-107204819D01*
X133345238Y-107204819D02*
X133250000Y-107347676D01*
X133250000Y-107347676D02*
X133154762Y-107442914D01*
X133154762Y-107442914D02*
X133059524Y-107490533D01*
X134583333Y-108204819D02*
X134011905Y-108204819D01*
X134297619Y-108204819D02*
X134297619Y-107204819D01*
X134297619Y-107204819D02*
X134202381Y-107347676D01*
X134202381Y-107347676D02*
X134107143Y-107442914D01*
X134107143Y-107442914D02*
X134011905Y-107490533D01*
X135488095Y-107204819D02*
X135011905Y-107204819D01*
X135011905Y-107204819D02*
X134964286Y-107681009D01*
X134964286Y-107681009D02*
X135011905Y-107633390D01*
X135011905Y-107633390D02*
X135107143Y-107585771D01*
X135107143Y-107585771D02*
X135345238Y-107585771D01*
X135345238Y-107585771D02*
X135440476Y-107633390D01*
X135440476Y-107633390D02*
X135488095Y-107681009D01*
X135488095Y-107681009D02*
X135535714Y-107776247D01*
X135535714Y-107776247D02*
X135535714Y-108014342D01*
X135535714Y-108014342D02*
X135488095Y-108109580D01*
X135488095Y-108109580D02*
X135440476Y-108157200D01*
X135440476Y-108157200D02*
X135345238Y-108204819D01*
X135345238Y-108204819D02*
X135107143Y-108204819D01*
X135107143Y-108204819D02*
X135011905Y-108157200D01*
X135011905Y-108157200D02*
X134964286Y-108109580D01*
X135916667Y-107919104D02*
X136392857Y-107919104D01*
X135821429Y-108204819D02*
X136154762Y-107204819D01*
X136154762Y-107204819D02*
X136488095Y-108204819D01*
X136773810Y-107300057D02*
X136821429Y-107252438D01*
X136821429Y-107252438D02*
X136916667Y-107204819D01*
X136916667Y-107204819D02*
X137154762Y-107204819D01*
X137154762Y-107204819D02*
X137250000Y-107252438D01*
X137250000Y-107252438D02*
X137297619Y-107300057D01*
X137297619Y-107300057D02*
X137345238Y-107395295D01*
X137345238Y-107395295D02*
X137345238Y-107490533D01*
X137345238Y-107490533D02*
X137297619Y-107633390D01*
X137297619Y-107633390D02*
X136726191Y-108204819D01*
X136726191Y-108204819D02*
X137345238Y-108204819D01*
X123463095Y-81679819D02*
X123463095Y-82489342D01*
X123463095Y-82489342D02*
X123510714Y-82584580D01*
X123510714Y-82584580D02*
X123558333Y-82632200D01*
X123558333Y-82632200D02*
X123653571Y-82679819D01*
X123653571Y-82679819D02*
X123844047Y-82679819D01*
X123844047Y-82679819D02*
X123939285Y-82632200D01*
X123939285Y-82632200D02*
X123986904Y-82584580D01*
X123986904Y-82584580D02*
X124034523Y-82489342D01*
X124034523Y-82489342D02*
X124034523Y-81679819D01*
X124415476Y-81679819D02*
X125034523Y-81679819D01*
X125034523Y-81679819D02*
X124701190Y-82060771D01*
X124701190Y-82060771D02*
X124844047Y-82060771D01*
X124844047Y-82060771D02*
X124939285Y-82108390D01*
X124939285Y-82108390D02*
X124986904Y-82156009D01*
X124986904Y-82156009D02*
X125034523Y-82251247D01*
X125034523Y-82251247D02*
X125034523Y-82489342D01*
X125034523Y-82489342D02*
X124986904Y-82584580D01*
X124986904Y-82584580D02*
X124939285Y-82632200D01*
X124939285Y-82632200D02*
X124844047Y-82679819D01*
X124844047Y-82679819D02*
X124558333Y-82679819D01*
X124558333Y-82679819D02*
X124463095Y-82632200D01*
X124463095Y-82632200D02*
X124415476Y-82584580D01*
D15*
%TO.C,TP4*%
X104050000Y-76250000D02*
G75*
G02*
X99450000Y-76250000I-2300000J0D01*
G01*
X99450000Y-76250000D02*
G75*
G02*
X104050000Y-76250000I2300000J0D01*
G01*
D11*
%TO.C,S1*%
X106900000Y-108750000D02*
X106900000Y-110750000D01*
X112500000Y-106650000D02*
X107500000Y-106650000D01*
X112500000Y-112850000D02*
X107500000Y-112850000D01*
X113100000Y-108750000D02*
X113100000Y-110750000D01*
D16*
X116050000Y-112000000D02*
X116050000Y-112000000D01*
X116150000Y-112000000D02*
X116150000Y-112000000D01*
X116050000Y-112000000D02*
G75*
G02*
X116150000Y-112000000I50000J0D01*
G01*
X116150000Y-112000000D02*
G75*
G02*
X116050000Y-112000000I-50000J0D01*
G01*
D15*
%TO.C,TP_GND3*%
X122800000Y-117000000D02*
G75*
G02*
X118200000Y-117000000I-2300000J0D01*
G01*
X118200000Y-117000000D02*
G75*
G02*
X122800000Y-117000000I2300000J0D01*
G01*
%TO.C,U1*%
X75125000Y-81250000D02*
X75125000Y-88916667D01*
X75125000Y-88916667D02*
X75485000Y-88916667D01*
X75125000Y-96583333D02*
X75125000Y-104249999D01*
X75125000Y-104249999D02*
X118875000Y-104250000D01*
X75485000Y-88916667D02*
X75485000Y-96583333D01*
X75485000Y-96583333D02*
X75125000Y-96583333D01*
X118875000Y-81250001D02*
X75125000Y-81250000D01*
X118875000Y-104250000D02*
X118875000Y-81250001D01*
%TO.C,TP8*%
X114550000Y-76500000D02*
G75*
G02*
X109950000Y-76500000I-2300000J0D01*
G01*
X109950000Y-76500000D02*
G75*
G02*
X114550000Y-76500000I2300000J0D01*
G01*
%TO.C,TP_GND2*%
X122800000Y-110000000D02*
G75*
G02*
X118200000Y-110000000I-2300000J0D01*
G01*
X118200000Y-110000000D02*
G75*
G02*
X122800000Y-110000000I2300000J0D01*
G01*
%TO.C,TP_VBUS1*%
X83800000Y-84750000D02*
G75*
G02*
X79200000Y-84750000I-2300000J0D01*
G01*
X79200000Y-84750000D02*
G75*
G02*
X83800000Y-84750000I2300000J0D01*
G01*
%TO.C,TP5*%
X101300000Y-90000000D02*
G75*
G02*
X96700000Y-90000000I-2300000J0D01*
G01*
X96700000Y-90000000D02*
G75*
G02*
X101300000Y-90000000I2300000J0D01*
G01*
%TO.C,TP7*%
X106300000Y-90000000D02*
G75*
G02*
X101700000Y-90000000I-2300000J0D01*
G01*
X101700000Y-90000000D02*
G75*
G02*
X106300000Y-90000000I2300000J0D01*
G01*
%TO.C,TP_GND1*%
X86300000Y-109000000D02*
G75*
G02*
X81700000Y-109000000I-2300000J0D01*
G01*
X81700000Y-109000000D02*
G75*
G02*
X86300000Y-109000000I2300000J0D01*
G01*
%TO.C,TP_3.3V1*%
X81050000Y-108750000D02*
G75*
G02*
X76450000Y-108750000I-2300000J0D01*
G01*
X76450000Y-108750000D02*
G75*
G02*
X81050000Y-108750000I2300000J0D01*
G01*
D11*
%TO.C,S2*%
X92150000Y-108750000D02*
X92150000Y-110750000D01*
X97750000Y-106650000D02*
X92750000Y-106650000D01*
X97750000Y-112850000D02*
X92750000Y-112850000D01*
X98350000Y-108750000D02*
X98350000Y-110750000D01*
D16*
X101300000Y-112000000D02*
X101300000Y-112000000D01*
X101400000Y-112000000D02*
X101400000Y-112000000D01*
X101300000Y-112000000D02*
G75*
G02*
X101400000Y-112000000I50000J0D01*
G01*
X101400000Y-112000000D02*
G75*
G02*
X101300000Y-112000000I-50000J0D01*
G01*
D17*
%TO.C,U2*%
X127687500Y-72050000D02*
X129987500Y-72050000D01*
X129987500Y-64550000D02*
X129987500Y-72050000D01*
X129987500Y-72050000D02*
X137787500Y-72050000D01*
X137787500Y-64550000D02*
X129987500Y-64550000D01*
X137787500Y-72050000D02*
X137787500Y-64550000D01*
X137787500Y-72050000D02*
X140087500Y-72050000D01*
X140087500Y-81950000D02*
X127687500Y-81950000D01*
D12*
X126187500Y-73200000D02*
G75*
G02*
X125987500Y-73200000I-100000J0D01*
G01*
X125987500Y-73200000D02*
G75*
G02*
X126187500Y-73200000I100000J0D01*
G01*
D15*
%TO.C,TP6*%
X109300000Y-76500000D02*
G75*
G02*
X104700000Y-76500000I-2300000J0D01*
G01*
X104700000Y-76500000D02*
G75*
G02*
X109300000Y-76500000I2300000J0D01*
G01*
D11*
%TO.C,J1*%
X81855000Y-59760000D02*
X81855000Y-60110000D01*
X81855000Y-63350000D02*
X81855000Y-62670000D01*
X90795000Y-59760000D02*
X81855000Y-59760000D01*
X90795000Y-60110000D02*
X90795000Y-59760000D01*
X90795000Y-63350000D02*
X90795000Y-62670000D01*
X89400000Y-67200000D02*
G75*
G02*
X89200000Y-67200000I-100000J0D01*
G01*
X89200000Y-67200000D02*
G75*
G02*
X89400000Y-67200000I100000J0D01*
G01*
D15*
%TO.C,TP3*%
X96300000Y-89500000D02*
G75*
G02*
X91700000Y-89500000I-2300000J0D01*
G01*
X91700000Y-89500000D02*
G75*
G02*
X96300000Y-89500000I2300000J0D01*
G01*
%TO.C,U4*%
X141970000Y-103750000D02*
X141970000Y-106750000D01*
X141970000Y-106750000D02*
X124530000Y-106750000D01*
X139600000Y-106750000D02*
X139600000Y-103750000D01*
X124530000Y-103750000D02*
X141970000Y-103750000D01*
X124530000Y-106750000D02*
X124530000Y-103750000D01*
D16*
X141970000Y-121750000D02*
X124530000Y-121750000D01*
X124530000Y-103750000D01*
X141970000Y-103750000D01*
X141970000Y-121750000D01*
D17*
%TO.C,U3*%
X146700000Y-86650000D02*
X146700000Y-99350000D01*
X144160000Y-101890000D02*
X123840000Y-101890000D01*
X123840000Y-84110000D02*
X144160000Y-84110000D01*
X121300000Y-99350000D02*
X121300000Y-86650000D01*
X144160000Y-84110000D02*
G75*
G02*
X146700000Y-86650000I0J-2540000D01*
G01*
X146700000Y-99350000D02*
G75*
G02*
X144160000Y-101890000I-2540000J0D01*
G01*
X121300000Y-86650000D02*
G75*
G02*
X123840000Y-84110000I2540001J-1D01*
G01*
X123840000Y-101890000D02*
G75*
G02*
X121300000Y-99350000I1J2540001D01*
G01*
%TD*%
M02*
