%TF.GenerationSoftware,KiCad,Pcbnew,9.0.0*%
%TF.CreationDate,2025-03-03T00:02:02+00:00*%
%TF.ProjectId,Wheelchair Powermeter PCB,57686565-6c63-4686-9169-7220506f7765,rev?*%
%TF.SameCoordinates,Original*%
%TF.FileFunction,Copper,L2,Bot*%
%TF.FilePolarity,Positive*%
%FSLAX46Y46*%
G04 Gerber Fmt 4.6, Leading zero omitted, Abs format (unit mm)*
G04 Created by KiCad (PCBNEW 9.0.0) date 2025-03-03 00:02:02*
%MOMM*%
%LPD*%
G01*
G04 APERTURE LIST*
%TA.AperFunction,ComponentPad*%
%ADD10O,2.000000X2.000000*%
%TD*%
%TA.AperFunction,ComponentPad*%
%ADD11R,2.000000X2.000000*%
%TD*%
%TA.AperFunction,ComponentPad*%
%ADD12C,4.000000*%
%TD*%
%TA.AperFunction,ConnectorPad*%
%ADD13C,5.500000*%
%TD*%
%TA.AperFunction,ComponentPad*%
%ADD14O,1.400000X2.000000*%
%TD*%
%TA.AperFunction,ComponentPad*%
%ADD15C,3.600000*%
%TD*%
%TA.AperFunction,ComponentPad*%
%ADD16R,1.238000X1.238000*%
%TD*%
%TA.AperFunction,ComponentPad*%
%ADD17C,1.238000*%
%TD*%
%TA.AperFunction,ComponentPad*%
%ADD18C,0.650000*%
%TD*%
%TA.AperFunction,ComponentPad*%
%ADD19O,0.900000X1.700000*%
%TD*%
%TA.AperFunction,ComponentPad*%
%ADD20O,0.900000X2.400000*%
%TD*%
%TA.AperFunction,ComponentPad*%
%ADD21C,1.600000*%
%TD*%
%TA.AperFunction,ComponentPad*%
%ADD22O,1.600000X1.600000*%
%TD*%
%TA.AperFunction,ComponentPad*%
%ADD23O,1.200000X2.000000*%
%TD*%
%TA.AperFunction,ComponentPad*%
%ADD24C,1.778000*%
%TD*%
%TA.AperFunction,ComponentPad*%
%ADD25C,3.200000*%
%TD*%
%TA.AperFunction,ViaPad*%
%ADD26C,0.600000*%
%TD*%
%TA.AperFunction,Conductor*%
%ADD27C,0.200000*%
%TD*%
G04 APERTURE END LIST*
D10*
%TO.P,C1,2*%
%TO.N,GND*%
X122257500Y-66250000D03*
D11*
%TO.P,C1,1*%
%TO.N,3.3V*%
X122257500Y-81250000D03*
%TD*%
D12*
%TO.P,TP4,1,1*%
%TO.N,Net-(TP4-Pad1)*%
X101750000Y-76250000D03*
%TD*%
D13*
%TO.P,,1*%
%TO.N,N/C*%
X77250000Y-119000000D03*
%TD*%
D12*
%TO.P,TP_GND3,1,1*%
%TO.N,GND*%
X120500000Y-117000000D03*
%TD*%
D13*
%TO.P,,1*%
%TO.N,N/C*%
X77250000Y-64000000D03*
%TD*%
D14*
%TO.P,U1,1,RST*%
%TO.N,unconnected-(U1-RST-Pad1)*%
X76325000Y-102750000D03*
%TO.P,U1,2,3.3V*%
%TO.N,3.3V*%
X78865000Y-102750000D03*
%TO.P,U1,3*%
%TO.N,unconnected-(U1-Pad3)*%
X81405000Y-102750000D03*
%TO.P,U1,4,GND*%
%TO.N,GND*%
X83945000Y-102750000D03*
%TO.P,U1,5,A0*%
%TO.N,unconnected-(U1-A0-Pad5)*%
X86485000Y-102750000D03*
%TO.P,U1,6,A1*%
%TO.N,unconnected-(U1-A1-Pad6)*%
X89025000Y-102750000D03*
%TO.P,U1,7,A2*%
%TO.N,unconnected-(U1-A2-Pad7)*%
X91565000Y-102750000D03*
%TO.P,U1,8,A3*%
%TO.N,unconnected-(U1-A3-Pad8)*%
X94105000Y-102750000D03*
%TO.P,U1,9,A4*%
%TO.N,unconnected-(U1-A4-Pad9)*%
X96645000Y-102750000D03*
%TO.P,U1,10,A5*%
%TO.N,unconnected-(U1-A5-Pad10)*%
X99185000Y-102750000D03*
%TO.P,U1,11,SCK*%
%TO.N,unconnected-(U1-SCK-Pad11)*%
X101725000Y-102750000D03*
%TO.P,U1,12,MOSI*%
%TO.N,unconnected-(U1-MOSI-Pad12)*%
X104265000Y-102750000D03*
%TO.P,U1,13,MISO*%
%TO.N,unconnected-(U1-MISO-Pad13)*%
X106805000Y-102750000D03*
%TO.P,U1,14,RX*%
%TO.N,unconnected-(U1-RX-Pad14)*%
X109345000Y-102750000D03*
%TO.P,U1,15,TX*%
%TO.N,unconnected-(U1-TX-Pad15)*%
X111885000Y-102750000D03*
%TO.P,U1,16*%
%TO.N,N/C*%
X114425000Y-102750000D03*
%TO.P,U1,17,D37*%
%TO.N,unconnected-(U1-D37-Pad17)*%
X116875000Y-102750000D03*
%TO.P,U1,18,VBAT*%
%TO.N,Net-(U1-VBAT)*%
X86485000Y-82750000D03*
%TO.P,U1,19,EN*%
%TO.N,unconnected-(U1-EN-Pad19)*%
X89025000Y-82750000D03*
%TO.P,U1,20,VBUS*%
%TO.N,unconnected-(U1-VBUS-Pad20)*%
X91565000Y-82750000D03*
%TO.P,U1,21,LED*%
%TO.N,Net-(U1-LED)*%
X94105000Y-82750000D03*
%TO.P,U1,22,D12*%
%TO.N,Net-(TP4-Pad1)*%
X96645000Y-82750000D03*
%TO.P,U1,23,D12*%
%TO.N,Net-(TP5-Pad1)*%
X99185000Y-82750000D03*
%TO.P,U1,24,D27*%
%TO.N,Net-(U1-D27)*%
X101725000Y-82750000D03*
%TO.P,U1,25,D33*%
%TO.N,Net-(U1-D33)*%
X104265000Y-82750000D03*
%TO.P,U1,26,D15*%
%TO.N,Net-(U1-D15)*%
X106805000Y-82750000D03*
%TO.P,U1,27,D32*%
%TO.N,Net-(S1-NO_1)*%
X109345000Y-82750000D03*
%TO.P,U1,28,D14*%
%TO.N,Net-(S2-NO_1)*%
X111885000Y-82750000D03*
%TO.P,U1,29,SCL*%
%TO.N,SCL_MCU*%
X114425000Y-82750000D03*
%TO.P,U1,30,SDA*%
%TO.N,SDA_MCU*%
X116875000Y-82750000D03*
%TD*%
D12*
%TO.P,TP8,1,1*%
%TO.N,Net-(U1-D15)*%
X112250000Y-76500000D03*
%TD*%
%TO.P,TP_GND2,1,1*%
%TO.N,GND*%
X120500000Y-110000000D03*
%TD*%
%TO.P,TP_VBUS1,1,1*%
%TO.N,Net-(U1-VBAT)*%
X81500000Y-84750000D03*
%TD*%
D15*
%TO.P,REF3,1*%
%TO.N,N/C*%
X77250000Y-119000000D03*
D13*
X77250000Y-119000000D03*
%TD*%
%TO.P,,1*%
%TO.N,N/C*%
X146000000Y-64000000D03*
%TD*%
D15*
%TO.P,REF2,1*%
%TO.N,N/C*%
X146000000Y-118750000D03*
D13*
X146000000Y-118750000D03*
%TD*%
D15*
%TO.P,REF4,1*%
%TO.N,N/C*%
X77250000Y-64000000D03*
D13*
X77250000Y-64000000D03*
%TD*%
D12*
%TO.P,TP5,1,1*%
%TO.N,Net-(TP5-Pad1)*%
X99000000Y-90000000D03*
%TD*%
%TO.P,TP7,1,1*%
%TO.N,Net-(U1-D33)*%
X104000000Y-90000000D03*
%TD*%
%TO.P,TP_GND1,1,1*%
%TO.N,GND*%
X84000000Y-109000000D03*
%TD*%
%TO.P,TP_3.3V1,1,1*%
%TO.N,3.3V*%
X78750000Y-108750000D03*
%TD*%
D16*
%TO.P,U2,1,GND*%
%TO.N,GND*%
X127537500Y-73250000D03*
D17*
%TO.P,U2,2,Supply*%
%TO.N,3.3V*%
X127537500Y-75750000D03*
%TO.P,U2,3,SDA*%
%TO.N,SDA_MCU*%
X127537500Y-78250000D03*
%TO.P,U2,4,SCL*%
%TO.N,SCL_MCU*%
X127537500Y-80750000D03*
%TO.P,U2,5*%
%TO.N,unconnected-(U2-Pad5)*%
X140237500Y-80750000D03*
%TO.P,U2,6*%
%TO.N,unconnected-(U2-Pad6)*%
X140237500Y-78250000D03*
%TO.P,U2,7*%
%TO.N,unconnected-(U2-Pad7)*%
X140237500Y-75750000D03*
%TO.P,U2,8,INT*%
%TO.N,unconnected-(U2-INT-Pad8)*%
X140237500Y-73250000D03*
%TD*%
D12*
%TO.P,TP6,1,1*%
%TO.N,Net-(U1-D27)*%
X107000000Y-76500000D03*
%TD*%
D18*
%TO.P,J1,A1,GND*%
%TO.N,GND*%
X89300000Y-65860000D03*
%TO.P,J1,A4,VBUS*%
%TO.N,Net-(U1-VBAT)*%
X88450000Y-65860000D03*
%TO.P,J1,A5,CC1*%
%TO.N,Net-(J1-CC1)*%
X87600000Y-65860000D03*
%TO.P,J1,A6,DP1*%
%TO.N,unconnected-(J1-DP1-PadA6)*%
X86750000Y-65860000D03*
%TO.P,J1,A7,DN1*%
%TO.N,unconnected-(J1-DN1-PadA7)*%
X85900000Y-65860000D03*
%TO.P,J1,A8,SBU1*%
%TO.N,unconnected-(J1-SBU1-PadA8)*%
X85050000Y-65860000D03*
%TO.P,J1,A9,VBUS*%
%TO.N,Net-(U1-VBAT)*%
X84200000Y-65860000D03*
%TO.P,J1,A12,GND*%
%TO.N,GND*%
X83350000Y-65860000D03*
%TO.P,J1,B1,GND*%
X83350000Y-64510000D03*
%TO.P,J1,B4,VBUS*%
%TO.N,Net-(U1-VBAT)*%
X84200000Y-64510000D03*
%TO.P,J1,B5,CC2*%
%TO.N,Net-(J1-CC2)*%
X85050000Y-64510000D03*
%TO.P,J1,B6,DP2*%
%TO.N,unconnected-(J1-DP2-PadB6)*%
X85900000Y-64510000D03*
%TO.P,J1,B7,DN2*%
%TO.N,unconnected-(J1-DN2-PadB7)*%
X86750000Y-64510000D03*
%TO.P,J1,B8,SBU2*%
%TO.N,unconnected-(J1-SBU2-PadB8)*%
X87600000Y-64510000D03*
%TO.P,J1,B9,VBUS*%
%TO.N,Net-(U1-VBAT)*%
X88450000Y-64510000D03*
%TO.P,J1,B12,GND*%
%TO.N,GND*%
X89300000Y-64510000D03*
D19*
%TO.P,J1,S1,SHELL*%
X90650000Y-61500000D03*
%TO.P,J1,S2,SHELL*%
X82000000Y-61500000D03*
D20*
%TO.P,J1,S3,SHELL*%
X90650000Y-64880000D03*
%TO.P,J1,S4,SHELL*%
X82000000Y-64880000D03*
%TD*%
D15*
%TO.P,REF1,1*%
%TO.N,N/C*%
X146000000Y-64000000D03*
D13*
X146000000Y-64000000D03*
%TD*%
%TO.P,,1*%
%TO.N,N/C*%
X146000000Y-118750000D03*
%TD*%
D12*
%TO.P,TP3,1,1*%
%TO.N,Net-(U1-LED)*%
X94000000Y-89500000D03*
%TD*%
D21*
%TO.P,R3,1*%
%TO.N,Net-(J1-CC1)*%
X91000000Y-69690000D03*
D22*
%TO.P,R3,2*%
%TO.N,Net-(R2-Pad2)*%
X91000000Y-77310000D03*
%TD*%
D23*
%TO.P,U4,1,VIN*%
%TO.N,3.3V*%
X140870000Y-105250000D03*
%TO.P,U4,2,GND*%
%TO.N,GND*%
X138330000Y-105250000D03*
%TO.P,U4,3,3VO*%
%TO.N,unconnected-(U4-3VO-Pad3)*%
X135790000Y-105250000D03*
%TO.P,U4,4,INT2*%
%TO.N,unconnected-(U4-INT2-Pad4)*%
X133250000Y-105250000D03*
%TO.P,U4,5,INT*%
%TO.N,unconnected-(U4-INT-Pad5)*%
X130710000Y-105250000D03*
%TO.P,U4,6,SCL*%
%TO.N,SCL_MCU*%
X128170000Y-105250000D03*
%TO.P,U4,7,SDA*%
%TO.N,SDA_MCU*%
X125630000Y-105250000D03*
%TD*%
D21*
%TO.P,R5,1*%
%TO.N,Net-(R1-Pad2)*%
X85310000Y-79880000D03*
D22*
%TO.P,R5,2*%
%TO.N,GND*%
X77690000Y-79880000D03*
%TD*%
D21*
%TO.P,R4,1*%
%TO.N,Net-(J1-CC2)*%
X81500000Y-69690000D03*
D22*
%TO.P,R4,2*%
%TO.N,Net-(R1-Pad2)*%
X81500000Y-77310000D03*
%TD*%
D21*
%TO.P,R6,1*%
%TO.N,Net-(R2-Pad2)*%
X87500000Y-80000000D03*
D22*
%TO.P,R6,2*%
%TO.N,GND*%
X95120000Y-80000000D03*
%TD*%
D21*
%TO.P,R1,1*%
%TO.N,Net-(J1-CC2)*%
X85000000Y-69690000D03*
D22*
%TO.P,R1,2*%
%TO.N,Net-(R1-Pad2)*%
X85000000Y-77310000D03*
%TD*%
D21*
%TO.P,R2,1*%
%TO.N,Net-(J1-CC1)*%
X88000000Y-69690000D03*
D22*
%TO.P,R2,2*%
%TO.N,Net-(R2-Pad2)*%
X88000000Y-77310000D03*
%TD*%
D24*
%TO.P,U3,JP1_1,VIN*%
%TO.N,3.3V*%
X127650000Y-99350000D03*
%TO.P,U3,JP1_2,1.8V*%
%TO.N,unconnected-(U3A-1.8V-PadJP1_2)*%
X130190000Y-99350000D03*
%TO.P,U3,JP1_3,GND_JP1*%
%TO.N,GND*%
X132730000Y-99350000D03*
%TO.P,U3,JP1_4,SCK/SCL*%
%TO.N,SCL_MCU*%
X135270000Y-99350000D03*
%TO.P,U3,JP1_5,SDI/SDA*%
%TO.N,SDA_MCU*%
X137810000Y-99350000D03*
%TO.P,U3,JP1_6,INT*%
%TO.N,unconnected-(U3A-INT-PadJP1_6)*%
X140350000Y-99350000D03*
%TO.P,U3,JP3_1*%
%TO.N,N/C*%
X140350000Y-86650000D03*
%TO.P,U3,JP3_2*%
X137810000Y-86650000D03*
%TO.P,U3,JP3_3*%
X135270000Y-86650000D03*
%TO.P,U3,JP3_4*%
X132730000Y-86650000D03*
%TO.P,U3,JP3_5*%
X130190000Y-86650000D03*
%TO.P,U3,JP3_6*%
X127650000Y-86650000D03*
D25*
%TO.P,U3,SH1*%
X123840000Y-86650000D03*
%TO.P,U3,SH2*%
X123840000Y-99350000D03*
%TO.P,U3,SH3*%
X144160000Y-99350000D03*
%TO.P,U3,SH4*%
X144160000Y-86650000D03*
%TD*%
D26*
%TO.N,GND*%
X102750000Y-112000000D03*
%TO.N,Net-(S2-NO_1)*%
X102500000Y-107500000D03*
%TD*%
D27*
%TO.N,SDA_MCU*%
X136620000Y-100540000D02*
X130340000Y-100540000D01*
X137810000Y-99350000D02*
X136620000Y-100540000D01*
X130340000Y-100540000D02*
X125630000Y-105250000D01*
%TO.N,GND*%
X83945000Y-108945000D02*
X84000000Y-109000000D01*
%TO.N,Net-(J1-CC1)*%
X88000000Y-69690000D02*
X87600000Y-69290000D01*
X91000000Y-69690000D02*
X88000000Y-69690000D01*
X87600000Y-69290000D02*
X87600000Y-65860000D01*
%TO.N,Net-(J1-CC2)*%
X85050000Y-64510000D02*
X85050000Y-64050381D01*
X85050000Y-64050381D02*
X83999619Y-63000000D01*
X81500000Y-69690000D02*
X85000000Y-69690000D01*
X81500000Y-63000000D02*
X81000000Y-63500000D01*
X83999619Y-63000000D02*
X81500000Y-63000000D01*
X81000000Y-63500000D02*
X81000000Y-69190000D01*
X81000000Y-69190000D02*
X81500000Y-69690000D01*
%TO.N,Net-(R1-Pad2)*%
X81500000Y-77310000D02*
X85000000Y-77310000D01*
X85000000Y-78000000D02*
X85310000Y-78310000D01*
X85000000Y-77310000D02*
X85000000Y-78000000D01*
X85310000Y-78310000D02*
X85310000Y-79880000D01*
%TO.N,Net-(R2-Pad2)*%
X87500000Y-80000000D02*
X87500000Y-77810000D01*
X87500000Y-77810000D02*
X88000000Y-77310000D01*
X88000000Y-77310000D02*
X91000000Y-77310000D01*
%TO.N,Net-(S2-NO_1)*%
X105750000Y-102089372D02*
X111885000Y-95954372D01*
X102500000Y-107500000D02*
X102500000Y-106230628D01*
X105750000Y-102980628D02*
X105750000Y-102089372D01*
X111885000Y-95954372D02*
X111885000Y-82750000D01*
X102500000Y-106230628D02*
X105750000Y-102980628D01*
%TO.N,Net-(U1-LED)*%
X94105000Y-82750000D02*
X94105000Y-89395000D01*
X94105000Y-89395000D02*
X94000000Y-89500000D01*
%TO.N,Net-(U1-D33)*%
X104000000Y-90000000D02*
X104000000Y-83015000D01*
X104000000Y-83015000D02*
X104265000Y-82750000D01*
%TO.N,GND*%
X138330000Y-104950000D02*
X138330000Y-105250000D01*
%TD*%
%TA.AperFunction,Conductor*%
%TO.N,GND*%
G36*
X143765702Y-60269709D02*
G01*
X143786344Y-60286344D01*
X144457411Y-60957411D01*
X144490896Y-61018734D01*
X144485912Y-61088426D01*
X144444040Y-61144359D01*
X144428184Y-61154450D01*
X144326897Y-61208589D01*
X144326877Y-61208601D01*
X144061361Y-61386012D01*
X144061338Y-61386029D01*
X143814459Y-61588638D01*
X143588638Y-61814459D01*
X143386029Y-62061338D01*
X143386012Y-62061361D01*
X143208601Y-62326877D01*
X143208584Y-62326905D01*
X143058042Y-62608548D01*
X143058040Y-62608553D01*
X142935820Y-62903617D01*
X142843109Y-63209245D01*
X142780803Y-63522477D01*
X142749500Y-63840316D01*
X142749500Y-64159683D01*
X142780803Y-64477522D01*
X142843109Y-64790754D01*
X142935820Y-65096382D01*
X143058040Y-65391446D01*
X143058042Y-65391451D01*
X143208584Y-65673094D01*
X143208601Y-65673122D01*
X143386012Y-65938638D01*
X143386029Y-65938661D01*
X143588638Y-66185540D01*
X143814459Y-66411361D01*
X143814464Y-66411365D01*
X143814465Y-66411366D01*
X144061344Y-66613975D01*
X144061351Y-66613980D01*
X144061361Y-66613987D01*
X144326877Y-66791398D01*
X144326882Y-66791401D01*
X144326894Y-66791409D01*
X144326903Y-66791413D01*
X144326905Y-66791415D01*
X144608548Y-66941957D01*
X144608550Y-66941957D01*
X144608556Y-66941961D01*
X144903619Y-67064180D01*
X145209240Y-67156889D01*
X145522477Y-67219196D01*
X145840313Y-67250500D01*
X145840316Y-67250500D01*
X146159684Y-67250500D01*
X146159687Y-67250500D01*
X146477523Y-67219196D01*
X146790760Y-67156889D01*
X147096381Y-67064180D01*
X147391444Y-66941961D01*
X147673106Y-66791409D01*
X147938656Y-66613975D01*
X148185535Y-66411366D01*
X148411366Y-66185535D01*
X148613975Y-65938656D01*
X148791409Y-65673106D01*
X148845551Y-65571811D01*
X148894511Y-65521972D01*
X148962648Y-65506511D01*
X149028328Y-65530342D01*
X149042588Y-65542588D01*
X149463681Y-65963681D01*
X149497166Y-66025004D01*
X149500000Y-66051362D01*
X149500000Y-118951765D01*
X149480315Y-119018804D01*
X149467408Y-119035554D01*
X149461756Y-119041720D01*
X149401946Y-119077837D01*
X149332104Y-119075886D01*
X149274404Y-119036485D01*
X149247165Y-118972143D01*
X149246945Y-118945777D01*
X149250500Y-118909683D01*
X149250500Y-118590316D01*
X149219196Y-118272477D01*
X149156890Y-117959245D01*
X149156889Y-117959244D01*
X149156889Y-117959240D01*
X149064180Y-117653619D01*
X148941961Y-117358556D01*
X148925037Y-117326894D01*
X148791415Y-117076905D01*
X148791413Y-117076903D01*
X148791409Y-117076894D01*
X148791398Y-117076877D01*
X148613987Y-116811361D01*
X148613980Y-116811351D01*
X148613975Y-116811344D01*
X148411366Y-116564465D01*
X148411365Y-116564464D01*
X148411361Y-116564459D01*
X148185540Y-116338638D01*
X147938661Y-116136029D01*
X147938638Y-116136012D01*
X147673122Y-115958601D01*
X147673094Y-115958584D01*
X147391451Y-115808042D01*
X147391446Y-115808040D01*
X147096382Y-115685820D01*
X146790754Y-115593109D01*
X146477521Y-115530803D01*
X146477522Y-115530803D01*
X146238141Y-115507227D01*
X146159687Y-115499500D01*
X145840313Y-115499500D01*
X145767822Y-115506639D01*
X145522477Y-115530803D01*
X145209245Y-115593109D01*
X144903617Y-115685820D01*
X144608553Y-115808040D01*
X144608548Y-115808042D01*
X144326905Y-115958584D01*
X144326877Y-115958601D01*
X144061361Y-116136012D01*
X144061338Y-116136029D01*
X143814459Y-116338638D01*
X143588638Y-116564459D01*
X143386029Y-116811338D01*
X143386012Y-116811361D01*
X143208601Y-117076877D01*
X143208584Y-117076905D01*
X143058042Y-117358548D01*
X143058040Y-117358553D01*
X142935820Y-117653617D01*
X142843109Y-117959245D01*
X142780803Y-118272477D01*
X142756639Y-118517822D01*
X142749500Y-118590313D01*
X142749500Y-118909687D01*
X142755651Y-118972143D01*
X142780803Y-119227522D01*
X142843109Y-119540754D01*
X142935820Y-119846382D01*
X143058040Y-120141446D01*
X143058042Y-120141451D01*
X143208584Y-120423094D01*
X143208601Y-120423122D01*
X143386012Y-120688638D01*
X143386029Y-120688661D01*
X143588638Y-120935540D01*
X143814459Y-121161361D01*
X143814464Y-121161365D01*
X143814465Y-121161366D01*
X144061344Y-121363975D01*
X144061351Y-121363980D01*
X144061361Y-121363987D01*
X144326877Y-121541398D01*
X144326882Y-121541401D01*
X144326894Y-121541409D01*
X144326903Y-121541413D01*
X144326905Y-121541415D01*
X144608548Y-121691957D01*
X144608550Y-121691957D01*
X144608556Y-121691961D01*
X144776291Y-121761439D01*
X144830694Y-121805280D01*
X144852759Y-121871574D01*
X144835480Y-121939274D01*
X144784342Y-121986884D01*
X144728838Y-122000000D01*
X79019701Y-122000000D01*
X78952662Y-121980315D01*
X78906907Y-121927511D01*
X78896963Y-121858353D01*
X78925988Y-121794797D01*
X78950811Y-121772898D01*
X79188638Y-121613987D01*
X79188637Y-121613987D01*
X79188656Y-121613975D01*
X79435535Y-121411366D01*
X79661366Y-121185535D01*
X79863975Y-120938656D01*
X80041409Y-120673106D01*
X80191961Y-120391444D01*
X80314180Y-120096381D01*
X80406889Y-119790760D01*
X80469196Y-119477523D01*
X80500500Y-119159687D01*
X80500500Y-118840313D01*
X80469196Y-118522477D01*
X80406889Y-118209240D01*
X80314180Y-117903619D01*
X80191961Y-117608556D01*
X80058328Y-117358548D01*
X80041415Y-117326905D01*
X80041413Y-117326903D01*
X80041409Y-117326894D01*
X80041398Y-117326877D01*
X79863987Y-117061361D01*
X79863980Y-117061351D01*
X79863975Y-117061344D01*
X79661366Y-116814465D01*
X79661365Y-116814464D01*
X79661361Y-116814459D01*
X79435540Y-116588638D01*
X79188661Y-116386029D01*
X79188638Y-116386012D01*
X78923122Y-116208601D01*
X78923094Y-116208584D01*
X78641451Y-116058042D01*
X78641446Y-116058040D01*
X78346382Y-115935820D01*
X78040754Y-115843109D01*
X77727521Y-115780803D01*
X77727522Y-115780803D01*
X77488141Y-115757227D01*
X77409687Y-115749500D01*
X77090313Y-115749500D01*
X77017822Y-115756639D01*
X76772477Y-115780803D01*
X76459245Y-115843109D01*
X76153617Y-115935820D01*
X75858553Y-116058040D01*
X75858548Y-116058042D01*
X75576905Y-116208584D01*
X75576877Y-116208601D01*
X75311361Y-116386012D01*
X75311338Y-116386029D01*
X75064459Y-116588638D01*
X74838638Y-116814459D01*
X74636029Y-117061338D01*
X74636019Y-117061352D01*
X74516584Y-117240099D01*
X74462972Y-117284904D01*
X74393647Y-117293611D01*
X74330619Y-117263456D01*
X74293900Y-117204013D01*
X74289495Y-117169489D01*
X74408936Y-108609568D01*
X76249500Y-108609568D01*
X76249500Y-108890431D01*
X76280942Y-109169494D01*
X76280945Y-109169512D01*
X76343439Y-109443317D01*
X76343443Y-109443329D01*
X76436200Y-109708411D01*
X76558053Y-109961442D01*
X76558055Y-109961445D01*
X76707477Y-110199248D01*
X76882584Y-110418825D01*
X77081175Y-110617416D01*
X77300752Y-110792523D01*
X77538555Y-110941945D01*
X77791592Y-111063801D01*
X77990680Y-111133465D01*
X78056670Y-111156556D01*
X78056682Y-111156560D01*
X78330491Y-111219055D01*
X78330497Y-111219055D01*
X78330505Y-111219057D01*
X78516547Y-111240018D01*
X78609569Y-111250499D01*
X78609572Y-111250500D01*
X78609575Y-111250500D01*
X78890428Y-111250500D01*
X78890429Y-111250499D01*
X79033055Y-111234429D01*
X79169494Y-111219057D01*
X79169499Y-111219056D01*
X79169509Y-111219055D01*
X79443318Y-111156560D01*
X79708408Y-111063801D01*
X79961445Y-110941945D01*
X80199248Y-110792523D01*
X80418825Y-110617416D01*
X80617416Y-110418825D01*
X80792523Y-110199248D01*
X80941945Y-109961445D01*
X81063801Y-109708408D01*
X81156560Y-109443318D01*
X81219055Y-109169509D01*
X81250500Y-108890425D01*
X81250500Y-108609575D01*
X81219055Y-108330491D01*
X81156560Y-108056682D01*
X81063801Y-107791592D01*
X80941945Y-107538555D01*
X80792523Y-107300752D01*
X80617416Y-107081175D01*
X80418825Y-106882584D01*
X80199248Y-106707477D01*
X79961445Y-106558055D01*
X79961442Y-106558053D01*
X79708411Y-106436200D01*
X79443329Y-106343443D01*
X79443317Y-106343439D01*
X79169512Y-106280945D01*
X79169494Y-106280942D01*
X78890431Y-106249500D01*
X78890425Y-106249500D01*
X78609575Y-106249500D01*
X78609568Y-106249500D01*
X78330505Y-106280942D01*
X78330487Y-106280945D01*
X78056682Y-106343439D01*
X78056670Y-106343443D01*
X77791588Y-106436200D01*
X77538557Y-106558053D01*
X77300753Y-106707476D01*
X77081175Y-106882583D01*
X76882583Y-107081175D01*
X76707476Y-107300753D01*
X76558053Y-107538557D01*
X76436200Y-107791588D01*
X76343443Y-108056670D01*
X76343439Y-108056682D01*
X76280945Y-108330487D01*
X76280942Y-108330505D01*
X76249500Y-108609568D01*
X74408936Y-108609568D01*
X74496202Y-102355513D01*
X75124500Y-102355513D01*
X75124500Y-103144486D01*
X75154059Y-103331118D01*
X75212454Y-103510836D01*
X75288698Y-103660472D01*
X75298240Y-103679199D01*
X75409310Y-103832073D01*
X75542927Y-103965690D01*
X75695801Y-104076760D01*
X75775347Y-104117290D01*
X75864163Y-104162545D01*
X75864165Y-104162545D01*
X75864168Y-104162547D01*
X75940688Y-104187410D01*
X76043881Y-104220940D01*
X76230514Y-104250500D01*
X76230519Y-104250500D01*
X76419486Y-104250500D01*
X76606118Y-104220940D01*
X76785832Y-104162547D01*
X76954199Y-104076760D01*
X77107073Y-103965690D01*
X77240690Y-103832073D01*
X77351760Y-103679199D01*
X77437547Y-103510832D01*
X77477069Y-103389195D01*
X77516507Y-103331521D01*
X77580866Y-103304323D01*
X77649712Y-103316238D01*
X77701188Y-103363482D01*
X77712931Y-103389196D01*
X77752454Y-103510836D01*
X77828698Y-103660472D01*
X77838240Y-103679199D01*
X77949310Y-103832073D01*
X78082927Y-103965690D01*
X78235801Y-104076760D01*
X78315347Y-104117290D01*
X78404163Y-104162545D01*
X78404165Y-104162545D01*
X78404168Y-104162547D01*
X78480688Y-104187410D01*
X78583881Y-104220940D01*
X78770514Y-104250500D01*
X78770519Y-104250500D01*
X78959486Y-104250500D01*
X79146118Y-104220940D01*
X79325832Y-104162547D01*
X79494199Y-104076760D01*
X79647073Y-103965690D01*
X79780690Y-103832073D01*
X79891760Y-103679199D01*
X79977547Y-103510832D01*
X80017069Y-103389195D01*
X80056507Y-103331521D01*
X80120866Y-103304323D01*
X80189712Y-103316238D01*
X80241188Y-103363482D01*
X80252931Y-103389196D01*
X80292454Y-103510836D01*
X80368698Y-103660472D01*
X80378240Y-103679199D01*
X80489310Y-103832073D01*
X80622927Y-103965690D01*
X80775801Y-104076760D01*
X80855347Y-104117290D01*
X80944163Y-104162545D01*
X80944165Y-104162545D01*
X80944168Y-104162547D01*
X81020688Y-104187410D01*
X81123881Y-104220940D01*
X81310514Y-104250500D01*
X81310519Y-104250500D01*
X81499486Y-104250500D01*
X81686118Y-104220940D01*
X81865832Y-104162547D01*
X82034199Y-104076760D01*
X82187073Y-103965690D01*
X82320690Y-103832073D01*
X82431760Y-103679199D01*
X82517547Y-103510832D01*
X82575940Y-103331118D01*
X82580184Y-103304323D01*
X82605500Y-103144486D01*
X82605500Y-102355513D01*
X82575940Y-102168881D01*
X82540764Y-102060621D01*
X82517547Y-101989168D01*
X82517545Y-101989165D01*
X82517545Y-101989163D01*
X82431759Y-101820800D01*
X82320690Y-101667927D01*
X82187073Y-101534310D01*
X82034199Y-101423240D01*
X81865836Y-101337454D01*
X81686118Y-101279059D01*
X81499486Y-101249500D01*
X81499481Y-101249500D01*
X81310519Y-101249500D01*
X81310514Y-101249500D01*
X81123881Y-101279059D01*
X80944163Y-101337454D01*
X80775800Y-101423240D01*
X80688579Y-101486610D01*
X80622927Y-101534310D01*
X80622925Y-101534312D01*
X80622924Y-101534312D01*
X80489312Y-101667924D01*
X80489312Y-101667925D01*
X80489310Y-101667927D01*
X80451000Y-101720656D01*
X80378240Y-101820800D01*
X80292454Y-101989163D01*
X80252931Y-102110803D01*
X80213493Y-102168478D01*
X80149134Y-102195676D01*
X80080288Y-102183761D01*
X80028812Y-102136516D01*
X80017069Y-102110803D01*
X80000764Y-102060621D01*
X79977547Y-101989168D01*
X79977545Y-101989165D01*
X79977545Y-101989163D01*
X79891759Y-101820800D01*
X79780690Y-101667927D01*
X79647073Y-101534310D01*
X79494199Y-101423240D01*
X79325836Y-101337454D01*
X79146118Y-101279059D01*
X78959486Y-101249500D01*
X78959481Y-101249500D01*
X78770519Y-101249500D01*
X78770514Y-101249500D01*
X78583881Y-101279059D01*
X78404163Y-101337454D01*
X78235800Y-101423240D01*
X78148579Y-101486610D01*
X78082927Y-101534310D01*
X78082925Y-101534312D01*
X78082924Y-101534312D01*
X77949312Y-101667924D01*
X77949312Y-101667925D01*
X77949310Y-101667927D01*
X77911000Y-101720656D01*
X77838240Y-101820800D01*
X77752454Y-101989163D01*
X77712931Y-102110803D01*
X77673493Y-102168478D01*
X77609134Y-102195676D01*
X77540288Y-102183761D01*
X77488812Y-102136516D01*
X77477069Y-102110803D01*
X77460764Y-102060621D01*
X77437547Y-101989168D01*
X77437545Y-101989165D01*
X77437545Y-101989163D01*
X77351759Y-101820800D01*
X77240690Y-101667927D01*
X77107073Y-101534310D01*
X76954199Y-101423240D01*
X76785836Y-101337454D01*
X76606118Y-101279059D01*
X76419486Y-101249500D01*
X76419481Y-101249500D01*
X76230519Y-101249500D01*
X76230514Y-101249500D01*
X76043881Y-101279059D01*
X75864163Y-101337454D01*
X75695800Y-101423240D01*
X75608579Y-101486610D01*
X75542927Y-101534310D01*
X75542925Y-101534312D01*
X75542924Y-101534312D01*
X75409312Y-101667924D01*
X75409312Y-101667925D01*
X75409310Y-101667927D01*
X75371000Y-101720656D01*
X75298240Y-101820800D01*
X75212454Y-101989163D01*
X75154059Y-102168881D01*
X75124500Y-102355513D01*
X74496202Y-102355513D01*
X74743819Y-84609568D01*
X78999500Y-84609568D01*
X78999500Y-84890431D01*
X79030942Y-85169494D01*
X79030945Y-85169512D01*
X79093439Y-85443317D01*
X79093443Y-85443329D01*
X79186200Y-85708411D01*
X79308053Y-85961442D01*
X79308055Y-85961445D01*
X79457477Y-86199248D01*
X79632584Y-86418825D01*
X79831175Y-86617416D01*
X80050752Y-86792523D01*
X80288555Y-86941945D01*
X80541592Y-87063801D01*
X80740680Y-87133465D01*
X80806670Y-87156556D01*
X80806682Y-87156560D01*
X81080491Y-87219055D01*
X81080497Y-87219055D01*
X81080505Y-87219057D01*
X81266547Y-87240018D01*
X81359569Y-87250499D01*
X81359572Y-87250500D01*
X81359575Y-87250500D01*
X81640428Y-87250500D01*
X81640429Y-87250499D01*
X81783055Y-87234429D01*
X81919494Y-87219057D01*
X81919499Y-87219056D01*
X81919509Y-87219055D01*
X82193318Y-87156560D01*
X82458408Y-87063801D01*
X82711445Y-86941945D01*
X82949248Y-86792523D01*
X83168825Y-86617416D01*
X83367416Y-86418825D01*
X83542523Y-86199248D01*
X83691945Y-85961445D01*
X83813801Y-85708408D01*
X83906560Y-85443318D01*
X83969055Y-85169509D01*
X84000500Y-84890425D01*
X84000500Y-84609575D01*
X83969055Y-84330491D01*
X83906560Y-84056682D01*
X83813801Y-83791592D01*
X83691945Y-83538555D01*
X83542523Y-83300752D01*
X83367416Y-83081175D01*
X83168825Y-82882584D01*
X82949248Y-82707477D01*
X82711445Y-82558055D01*
X82711442Y-82558053D01*
X82458411Y-82436200D01*
X82193329Y-82343443D01*
X82193317Y-82343439D01*
X81919512Y-82280945D01*
X81919494Y-82280942D01*
X81640431Y-82249500D01*
X81640425Y-82249500D01*
X81359575Y-82249500D01*
X81359568Y-82249500D01*
X81080505Y-82280942D01*
X81080487Y-82280945D01*
X80806682Y-82343439D01*
X80806670Y-82343443D01*
X80541588Y-82436200D01*
X80288557Y-82558053D01*
X80050753Y-82707476D01*
X79831175Y-82882583D01*
X79632583Y-83081175D01*
X79457476Y-83300753D01*
X79308053Y-83538557D01*
X79186200Y-83791588D01*
X79093443Y-84056670D01*
X79093439Y-84056682D01*
X79030945Y-84330487D01*
X79030942Y-84330505D01*
X78999500Y-84609568D01*
X74743819Y-84609568D01*
X74847102Y-77207648D01*
X80199500Y-77207648D01*
X80199500Y-77412351D01*
X80231522Y-77614534D01*
X80294781Y-77809223D01*
X80350627Y-77918825D01*
X80385797Y-77987850D01*
X80387715Y-77991613D01*
X80508028Y-78157213D01*
X80652786Y-78301971D01*
X80807749Y-78414556D01*
X80818390Y-78422287D01*
X80934607Y-78481503D01*
X81000776Y-78515218D01*
X81000778Y-78515218D01*
X81000781Y-78515220D01*
X81084811Y-78542523D01*
X81195465Y-78578477D01*
X81243765Y-78586127D01*
X81397648Y-78610500D01*
X81397649Y-78610500D01*
X81602351Y-78610500D01*
X81602352Y-78610500D01*
X81804534Y-78578477D01*
X81999219Y-78515220D01*
X82181610Y-78422287D01*
X82297476Y-78338106D01*
X82347213Y-78301971D01*
X82347215Y-78301968D01*
X82347219Y-78301966D01*
X82491966Y-78157219D01*
X82491968Y-78157215D01*
X82491971Y-78157213D01*
X82612284Y-77991614D01*
X82612285Y-77991613D01*
X82612287Y-77991610D01*
X82619117Y-77978204D01*
X82667091Y-77927409D01*
X82729602Y-77910500D01*
X83770398Y-77910500D01*
X83837437Y-77930185D01*
X83880883Y-77978205D01*
X83887715Y-77991614D01*
X84008028Y-78157213D01*
X84152786Y-78301971D01*
X84307749Y-78414556D01*
X84318390Y-78422287D01*
X84500781Y-78515220D01*
X84597640Y-78546691D01*
X84655313Y-78586127D01*
X84682512Y-78650486D01*
X84670598Y-78719332D01*
X84632205Y-78764939D01*
X84462787Y-78888028D01*
X84462782Y-78888032D01*
X84318028Y-79032786D01*
X84197715Y-79198386D01*
X84104781Y-79380776D01*
X84041522Y-79575465D01*
X84009500Y-79777648D01*
X84009500Y-79982351D01*
X84041522Y-80184534D01*
X84104781Y-80379223D01*
X84197715Y-80561613D01*
X84318028Y-80727213D01*
X84462786Y-80871971D01*
X84617749Y-80984556D01*
X84628390Y-80992287D01*
X84707407Y-81032548D01*
X84810776Y-81085218D01*
X84810778Y-81085218D01*
X84810781Y-81085220D01*
X84894085Y-81112287D01*
X85005465Y-81148477D01*
X85062377Y-81157491D01*
X85207648Y-81180500D01*
X85207649Y-81180500D01*
X85412351Y-81180500D01*
X85412352Y-81180500D01*
X85614534Y-81148477D01*
X85809219Y-81085220D01*
X85991610Y-80992287D01*
X86157219Y-80871966D01*
X86268163Y-80761021D01*
X86329482Y-80727539D01*
X86399174Y-80732523D01*
X86455108Y-80774394D01*
X86456159Y-80775820D01*
X86508028Y-80847212D01*
X86508032Y-80847217D01*
X86652782Y-80991967D01*
X86652787Y-80991971D01*
X86708636Y-81032548D01*
X86751302Y-81087878D01*
X86757281Y-81157491D01*
X86724675Y-81219286D01*
X86663837Y-81253643D01*
X86616353Y-81255339D01*
X86579486Y-81249500D01*
X86579481Y-81249500D01*
X86390519Y-81249500D01*
X86390514Y-81249500D01*
X86203881Y-81279059D01*
X86024163Y-81337454D01*
X85855800Y-81423240D01*
X85778633Y-81479306D01*
X85702927Y-81534310D01*
X85702925Y-81534312D01*
X85702924Y-81534312D01*
X85569312Y-81667924D01*
X85569312Y-81667925D01*
X85569310Y-81667927D01*
X85540571Y-81707483D01*
X85458240Y-81820800D01*
X85372454Y-81989163D01*
X85314059Y-82168881D01*
X85284500Y-82355513D01*
X85284500Y-83144486D01*
X85314059Y-83331118D01*
X85372454Y-83510836D01*
X85458240Y-83679199D01*
X85569310Y-83832073D01*
X85702927Y-83965690D01*
X85855801Y-84076760D01*
X85889150Y-84093752D01*
X86024163Y-84162545D01*
X86024165Y-84162545D01*
X86024168Y-84162547D01*
X86120497Y-84193846D01*
X86203881Y-84220940D01*
X86390514Y-84250500D01*
X86390519Y-84250500D01*
X86579486Y-84250500D01*
X86766118Y-84220940D01*
X86820500Y-84203270D01*
X86945832Y-84162547D01*
X87114199Y-84076760D01*
X87267073Y-83965690D01*
X87400690Y-83832073D01*
X87511760Y-83679199D01*
X87597547Y-83510832D01*
X87637069Y-83389195D01*
X87676507Y-83331521D01*
X87740866Y-83304323D01*
X87809712Y-83316238D01*
X87861188Y-83363482D01*
X87872931Y-83389196D01*
X87912454Y-83510836D01*
X87998240Y-83679199D01*
X88109310Y-83832073D01*
X88242927Y-83965690D01*
X88395801Y-84076760D01*
X88429150Y-84093752D01*
X88564163Y-84162545D01*
X88564165Y-84162545D01*
X88564168Y-84162547D01*
X88660497Y-84193846D01*
X88743881Y-84220940D01*
X88930514Y-84250500D01*
X88930519Y-84250500D01*
X89119486Y-84250500D01*
X89306118Y-84220940D01*
X89360500Y-84203270D01*
X89485832Y-84162547D01*
X89654199Y-84076760D01*
X89807073Y-83965690D01*
X89940690Y-83832073D01*
X90051760Y-83679199D01*
X90137547Y-83510832D01*
X90177069Y-83389195D01*
X90216507Y-83331521D01*
X90280866Y-83304323D01*
X90349712Y-83316238D01*
X90401188Y-83363482D01*
X90412931Y-83389196D01*
X90452454Y-83510836D01*
X90538240Y-83679199D01*
X90649310Y-83832073D01*
X90782927Y-83965690D01*
X90935801Y-84076760D01*
X90969150Y-84093752D01*
X91104163Y-84162545D01*
X91104165Y-84162545D01*
X91104168Y-84162547D01*
X91200497Y-84193846D01*
X91283881Y-84220940D01*
X91470514Y-84250500D01*
X91470519Y-84250500D01*
X91659486Y-84250500D01*
X91846118Y-84220940D01*
X91900500Y-84203270D01*
X92025832Y-84162547D01*
X92194199Y-84076760D01*
X92347073Y-83965690D01*
X92480690Y-83832073D01*
X92591760Y-83679199D01*
X92677547Y-83510832D01*
X92717069Y-83389195D01*
X92756507Y-83331521D01*
X92820866Y-83304323D01*
X92889712Y-83316238D01*
X92941188Y-83363482D01*
X92952931Y-83389196D01*
X92992454Y-83510836D01*
X93078240Y-83679199D01*
X93189310Y-83832073D01*
X93322927Y-83965690D01*
X93453386Y-84060474D01*
X93496051Y-84115803D01*
X93504500Y-84160791D01*
X93504500Y-86949402D01*
X93484815Y-87016441D01*
X93432011Y-87062196D01*
X93408093Y-87070293D01*
X93306683Y-87093439D01*
X93306670Y-87093443D01*
X93041588Y-87186200D01*
X92788557Y-87308053D01*
X92550753Y-87457476D01*
X92331175Y-87632583D01*
X92132583Y-87831175D01*
X91957476Y-88050753D01*
X91808053Y-88288557D01*
X91686200Y-88541588D01*
X91593443Y-88806670D01*
X91593439Y-88806682D01*
X91530945Y-89080487D01*
X91530942Y-89080505D01*
X91499500Y-89359568D01*
X91499500Y-89640431D01*
X91530942Y-89919494D01*
X91530945Y-89919512D01*
X91593439Y-90193317D01*
X91593443Y-90193329D01*
X91686200Y-90458411D01*
X91808053Y-90711442D01*
X91808055Y-90711445D01*
X91957477Y-90949248D01*
X92132584Y-91168825D01*
X92331175Y-91367416D01*
X92550752Y-91542523D01*
X92788555Y-91691945D01*
X93041592Y-91813801D01*
X93194815Y-91867416D01*
X93306670Y-91906556D01*
X93306682Y-91906560D01*
X93580491Y-91969055D01*
X93580497Y-91969055D01*
X93580505Y-91969057D01*
X93766547Y-91990018D01*
X93859569Y-92000499D01*
X93859572Y-92000500D01*
X93859575Y-92000500D01*
X94140428Y-92000500D01*
X94140429Y-92000499D01*
X94283055Y-91984429D01*
X94419494Y-91969057D01*
X94419499Y-91969056D01*
X94419509Y-91969055D01*
X94693318Y-91906560D01*
X94958408Y-91813801D01*
X95211445Y-91691945D01*
X95449248Y-91542523D01*
X95668825Y-91367416D01*
X95867416Y-91168825D01*
X96042523Y-90949248D01*
X96191945Y-90711445D01*
X96200675Y-90693318D01*
X96300768Y-90485471D01*
X96313389Y-90459262D01*
X96360211Y-90407403D01*
X96427638Y-90389090D01*
X96494262Y-90410138D01*
X96538930Y-90463864D01*
X96546000Y-90485471D01*
X96593440Y-90693321D01*
X96593443Y-90693329D01*
X96686200Y-90958411D01*
X96808053Y-91211442D01*
X96808055Y-91211445D01*
X96957477Y-91449248D01*
X97132584Y-91668825D01*
X97331175Y-91867416D01*
X97550752Y-92042523D01*
X97788555Y-92191945D01*
X98041592Y-92313801D01*
X98240680Y-92383465D01*
X98306670Y-92406556D01*
X98306682Y-92406560D01*
X98580491Y-92469055D01*
X98580497Y-92469055D01*
X98580505Y-92469057D01*
X98766547Y-92490018D01*
X98859569Y-92500499D01*
X98859572Y-92500500D01*
X98859575Y-92500500D01*
X99140428Y-92500500D01*
X99140429Y-92500499D01*
X99283055Y-92484429D01*
X99419494Y-92469057D01*
X99419499Y-92469056D01*
X99419509Y-92469055D01*
X99693318Y-92406560D01*
X99958408Y-92313801D01*
X100211445Y-92191945D01*
X100449248Y-92042523D01*
X100668825Y-91867416D01*
X100867416Y-91668825D01*
X101042523Y-91449248D01*
X101191945Y-91211445D01*
X101313801Y-90958408D01*
X101382959Y-90760767D01*
X101423680Y-90703991D01*
X101488633Y-90678244D01*
X101557195Y-90691700D01*
X101607598Y-90740088D01*
X101617041Y-90760767D01*
X101686200Y-90958411D01*
X101808053Y-91211442D01*
X101808055Y-91211445D01*
X101957477Y-91449248D01*
X102132584Y-91668825D01*
X102331175Y-91867416D01*
X102550752Y-92042523D01*
X102788555Y-92191945D01*
X103041592Y-92313801D01*
X103240680Y-92383465D01*
X103306670Y-92406556D01*
X103306682Y-92406560D01*
X103580491Y-92469055D01*
X103580497Y-92469055D01*
X103580505Y-92469057D01*
X103766547Y-92490018D01*
X103859569Y-92500499D01*
X103859572Y-92500500D01*
X103859575Y-92500500D01*
X104140428Y-92500500D01*
X104140429Y-92500499D01*
X104283055Y-92484429D01*
X104419494Y-92469057D01*
X104419499Y-92469056D01*
X104419509Y-92469055D01*
X104693318Y-92406560D01*
X104958408Y-92313801D01*
X105211445Y-92191945D01*
X105449248Y-92042523D01*
X105668825Y-91867416D01*
X105867416Y-91668825D01*
X106042523Y-91449248D01*
X106191945Y-91211445D01*
X106313801Y-90958408D01*
X106406560Y-90693318D01*
X106469055Y-90419509D01*
X106472483Y-90389090D01*
X106494540Y-90193318D01*
X106500500Y-90140425D01*
X106500500Y-89859575D01*
X106469055Y-89580491D01*
X106406560Y-89306682D01*
X106313801Y-89041592D01*
X106232563Y-88872900D01*
X106191946Y-88788557D01*
X106145451Y-88714561D01*
X106042523Y-88550752D01*
X105867416Y-88331175D01*
X105668825Y-88132584D01*
X105449248Y-87957477D01*
X105211445Y-87808055D01*
X105211442Y-87808053D01*
X104958411Y-87686200D01*
X104693319Y-87593439D01*
X104690163Y-87592530D01*
X104631196Y-87555051D01*
X104601852Y-87491642D01*
X104600500Y-87473379D01*
X104600500Y-84293360D01*
X104620185Y-84226321D01*
X104672989Y-84180566D01*
X104686161Y-84175436D01*
X104725832Y-84162547D01*
X104894199Y-84076760D01*
X105047073Y-83965690D01*
X105180690Y-83832073D01*
X105291760Y-83679199D01*
X105377547Y-83510832D01*
X105417069Y-83389195D01*
X105456507Y-83331521D01*
X105520866Y-83304323D01*
X105589712Y-83316238D01*
X105641188Y-83363482D01*
X105652931Y-83389196D01*
X105692454Y-83510836D01*
X105778240Y-83679199D01*
X105889310Y-83832073D01*
X106022927Y-83965690D01*
X106175801Y-84076760D01*
X106209150Y-84093752D01*
X106344163Y-84162545D01*
X106344165Y-84162545D01*
X106344168Y-84162547D01*
X106440497Y-84193846D01*
X106523881Y-84220940D01*
X106710514Y-84250500D01*
X106710519Y-84250500D01*
X106899486Y-84250500D01*
X107086118Y-84220940D01*
X107140500Y-84203270D01*
X107265832Y-84162547D01*
X107434199Y-84076760D01*
X107587073Y-83965690D01*
X107720690Y-83832073D01*
X107831760Y-83679199D01*
X107917547Y-83510832D01*
X107957069Y-83389195D01*
X107996507Y-83331521D01*
X108060866Y-83304323D01*
X108129712Y-83316238D01*
X108181188Y-83363482D01*
X108192931Y-83389196D01*
X108232454Y-83510836D01*
X108318240Y-83679199D01*
X108429310Y-83832073D01*
X108562927Y-83965690D01*
X108715801Y-84076760D01*
X108749150Y-84093752D01*
X108884163Y-84162545D01*
X108884165Y-84162545D01*
X108884168Y-84162547D01*
X108980497Y-84193846D01*
X109063881Y-84220940D01*
X109250514Y-84250500D01*
X109250519Y-84250500D01*
X109439486Y-84250500D01*
X109626118Y-84220940D01*
X109680500Y-84203270D01*
X109805832Y-84162547D01*
X109974199Y-84076760D01*
X110127073Y-83965690D01*
X110260690Y-83832073D01*
X110371760Y-83679199D01*
X110457547Y-83510832D01*
X110497069Y-83389195D01*
X110536507Y-83331521D01*
X110600866Y-83304323D01*
X110669712Y-83316238D01*
X110721188Y-83363482D01*
X110732931Y-83389196D01*
X110772454Y-83510836D01*
X110858240Y-83679199D01*
X110969310Y-83832073D01*
X111102927Y-83965690D01*
X111233386Y-84060474D01*
X111276051Y-84115803D01*
X111284500Y-84160791D01*
X111284500Y-95654274D01*
X111264815Y-95721313D01*
X111248181Y-95741955D01*
X105381283Y-101608853D01*
X105339129Y-101651006D01*
X105277806Y-101684491D01*
X105208114Y-101679505D01*
X105163768Y-101651005D01*
X105047075Y-101534312D01*
X105047073Y-101534310D01*
X104894199Y-101423240D01*
X104725836Y-101337454D01*
X104546118Y-101279059D01*
X104359486Y-101249500D01*
X104359481Y-101249500D01*
X104170519Y-101249500D01*
X104170514Y-101249500D01*
X103983881Y-101279059D01*
X103804163Y-101337454D01*
X103635800Y-101423240D01*
X103548579Y-101486610D01*
X103482927Y-101534310D01*
X103482925Y-101534312D01*
X103482924Y-101534312D01*
X103349312Y-101667924D01*
X103349312Y-101667925D01*
X103349310Y-101667927D01*
X103311000Y-101720656D01*
X103238240Y-101820800D01*
X103152454Y-101989163D01*
X103112931Y-102110803D01*
X103073493Y-102168478D01*
X103009134Y-102195676D01*
X102940288Y-102183761D01*
X102888812Y-102136516D01*
X102877069Y-102110803D01*
X102860764Y-102060621D01*
X102837547Y-101989168D01*
X102837545Y-101989165D01*
X102837545Y-101989163D01*
X102751759Y-101820800D01*
X102640690Y-101667927D01*
X102507073Y-101534310D01*
X102354199Y-101423240D01*
X102185836Y-101337454D01*
X102006118Y-101279059D01*
X101819486Y-101249500D01*
X101819481Y-101249500D01*
X101630519Y-101249500D01*
X101630514Y-101249500D01*
X101443881Y-101279059D01*
X101264163Y-101337454D01*
X101095800Y-101423240D01*
X101008579Y-101486610D01*
X100942927Y-101534310D01*
X100942925Y-101534312D01*
X100942924Y-101534312D01*
X100809312Y-101667924D01*
X100809312Y-101667925D01*
X100809310Y-101667927D01*
X100771000Y-101720656D01*
X100698240Y-101820800D01*
X100612454Y-101989163D01*
X100572931Y-102110803D01*
X100533493Y-102168478D01*
X100469134Y-102195676D01*
X100400288Y-102183761D01*
X100348812Y-102136516D01*
X100337069Y-102110803D01*
X100320764Y-102060621D01*
X100297547Y-101989168D01*
X100297545Y-101989165D01*
X100297545Y-101989163D01*
X100211759Y-101820800D01*
X100100690Y-101667927D01*
X99967073Y-101534310D01*
X99814199Y-101423240D01*
X99645836Y-101337454D01*
X99466118Y-101279059D01*
X99279486Y-101249500D01*
X99279481Y-101249500D01*
X99090519Y-101249500D01*
X99090514Y-101249500D01*
X98903881Y-101279059D01*
X98724163Y-101337454D01*
X98555800Y-101423240D01*
X98468579Y-101486610D01*
X98402927Y-101534310D01*
X98402925Y-101534312D01*
X98402924Y-101534312D01*
X98269312Y-101667924D01*
X98269312Y-101667925D01*
X98269310Y-101667927D01*
X98231000Y-101720656D01*
X98158240Y-101820800D01*
X98072454Y-101989163D01*
X98032931Y-102110803D01*
X97993493Y-102168478D01*
X97929134Y-102195676D01*
X97860288Y-102183761D01*
X97808812Y-102136516D01*
X97797069Y-102110803D01*
X97780764Y-102060621D01*
X97757547Y-101989168D01*
X97757545Y-101989165D01*
X97757545Y-101989163D01*
X97671759Y-101820800D01*
X97560690Y-101667927D01*
X97427073Y-101534310D01*
X97274199Y-101423240D01*
X97105836Y-101337454D01*
X96926118Y-101279059D01*
X96739486Y-101249500D01*
X96739481Y-101249500D01*
X96550519Y-101249500D01*
X96550514Y-101249500D01*
X96363881Y-101279059D01*
X96184163Y-101337454D01*
X96015800Y-101423240D01*
X95928579Y-101486610D01*
X95862927Y-101534310D01*
X95862925Y-101534312D01*
X95862924Y-101534312D01*
X95729312Y-101667924D01*
X95729312Y-101667925D01*
X95729310Y-101667927D01*
X95691000Y-101720656D01*
X95618240Y-101820800D01*
X95532454Y-101989163D01*
X95492931Y-102110803D01*
X95453493Y-102168478D01*
X95389134Y-102195676D01*
X95320288Y-102183761D01*
X95268812Y-102136516D01*
X95257069Y-102110803D01*
X95240764Y-102060621D01*
X95217547Y-101989168D01*
X95217545Y-101989165D01*
X95217545Y-101989163D01*
X95131759Y-101820800D01*
X95020690Y-101667927D01*
X94887073Y-101534310D01*
X94734199Y-101423240D01*
X94565836Y-101337454D01*
X94386118Y-101279059D01*
X94199486Y-101249500D01*
X94199481Y-101249500D01*
X94010519Y-101249500D01*
X94010514Y-101249500D01*
X93823881Y-101279059D01*
X93644163Y-101337454D01*
X93475800Y-101423240D01*
X93388579Y-101486610D01*
X93322927Y-101534310D01*
X93322925Y-101534312D01*
X93322924Y-101534312D01*
X93189312Y-101667924D01*
X93189312Y-101667925D01*
X93189310Y-101667927D01*
X93151000Y-101720656D01*
X93078240Y-101820800D01*
X92992454Y-101989163D01*
X92952931Y-102110803D01*
X92913493Y-102168478D01*
X92849134Y-102195676D01*
X92780288Y-102183761D01*
X92728812Y-102136516D01*
X92717069Y-102110803D01*
X92700764Y-102060621D01*
X92677547Y-101989168D01*
X92677545Y-101989165D01*
X92677545Y-101989163D01*
X92591759Y-101820800D01*
X92480690Y-101667927D01*
X92347073Y-101534310D01*
X92194199Y-101423240D01*
X92025836Y-101337454D01*
X91846118Y-101279059D01*
X91659486Y-101249500D01*
X91659481Y-101249500D01*
X91470519Y-101249500D01*
X91470514Y-101249500D01*
X91283881Y-101279059D01*
X91104163Y-101337454D01*
X90935800Y-101423240D01*
X90848579Y-101486610D01*
X90782927Y-101534310D01*
X90782925Y-101534312D01*
X90782924Y-101534312D01*
X90649312Y-101667924D01*
X90649312Y-101667925D01*
X90649310Y-101667927D01*
X90611000Y-101720656D01*
X90538240Y-101820800D01*
X90452454Y-101989163D01*
X90412931Y-102110803D01*
X90373493Y-102168478D01*
X90309134Y-102195676D01*
X90240288Y-102183761D01*
X90188812Y-102136516D01*
X90177069Y-102110803D01*
X90160764Y-102060621D01*
X90137547Y-101989168D01*
X90137545Y-101989165D01*
X90137545Y-101989163D01*
X90051759Y-101820800D01*
X89940690Y-101667927D01*
X89807073Y-101534310D01*
X89654199Y-101423240D01*
X89485836Y-101337454D01*
X89306118Y-101279059D01*
X89119486Y-101249500D01*
X89119481Y-101249500D01*
X88930519Y-101249500D01*
X88930514Y-101249500D01*
X88743881Y-101279059D01*
X88564163Y-101337454D01*
X88395800Y-101423240D01*
X88308579Y-101486610D01*
X88242927Y-101534310D01*
X88242925Y-101534312D01*
X88242924Y-101534312D01*
X88109312Y-101667924D01*
X88109312Y-101667925D01*
X88109310Y-101667927D01*
X88071000Y-101720656D01*
X87998240Y-101820800D01*
X87912454Y-101989163D01*
X87872931Y-102110803D01*
X87833493Y-102168478D01*
X87769134Y-102195676D01*
X87700288Y-102183761D01*
X87648812Y-102136516D01*
X87637069Y-102110803D01*
X87620764Y-102060621D01*
X87597547Y-101989168D01*
X87597545Y-101989165D01*
X87597545Y-101989163D01*
X87511759Y-101820800D01*
X87400690Y-101667927D01*
X87267073Y-101534310D01*
X87114199Y-101423240D01*
X86945836Y-101337454D01*
X86766118Y-101279059D01*
X86579486Y-101249500D01*
X86579481Y-101249500D01*
X86390519Y-101249500D01*
X86390514Y-101249500D01*
X86203881Y-101279059D01*
X86024163Y-101337454D01*
X85855800Y-101423240D01*
X85768579Y-101486610D01*
X85702927Y-101534310D01*
X85702925Y-101534312D01*
X85702924Y-101534312D01*
X85569312Y-101667924D01*
X85569312Y-101667925D01*
X85569310Y-101667927D01*
X85531000Y-101720656D01*
X85458240Y-101820800D01*
X85372454Y-101989163D01*
X85314059Y-102168881D01*
X85284500Y-102355513D01*
X85284500Y-103144486D01*
X85314059Y-103331118D01*
X85372454Y-103510836D01*
X85448698Y-103660472D01*
X85458240Y-103679199D01*
X85569310Y-103832073D01*
X85702927Y-103965690D01*
X85855801Y-104076760D01*
X85935347Y-104117290D01*
X86024163Y-104162545D01*
X86024165Y-104162545D01*
X86024168Y-104162547D01*
X86100688Y-104187410D01*
X86203881Y-104220940D01*
X86390514Y-104250500D01*
X86390519Y-104250500D01*
X86579486Y-104250500D01*
X86766118Y-104220940D01*
X86945832Y-104162547D01*
X87114199Y-104076760D01*
X87267073Y-103965690D01*
X87400690Y-103832073D01*
X87511760Y-103679199D01*
X87597547Y-103510832D01*
X87637069Y-103389195D01*
X87676507Y-103331521D01*
X87740866Y-103304323D01*
X87809712Y-103316238D01*
X87861188Y-103363482D01*
X87872931Y-103389196D01*
X87912454Y-103510836D01*
X87988698Y-103660472D01*
X87998240Y-103679199D01*
X88109310Y-103832073D01*
X88242927Y-103965690D01*
X88395801Y-104076760D01*
X88475347Y-104117290D01*
X88564163Y-104162545D01*
X88564165Y-104162545D01*
X88564168Y-104162547D01*
X88640688Y-104187410D01*
X88743881Y-104220940D01*
X88930514Y-104250500D01*
X88930519Y-104250500D01*
X89119486Y-104250500D01*
X89306118Y-104220940D01*
X89485832Y-104162547D01*
X89654199Y-104076760D01*
X89807073Y-103965690D01*
X89940690Y-103832073D01*
X90051760Y-103679199D01*
X90137547Y-103510832D01*
X90177069Y-103389195D01*
X90216507Y-103331521D01*
X90280866Y-103304323D01*
X90349712Y-103316238D01*
X90401188Y-103363482D01*
X90412931Y-103389196D01*
X90452454Y-103510836D01*
X90528698Y-103660472D01*
X90538240Y-103679199D01*
X90649310Y-103832073D01*
X90782927Y-103965690D01*
X90935801Y-104076760D01*
X91015347Y-104117290D01*
X91104163Y-104162545D01*
X91104165Y-104162545D01*
X91104168Y-104162547D01*
X91180688Y-104187410D01*
X91283881Y-104220940D01*
X91470514Y-104250500D01*
X91470519Y-104250500D01*
X91659486Y-104250500D01*
X91846118Y-104220940D01*
X92025832Y-104162547D01*
X92194199Y-104076760D01*
X92347073Y-103965690D01*
X92480690Y-103832073D01*
X92591760Y-103679199D01*
X92677547Y-103510832D01*
X92717069Y-103389195D01*
X92756507Y-103331521D01*
X92820866Y-103304323D01*
X92889712Y-103316238D01*
X92941188Y-103363482D01*
X92952931Y-103389196D01*
X92992454Y-103510836D01*
X93068698Y-103660472D01*
X93078240Y-103679199D01*
X93189310Y-103832073D01*
X93322927Y-103965690D01*
X93475801Y-104076760D01*
X93555347Y-104117290D01*
X93644163Y-104162545D01*
X93644165Y-104162545D01*
X93644168Y-104162547D01*
X93720688Y-104187410D01*
X93823881Y-104220940D01*
X94010514Y-104250500D01*
X94010519Y-104250500D01*
X94199486Y-104250500D01*
X94386118Y-104220940D01*
X94565832Y-104162547D01*
X94734199Y-104076760D01*
X94887073Y-103965690D01*
X95020690Y-103832073D01*
X95131760Y-103679199D01*
X95217547Y-103510832D01*
X95257069Y-103389195D01*
X95296507Y-103331521D01*
X95360866Y-103304323D01*
X95429712Y-103316238D01*
X95481188Y-103363482D01*
X95492931Y-103389196D01*
X95532454Y-103510836D01*
X95608698Y-103660472D01*
X95618240Y-103679199D01*
X95729310Y-103832073D01*
X95862927Y-103965690D01*
X96015801Y-104076760D01*
X96095347Y-104117290D01*
X96184163Y-104162545D01*
X96184165Y-104162545D01*
X96184168Y-104162547D01*
X96260688Y-104187410D01*
X96363881Y-104220940D01*
X96550514Y-104250500D01*
X96550519Y-104250500D01*
X96739486Y-104250500D01*
X96926118Y-104220940D01*
X97105832Y-104162547D01*
X97274199Y-104076760D01*
X97427073Y-103965690D01*
X97560690Y-103832073D01*
X97671760Y-103679199D01*
X97757547Y-103510832D01*
X97797069Y-103389195D01*
X97836507Y-103331521D01*
X97900866Y-103304323D01*
X97969712Y-103316238D01*
X98021188Y-103363482D01*
X98032931Y-103389196D01*
X98072454Y-103510836D01*
X98148698Y-103660472D01*
X98158240Y-103679199D01*
X98269310Y-103832073D01*
X98402927Y-103965690D01*
X98555801Y-104076760D01*
X98635347Y-104117290D01*
X98724163Y-104162545D01*
X98724165Y-104162545D01*
X98724168Y-104162547D01*
X98800688Y-104187410D01*
X98903881Y-104220940D01*
X99090514Y-104250500D01*
X99090519Y-104250500D01*
X99279486Y-104250500D01*
X99466118Y-104220940D01*
X99645832Y-104162547D01*
X99814199Y-104076760D01*
X99967073Y-103965690D01*
X100100690Y-103832073D01*
X100211760Y-103679199D01*
X100297547Y-103510832D01*
X100337069Y-103389195D01*
X100376507Y-103331521D01*
X100440866Y-103304323D01*
X100509712Y-103316238D01*
X100561188Y-103363482D01*
X100572931Y-103389196D01*
X100612454Y-103510836D01*
X100688698Y-103660472D01*
X100698240Y-103679199D01*
X100809310Y-103832073D01*
X100942927Y-103965690D01*
X101095801Y-104076760D01*
X101175347Y-104117290D01*
X101264163Y-104162545D01*
X101264165Y-104162545D01*
X101264168Y-104162547D01*
X101340688Y-104187410D01*
X101443881Y-104220940D01*
X101630514Y-104250500D01*
X101630519Y-104250500D01*
X101819486Y-104250500D01*
X102006118Y-104220940D01*
X102185832Y-104162547D01*
X102354199Y-104076760D01*
X102507073Y-103965690D01*
X102640690Y-103832073D01*
X102751760Y-103679199D01*
X102837547Y-103510832D01*
X102877069Y-103389195D01*
X102916507Y-103331521D01*
X102980866Y-103304323D01*
X103049712Y-103316238D01*
X103101188Y-103363482D01*
X103112931Y-103389196D01*
X103152454Y-103510836D01*
X103228698Y-103660472D01*
X103238240Y-103679199D01*
X103349310Y-103832073D01*
X103482927Y-103965690D01*
X103616129Y-104062467D01*
X103658795Y-104117797D01*
X103664774Y-104187410D01*
X103632168Y-104249205D01*
X103630925Y-104250466D01*
X102134536Y-105746855D01*
X102134529Y-105746862D01*
X102131286Y-105750106D01*
X102131284Y-105750108D01*
X102019480Y-105861912D01*
X101993044Y-105907701D01*
X101987211Y-105917802D01*
X101987209Y-105917806D01*
X101940424Y-105998841D01*
X101940423Y-105998843D01*
X101899499Y-106151571D01*
X101899499Y-106151573D01*
X101899499Y-106319674D01*
X101899500Y-106319687D01*
X101899500Y-106920234D01*
X101879815Y-106987273D01*
X101878602Y-106989125D01*
X101790609Y-107120814D01*
X101790602Y-107120827D01*
X101730264Y-107266498D01*
X101730261Y-107266510D01*
X101699500Y-107421153D01*
X101699500Y-107578846D01*
X101730261Y-107733489D01*
X101730264Y-107733501D01*
X101790602Y-107879172D01*
X101790609Y-107879185D01*
X101878210Y-108010288D01*
X101878213Y-108010292D01*
X101989707Y-108121786D01*
X101989711Y-108121789D01*
X102120814Y-108209390D01*
X102120827Y-108209397D01*
X102266498Y-108269735D01*
X102266503Y-108269737D01*
X102421153Y-108300499D01*
X102421156Y-108300500D01*
X102421158Y-108300500D01*
X102578844Y-108300500D01*
X102578845Y-108300499D01*
X102733497Y-108269737D01*
X102879179Y-108209394D01*
X103010289Y-108121789D01*
X103121789Y-108010289D01*
X103209394Y-107879179D01*
X103269737Y-107733497D01*
X103300500Y-107578842D01*
X103300500Y-107421158D01*
X103300500Y-107421155D01*
X103300499Y-107421153D01*
X103269737Y-107266503D01*
X103269735Y-107266498D01*
X103209397Y-107120827D01*
X103209390Y-107120814D01*
X103121398Y-106989125D01*
X103100520Y-106922447D01*
X103100500Y-106920234D01*
X103100500Y-106530724D01*
X103120185Y-106463685D01*
X103136814Y-106443048D01*
X104816472Y-104763389D01*
X124529500Y-104763389D01*
X124529500Y-105736611D01*
X124556598Y-105907701D01*
X124610127Y-106072445D01*
X124688768Y-106226788D01*
X124790586Y-106366928D01*
X124913072Y-106489414D01*
X125053212Y-106591232D01*
X125207555Y-106669873D01*
X125372299Y-106723402D01*
X125543389Y-106750500D01*
X125543390Y-106750500D01*
X125716610Y-106750500D01*
X125716611Y-106750500D01*
X125887701Y-106723402D01*
X126052445Y-106669873D01*
X126206788Y-106591232D01*
X126346928Y-106489414D01*
X126469414Y-106366928D01*
X126571232Y-106226788D01*
X126649873Y-106072445D01*
X126703402Y-105907701D01*
X126730500Y-105736611D01*
X126730500Y-105050096D01*
X126739144Y-105020655D01*
X126745668Y-104990669D01*
X126749422Y-104985653D01*
X126750185Y-104983057D01*
X126766815Y-104962419D01*
X126857820Y-104871414D01*
X126919142Y-104837930D01*
X126988834Y-104842914D01*
X127044767Y-104884786D01*
X127069184Y-104950250D01*
X127069500Y-104959096D01*
X127069500Y-105736611D01*
X127096598Y-105907701D01*
X127150127Y-106072445D01*
X127228768Y-106226788D01*
X127330586Y-106366928D01*
X127453072Y-106489414D01*
X127593212Y-106591232D01*
X127747555Y-106669873D01*
X127912299Y-106723402D01*
X128083389Y-106750500D01*
X128083390Y-106750500D01*
X128256610Y-106750500D01*
X128256611Y-106750500D01*
X128427701Y-106723402D01*
X128592445Y-106669873D01*
X128746788Y-106591232D01*
X128886928Y-106489414D01*
X129009414Y-106366928D01*
X129111232Y-106226788D01*
X129189873Y-106072445D01*
X129243402Y-105907701D01*
X129270500Y-105736611D01*
X129270500Y-104763389D01*
X129609500Y-104763389D01*
X129609500Y-105736611D01*
X129636598Y-105907701D01*
X129690127Y-106072445D01*
X129768768Y-106226788D01*
X129870586Y-106366928D01*
X129993072Y-106489414D01*
X130133212Y-106591232D01*
X130287555Y-106669873D01*
X130452299Y-106723402D01*
X130623389Y-106750500D01*
X130623390Y-106750500D01*
X130796610Y-106750500D01*
X130796611Y-106750500D01*
X130967701Y-106723402D01*
X131132445Y-106669873D01*
X131286788Y-106591232D01*
X131426928Y-106489414D01*
X131549414Y-106366928D01*
X131651232Y-106226788D01*
X131729873Y-106072445D01*
X131783402Y-105907701D01*
X131810500Y-105736611D01*
X131810500Y-104763389D01*
X132149500Y-104763389D01*
X132149500Y-105736611D01*
X132176598Y-105907701D01*
X132230127Y-106072445D01*
X132308768Y-106226788D01*
X132410586Y-106366928D01*
X132533072Y-106489414D01*
X132673212Y-106591232D01*
X132827555Y-106669873D01*
X132992299Y-106723402D01*
X133163389Y-106750500D01*
X133163390Y-106750500D01*
X133336610Y-106750500D01*
X133336611Y-106750500D01*
X133507701Y-106723402D01*
X133672445Y-106669873D01*
X133826788Y-106591232D01*
X133966928Y-106489414D01*
X134089414Y-106366928D01*
X134191232Y-106226788D01*
X134269873Y-106072445D01*
X134323402Y-105907701D01*
X134350500Y-105736611D01*
X134350500Y-104763389D01*
X134689500Y-104763389D01*
X134689500Y-105736611D01*
X134716598Y-105907701D01*
X134770127Y-106072445D01*
X134848768Y-106226788D01*
X134950586Y-106366928D01*
X135073072Y-106489414D01*
X135213212Y-106591232D01*
X135367555Y-106669873D01*
X135532299Y-106723402D01*
X135703389Y-106750500D01*
X135703390Y-106750500D01*
X135876610Y-106750500D01*
X135876611Y-106750500D01*
X136047701Y-106723402D01*
X136212445Y-106669873D01*
X136366788Y-106591232D01*
X136506928Y-106489414D01*
X136629414Y-106366928D01*
X136731232Y-106226788D01*
X136809873Y-106072445D01*
X136863402Y-105907701D01*
X136890500Y-105736611D01*
X136890500Y-104763389D01*
X139769500Y-104763389D01*
X139769500Y-105736611D01*
X139796598Y-105907701D01*
X139850127Y-106072445D01*
X139928768Y-106226788D01*
X140030586Y-106366928D01*
X140153072Y-106489414D01*
X140293212Y-106591232D01*
X140447555Y-106669873D01*
X140612299Y-106723402D01*
X140783389Y-106750500D01*
X140783390Y-106750500D01*
X140956610Y-106750500D01*
X140956611Y-106750500D01*
X141127701Y-106723402D01*
X141292445Y-106669873D01*
X141446788Y-106591232D01*
X141586928Y-106489414D01*
X141709414Y-106366928D01*
X141811232Y-106226788D01*
X141889873Y-106072445D01*
X141943402Y-105907701D01*
X141970500Y-105736611D01*
X141970500Y-104763389D01*
X141943402Y-104592299D01*
X141889873Y-104427555D01*
X141811232Y-104273212D01*
X141709414Y-104133072D01*
X141586928Y-104010586D01*
X141446788Y-103908768D01*
X141292445Y-103830127D01*
X141127701Y-103776598D01*
X141127699Y-103776597D01*
X141127698Y-103776597D01*
X140996271Y-103755781D01*
X140956611Y-103749500D01*
X140783389Y-103749500D01*
X140743728Y-103755781D01*
X140612302Y-103776597D01*
X140447552Y-103830128D01*
X140293211Y-103908768D01*
X140214870Y-103965687D01*
X140153072Y-104010586D01*
X140153070Y-104010588D01*
X140153069Y-104010588D01*
X140030588Y-104133069D01*
X140030588Y-104133070D01*
X140030586Y-104133072D01*
X140030096Y-104133747D01*
X139928768Y-104273211D01*
X139850128Y-104427552D01*
X139796597Y-104592302D01*
X139784159Y-104670836D01*
X139769500Y-104763389D01*
X136890500Y-104763389D01*
X136863402Y-104592299D01*
X136809873Y-104427555D01*
X136731232Y-104273212D01*
X136629414Y-104133072D01*
X136506928Y-104010586D01*
X136366788Y-103908768D01*
X136212445Y-103830127D01*
X136047701Y-103776598D01*
X136047699Y-103776597D01*
X136047698Y-103776597D01*
X135916271Y-103755781D01*
X135876611Y-103749500D01*
X135703389Y-103749500D01*
X135663728Y-103755781D01*
X135532302Y-103776597D01*
X135367552Y-103830128D01*
X135213211Y-103908768D01*
X135134870Y-103965687D01*
X135073072Y-104010586D01*
X135073070Y-104010588D01*
X135073069Y-104010588D01*
X134950588Y-104133069D01*
X134950588Y-104133070D01*
X134950586Y-104133072D01*
X134950096Y-104133747D01*
X134848768Y-104273211D01*
X134770128Y-104427552D01*
X134716597Y-104592302D01*
X134704159Y-104670836D01*
X134689500Y-104763389D01*
X134350500Y-104763389D01*
X134323402Y-104592299D01*
X134269873Y-104427555D01*
X134191232Y-104273212D01*
X134089414Y-104133072D01*
X133966928Y-104010586D01*
X133826788Y-103908768D01*
X133672445Y-103830127D01*
X133507701Y-103776598D01*
X133507699Y-103776597D01*
X133507698Y-103776597D01*
X133376271Y-103755781D01*
X133336611Y-103749500D01*
X133163389Y-103749500D01*
X133123728Y-103755781D01*
X132992302Y-103776597D01*
X132827552Y-103830128D01*
X132673211Y-103908768D01*
X132594870Y-103965687D01*
X132533072Y-104010586D01*
X132533070Y-104010588D01*
X132533069Y-104010588D01*
X132410588Y-104133069D01*
X132410588Y-104133070D01*
X132410586Y-104133072D01*
X132410096Y-104133747D01*
X132308768Y-104273211D01*
X132230128Y-104427552D01*
X132176597Y-104592302D01*
X132164159Y-104670836D01*
X132149500Y-104763389D01*
X131810500Y-104763389D01*
X131783402Y-104592299D01*
X131729873Y-104427555D01*
X131651232Y-104273212D01*
X131549414Y-104133072D01*
X131426928Y-104010586D01*
X131286788Y-103908768D01*
X131132445Y-103830127D01*
X130967701Y-103776598D01*
X130967699Y-103776597D01*
X130967698Y-103776597D01*
X130836271Y-103755781D01*
X130796611Y-103749500D01*
X130623389Y-103749500D01*
X130583728Y-103755781D01*
X130452302Y-103776597D01*
X130287552Y-103830128D01*
X130133211Y-103908768D01*
X130054870Y-103965687D01*
X129993072Y-104010586D01*
X129993070Y-104010588D01*
X129993069Y-104010588D01*
X129870588Y-104133069D01*
X129870588Y-104133070D01*
X129870586Y-104133072D01*
X129870096Y-104133747D01*
X129768768Y-104273211D01*
X129690128Y-104427552D01*
X129636597Y-104592302D01*
X129624159Y-104670836D01*
X129609500Y-104763389D01*
X129270500Y-104763389D01*
X129243402Y-104592299D01*
X129189873Y-104427555D01*
X129111232Y-104273212D01*
X129009414Y-104133072D01*
X128886928Y-104010586D01*
X128746788Y-103908768D01*
X128592445Y-103830127D01*
X128427701Y-103776598D01*
X128427699Y-103776597D01*
X128427697Y-103776597D01*
X128257957Y-103749713D01*
X128194822Y-103719784D01*
X128157891Y-103660472D01*
X128158889Y-103590610D01*
X128189672Y-103539561D01*
X130552416Y-101176819D01*
X130613739Y-101143334D01*
X130640097Y-101140500D01*
X136533331Y-101140500D01*
X136533347Y-101140501D01*
X136540943Y-101140501D01*
X136699054Y-101140501D01*
X136699057Y-101140501D01*
X136851785Y-101099577D01*
X136902064Y-101070548D01*
X136988716Y-101020520D01*
X137100520Y-100908716D01*
X137100520Y-100908714D01*
X137110724Y-100898511D01*
X137110728Y-100898506D01*
X137294527Y-100714706D01*
X137355848Y-100681223D01*
X137420523Y-100684457D01*
X137484625Y-100705286D01*
X137565632Y-100718116D01*
X137700639Y-100739500D01*
X137700644Y-100739500D01*
X137919361Y-100739500D01*
X138024082Y-100722912D01*
X138135375Y-100705286D01*
X138343383Y-100637701D01*
X138538257Y-100538407D01*
X138637985Y-100465951D01*
X138715193Y-100409857D01*
X138715195Y-100409854D01*
X138715199Y-100409852D01*
X138869852Y-100255199D01*
X138979683Y-100104028D01*
X139035011Y-100061364D01*
X139104624Y-100055385D01*
X139166420Y-100087990D01*
X139180313Y-100104023D01*
X139290144Y-100255193D01*
X139290148Y-100255199D01*
X139444806Y-100409857D01*
X139595696Y-100519483D01*
X139621743Y-100538407D01*
X139724754Y-100590894D01*
X139816616Y-100637701D01*
X139816619Y-100637702D01*
X139888254Y-100660977D01*
X140024625Y-100705286D01*
X140124672Y-100721132D01*
X140240639Y-100739500D01*
X140240644Y-100739500D01*
X140459361Y-100739500D01*
X140564082Y-100722912D01*
X140675375Y-100705286D01*
X140883383Y-100637701D01*
X141078257Y-100538407D01*
X141177985Y-100465951D01*
X141255193Y-100409857D01*
X141255195Y-100409854D01*
X141255199Y-100409852D01*
X141409852Y-100255199D01*
X141409854Y-100255195D01*
X141409857Y-100255193D01*
X141466229Y-100177601D01*
X141538407Y-100078257D01*
X141637701Y-99883383D01*
X141705286Y-99675375D01*
X141722912Y-99564082D01*
X141739500Y-99459361D01*
X141739500Y-99240639D01*
X141737445Y-99227666D01*
X141737445Y-99227665D01*
X141735016Y-99212332D01*
X142059500Y-99212332D01*
X142059500Y-99487667D01*
X142059501Y-99487684D01*
X142095438Y-99760655D01*
X142095439Y-99760660D01*
X142095440Y-99760666D01*
X142123935Y-99867011D01*
X142166704Y-100026630D01*
X142272075Y-100281017D01*
X142272080Y-100281028D01*
X142346457Y-100409851D01*
X142409751Y-100519479D01*
X142409753Y-100519482D01*
X142409754Y-100519483D01*
X142577370Y-100737926D01*
X142577376Y-100737933D01*
X142772066Y-100932623D01*
X142772072Y-100932628D01*
X142990521Y-101100249D01*
X143123144Y-101176819D01*
X143228971Y-101237919D01*
X143228976Y-101237921D01*
X143228979Y-101237923D01*
X143483368Y-101343295D01*
X143749334Y-101414560D01*
X144022326Y-101450500D01*
X144022333Y-101450500D01*
X144297667Y-101450500D01*
X144297674Y-101450500D01*
X144570666Y-101414560D01*
X144836632Y-101343295D01*
X145091021Y-101237923D01*
X145329479Y-101100249D01*
X145547928Y-100932628D01*
X145742628Y-100737928D01*
X145910249Y-100519479D01*
X146047923Y-100281021D01*
X146153295Y-100026632D01*
X146224560Y-99760666D01*
X146260500Y-99487674D01*
X146260500Y-99212326D01*
X146224560Y-98939334D01*
X146153295Y-98673368D01*
X146047923Y-98418979D01*
X146047921Y-98418976D01*
X146047919Y-98418971D01*
X145973542Y-98290148D01*
X145910249Y-98180521D01*
X145742628Y-97962072D01*
X145742623Y-97962066D01*
X145547933Y-97767376D01*
X145547926Y-97767370D01*
X145329483Y-97599754D01*
X145329482Y-97599753D01*
X145329479Y-97599751D01*
X145234407Y-97544861D01*
X145091028Y-97462080D01*
X145091017Y-97462075D01*
X144836630Y-97356704D01*
X144703649Y-97321072D01*
X144570666Y-97285440D01*
X144570660Y-97285439D01*
X144570655Y-97285438D01*
X144297684Y-97249501D01*
X144297679Y-97249500D01*
X144297674Y-97249500D01*
X144022326Y-97249500D01*
X144022320Y-97249500D01*
X144022315Y-97249501D01*
X143749344Y-97285438D01*
X143749337Y-97285439D01*
X143749334Y-97285440D01*
X143693125Y-97300500D01*
X143483369Y-97356704D01*
X143228982Y-97462075D01*
X143228971Y-97462080D01*
X142990516Y-97599754D01*
X142772073Y-97767370D01*
X142772066Y-97767376D01*
X142577376Y-97962066D01*
X142577370Y-97962073D01*
X142409754Y-98180516D01*
X142272080Y-98418971D01*
X142272075Y-98418982D01*
X142166704Y-98673369D01*
X142095441Y-98939331D01*
X142095438Y-98939344D01*
X142059501Y-99212315D01*
X142059500Y-99212332D01*
X141735016Y-99212332D01*
X141721537Y-99127232D01*
X141705286Y-99024625D01*
X141637701Y-98816617D01*
X141637701Y-98816616D01*
X141603315Y-98749132D01*
X141538407Y-98621743D01*
X141519681Y-98595969D01*
X141409857Y-98444806D01*
X141255193Y-98290142D01*
X141078260Y-98161595D01*
X141078259Y-98161594D01*
X141078257Y-98161593D01*
X141015825Y-98129782D01*
X140883383Y-98062298D01*
X140883380Y-98062297D01*
X140675376Y-97994714D01*
X140459361Y-97960500D01*
X140459356Y-97960500D01*
X140240644Y-97960500D01*
X140240639Y-97960500D01*
X140024623Y-97994714D01*
X139816619Y-98062297D01*
X139816616Y-98062298D01*
X139621739Y-98161595D01*
X139444806Y-98290142D01*
X139290142Y-98444806D01*
X139180318Y-98595969D01*
X139124989Y-98638635D01*
X139055375Y-98644614D01*
X138993580Y-98612009D01*
X138979682Y-98595969D01*
X138869857Y-98444806D01*
X138715193Y-98290142D01*
X138538260Y-98161595D01*
X138538259Y-98161594D01*
X138538257Y-98161593D01*
X138475825Y-98129782D01*
X138343383Y-98062298D01*
X138343380Y-98062297D01*
X138135376Y-97994714D01*
X137919361Y-97960500D01*
X137919356Y-97960500D01*
X137700644Y-97960500D01*
X137700639Y-97960500D01*
X137484623Y-97994714D01*
X137276619Y-98062297D01*
X137276616Y-98062298D01*
X137081739Y-98161595D01*
X136904806Y-98290142D01*
X136750142Y-98444806D01*
X136640318Y-98595969D01*
X136584989Y-98638635D01*
X136515375Y-98644614D01*
X136453580Y-98612009D01*
X136439682Y-98595969D01*
X136329857Y-98444806D01*
X136175193Y-98290142D01*
X135998260Y-98161595D01*
X135998259Y-98161594D01*
X135998257Y-98161593D01*
X135935825Y-98129782D01*
X135803383Y-98062298D01*
X135803380Y-98062297D01*
X135595376Y-97994714D01*
X135379361Y-97960500D01*
X135379356Y-97960500D01*
X135160644Y-97960500D01*
X135160639Y-97960500D01*
X134944623Y-97994714D01*
X134736619Y-98062297D01*
X134736616Y-98062298D01*
X134541739Y-98161595D01*
X134364806Y-98290142D01*
X134210142Y-98444806D01*
X134081595Y-98621739D01*
X133982298Y-98816616D01*
X133982297Y-98816619D01*
X133914714Y-99024623D01*
X133880500Y-99240638D01*
X133880500Y-99459361D01*
X133914714Y-99675378D01*
X133947792Y-99777183D01*
X133949787Y-99847024D01*
X133913706Y-99906856D01*
X133851005Y-99937684D01*
X133829861Y-99939500D01*
X131630139Y-99939500D01*
X131563100Y-99919815D01*
X131517345Y-99867011D01*
X131507401Y-99797853D01*
X131512208Y-99777183D01*
X131545285Y-99675378D01*
X131545284Y-99675378D01*
X131545286Y-99675375D01*
X131558922Y-99589276D01*
X131579500Y-99459361D01*
X131579500Y-99240638D01*
X131559595Y-99114971D01*
X131545286Y-99024625D01*
X131477701Y-98816617D01*
X131477701Y-98816616D01*
X131443315Y-98749132D01*
X131378407Y-98621743D01*
X131359681Y-98595969D01*
X131249857Y-98444806D01*
X131095193Y-98290142D01*
X130918260Y-98161595D01*
X130918259Y-98161594D01*
X130918257Y-98161593D01*
X130855825Y-98129782D01*
X130723383Y-98062298D01*
X130723380Y-98062297D01*
X130515376Y-97994714D01*
X130299361Y-97960500D01*
X130299356Y-97960500D01*
X130080644Y-97960500D01*
X130080639Y-97960500D01*
X129864623Y-97994714D01*
X129656619Y-98062297D01*
X129656616Y-98062298D01*
X129461739Y-98161595D01*
X129284806Y-98290142D01*
X129130142Y-98444806D01*
X129020318Y-98595969D01*
X128964989Y-98638635D01*
X128895375Y-98644614D01*
X128833580Y-98612009D01*
X128819682Y-98595969D01*
X128709857Y-98444806D01*
X128555193Y-98290142D01*
X128378260Y-98161595D01*
X128378259Y-98161594D01*
X128378257Y-98161593D01*
X128315825Y-98129782D01*
X128183383Y-98062298D01*
X128183380Y-98062297D01*
X127975376Y-97994714D01*
X127759361Y-97960500D01*
X127759356Y-97960500D01*
X127540644Y-97960500D01*
X127540639Y-97960500D01*
X127324623Y-97994714D01*
X127116619Y-98062297D01*
X127116616Y-98062298D01*
X126921739Y-98161595D01*
X126744806Y-98290142D01*
X126590142Y-98444806D01*
X126461595Y-98621739D01*
X126362298Y-98816616D01*
X126362297Y-98816619D01*
X126294714Y-99024623D01*
X126260500Y-99240638D01*
X126260500Y-99459361D01*
X126294714Y-99675376D01*
X126362297Y-99883380D01*
X126362298Y-99883383D01*
X126461595Y-100078260D01*
X126590142Y-100255193D01*
X126744806Y-100409857D01*
X126895696Y-100519483D01*
X126921743Y-100538407D01*
X127024754Y-100590894D01*
X127116616Y-100637701D01*
X127116619Y-100637702D01*
X127188254Y-100660977D01*
X127324625Y-100705286D01*
X127424672Y-100721132D01*
X127540639Y-100739500D01*
X127540644Y-100739500D01*
X127759361Y-100739500D01*
X127864082Y-100722912D01*
X127975375Y-100705286D01*
X128183383Y-100637701D01*
X128378257Y-100538407D01*
X128477985Y-100465951D01*
X128555193Y-100409857D01*
X128555195Y-100409854D01*
X128555199Y-100409852D01*
X128709852Y-100255199D01*
X128819683Y-100104028D01*
X128875011Y-100061364D01*
X128944624Y-100055385D01*
X129006420Y-100087990D01*
X129020313Y-100104023D01*
X129130148Y-100255199D01*
X129284801Y-100409852D01*
X129362017Y-100465952D01*
X129404682Y-100521281D01*
X129410661Y-100590894D01*
X129378056Y-100652690D01*
X129376812Y-100653951D01*
X126214320Y-103816443D01*
X126152997Y-103849928D01*
X126083305Y-103844944D01*
X126070346Y-103839248D01*
X126052447Y-103830128D01*
X126052442Y-103830126D01*
X126007453Y-103815508D01*
X125887701Y-103776598D01*
X125887699Y-103776597D01*
X125887698Y-103776597D01*
X125756271Y-103755781D01*
X125716611Y-103749500D01*
X125543389Y-103749500D01*
X125503728Y-103755781D01*
X125372302Y-103776597D01*
X125207552Y-103830128D01*
X125053211Y-103908768D01*
X124974870Y-103965687D01*
X124913072Y-104010586D01*
X124913070Y-104010588D01*
X124913069Y-104010588D01*
X124790588Y-104133069D01*
X124790588Y-104133070D01*
X124790586Y-104133072D01*
X124790096Y-104133747D01*
X124688768Y-104273211D01*
X124610128Y-104427552D01*
X124556597Y-104592302D01*
X124544159Y-104670836D01*
X124529500Y-104763389D01*
X104816472Y-104763389D01*
X105730870Y-103848991D01*
X105792191Y-103815508D01*
X105861883Y-103820492D01*
X105906230Y-103848993D01*
X106022927Y-103965690D01*
X106175801Y-104076760D01*
X106255347Y-104117290D01*
X106344163Y-104162545D01*
X106344165Y-104162545D01*
X106344168Y-104162547D01*
X106420688Y-104187410D01*
X106523881Y-104220940D01*
X106710514Y-104250500D01*
X106710519Y-104250500D01*
X106899486Y-104250500D01*
X107086118Y-104220940D01*
X107265832Y-104162547D01*
X107434199Y-104076760D01*
X107587073Y-103965690D01*
X107720690Y-103832073D01*
X107831760Y-103679199D01*
X107917547Y-103510832D01*
X107957069Y-103389195D01*
X107996507Y-103331521D01*
X108060866Y-103304323D01*
X108129712Y-103316238D01*
X108181188Y-103363482D01*
X108192931Y-103389196D01*
X108232454Y-103510836D01*
X108308698Y-103660472D01*
X108318240Y-103679199D01*
X108429310Y-103832073D01*
X108562927Y-103965690D01*
X108715801Y-104076760D01*
X108795347Y-104117290D01*
X108884163Y-104162545D01*
X108884165Y-104162545D01*
X108884168Y-104162547D01*
X108960688Y-104187410D01*
X109063881Y-104220940D01*
X109250514Y-104250500D01*
X109250519Y-104250500D01*
X109439486Y-104250500D01*
X109626118Y-104220940D01*
X109805832Y-104162547D01*
X109974199Y-104076760D01*
X110127073Y-103965690D01*
X110260690Y-103832073D01*
X110371760Y-103679199D01*
X110457547Y-103510832D01*
X110497069Y-103389195D01*
X110536507Y-103331521D01*
X110600866Y-103304323D01*
X110669712Y-103316238D01*
X110721188Y-103363482D01*
X110732931Y-103389196D01*
X110772454Y-103510836D01*
X110848698Y-103660472D01*
X110858240Y-103679199D01*
X110969310Y-103832073D01*
X111102927Y-103965690D01*
X111255801Y-104076760D01*
X111335347Y-104117290D01*
X111424163Y-104162545D01*
X111424165Y-104162545D01*
X111424168Y-104162547D01*
X111500688Y-104187410D01*
X111603881Y-104220940D01*
X111790514Y-104250500D01*
X111790519Y-104250500D01*
X111979486Y-104250500D01*
X112166118Y-104220940D01*
X112345832Y-104162547D01*
X112514199Y-104076760D01*
X112667073Y-103965690D01*
X112800690Y-103832073D01*
X112911760Y-103679199D01*
X112997547Y-103510832D01*
X113037069Y-103389195D01*
X113076507Y-103331521D01*
X113140866Y-103304323D01*
X113209712Y-103316238D01*
X113261188Y-103363482D01*
X113272931Y-103389196D01*
X113312454Y-103510836D01*
X113388698Y-103660472D01*
X113398240Y-103679199D01*
X113509310Y-103832073D01*
X113642927Y-103965690D01*
X113795801Y-104076760D01*
X113875347Y-104117290D01*
X113964163Y-104162545D01*
X113964165Y-104162545D01*
X113964168Y-104162547D01*
X114040688Y-104187410D01*
X114143881Y-104220940D01*
X114330514Y-104250500D01*
X114330519Y-104250500D01*
X114519486Y-104250500D01*
X114706118Y-104220940D01*
X114885832Y-104162547D01*
X115054199Y-104076760D01*
X115207073Y-103965690D01*
X115340690Y-103832073D01*
X115451760Y-103679199D01*
X115537547Y-103510832D01*
X115537547Y-103510830D01*
X115539515Y-103506969D01*
X115587489Y-103456173D01*
X115655310Y-103439378D01*
X115721445Y-103461915D01*
X115760485Y-103506969D01*
X115762452Y-103510830D01*
X115762453Y-103510832D01*
X115848240Y-103679199D01*
X115959310Y-103832073D01*
X116092927Y-103965690D01*
X116245801Y-104076760D01*
X116325347Y-104117290D01*
X116414163Y-104162545D01*
X116414165Y-104162545D01*
X116414168Y-104162547D01*
X116490688Y-104187410D01*
X116593881Y-104220940D01*
X116780514Y-104250500D01*
X116780519Y-104250500D01*
X116969486Y-104250500D01*
X117156118Y-104220940D01*
X117335832Y-104162547D01*
X117504199Y-104076760D01*
X117657073Y-103965690D01*
X117790690Y-103832073D01*
X117901760Y-103679199D01*
X117987547Y-103510832D01*
X118045940Y-103331118D01*
X118050184Y-103304323D01*
X118075500Y-103144486D01*
X118075500Y-102355513D01*
X118045940Y-102168881D01*
X118010764Y-102060621D01*
X117987547Y-101989168D01*
X117987545Y-101989165D01*
X117987545Y-101989163D01*
X117901759Y-101820800D01*
X117790690Y-101667927D01*
X117657073Y-101534310D01*
X117504199Y-101423240D01*
X117335836Y-101337454D01*
X117156118Y-101279059D01*
X116969486Y-101249500D01*
X116969481Y-101249500D01*
X116780519Y-101249500D01*
X116780514Y-101249500D01*
X116593881Y-101279059D01*
X116414163Y-101337454D01*
X116245800Y-101423240D01*
X116158579Y-101486610D01*
X116092927Y-101534310D01*
X116092925Y-101534312D01*
X116092924Y-101534312D01*
X115959312Y-101667924D01*
X115959312Y-101667925D01*
X115959310Y-101667927D01*
X115921000Y-101720656D01*
X115848240Y-101820800D01*
X115760485Y-101993030D01*
X115712510Y-102043826D01*
X115644689Y-102060621D01*
X115578555Y-102038084D01*
X115539515Y-101993030D01*
X115451759Y-101820800D01*
X115340690Y-101667927D01*
X115207073Y-101534310D01*
X115054199Y-101423240D01*
X114885836Y-101337454D01*
X114706118Y-101279059D01*
X114519486Y-101249500D01*
X114519481Y-101249500D01*
X114330519Y-101249500D01*
X114330514Y-101249500D01*
X114143881Y-101279059D01*
X113964163Y-101337454D01*
X113795800Y-101423240D01*
X113708579Y-101486610D01*
X113642927Y-101534310D01*
X113642925Y-101534312D01*
X113642924Y-101534312D01*
X113509312Y-101667924D01*
X113509312Y-101667925D01*
X113509310Y-101667927D01*
X113471000Y-101720656D01*
X113398240Y-101820800D01*
X113312454Y-101989163D01*
X113272931Y-102110803D01*
X113233493Y-102168478D01*
X113169134Y-102195676D01*
X113100288Y-102183761D01*
X113048812Y-102136516D01*
X113037069Y-102110803D01*
X113020764Y-102060621D01*
X112997547Y-101989168D01*
X112997545Y-101989165D01*
X112997545Y-101989163D01*
X112911759Y-101820800D01*
X112800690Y-101667927D01*
X112667073Y-101534310D01*
X112514199Y-101423240D01*
X112345836Y-101337454D01*
X112166118Y-101279059D01*
X111979486Y-101249500D01*
X111979481Y-101249500D01*
X111790519Y-101249500D01*
X111790514Y-101249500D01*
X111603881Y-101279059D01*
X111424163Y-101337454D01*
X111255800Y-101423240D01*
X111168579Y-101486610D01*
X111102927Y-101534310D01*
X111102925Y-101534312D01*
X111102924Y-101534312D01*
X110969312Y-101667924D01*
X110969312Y-101667925D01*
X110969310Y-101667927D01*
X110931000Y-101720656D01*
X110858240Y-101820800D01*
X110772454Y-101989163D01*
X110732931Y-102110803D01*
X110693493Y-102168478D01*
X110629134Y-102195676D01*
X110560288Y-102183761D01*
X110508812Y-102136516D01*
X110497069Y-102110803D01*
X110480764Y-102060621D01*
X110457547Y-101989168D01*
X110457545Y-101989165D01*
X110457545Y-101989163D01*
X110371759Y-101820800D01*
X110260690Y-101667927D01*
X110127073Y-101534310D01*
X109974199Y-101423240D01*
X109805836Y-101337454D01*
X109626118Y-101279059D01*
X109439486Y-101249500D01*
X109439481Y-101249500D01*
X109250519Y-101249500D01*
X109250514Y-101249500D01*
X109063881Y-101279059D01*
X108884163Y-101337454D01*
X108715800Y-101423240D01*
X108628579Y-101486610D01*
X108562927Y-101534310D01*
X108562925Y-101534312D01*
X108562924Y-101534312D01*
X108429312Y-101667924D01*
X108429312Y-101667925D01*
X108429310Y-101667927D01*
X108391000Y-101720656D01*
X108318240Y-101820800D01*
X108232454Y-101989163D01*
X108192931Y-102110803D01*
X108153493Y-102168478D01*
X108089134Y-102195676D01*
X108020288Y-102183761D01*
X107968812Y-102136516D01*
X107957069Y-102110803D01*
X107940764Y-102060621D01*
X107917547Y-101989168D01*
X107917545Y-101989165D01*
X107917545Y-101989163D01*
X107831759Y-101820800D01*
X107720690Y-101667927D01*
X107587073Y-101534310D01*
X107453867Y-101437529D01*
X107411203Y-101382201D01*
X107405224Y-101312587D01*
X107437830Y-101250792D01*
X107438999Y-101249606D01*
X109476273Y-99212332D01*
X121739500Y-99212332D01*
X121739500Y-99487667D01*
X121739501Y-99487684D01*
X121775438Y-99760655D01*
X121775439Y-99760660D01*
X121775440Y-99760666D01*
X121803935Y-99867011D01*
X121846704Y-100026630D01*
X121952075Y-100281017D01*
X121952080Y-100281028D01*
X122026457Y-100409851D01*
X122089751Y-100519479D01*
X122089753Y-100519482D01*
X122089754Y-100519483D01*
X122257370Y-100737926D01*
X122257376Y-100737933D01*
X122452066Y-100932623D01*
X122452072Y-100932628D01*
X122670521Y-101100249D01*
X122803144Y-101176819D01*
X122908971Y-101237919D01*
X122908976Y-101237921D01*
X122908979Y-101237923D01*
X123163368Y-101343295D01*
X123429334Y-101414560D01*
X123702326Y-101450500D01*
X123702333Y-101450500D01*
X123977667Y-101450500D01*
X123977674Y-101450500D01*
X124250666Y-101414560D01*
X124516632Y-101343295D01*
X124771021Y-101237923D01*
X125009479Y-101100249D01*
X125227928Y-100932628D01*
X125422628Y-100737928D01*
X125590249Y-100519479D01*
X125727923Y-100281021D01*
X125833295Y-100026632D01*
X125904560Y-99760666D01*
X125940500Y-99487674D01*
X125940500Y-99212326D01*
X125904560Y-98939334D01*
X125833295Y-98673368D01*
X125727923Y-98418979D01*
X125727921Y-98418976D01*
X125727919Y-98418971D01*
X125653542Y-98290148D01*
X125590249Y-98180521D01*
X125422628Y-97962072D01*
X125422623Y-97962066D01*
X125227933Y-97767376D01*
X125227926Y-97767370D01*
X125009483Y-97599754D01*
X125009482Y-97599753D01*
X125009479Y-97599751D01*
X124914407Y-97544861D01*
X124771028Y-97462080D01*
X124771017Y-97462075D01*
X124516630Y-97356704D01*
X124383649Y-97321072D01*
X124250666Y-97285440D01*
X124250660Y-97285439D01*
X124250655Y-97285438D01*
X123977684Y-97249501D01*
X123977679Y-97249500D01*
X123977674Y-97249500D01*
X123702326Y-97249500D01*
X123702320Y-97249500D01*
X123702315Y-97249501D01*
X123429344Y-97285438D01*
X123429337Y-97285439D01*
X123429334Y-97285440D01*
X123373125Y-97300500D01*
X123163369Y-97356704D01*
X122908982Y-97462075D01*
X122908971Y-97462080D01*
X122670516Y-97599754D01*
X122452073Y-97767370D01*
X122452066Y-97767376D01*
X122257376Y-97962066D01*
X122257370Y-97962073D01*
X122089754Y-98180516D01*
X121952080Y-98418971D01*
X121952075Y-98418982D01*
X121846704Y-98673369D01*
X121775441Y-98939331D01*
X121775438Y-98939344D01*
X121739501Y-99212315D01*
X121739500Y-99212332D01*
X109476273Y-99212332D01*
X112253713Y-96434893D01*
X112253716Y-96434892D01*
X112365520Y-96323088D01*
X112415639Y-96236276D01*
X112444577Y-96186157D01*
X112485500Y-96033430D01*
X112485500Y-95875315D01*
X112485500Y-86512332D01*
X121739500Y-86512332D01*
X121739500Y-86787667D01*
X121739501Y-86787684D01*
X121775438Y-87060655D01*
X121775439Y-87060660D01*
X121775440Y-87060666D01*
X121809076Y-87186199D01*
X121846704Y-87326630D01*
X121952075Y-87581017D01*
X121952080Y-87581028D01*
X122012802Y-87686200D01*
X122089751Y-87819479D01*
X122089753Y-87819482D01*
X122089754Y-87819483D01*
X122257370Y-88037926D01*
X122257376Y-88037933D01*
X122452066Y-88232623D01*
X122452072Y-88232628D01*
X122670521Y-88400249D01*
X122823778Y-88488732D01*
X122908971Y-88537919D01*
X122908976Y-88537921D01*
X122908979Y-88537923D01*
X123163368Y-88643295D01*
X123429334Y-88714560D01*
X123702326Y-88750500D01*
X123702333Y-88750500D01*
X123977667Y-88750500D01*
X123977674Y-88750500D01*
X124250666Y-88714560D01*
X124516632Y-88643295D01*
X124771021Y-88537923D01*
X125009479Y-88400249D01*
X125227928Y-88232628D01*
X125422628Y-88037928D01*
X125590249Y-87819479D01*
X125727923Y-87581021D01*
X125833295Y-87326632D01*
X125904560Y-87060666D01*
X125940500Y-86787674D01*
X125940500Y-86540638D01*
X126260500Y-86540638D01*
X126260500Y-86759361D01*
X126294714Y-86975376D01*
X126362297Y-87183380D01*
X126362298Y-87183383D01*
X126461595Y-87378260D01*
X126590142Y-87555193D01*
X126744806Y-87709857D01*
X126895696Y-87819483D01*
X126921743Y-87838407D01*
X127049132Y-87903315D01*
X127116616Y-87937701D01*
X127116619Y-87937702D01*
X127177479Y-87957476D01*
X127324625Y-88005286D01*
X127424672Y-88021132D01*
X127540639Y-88039500D01*
X127540644Y-88039500D01*
X127759361Y-88039500D01*
X127864082Y-88022912D01*
X127975375Y-88005286D01*
X128183383Y-87937701D01*
X128378257Y-87838407D01*
X128477601Y-87766229D01*
X128555193Y-87709857D01*
X128555195Y-87709854D01*
X128555199Y-87709852D01*
X128709852Y-87555199D01*
X128819683Y-87404028D01*
X128875011Y-87361364D01*
X128944624Y-87355385D01*
X129006420Y-87387990D01*
X129020313Y-87404023D01*
X129112527Y-87530945D01*
X129130148Y-87555199D01*
X129284806Y-87709857D01*
X129435696Y-87819483D01*
X129461743Y-87838407D01*
X129589132Y-87903315D01*
X129656616Y-87937701D01*
X129656619Y-87937702D01*
X129717479Y-87957476D01*
X129864625Y-88005286D01*
X129964672Y-88021132D01*
X130080639Y-88039500D01*
X130080644Y-88039500D01*
X130299361Y-88039500D01*
X130404082Y-88022912D01*
X130515375Y-88005286D01*
X130723383Y-87937701D01*
X130918257Y-87838407D01*
X131017601Y-87766229D01*
X131095193Y-87709857D01*
X131095195Y-87709854D01*
X131095199Y-87709852D01*
X131249852Y-87555199D01*
X131359683Y-87404028D01*
X131415011Y-87361364D01*
X131484624Y-87355385D01*
X131546420Y-87387990D01*
X131560313Y-87404023D01*
X131652527Y-87530945D01*
X131670148Y-87555199D01*
X131824806Y-87709857D01*
X131975696Y-87819483D01*
X132001743Y-87838407D01*
X132129132Y-87903315D01*
X132196616Y-87937701D01*
X132196619Y-87937702D01*
X132257479Y-87957476D01*
X132404625Y-88005286D01*
X132504672Y-88021132D01*
X132620639Y-88039500D01*
X132620644Y-88039500D01*
X132839361Y-88039500D01*
X132944082Y-88022912D01*
X133055375Y-88005286D01*
X133263383Y-87937701D01*
X133458257Y-87838407D01*
X133557601Y-87766229D01*
X133635193Y-87709857D01*
X133635195Y-87709854D01*
X133635199Y-87709852D01*
X133789852Y-87555199D01*
X133899683Y-87404028D01*
X133955011Y-87361364D01*
X134024624Y-87355385D01*
X134086420Y-87387990D01*
X134100313Y-87404023D01*
X134192527Y-87530945D01*
X134210148Y-87555199D01*
X134364806Y-87709857D01*
X134515696Y-87819483D01*
X134541743Y-87838407D01*
X134669132Y-87903315D01*
X134736616Y-87937701D01*
X134736619Y-87937702D01*
X134797479Y-87957476D01*
X134944625Y-88005286D01*
X135044672Y-88021132D01*
X135160639Y-88039500D01*
X135160644Y-88039500D01*
X135379361Y-88039500D01*
X135484082Y-88022912D01*
X135595375Y-88005286D01*
X135803383Y-87937701D01*
X135998257Y-87838407D01*
X136097601Y-87766229D01*
X136175193Y-87709857D01*
X136175195Y-87709854D01*
X136175199Y-87709852D01*
X136329852Y-87555199D01*
X136439683Y-87404028D01*
X136495011Y-87361364D01*
X136564624Y-87355385D01*
X136626420Y-87387990D01*
X136640313Y-87404023D01*
X136732527Y-87530945D01*
X136750148Y-87555199D01*
X136904806Y-87709857D01*
X137055696Y-87819483D01*
X137081743Y-87838407D01*
X137209132Y-87903315D01*
X137276616Y-87937701D01*
X137276619Y-87937702D01*
X137337479Y-87957476D01*
X137484625Y-88005286D01*
X137584672Y-88021132D01*
X137700639Y-88039500D01*
X137700644Y-88039500D01*
X137919361Y-88039500D01*
X138024082Y-88022912D01*
X138135375Y-88005286D01*
X138343383Y-87937701D01*
X138538257Y-87838407D01*
X138637601Y-87766229D01*
X138715193Y-87709857D01*
X138715195Y-87709854D01*
X138715199Y-87709852D01*
X138869852Y-87555199D01*
X138979683Y-87404028D01*
X139035011Y-87361364D01*
X139104624Y-87355385D01*
X139166420Y-87387990D01*
X139180313Y-87404023D01*
X139272527Y-87530945D01*
X139290148Y-87555199D01*
X139444806Y-87709857D01*
X139595696Y-87819483D01*
X139621743Y-87838407D01*
X139749132Y-87903315D01*
X139816616Y-87937701D01*
X139816619Y-87937702D01*
X139877479Y-87957476D01*
X140024625Y-88005286D01*
X140124672Y-88021132D01*
X140240639Y-88039500D01*
X140240644Y-88039500D01*
X140459361Y-88039500D01*
X140564082Y-88022912D01*
X140675375Y-88005286D01*
X140883383Y-87937701D01*
X141078257Y-87838407D01*
X141177601Y-87766229D01*
X141255193Y-87709857D01*
X141255195Y-87709854D01*
X141255199Y-87709852D01*
X141409852Y-87555199D01*
X141409854Y-87555195D01*
X141409857Y-87555193D01*
X141480851Y-87457476D01*
X141538407Y-87378257D01*
X141637701Y-87183383D01*
X141705286Y-86975375D01*
X141734247Y-86792523D01*
X141739500Y-86759361D01*
X141739500Y-86540639D01*
X141737445Y-86527666D01*
X141737445Y-86527665D01*
X141735016Y-86512332D01*
X142059500Y-86512332D01*
X142059500Y-86787667D01*
X142059501Y-86787684D01*
X142095438Y-87060655D01*
X142095439Y-87060660D01*
X142095440Y-87060666D01*
X142129076Y-87186199D01*
X142166704Y-87326630D01*
X142272075Y-87581017D01*
X142272080Y-87581028D01*
X142332802Y-87686200D01*
X142409751Y-87819479D01*
X142409753Y-87819482D01*
X142409754Y-87819483D01*
X142577370Y-88037926D01*
X142577376Y-88037933D01*
X142772066Y-88232623D01*
X142772072Y-88232628D01*
X142990521Y-88400249D01*
X143143778Y-88488732D01*
X143228971Y-88537919D01*
X143228976Y-88537921D01*
X143228979Y-88537923D01*
X143483368Y-88643295D01*
X143749334Y-88714560D01*
X144022326Y-88750500D01*
X144022333Y-88750500D01*
X144297667Y-88750500D01*
X144297674Y-88750500D01*
X144570666Y-88714560D01*
X144836632Y-88643295D01*
X145091021Y-88537923D01*
X145329479Y-88400249D01*
X145547928Y-88232628D01*
X145742628Y-88037928D01*
X145910249Y-87819479D01*
X146047923Y-87581021D01*
X146153295Y-87326632D01*
X146224560Y-87060666D01*
X146260500Y-86787674D01*
X146260500Y-86512326D01*
X146224560Y-86239334D01*
X146153295Y-85973368D01*
X146047923Y-85718979D01*
X146047921Y-85718976D01*
X146047919Y-85718971D01*
X145973542Y-85590148D01*
X145910249Y-85480521D01*
X145742628Y-85262072D01*
X145742623Y-85262066D01*
X145547933Y-85067376D01*
X145547926Y-85067370D01*
X145329483Y-84899754D01*
X145329482Y-84899753D01*
X145329479Y-84899751D01*
X145234407Y-84844861D01*
X145091028Y-84762080D01*
X145091017Y-84762075D01*
X144836630Y-84656704D01*
X144703649Y-84621072D01*
X144570666Y-84585440D01*
X144570660Y-84585439D01*
X144570655Y-84585438D01*
X144297684Y-84549501D01*
X144297679Y-84549500D01*
X144297674Y-84549500D01*
X144022326Y-84549500D01*
X144022320Y-84549500D01*
X144022315Y-84549501D01*
X143749344Y-84585438D01*
X143749337Y-84585439D01*
X143749334Y-84585440D01*
X143693125Y-84600500D01*
X143483369Y-84656704D01*
X143228982Y-84762075D01*
X143228971Y-84762080D01*
X142990516Y-84899754D01*
X142772073Y-85067370D01*
X142772066Y-85067376D01*
X142577376Y-85262066D01*
X142577370Y-85262073D01*
X142409754Y-85480516D01*
X142272080Y-85718971D01*
X142272075Y-85718982D01*
X142166704Y-85973369D01*
X142137630Y-86081877D01*
X142106182Y-86199246D01*
X142095441Y-86239331D01*
X142095438Y-86239344D01*
X142059501Y-86512315D01*
X142059500Y-86512332D01*
X141735016Y-86512332D01*
X141720206Y-86418824D01*
X141705286Y-86324625D01*
X141664549Y-86199248D01*
X141637702Y-86116619D01*
X141637701Y-86116616D01*
X141603315Y-86049132D01*
X141538407Y-85921743D01*
X141519681Y-85895969D01*
X141409857Y-85744806D01*
X141255193Y-85590142D01*
X141078260Y-85461595D01*
X141078259Y-85461594D01*
X141078257Y-85461593D01*
X141015825Y-85429782D01*
X140883383Y-85362298D01*
X140883380Y-85362297D01*
X140675376Y-85294714D01*
X140459361Y-85260500D01*
X140459356Y-85260500D01*
X140240644Y-85260500D01*
X140240639Y-85260500D01*
X140024623Y-85294714D01*
X139816619Y-85362297D01*
X139816616Y-85362298D01*
X139621739Y-85461595D01*
X139444806Y-85590142D01*
X139290142Y-85744806D01*
X139180318Y-85895969D01*
X139124989Y-85938635D01*
X139055375Y-85944614D01*
X138993580Y-85912009D01*
X138979682Y-85895969D01*
X138869857Y-85744806D01*
X138715193Y-85590142D01*
X138538260Y-85461595D01*
X138538259Y-85461594D01*
X138538257Y-85461593D01*
X138475825Y-85429782D01*
X138343383Y-85362298D01*
X138343380Y-85362297D01*
X138135376Y-85294714D01*
X137919361Y-85260500D01*
X137919356Y-85260500D01*
X137700644Y-85260500D01*
X137700639Y-85260500D01*
X137484623Y-85294714D01*
X137276619Y-85362297D01*
X137276616Y-85362298D01*
X137081739Y-85461595D01*
X136904806Y-85590142D01*
X136750142Y-85744806D01*
X136640318Y-85895969D01*
X136584989Y-85938635D01*
X136515375Y-85944614D01*
X136453580Y-85912009D01*
X136439682Y-85895969D01*
X136329857Y-85744806D01*
X136175193Y-85590142D01*
X135998260Y-85461595D01*
X135998259Y-85461594D01*
X135998257Y-85461593D01*
X135935825Y-85429782D01*
X135803383Y-85362298D01*
X135803380Y-85362297D01*
X135595376Y-85294714D01*
X135379361Y-85260500D01*
X135379356Y-85260500D01*
X135160644Y-85260500D01*
X135160639Y-85260500D01*
X134944623Y-85294714D01*
X134736619Y-85362297D01*
X134736616Y-85362298D01*
X134541739Y-85461595D01*
X134364806Y-85590142D01*
X134210142Y-85744806D01*
X134100318Y-85895969D01*
X134044989Y-85938635D01*
X133975375Y-85944614D01*
X133913580Y-85912009D01*
X133899682Y-85895969D01*
X133789857Y-85744806D01*
X133635193Y-85590142D01*
X133458260Y-85461595D01*
X133458259Y-85461594D01*
X133458257Y-85461593D01*
X133395825Y-85429782D01*
X133263383Y-85362298D01*
X133263380Y-85362297D01*
X133055376Y-85294714D01*
X132839361Y-85260500D01*
X132839356Y-85260500D01*
X132620644Y-85260500D01*
X132620639Y-85260500D01*
X132404623Y-85294714D01*
X132196619Y-85362297D01*
X132196616Y-85362298D01*
X132001739Y-85461595D01*
X131824806Y-85590142D01*
X131670142Y-85744806D01*
X131560318Y-85895969D01*
X131504989Y-85938635D01*
X131435375Y-85944614D01*
X131373580Y-85912009D01*
X131359682Y-85895969D01*
X131249857Y-85744806D01*
X131095193Y-85590142D01*
X130918260Y-85461595D01*
X130918259Y-85461594D01*
X130918257Y-85461593D01*
X130855825Y-85429782D01*
X130723383Y-85362298D01*
X130723380Y-85362297D01*
X130515376Y-85294714D01*
X130299361Y-85260500D01*
X130299356Y-85260500D01*
X130080644Y-85260500D01*
X130080639Y-85260500D01*
X129864623Y-85294714D01*
X129656619Y-85362297D01*
X129656616Y-85362298D01*
X129461739Y-85461595D01*
X129284806Y-85590142D01*
X129130142Y-85744806D01*
X129020318Y-85895969D01*
X128964989Y-85938635D01*
X128895375Y-85944614D01*
X128833580Y-85912009D01*
X128819682Y-85895969D01*
X128709857Y-85744806D01*
X128555193Y-85590142D01*
X128378260Y-85461595D01*
X128378259Y-85461594D01*
X128378257Y-85461593D01*
X128315825Y-85429782D01*
X128183383Y-85362298D01*
X128183380Y-85362297D01*
X127975376Y-85294714D01*
X127759361Y-85260500D01*
X127759356Y-85260500D01*
X127540644Y-85260500D01*
X127540639Y-85260500D01*
X127324623Y-85294714D01*
X127116619Y-85362297D01*
X127116616Y-85362298D01*
X126921739Y-85461595D01*
X126744806Y-85590142D01*
X126590142Y-85744806D01*
X126461595Y-85921739D01*
X126362298Y-86116616D01*
X126362297Y-86116619D01*
X126294714Y-86324623D01*
X126260500Y-86540638D01*
X125940500Y-86540638D01*
X125940500Y-86512326D01*
X125904560Y-86239334D01*
X125833295Y-85973368D01*
X125727923Y-85718979D01*
X125727921Y-85718976D01*
X125727919Y-85718971D01*
X125653542Y-85590148D01*
X125590249Y-85480521D01*
X125422628Y-85262072D01*
X125422623Y-85262066D01*
X125227933Y-85067376D01*
X125227926Y-85067370D01*
X125009483Y-84899754D01*
X125009482Y-84899753D01*
X125009479Y-84899751D01*
X124914407Y-84844861D01*
X124771028Y-84762080D01*
X124771017Y-84762075D01*
X124516630Y-84656704D01*
X124383649Y-84621072D01*
X124250666Y-84585440D01*
X124250660Y-84585439D01*
X124250655Y-84585438D01*
X123977684Y-84549501D01*
X123977679Y-84549500D01*
X123977674Y-84549500D01*
X123702326Y-84549500D01*
X123702320Y-84549500D01*
X123702315Y-84549501D01*
X123429344Y-84585438D01*
X123429337Y-84585439D01*
X123429334Y-84585440D01*
X123373125Y-84600500D01*
X123163369Y-84656704D01*
X122908982Y-84762075D01*
X122908971Y-84762080D01*
X122670516Y-84899754D01*
X122452073Y-85067370D01*
X122452066Y-85067376D01*
X122257376Y-85262066D01*
X122257370Y-85262073D01*
X122089754Y-85480516D01*
X121952080Y-85718971D01*
X121952075Y-85718982D01*
X121846704Y-85973369D01*
X121817630Y-86081877D01*
X121786182Y-86199246D01*
X121775441Y-86239331D01*
X121775438Y-86239344D01*
X121739501Y-86512315D01*
X121739500Y-86512332D01*
X112485500Y-86512332D01*
X112485500Y-84160791D01*
X112505185Y-84093752D01*
X112536612Y-84060475D01*
X112667073Y-83965690D01*
X112800690Y-83832073D01*
X112911760Y-83679199D01*
X112997547Y-83510832D01*
X113037069Y-83389195D01*
X113076507Y-83331521D01*
X113140866Y-83304323D01*
X113209712Y-83316238D01*
X113261188Y-83363482D01*
X113272931Y-83389196D01*
X113312454Y-83510836D01*
X113398240Y-83679199D01*
X113509310Y-83832073D01*
X113642927Y-83965690D01*
X113795801Y-84076760D01*
X113829150Y-84093752D01*
X113964163Y-84162545D01*
X113964165Y-84162545D01*
X113964168Y-84162547D01*
X114060497Y-84193846D01*
X114143881Y-84220940D01*
X114330514Y-84250500D01*
X114330519Y-84250500D01*
X114519486Y-84250500D01*
X114706118Y-84220940D01*
X114760500Y-84203270D01*
X114885832Y-84162547D01*
X115054199Y-84076760D01*
X115207073Y-83965690D01*
X115340690Y-83832073D01*
X115451760Y-83679199D01*
X115537547Y-83510832D01*
X115537547Y-83510830D01*
X115539515Y-83506969D01*
X115587489Y-83456173D01*
X115655310Y-83439378D01*
X115721445Y-83461915D01*
X115760485Y-83506969D01*
X115762452Y-83510830D01*
X115762453Y-83510832D01*
X115848240Y-83679199D01*
X115959310Y-83832073D01*
X116092927Y-83965690D01*
X116245801Y-84076760D01*
X116279150Y-84093752D01*
X116414163Y-84162545D01*
X116414165Y-84162545D01*
X116414168Y-84162547D01*
X116510497Y-84193846D01*
X116593881Y-84220940D01*
X116780514Y-84250500D01*
X116780519Y-84250500D01*
X116969486Y-84250500D01*
X117156118Y-84220940D01*
X117210500Y-84203270D01*
X117335832Y-84162547D01*
X117504199Y-84076760D01*
X117657073Y-83965690D01*
X117790690Y-83832073D01*
X117901760Y-83679199D01*
X117987547Y-83510832D01*
X118045940Y-83331118D01*
X118050749Y-83300753D01*
X118075500Y-83144486D01*
X118075500Y-82355513D01*
X118045940Y-82168881D01*
X118010764Y-82060621D01*
X117987547Y-81989168D01*
X117987545Y-81989165D01*
X117987545Y-81989163D01*
X117926573Y-81869500D01*
X117901760Y-81820801D01*
X117790690Y-81667927D01*
X117657073Y-81534310D01*
X117504199Y-81423240D01*
X117335836Y-81337454D01*
X117156118Y-81279059D01*
X116969486Y-81249500D01*
X116969481Y-81249500D01*
X116780519Y-81249500D01*
X116780514Y-81249500D01*
X116593881Y-81279059D01*
X116414163Y-81337454D01*
X116245800Y-81423240D01*
X116168633Y-81479306D01*
X116092927Y-81534310D01*
X116092925Y-81534312D01*
X116092924Y-81534312D01*
X115959312Y-81667924D01*
X115959312Y-81667925D01*
X115959310Y-81667927D01*
X115930571Y-81707483D01*
X115848240Y-81820800D01*
X115760485Y-81993030D01*
X115712510Y-82043826D01*
X115644689Y-82060621D01*
X115578555Y-82038084D01*
X115539515Y-81993030D01*
X115476573Y-81869500D01*
X115451760Y-81820801D01*
X115340690Y-81667927D01*
X115207073Y-81534310D01*
X115054199Y-81423240D01*
X114885836Y-81337454D01*
X114706118Y-81279059D01*
X114519486Y-81249500D01*
X114519481Y-81249500D01*
X114330519Y-81249500D01*
X114330514Y-81249500D01*
X114143881Y-81279059D01*
X113964163Y-81337454D01*
X113795800Y-81423240D01*
X113718633Y-81479306D01*
X113642927Y-81534310D01*
X113642925Y-81534312D01*
X113642924Y-81534312D01*
X113509312Y-81667924D01*
X113509312Y-81667925D01*
X113509310Y-81667927D01*
X113480571Y-81707483D01*
X113398240Y-81820800D01*
X113312454Y-81989163D01*
X113272931Y-82110803D01*
X113233493Y-82168478D01*
X113169134Y-82195676D01*
X113100288Y-82183761D01*
X113048812Y-82136516D01*
X113037069Y-82110803D01*
X113020764Y-82060621D01*
X112997547Y-81989168D01*
X112997545Y-81989165D01*
X112997545Y-81989163D01*
X112936573Y-81869500D01*
X112911760Y-81820801D01*
X112800690Y-81667927D01*
X112667073Y-81534310D01*
X112514199Y-81423240D01*
X112345836Y-81337454D01*
X112166118Y-81279059D01*
X111979486Y-81249500D01*
X111979481Y-81249500D01*
X111790519Y-81249500D01*
X111790514Y-81249500D01*
X111603881Y-81279059D01*
X111424163Y-81337454D01*
X111255800Y-81423240D01*
X111178633Y-81479306D01*
X111102927Y-81534310D01*
X111102925Y-81534312D01*
X111102924Y-81534312D01*
X110969312Y-81667924D01*
X110969312Y-81667925D01*
X110969310Y-81667927D01*
X110940571Y-81707483D01*
X110858240Y-81820800D01*
X110772454Y-81989163D01*
X110732931Y-82110803D01*
X110693493Y-82168478D01*
X110629134Y-82195676D01*
X110560288Y-82183761D01*
X110508812Y-82136516D01*
X110497069Y-82110803D01*
X110480764Y-82060621D01*
X110457547Y-81989168D01*
X110457545Y-81989165D01*
X110457545Y-81989163D01*
X110396573Y-81869500D01*
X110371760Y-81820801D01*
X110260690Y-81667927D01*
X110127073Y-81534310D01*
X109974199Y-81423240D01*
X109805836Y-81337454D01*
X109626118Y-81279059D01*
X109439486Y-81249500D01*
X109439481Y-81249500D01*
X109250519Y-81249500D01*
X109250514Y-81249500D01*
X109063881Y-81279059D01*
X108884163Y-81337454D01*
X108715800Y-81423240D01*
X108638633Y-81479306D01*
X108562927Y-81534310D01*
X108562925Y-81534312D01*
X108562924Y-81534312D01*
X108429312Y-81667924D01*
X108429312Y-81667925D01*
X108429310Y-81667927D01*
X108400571Y-81707483D01*
X108318240Y-81820800D01*
X108232454Y-81989163D01*
X108192931Y-82110803D01*
X108153493Y-82168478D01*
X108089134Y-82195676D01*
X108020288Y-82183761D01*
X107968812Y-82136516D01*
X107957069Y-82110803D01*
X107940764Y-82060621D01*
X107917547Y-81989168D01*
X107917545Y-81989165D01*
X107917545Y-81989163D01*
X107856573Y-81869500D01*
X107831760Y-81820801D01*
X107720690Y-81667927D01*
X107587073Y-81534310D01*
X107434199Y-81423240D01*
X107265836Y-81337454D01*
X107086118Y-81279059D01*
X106899486Y-81249500D01*
X106899481Y-81249500D01*
X106710519Y-81249500D01*
X106710514Y-81249500D01*
X106523881Y-81279059D01*
X106344163Y-81337454D01*
X106175800Y-81423240D01*
X106098633Y-81479306D01*
X106022927Y-81534310D01*
X106022925Y-81534312D01*
X106022924Y-81534312D01*
X105889312Y-81667924D01*
X105889312Y-81667925D01*
X105889310Y-81667927D01*
X105860571Y-81707483D01*
X105778240Y-81820800D01*
X105692454Y-81989163D01*
X105652931Y-82110803D01*
X105613493Y-82168478D01*
X105549134Y-82195676D01*
X105480288Y-82183761D01*
X105428812Y-82136516D01*
X105417069Y-82110803D01*
X105400764Y-82060621D01*
X105377547Y-81989168D01*
X105377545Y-81989165D01*
X105377545Y-81989163D01*
X105316573Y-81869500D01*
X105291760Y-81820801D01*
X105180690Y-81667927D01*
X105047073Y-81534310D01*
X104894199Y-81423240D01*
X104725836Y-81337454D01*
X104546118Y-81279059D01*
X104359486Y-81249500D01*
X104359481Y-81249500D01*
X104170519Y-81249500D01*
X104170514Y-81249500D01*
X103983881Y-81279059D01*
X103804163Y-81337454D01*
X103635800Y-81423240D01*
X103558633Y-81479306D01*
X103482927Y-81534310D01*
X103482925Y-81534312D01*
X103482924Y-81534312D01*
X103349312Y-81667924D01*
X103349312Y-81667925D01*
X103349310Y-81667927D01*
X103320571Y-81707483D01*
X103238240Y-81820800D01*
X103152454Y-81989163D01*
X103112931Y-82110803D01*
X103073493Y-82168478D01*
X103009134Y-82195676D01*
X102940288Y-82183761D01*
X102888812Y-82136516D01*
X102877069Y-82110803D01*
X102860764Y-82060621D01*
X102837547Y-81989168D01*
X102837545Y-81989165D01*
X102837545Y-81989163D01*
X102776573Y-81869500D01*
X102751760Y-81820801D01*
X102640690Y-81667927D01*
X102507073Y-81534310D01*
X102354199Y-81423240D01*
X102185836Y-81337454D01*
X102006118Y-81279059D01*
X101819486Y-81249500D01*
X101819481Y-81249500D01*
X101630519Y-81249500D01*
X101630514Y-81249500D01*
X101443881Y-81279059D01*
X101264163Y-81337454D01*
X101095800Y-81423240D01*
X101018633Y-81479306D01*
X100942927Y-81534310D01*
X100942925Y-81534312D01*
X100942924Y-81534312D01*
X100809312Y-81667924D01*
X100809312Y-81667925D01*
X100809310Y-81667927D01*
X100780571Y-81707483D01*
X100698240Y-81820800D01*
X100612454Y-81989163D01*
X100572931Y-82110803D01*
X100533493Y-82168478D01*
X100469134Y-82195676D01*
X100400288Y-82183761D01*
X100348812Y-82136516D01*
X100337069Y-82110803D01*
X100320764Y-82060621D01*
X100297547Y-81989168D01*
X100297545Y-81989165D01*
X100297545Y-81989163D01*
X100236573Y-81869500D01*
X100211760Y-81820801D01*
X100100690Y-81667927D01*
X99967073Y-81534310D01*
X99814199Y-81423240D01*
X99645836Y-81337454D01*
X99466118Y-81279059D01*
X99279486Y-81249500D01*
X99279481Y-81249500D01*
X99090519Y-81249500D01*
X99090514Y-81249500D01*
X98903881Y-81279059D01*
X98724163Y-81337454D01*
X98555800Y-81423240D01*
X98478633Y-81479306D01*
X98402927Y-81534310D01*
X98402925Y-81534312D01*
X98402924Y-81534312D01*
X98269312Y-81667924D01*
X98269312Y-81667925D01*
X98269310Y-81667927D01*
X98240571Y-81707483D01*
X98158240Y-81820800D01*
X98072454Y-81989163D01*
X98032931Y-82110803D01*
X97993493Y-82168478D01*
X97929134Y-82195676D01*
X97860288Y-82183761D01*
X97808812Y-82136516D01*
X97797069Y-82110803D01*
X97780764Y-82060621D01*
X97757547Y-81989168D01*
X97757545Y-81989165D01*
X97757545Y-81989163D01*
X97696573Y-81869500D01*
X97671760Y-81820801D01*
X97560690Y-81667927D01*
X97427073Y-81534310D01*
X97274199Y-81423240D01*
X97105836Y-81337454D01*
X96926118Y-81279059D01*
X96739486Y-81249500D01*
X96739481Y-81249500D01*
X96550519Y-81249500D01*
X96550514Y-81249500D01*
X96363881Y-81279059D01*
X96184163Y-81337454D01*
X96015800Y-81423240D01*
X95938633Y-81479306D01*
X95862927Y-81534310D01*
X95862925Y-81534312D01*
X95862924Y-81534312D01*
X95729312Y-81667924D01*
X95729312Y-81667925D01*
X95729310Y-81667927D01*
X95700571Y-81707483D01*
X95618240Y-81820800D01*
X95532454Y-81989163D01*
X95492931Y-82110803D01*
X95453493Y-82168478D01*
X95389134Y-82195676D01*
X95320288Y-82183761D01*
X95268812Y-82136516D01*
X95257069Y-82110803D01*
X95240764Y-82060621D01*
X95217547Y-81989168D01*
X95217545Y-81989165D01*
X95217545Y-81989163D01*
X95156573Y-81869500D01*
X95131760Y-81820801D01*
X95020690Y-81667927D01*
X94887073Y-81534310D01*
X94734199Y-81423240D01*
X94565836Y-81337454D01*
X94386118Y-81279059D01*
X94199486Y-81249500D01*
X94199481Y-81249500D01*
X94010519Y-81249500D01*
X94010514Y-81249500D01*
X93823881Y-81279059D01*
X93644163Y-81337454D01*
X93475800Y-81423240D01*
X93398633Y-81479306D01*
X93322927Y-81534310D01*
X93322925Y-81534312D01*
X93322924Y-81534312D01*
X93189312Y-81667924D01*
X93189312Y-81667925D01*
X93189310Y-81667927D01*
X93160571Y-81707483D01*
X93078240Y-81820800D01*
X92992454Y-81989163D01*
X92952931Y-82110803D01*
X92913493Y-82168478D01*
X92849134Y-82195676D01*
X92780288Y-82183761D01*
X92728812Y-82136516D01*
X92717069Y-82110803D01*
X92700764Y-82060621D01*
X92677547Y-81989168D01*
X92677545Y-81989165D01*
X92677545Y-81989163D01*
X92616573Y-81869500D01*
X92591760Y-81820801D01*
X92480690Y-81667927D01*
X92347073Y-81534310D01*
X92194199Y-81423240D01*
X92025836Y-81337454D01*
X91846118Y-81279059D01*
X91659486Y-81249500D01*
X91659481Y-81249500D01*
X91470519Y-81249500D01*
X91470514Y-81249500D01*
X91283881Y-81279059D01*
X91104163Y-81337454D01*
X90935800Y-81423240D01*
X90858633Y-81479306D01*
X90782927Y-81534310D01*
X90782925Y-81534312D01*
X90782924Y-81534312D01*
X90649312Y-81667924D01*
X90649312Y-81667925D01*
X90649310Y-81667927D01*
X90620571Y-81707483D01*
X90538240Y-81820800D01*
X90452454Y-81989163D01*
X90412931Y-82110803D01*
X90373493Y-82168478D01*
X90309134Y-82195676D01*
X90240288Y-82183761D01*
X90188812Y-82136516D01*
X90177069Y-82110803D01*
X90160764Y-82060621D01*
X90137547Y-81989168D01*
X90137545Y-81989165D01*
X90137545Y-81989163D01*
X90076573Y-81869500D01*
X90051760Y-81820801D01*
X89940690Y-81667927D01*
X89807073Y-81534310D01*
X89654199Y-81423240D01*
X89485836Y-81337454D01*
X89306118Y-81279059D01*
X89119486Y-81249500D01*
X89119481Y-81249500D01*
X88930519Y-81249500D01*
X88930514Y-81249500D01*
X88743881Y-81279059D01*
X88564163Y-81337454D01*
X88395800Y-81423240D01*
X88318633Y-81479306D01*
X88242927Y-81534310D01*
X88242925Y-81534312D01*
X88242924Y-81534312D01*
X88109312Y-81667924D01*
X88109312Y-81667925D01*
X88109310Y-81667927D01*
X88080571Y-81707483D01*
X87998240Y-81820800D01*
X87912454Y-81989163D01*
X87872931Y-82110803D01*
X87833493Y-82168478D01*
X87769134Y-82195676D01*
X87700288Y-82183761D01*
X87648812Y-82136516D01*
X87637069Y-82110803D01*
X87620764Y-82060621D01*
X87597547Y-81989168D01*
X87597545Y-81989165D01*
X87597545Y-81989163D01*
X87536573Y-81869500D01*
X87511760Y-81820801D01*
X87400690Y-81667927D01*
X87267073Y-81534310D01*
X87264017Y-81532089D01*
X87237003Y-81512462D01*
X87194337Y-81457132D01*
X87188359Y-81387518D01*
X87220966Y-81325724D01*
X87281805Y-81291367D01*
X87329284Y-81289672D01*
X87397648Y-81300500D01*
X87397650Y-81300500D01*
X87602351Y-81300500D01*
X87602352Y-81300500D01*
X87804534Y-81268477D01*
X87999219Y-81205220D01*
X88181610Y-81112287D01*
X88319438Y-81012150D01*
X88347213Y-80991971D01*
X88347215Y-80991968D01*
X88347219Y-80991966D01*
X88491966Y-80847219D01*
X88491968Y-80847215D01*
X88491971Y-80847213D01*
X88554590Y-80761024D01*
X88612287Y-80681610D01*
X88705220Y-80499219D01*
X88768477Y-80304534D01*
X88784696Y-80202135D01*
X120757000Y-80202135D01*
X120757000Y-82297870D01*
X120757001Y-82297876D01*
X120763408Y-82357483D01*
X120813702Y-82492328D01*
X120813706Y-82492335D01*
X120899952Y-82607544D01*
X120899955Y-82607547D01*
X121015164Y-82693793D01*
X121015171Y-82693797D01*
X121150017Y-82744091D01*
X121150016Y-82744091D01*
X121156944Y-82744835D01*
X121209627Y-82750500D01*
X123305372Y-82750499D01*
X123364983Y-82744091D01*
X123499831Y-82693796D01*
X123615046Y-82607546D01*
X123701296Y-82492331D01*
X123751591Y-82357483D01*
X123758000Y-82297873D01*
X123757999Y-80661893D01*
X126418000Y-80661893D01*
X126418000Y-80838106D01*
X126445566Y-81012151D01*
X126500016Y-81179736D01*
X126500017Y-81179739D01*
X126556895Y-81291367D01*
X126580017Y-81336746D01*
X126683593Y-81479305D01*
X126808195Y-81603907D01*
X126950754Y-81707483D01*
X127027761Y-81746719D01*
X127107760Y-81787482D01*
X127107763Y-81787483D01*
X127191555Y-81814708D01*
X127275350Y-81841934D01*
X127449393Y-81869500D01*
X127449394Y-81869500D01*
X127625606Y-81869500D01*
X127625607Y-81869500D01*
X127799650Y-81841934D01*
X127967239Y-81787482D01*
X128124246Y-81707483D01*
X128266805Y-81603907D01*
X128391407Y-81479305D01*
X128494983Y-81336746D01*
X128574982Y-81179739D01*
X128629434Y-81012150D01*
X128657000Y-80838107D01*
X128657000Y-80661893D01*
X139118000Y-80661893D01*
X139118000Y-80838106D01*
X139145566Y-81012151D01*
X139200016Y-81179736D01*
X139200017Y-81179739D01*
X139256895Y-81291367D01*
X139280017Y-81336746D01*
X139383593Y-81479305D01*
X139508195Y-81603907D01*
X139650754Y-81707483D01*
X139727761Y-81746719D01*
X139807760Y-81787482D01*
X139807763Y-81787483D01*
X139891555Y-81814708D01*
X139975350Y-81841934D01*
X140149393Y-81869500D01*
X140149394Y-81869500D01*
X140325606Y-81869500D01*
X140325607Y-81869500D01*
X140499650Y-81841934D01*
X140667239Y-81787482D01*
X140824246Y-81707483D01*
X140966805Y-81603907D01*
X141091407Y-81479305D01*
X141194983Y-81336746D01*
X141274982Y-81179739D01*
X141329434Y-81012150D01*
X141357000Y-80838107D01*
X141357000Y-80661893D01*
X141329434Y-80487850D01*
X141274982Y-80320261D01*
X141274982Y-80320260D01*
X141214790Y-80202127D01*
X141194983Y-80163254D01*
X141091407Y-80020695D01*
X140966805Y-79896093D01*
X140824246Y-79792517D01*
X140795064Y-79777648D01*
X140667239Y-79712517D01*
X140667236Y-79712516D01*
X140499651Y-79658066D01*
X140412628Y-79644283D01*
X140325607Y-79630500D01*
X140149393Y-79630500D01*
X140091378Y-79639688D01*
X139975348Y-79658066D01*
X139807763Y-79712516D01*
X139807760Y-79712517D01*
X139650753Y-79792517D01*
X139508193Y-79896094D01*
X139383594Y-80020693D01*
X139280017Y-80163253D01*
X139200017Y-80320260D01*
X139200016Y-80320263D01*
X139145566Y-80487848D01*
X139118000Y-80661893D01*
X128657000Y-80661893D01*
X128629434Y-80487850D01*
X128574982Y-80320261D01*
X128574982Y-80320260D01*
X128514790Y-80202127D01*
X128494983Y-80163254D01*
X128391407Y-80020695D01*
X128266805Y-79896093D01*
X128124246Y-79792517D01*
X128095064Y-79777648D01*
X127967239Y-79712517D01*
X127967236Y-79712516D01*
X127799651Y-79658066D01*
X127712628Y-79644283D01*
X127625607Y-79630500D01*
X127449393Y-79630500D01*
X127391378Y-79639688D01*
X127275348Y-79658066D01*
X127107763Y-79712516D01*
X127107760Y-79712517D01*
X126950753Y-79792517D01*
X126808193Y-79896094D01*
X126683594Y-80020693D01*
X126580017Y-80163253D01*
X126500017Y-80320260D01*
X126500016Y-80320263D01*
X126445566Y-80487848D01*
X126418000Y-80661893D01*
X123757999Y-80661893D01*
X123757999Y-80202128D01*
X123751591Y-80142517D01*
X123736610Y-80102352D01*
X123701297Y-80007671D01*
X123701293Y-80007664D01*
X123615047Y-79892455D01*
X123615044Y-79892452D01*
X123499835Y-79806206D01*
X123499828Y-79806202D01*
X123364982Y-79755908D01*
X123364983Y-79755908D01*
X123305383Y-79749501D01*
X123305381Y-79749500D01*
X123305373Y-79749500D01*
X123305364Y-79749500D01*
X121209629Y-79749500D01*
X121209623Y-79749501D01*
X121150016Y-79755908D01*
X121015171Y-79806202D01*
X121015164Y-79806206D01*
X120899955Y-79892452D01*
X120899952Y-79892455D01*
X120813706Y-80007664D01*
X120813702Y-80007671D01*
X120763408Y-80142517D01*
X120757001Y-80202116D01*
X120757001Y-80202123D01*
X120757000Y-80202135D01*
X88784696Y-80202135D01*
X88800500Y-80102352D01*
X88800500Y-79897648D01*
X88800254Y-79896093D01*
X88768477Y-79695465D01*
X88705218Y-79500776D01*
X88671503Y-79434607D01*
X88612287Y-79318390D01*
X88589831Y-79287482D01*
X88491971Y-79152786D01*
X88347213Y-79008028D01*
X88181610Y-78887712D01*
X88168200Y-78880879D01*
X88157138Y-78870431D01*
X88143297Y-78864110D01*
X88132255Y-78846928D01*
X88117406Y-78832903D01*
X88113165Y-78817223D01*
X88105523Y-78805332D01*
X88100500Y-78770397D01*
X88100500Y-78716698D01*
X88120185Y-78649659D01*
X88172989Y-78603904D01*
X88205098Y-78594226D01*
X88304534Y-78578477D01*
X88499219Y-78515220D01*
X88681610Y-78422287D01*
X88797476Y-78338106D01*
X88847213Y-78301971D01*
X88847215Y-78301968D01*
X88847219Y-78301966D01*
X88991966Y-78157219D01*
X88991968Y-78157215D01*
X88991971Y-78157213D01*
X89112284Y-77991614D01*
X89112285Y-77991613D01*
X89112287Y-77991610D01*
X89119117Y-77978204D01*
X89167091Y-77927409D01*
X89229602Y-77910500D01*
X89770398Y-77910500D01*
X89837437Y-77930185D01*
X89880883Y-77978205D01*
X89887715Y-77991614D01*
X90008028Y-78157213D01*
X90152786Y-78301971D01*
X90307749Y-78414556D01*
X90318390Y-78422287D01*
X90434607Y-78481503D01*
X90500776Y-78515218D01*
X90500778Y-78515218D01*
X90500781Y-78515220D01*
X90584811Y-78542523D01*
X90695465Y-78578477D01*
X90743765Y-78586127D01*
X90897648Y-78610500D01*
X90897649Y-78610500D01*
X91102351Y-78610500D01*
X91102352Y-78610500D01*
X91304534Y-78578477D01*
X91499219Y-78515220D01*
X91681610Y-78422287D01*
X91797476Y-78338106D01*
X91847213Y-78301971D01*
X91847215Y-78301968D01*
X91847219Y-78301966D01*
X91991966Y-78157219D01*
X91991968Y-78157215D01*
X91991971Y-78157213D01*
X92100500Y-78007833D01*
X92112287Y-77991610D01*
X92205220Y-77809219D01*
X92268477Y-77614534D01*
X92300500Y-77412352D01*
X92300500Y-77207648D01*
X92268477Y-77005466D01*
X92248287Y-76943329D01*
X92205218Y-76810776D01*
X92171503Y-76744607D01*
X92112287Y-76628390D01*
X92094498Y-76603905D01*
X91991971Y-76462786D01*
X91847213Y-76318028D01*
X91693587Y-76206414D01*
X91681613Y-76197715D01*
X91681612Y-76197714D01*
X91681610Y-76197713D01*
X91624653Y-76168691D01*
X91508618Y-76109568D01*
X99249500Y-76109568D01*
X99249500Y-76390431D01*
X99280942Y-76669494D01*
X99280945Y-76669512D01*
X99343439Y-76943317D01*
X99343443Y-76943329D01*
X99436200Y-77208411D01*
X99558053Y-77461442D01*
X99558055Y-77461445D01*
X99707477Y-77699248D01*
X99882584Y-77918825D01*
X100081175Y-78117416D01*
X100300752Y-78292523D01*
X100538555Y-78441945D01*
X100791592Y-78563801D01*
X100990680Y-78633465D01*
X101056670Y-78656556D01*
X101056682Y-78656560D01*
X101330491Y-78719055D01*
X101330497Y-78719055D01*
X101330505Y-78719057D01*
X101516547Y-78740018D01*
X101609569Y-78750499D01*
X101609572Y-78750500D01*
X101609575Y-78750500D01*
X101890428Y-78750500D01*
X101890429Y-78750499D01*
X102033055Y-78734429D01*
X102169494Y-78719057D01*
X102169499Y-78719056D01*
X102169509Y-78719055D01*
X102443318Y-78656560D01*
X102708408Y-78563801D01*
X102961445Y-78441945D01*
X103199248Y-78292523D01*
X103418825Y-78117416D01*
X103617416Y-77918825D01*
X103792523Y-77699248D01*
X103941945Y-77461445D01*
X104063801Y-77208408D01*
X104156560Y-76943318D01*
X104219055Y-76669509D01*
X104222332Y-76640431D01*
X104234429Y-76533055D01*
X104250500Y-76390425D01*
X104250500Y-76359568D01*
X104499500Y-76359568D01*
X104499500Y-76640431D01*
X104530942Y-76919494D01*
X104530945Y-76919512D01*
X104593439Y-77193317D01*
X104593443Y-77193329D01*
X104686200Y-77458411D01*
X104808053Y-77711442D01*
X104808055Y-77711445D01*
X104957477Y-77949248D01*
X105088113Y-78113060D01*
X105123328Y-78157219D01*
X105132584Y-78168825D01*
X105331175Y-78367416D01*
X105550752Y-78542523D01*
X105788555Y-78691945D01*
X105788557Y-78691946D01*
X105844850Y-78719055D01*
X106041592Y-78813801D01*
X106233290Y-78880879D01*
X106306670Y-78906556D01*
X106306682Y-78906560D01*
X106580491Y-78969055D01*
X106580497Y-78969055D01*
X106580505Y-78969057D01*
X106766547Y-78990018D01*
X106859569Y-79000499D01*
X106859572Y-79000500D01*
X106859575Y-79000500D01*
X107140428Y-79000500D01*
X107140429Y-79000499D01*
X107283055Y-78984429D01*
X107419494Y-78969057D01*
X107419499Y-78969056D01*
X107419509Y-78969055D01*
X107693318Y-78906560D01*
X107958408Y-78813801D01*
X108211445Y-78691945D01*
X108449248Y-78542523D01*
X108668825Y-78367416D01*
X108867416Y-78168825D01*
X109042523Y-77949248D01*
X109191945Y-77711445D01*
X109313801Y-77458408D01*
X109406560Y-77193318D01*
X109469055Y-76919509D01*
X109500500Y-76640425D01*
X109500500Y-76359575D01*
X109500499Y-76359568D01*
X109749500Y-76359568D01*
X109749500Y-76640431D01*
X109780942Y-76919494D01*
X109780945Y-76919512D01*
X109843439Y-77193317D01*
X109843443Y-77193329D01*
X109936200Y-77458411D01*
X110058053Y-77711442D01*
X110058055Y-77711445D01*
X110207477Y-77949248D01*
X110338113Y-78113060D01*
X110373328Y-78157219D01*
X110382584Y-78168825D01*
X110581175Y-78367416D01*
X110800752Y-78542523D01*
X111038555Y-78691945D01*
X111038557Y-78691946D01*
X111094850Y-78719055D01*
X111291592Y-78813801D01*
X111483290Y-78880879D01*
X111556670Y-78906556D01*
X111556682Y-78906560D01*
X111830491Y-78969055D01*
X111830497Y-78969055D01*
X111830505Y-78969057D01*
X112016547Y-78990018D01*
X112109569Y-79000499D01*
X112109572Y-79000500D01*
X112109575Y-79000500D01*
X112390428Y-79000500D01*
X112390429Y-79000499D01*
X112533055Y-78984429D01*
X112669494Y-78969057D01*
X112669499Y-78969056D01*
X112669509Y-78969055D01*
X112943318Y-78906560D01*
X113208408Y-78813801D01*
X113461445Y-78691945D01*
X113699248Y-78542523D01*
X113918825Y-78367416D01*
X114117416Y-78168825D01*
X114122944Y-78161893D01*
X126418000Y-78161893D01*
X126418000Y-78338106D01*
X126445566Y-78512151D01*
X126500016Y-78679736D01*
X126500017Y-78679739D01*
X126578059Y-78832903D01*
X126580017Y-78836746D01*
X126683593Y-78979305D01*
X126808195Y-79103907D01*
X126950754Y-79207483D01*
X127016441Y-79240952D01*
X127107760Y-79287482D01*
X127107763Y-79287483D01*
X127191555Y-79314708D01*
X127275350Y-79341934D01*
X127449393Y-79369500D01*
X127449394Y-79369500D01*
X127625606Y-79369500D01*
X127625607Y-79369500D01*
X127799650Y-79341934D01*
X127967239Y-79287482D01*
X128124246Y-79207483D01*
X128266805Y-79103907D01*
X128391407Y-78979305D01*
X128494983Y-78836746D01*
X128574982Y-78679739D01*
X128629434Y-78512150D01*
X128657000Y-78338107D01*
X128657000Y-78161893D01*
X139118000Y-78161893D01*
X139118000Y-78338106D01*
X139145566Y-78512151D01*
X139200016Y-78679736D01*
X139200017Y-78679739D01*
X139278059Y-78832903D01*
X139280017Y-78836746D01*
X139383593Y-78979305D01*
X139508195Y-79103907D01*
X139650754Y-79207483D01*
X139716441Y-79240952D01*
X139807760Y-79287482D01*
X139807763Y-79287483D01*
X139891555Y-79314708D01*
X139975350Y-79341934D01*
X140149393Y-79369500D01*
X140149394Y-79369500D01*
X140325606Y-79369500D01*
X140325607Y-79369500D01*
X140499650Y-79341934D01*
X140667239Y-79287482D01*
X140824246Y-79207483D01*
X140966805Y-79103907D01*
X141091407Y-78979305D01*
X141194983Y-78836746D01*
X141274982Y-78679739D01*
X141329434Y-78512150D01*
X141357000Y-78338107D01*
X141357000Y-78161893D01*
X141329434Y-77987850D01*
X141274982Y-77820261D01*
X141274982Y-77820260D01*
X141234219Y-77740261D01*
X141194983Y-77663254D01*
X141091407Y-77520695D01*
X140966805Y-77396093D01*
X140824246Y-77292517D01*
X140667239Y-77212517D01*
X140667236Y-77212516D01*
X140499651Y-77158066D01*
X140412628Y-77144283D01*
X140325607Y-77130500D01*
X140149393Y-77130500D01*
X140091378Y-77139688D01*
X139975348Y-77158066D01*
X139807763Y-77212516D01*
X139807760Y-77212517D01*
X139650753Y-77292517D01*
X139508193Y-77396094D01*
X139383594Y-77520693D01*
X139280017Y-77663253D01*
X139200017Y-77820260D01*
X139200016Y-77820263D01*
X139145566Y-77987848D01*
X139118000Y-78161893D01*
X128657000Y-78161893D01*
X128629434Y-77987850D01*
X128574982Y-77820261D01*
X128574982Y-77820260D01*
X128534219Y-77740261D01*
X128494983Y-77663254D01*
X128391407Y-77520695D01*
X128266805Y-77396093D01*
X128124246Y-77292517D01*
X127967239Y-77212517D01*
X127967236Y-77212516D01*
X127799651Y-77158066D01*
X127712628Y-77144283D01*
X127625607Y-77130500D01*
X127449393Y-77130500D01*
X127391378Y-77139688D01*
X127275348Y-77158066D01*
X127107763Y-77212516D01*
X127107760Y-77212517D01*
X126950753Y-77292517D01*
X126808193Y-77396094D01*
X126683594Y-77520693D01*
X126580017Y-77663253D01*
X126500017Y-77820260D01*
X126500016Y-77820263D01*
X126445566Y-77987848D01*
X126418000Y-78161893D01*
X114122944Y-78161893D01*
X114292523Y-77949248D01*
X114441945Y-77711445D01*
X114563801Y-77458408D01*
X114656560Y-77193318D01*
X114719055Y-76919509D01*
X114750500Y-76640425D01*
X114750500Y-76359575D01*
X114732263Y-76197713D01*
X114719057Y-76080505D01*
X114719054Y-76080487D01*
X114710161Y-76041523D01*
X114656560Y-75806682D01*
X114605896Y-75661893D01*
X126418000Y-75661893D01*
X126418000Y-75838106D01*
X126445566Y-76012151D01*
X126500016Y-76179736D01*
X126500017Y-76179739D01*
X126570480Y-76318028D01*
X126580017Y-76336746D01*
X126683593Y-76479305D01*
X126808195Y-76603907D01*
X126950754Y-76707483D01*
X127027761Y-76746719D01*
X127107760Y-76787482D01*
X127107763Y-76787483D01*
X127179454Y-76810776D01*
X127275350Y-76841934D01*
X127449393Y-76869500D01*
X127449394Y-76869500D01*
X127625606Y-76869500D01*
X127625607Y-76869500D01*
X127799650Y-76841934D01*
X127967239Y-76787482D01*
X128124246Y-76707483D01*
X128266805Y-76603907D01*
X128391407Y-76479305D01*
X128494983Y-76336746D01*
X128574982Y-76179739D01*
X128629434Y-76012150D01*
X128657000Y-75838107D01*
X128657000Y-75661893D01*
X139118000Y-75661893D01*
X139118000Y-75838106D01*
X139145566Y-76012151D01*
X139200016Y-76179736D01*
X139200017Y-76179739D01*
X139270480Y-76318028D01*
X139280017Y-76336746D01*
X139383593Y-76479305D01*
X139508195Y-76603907D01*
X139650754Y-76707483D01*
X139727761Y-76746719D01*
X139807760Y-76787482D01*
X139807763Y-76787483D01*
X139879454Y-76810776D01*
X139975350Y-76841934D01*
X140149393Y-76869500D01*
X140149394Y-76869500D01*
X140325606Y-76869500D01*
X140325607Y-76869500D01*
X140499650Y-76841934D01*
X140667239Y-76787482D01*
X140824246Y-76707483D01*
X140966805Y-76603907D01*
X141091407Y-76479305D01*
X141194983Y-76336746D01*
X141274982Y-76179739D01*
X141329434Y-76012150D01*
X141357000Y-75838107D01*
X141357000Y-75661893D01*
X141329434Y-75487850D01*
X141274982Y-75320261D01*
X141274982Y-75320260D01*
X141194982Y-75163253D01*
X141091407Y-75020695D01*
X140966805Y-74896093D01*
X140824246Y-74792517D01*
X140667239Y-74712517D01*
X140667236Y-74712516D01*
X140499651Y-74658066D01*
X140412628Y-74644283D01*
X140325607Y-74630500D01*
X140149393Y-74630500D01*
X140091378Y-74639688D01*
X139975348Y-74658066D01*
X139807763Y-74712516D01*
X139807760Y-74712517D01*
X139650753Y-74792517D01*
X139508193Y-74896094D01*
X139383594Y-75020693D01*
X139280017Y-75163253D01*
X139200017Y-75320260D01*
X139200016Y-75320263D01*
X139145566Y-75487848D01*
X139118000Y-75661893D01*
X128657000Y-75661893D01*
X128629434Y-75487850D01*
X128574982Y-75320261D01*
X128574982Y-75320260D01*
X128494982Y-75163253D01*
X128391407Y-75020695D01*
X128266805Y-74896093D01*
X128124246Y-74792517D01*
X127967239Y-74712517D01*
X127967236Y-74712516D01*
X127799651Y-74658066D01*
X127712628Y-74644283D01*
X127625607Y-74630500D01*
X127449393Y-74630500D01*
X127391378Y-74639688D01*
X127275348Y-74658066D01*
X127107763Y-74712516D01*
X127107760Y-74712517D01*
X126950753Y-74792517D01*
X126808193Y-74896094D01*
X126683594Y-75020693D01*
X126580017Y-75163253D01*
X126500017Y-75320260D01*
X126500016Y-75320263D01*
X126445566Y-75487848D01*
X126418000Y-75661893D01*
X114605896Y-75661893D01*
X114563801Y-75541592D01*
X114441945Y-75288555D01*
X114292523Y-75050752D01*
X114117416Y-74831175D01*
X113918825Y-74632584D01*
X113699248Y-74457477D01*
X113461445Y-74308055D01*
X113461442Y-74308053D01*
X113208411Y-74186200D01*
X112943329Y-74093443D01*
X112943317Y-74093439D01*
X112669512Y-74030945D01*
X112669494Y-74030942D01*
X112390431Y-73999500D01*
X112390425Y-73999500D01*
X112109575Y-73999500D01*
X112109568Y-73999500D01*
X111830505Y-74030942D01*
X111830487Y-74030945D01*
X111556682Y-74093439D01*
X111556670Y-74093443D01*
X111291588Y-74186200D01*
X111038557Y-74308053D01*
X110800753Y-74457476D01*
X110581175Y-74632583D01*
X110382583Y-74831175D01*
X110207476Y-75050753D01*
X110058053Y-75288557D01*
X109936200Y-75541588D01*
X109843443Y-75806670D01*
X109843439Y-75806682D01*
X109780945Y-76080487D01*
X109780942Y-76080505D01*
X109749500Y-76359568D01*
X109500499Y-76359568D01*
X109482263Y-76197713D01*
X109469057Y-76080505D01*
X109469054Y-76080487D01*
X109406560Y-75806682D01*
X109406556Y-75806670D01*
X109319081Y-75556682D01*
X109313801Y-75541592D01*
X109191945Y-75288555D01*
X109042523Y-75050752D01*
X108867416Y-74831175D01*
X108668825Y-74632584D01*
X108449248Y-74457477D01*
X108211445Y-74308055D01*
X108211442Y-74308053D01*
X107958411Y-74186200D01*
X107693329Y-74093443D01*
X107693317Y-74093439D01*
X107419512Y-74030945D01*
X107419494Y-74030942D01*
X107140431Y-73999500D01*
X107140425Y-73999500D01*
X106859575Y-73999500D01*
X106859568Y-73999500D01*
X106580505Y-74030942D01*
X106580487Y-74030945D01*
X106306682Y-74093439D01*
X106306670Y-74093443D01*
X106041588Y-74186200D01*
X105788557Y-74308053D01*
X105550753Y-74457476D01*
X105331175Y-74632583D01*
X105132583Y-74831175D01*
X104957476Y-75050753D01*
X104808053Y-75288557D01*
X104686200Y-75541588D01*
X104593443Y-75806670D01*
X104593439Y-75806682D01*
X104530945Y-76080487D01*
X104530942Y-76080505D01*
X104499500Y-76359568D01*
X104250500Y-76359568D01*
X104250500Y-76109575D01*
X104239224Y-76009500D01*
X104219057Y-75830505D01*
X104219054Y-75830487D01*
X104156560Y-75556682D01*
X104156556Y-75556670D01*
X104073833Y-75320263D01*
X104063801Y-75291592D01*
X103941945Y-75038555D01*
X103792523Y-74800752D01*
X103617416Y-74581175D01*
X103418825Y-74382584D01*
X103199248Y-74207477D01*
X102961445Y-74058055D01*
X102961442Y-74058053D01*
X102708411Y-73936200D01*
X102443329Y-73843443D01*
X102443317Y-73843439D01*
X102169512Y-73780945D01*
X102169494Y-73780942D01*
X101890431Y-73749500D01*
X101890425Y-73749500D01*
X101609575Y-73749500D01*
X101609568Y-73749500D01*
X101330505Y-73780942D01*
X101330487Y-73780945D01*
X101056682Y-73843439D01*
X101056670Y-73843443D01*
X100791588Y-73936200D01*
X100538557Y-74058053D01*
X100300753Y-74207476D01*
X100081175Y-74382583D01*
X99882583Y-74581175D01*
X99707476Y-74800753D01*
X99558053Y-75038557D01*
X99436200Y-75291588D01*
X99343443Y-75556670D01*
X99343439Y-75556682D01*
X99280945Y-75830487D01*
X99280942Y-75830505D01*
X99249500Y-76109568D01*
X91508618Y-76109568D01*
X91499223Y-76104781D01*
X91304534Y-76041522D01*
X91119083Y-76012150D01*
X91102352Y-76009500D01*
X90897648Y-76009500D01*
X90880917Y-76012150D01*
X90695465Y-76041522D01*
X90500776Y-76104781D01*
X90318386Y-76197715D01*
X90152786Y-76318028D01*
X90008028Y-76462786D01*
X89887715Y-76628385D01*
X89880883Y-76641795D01*
X89832909Y-76692591D01*
X89770398Y-76709500D01*
X89229602Y-76709500D01*
X89162563Y-76689815D01*
X89119117Y-76641795D01*
X89112284Y-76628385D01*
X88991971Y-76462786D01*
X88847213Y-76318028D01*
X88681613Y-76197715D01*
X88681612Y-76197714D01*
X88681610Y-76197713D01*
X88624653Y-76168691D01*
X88499223Y-76104781D01*
X88304534Y-76041522D01*
X88119083Y-76012150D01*
X88102352Y-76009500D01*
X87897648Y-76009500D01*
X87880917Y-76012150D01*
X87695465Y-76041522D01*
X87500776Y-76104781D01*
X87318386Y-76197715D01*
X87152786Y-76318028D01*
X87008028Y-76462786D01*
X86887715Y-76628386D01*
X86794781Y-76810776D01*
X86731522Y-77005465D01*
X86699500Y-77207648D01*
X86699500Y-77412351D01*
X86731522Y-77614534D01*
X86794781Y-77809223D01*
X86885985Y-77988218D01*
X86899500Y-78044513D01*
X86899500Y-78770397D01*
X86879815Y-78837436D01*
X86831800Y-78880879D01*
X86818389Y-78887712D01*
X86652788Y-79008027D01*
X86541839Y-79118976D01*
X86480516Y-79152460D01*
X86410824Y-79147476D01*
X86354891Y-79105604D01*
X86353839Y-79104179D01*
X86301966Y-79032781D01*
X86157219Y-78888034D01*
X86157213Y-78888028D01*
X85991610Y-78767712D01*
X85978200Y-78760879D01*
X85927406Y-78712903D01*
X85910500Y-78650397D01*
X85910500Y-78290047D01*
X85930185Y-78223008D01*
X85946819Y-78202366D01*
X85991966Y-78157219D01*
X85991968Y-78157215D01*
X85991971Y-78157213D01*
X86100500Y-78007833D01*
X86112287Y-77991610D01*
X86205220Y-77809219D01*
X86268477Y-77614534D01*
X86300500Y-77412352D01*
X86300500Y-77207648D01*
X86268477Y-77005466D01*
X86248287Y-76943329D01*
X86205218Y-76810776D01*
X86171503Y-76744607D01*
X86112287Y-76628390D01*
X86094498Y-76603905D01*
X85991971Y-76462786D01*
X85847213Y-76318028D01*
X85681613Y-76197715D01*
X85681612Y-76197714D01*
X85681610Y-76197713D01*
X85624653Y-76168691D01*
X85499223Y-76104781D01*
X85304534Y-76041522D01*
X85119083Y-76012150D01*
X85102352Y-76009500D01*
X84897648Y-76009500D01*
X84880917Y-76012150D01*
X84695465Y-76041522D01*
X84500776Y-76104781D01*
X84318386Y-76197715D01*
X84152786Y-76318028D01*
X84008028Y-76462786D01*
X83887715Y-76628385D01*
X83880883Y-76641795D01*
X83832909Y-76692591D01*
X83770398Y-76709500D01*
X82729602Y-76709500D01*
X82662563Y-76689815D01*
X82619117Y-76641795D01*
X82612284Y-76628385D01*
X82491971Y-76462786D01*
X82347213Y-76318028D01*
X82181613Y-76197715D01*
X82181612Y-76197714D01*
X82181610Y-76197713D01*
X82124653Y-76168691D01*
X81999223Y-76104781D01*
X81804534Y-76041522D01*
X81619083Y-76012150D01*
X81602352Y-76009500D01*
X81397648Y-76009500D01*
X81380917Y-76012150D01*
X81195465Y-76041522D01*
X81000776Y-76104781D01*
X80818386Y-76197715D01*
X80652786Y-76318028D01*
X80508028Y-76462786D01*
X80387715Y-76628386D01*
X80294781Y-76810776D01*
X80231522Y-77005465D01*
X80199500Y-77207648D01*
X74847102Y-77207648D01*
X74903554Y-73161893D01*
X139118000Y-73161893D01*
X139118000Y-73338106D01*
X139145566Y-73512151D01*
X139200016Y-73679736D01*
X139200017Y-73679739D01*
X139251583Y-73780942D01*
X139280017Y-73836746D01*
X139383593Y-73979305D01*
X139508195Y-74103907D01*
X139650754Y-74207483D01*
X139727761Y-74246719D01*
X139807760Y-74287482D01*
X139807763Y-74287483D01*
X139871073Y-74308053D01*
X139975350Y-74341934D01*
X140149393Y-74369500D01*
X140149394Y-74369500D01*
X140325606Y-74369500D01*
X140325607Y-74369500D01*
X140499650Y-74341934D01*
X140667239Y-74287482D01*
X140824246Y-74207483D01*
X140966805Y-74103907D01*
X141091407Y-73979305D01*
X141194983Y-73836746D01*
X141274982Y-73679739D01*
X141329434Y-73512150D01*
X141357000Y-73338107D01*
X141357000Y-73161893D01*
X141329434Y-72987850D01*
X141274982Y-72820261D01*
X141274982Y-72820260D01*
X141194982Y-72663253D01*
X141091407Y-72520695D01*
X140966805Y-72396093D01*
X140824246Y-72292517D01*
X140667239Y-72212517D01*
X140667236Y-72212516D01*
X140499651Y-72158066D01*
X140412628Y-72144283D01*
X140325607Y-72130500D01*
X140149393Y-72130500D01*
X140091378Y-72139688D01*
X139975348Y-72158066D01*
X139807763Y-72212516D01*
X139807760Y-72212517D01*
X139650753Y-72292517D01*
X139508193Y-72396094D01*
X139383594Y-72520693D01*
X139280017Y-72663253D01*
X139200017Y-72820260D01*
X139200016Y-72820263D01*
X139145566Y-72987848D01*
X139118000Y-73161893D01*
X74903554Y-73161893D01*
X74994910Y-66614717D01*
X75015528Y-66547962D01*
X75068965Y-66502948D01*
X75138256Y-66493970D01*
X75197562Y-66520596D01*
X75311344Y-66613975D01*
X75311351Y-66613980D01*
X75311361Y-66613987D01*
X75576877Y-66791398D01*
X75576882Y-66791401D01*
X75576894Y-66791409D01*
X75576903Y-66791413D01*
X75576905Y-66791415D01*
X75858548Y-66941957D01*
X75858550Y-66941957D01*
X75858556Y-66941961D01*
X76153619Y-67064180D01*
X76459240Y-67156889D01*
X76772477Y-67219196D01*
X77090313Y-67250500D01*
X77090316Y-67250500D01*
X77409684Y-67250500D01*
X77409687Y-67250500D01*
X77727523Y-67219196D01*
X78040760Y-67156889D01*
X78346381Y-67064180D01*
X78641444Y-66941961D01*
X78923106Y-66791409D01*
X79188656Y-66613975D01*
X79435535Y-66411366D01*
X79661366Y-66185535D01*
X79863975Y-65938656D01*
X80041409Y-65673106D01*
X80166142Y-65439748D01*
X80215104Y-65389903D01*
X80283242Y-65374443D01*
X80348922Y-65398275D01*
X80391290Y-65453832D01*
X80399500Y-65498201D01*
X80399500Y-68955487D01*
X80385985Y-69011782D01*
X80294781Y-69190776D01*
X80231522Y-69385465D01*
X80199500Y-69587648D01*
X80199500Y-69792351D01*
X80231522Y-69994534D01*
X80294781Y-70189223D01*
X80387715Y-70371613D01*
X80508028Y-70537213D01*
X80652786Y-70681971D01*
X80807749Y-70794556D01*
X80818390Y-70802287D01*
X80934607Y-70861503D01*
X81000776Y-70895218D01*
X81000778Y-70895218D01*
X81000781Y-70895220D01*
X81105137Y-70929127D01*
X81195465Y-70958477D01*
X81296557Y-70974488D01*
X81397648Y-70990500D01*
X81397649Y-70990500D01*
X81602351Y-70990500D01*
X81602352Y-70990500D01*
X81804534Y-70958477D01*
X81999219Y-70895220D01*
X82181610Y-70802287D01*
X82274590Y-70734732D01*
X82347213Y-70681971D01*
X82347215Y-70681968D01*
X82347219Y-70681966D01*
X82491966Y-70537219D01*
X82491968Y-70537215D01*
X82491971Y-70537213D01*
X82612284Y-70371614D01*
X82612285Y-70371613D01*
X82612287Y-70371610D01*
X82619117Y-70358204D01*
X82667091Y-70307409D01*
X82729602Y-70290500D01*
X83770398Y-70290500D01*
X83837437Y-70310185D01*
X83880883Y-70358205D01*
X83887715Y-70371614D01*
X84008028Y-70537213D01*
X84152786Y-70681971D01*
X84307749Y-70794556D01*
X84318390Y-70802287D01*
X84434607Y-70861503D01*
X84500776Y-70895218D01*
X84500778Y-70895218D01*
X84500781Y-70895220D01*
X84605137Y-70929127D01*
X84695465Y-70958477D01*
X84796557Y-70974488D01*
X84897648Y-70990500D01*
X84897649Y-70990500D01*
X85102351Y-70990500D01*
X85102352Y-70990500D01*
X85304534Y-70958477D01*
X85499219Y-70895220D01*
X85681610Y-70802287D01*
X85774590Y-70734732D01*
X85847213Y-70681971D01*
X85847215Y-70681968D01*
X85847219Y-70681966D01*
X85991966Y-70537219D01*
X85991968Y-70537215D01*
X85991971Y-70537213D01*
X86044732Y-70464590D01*
X86112287Y-70371610D01*
X86205220Y-70189219D01*
X86268477Y-69994534D01*
X86300500Y-69792352D01*
X86300500Y-69587648D01*
X86268477Y-69385466D01*
X86205220Y-69190781D01*
X86205218Y-69190778D01*
X86205218Y-69190776D01*
X86171503Y-69124607D01*
X86112287Y-69008390D01*
X86073851Y-68955487D01*
X85991971Y-68842786D01*
X85847213Y-68698028D01*
X85681613Y-68577715D01*
X85681612Y-68577714D01*
X85681610Y-68577713D01*
X85624653Y-68548691D01*
X85499223Y-68484781D01*
X85304534Y-68421522D01*
X85129995Y-68393878D01*
X85102352Y-68389500D01*
X84897648Y-68389500D01*
X84873329Y-68393351D01*
X84695465Y-68421522D01*
X84500776Y-68484781D01*
X84318386Y-68577715D01*
X84152786Y-68698028D01*
X84008028Y-68842786D01*
X83887715Y-69008385D01*
X83880883Y-69021795D01*
X83832909Y-69072591D01*
X83770398Y-69089500D01*
X82729602Y-69089500D01*
X82662563Y-69069815D01*
X82619117Y-69021795D01*
X82612284Y-69008385D01*
X82491971Y-68842786D01*
X82347213Y-68698028D01*
X82181613Y-68577715D01*
X82181612Y-68577714D01*
X82181610Y-68577713D01*
X82124653Y-68548691D01*
X81999223Y-68484781D01*
X81804534Y-68421522D01*
X81705102Y-68405774D01*
X81641967Y-68375845D01*
X81605036Y-68316533D01*
X81600500Y-68283301D01*
X81600500Y-63800098D01*
X81609144Y-63770660D01*
X81615668Y-63740670D01*
X81619423Y-63735653D01*
X81620185Y-63733059D01*
X81636819Y-63712416D01*
X81712418Y-63636818D01*
X81773742Y-63603334D01*
X81800099Y-63600500D01*
X83666529Y-63600500D01*
X83733568Y-63620185D01*
X83779323Y-63672989D01*
X83789267Y-63742147D01*
X83760242Y-63805703D01*
X83735419Y-63827602D01*
X83673779Y-63868788D01*
X83673771Y-63868794D01*
X83558794Y-63983771D01*
X83558788Y-63983779D01*
X83468452Y-64118976D01*
X83468450Y-64118980D01*
X83406225Y-64269206D01*
X83406222Y-64269216D01*
X83374500Y-64428692D01*
X83374500Y-64428695D01*
X83374500Y-64591305D01*
X83374500Y-64591307D01*
X83374499Y-64591307D01*
X83406222Y-64750783D01*
X83406225Y-64750793D01*
X83468450Y-64901019D01*
X83468452Y-64901023D01*
X83558788Y-65036220D01*
X83558794Y-65036228D01*
X83619885Y-65097319D01*
X83653370Y-65158642D01*
X83648386Y-65228334D01*
X83619885Y-65272681D01*
X83558794Y-65333771D01*
X83558788Y-65333779D01*
X83468452Y-65468976D01*
X83468450Y-65468980D01*
X83406225Y-65619206D01*
X83406222Y-65619216D01*
X83374500Y-65778692D01*
X83374500Y-65778695D01*
X83374500Y-65941305D01*
X83374500Y-65941307D01*
X83374499Y-65941307D01*
X83406222Y-66100783D01*
X83406225Y-66100793D01*
X83468450Y-66251019D01*
X83468452Y-66251023D01*
X83558788Y-66386220D01*
X83558794Y-66386228D01*
X83673771Y-66501205D01*
X83673779Y-66501211D01*
X83808976Y-66591547D01*
X83808980Y-66591549D01*
X83950498Y-66650167D01*
X83959211Y-66653776D01*
X83959215Y-66653776D01*
X83959216Y-66653777D01*
X84118692Y-66685500D01*
X84118695Y-66685500D01*
X84281307Y-66685500D01*
X84388598Y-66664157D01*
X84440789Y-66653776D01*
X84577547Y-66597128D01*
X84647017Y-66589660D01*
X84672452Y-66597128D01*
X84809211Y-66653776D01*
X84809215Y-66653776D01*
X84809216Y-66653777D01*
X84968692Y-66685500D01*
X84968695Y-66685500D01*
X85131307Y-66685500D01*
X85238598Y-66664157D01*
X85290789Y-66653776D01*
X85427547Y-66597128D01*
X85497017Y-66589660D01*
X85522452Y-66597128D01*
X85659211Y-66653776D01*
X85659215Y-66653776D01*
X85659216Y-66653777D01*
X85818692Y-66685500D01*
X85818695Y-66685500D01*
X85981307Y-66685500D01*
X86088598Y-66664157D01*
X86140789Y-66653776D01*
X86277547Y-66597128D01*
X86347017Y-66589660D01*
X86372452Y-66597128D01*
X86509211Y-66653776D01*
X86509215Y-66653776D01*
X86509216Y-66653777D01*
X86668692Y-66685500D01*
X86668695Y-66685500D01*
X86831305Y-66685500D01*
X86851307Y-66681521D01*
X86920898Y-66687747D01*
X86976076Y-66730609D01*
X86999322Y-66796498D01*
X86999500Y-66803138D01*
X86999500Y-68814237D01*
X86979815Y-68881276D01*
X86975818Y-68887122D01*
X86887715Y-69008386D01*
X86794781Y-69190776D01*
X86731522Y-69385465D01*
X86699500Y-69587648D01*
X86699500Y-69792351D01*
X86731522Y-69994534D01*
X86794781Y-70189223D01*
X86887715Y-70371613D01*
X87008028Y-70537213D01*
X87152786Y-70681971D01*
X87307749Y-70794556D01*
X87318390Y-70802287D01*
X87434607Y-70861503D01*
X87500776Y-70895218D01*
X87500778Y-70895218D01*
X87500781Y-70895220D01*
X87605137Y-70929127D01*
X87695465Y-70958477D01*
X87796557Y-70974488D01*
X87897648Y-70990500D01*
X87897649Y-70990500D01*
X88102351Y-70990500D01*
X88102352Y-70990500D01*
X88304534Y-70958477D01*
X88499219Y-70895220D01*
X88681610Y-70802287D01*
X88774590Y-70734732D01*
X88847213Y-70681971D01*
X88847215Y-70681968D01*
X88847219Y-70681966D01*
X88991966Y-70537219D01*
X88991968Y-70537215D01*
X88991971Y-70537213D01*
X89112284Y-70371614D01*
X89112285Y-70371613D01*
X89112287Y-70371610D01*
X89119117Y-70358204D01*
X89167091Y-70307409D01*
X89229602Y-70290500D01*
X89770398Y-70290500D01*
X89837437Y-70310185D01*
X89880883Y-70358205D01*
X89887715Y-70371614D01*
X90008028Y-70537213D01*
X90152786Y-70681971D01*
X90307749Y-70794556D01*
X90318390Y-70802287D01*
X90434607Y-70861503D01*
X90500776Y-70895218D01*
X90500778Y-70895218D01*
X90500781Y-70895220D01*
X90605137Y-70929127D01*
X90695465Y-70958477D01*
X90796557Y-70974488D01*
X90897648Y-70990500D01*
X90897649Y-70990500D01*
X91102351Y-70990500D01*
X91102352Y-70990500D01*
X91304534Y-70958477D01*
X91499219Y-70895220D01*
X91681610Y-70802287D01*
X91774590Y-70734732D01*
X91847213Y-70681971D01*
X91847215Y-70681968D01*
X91847219Y-70681966D01*
X91991966Y-70537219D01*
X91991968Y-70537215D01*
X91991971Y-70537213D01*
X92044732Y-70464590D01*
X92112287Y-70371610D01*
X92205220Y-70189219D01*
X92268477Y-69994534D01*
X92300500Y-69792352D01*
X92300500Y-69587648D01*
X92268477Y-69385466D01*
X92205220Y-69190781D01*
X92205218Y-69190778D01*
X92205218Y-69190776D01*
X92171503Y-69124607D01*
X92112287Y-69008390D01*
X92073851Y-68955487D01*
X91991971Y-68842786D01*
X91847213Y-68698028D01*
X91681613Y-68577715D01*
X91681612Y-68577714D01*
X91681610Y-68577713D01*
X91624653Y-68548691D01*
X91499223Y-68484781D01*
X91304534Y-68421522D01*
X91129995Y-68393878D01*
X91102352Y-68389500D01*
X90897648Y-68389500D01*
X90873329Y-68393351D01*
X90695465Y-68421522D01*
X90500776Y-68484781D01*
X90318386Y-68577715D01*
X90152786Y-68698028D01*
X90008028Y-68842786D01*
X89887715Y-69008385D01*
X89880883Y-69021795D01*
X89832909Y-69072591D01*
X89770398Y-69089500D01*
X89229602Y-69089500D01*
X89162563Y-69069815D01*
X89119117Y-69021795D01*
X89112284Y-69008385D01*
X88991971Y-68842786D01*
X88847213Y-68698028D01*
X88681613Y-68577715D01*
X88681612Y-68577714D01*
X88681610Y-68577713D01*
X88499219Y-68484780D01*
X88304534Y-68421523D01*
X88304531Y-68421522D01*
X88299794Y-68420385D01*
X88300070Y-68419233D01*
X88241950Y-68391667D01*
X88205030Y-68332349D01*
X88200500Y-68299139D01*
X88200500Y-66803138D01*
X88220185Y-66736099D01*
X88272989Y-66690344D01*
X88342147Y-66680400D01*
X88348676Y-66681518D01*
X88368695Y-66685500D01*
X88531307Y-66685500D01*
X88638598Y-66664157D01*
X88690789Y-66653776D01*
X88790943Y-66612290D01*
X88841019Y-66591549D01*
X88841023Y-66591547D01*
X88947207Y-66520597D01*
X88976225Y-66501208D01*
X89091208Y-66386225D01*
X89181548Y-66251021D01*
X89243776Y-66100789D01*
X89275500Y-65941305D01*
X89275500Y-65778695D01*
X89275500Y-65778692D01*
X89243777Y-65619216D01*
X89243776Y-65619215D01*
X89243776Y-65619211D01*
X89243774Y-65619206D01*
X89181549Y-65468980D01*
X89181547Y-65468976D01*
X89091211Y-65333779D01*
X89091205Y-65333771D01*
X89030115Y-65272681D01*
X88996630Y-65211358D01*
X89001614Y-65141666D01*
X89030115Y-65097319D01*
X89091205Y-65036228D01*
X89091208Y-65036225D01*
X89181548Y-64901021D01*
X89243776Y-64750789D01*
X89275500Y-64591305D01*
X89275500Y-64428695D01*
X89275500Y-64428692D01*
X89243777Y-64269216D01*
X89243776Y-64269215D01*
X89243776Y-64269211D01*
X89243774Y-64269206D01*
X89181549Y-64118980D01*
X89181547Y-64118976D01*
X89091211Y-63983779D01*
X89091205Y-63983771D01*
X88976228Y-63868794D01*
X88976220Y-63868788D01*
X88841023Y-63778452D01*
X88841019Y-63778450D01*
X88690793Y-63716225D01*
X88690783Y-63716222D01*
X88531307Y-63684500D01*
X88531305Y-63684500D01*
X88368695Y-63684500D01*
X88368693Y-63684500D01*
X88209216Y-63716222D01*
X88209210Y-63716224D01*
X88072453Y-63772871D01*
X88002983Y-63780340D01*
X87977547Y-63772871D01*
X87840789Y-63716224D01*
X87840783Y-63716222D01*
X87681307Y-63684500D01*
X87681305Y-63684500D01*
X87518695Y-63684500D01*
X87518693Y-63684500D01*
X87359216Y-63716222D01*
X87359210Y-63716224D01*
X87222453Y-63772871D01*
X87152983Y-63780340D01*
X87127547Y-63772871D01*
X86990789Y-63716224D01*
X86990783Y-63716222D01*
X86831307Y-63684500D01*
X86831305Y-63684500D01*
X86668695Y-63684500D01*
X86668693Y-63684500D01*
X86509216Y-63716222D01*
X86509210Y-63716224D01*
X86372453Y-63772871D01*
X86302983Y-63780340D01*
X86277547Y-63772871D01*
X86140789Y-63716224D01*
X86140783Y-63716222D01*
X85981307Y-63684500D01*
X85981305Y-63684500D01*
X85818695Y-63684500D01*
X85818693Y-63684500D01*
X85659211Y-63716223D01*
X85658102Y-63716560D01*
X85657493Y-63716565D01*
X85653237Y-63717412D01*
X85653076Y-63716604D01*
X85644089Y-63716684D01*
X85630961Y-63721581D01*
X85609845Y-63716987D01*
X85588235Y-63717179D01*
X85575004Y-63709408D01*
X85562688Y-63706729D01*
X85534432Y-63685578D01*
X85530521Y-63681667D01*
X85530520Y-63681665D01*
X85418716Y-63569861D01*
X85418713Y-63569859D01*
X84487209Y-62638355D01*
X84487207Y-62638352D01*
X84368336Y-62519481D01*
X84368335Y-62519480D01*
X84281523Y-62469360D01*
X84281523Y-62469359D01*
X84281519Y-62469358D01*
X84231404Y-62440423D01*
X84078676Y-62399499D01*
X83920562Y-62399499D01*
X83912966Y-62399499D01*
X83912950Y-62399500D01*
X81586670Y-62399500D01*
X81586654Y-62399499D01*
X81579058Y-62399499D01*
X81420943Y-62399499D01*
X81344579Y-62419961D01*
X81268214Y-62440423D01*
X81268209Y-62440426D01*
X81131290Y-62519475D01*
X81131282Y-62519481D01*
X80561237Y-63089526D01*
X80499914Y-63123011D01*
X80430222Y-63118027D01*
X80374289Y-63076155D01*
X80354895Y-63037840D01*
X80347687Y-63014079D01*
X80314180Y-62903619D01*
X80191961Y-62608556D01*
X80187120Y-62599500D01*
X80041415Y-62326905D01*
X80041413Y-62326903D01*
X80041409Y-62326894D01*
X79979381Y-62234062D01*
X79863987Y-62061361D01*
X79863980Y-62061351D01*
X79863975Y-62061344D01*
X79661366Y-61814465D01*
X79661365Y-61814464D01*
X79661361Y-61814459D01*
X79435540Y-61588638D01*
X79188661Y-61386029D01*
X79188638Y-61386012D01*
X78923122Y-61208601D01*
X78923094Y-61208584D01*
X78641451Y-61058042D01*
X78641446Y-61058040D01*
X78461844Y-60983646D01*
X78407441Y-60939805D01*
X78385376Y-60873511D01*
X78402655Y-60805811D01*
X78404072Y-60803483D01*
X78713279Y-60308753D01*
X78765500Y-60262340D01*
X78818421Y-60250477D01*
X143698663Y-60250025D01*
X143765702Y-60269709D01*
G37*
%TD.AperFunction*%
%TD*%
M02*
