%TF.GenerationSoftware,KiCad,Pcbnew,9.0.0*%
%TF.CreationDate,2025-03-03T00:02:05+00:00*%
%TF.ProjectId,Wheelchair Powermeter PCB,57686565-6c63-4686-9169-7220506f7765,rev?*%
%TF.SameCoordinates,Original*%
%TF.FileFunction,Plated,1,2,PTH,Mixed*%
%TF.FilePolarity,Positive*%
%FSLAX46Y46*%
G04 Gerber Fmt 4.6, Leading zero omitted, Abs format (unit mm)*
G04 Created by KiCad (PCBNEW 9.0.0) date 2025-03-03 00:02:05*
%MOMM*%
%LPD*%
G01*
G04 APERTURE LIST*
%TA.AperFunction,ViaDrill*%
%ADD10C,0.300000*%
%TD*%
%TA.AperFunction,ComponentDrill*%
%ADD11C,0.400000*%
%TD*%
G04 aperture for slot hole*
%TA.AperFunction,ComponentDrill*%
%ADD12C,0.600000*%
%TD*%
%TA.AperFunction,ComponentDrill*%
%ADD13C,0.730000*%
%TD*%
%TA.AperFunction,ComponentDrill*%
%ADD14C,0.800000*%
%TD*%
%TA.AperFunction,ComponentDrill*%
%ADD15C,1.000000*%
%TD*%
%TA.AperFunction,ComponentDrill*%
%ADD16C,2.500000*%
%TD*%
%TA.AperFunction,ComponentDrill*%
%ADD17C,3.200000*%
%TD*%
G04 APERTURE END LIST*
D10*
X102500000Y-107500000D03*
X102750000Y-112000000D03*
D11*
%TO.C,J1*%
X83350000Y-64510000D03*
X83350000Y-65860000D03*
X84200000Y-64510000D03*
X84200000Y-65860000D03*
X85050000Y-64510000D03*
X85050000Y-65860000D03*
X85900000Y-64510000D03*
X85900000Y-65860000D03*
X86750000Y-64510000D03*
X86750000Y-65860000D03*
X87600000Y-64510000D03*
X87600000Y-65860000D03*
X88450000Y-64510000D03*
X88450000Y-65860000D03*
X89300000Y-64510000D03*
X89300000Y-65860000D03*
D12*
X82000000Y-61100000D02*
X82000000Y-61900000D01*
X82000000Y-64130000D02*
X82000000Y-65630000D01*
X90650000Y-61100000D02*
X90650000Y-61900000D01*
X90650000Y-64130000D02*
X90650000Y-65630000D01*
D13*
%TO.C,U2*%
X127537500Y-73250000D03*
X127537500Y-75750000D03*
X127537500Y-78250000D03*
X127537500Y-80750000D03*
X140237500Y-73250000D03*
X140237500Y-75750000D03*
X140237500Y-78250000D03*
X140237500Y-80750000D03*
D14*
%TO.C,U1*%
X76325000Y-102750000D03*
%TO.C,R5*%
X77690000Y-79880000D03*
%TO.C,U1*%
X78865000Y-102750000D03*
X81405000Y-102750000D03*
%TO.C,R4*%
X81500000Y-69690000D03*
X81500000Y-77310000D03*
%TO.C,U1*%
X83945000Y-102750000D03*
%TO.C,R1*%
X85000000Y-69690000D03*
X85000000Y-77310000D03*
%TO.C,R5*%
X85310000Y-79880000D03*
%TO.C,U1*%
X86485000Y-82750000D03*
X86485000Y-102750000D03*
%TO.C,R6*%
X87500000Y-80000000D03*
%TO.C,R2*%
X88000000Y-69690000D03*
X88000000Y-77310000D03*
%TO.C,U1*%
X89025000Y-82750000D03*
X89025000Y-102750000D03*
%TO.C,R3*%
X91000000Y-69690000D03*
X91000000Y-77310000D03*
%TO.C,U1*%
X91565000Y-82750000D03*
X91565000Y-102750000D03*
X94105000Y-82750000D03*
X94105000Y-102750000D03*
%TO.C,R6*%
X95120000Y-80000000D03*
%TO.C,U1*%
X96645000Y-82750000D03*
X96645000Y-102750000D03*
X99185000Y-82750000D03*
X99185000Y-102750000D03*
X101725000Y-82750000D03*
X101725000Y-102750000D03*
X104265000Y-82750000D03*
X104265000Y-102750000D03*
X106805000Y-82750000D03*
X106805000Y-102750000D03*
X109345000Y-82750000D03*
X109345000Y-102750000D03*
X111885000Y-82750000D03*
X111885000Y-102750000D03*
X114425000Y-82750000D03*
X114425000Y-102750000D03*
X116875000Y-82750000D03*
X116875000Y-102750000D03*
%TO.C,U4*%
X125630000Y-105250000D03*
X128170000Y-105250000D03*
X130710000Y-105250000D03*
X133250000Y-105250000D03*
X135790000Y-105250000D03*
X138330000Y-105250000D03*
X140870000Y-105250000D03*
D15*
%TO.C,C1*%
X122257500Y-66250000D03*
X122257500Y-81250000D03*
%TO.C,U3*%
X127650000Y-86650000D03*
X127650000Y-99350000D03*
X130190000Y-86650000D03*
X130190000Y-99350000D03*
X132730000Y-86650000D03*
X132730000Y-99350000D03*
X135270000Y-86650000D03*
X135270000Y-99350000D03*
X137810000Y-86650000D03*
X137810000Y-99350000D03*
X140350000Y-86650000D03*
X140350000Y-99350000D03*
D16*
%TO.C,TP_3.3V1*%
X78750000Y-108750000D03*
%TO.C,TP_VBUS1*%
X81500000Y-84750000D03*
%TO.C,TP_GND1*%
X84000000Y-109000000D03*
%TO.C,TP3*%
X94000000Y-89500000D03*
%TO.C,TP5*%
X99000000Y-90000000D03*
%TO.C,TP4*%
X101750000Y-76250000D03*
%TO.C,TP7*%
X104000000Y-90000000D03*
%TO.C,TP6*%
X107000000Y-76500000D03*
%TO.C,TP8*%
X112250000Y-76500000D03*
%TO.C,TP_GND2*%
X120500000Y-110000000D03*
%TO.C,TP_GND3*%
X120500000Y-117000000D03*
%TO.C,U3*%
X123840000Y-86650000D03*
X123840000Y-99350000D03*
X144160000Y-86650000D03*
X144160000Y-99350000D03*
D17*
%TO.C,REF4*%
X77250000Y-64000000D03*
%TO.C,REF3*%
X77250000Y-119000000D03*
%TO.C,REF1*%
X146000000Y-64000000D03*
%TO.C,REF2*%
X146000000Y-118750000D03*
M02*
